<svg width="561" height="531" viewBox="0 0 561 531" fill="none" xmlns="http://www.w3.org/2000/svg">
    <path d="M458.361 459.106C465.336 463.051 465.336 469.54 458.361 473.485C451.385 477.429 440.017 477.429 433.041 473.485C426.066 469.54 426.066 463.051 433.041 459.106C440.017 455.161 451.385 455.161 458.361 459.106Z"
          fill="#0F4444"/>
    <path d="M196.256 369.651L100.017 424.495C96.9169 426.276 91.8789 426.276 88.6494 424.495C85.5491 422.713 85.5491 419.787 88.6494 418.005L184.888 363.162C187.988 361.38 193.026 361.38 196.256 363.162C199.485 364.943 199.485 367.87 196.256 369.651Z"
          fill="#0F4444"/>
    <path d="M270.663 327.278L219.766 356.291C216.666 358.072 211.628 358.072 208.398 356.291C205.298 354.509 205.298 351.582 208.398 349.801L259.295 320.789C262.395 319.007 267.433 319.007 270.663 320.789C273.892 322.57 273.892 325.497 270.663 327.278Z"
          fill="#0F4444"/>
    <path d="M224.805 324.606L128.566 379.449C125.466 381.231 120.428 381.231 117.198 379.449C114.098 377.668 114.098 374.741 117.198 372.96L213.437 318.116C216.537 316.335 221.575 316.335 224.805 318.116C228.034 319.898 228.034 322.824 224.805 324.606Z"
          fill="#0F4444"/>
    <path d="M348.042 254.493L251.803 309.336C248.703 311.118 243.665 311.118 240.435 309.336C237.335 307.555 237.335 304.628 240.435 302.847L336.674 248.004C339.774 246.222 344.812 246.222 348.042 248.004C351.142 249.912 351.142 252.712 348.042 254.493Z"
          fill="#0F4444"/>
    <path d="M403.33 280.579L307.091 335.422C303.991 337.203 298.953 337.203 295.724 335.422C292.623 333.64 292.623 330.714 295.724 328.932L391.962 274.089C395.063 272.308 400.101 272.308 403.33 274.089C406.43 275.87 406.43 278.797 403.33 280.579Z"
          fill="#0F4444"/>
    <path d="M221.575 384.03L193.414 400.063C190.313 401.845 185.275 401.845 182.046 400.063C178.946 398.282 178.946 395.355 182.046 393.574L210.207 377.541C213.307 375.759 218.345 375.759 221.575 377.541C224.675 379.322 224.675 382.249 221.575 384.03Z"
          fill="#0F4444"/>
    <path d="M463.27 246.477L435.109 262.51C432.008 264.291 426.97 264.291 423.741 262.51C420.64 260.728 420.64 257.801 423.741 256.02L451.902 239.987C455.002 238.206 460.04 238.206 463.27 239.987C466.37 241.768 466.37 244.695 463.27 246.477Z"
          fill="#0F4444"/>
    <path d="M244.052 284.905L147.684 339.748C144.584 341.53 139.546 341.53 136.316 339.748C133.216 337.967 133.216 335.04 136.316 333.258L232.555 278.415C235.655 276.634 240.693 276.634 243.923 278.415C247.152 280.324 247.152 283.123 244.052 284.905Z"
          fill="#0F4444"/>
    <path d="M303.991 250.803L275.83 266.836C272.73 268.617 267.692 268.617 264.462 266.836C261.362 265.054 261.362 262.128 264.462 260.346L292.624 244.313C295.724 242.532 300.762 242.532 303.991 244.313C307.092 246.222 307.092 249.021 303.991 250.803Z"
          fill="#0F4444"/>
    <path d="M351.271 474.884L255.032 529.727C251.932 531.509 246.894 531.509 243.665 529.727C240.564 527.946 240.564 525.019 243.665 523.238L339.903 468.395C343.003 466.613 348.042 466.613 351.271 468.395C354.371 470.176 354.371 473.103 351.271 474.884Z"
          fill="#0F4444"/>
    <path d="M425.678 432.511L374.781 461.523C371.681 463.305 366.643 463.305 363.414 461.523C360.313 459.742 360.313 456.815 363.414 455.034L414.31 426.022C417.411 424.24 422.449 424.24 425.678 426.022C428.778 427.803 428.778 430.73 425.678 432.511Z"
          fill="#0F4444"/>
    <path d="M379.82 429.839L283.581 484.683C280.481 486.464 275.443 486.464 272.213 484.683C269.113 482.901 269.113 479.974 272.213 478.193L368.452 423.35C371.552 421.568 376.59 421.568 379.82 423.35C382.92 425.131 382.92 428.058 379.82 429.839Z"
          fill="#0F4444"/>
    <path d="M502.928 359.853L406.689 414.697C403.589 416.478 398.551 416.478 395.321 414.697C392.221 412.915 392.221 409.989 395.321 408.207L491.56 353.364C494.66 351.582 499.698 351.582 502.928 353.364C506.157 355.145 506.157 358.072 502.928 359.853Z"
          fill="#0F4444"/>
    <path d="M558.346 385.812L462.107 440.655C459.007 442.437 453.969 442.437 450.739 440.655C447.639 438.874 447.639 435.947 450.739 434.166L546.978 379.322C550.078 377.541 555.116 377.541 558.346 379.322C561.446 381.104 561.446 384.031 558.346 385.812Z"
          fill="#0F4444"/>
    <path d="M376.59 489.263L348.429 505.296C345.329 507.078 340.291 507.078 337.061 505.296C333.961 503.515 333.961 500.588 337.061 498.807L365.222 482.774C368.322 480.992 373.36 480.992 376.59 482.774C379.69 484.555 379.69 487.482 376.59 489.263Z"
          fill="#0F4444"/>
    <path d="M399.067 390.266L302.829 445.109C299.728 446.89 294.69 446.89 291.461 445.109C288.361 443.327 288.361 440.401 291.461 438.619L387.699 383.776C390.8 381.995 395.838 381.995 399.067 383.776C402.168 385.557 402.168 388.484 399.067 390.266Z"
          fill="#0F4444"/>
    <path d="M459.006 356.036L430.845 372.069C427.745 373.851 422.707 373.851 419.478 372.069C416.377 370.288 416.377 367.361 419.478 365.58L447.639 349.547C450.739 347.765 455.777 347.765 459.006 349.547C462.107 351.455 462.107 354.255 459.006 356.036Z"
          fill="#0F4444"/>
    <path d="M285.26 402.481L189.022 457.324C185.921 459.106 180.883 459.106 177.654 457.324C174.554 455.543 174.554 452.616 177.654 450.835L273.892 395.991C276.993 394.21 282.031 394.21 285.26 395.991C288.361 397.773 288.361 400.699 285.26 402.481Z"
          fill="#0F4444"/>
    <path d="M359.667 360.235L308.771 389.247C305.67 391.029 300.632 391.029 297.403 389.247C294.303 387.466 294.303 384.539 297.403 382.757L348.3 353.745C351.4 351.964 356.438 351.964 359.667 353.745C362.768 355.527 362.768 358.453 359.667 360.235Z"
          fill="#0F4444"/>
    <path d="M313.809 357.563L217.441 412.279C214.341 414.06 209.303 414.06 206.073 412.279C202.973 410.497 202.973 407.571 206.073 405.789L302.312 350.946C305.412 349.165 310.45 349.165 313.68 350.946C316.909 352.855 316.909 355.781 313.809 357.563Z"
          fill="#0F4444"/>
    <path d="M436.917 287.45L340.678 342.293C337.578 344.075 332.54 344.075 329.311 342.293C326.21 340.512 326.21 337.585 329.311 335.804L425.549 280.961C428.649 279.179 433.687 279.179 436.917 280.961C440.017 282.742 440.017 285.669 436.917 287.45Z"
          fill="#0F4444"/>
    <path d="M492.206 313.536L395.967 368.379C392.867 370.16 387.829 370.16 384.599 368.379C381.499 366.597 381.499 363.671 384.599 361.889L480.838 307.046C483.938 305.265 488.976 305.265 492.206 307.046C495.306 308.828 495.306 311.754 492.206 313.536Z"
          fill="#0F4444"/>
    <path d="M310.45 416.86L282.289 432.893C279.189 434.674 274.151 434.674 270.921 432.893C267.821 431.112 267.821 428.185 270.921 426.403L299.083 410.37C302.183 408.589 307.221 408.589 310.45 410.37C313.68 412.152 313.68 415.078 310.45 416.86Z"
          fill="#0F4444"/>
    <path d="M552.145 279.306L523.984 295.339C520.883 297.121 515.845 297.121 512.616 295.339C509.515 293.558 509.515 290.631 512.616 288.85L540.777 272.817C543.877 271.035 548.915 271.035 552.145 272.817C555.245 274.725 555.245 277.525 552.145 279.306Z"
          fill="#0F4444"/>
    <path d="M332.927 317.862L236.689 372.705C233.588 374.487 228.55 374.487 225.321 372.705C222.221 370.924 222.221 367.997 225.321 366.216L321.559 311.372C324.66 309.591 329.698 309.591 332.927 311.372C336.027 313.154 336.027 316.08 332.927 317.862Z"
          fill="#0F4444"/>
    <path d="M392.867 283.76L364.706 299.793C361.605 301.574 356.567 301.574 353.338 299.793C350.238 298.011 350.238 295.085 353.338 293.303L381.499 277.27C384.599 275.489 389.637 275.489 392.867 277.27C395.967 279.052 395.967 281.978 392.867 283.76Z"
          fill="#0F4444"/>
    <path d="M104.022 337.458L12.9502 389.247C9.9791 390.901 5.19947 390.901 2.22834 389.247C-0.742781 387.593 -0.742781 384.794 2.22834 383.139L93.2998 331.35C96.2709 329.696 101.051 329.696 104.022 331.35C106.993 333.004 106.993 335.804 104.022 337.458Z"
          fill="#0F4444"/>
    <path d="M174.295 297.375L126.24 324.733C123.269 326.388 118.49 326.388 115.518 324.733C112.547 323.079 112.547 320.28 115.518 318.626L163.702 291.268C166.673 289.613 171.453 289.613 174.424 291.268C177.266 292.922 177.266 295.721 174.295 297.375Z"
          fill="#0F4444"/>
    <path d="M131.02 294.83L39.9488 346.62C36.9776 348.274 32.198 348.274 29.2269 346.62C26.2558 344.966 26.2558 342.166 29.2269 340.512L120.298 288.723C123.269 287.068 128.049 287.068 131.02 288.723C133.991 290.504 133.991 293.176 131.02 294.83Z"
          fill="#0F4444"/>
    <path d="M247.411 228.535L156.339 280.324C153.368 281.979 148.589 281.979 145.618 280.324C142.646 278.67 142.646 275.871 145.618 274.216L236.689 222.427C239.66 220.773 244.44 220.773 247.411 222.427C250.382 224.209 250.382 226.881 247.411 228.535Z"
          fill="#0F4444"/>
    <path d="M299.728 253.221L208.657 305.01C205.686 306.665 200.906 306.665 197.935 305.01C194.964 303.356 194.964 300.557 197.935 298.903L289.006 247.113C291.977 245.459 296.757 245.459 299.728 247.113C302.699 248.767 302.699 251.567 299.728 253.221Z"
          fill="#0F4444"/>
    <path d="M127.92 351.074L101.309 366.216C98.338 367.87 93.5584 367.87 90.5872 366.216C87.6161 364.562 87.6161 361.762 90.5872 360.108L117.198 344.966C120.169 343.312 124.949 343.312 127.92 344.966C130.891 346.62 130.891 349.292 127.92 351.074Z"
          fill="#0F4444"/>
    <path d="M356.438 220.9L329.827 236.043C326.856 237.697 322.076 237.697 319.105 236.043C316.134 234.388 316.134 231.589 319.105 229.935L345.716 214.792C348.687 213.138 353.467 213.138 356.438 214.792C359.409 216.574 359.409 219.246 356.438 220.9Z"
          fill="#0F4444"/>
    <path d="M149.105 257.293L58.0337 309.21C55.0626 310.864 50.283 310.864 47.3118 309.21C44.3407 307.555 44.3407 304.756 47.3118 303.102L138.383 251.312C141.354 249.658 146.134 249.658 149.105 251.312C152.076 252.967 152.076 255.639 149.105 257.293Z"
          fill="#0F4444"/>
    <path d="M205.815 225.099L179.204 240.242C176.233 241.896 171.453 241.896 168.482 240.242C165.511 238.588 165.511 235.788 168.482 234.134L195.093 218.992C198.064 217.337 202.844 217.337 205.815 218.992C208.786 220.646 208.786 223.445 205.815 225.099Z"
          fill="#0F4444"/>
    <path d="M525.404 418.132L409.531 484.046C395.192 492.19 371.81 492.19 357.471 484.046L80.1233 326.387C65.7844 318.244 65.7844 305.01 80.1233 296.739L195.997 230.825C210.336 222.681 233.718 222.681 248.056 230.825L525.404 388.611C539.743 396.755 539.743 409.988 525.404 418.132Z"
          fill="black" fill-opacity="0.4"/>
    <path d="M69.6598 267.727C71.3391 269.89 73.5352 271.417 75.8604 272.817L354.629 431.366C357.859 433.275 361.347 434.547 365.093 435.311C368.71 436.074 372.585 436.456 376.332 436.456C383.953 436.456 391.833 434.929 398.163 431.366L530.83 355.909C534.576 353.746 538.581 350.056 539.614 345.984C539.743 345.347 539.873 344.584 539.873 343.82C539.873 352.346 539.873 354.764 539.873 363.289C539.873 368.634 535.61 372.96 530.83 375.632L398.163 451.089C394.933 452.871 391.445 454.271 387.699 455.034C376.977 457.324 364.059 456.434 354.629 451.089L75.8604 292.54C74.6978 291.904 73.5352 291.14 72.3726 290.25C69.4015 287.832 66.8179 283.887 66.8179 280.07C66.8179 271.544 66.8179 268.872 66.8179 260.347C66.8179 262.892 67.9805 265.564 69.6598 267.727Z"
          fill="#A9A8C6"/>
    <path d="M475.541 393.192C476.446 392.683 477.092 392.683 477.738 392.938C478.383 393.192 478.771 393.956 478.771 395.101V396.501C478.771 398.537 477.35 401.081 475.541 402.099L453.064 414.824C452.16 415.333 451.385 415.333 450.739 415.079C450.093 414.697 449.706 414.061 449.706 413.043V411.643C449.706 409.607 451.127 407.062 452.935 406.044L475.541 393.192Z"
          fill="#1C1A2A"/>
    <path d="M425.807 421.186C428.908 418.005 431.879 419.278 431.879 422.586C431.75 427.422 426.841 432.13 424.257 430.603C423.87 430.348 423.611 430.094 423.353 429.585C422.965 428.821 422.836 427.931 422.965 427.04C423.095 426.022 423.482 425.004 423.87 423.986C424.128 423.604 424.386 423.222 424.516 422.841C424.903 422.204 425.291 421.695 425.807 421.186Z"
          fill="#1C1A2A"/>
    <path d="M75.0854 266.455C77.4106 269.127 79.2191 269.89 87.2282 274.471C87.3574 274.598 358.892 429.076 360.313 429.712C364.964 431.875 370.648 433.02 376.461 433.02V436.329C372.585 436.329 368.839 435.947 365.222 435.184C361.476 434.42 357.988 433.148 354.759 431.239L75.8604 272.69C73.5352 271.417 71.3391 269.763 69.6598 267.6C67.9805 265.437 66.9471 262.892 66.8179 260.22C66.8179 259.456 66.8179 258.565 67.0762 257.802C68.1097 253.603 72.1142 249.913 75.8604 247.877L208.528 172.419C214.857 168.857 222.608 167.33 230.359 167.33V170.638C227.517 170.638 224.675 170.892 221.833 171.529C216.149 172.674 213.307 174.455 209.044 177C204.652 179.545 218.862 171.274 159.31 205.249C149.622 210.721 139.933 216.447 130.245 221.918C120.556 227.39 110.739 232.862 101.05 238.46C97.0458 240.751 93.0413 243.169 88.9075 245.459C84.1279 248.131 79.7358 250.422 77.5398 252.203C72.2434 256.02 70.9516 261.492 75.0854 266.455Z"
          fill="#E1DFEA"/>
    <path d="M141.871 320.789L144.196 319.516L119.652 305.646L117.456 306.919L141.871 320.789Z" fill="#E1DFEA"/>
    <path d="M144.196 322.571V319.517L141.871 320.789V323.843L144.196 322.571Z" fill="#7C7CA0"/>
    <path d="M141.871 323.843V320.789L117.456 306.919V309.973L141.871 323.843Z" fill="#7C7CA0"/>
    <path d="M411.468 434.038C411.985 433.784 412.372 433.148 412.372 432.639C412.372 432.13 411.985 431.875 411.468 432.13C410.951 432.384 410.564 433.02 410.564 433.529C410.564 434.166 410.951 434.293 411.468 434.038Z"
          fill="#1C1A2A"/>
    <path d="M523.596 374.869C524.371 374.487 524.888 373.469 524.888 372.705V366.47C524.888 365.707 524.242 365.325 523.596 365.707C522.821 366.089 522.304 367.107 522.304 367.87V374.105C522.175 374.996 522.821 375.25 523.596 374.869Z"
          fill="#1C1A2A"/>
    <path d="M518.17 377.922C518.945 377.541 519.462 376.523 519.462 375.759V369.524C519.462 368.761 518.816 368.379 518.17 368.761C517.395 369.142 516.878 370.16 516.878 370.924V377.159C516.878 378.05 517.524 378.304 518.17 377.922Z"
          fill="#1C1A2A"/>
    <path d="M512.874 380.977C513.649 380.595 514.166 379.577 514.166 378.813V372.578C514.166 371.815 513.52 371.433 512.874 371.815C512.099 372.197 511.582 373.214 511.582 373.978V380.213C511.582 380.977 512.228 381.358 512.874 380.977Z"
          fill="#1C1A2A"/>
    <path d="M507.578 384.03C508.353 383.648 508.87 382.631 508.87 381.867V375.632C508.87 374.869 508.224 374.487 507.578 374.869C506.803 375.25 506.286 376.268 506.286 377.032V383.267C506.286 384.03 506.803 384.412 507.578 384.03Z"
          fill="#1C1A2A"/>
    <path d="M502.281 386.957C503.057 386.575 503.573 385.557 503.573 384.794V378.559C503.573 377.795 502.927 377.414 502.281 377.795C501.506 378.177 500.99 379.195 500.99 379.958V386.194C500.861 387.084 501.506 387.466 502.281 386.957Z"
          fill="#1C1A2A"/>
    <path d="M496.856 390.011C497.631 389.629 498.148 388.611 498.148 387.848V381.612C498.148 380.849 497.502 380.467 496.856 380.849C496.081 381.231 495.564 382.249 495.564 383.012V389.247C495.564 390.138 496.21 390.52 496.856 390.011Z"
          fill="#1C1A2A"/>
    <path d="M530.701 355.782L398.034 431.239C391.704 434.802 383.953 436.456 376.202 436.329V433.02C381.369 433.02 386.407 432.13 390.799 430.348C393.383 429.33 395.321 428.058 397.517 426.785C401.909 424.24 387.699 432.511 447.251 398.536C456.939 393.065 466.628 387.339 476.316 381.867C486.005 376.396 495.822 370.924 505.511 365.325C509.515 363.035 513.52 360.617 517.654 358.327C525.663 353.873 529.409 352.091 531.992 348.656C535.222 344.075 534.447 337.967 526.438 333.259C526.179 333.132 247.41 174.455 246.119 173.819C241.727 171.656 236.043 170.511 229.971 170.511V167.202C233.847 167.202 237.593 167.584 241.21 168.347C244.956 169.111 248.444 170.383 251.673 172.292L530.313 330.841C532.638 332.114 534.834 333.768 536.514 335.931C538.193 338.094 539.356 340.894 539.356 343.566C539.356 344.329 539.227 344.966 539.097 345.729C538.451 350.056 534.447 353.746 530.701 355.782Z"
          fill="#E1DFEA"/>
    <path d="M251.415 176.873C248.186 175.091 246.377 173.946 246.248 173.946C241.856 171.783 236.172 170.638 230.101 170.638C227.259 170.638 224.417 170.892 221.575 171.528C215.891 172.674 213.049 174.455 208.786 177C204.781 179.418 216.795 172.419 170.42 198.759L159.052 205.249C149.364 210.72 139.675 216.446 129.987 221.918C127.274 223.445 124.69 224.972 121.978 226.372C114.873 230.316 107.897 234.261 100.792 238.333C96.7875 240.623 92.783 243.041 88.6492 245.331C83.8696 248.004 79.4775 250.294 77.2815 252.076C72.2435 256.02 70.9517 261.619 75.0854 266.454C77.4106 269.127 79.2192 269.89 87.2283 274.471L205.169 341.53C278.672 383.394 359.538 429.33 360.313 429.712C364.964 431.875 370.648 433.02 376.332 433.02C381.499 433.02 386.537 432.13 390.929 430.348C393.512 429.33 395.45 428.058 397.646 426.785C402.038 424.24 387.829 432.511 447.38 398.536C457.069 393.065 466.757 387.339 476.446 381.867C486.134 376.395 495.952 370.924 505.64 365.325C509.645 363.035 513.649 360.617 517.783 358.326C525.792 353.873 529.538 352.091 532.122 348.656C535.222 344.202 534.705 338.476 527.471 333.895C527.213 333.641 526.826 333.513 526.567 333.386C526.309 333.259 289.523 198.505 251.415 176.873Z"
          fill="#E1DFEA"/>
    <path d="M527.471 333.895C534.705 338.476 535.222 344.202 532.122 348.656C529.667 352.219 525.921 353.873 517.783 358.326C513.778 360.617 509.644 362.907 505.64 365.325C495.951 370.924 486.263 376.268 476.445 381.867C466.757 387.339 457.068 393.065 447.38 398.536C387.699 432.511 401.909 424.24 397.646 426.785C395.321 428.185 393.512 429.33 390.929 430.348C381.628 434.165 368.839 433.911 360.184 429.712C358.892 429.076 122.882 294.703 87.0989 274.471C79.0897 269.89 77.2812 269.127 74.956 266.454C70.8223 261.492 72.1141 256.02 77.1521 252.076C79.8648 249.912 204.781 179.291 208.657 177C212.92 174.455 215.761 172.801 221.445 171.528C230.23 169.62 239.66 170.892 246.119 173.946C246.377 174.073 238.885 169.747 527.471 333.895Z"
          fill="url(#paint0_linear_132_1653)"/>
    <path d="M164.736 209.067C165.898 208.43 167.836 208.43 169.128 209.067L170.678 209.957L141.096 226.754C139.933 227.39 137.996 227.39 136.704 226.754L135.154 225.863L164.736 209.067Z"
          fill="#090000"/>
    <path d="M168.999 206.012L171.065 207.158C172.228 207.794 172.228 208.939 171.065 209.575L170.678 209.83L169.128 208.939C167.965 208.303 166.027 208.303 164.736 208.939L135.154 225.736L134.766 225.481C134.12 225.099 133.862 224.718 133.862 224.209C133.862 223.7 134.12 223.318 134.766 222.936L164.736 205.885C165.898 205.376 167.836 205.376 168.999 206.012Z"
          fill="#1A2738"/>
    <g opacity="0.27">
        <path d="M194.835 240.623L134.379 274.98C132.441 276.125 129.212 276.125 127.274 274.98C125.336 273.835 125.336 272.053 127.274 270.908L187.73 236.551C189.668 235.406 192.897 235.406 194.835 236.551C196.902 237.697 196.902 239.605 194.835 240.623Z"
              fill="white"/>
        <path d="M190.83 259.201L148.588 283.251C146.651 284.396 143.421 284.396 141.484 283.251C139.546 282.106 139.546 280.324 141.484 279.179L183.725 255.129C185.663 253.984 188.892 253.984 190.83 255.129C192.768 256.275 192.768 258.056 190.83 259.201Z"
              fill="white"/>
        <path d="M205.04 267.218L162.798 291.268C160.861 292.413 157.631 292.413 155.694 291.268C153.756 290.122 153.756 288.341 155.694 287.196L197.935 263.146C199.873 262.001 203.102 262.001 205.04 263.146C206.978 264.291 206.978 266.073 205.04 267.218Z"
              fill="white"/>
    </g>
    <g opacity="0.27">
        <path d="M287.844 298.393L227.388 332.75C225.45 333.895 222.221 333.895 220.283 332.75C218.345 331.605 218.345 329.823 220.283 328.678L280.739 294.321C282.676 293.176 285.906 293.176 287.844 294.321C289.781 295.467 289.781 297.375 287.844 298.393Z"
              fill="white"/>
        <path d="M283.71 316.971L241.468 341.021C239.531 342.166 236.301 342.166 234.363 341.021C232.426 339.876 232.426 338.094 234.363 336.949L276.605 312.899C278.543 311.754 281.772 311.754 283.71 312.899C285.648 314.045 285.648 315.826 283.71 316.971Z"
              fill="white"/>
        <path d="M297.919 324.988L255.678 349.038C253.74 350.183 250.511 350.183 248.573 349.038C246.635 347.892 246.635 346.111 248.573 344.966L290.814 320.916C292.752 319.771 295.982 319.771 297.919 320.916C299.857 322.061 299.857 323.843 297.919 324.988Z"
              fill="white"/>
    </g>
    <g opacity="0.27">
        <path d="M411.598 281.851L351.142 316.208C349.204 317.353 345.974 317.353 344.037 316.208C342.099 315.063 342.099 313.281 344.037 312.136L404.493 277.779C406.43 276.634 409.66 276.634 411.598 277.779C413.535 278.925 413.535 280.706 411.598 281.851Z"
              fill="white"/>
        <path d="M407.464 300.302L365.222 324.351C363.285 325.497 360.055 325.497 358.117 324.351C356.18 323.206 356.18 321.425 358.117 320.28L400.359 296.23C402.297 295.085 405.526 295.085 407.464 296.23C409.402 297.375 409.402 299.284 407.464 300.302Z"
              fill="white"/>
        <path d="M421.673 308.446L379.432 332.496C377.494 333.641 374.264 333.641 372.327 332.496C370.389 331.35 370.389 329.569 372.327 328.424L414.568 304.374C416.506 303.229 419.736 303.229 421.673 304.374C423.611 305.519 423.611 307.301 421.673 308.446Z"
              fill="white"/>
    </g>
    <g opacity="0.27">
        <path d="M398.551 358.326L338.095 392.683C336.157 393.828 332.928 393.828 330.99 392.683C329.052 391.538 329.052 389.756 330.99 388.611L391.446 354.254C393.383 353.109 396.613 353.109 398.551 354.254C400.488 355.4 400.488 357.308 398.551 358.326Z"
              fill="white"/>
        <path d="M394.546 376.904L352.304 400.827C350.367 401.972 347.137 401.972 345.199 400.827C343.262 399.681 343.262 397.9 345.199 396.755L387.441 372.705C389.379 371.56 392.608 371.56 394.546 372.705C396.484 373.978 396.484 375.759 394.546 376.904Z"
              fill="white"/>
        <path d="M408.756 384.921L366.514 408.97C364.576 410.115 361.347 410.115 359.409 408.97C357.472 407.825 357.472 406.044 359.409 404.898L401.651 380.849C403.589 379.703 406.818 379.703 408.756 380.849C410.694 381.994 410.694 383.775 408.756 384.921Z"
              fill="white"/>
    </g>
    <g opacity="0.27">
        <path opacity="0.27"
              d="M312.775 223.699L252.319 258.056C250.382 259.201 247.152 259.201 245.214 258.056C243.277 256.911 243.277 255.129 245.214 253.984L305.67 219.627C307.608 218.482 310.838 218.482 312.775 219.627C314.713 220.773 314.713 222.554 312.775 223.699Z"
              fill="#717F90"/>
        <path opacity="0.27"
              d="M308.771 242.15L266.529 266.2C264.592 267.345 261.362 267.345 259.424 266.2C257.487 265.054 257.487 263.273 259.424 262.128L301.666 238.078C303.604 236.933 306.833 236.933 308.771 238.078C310.709 239.223 310.709 241.005 308.771 242.15Z"
              fill="#717F90"/>
        <path opacity="0.27"
              d="M322.98 250.294L280.739 274.344C278.801 275.489 275.572 275.489 273.634 274.344C271.696 273.198 271.696 271.417 273.634 270.272L315.876 246.222C317.813 245.077 321.043 245.077 322.98 246.222C324.918 247.367 324.918 249.149 322.98 250.294Z"
              fill="#717F90"/>
    </g>
    <path d="M132.7 86.4005C132.7 97.4709 132.7 108.414 132.7 119.485C132.7 131.064 124.432 145.188 114.356 150.915C112.935 151.678 111.514 152.569 110.093 153.332L99.888 177.636L89.6828 165.039C88.2619 165.802 86.8409 166.693 85.4199 167.457C85.0324 167.711 84.6448 167.966 84.1281 168.093C79.4777 170.383 75.3439 170.51 72.3728 168.729C72.2436 168.729 72.2436 168.602 72.1144 168.602C68.885 166.693 66.9473 162.621 66.9473 157.022C66.9473 145.952 66.9473 135.009 66.9473 123.938C66.9473 112.359 75.2147 98.2344 85.4199 92.5083C95.1084 87.0367 104.797 81.4379 114.485 75.9663C119.523 73.1668 124.045 72.7851 127.274 74.5666C127.274 74.5666 127.403 74.6938 127.532 74.6938C130.633 76.4753 132.7 80.5471 132.7 86.4005Z"
          fill="#1F825E"/>
    <path d="M57.3879 160.204C54.0293 158.295 51.9624 154.223 51.9624 148.497C51.9624 137.426 51.9624 126.483 51.9624 115.413C51.9624 103.833 60.2299 89.7089 70.3059 83.9828C79.9943 78.5112 89.6828 72.9124 99.3712 67.4408C104.409 64.5141 109.06 64.2596 112.418 66.1683C117.327 68.9677 122.236 71.7671 127.145 74.5666C123.786 72.7851 119.265 73.1669 114.356 75.9663C104.668 81.4379 94.9791 87.0367 85.2907 92.5083C75.0855 98.2344 66.818 112.232 66.818 123.811C66.818 134.881 66.818 145.825 66.818 156.895C66.818 162.494 68.7557 166.566 71.9852 168.475C67.0764 165.675 62.2968 162.876 57.3879 160.204Z"
          fill="#36CF98"/>
    <path d="M89.5535 164.912L99.7586 177.509L84.903 168.984L84.1279 167.966C84.5155 167.711 84.903 167.584 85.4197 167.329C86.7115 166.566 88.1325 165.802 89.5535 164.912Z"
          fill="#1F825E"/>
    <path d="M110.136 109.368C106.261 105.932 98.6393 108.604 93.0846 115.475C87.5299 122.219 86.2381 130.618 90.2427 134.053C93.6013 136.98 99.8019 135.326 104.969 130.49L112.074 136.726C112.849 137.489 114.528 136.853 115.691 135.326C116.854 133.799 117.241 132.145 116.337 131.381L109.232 125.146C112.978 118.911 113.624 112.294 110.136 109.368ZM105.615 126.419C101.481 131.636 95.6682 133.672 92.6971 130.999C89.7259 128.455 90.7594 122.092 94.8931 116.875C99.0269 111.658 104.84 109.622 107.811 112.294C110.782 114.966 109.749 121.201 105.615 126.419Z"
          fill="#FBFAFC"/>
    <path d="M67.5929 211.484L69.143 213.774C69.2722 213.902 69.5306 214.029 69.7889 213.902L73.406 212.375C74.181 212.12 74.4394 212.756 73.9227 213.647L71.3391 217.592C71.0807 217.974 71.0807 218.228 71.0807 218.483L71.7266 221.664C71.8558 222.3 71.0807 223.318 70.4348 223.318L67.2054 223.445C66.947 223.445 66.6886 223.7 66.3011 223.954L63.0716 227.39C62.4257 228.153 61.6506 228.026 61.7798 227.135L62.4257 223.318C62.4257 223.063 62.4257 222.809 62.1674 222.682L59.5838 221.664C59.0671 221.409 59.3254 220.391 60.1005 219.882L63.7175 217.337C63.9759 217.083 64.2342 216.828 64.3634 216.447L65.9136 212.375C66.3011 211.484 67.3345 210.975 67.5929 211.484Z"
          fill="#36CF98"/>
    <path d="M85.9362 201.05L87.4863 203.34C87.6155 203.467 87.8738 203.595 88.1322 203.467L91.7492 201.94C92.5243 201.686 92.7827 202.322 92.2659 203.213L89.6824 207.158C89.424 207.539 89.424 207.794 89.424 208.048L90.0699 211.229C90.1991 211.866 89.424 212.884 88.7781 212.884L85.5486 213.011C85.2903 213.011 85.0319 213.265 84.6444 213.52L81.4149 216.956C80.769 217.719 79.9939 217.592 80.1231 216.701L80.769 212.884C80.769 212.629 80.769 212.375 80.5106 212.247L77.927 211.229C77.4103 210.975 77.6687 209.957 78.4437 209.448L82.0608 206.903C82.3191 206.649 82.5775 206.394 82.7067 206.012L84.2568 201.94C84.6444 201.177 85.5486 200.668 85.9362 201.05Z"
          fill="#36CF98"/>
    <path d="M104.151 190.743L105.701 193.033C105.83 193.16 106.088 193.288 106.347 193.16L109.964 191.633C110.739 191.379 110.997 192.015 110.48 192.906L107.897 196.851C107.638 197.232 107.638 197.487 107.638 197.741L108.284 200.922C108.413 201.559 107.638 202.577 106.992 202.577L103.763 202.704C103.505 202.704 103.246 202.958 102.859 203.213L99.6292 206.649C98.9833 207.412 98.2083 207.285 98.3374 206.394L98.9833 202.577C98.9833 202.195 98.9833 202.068 98.725 201.94L96.1414 200.922C95.6247 200.668 95.883 199.65 96.6581 199.141L100.275 196.596C100.533 196.342 100.792 196.087 100.921 195.705L102.471 191.633C102.859 190.743 103.763 190.234 104.151 190.743Z"
          fill="#36CF98"/>
    <path d="M122.365 180.309L123.915 182.599C124.044 182.726 124.303 182.853 124.561 182.726L128.178 181.199C128.953 180.945 129.211 181.581 128.695 182.472L126.111 186.416C125.853 186.798 125.853 187.053 125.853 187.307L126.499 190.488C126.628 191.124 125.853 192.142 125.207 192.142L121.977 192.27C121.719 192.27 121.461 192.524 121.073 192.779L117.844 196.214C117.198 196.978 116.423 196.851 116.552 195.96L117.198 192.142C117.198 191.888 117.198 191.633 116.939 191.506L114.356 190.488C113.839 190.234 114.097 189.216 114.872 188.707L118.489 186.162C118.748 185.907 119.006 185.653 119.135 185.271L120.686 181.199C121.073 180.436 121.977 179.927 122.365 180.309Z"
          fill="#1F825E"/>
    <path d="M140.579 170.002L142.129 172.292C142.259 172.419 142.517 172.546 142.775 172.419L146.392 170.892C147.167 170.638 147.426 171.274 146.909 172.165L144.325 176.109C144.067 176.491 144.067 176.746 144.067 177L144.713 180.181C144.842 180.817 144.067 181.835 143.421 181.835L140.192 181.963C139.933 181.963 139.675 182.217 139.287 182.472L136.058 185.907C135.412 186.671 134.637 186.544 134.766 185.653L135.412 181.835C135.412 181.581 135.412 181.326 135.154 181.199L132.57 180.181C132.053 179.927 132.312 178.909 133.087 178.4L136.704 175.855C136.962 175.6 137.221 175.346 137.35 174.964L138.9 170.892C139.287 170.002 140.192 169.493 140.579 170.002Z"
          fill="#1F825E"/>
    <path d="M335.64 30.2847C335.64 39.4464 335.64 48.4809 335.64 57.6427C335.64 67.1862 342.487 78.8929 350.883 83.601C352.046 84.2372 353.209 85.0007 354.5 85.6369L362.897 105.742L371.294 95.3077C372.456 95.9439 373.619 96.7074 374.911 97.3436C375.298 97.5981 375.557 97.7254 375.944 97.8526C379.69 99.7613 383.178 99.7613 385.633 98.3616C385.762 98.3616 385.762 98.2344 385.891 98.2344C388.474 96.5801 390.154 93.2717 390.154 88.6909C390.154 79.5291 390.154 70.4946 390.154 61.3328C390.154 51.7893 383.307 40.0827 374.911 35.3745C366.902 30.7937 358.892 26.2128 350.883 21.7591C346.75 19.4687 343.003 19.087 340.291 20.6139C340.291 20.6139 340.161 20.6139 340.161 20.7412C337.449 22.1409 335.64 25.4493 335.64 30.2847Z"
          fill="#36CF98"/>
    <path d="M398.034 91.2358C400.747 89.7089 402.555 86.2732 402.555 81.5651C402.555 72.4034 402.555 63.3688 402.555 54.2071C402.555 44.6636 395.709 32.9569 387.312 28.2488C379.303 23.6679 371.294 19.087 363.285 14.6334C359.022 12.2157 355.276 11.9612 352.563 13.6154C348.429 15.9059 344.424 18.1963 340.42 20.614C343.133 19.087 346.879 19.4688 351.013 21.7592C359.022 26.3401 367.031 30.921 375.04 35.3746C383.437 40.21 390.283 51.7894 390.283 61.3329C390.283 70.4947 390.283 79.5292 390.283 88.6909C390.283 93.399 388.604 96.7075 386.02 98.2344C389.896 95.8167 394.029 93.5263 398.034 91.2358Z"
          fill="#1F825E"/>
    <path d="M371.423 95.1807L363.026 105.615L375.427 98.6163L376.073 97.7256C375.685 97.5984 375.427 97.3439 375.04 97.2166C373.748 96.5804 372.585 95.9441 371.423 95.1807Z"
          fill="#1F825E"/>
    <path d="M360.959 48.7353C360.701 48.6081 360.442 48.4808 360.313 48.6081L359.667 48.8626L355.792 46.6994C354.242 45.8086 353.079 46.1904 352.821 47.5901L352.433 49.7533L354.5 50.8985L354.758 48.9898C354.888 48.6081 355.275 48.4808 355.792 48.7353L360.055 51.153C360.313 51.2803 360.571 51.4075 360.701 51.2802L361.347 50.8985L364.576 52.68L365.222 53.8252C365.351 54.0797 365.609 54.3342 365.868 54.4614L370.131 56.8791C370.647 57.1336 371.035 57.7698 371.164 58.2788L371.423 60.5692L373.489 61.7145L373.102 59.1695C372.844 57.6426 371.552 55.7339 370.131 54.9704L366.255 52.8072L365.609 51.662C365.48 51.4075 365.222 51.153 364.964 51.0258L360.959 48.7353ZM350.883 50.8985C350.366 50.644 349.85 50.7713 349.85 51.2802V53.3162C349.85 53.8252 350.237 54.5887 350.883 54.8432L351.012 54.9704L352.562 65.0229C352.692 66.0408 353.596 67.1861 354.5 67.8223L371.164 77.2386C372.198 77.7475 372.973 77.6203 373.102 76.7296L374.652 68.4585L374.781 68.5858C375.298 68.8403 375.815 68.713 375.815 68.204V66.1681C375.815 65.6591 375.427 64.8956 374.781 64.6411L350.883 50.8985ZM367.935 65.5319C368.451 65.7864 368.968 66.5498 368.968 67.0588V72.0214C368.968 72.5304 368.581 72.7849 367.935 72.4032C367.418 72.1487 366.901 71.3852 366.901 70.8762V65.9136C366.901 65.4046 367.418 65.1501 367.935 65.5319ZM362.897 62.6052C363.413 62.8597 363.93 63.6232 363.93 64.1322V69.0948C363.93 69.6038 363.543 69.8582 362.897 69.4765C362.38 69.222 361.863 68.4585 361.863 67.9496V62.9869C361.863 62.4779 362.38 62.3507 362.897 62.6052ZM357.859 59.8058C358.375 60.0603 358.892 60.8237 358.892 61.3327V66.2953C358.892 66.8043 358.505 67.0588 357.859 66.6771C357.342 66.4226 356.825 65.6591 356.825 65.1501V60.1875C356.954 59.6785 357.342 59.5513 357.859 59.8058Z"
          fill="#FBFAFC"/>
    <path d="M420.64 333.895L356.825 370.16C350.496 373.723 340.29 373.723 333.961 370.16L216.666 303.483C210.336 299.92 210.336 294.067 216.666 290.504L280.48 254.239C286.81 250.676 297.015 250.676 303.345 254.239L420.64 320.916C426.97 324.479 426.97 330.332 420.64 333.895Z"
          fill="black" fill-opacity="0.2"/>
    <path d="M439.63 368.506C438.08 365.834 433.946 364.052 430.846 363.416C426.841 362.653 422.836 363.289 419.994 364.943C417.798 366.216 416.636 367.615 416.636 369.27C416.636 369.906 416.636 370.542 416.636 371.178C416.636 373.341 418.832 375.123 420.77 376.141C423.482 377.668 427.487 378.686 431.491 378.05C434.463 377.668 438.338 376.141 439.63 373.469C439.888 372.96 440.017 372.451 440.017 371.942C440.017 371.305 440.017 370.669 440.017 370.033C440.146 369.778 440.017 369.142 439.63 368.506ZM430.587 361.253L446.864 370.542L448.801 369.397V367.488L444.797 365.198L454.227 366.343L456.681 364.943V363.034L444.409 361.635C444.539 357.817 444.539 358.963 444.539 356.545L441.955 358.072C441.955 360.362 441.955 359.217 441.955 363.416L432.654 358.199L430.716 359.344V361.253H430.587ZM464.432 381.358C452.677 388.993 434.592 390.265 420.77 386.702C414.052 384.921 406.56 381.612 402.297 376.268C397.646 370.415 397.905 363.925 402.297 358.454C413.019 345.093 444.151 341.784 462.753 352.218C465.595 353.873 468.307 355.781 470.245 358.326C476.704 366.597 473.345 375.505 464.432 381.358Z"
          fill="black" fill-opacity="0.2"/>
    <path d="M390.671 365.198C392.738 367.743 395.321 369.779 398.163 371.306C410.952 378.559 429.812 379.322 443.893 374.487C449.318 372.578 455.002 369.524 458.49 365.198C460.557 362.653 461.849 359.726 461.849 356.291C461.849 359.472 461.849 362.653 461.849 365.834C461.849 373.596 454.744 379.322 447.639 382.503C434.075 388.611 414.827 388.611 401.263 382.503C394.159 379.322 387.054 373.596 387.054 365.834C387.054 362.653 387.054 359.472 387.054 356.291C387.183 359.599 388.604 362.653 390.671 365.198Z"
          fill="#B4AAD1"/>
    <path d="M445.055 351.964V353.873L442.601 355.272V353.364L445.055 351.964Z" fill="#18A48F"/>
    <path d="M442.601 353.364V355.273L433.171 354.127L432.654 353.746V352.219L442.601 353.364Z" fill="#18A48F"/>
    <path d="M437.175 356.418V358.327L435.238 359.472V357.563L437.175 356.418Z" fill="#18A48F"/>
    <path d="M435.238 357.563V359.472L418.961 350.183V348.274L435.238 357.563Z" fill="#18A48F"/>
    <path d="M437.175 356.418L435.238 357.563L418.961 348.274L420.899 347.129L430.2 352.346C430.2 352.346 430.2 352.728 430.2 347.002L432.783 345.475L432.654 350.564C433.687 350.692 429.166 350.183 445.055 351.964L442.601 353.364L432.654 352.091V353.618C432.654 353.873 432.912 354 437.175 356.418Z"
          fill="#1EEBCD"/>
    <path d="M428.004 357.436C426.453 354.764 422.32 352.982 419.219 352.346C415.215 351.582 411.21 352.219 408.368 353.873C406.172 355.145 405.01 356.545 405.01 358.199C405.01 358.835 405.01 359.472 405.01 360.108C405.01 362.271 407.206 364.053 409.143 365.07C411.856 366.597 415.861 367.615 419.865 366.979C422.836 366.597 426.712 365.07 428.004 362.398C428.262 361.889 428.391 361.38 428.391 360.871C428.391 360.235 428.391 359.599 428.391 358.963C428.52 358.708 428.391 358.072 428.004 357.436ZM418.961 350.183L435.238 359.472L437.175 358.326V356.418L433.171 354.127L442.601 355.273L445.055 353.873V351.964L432.783 350.564C432.912 346.747 432.912 347.892 432.912 345.475L430.329 347.001C430.329 349.292 430.329 348.147 430.329 352.346L421.028 347.129L419.09 348.274V350.183H418.961ZM452.677 370.288C440.922 377.922 422.836 379.195 409.014 375.632C402.297 373.851 394.804 370.542 390.542 365.198C385.891 359.344 386.149 352.855 390.542 347.383C401.263 334.022 432.396 330.714 450.997 341.148C453.839 342.802 456.552 344.711 458.49 347.256C465.078 355.527 461.719 364.307 452.677 370.288Z"
          fill="#ECE7F2"/>
    <path d="M425.678 359.599C425.808 357.818 423.87 356.545 422.449 355.654C418.057 353.109 413.277 353.364 410.306 355.018C408.756 355.909 407.981 356.927 407.981 358.199C407.852 359.854 410.177 361.253 411.598 362.144C415.732 364.434 420.382 364.307 423.482 362.526C424.516 361.889 425.549 360.999 425.678 359.599ZM428.52 359.217C428.52 360.999 426.841 362.653 425.162 363.544C420.511 366.216 413.794 365.961 409.144 363.289C407.206 362.144 405.01 360.49 405.01 358.327C405.01 356.672 406.172 355.273 408.368 354C412.89 351.455 419.349 351.455 424.516 354.382C426.454 355.4 428.52 357.181 428.52 359.217Z"
          fill="#1EEBCD"/>
    <path d="M422.32 357.563C423.999 358.581 425.032 359.472 425.42 360.49C424.387 363.289 417.54 365.707 411.469 362.144C409.66 361.126 408.497 360.108 408.11 359.09C409.143 356.291 415.861 353.746 422.32 357.563Z"
          fill="#ECE7F2"/>
    <path d="M425.678 359.344C425.678 359.726 425.678 360.108 425.549 360.489C425.162 359.471 424.128 358.581 422.449 357.563C415.99 353.873 409.273 356.29 408.11 359.217C407.981 358.962 407.852 358.581 407.852 358.326C407.852 357.054 408.627 356.036 410.177 355.145C413.148 353.491 417.928 353.236 422.32 355.781C424.516 356.799 425.549 358.072 425.678 359.344Z"
          fill="#18A48F"/>
    <path d="M409.272 363.416C413.794 365.961 420.511 366.343 425.291 363.671C426.97 362.78 428.649 361.126 428.649 359.345C428.649 359.981 428.649 360.617 428.649 361.253C428.649 361.762 428.52 362.271 428.262 362.78C426.97 365.452 423.095 366.852 420.123 367.361C416.119 367.87 412.114 366.979 409.402 365.452C407.464 364.307 405.268 362.653 405.268 360.49C405.268 359.854 405.268 359.217 405.268 358.581C405.009 360.617 407.335 362.271 409.272 363.416Z"
          fill="#18A48F"/>
    <path d="M299.599 227.644L336.415 205.631L332.282 203.849L294.949 225.099L299.599 227.644Z" fill="#E1DFEA"/>
    <path d="M278.931 215.174L315.876 193.16L311.613 191.379L274.28 212.629L278.931 215.174Z" fill="#E1DFEA"/>
    <path d="M246.119 175.601L249.09 197.232L267.692 187.943L246.119 175.601Z" fill="#1F825E"/>
    <path d="M237.852 101.67V162.239C239.531 163.13 274.926 183.235 274.926 183.235L288.748 175.855L289.782 115.54V88.5637V80.0382V72.1489L237.852 101.67Z"
          fill="#1F825E"/>
    <path d="M235.397 19.4688C240.952 23.4134 245.861 30.6665 247.54 37.9195C249.865 47.463 252.32 57.0065 254.645 66.4228L260.458 63.1144C258.262 54.2071 256.066 45.2998 253.87 36.3926C251.803 27.8671 246.119 19.2143 239.272 14.2517C235.526 11.5795 231.909 8.90731 228.163 6.23513C218.475 -0.89068 202.069 -2.16315 191.993 3.6902C183.725 8.39832 175.329 13.1064 167.061 17.9418C158.794 22.6499 150.397 27.3581 142.13 32.1934C136.962 34.9929 133.345 39.9555 133.733 45.6816C133.991 50.8987 137.479 55.4796 141.742 58.5335C145.488 61.2057 149.105 63.8778 152.852 66.55C158.277 70.4947 163.186 77.7477 164.994 85.0008C167.966 97.0892 170.937 109.178 174.037 121.266H174.295C175.07 121.266 176.233 121.521 177.008 121.648C178.042 121.902 178.946 122.157 179.462 122.03C180.238 121.775 180.496 120.503 180.367 119.612C180.238 118.976 180.108 118.339 179.85 117.703C177.008 106.251 174.166 94.926 171.324 83.4738C169.257 74.9483 163.573 66.2955 156.727 61.3329C152.981 58.6607 149.364 55.9886 145.617 53.3164C142.388 51.0259 139.546 47.463 140.45 43.6456C140.967 41.1007 143.163 38.9375 145.488 37.665C153.756 32.9569 162.152 28.2488 170.42 23.4134C178.687 18.7053 187.084 13.9972 195.352 9.1618C202.973 4.70817 216.537 5.5989 224.417 11.325C228.034 14.1244 231.78 16.7966 235.397 19.4688Z"
          fill="#E1DFEA"/>
    <path d="M196.514 116.558C195.222 117.322 193.93 118.085 192.639 118.721C193.414 125.084 194.189 131.446 194.835 137.681C196.256 138.572 197.806 139.335 199.227 140.226C198.323 132.464 197.418 124.575 196.514 116.558Z"
          fill="#E1DFEA"/>
    <path d="M204.136 179.672C202.585 178.782 201.035 177.891 199.614 177.127C200.519 180.818 202.585 184.38 205.169 187.053C204.781 184.508 204.394 182.09 204.136 179.672Z"
          fill="#E1DFEA"/>
    <path d="M215.245 134.627C210.853 137.045 206.59 139.59 202.198 142.007C204.653 143.407 207.236 144.807 209.691 146.334C211.499 145.316 213.308 144.298 215.245 143.152V134.627Z"
          fill="#E1DFEA"/>
    <path d="M202.327 166.82C201.682 161.858 200.906 156.768 200.261 151.805C199.098 152.441 197.806 153.205 196.644 153.841C197.16 158.549 197.806 163.13 198.323 167.838C199.873 168.729 201.294 169.492 202.844 170.383C202.715 169.111 202.586 167.965 202.327 166.82Z"
          fill="#E1DFEA"/>
    <path d="M210.853 198.886C210.982 199.65 211.24 200.541 211.757 201.05C212.532 201.813 213.824 201.686 214.987 201.177C220.8 197.996 219.25 198.886 222.091 197.232C217.958 194.942 213.824 192.524 209.69 190.234C210.078 193.033 210.465 195.96 210.853 198.886ZM242.76 204.358V204.867L246.248 206.776C246.506 208.303 246.636 209.702 246.894 211.229C240.047 207.285 233.072 203.34 226.225 199.523C224.675 200.413 223.125 201.304 221.575 202.195C220.541 202.958 216.278 205.121 214.987 205.376C214.728 205.376 214.47 205.503 214.212 205.503C210.207 206.012 207.236 203.467 206.719 199.268C206.202 195.069 205.557 190.997 205.04 186.798C204.652 184.38 204.394 181.963 204.006 179.545C205.557 180.436 206.977 181.199 208.528 182.09C208.657 182.981 208.786 183.871 208.915 184.889C209.432 185.271 209.819 185.653 210.336 185.907C215.633 188.961 220.8 191.888 226.096 194.815C226.871 194.306 227.646 193.924 228.55 193.415C229.971 194.178 231.263 194.942 232.684 195.705C231.909 196.214 231.134 196.596 230.23 197.105C234.493 199.65 238.626 201.94 242.76 204.358Z"
          fill="#E1DFEA"/>
    <path d="M204.265 175.091C205.04 175.346 206.203 174.837 206.848 174.328C207.236 174.074 207.494 173.819 207.494 173.437C207.494 173.31 207.494 173.056 207.365 172.928C206.461 165.93 205.427 158.931 204.523 151.933C202.973 151.042 201.552 150.278 200.002 149.388C200.131 150.151 200.26 150.915 200.26 151.805C200.906 156.768 201.681 161.858 202.327 166.82C202.456 167.966 202.586 169.238 202.844 170.383C202.973 171.529 203.231 172.801 203.361 173.946C203.361 173.946 203.361 173.946 203.361 174.074C203.49 174.455 203.748 174.964 204.265 175.091Z"
          fill="#E1DFEA"/>
    <path d="M215.245 158.04V177.509C222.738 181.835 230.23 186.034 237.851 190.361V170.892C230.359 166.566 222.867 162.239 215.245 158.04Z"
          fill="#36CF98"/>
    <path d="M215.245 143.28V149.515C222.738 153.841 230.23 158.04 237.851 162.367V101.67L215.245 88.8184V97.3439V105.869V134.627V143.28Z"
          fill="#36CF98"/>
    <path d="M215.245 88.8181L237.852 101.67L289.782 72.1488L267.304 59.2969L260.587 63.1143L254.645 66.4227L215.245 88.8181Z"
          fill="#36CF98"/>
    <path d="M217.829 88.818L267.304 60.8237L287.198 72.1487L237.851 100.143L217.829 88.818Z" fill="#36CF98"/>
    <path d="M222.092 303.356C223.771 302.465 225.45 301.447 227.001 300.557C227.776 300.175 228.422 299.411 228.809 298.648C230.101 296.485 229.972 293.431 229.326 291.013C227.517 289.995 225.709 288.977 223.771 287.832L223.9 292.667C225.58 298.012 224.546 301.829 222.092 303.356Z"
          fill="#1A293B"/>
    <path d="M205.686 286.559C205.686 292.285 209.561 299.284 214.599 302.465C217.571 304.374 220.283 304.501 222.092 303.356C224.546 301.829 225.58 298.012 224.029 292.794L224.159 296.739L223.384 297.248L206.332 287.577L206.203 283.251C205.815 284.269 205.686 285.414 205.686 286.559Z"
          fill="#3F4F5D"/>
    <path d="M225.063 282.615C225.709 281.851 226.871 281.088 227.776 281.088C228.034 281.088 228.292 281.215 228.551 281.342C222.867 278.161 217.183 274.853 211.499 271.671C210.982 271.417 210.207 271.417 209.691 271.671C209.561 271.671 209.432 271.799 209.303 271.799C207.624 272.689 205.944 275.234 205.944 277.397V277.779L206.074 283.124L206.203 287.45L223.254 297.121L223.125 287.068C223.125 285.541 224.029 283.76 225.063 282.615Z"
          fill="#1F825E"/>
    <path d="M227.905 281.088C226.871 281.088 225.838 281.851 225.192 282.615C224.159 283.76 223.254 285.542 223.254 287.196L223.384 297.248L224.159 296.739L224.029 292.795L223.9 287.959V286.051C224.029 285.542 224.029 285.287 224.288 284.651C224.805 283.506 225.709 282.36 226.871 281.979C227.646 281.724 228.034 281.979 228.163 281.979C228.68 282.233 229.067 282.488 229.584 282.742C229.584 282.233 229.326 281.851 229.067 281.47C228.938 281.342 228.809 281.215 228.68 281.088C228.422 281.215 228.163 281.088 227.905 281.088Z"
          fill="#9B346C"/>
    <path d="M237.852 170.892V190.361C239.531 191.252 241.081 192.27 242.76 193.16V181.454C242.373 178.654 241.985 175.982 241.598 173.183C240.435 172.292 239.143 171.528 237.852 170.892Z"
          fill="#1F825E"/>
    <path d="M242.76 181.327V193.033C243.277 193.415 243.923 193.67 244.44 194.051C243.923 189.852 243.406 185.526 242.76 181.327Z"
          fill="#1F825E"/>
    <path d="M271.955 245.713V250.167L289.007 259.838V249.658C287.457 248.64 286.423 246.858 286.552 244.441C286.552 242.659 286.552 241.005 286.552 239.224C283.581 237.569 280.61 235.788 277.51 234.134C276.993 233.879 276.218 233.879 275.701 234.134C275.572 234.134 275.443 234.261 275.314 234.261C273.634 235.024 271.955 237.697 271.955 239.86V240.369V245.713Z"
          fill="#1F825E"/>
    <path d="M253.482 224.717C254.516 225.735 256.324 225.099 257.616 224.463C259.554 223.318 262.008 222.045 263.817 220.9C259.683 218.61 255.549 216.192 251.416 213.902C251.803 216.828 252.191 219.628 252.578 222.554C252.578 223.318 252.837 224.208 253.482 224.717ZM272.472 221.155C277.122 223.827 281.902 226.499 286.552 229.171C286.552 230.698 286.552 232.225 286.552 233.879C280.352 230.316 274.151 226.753 267.95 223.318C265.238 224.845 262.396 226.499 259.683 228.026C254.257 231.207 249.219 228.662 248.574 223.19C248.057 219.246 247.54 215.301 247.023 211.484C246.765 209.957 246.636 208.557 246.378 207.03C246.248 205.885 246.119 204.613 245.861 203.467C247.411 204.358 248.832 205.121 250.382 206.012C250.511 207.157 250.64 208.43 250.899 209.575L272.084 221.664L272.472 221.155Z"
          fill="#E1DFEA"/>
    <path d="M292.753 263.273C293.528 262.891 294.045 262.255 294.432 261.492C295.853 259.328 295.595 256.02 295.078 253.602C293.27 252.584 291.461 251.566 289.782 250.548V255.511C291.332 260.728 290.298 264.673 287.715 266.072C289.394 265.182 291.073 264.164 292.753 263.273Z"
          fill="#1A293B"/>
    <path d="M289.781 250.039C289.523 249.912 289.265 249.785 289.006 249.658V259.837L289.781 259.456V255.511V250.548V250.039Z"
          fill="#9B346C"/>
    <path d="M289.782 259.456L289.007 259.838L271.955 250.167V245.713C271.567 246.731 271.309 248.004 271.309 249.149C271.309 254.875 275.184 261.874 280.222 265.055C283.194 266.964 285.777 267.091 287.586 266.073C290.169 264.673 291.203 260.728 289.653 255.511V259.456H289.782Z"
          fill="#3F4F5D"/>
    <path d="M294.561 243.932C293.27 243.168 291.978 242.405 290.686 241.641C290.686 242.532 290.686 243.55 290.686 244.441C290.686 244.441 290.686 244.441 290.686 244.568C290.686 244.822 290.686 245.077 290.815 245.458C291.461 244.695 292.236 244.059 293.14 243.804C293.528 243.677 294.045 243.677 294.561 243.932Z"
          fill="#1F825E"/>
    <path d="M294.174 244.695C293.786 244.441 293.398 244.441 293.011 244.568C292.236 244.822 291.461 245.331 291.073 245.968L291.202 246.095C291.332 246.222 291.461 246.349 291.848 246.349C292.753 246.477 293.915 245.84 294.819 245.459C294.949 245.331 295.078 245.331 295.207 245.204C294.69 245.077 294.432 244.95 294.174 244.695Z"
          fill="#E1DFEA"/>
    <path d="M294.045 327.533C294.045 325.369 295.724 322.697 297.403 321.934C297.532 321.934 297.662 321.807 297.791 321.807C275.055 308.827 252.32 295.975 229.713 282.996C229.196 282.742 228.809 282.487 228.292 282.233C228.034 282.106 227.776 281.978 227 282.233C225.838 282.615 224.934 283.887 224.417 284.905C224.158 285.414 224.158 285.669 224.029 286.305V288.213C225.838 289.231 227.646 290.249 229.584 291.395C251.157 303.61 272.73 315.953 294.303 328.169L294.045 327.533Z"
          fill="#E1DFEA"/>
    <path d="M286.423 244.441C286.423 242.659 286.423 241.005 286.423 239.223C286.423 237.442 286.423 235.533 286.423 233.752C286.423 232.225 286.423 230.698 286.423 229.044C286.423 228.153 286.423 227.262 286.423 226.372C287.844 227.135 289.136 227.899 290.557 228.662C290.557 229.553 290.557 230.443 290.557 231.334C295.336 234.006 300.116 236.806 304.895 239.478C305.671 238.969 306.446 238.587 307.35 238.078C308.9 238.842 310.579 239.478 312.388 239.86C311.225 240.496 310.192 241.132 309.029 241.768C315.101 245.204 321.301 248.767 327.373 252.203C328.664 252.966 330.473 253.475 331.506 252.457C332.023 251.948 332.282 251.057 332.411 250.294C332.669 247.876 333.057 245.586 333.444 243.168C333.832 239.987 334.348 236.806 334.736 233.625C336.286 232.734 337.707 231.97 339.257 231.08C338.74 235.024 338.224 238.969 337.707 242.786C337.32 245.459 336.932 248.131 336.674 250.803C335.899 256.402 330.861 258.692 325.564 255.638C318.718 251.821 312 247.876 305.154 244.059C303.216 245.204 301.278 246.222 299.341 247.367C298.566 247.876 297.661 248.258 296.886 248.767C294.174 250.294 291.848 250.548 290.04 249.785C289.782 249.658 289.523 249.53 289.265 249.403C287.456 248.767 286.423 246.858 286.423 244.441ZM295.336 245.077C297.145 244.059 298.953 243.041 300.762 242.023C297.403 240.114 293.915 238.206 290.557 236.17C290.557 237.951 290.557 239.86 290.557 241.641C290.557 242.532 290.557 243.55 290.557 244.441C290.557 244.441 290.557 244.441 290.557 244.568C290.557 244.822 290.557 245.077 290.686 245.459C290.686 245.713 290.815 245.84 290.944 245.968L291.073 246.095C291.202 246.222 291.332 246.349 291.719 246.349C292.623 246.477 293.786 245.84 294.69 245.459C294.819 245.331 294.949 245.331 295.078 245.204C295.078 245.204 295.207 245.077 295.336 245.077Z"
          fill="#E1DFEA"/>
    <path d="M290.944 245.968C291.461 245.332 292.107 244.695 292.882 244.568C293.27 244.441 293.786 244.441 294.045 244.695C294.303 244.823 294.691 245.077 294.949 245.204C295.078 245.077 295.207 245.077 295.337 244.95C295.207 244.441 294.949 244.059 294.561 243.805C294.174 243.55 293.657 243.55 293.14 243.677C292.236 243.932 291.332 244.695 290.815 245.332C290.686 245.713 290.815 245.841 290.944 245.968Z"
          fill="#9B346C"/>
    <path d="M297.532 93.0171C296.757 99.5067 292.236 143.025 291.461 149.515L295.207 151.805C295.724 146.842 300.891 100.143 301.408 95.1803C300.116 94.4168 298.824 93.6533 297.532 93.0171Z"
          fill="#E1DFEA"/>
    <path d="M310.321 353.745C312.001 352.727 313.68 351.837 315.359 350.819C317.426 349.673 318.201 347.129 318.201 344.711C318.201 342.802 317.814 341.021 317.168 339.239C315.488 339.112 313.68 338.73 311.871 337.967L312.001 341.911C312.647 343.693 313.163 345.856 313.163 347.765C313.163 350.819 312.001 352.727 310.321 353.745Z"
          fill="#1A293B"/>
    <path d="M294.174 334.786C293.011 341.021 297.791 350.055 303.991 353.364C305.154 354 306.316 354.382 307.608 354.382C308.513 354.382 309.417 354.127 310.192 353.745C311.871 352.855 313.034 350.819 313.034 347.638C313.034 345.729 312.517 343.566 311.871 341.784L312 346.747L311.225 347.256L294.174 337.585V334.786Z"
          fill="#3F4F5D"/>
    <path d="M311.871 337.967C313.68 338.73 315.488 339.239 317.168 339.239C323.756 339.621 328.794 334.531 328.665 326.387C328.665 326.26 328.665 326.133 328.665 325.879C328.665 317.862 323.885 308.573 317.684 303.229C288.49 277.652 259.166 252.076 229.972 226.626C224.804 222.173 221.446 214.792 221.446 209.448C221.446 207.03 221.446 204.613 221.446 202.195C220.412 202.958 216.149 205.121 214.858 205.376C214.599 205.376 214.341 205.503 214.083 205.503C214.083 206.776 214.083 208.048 214.083 209.448C214.083 216.955 218.345 226.244 225.063 232.098C254.257 257.674 283.581 283.251 312.776 308.7C317.814 313.027 321.301 320.407 321.301 325.879C321.301 326.006 321.301 326.26 321.301 326.387C321.301 328.551 320.785 331.35 318.589 331.859C318.201 331.986 317.684 331.986 317.168 331.986C316.651 331.986 316.005 331.732 315.617 331.605C313.551 332.495 312.259 334.022 311.871 335.804C311.742 336.058 311.742 336.44 311.742 336.694L311.871 337.967Z"
          fill="#E1DFEA"/>
    <path d="M317.297 331.987C317.168 331.732 316.909 331.478 316.651 331.35C316.522 331.35 316.522 331.223 316.393 331.223C315.876 331.096 315.23 331.223 314.713 331.35C313.809 331.732 313.163 332.496 312.517 333.259C311.742 334.404 311.096 335.804 311.096 337.204L311.225 347.256L312 346.747L311.871 341.785L311.742 337.84V336.695C311.742 336.44 311.742 336.058 311.871 335.804C312.259 334.023 313.551 332.496 315.617 331.605C316.263 331.859 316.78 331.987 317.297 331.987Z"
          fill="#9B346C"/>
    <path d="M316.392 331.223C316.522 331.223 316.651 331.35 316.651 331.35C310.967 328.169 305.283 324.861 299.599 321.68C299.082 321.425 298.307 321.425 297.791 321.68C297.661 321.68 297.532 321.807 297.403 321.807C295.724 322.698 294.044 325.243 294.044 327.406V327.787L294.174 334.659V337.458L311.225 347.129L311.096 337.076C311.096 335.677 311.742 334.277 312.517 333.132C313.034 332.368 313.809 331.605 314.713 331.223C315.23 331.223 315.876 330.969 316.392 331.223Z"
          fill="#1F825E"/>
    <path d="M336.028 146.334C335.899 146.079 335.769 145.825 335.769 145.57C335.899 144.934 335.899 144.298 336.028 143.662C334.219 142.644 297.403 123.302 295.595 122.284V127.883L328.406 145.952C330.473 145.952 334.865 146.843 336.932 147.097V146.843C336.674 146.716 336.286 146.588 336.028 146.334Z"
          fill="#E1DFEA"/>
    <path d="M337.061 146.97C340.291 147.352 343.391 148.115 346.233 149.388C344.166 148.242 341.97 146.97 339.903 145.825V145.952C339.903 145.952 339.903 146.079 339.774 146.079C339.645 146.206 339.515 146.206 339.386 146.334C338.74 146.588 337.836 146.843 337.19 146.843L337.061 146.97Z"
          fill="#E1DFEA"/>
    <path d="M339.903 145.825C340.937 136.79 341.97 127.883 343.004 118.848C341.712 118.085 340.42 117.321 339.128 116.685C338.095 125.72 337.061 134.627 336.028 143.661C335.899 144.298 335.899 144.934 335.77 145.57C335.77 145.825 335.77 146.079 336.028 146.334C336.286 146.588 336.674 146.843 337.061 146.843C337.836 146.843 338.741 146.588 339.257 146.334C339.387 146.334 339.516 146.206 339.645 146.079C339.774 146.079 339.774 145.952 339.774 145.952C339.903 145.825 339.903 145.825 339.903 145.825Z"
          fill="#E1DFEA"/>
    <path d="M356.826 210.084C356.826 210.975 356.826 211.739 356.826 212.629C357.988 211.993 359.28 211.23 360.443 210.593C360.572 209.703 360.701 208.685 360.83 207.794C359.538 208.557 358.247 209.321 356.826 210.084Z"
          fill="#E1DFEA"/>
    <path d="M359.926 289.995C359.926 287.832 361.605 285.287 363.285 284.396C363.414 284.396 363.543 284.269 363.672 284.269C342.228 272.053 320.655 259.838 299.212 247.622C298.436 248.131 297.532 248.513 296.757 249.022C294.044 250.549 291.719 250.803 289.911 250.04V250.549C291.719 251.567 293.528 252.585 295.207 253.603C316.78 265.946 338.353 278.161 360.055 290.504V289.995H359.926Z"
          fill="#E1DFEA"/>
    <path d="M370.39 196.341C369.744 198.759 367.935 202.067 365.352 204.612C365.222 205.758 365.093 206.903 364.835 208.175C366.643 207.157 368.581 206.012 370.39 204.994C372.069 202.831 373.619 200.032 374.265 197.359C375.686 191.888 376.978 186.543 378.399 181.072C376.719 181.963 375.04 182.98 373.49 183.871C372.586 187.943 371.552 192.142 370.39 196.341Z"
          fill="#E1DFEA"/>
    <path d="M381.112 313.408C383.178 312.263 383.953 309.718 383.953 307.301C383.953 305.901 383.695 304.628 383.308 303.229C383.178 302.72 383.049 302.211 382.791 301.702C381.112 301.574 379.432 301.193 377.624 300.429V304.501C378.27 306.283 378.786 308.319 378.786 310.227C378.786 313.408 377.624 315.317 375.944 316.335C377.753 315.444 379.432 314.426 381.112 313.408Z"
          fill="#1A293B"/>
    <path d="M359.926 297.375C358.763 303.611 363.543 312.772 369.873 315.954C371.035 316.463 372.198 316.972 373.49 316.972C374.394 316.972 375.298 316.717 376.073 316.335C377.753 315.445 378.915 313.409 378.915 310.227C378.915 308.319 378.528 306.283 377.753 304.501V309.464L376.978 309.846L359.926 300.175V297.375Z"
          fill="#3F4F5D"/>
    <path d="M338.611 235.915C349.979 245.841 367.418 261.237 378.786 271.29C383.824 275.616 387.312 282.997 387.312 288.468C387.312 288.595 387.312 288.85 387.312 288.977C387.312 291.14 386.795 293.94 384.599 294.449C384.212 294.576 383.695 294.576 383.178 294.576C382.661 294.576 382.016 294.322 381.499 294.194C380.207 294.703 379.174 295.594 378.528 296.739C378.14 297.503 377.753 298.393 377.753 299.284V300.557C379.561 301.32 381.241 301.829 382.92 301.829C383.049 301.829 383.307 301.829 383.437 301.829C389.896 301.956 394.675 296.994 394.675 288.977C394.675 288.85 394.675 288.723 394.675 288.468C394.675 280.324 389.766 271.163 383.695 265.818C374.911 258.056 365.997 250.421 357.213 242.659C355.146 243.55 352.563 243.296 349.979 241.769C349.075 241.26 341.97 230.571 341.066 230.062L339.257 231.207C338.353 231.716 339.516 235.661 338.611 235.915Z"
          fill="#E1DFEA"/>
    <path d="M379.432 170.383C380.078 170.256 380.724 170.129 381.111 169.874C381.241 169.874 381.37 169.747 381.499 169.62V169.493C383.566 161.094 385.762 152.696 387.829 144.425C386.537 143.662 385.374 143.025 384.083 142.389C382.016 150.787 379.82 159.058 377.753 167.457C377.624 167.966 377.494 168.475 377.365 168.984C377.236 169.493 377.494 170.256 378.269 170.383C378.657 170.383 379.045 170.383 379.432 170.383Z"
          fill="#E1DFEA"/>
    <path d="M381.111 169.874C380.724 170.002 380.078 170.256 379.432 170.383C379.045 170.383 378.657 170.511 378.399 170.383C377.494 170.256 377.236 169.493 377.494 168.984C377.624 168.475 377.753 167.966 377.882 167.457C369.356 162.621 360.701 157.659 352.175 152.823C355.405 155.368 298.695 120.63 298.566 123.811C298.566 124.702 297.662 128.519 297.662 129.41C303.733 132.846 369.227 171.147 375.298 174.582C377.753 173.183 380.336 171.783 382.791 170.256C382.403 170.002 382.016 169.874 381.628 169.62V169.747C381.37 169.747 381.241 169.874 381.111 169.874Z"
          fill="#E1DFEA"/>
    <path d="M380.595 293.94C379.69 294.322 379.044 294.958 378.399 295.849C377.623 296.994 376.978 298.393 376.978 299.666V309.973L377.753 309.591V304.629V300.557V299.284C377.753 298.393 378.14 297.503 378.528 296.739C379.174 295.594 380.207 294.831 381.499 294.194C382.016 294.322 382.532 294.449 383.178 294.576C383.049 294.322 382.791 294.067 382.532 293.94C382.403 293.94 382.403 293.813 382.274 293.813C381.628 293.558 381.111 293.685 380.595 293.94Z"
          fill="#9B346C"/>
    <path d="M382.532 293.94C376.848 290.759 371.164 287.45 365.481 284.269C364.964 284.015 364.189 284.015 363.672 284.269C363.543 284.269 363.414 284.396 363.284 284.396C361.605 285.16 359.926 287.832 359.926 289.995V290.504V297.503V300.302L376.977 309.973V299.666C376.977 298.266 377.623 296.994 378.398 295.848C378.915 295.085 379.69 294.322 380.594 293.94C381.111 293.685 381.757 293.558 382.274 293.813C382.274 293.813 382.403 293.813 382.532 293.94Z"
          fill="#1F825E"/>
    <path d="M382.662 178.654C384.212 179.545 385.633 180.308 387.054 181.199C387.312 179.418 387.57 177.509 387.829 175.728C386.149 176.618 384.341 177.636 382.662 178.654Z"
          fill="#E1DFEA"/>
    <path d="M382.791 301.829C382.92 302.338 383.178 302.847 383.307 303.356V301.829C383.178 301.829 383.049 301.829 382.791 301.829Z"
          fill="#9B346C"/>
    <path d="M385.762 198.25C386.666 198.759 387.958 199.268 388.604 198.377C388.733 198.25 388.862 197.995 388.862 197.741V197.614C388.991 196.469 389.25 195.196 389.379 194.051C389.896 190.488 390.412 186.925 390.8 183.235C391.187 180.563 391.575 177.891 391.833 175.346C391.962 174.582 392.092 173.819 392.092 173.055C390.541 173.946 389.12 174.709 387.57 175.6C387.312 177.382 387.054 179.29 386.795 181.072C386.149 186.289 385.374 191.379 384.728 196.596C384.728 196.85 384.728 196.978 384.599 197.232C384.599 197.486 384.728 197.614 384.987 197.741C385.374 197.995 385.633 198.123 385.762 198.25Z"
          fill="#E1DFEA"/>
    <path d="M320.656 109.559C317.426 111.468 314.067 113.25 310.838 115.158C310.838 112.868 310.838 110.577 310.838 108.16C314.197 108.541 317.426 109.05 320.656 109.559Z"
          fill="#1F825E"/>
    <path d="M310.708 122.666C310.967 122.539 311.225 122.284 311.484 122.284C311.613 122.157 312.259 122.284 312.646 122.666C313.034 123.175 313.034 124.065 312.905 124.574C312.259 123.811 311.225 122.92 310.708 122.666Z"
          fill="#A23042"/>
    <path d="M308.384 102.561C309.805 105.742 310.58 107.396 310.838 108.16C310.838 110.45 310.838 112.868 310.838 115.158C309.805 115.795 308.771 116.304 307.738 116.94C308.255 106.887 308.255 106.124 308.384 102.561Z"
          fill="#36CF98"/>
    <path d="M310.451 127.629C309.934 127.756 309.417 127.501 309.159 126.992C309.417 126.992 309.546 126.865 309.675 126.738C310.063 126.992 310.192 127.247 310.451 127.629Z"
          fill="#A23042"/>
    <path d="M309.159 126.992C309.03 126.865 308.9 126.483 308.9 126.102C309.03 126.229 309.417 126.483 309.675 126.738C309.546 126.865 309.417 126.865 309.159 126.992Z"
          fill="#A23042"/>
    <path d="M308.771 123.429C310.063 121.012 312.905 119.739 313.938 122.284C314.326 123.175 314.067 124.574 313.68 125.592C313.421 125.211 313.292 124.956 313.034 124.702C313.292 123.557 313.034 122.411 311.742 122.411C311.742 122.411 311.613 122.411 311.484 122.411C311.225 122.411 310.967 122.539 310.708 122.793C310.321 123.048 309.804 123.557 309.417 124.32C309.029 125.083 308.9 125.592 308.9 126.229C308.9 127.374 309.675 127.883 310.321 127.756C310.45 128.01 310.45 128.01 310.838 128.774C308.254 129.919 306.962 126.992 308.771 123.429Z"
          fill="#EF4F25"/>
    <path d="M308.383 102.561C308.254 106.124 308.125 107.015 307.737 116.813C294.432 124.32 281.256 131.828 267.95 139.463C267.304 137.936 265.625 134.245 265.496 133.864C262.266 133.355 258.908 132.973 255.678 132.464C273.247 122.539 290.815 112.486 308.383 102.561Z"
          fill="#1F825E"/>
    <path d="M307.996 126.61C307.996 127.501 308.254 128.392 309.029 128.773C308.642 128.519 308.125 128.392 307.738 128.137C307.608 128.01 307.35 127.883 307.221 127.756C306.058 126.356 306.704 124.193 307.608 122.666C308.125 121.902 308.642 121.139 309.546 120.63C310.192 120.248 310.967 120.121 311.613 120.502C312 120.63 312.388 120.884 312.776 121.139C311.871 120.757 309.934 121.393 308.771 123.556C308.254 124.447 307.867 125.592 307.996 126.61Z"
          fill="#FA7800"/>
    <path d="M285.906 136.663C286.294 136.663 286.681 136.79 286.94 137.045C287.327 137.554 287.327 138.317 287.198 138.954C286.94 138.699 286.681 138.317 286.423 138.063C285.777 137.427 286.165 137.936 285.906 137.045C286.035 137.045 286.035 136.79 285.906 136.663Z"
          fill="#A23042"/>
    <path d="M286.423 138.19C286.036 137.936 285.519 137.299 285.131 137.045C285.39 136.918 285.648 136.663 286.036 136.663C286.165 137.045 286.423 137.808 286.423 138.19Z"
          fill="#A23042"/>
    <path d="M285.131 137.044C286.294 137.681 287.198 138.571 287.973 139.717L288.102 139.844C291.332 144.17 292.882 153.587 296.628 155.877C297.532 156.386 298.308 156.386 299.212 156.259C300.245 156.004 301.02 155.622 301.795 155.241C301.925 155.241 303.346 154.35 303.991 153.714C313.034 146.715 314.455 130.173 309.029 126.101C309.029 124.956 309.675 123.556 310.58 122.793C310.838 122.538 310.709 122.666 310.838 122.666C318.459 127.246 318.072 146.842 306.833 156.259C303.862 158.676 299.599 160.967 295.982 159.694C288.619 157.404 288.102 143.916 283.323 140.353C283.323 139.08 284.098 137.681 285.131 137.044Z"
          fill="#F7B23B"/>
    <path d="M284.873 142.007C284.485 142.135 283.839 141.88 283.581 141.371C283.839 141.371 283.969 141.371 284.227 141.117C284.098 141.117 284.873 141.88 284.873 142.007Z"
          fill="#A23042"/>
    <path d="M284.098 141.117C283.839 141.244 283.71 141.244 283.452 141.371C283.323 141.117 283.323 140.862 283.323 140.48C283.71 140.735 283.969 140.989 284.098 141.117Z"
          fill="#A23042"/>
    <path d="M324.014 108.923C288.877 128.901 279.318 134.373 267.046 141.371L270.405 212.375L327.373 179.927L324.014 108.923ZM309.675 153.46C307.737 155.75 306.187 157.023 303.862 158.422C303.733 158.422 301.666 159.822 299.082 160.076C290.298 160.967 288.877 148.497 285.519 143.025C285.002 143.28 284.227 143.534 283.581 143.28C283.452 143.28 283.452 143.28 283.323 143.153C283.193 143.025 282.677 142.771 282.031 142.516C281.256 142.135 280.868 141.371 280.997 140.353C281.126 138.19 281.902 136.536 283.71 135.263C284.485 134.754 285.26 134.5 286.164 134.882C286.552 135.136 287.069 135.263 287.456 135.518C288.877 136.027 288.748 138.317 288.102 139.844C290.557 143.025 292.107 149.261 294.303 153.332C295.724 155.75 297.274 156.895 299.857 156.005C302.054 155.368 305.671 152.951 308.125 149.133C312.517 142.262 313.163 133.227 310.967 128.647C309.546 129.283 309.158 128.774 307.737 128.138C307.608 128.01 307.35 127.883 307.221 127.756C306.058 126.356 306.704 124.193 307.608 122.666C308.125 121.902 308.642 121.139 309.546 120.63C310.192 120.248 310.967 120.121 311.613 120.503C312 120.63 312.388 120.885 312.775 121.139C313.292 121.394 313.68 121.902 313.809 122.411C314.196 123.302 313.938 124.702 313.55 125.72C313.55 125.72 313.68 125.847 313.68 125.974C317.943 132.464 316.134 145.825 309.675 153.46Z"
          fill="#1F825E"/>
    <path d="M285.906 135.39C286.682 135.263 287.327 135.39 287.844 135.772C288.748 136.663 288.619 138.572 288.102 139.844C287.973 139.717 288.102 139.717 287.457 138.953C287.586 138.317 287.586 137.426 287.198 137.045C286.94 136.79 286.552 136.663 286.165 136.663C285.777 136.663 285.39 136.917 285.002 137.172C283.581 138.444 283.323 140.48 283.71 141.244C283.969 141.753 284.615 142.007 285.002 141.88C285.131 142.007 285.261 142.262 285.648 142.898C283.452 144.043 281.902 142.262 282.548 139.717C283.064 137.299 284.744 135.772 285.906 135.39Z"
          fill="#EF4F25"/>
    <path d="M284.227 136.409C283.193 137.426 282.677 138.444 282.418 139.844C282.289 140.48 282.16 141.117 282.418 141.753C282.547 142.262 282.935 142.898 283.452 143.153C283.323 143.025 282.806 142.771 282.16 142.516C281.385 142.135 280.997 141.371 281.127 140.353C281.256 138.19 282.031 136.536 283.839 135.263C284.614 134.754 285.389 134.5 286.294 134.882C286.681 135.136 287.198 135.263 287.585 135.518C287.198 135.263 286.552 135.263 286.164 135.391C285.26 135.645 284.744 136.027 284.227 136.409Z"
          fill="#FA7800"/>
    <path d="M267.046 141.371L270.405 212.375L264.075 203.722V134.627L267.046 141.371Z" fill="#36CF98"/>
    <path d="M264.075 134.627L252.32 132.973L309.288 100.525L312.259 107.269L324.014 108.923C288.878 128.901 279.318 134.372 267.046 141.371L264.075 134.627ZM255.678 132.464C258.908 132.973 262.267 133.355 265.496 133.864C265.625 134.118 267.305 137.935 267.951 139.462C277.251 134.118 314.843 112.868 320.656 109.559C317.426 109.05 314.068 108.669 310.838 108.16C310.58 107.523 310.063 106.378 308.384 102.561C290.815 112.486 273.247 122.539 255.678 132.464Z"
          fill="#36CF98"/>
    <path d="M264.075 134.627V203.722L248.961 200.159L252.32 132.973L264.075 134.627Z" fill="#1F825E"/>
    <path d="M274.021 135.645C272.729 136.408 272.729 136.408 272.729 136.408C273.117 135.136 273.634 134.499 274.021 135.645Z"
          fill="#D64A78"/>
    <path d="M271.696 173.819C271.696 173.946 271.696 174.073 271.567 174.073C271.438 174.201 271.18 174.328 270.921 174.328C261.491 172.928 262.137 173.055 262.008 172.928C261.879 172.928 261.749 172.801 261.749 172.674C261.362 171.019 260.845 165.293 260.716 163.639C260.199 155.877 260.199 147.606 261.62 139.844C261.879 138.444 262.525 135.263 263.17 133.863C263.429 133.354 263.816 132.973 264.333 133.1C274.021 134.627 273.376 134.372 273.634 134.627C273.892 134.881 274.021 135.263 274.151 135.645H274.021C273.505 133.991 272.859 135.899 272.342 137.553C271.696 140.098 271.18 143.534 270.921 146.206C269.5 159.44 271.567 174.201 271.696 173.819Z"
          fill="#FBC959"/>
    <path d="M357.859 146.588V156.895L352.434 151.678L357.859 146.588Z" fill="#8140FF"/>
    <path d="M355.147 147.479C354.759 147.86 351.013 151.423 350.625 151.805C350.625 153.205 350.625 154.604 350.625 156.131C332.023 156.131 313.551 156.131 294.949 156.131C294.949 154.732 294.949 153.332 294.949 151.805C293.399 150.405 291.978 149.005 290.428 147.479C312.13 147.479 333.703 147.479 355.147 147.479Z"
          fill="#5F26CF"/>
    <path d="M355.146 156.004C353.596 156.004 352.175 156.004 350.625 156.004C350.625 154.604 350.625 153.205 350.625 151.678C352.175 153.205 353.725 154.604 355.146 156.004Z"
          fill="#8140FF"/>
    <path d="M341.453 165.421C341.453 165.039 341.453 164.784 341.453 164.53C341.453 163.003 341.582 162.876 341.324 162.494C341.195 162.239 341.066 162.112 340.937 161.985C342.745 162.748 342.745 164.53 341.453 165.421Z"
          fill="#E95950"/>
    <path d="M336.028 163.766C336.028 161.858 338.482 159.949 341.195 160.84C342.745 161.349 343.649 162.494 343.649 163.766C343.649 165.166 342.487 166.184 341.453 166.693C341.453 166.693 341.583 165.802 341.583 165.421C341.841 165.166 342.099 164.912 342.358 164.53C343.133 162.748 340.808 161.094 338.87 161.858C337.19 162.621 337.061 164.275 338.224 165.293C338.224 165.421 338.224 166.184 338.095 166.566C336.932 166.057 336.028 165.039 336.028 163.766Z"
          fill="#F5B538"/>
    <path d="M338.224 160.967C337.061 161.476 336.157 162.621 336.157 163.766C336.157 163.512 336.157 163.257 336.157 163.003C336.157 162.366 336.416 161.476 337.449 160.585C338.87 159.567 341.066 159.44 342.487 160.585C343.262 161.094 343.65 161.985 343.65 162.875C343.65 163.13 343.65 163.384 343.65 163.766C343.52 161.221 340.42 159.949 338.224 160.967Z"
          fill="#F8E150"/>
    <path d="M287.973 156.895C287.973 207.794 287.973 191.124 287.973 219.119H357.859C357.859 200.922 357.859 184.889 357.859 156.895C337.578 156.895 324.918 156.895 287.973 156.895ZM343.649 163.766C343.649 165.166 342.487 166.184 341.453 166.693C341.066 173.183 339.257 180.308 334.219 184.38C330.344 187.434 325.306 188.198 320.397 187.307C310.709 185.271 307.479 176.364 306.833 166.566C305.8 166.184 304.637 165.039 304.637 163.639C304.637 163.385 304.637 163.13 304.637 162.748C304.637 161.858 305.154 160.967 305.929 160.458C307.221 159.44 309.675 159.313 311.096 160.458C311.871 160.967 312.259 161.985 312.259 162.748V163.639C312.259 164.912 311.355 165.93 310.192 166.439C310.192 167.329 310.45 170.129 311.096 172.801C312.13 177.509 314.713 182.217 319.493 183.617C322.464 184.635 326.856 184.635 330.086 183.108C334.865 180.817 336.803 175.473 337.707 170.256C337.707 170.129 338.095 167.584 338.095 166.566C336.932 166.057 336.157 165.039 336.157 163.766C336.157 163.385 336.157 163.257 336.157 162.876C336.157 162.239 336.415 161.349 337.449 160.458C338.87 159.44 341.066 159.313 342.487 160.458C343.262 160.967 343.649 161.858 343.649 162.748C343.649 163.257 343.649 163.512 343.649 163.766Z"
          fill="#0C4E5C"/>
    <path d="M310.063 162.876C310.063 162.367 309.804 161.985 309.546 161.73C310.192 161.985 310.967 162.876 310.967 163.639C310.967 164.148 310.709 164.784 310.192 165.166C310.063 165.039 310.063 163.003 310.063 162.876Z"
          fill="#E95950"/>
    <path d="M338.224 164.53C338.224 164.403 338.224 164.403 338.224 164.53C338.224 164.403 338.224 164.53 338.224 164.53C338.095 165.166 338.095 164.657 338.224 164.53ZM306.704 164.403C306.704 162.876 306.575 162.748 306.833 162.367C306.963 162.112 307.092 161.985 307.221 161.858C307.867 161.476 308.771 161.476 309.546 161.858C309.934 162.112 310.063 162.494 310.063 163.003C310.063 166.438 310.192 169.492 310.967 172.928C312.517 179.545 316.263 184.253 323.11 184.507C330.215 184.889 335.77 181.326 337.578 170.383C337.578 170.256 337.966 168.22 337.966 166.82C337.966 166.693 338.095 165.929 338.095 165.548C337.578 165.166 337.32 164.53 337.32 164.021C337.32 162.748 338.999 161.476 340.808 162.112C340.937 162.112 340.937 162.112 341.066 162.239C341.195 162.367 341.324 162.494 341.453 162.748C341.583 163.13 341.583 163.257 341.583 164.784C341.583 168.093 340.937 172.928 339.774 176.236C337.578 182.853 332.928 187.307 325.823 187.816C312.13 188.707 306.704 177.636 306.704 164.403Z"
          fill="#F7B23B"/>
    <path d="M307.221 161.857C306.834 162.112 306.704 162.494 306.704 162.875C306.704 163.639 306.704 164.53 306.704 165.293C305.542 164.402 305.542 162.621 307.221 161.857Z"
          fill="#E95950"/>
    <path d="M304.637 163.639C304.637 162.239 305.671 161.094 307.092 160.712C309.934 159.822 312.13 161.858 312.13 163.639C312.13 164.911 311.225 165.929 310.063 166.438C310.063 166.184 310.063 165.929 310.063 165.548C310.063 164.911 309.934 165.293 310.321 164.784C310.579 164.402 310.838 163.893 310.838 163.512C310.838 162.748 310.063 161.858 309.417 161.603C307.608 160.712 305.154 162.367 305.929 164.148C306.058 164.53 306.317 164.784 306.704 165.039C306.704 165.929 306.704 166.184 306.704 166.311C305.671 166.057 304.637 165.039 304.637 163.639Z"
          fill="#F5B538"/>
    <path d="M304.637 162.875C304.637 161.984 305.154 161.094 305.929 160.585C306.704 160.076 307.608 159.821 308.513 159.821C310.838 159.821 312.259 161.475 312.259 163.002V163.893C312.259 162.748 311.354 161.603 310.192 161.094C307.996 160.076 304.766 161.348 304.637 163.893C304.637 163.384 304.637 163.13 304.637 162.875Z"
          fill="#F8E150"/>
    <path d="M295.078 151.678C295.078 153.077 295.078 154.477 295.078 156.004C293.528 156.004 292.107 156.004 290.557 156.004C295.465 151.296 294.561 152.314 295.078 151.678Z"
          fill="#8140FF"/>
    <path d="M293.399 151.678L287.973 156.895V146.588L293.399 151.678Z" fill="#1F7082"/>
    <path d="M290.557 156.004C324.014 156.004 336.028 156.004 355.146 156.004C353.596 154.605 352.175 153.205 350.625 151.678C351.013 151.296 354.759 147.733 355.146 147.352C333.573 147.352 312.001 147.352 290.557 147.352C292.107 148.751 293.528 150.151 295.078 151.678C294.432 152.314 295.595 151.296 290.557 156.004ZM287.973 156.895L293.399 151.805L287.973 146.715H357.859L352.434 151.805L357.859 156.895C332.798 156.895 313.292 156.895 287.973 156.895Z"
          fill="#339CB4"/>
    <path d="M245.861 198.759C246.636 199.013 247.798 198.505 248.444 197.996C248.703 197.868 249.09 197.487 249.09 197.232C249.09 196.978 249.09 196.85 248.961 196.596C248.057 189.597 247.023 182.599 246.119 175.6C244.569 174.709 243.148 173.946 241.598 173.055C241.985 175.855 242.373 178.527 242.76 181.326C243.277 185.525 243.923 189.852 244.44 194.051C244.569 195.323 244.827 196.469 244.956 197.741C245.085 198.123 245.344 198.632 245.861 198.759Z"
          fill="#E1DFEA"/>
    <path d="M290.686 220.9C290.686 220.645 290.686 220.518 290.686 220.264C290.686 217.083 290.686 214.029 290.686 210.847C290.686 207.539 290.686 204.231 290.686 200.922C289.265 200.159 287.973 199.395 286.552 198.632C286.552 203.467 286.552 208.43 286.552 213.265C286.552 214.792 286.552 216.446 286.552 217.973C286.552 218.991 286.552 220.136 286.552 221.154C286.552 221.409 286.552 221.536 286.681 221.791C287.069 222.554 287.844 222.554 288.619 222.3C289.265 222.172 290.686 221.536 290.686 220.9Z"
          fill="#E1DFEA"/>
    <path d="M384.212 142.262C385.504 142.898 386.666 143.661 387.958 144.298C393.771 147.606 399.584 150.915 405.397 154.223C405.914 154.477 406.302 154.859 406.689 155.241C406.948 155.495 406.947 155.623 406.947 155.623C406.947 155.623 406.947 155.623 406.947 155.75C406.818 156.004 406.56 156.386 406.302 156.513C406.043 156.768 405.785 156.895 405.397 157.15C397.776 161.476 390.283 165.802 382.662 170.002C380.207 171.401 377.624 172.801 375.169 174.328C369.098 177.764 363.027 181.199 356.955 184.762C345.846 191.124 334.607 197.487 323.498 203.722C320.268 205.631 314.197 205.631 310.838 203.722C309.159 202.831 307.479 201.813 305.8 200.922C294.561 194.56 283.323 188.071 271.955 181.708C262.267 176.237 252.449 170.638 242.761 165.166C241.081 164.275 239.531 163.257 237.852 162.367C230.359 158.04 222.867 153.841 215.245 149.515C213.437 148.497 211.628 147.479 209.691 146.334C207.236 144.934 204.653 143.534 202.198 142.007C201.165 141.371 200.131 140.862 199.227 140.226C197.806 139.335 196.256 138.572 194.835 137.681C189.797 134.754 184.63 131.828 179.592 129.028C179.075 128.774 178.688 128.392 178.3 128.01C178.042 127.756 178.042 127.628 178.042 127.628C178.042 127.628 178.042 127.628 178.042 127.501C178.171 127.247 178.429 126.865 178.688 126.738C178.946 126.483 179.204 126.356 179.592 126.101C183.984 123.684 188.247 121.139 192.639 118.721C193.931 117.958 195.223 117.194 196.514 116.558C202.844 112.995 209.045 109.432 215.375 105.869V97.3437C203.49 104.088 191.606 110.832 179.721 117.576C179.85 118.212 179.979 118.848 180.238 119.485C180.496 120.375 180.109 121.648 179.334 121.902C178.817 122.03 178.042 121.775 176.879 121.521C176.104 121.393 174.941 121.139 174.166 121.139H173.908C171.97 122.793 170.549 125.083 170.549 127.628C170.549 131.064 172.875 133.863 175.846 135.518C182.175 139.081 188.505 142.771 194.835 146.334C196.644 147.352 198.323 148.37 200.131 149.26C201.682 150.151 203.103 150.915 204.653 151.805C208.27 153.841 211.887 155.877 215.504 157.913C222.996 162.239 230.489 166.439 238.11 170.765C239.402 171.528 240.694 172.165 241.856 172.928C243.406 173.819 244.827 174.582 246.378 175.473C255.033 180.308 263.558 185.271 272.213 190.106C277.122 192.906 281.902 195.705 286.811 198.378C288.232 199.141 289.523 199.904 290.944 200.668C293.916 202.322 296.758 203.976 299.729 205.631C301.796 206.776 303.992 208.048 306.058 209.193C306.446 209.448 306.834 209.702 307.35 209.957C313.034 213.265 321.947 213.138 327.502 209.957C331.378 207.794 335.253 205.503 339.128 203.34C340.678 202.449 342.099 201.686 343.65 200.795C348.171 198.25 352.692 195.705 357.213 193.033C359.409 191.761 361.606 190.615 363.802 189.343C365.352 188.452 366.773 187.689 368.323 186.798C370.261 185.653 372.198 184.635 374.136 183.49C375.815 182.599 377.365 181.581 379.045 180.69C380.337 179.927 381.758 179.163 383.178 178.4C384.858 177.382 386.666 176.364 388.346 175.473C389.896 174.582 391.317 173.819 392.867 172.928C398.422 169.747 403.976 166.566 409.66 163.385C412.631 161.73 414.957 158.931 414.957 155.495C414.957 152.187 412.761 149.26 409.66 147.606C369.873 124.956 330.086 102.434 290.428 79.7837V88.3092C293.011 89.8362 295.595 91.2359 298.179 92.6356C299.47 93.3991 300.762 94.1626 302.054 94.7988C314.584 101.925 327.244 109.178 339.774 116.303C341.066 117.067 342.358 117.83 343.65 118.467C356.697 126.61 370.39 134.5 384.212 142.262Z"
          fill="#E1DFEA"/>
    <path d="M388.733 198.505C388.087 199.395 386.795 198.886 385.891 198.377C385.762 198.25 385.503 198.123 385.374 197.996C385.116 197.741 384.987 197.614 384.987 197.487C384.987 197.232 384.987 197.105 385.116 196.85C380.336 199.522 375.556 202.322 370.777 204.994C368.968 206.012 367.031 207.157 365.222 208.175C365.093 209.448 364.835 210.593 364.705 211.865C364.705 212.12 364.576 212.374 364.447 212.502C363.801 213.392 362.509 212.883 361.605 212.374C361.476 212.247 361.218 212.12 361.088 211.993C360.83 211.738 360.701 211.611 360.701 211.356C360.701 211.102 360.701 210.975 360.83 210.72C359.667 211.356 358.376 212.12 357.213 212.756C351.787 215.937 346.233 218.991 340.807 222.045C340.678 223.19 340.42 224.463 340.291 225.608V225.735C340.291 225.99 340.161 226.117 340.032 226.372C339.386 227.262 338.094 226.753 337.19 226.244C336.932 225.99 336.286 225.608 336.286 225.226C336.286 225.099 336.286 224.845 336.415 224.717C332.281 227.135 328.018 229.425 323.885 231.843C320.655 233.752 314.584 233.752 311.225 231.843C309.546 230.952 307.867 229.934 306.187 229.044C301.149 226.117 296.111 223.318 291.073 220.391C291.073 220.645 291.073 220.773 291.073 221.027C291.073 221.663 289.781 222.3 289.136 222.554C288.36 222.809 287.456 222.681 287.198 222.045C287.069 221.918 287.069 221.663 287.069 221.409C287.069 220.391 287.069 219.246 287.069 218.228C285.648 217.464 284.227 216.701 282.935 215.81C279.447 213.774 275.959 211.865 272.471 209.957C264.85 205.63 257.099 201.304 249.477 196.85C249.477 197.105 249.477 197.232 249.607 197.487C249.607 197.741 249.219 198.123 248.961 198.25C248.315 198.759 247.152 199.268 246.377 199.013C245.86 198.886 245.602 198.377 245.473 197.996C245.344 196.723 245.085 195.578 244.956 194.305C244.439 193.924 243.794 193.669 243.277 193.287C241.598 192.397 240.047 191.379 238.368 190.488C230.876 186.162 223.383 181.962 215.762 177.636C213.178 176.109 210.465 174.582 207.753 173.055C207.753 173.182 207.753 173.437 207.882 173.564C207.882 173.819 207.623 174.2 207.236 174.455C206.59 174.964 205.427 175.473 204.652 175.218C204.136 175.091 203.877 174.709 203.748 174.2C203.748 174.2 203.748 174.2 203.748 174.073C203.619 172.928 203.49 171.655 203.231 170.51C201.681 169.62 200.26 168.856 198.71 167.965C195.222 165.929 191.605 163.893 188.117 161.985C187.601 161.73 187.213 161.349 186.825 160.967C186.567 160.712 186.567 160.585 186.567 160.585C186.567 160.585 186.567 160.585 186.567 160.458C186.696 160.203 186.955 159.822 187.213 159.694C187.471 159.44 187.73 159.313 188.117 159.058C191.088 157.404 194.06 155.622 197.031 153.968C198.193 153.332 199.485 152.568 200.648 151.932C200.518 151.169 200.389 150.405 200.389 149.515C198.581 148.497 196.901 147.479 195.093 146.588C191.476 148.624 187.988 150.66 184.371 152.696C181.4 154.35 179.075 157.149 179.075 160.585C179.075 163.893 181.4 166.82 184.371 168.474C189.538 171.401 194.705 174.328 199.873 177.254C201.423 178.145 202.973 179.036 204.394 179.799C205.944 180.69 207.365 181.453 208.915 182.344C215.632 186.162 222.221 189.979 228.938 193.669C230.359 194.433 231.651 195.196 233.072 195.96C236.43 197.868 239.789 199.777 243.148 201.686C244.181 202.195 245.085 202.831 246.119 203.34C247.669 204.231 249.09 204.994 250.64 205.885C257.874 209.957 265.108 214.156 272.342 218.228C273.246 218.737 274.28 219.373 275.184 219.882C279.06 222.045 282.935 224.336 286.81 226.499C288.231 227.262 289.523 228.026 290.944 228.789C296.37 231.843 301.795 235.024 307.35 238.078C307.479 238.078 307.608 238.205 307.608 238.205C309.158 238.969 310.838 239.605 312.646 239.987C313.809 240.241 314.971 240.369 316.134 240.369C320.139 240.623 324.272 239.732 327.373 237.951C329.827 236.551 332.411 235.152 334.865 233.625C336.415 232.734 337.836 231.97 339.386 231.08C345.329 227.771 351.142 224.336 357.084 221.027C357.859 220.518 358.634 220.136 359.538 219.627C361.088 218.737 362.509 217.973 364.06 217.083C370.777 213.265 377.365 209.448 384.082 205.758C385.632 204.867 387.053 204.103 388.604 203.213C392.867 200.795 397 198.377 401.263 195.96C404.234 194.305 406.56 191.506 406.56 188.07C406.56 184.762 404.363 181.835 401.263 180.181C398.292 178.527 395.321 176.873 392.479 175.218C392.091 177.891 391.704 180.563 391.446 183.108C393.512 184.253 395.579 185.398 397.646 186.671C398.163 186.925 398.55 187.307 398.938 187.689C399.196 187.943 399.196 188.07 399.196 188.07C399.196 188.07 399.196 188.07 399.196 188.198C399.067 188.452 398.809 188.834 398.55 188.961C398.292 189.216 398.034 189.343 397.646 189.597C395.063 190.997 392.608 192.524 390.025 193.924C389.895 195.069 389.637 196.341 389.508 197.487V197.614C388.862 198.123 388.862 198.25 388.733 198.505Z"
          fill="#E1DFEA"/>
    <path d="M336.803 226.117C337.707 226.626 338.999 227.135 339.645 226.244C339.774 226.117 339.903 225.863 339.903 225.608V225.481C340.032 224.336 340.291 223.063 340.42 221.918C341.324 214.919 342.358 207.921 343.262 200.922C341.712 201.813 340.291 202.577 338.741 203.467C337.836 210.466 336.803 217.464 335.899 224.463C335.899 224.59 335.899 224.845 335.77 224.972C335.899 225.608 336.415 225.99 336.803 226.117Z"
          fill="#E1DFEA"/>
    <path d="M360.443 211.23C360.443 211.484 360.572 211.611 360.83 211.866C360.96 211.993 361.218 212.12 361.347 212.248C362.251 212.757 363.543 213.266 364.189 212.375C364.318 212.248 364.447 211.993 364.447 211.739C364.577 210.466 364.835 209.321 364.964 208.048C365.093 206.903 365.223 205.758 365.481 204.486C366.256 198.632 367.031 192.779 367.806 187.053C366.256 187.943 364.835 188.707 363.285 189.598C362.51 195.706 361.606 201.686 360.83 207.794C360.701 208.685 360.572 209.703 360.443 210.593C360.443 210.848 360.443 210.975 360.443 211.23Z"
          fill="#E1DFEA"/>
    <path d="M349.85 241.896C352.434 243.423 355.017 243.55 357.084 242.787C359.151 241.896 360.572 239.86 360.96 237.061C361.605 231.971 362.381 226.754 363.026 221.664C363.285 220.264 363.414 218.737 363.672 217.337C362.122 218.228 360.701 218.992 359.151 219.882C358.376 225.481 357.601 230.953 356.826 236.552C356.697 237.315 356.438 238.206 355.922 238.715C354.888 239.733 353.08 239.097 351.788 238.46C351.53 238.333 341.066 230.317 340.808 230.189C339.516 231.08 348.429 239.733 347.008 240.369C348.042 240.878 348.946 241.387 349.85 241.896Z"
          fill="#E1DFEA"/>
    <path d="M363.672 217.337C363.414 218.737 363.285 220.264 363.026 221.664C366.773 223.827 370.519 225.863 374.265 228.026C379.561 231.08 384.728 228.789 385.374 223.191C386.279 216.574 387.183 210.084 388.087 203.467C386.537 204.358 385.116 205.121 383.566 206.012C382.791 211.611 382.016 217.083 381.241 222.682C381.111 223.445 380.853 224.336 380.336 224.845C379.303 225.863 377.494 225.226 376.203 224.59C372.198 222.045 367.935 219.755 363.672 217.337Z"
          fill="#E1DFEA"/>
    <path d="M215.633 451.98C215.633 451.343 215.633 450.707 215.633 449.944C257.487 426.149 255.291 427.548 255.808 426.785C256.066 426.403 256.195 426.021 256.324 425.64C256.324 426.276 256.324 427.039 256.324 427.676C256.324 428.312 255.937 428.948 255.42 429.33C255.033 429.584 258.391 427.676 215.633 451.98Z"
          fill="#1F825E"/>
    <path d="M240.564 424.622L235.139 427.676L219.121 418.514L224.546 415.46L240.564 424.622Z" fill="#F0E0DC"/>
    <path d="M219.637 412.788L214.212 415.842L198.193 406.68L203.49 403.626L219.637 412.788Z" fill="#F0E0DC"/>
    <path d="M217.183 437.983C216.02 438.11 214.987 437.856 214.212 437.347C213.437 436.965 213.049 436.329 213.178 435.692C213.307 434.929 213.953 434.293 215.374 433.529C216.795 432.766 218.087 432.384 219.25 432.257C220.412 432.129 221.446 432.384 222.221 432.766C222.996 433.275 223.383 433.784 223.254 434.547C223.125 435.311 222.35 436.074 220.929 436.838C219.637 437.474 218.345 437.856 217.183 437.983Z"
          fill="#36CF98"/>
    <path d="M215.633 449.944C215.633 450.58 215.633 451.344 215.633 451.98L201.423 460.124C201.423 459.487 201.423 458.724 201.423 458.088L215.633 449.944Z"
          fill="#1F825E"/>
    <path d="M117.586 394.21C150.268 412.788 182.95 431.366 215.633 449.944L201.423 458.088C168.741 439.51 136.058 420.932 103.376 402.354L117.586 394.21Z"
          fill="#1F825E"/>
    <path d="M214.341 437.347C215.116 437.856 216.149 437.983 217.312 437.983C218.474 437.983 219.766 437.601 221.058 436.838C222.479 436.074 223.254 435.311 223.383 434.547C223.512 433.911 223.125 433.275 222.35 432.766C221.575 432.384 220.541 432.129 219.379 432.257C218.216 432.384 216.924 432.766 215.503 433.529C214.211 434.293 213.436 435.056 213.307 435.692C213.178 436.329 213.566 436.965 214.341 437.347ZM211.369 434.42C212.403 432.766 215.116 431.62 217.053 431.111C219.637 430.475 222.091 430.984 223.642 431.875C224.675 432.384 225.321 433.275 225.062 434.293L230.23 431.366L232.038 432.384L217.57 440.655L215.891 439.764C218.991 437.983 216.02 440.146 212.79 438.237C211.111 437.219 210.336 435.82 211.369 434.42Z"
          fill="#1F825E"/>
    <path d="M202.327 431.875L212.791 425.894L214.341 426.785L212.791 427.675C213.953 427.421 214.728 427.421 215.374 427.421C216.666 427.548 217.57 428.057 218.087 429.202L215.762 429.839C215.245 428.566 213.307 428.184 211.886 428.693C210.207 429.202 209.82 429.457 204.006 432.765L202.327 431.875Z"
          fill="#1F825E"/>
    <path d="M198.71 400.827L193.284 403.881L177.266 394.719L182.692 391.665L198.71 400.827Z" fill="#F0E0DC"/>
    <path d="M197.935 427.548C196.902 427.421 194.706 426.658 194.576 425.64C194.447 424.876 195.481 424.367 196.256 424.367C198.323 424.113 199.744 425.64 202.973 426.403C201.165 427.421 200.002 427.93 197.935 427.548Z"
          fill="#36CF98"/>
    <path d="M197.548 424.367C195.352 423.858 193.155 425.385 195.61 426.785C197.031 427.548 198.839 427.803 200.26 427.548C201.165 427.294 202.198 426.785 202.973 426.276C200.777 425.767 198.71 424.622 197.548 424.367ZM191.993 425.385C191.864 423.985 193.543 423.222 194.964 422.967C198.581 422.331 200.906 424.622 204.394 425.512C204.911 425.258 205.944 424.749 205.944 424.113C205.815 422.967 203.361 421.95 202.198 421.822C201.552 421.822 200.648 421.95 199.744 422.204L198.193 421.059C200.002 420.423 201.552 420.295 203.361 420.804C204.782 421.186 207.236 422.331 208.011 423.349C208.657 424.113 208.657 424.749 207.753 425.512C206.848 426.276 202.327 428.566 200.777 429.712C200.389 429.966 200.131 430.348 200.002 430.73L198.193 429.712C198.323 429.33 198.71 429.075 199.098 428.821C197.16 428.694 195.352 428.439 193.672 427.548C192.639 426.658 192.122 426.021 191.993 425.385Z"
          fill="#1F825E"/>
    <path d="M183.467 412.915C186.567 411.134 190.055 410.625 193.285 411.134C197.935 411.897 202.456 414.951 199.098 418.26L196.772 417.496C198.064 416.096 198.064 414.824 195.868 413.552C193.672 412.279 190.959 412.025 188.505 412.788C186.438 413.424 183.855 414.697 182.563 416.224C181.4 417.751 182.304 419.15 183.984 420.168C185.921 421.314 188.763 421.695 191.864 420.423L193.285 421.823C189.668 423.095 185.792 423.095 182.434 421.186C180.883 420.296 179.979 419.405 179.592 418.514C178.946 416.224 181.4 414.061 183.467 412.915Z"
          fill="#1F825E"/>
    <path d="M177.783 388.993L172.358 392.047L156.339 382.885L161.765 379.831L177.783 388.993Z" fill="#F0E0DC"/>
    <path d="M254.774 423.604C255.42 423.986 256.324 424.876 256.195 425.64C256.195 426.276 255.807 427.04 254.774 427.676L215.503 449.944C182.821 431.366 150.138 412.788 117.456 394.21C160.214 369.906 156.985 371.56 158.406 371.305C160.214 370.924 162.152 371.051 163.831 371.942L254.774 423.604ZM219.12 418.514L235.138 427.676L240.435 424.622L224.417 415.46L219.12 418.514ZM213.565 432.384C209.948 434.42 210.207 436.71 212.661 438.11C215.891 440.019 218.991 437.855 215.762 439.637L217.441 440.528L231.909 432.257L230.1 431.239L224.933 434.165C225.708 431.62 219.508 429.075 213.565 432.384ZM212.79 426.022L202.327 432.002L204.135 433.02C210.078 429.712 210.207 429.457 212.015 428.948C213.565 428.439 215.503 428.821 215.891 430.093L218.216 429.457C217.699 428.312 216.666 427.803 215.503 427.676C214.857 427.548 214.082 427.676 212.92 427.93L214.47 427.04L212.79 426.022ZM198.193 406.68L214.211 415.842L219.508 412.788L203.489 403.626L198.193 406.68ZM193.155 423.604C191.476 424.622 191.347 426.022 193.801 427.294C195.48 428.312 197.289 428.566 199.227 428.566C198.839 428.821 198.451 429.203 198.322 429.457L200.131 430.475C200.518 429.584 201.293 429.203 204.006 427.676C204.781 427.294 207.365 425.894 207.882 425.385C208.786 424.622 208.657 423.986 208.14 423.222C207.365 422.204 204.91 421.059 203.489 420.677C201.681 420.168 200.131 420.295 198.322 420.932L199.872 422.077C200.777 421.822 201.681 421.695 202.327 421.695C203.489 421.822 205.944 422.84 206.073 423.986C206.073 424.622 205.04 425.131 204.523 425.385C202.585 424.876 200.389 423.731 198.839 423.222C196.385 422.713 194.447 422.968 193.155 423.604ZM193.543 421.695L192.122 420.295C189.021 421.441 186.179 421.059 184.242 420.041C182.692 419.15 181.658 417.623 182.821 416.096C183.983 414.569 186.696 413.297 188.763 412.661C191.217 412.024 193.93 412.279 196.126 413.424C198.193 414.569 198.322 415.969 197.031 417.369L199.356 418.132C202.714 414.824 198.193 411.77 193.543 411.006C190.313 410.497 186.825 411.006 183.725 412.788C181.658 413.933 179.204 416.096 180.108 418.259C180.496 419.15 181.4 420.041 182.95 420.932C186.05 422.968 189.926 422.968 193.543 421.695ZM166.027 394.592C165.769 393.574 164.736 393.065 163.831 392.556C161.894 391.538 161.248 391.029 158.406 389.502C157.372 388.993 156.468 388.356 155.435 387.848C154.66 387.339 153.885 386.83 152.98 386.575C151.818 386.193 150.138 386.066 148.847 386.321C146.909 386.702 145.1 387.848 143.292 388.993C140.838 390.52 140.967 390.392 139.675 391.029C137.866 392.174 137.866 393.574 139.029 394.592C139.546 395.101 147.296 399.3 148.847 400.318C150.655 401.336 151.301 401.845 153.368 401.972C157.243 402.226 159.439 399.809 163.702 397.646C164.477 397.264 165.64 396.628 166.027 395.737C166.027 395.355 166.027 394.973 166.027 394.592ZM172.357 392.047L177.654 388.993L161.635 379.831L156.339 382.885L172.357 392.047ZM198.71 400.827L182.692 391.665L177.395 394.719L193.413 403.881L198.71 400.827Z"
          fill="#36CF98"/>
    <path d="M145.747 398.663C140.58 395.737 141.226 395.991 140.321 395.61C139.417 395.101 138.384 394.592 138.125 393.574C137.996 392.937 138.125 392.174 138.642 391.665C139.159 391.156 139.805 390.901 140.45 390.52C144.584 388.357 146.78 385.939 150.785 386.193C152.722 386.321 153.627 386.83 155.306 387.848C156.339 388.484 164.478 392.937 165.124 393.574C165.77 394.083 166.157 394.846 165.899 395.737C165.511 396.755 164.478 397.264 163.574 397.646C159.311 399.936 157.115 402.226 153.239 401.972C150.914 401.845 150.785 401.336 145.747 398.663Z"
          fill="#F3E187"/>
    <path d="M101.567 407.444C99.5002 406.298 99.6294 404.39 101.567 403.372L103.376 402.354C103.634 402.354 102.342 401.718 201.423 458.088L199.614 459.106C198.452 459.742 196.385 460.251 194.189 459.742C192.638 459.487 198.839 462.796 101.567 407.444Z"
          fill="#36CF98"/>
    <path d="M100.017 407.444C100.017 406.807 100.017 406.044 100.017 405.408C100.017 405.789 100.146 406.298 100.534 406.553C101.051 407.189 95.1083 403.753 192.509 459.106C193.672 459.742 195.739 460.251 197.935 459.742C199.227 459.488 199.614 459.106 201.423 458.088C201.423 458.724 201.423 459.36 201.423 460.124L199.614 461.142C198.064 462.032 195.997 462.16 194.189 461.778C192.768 461.523 198.71 464.705 101.567 409.48C100.534 408.843 100.017 408.08 100.017 407.444Z"
          fill="#1F825E"/>
    <defs>
        <linearGradient id="paint0_linear_132_1653" x1="72.5778" y1="301.876" x2="533.884" y2="301.876"
                        gradientUnits="userSpaceOnUse">
            <stop stop-color="#5FACB1"/>
            <stop offset="1" stop-color="#2B7C56"/>
        </linearGradient>
    </defs>
</svg>
