<svg width="1920" height="6121" viewBox="0 0 1920 6121" fill="none" xmlns="http://www.w3.org/2000/svg">
    <g clip-path="url(#clip0_517_3951)">
        <rect width="1920" height="6121" fill="none"/>
        <path d="M-152.484 1064.98C-152.883 1063.49 -151.522 1062.13 -150.035 1062.53L-73.0752 1083.15C-71.5882 1083.55 -71.0903 1085.4 -72.1788 1086.49L-128.517 1142.83C-129.605 1143.92 -131.465 1143.42 -131.863 1141.94L-152.484 1064.98ZM-60.5606 973.052C-60.9589 971.565 -59.5975 970.204 -58.1104 970.603L18.8486 991.224C20.3357 991.622 20.8336 993.481 19.7451 994.569L-36.5928 1050.91C-37.6814 1052 -39.5409 1051.5 -39.9395 1050.01L-60.5606 973.052ZM-131.271 902.341C-131.669 900.854 -130.308 899.493 -128.821 899.892L-51.8623 920.513C-50.3752 920.911 -49.8772 922.771 -50.9659 923.859L-107.304 980.197C-108.392 981.286 -110.251 980.788 -110.649 979.301L-131.271 902.341ZM31.3632 881.128C30.9649 879.641 32.3263 878.28 33.8134 878.679L110.772 899.3C112.26 899.698 112.757 901.557 111.669 902.646L55.331 958.984C54.2424 960.073 52.383 959.575 51.9843 958.088L31.3632 881.128ZM-39.3467 810.417C-39.745 808.93 -38.3846 807.569 -36.8975 807.968L40.0615 828.589C41.5486 828.987 42.0466 830.847 40.958 831.936L-15.3799 888.274C-16.4685 889.362 -18.327 888.864 -18.7256 887.377L-39.3467 810.417ZM123.287 789.204C122.889 787.717 124.25 786.357 125.737 786.755L202.696 807.376C204.183 807.775 204.681 809.633 203.593 810.722L147.255 867.061C146.166 868.149 144.307 867.651 143.908 866.164L123.287 789.204ZM-110.058 739.707C-110.456 738.22 -109.096 736.859 -107.608 737.257L-30.6485 757.878C-29.1615 758.277 -28.6635 760.136 -29.752 761.225L-86.0909 817.563C-87.1795 818.651 -89.0381 818.153 -89.4366 816.666L-110.058 739.707ZM52.5771 718.493C52.1788 717.006 53.5392 715.646 55.0263 716.044L131.985 736.665C133.472 737.064 133.971 738.923 132.883 740.012L76.5439 796.35C75.4553 797.438 73.5968 796.94 73.1982 795.453L52.5771 718.493ZM215.211 697.28C214.812 695.793 216.174 694.433 217.661 694.831L294.62 715.452C296.107 715.851 296.605 717.709 295.517 718.798L239.179 775.137C238.09 776.225 236.231 775.726 235.833 774.239L215.211 697.28ZM-18.1338 647.783C-18.5323 646.296 -17.1717 644.935 -15.6846 645.333L61.2753 665.954C62.7623 666.353 63.2604 668.212 62.1718 669.301L5.83297 725.639C4.74429 726.727 2.88573 726.229 2.48726 724.742L-18.1338 647.783ZM144.501 626.569C144.103 625.082 145.463 623.722 146.95 624.12L223.909 644.741C225.396 645.14 225.895 646.998 224.807 648.087L168.468 704.426C167.379 705.514 165.521 705.016 165.122 703.529L144.501 626.569ZM307.135 605.357C306.736 603.869 308.098 602.509 309.585 602.907L386.544 623.528C388.031 623.927 388.529 625.785 387.44 626.874L331.102 683.213C330.014 684.301 328.155 683.803 327.757 682.316L307.135 605.357ZM-88.8448 577.072C-89.2432 575.585 -87.8826 574.225 -86.3955 574.623L-9.43559 595.244C-7.94855 595.643 -7.45048 597.501 -8.5391 598.59L-64.877 654.928C-65.9657 656.017 -67.8252 655.519 -68.2237 654.031L-88.8448 577.072ZM73.79 555.859C73.3919 554.372 74.7523 553.011 76.2392 553.409L153.199 574.03C154.686 574.429 155.184 576.288 154.096 577.377L97.7568 633.715C96.6681 634.803 94.8095 634.306 94.4111 632.818L73.79 555.859ZM236.425 534.646C236.026 533.159 237.387 531.798 238.874 532.196L315.834 552.817C317.321 553.216 317.818 555.075 316.73 556.163L260.392 612.502C259.303 613.59 257.444 613.092 257.046 611.606L236.425 534.646ZM399.06 513.433C398.661 511.946 400.022 510.585 401.509 510.984L478.468 531.605C479.955 532.003 480.453 533.862 479.364 534.95L423.026 591.288C421.938 592.377 420.079 591.879 419.681 590.392L399.06 513.433ZM-159.556 506.361C-159.954 504.874 -158.593 503.514 -157.106 503.912L-80.1465 524.533C-78.6594 524.932 -78.1614 526.79 -79.25 527.879L-135.588 584.218C-136.676 585.306 -138.535 584.808 -138.934 583.321L-159.556 506.361ZM3.07906 485.149C2.68063 483.662 4.04135 482.3 5.52828 482.698L82.4882 503.32C83.9753 503.719 84.4734 505.577 83.3847 506.666L27.0468 563.004C25.9582 564.093 24.0986 563.595 23.7002 562.108L3.07906 485.149ZM165.714 463.935C165.316 462.448 166.676 461.087 168.163 461.485L245.123 482.107C246.61 482.505 247.108 484.365 246.019 485.453L189.682 541.791C188.593 542.88 186.733 542.382 186.335 540.895L165.714 463.935ZM328.349 442.722C327.95 441.235 329.311 439.874 330.798 440.273L407.758 460.894C409.244 461.292 409.742 463.151 408.654 464.239L352.315 520.578C351.227 521.666 349.368 521.169 348.97 519.682L328.349 442.722ZM-230.266 435.651C-230.664 434.163 -229.304 432.803 -227.816 433.201L-150.857 453.822C-149.37 454.221 -148.871 456.08 -149.96 457.169L-206.299 513.507C-207.388 514.595 -209.246 514.097 -209.645 512.61L-230.266 435.651ZM490.983 421.509C490.585 420.022 491.945 418.661 493.433 419.06L570.392 439.681C571.879 440.079 572.377 441.938 571.288 443.026L514.95 499.364C513.861 500.453 512.003 499.955 511.604 498.468L490.983 421.509ZM-67.6319 414.438C-68.0302 412.951 -66.6688 411.59 -65.1817 411.988L11.7773 432.609C13.2644 433.008 13.7624 434.867 12.6738 435.955L-43.6641 492.294C-44.7527 493.382 -46.6111 492.884 -47.0098 491.398L-67.6319 414.438ZM95.0029 393.225C94.6044 391.738 95.9659 390.376 97.4531 390.775L174.412 411.397C175.899 411.795 176.397 413.654 175.309 414.742L118.971 471.08C117.882 472.169 116.022 471.671 115.624 470.184L95.0029 393.225ZM257.638 372.011C257.24 370.524 258.6 369.163 260.087 369.562L337.047 390.183C338.534 390.581 339.032 392.441 337.943 393.529L281.605 449.867C280.517 450.956 278.657 450.458 278.259 448.971L257.638 372.011ZM-300.977 364.941C-301.375 363.453 -300.014 362.092 -298.527 362.49L-221.567 383.111C-220.08 383.51 -219.582 385.369 -220.671 386.458L-277.01 442.796C-278.098 443.885 -279.957 443.387 -280.356 441.9L-300.977 364.941ZM420.272 350.798C419.874 349.311 421.235 347.95 422.722 348.349L499.682 368.97C501.168 369.368 501.666 371.227 500.578 372.316L444.239 428.654C443.151 429.743 441.292 429.245 440.894 427.758L420.272 350.798ZM-138.342 343.727C-138.74 342.24 -137.38 340.879 -135.893 341.277L-58.9327 361.899C-57.4458 362.297 -56.9476 364.157 -58.0362 365.245L-114.375 421.583C-115.464 422.672 -117.322 422.174 -117.721 420.687L-138.342 343.727ZM582.907 329.585C582.509 328.098 583.869 326.736 585.356 327.135L662.315 347.757C663.802 348.155 664.301 350.014 663.213 351.103L606.874 407.441C605.785 408.529 603.927 408.031 603.528 406.544L582.907 329.585ZM24.2929 322.514C23.8944 321.027 25.255 319.666 26.7421 320.065L103.701 340.686C105.188 341.084 105.686 342.943 104.598 344.031L48.2597 400.37C47.171 401.459 45.3125 400.96 44.914 399.473L24.2929 322.514ZM186.927 301.301C186.528 299.814 187.89 298.452 189.377 298.851L266.336 319.473C267.823 319.871 268.321 321.73 267.232 322.818L210.894 379.156C209.806 380.245 207.946 379.747 207.548 378.26L186.927 301.301ZM349.561 280.087C349.163 278.6 350.524 277.24 352.011 277.638L428.971 298.259C430.458 298.657 430.956 300.517 429.867 301.606L373.529 357.943C372.441 359.032 370.581 358.534 370.183 357.047L349.561 280.087ZM-209.053 273.017C-209.451 271.53 -208.091 270.168 -206.604 270.567L-129.644 291.188C-128.157 291.586 -127.658 293.446 -128.747 294.534L-185.085 350.872C-186.174 351.961 -188.033 351.463 -188.432 349.976L-209.053 273.017ZM512.196 258.874C511.798 257.387 513.158 256.027 514.645 256.425L591.605 277.046C593.092 277.445 593.59 279.303 592.502 280.392L536.163 336.731C535.074 337.819 533.216 337.321 532.817 335.834L512.196 258.874ZM-46.418 251.803C-46.8163 250.316 -45.4559 248.955 -43.9688 249.354L32.9912 269.975C34.4779 270.373 34.9757 272.232 33.8877 273.32L-22.4512 329.659C-23.5398 330.748 -25.3983 330.25 -25.7969 328.763L-46.418 251.803ZM674.831 237.661C674.433 236.174 675.793 234.813 677.28 235.211L754.239 255.833C755.726 256.232 756.225 258.09 755.137 259.179L698.798 315.517C697.709 316.605 695.851 316.107 695.452 314.62L674.831 237.661ZM116.217 230.59C115.818 229.103 117.179 227.742 118.666 228.141L195.625 248.762C197.112 249.16 197.61 251.019 196.521 252.108L140.184 308.446C139.095 309.535 137.236 309.036 136.838 307.549L116.217 230.59ZM278.851 209.377C278.452 207.89 279.814 206.528 281.301 206.927L358.26 227.548C359.747 227.946 360.245 229.806 359.156 230.895L302.818 287.233C301.73 288.321 299.871 287.823 299.473 286.336L278.851 209.377ZM441.485 188.163C441.087 186.676 442.448 185.316 443.935 185.714L520.894 206.335C522.382 206.734 522.88 208.593 521.791 209.682L465.453 266.02C464.364 267.108 462.505 266.61 462.106 265.123L441.485 188.163ZM-117.129 181.093C-117.527 179.606 -116.167 178.245 -114.68 178.643L-37.7198 199.264C-36.2327 199.662 -35.7346 201.522 -36.8233 202.61L-93.1612 258.948C-94.2498 260.037 -96.1094 259.539 -96.5079 258.052L-117.129 181.093ZM604.12 166.95C603.722 165.463 605.082 164.103 606.569 164.501L683.529 185.122C685.016 185.521 685.514 187.379 684.426 188.468L628.087 244.807C626.998 245.895 625.14 245.396 624.741 243.909L604.12 166.95ZM45.5058 159.879C45.1075 158.392 46.468 157.031 47.955 157.43L124.915 178.051C126.402 178.45 126.9 180.308 125.811 181.397L69.4726 237.735C68.384 238.824 66.5255 238.326 66.1269 236.839L45.5058 159.879ZM766.755 145.737C766.356 144.25 767.717 142.889 769.204 143.287L846.164 163.909C847.651 164.308 848.149 166.166 847.061 167.255L790.722 223.593C789.633 224.682 787.774 224.184 787.376 222.696L766.755 145.737ZM208.141 138.666C207.742 137.179 209.103 135.818 210.59 136.217L287.549 156.838C289.036 157.236 289.535 159.095 288.446 160.184L232.107 216.522C231.019 217.61 229.16 217.112 228.762 215.625L208.141 138.666ZM370.774 117.453C370.376 115.966 371.737 114.605 373.225 115.003L450.184 135.624C451.671 136.023 452.169 137.882 451.08 138.971L394.742 195.309C393.653 196.397 391.795 195.899 391.396 194.412L370.774 117.453ZM533.409 96.2394C533.011 94.7525 534.371 93.3921 535.858 93.7902L612.818 114.411C614.305 114.81 614.803 116.668 613.715 117.757L557.377 174.096C556.288 175.184 554.429 174.686 554.03 173.199L533.409 96.2394ZM-25.2051 89.1681C-25.6032 87.6812 -24.2427 86.3208 -22.7559 86.7189L54.2041 107.34C55.6912 107.738 56.1892 109.598 55.1005 110.687L-1.23735 167.025C-2.32601 168.113 -4.18555 167.615 -4.58403 166.128L-25.2051 89.1681ZM696.044 75.0265C695.645 73.5394 697.006 72.1789 698.493 72.5773L775.453 93.1984C776.94 93.597 777.438 95.4554 776.35 96.5441L720.011 152.883C718.922 153.971 717.063 153.472 716.665 151.985L696.044 75.0265ZM137.43 67.9552C137.031 66.4681 138.392 65.1076 139.879 65.506L216.839 86.1271C218.326 86.5257 218.824 88.3841 217.735 89.4728L161.396 145.812C160.308 146.9 158.449 146.402 158.051 144.915L137.43 67.9552ZM858.679 53.8136C858.28 52.3265 859.641 50.965 861.128 51.3634L938.088 71.9845C939.575 72.3831 940.073 74.2426 938.984 75.3312L882.645 131.669C881.557 132.758 879.698 132.26 879.3 130.773L858.679 53.8136ZM300.064 46.7423C299.666 45.2552 301.026 43.8946 302.514 44.2931L379.473 64.9142C380.96 65.3126 381.458 67.1712 380.37 68.2599L324.031 124.598C322.943 125.686 321.084 125.188 320.686 123.701L300.064 46.7423ZM462.698 25.5284C462.3 24.0415 463.661 22.6808 465.148 23.0792L542.107 43.7003C543.595 44.0988 544.093 45.9583 543.004 47.047L486.666 103.385C485.577 104.474 483.719 103.975 483.32 102.488L462.698 25.5284ZM625.333 4.31554C624.935 2.82849 626.296 1.46786 627.783 1.86632L704.742 22.4874C706.229 22.8859 706.727 24.7444 705.639 25.8331L649.301 82.172C648.212 83.2606 646.353 82.7625 645.954 81.2755L625.333 4.31554ZM66.7187 -2.75575C66.3206 -4.24259 67.6811 -5.60303 69.1679 -5.20497L146.128 15.4161C147.615 15.8146 148.113 17.6741 147.024 18.7628L90.6865 75.1007C89.5978 76.1894 87.7383 75.6914 87.3398 74.2042L66.7187 -2.75575ZM787.968 -16.8973C787.569 -18.3844 788.93 -19.7449 790.417 -19.3466L867.377 1.27453C868.864 1.67311 869.362 3.53161 868.273 4.62023L811.936 60.9581C810.847 62.0468 808.987 61.5488 808.589 60.0616L787.968 -16.8973ZM229.353 -23.9686C228.955 -25.4557 230.316 -26.8162 231.803 -26.4179L308.763 -5.79676C310.249 -5.39818 310.747 -3.5397 309.659 -2.45106L253.32 53.8878C252.232 54.9759 250.373 54.478 249.975 52.9913L229.353 -23.9686ZM950.602 -38.1102C950.204 -39.5973 951.565 -40.9588 953.052 -40.5604L1030.01 -19.9393C1031.5 -19.5407 1032 -17.6813 1030.91 -16.5927L974.569 39.7452C973.481 40.8338 971.622 40.3358 971.224 38.8487L950.602 -38.1102ZM391.988 -45.1815C391.59 -46.6686 392.95 -48.0301 394.437 -47.6317L471.397 -27.0097C472.884 -26.6109 473.382 -24.7525 472.294 -23.664L415.955 32.6739C414.866 33.7626 413.008 33.2646 412.609 31.7775L391.988 -45.1815ZM554.623 -66.3954C554.225 -67.8824 555.585 -69.2431 557.072 -68.8446L634.031 -48.2235C635.518 -47.825 636.016 -45.9655 634.928 -44.8768L578.59 11.461C577.501 12.5497 575.643 12.0516 575.244 10.5646L554.623 -66.3954ZM717.257 -87.6083C716.858 -89.0954 718.22 -90.456 719.707 -90.0575L796.666 -69.4364C798.153 -69.0379 798.651 -67.1794 797.562 -66.0907L741.225 -9.75184C740.136 -8.66328 738.276 -9.16137 737.878 -10.6483L717.257 -87.6083ZM158.643 -94.6796C158.244 -96.1664 159.605 -97.5268 161.092 -97.1288L238.052 -76.5077C239.539 -76.1092 240.037 -74.2497 238.948 -73.161L182.61 -16.8231C181.522 -15.7345 179.662 -16.2325 179.264 -17.7196L158.643 -94.6796ZM879.892 -108.821C879.493 -110.308 880.854 -111.669 882.341 -111.27L959.301 -90.6493C960.788 -90.2507 961.286 -88.3922 960.197 -87.3036L903.859 -30.9657C902.771 -29.877 900.911 -30.3751 900.513 -31.8622L879.892 -108.821ZM321.277 -115.892C320.879 -117.38 322.239 -118.74 323.727 -118.342L400.686 -97.7206C402.173 -97.322 402.671 -95.4635 401.583 -94.3749L345.245 -38.036C344.157 -36.9475 342.297 -37.4457 341.898 -38.9325L321.277 -115.892ZM1042.53 -130.035C1042.13 -131.522 1043.49 -132.883 1044.98 -132.484L1121.94 -111.863C1123.42 -111.465 1123.92 -109.605 1122.83 -108.516L1066.49 -52.1786C1065.4 -51.0901 1063.55 -51.588 1063.15 -53.0751L1042.53 -130.035ZM483.912 -137.105C483.514 -138.592 484.874 -139.954 486.361 -139.556L563.321 -118.933C564.808 -118.535 565.306 -116.676 564.218 -115.588L507.879 -59.2499C506.79 -58.1612 504.932 -58.6592 504.533 -60.1464L483.912 -137.105ZM250.566 -186.603C250.168 -188.09 251.53 -189.451 253.017 -189.053L329.976 -168.432C331.463 -168.033 331.961 -166.174 330.872 -165.085L274.534 -108.747C273.445 -107.658 271.586 -108.156 271.187 -109.643L250.566 -186.603ZM413.201 -207.816C412.803 -209.303 414.163 -210.664 415.65 -210.266L492.61 -189.644C494.097 -189.246 494.595 -187.387 493.507 -186.299L437.169 -129.96C436.08 -128.871 434.221 -129.37 433.822 -130.857L413.201 -207.816ZM342.49 -278.527C342.092 -280.014 343.453 -281.375 344.94 -280.976L421.899 -260.355C423.386 -259.957 423.884 -258.098 422.796 -257.01L366.458 -200.671C365.369 -199.582 363.51 -200.08 363.111 -201.567L342.49 -278.527Z"
              fill="url(#paint0_linear_517_3951)"/>
        <path d="M1452.63 6485.33C1453.64 6484.17 1455.53 6484.54 1456.03 6485.99L1482.07 6561.29C1482.57 6562.75 1481.31 6564.2 1479.8 6563.91L1401.57 6548.81C1400.06 6548.51 1399.43 6546.7 1400.44 6545.53L1452.63 6485.33ZM1377.08 6419.82C1378.09 6418.66 1379.98 6419.03 1380.48 6420.48L1406.51 6495.78C1407.02 6497.24 1405.76 6498.69 1404.24 6498.4L1326.02 6483.3C1324.5 6483 1323.87 6481.19 1324.88 6480.02L1377.08 6419.82ZM1537.79 6387.11C1538.8 6385.95 1540.69 6386.31 1541.2 6387.77L1567.23 6463.07C1567.73 6464.52 1566.47 6465.98 1564.96 6465.69L1486.73 6450.58C1485.22 6450.29 1484.59 6448.47 1485.6 6447.31L1537.79 6387.11ZM1301.52 6354.32C1302.53 6353.15 1304.42 6353.52 1304.92 6354.97L1330.96 6430.27C1331.46 6431.73 1330.2 6433.18 1328.69 6432.89L1250.46 6417.79C1248.95 6417.5 1248.32 6415.68 1249.33 6414.51L1301.52 6354.32ZM1462.24 6321.6C1463.25 6320.44 1465.14 6320.8 1465.64 6322.26L1491.68 6397.56C1492.18 6399.02 1490.92 6400.47 1489.41 6400.18L1411.18 6385.07C1409.67 6384.78 1409.04 6382.96 1410.05 6381.8L1462.24 6321.6ZM1225.97 6288.81C1226.98 6287.64 1228.87 6288.01 1229.37 6289.46L1255.41 6364.76C1255.91 6366.22 1254.65 6367.67 1253.14 6367.38L1174.91 6352.28C1173.39 6351.98 1172.77 6350.17 1173.77 6349L1225.97 6288.81ZM1622.96 6288.89C1623.97 6287.73 1625.85 6288.09 1626.36 6289.55L1652.39 6364.85C1652.9 6366.3 1651.64 6367.76 1650.12 6367.47L1571.89 6352.36C1570.38 6352.07 1569.75 6350.25 1570.76 6349.09L1622.96 6288.89ZM1386.68 6256.09C1387.69 6254.93 1389.58 6255.3 1390.09 6256.75L1416.12 6332.05C1416.62 6333.51 1415.36 6334.96 1413.85 6334.67L1335.62 6319.57C1334.11 6319.27 1333.48 6317.45 1334.49 6316.29L1386.68 6256.09ZM1150.41 6223.3C1151.42 6222.13 1153.31 6222.5 1153.81 6223.95L1179.85 6299.25C1180.35 6300.71 1179.09 6302.16 1177.58 6301.87L1099.35 6286.77C1097.84 6286.48 1097.21 6284.66 1098.22 6283.49L1150.41 6223.3ZM1547.4 6223.38C1548.41 6222.22 1550.3 6222.58 1550.8 6224.04L1576.84 6299.34C1577.34 6300.79 1576.08 6302.25 1574.57 6301.96L1496.34 6286.85C1494.83 6286.56 1494.2 6284.74 1495.21 6283.58L1547.4 6223.38ZM1311.13 6190.58C1312.14 6189.42 1314.03 6189.79 1314.53 6191.24L1340.57 6266.54C1341.07 6268 1339.81 6269.45 1338.3 6269.16L1260.07 6254.06C1258.56 6253.76 1257.93 6251.95 1258.94 6250.78L1311.13 6190.58ZM1074.86 6157.79C1075.87 6156.62 1077.76 6156.99 1078.26 6158.44L1104.3 6233.74C1104.8 6235.2 1103.54 6236.65 1102.03 6236.36L1023.8 6221.26C1022.28 6220.97 1021.66 6219.15 1022.66 6217.98L1074.86 6157.79ZM1708.12 6190.67C1709.13 6189.51 1711.02 6189.87 1711.52 6191.33L1737.56 6266.63C1738.06 6268.08 1736.8 6269.54 1735.29 6269.25L1657.06 6254.14C1655.55 6253.85 1654.92 6252.03 1655.92 6250.87L1708.12 6190.67ZM1471.85 6157.87C1472.86 6156.71 1474.74 6157.07 1475.25 6158.53L1501.28 6233.83C1501.79 6235.28 1500.53 6236.74 1499.02 6236.45L1420.78 6221.34C1419.27 6221.05 1418.64 6219.23 1419.65 6218.07L1471.85 6157.87ZM1235.58 6125.07C1236.58 6123.91 1238.47 6124.28 1238.98 6125.73L1265.01 6201.03C1265.52 6202.49 1264.25 6203.94 1262.74 6203.65L1184.51 6188.55C1183 6188.25 1182.37 6186.44 1183.38 6185.27L1235.58 6125.07ZM999.304 6092.28C1000.31 6091.11 1002.2 6091.48 1002.71 6092.93L1028.74 6168.23C1029.24 6169.69 1027.98 6171.14 1026.47 6170.85L948.241 6155.75C946.73 6155.46 946.101 6153.64 947.11 6152.47L999.304 6092.28ZM1632.56 6125.16C1633.57 6124 1635.46 6124.36 1635.97 6125.82L1662 6201.12C1662.5 6202.57 1661.24 6204.03 1659.73 6203.74L1581.5 6188.63C1579.99 6188.34 1579.36 6186.52 1580.37 6185.36L1632.56 6125.16ZM1396.29 6092.36C1397.3 6091.2 1399.19 6091.57 1399.69 6093.02L1425.73 6168.32C1426.23 6169.78 1424.97 6171.23 1423.46 6170.94L1345.23 6155.84C1343.72 6155.54 1343.09 6153.72 1344.1 6152.56L1396.29 6092.36ZM1160.02 6059.57C1161.03 6058.4 1162.92 6058.77 1163.42 6060.22L1189.46 6135.52C1189.96 6136.98 1188.7 6138.43 1187.19 6138.14L1108.96 6123.04C1107.45 6122.75 1106.82 6120.93 1107.83 6119.76L1160.02 6059.57ZM923.749 6026.77C924.758 6025.6 926.648 6025.97 927.151 6027.42L953.186 6102.72C953.689 6104.18 952.429 6105.63 950.917 6105.34L872.688 6090.24C871.176 6089.95 870.546 6088.13 871.555 6086.96L923.749 6026.77ZM1793.28 6092.45C1794.29 6091.29 1796.18 6091.65 1796.68 6093.11L1822.72 6168.41C1823.22 6169.86 1821.96 6171.32 1820.45 6171.02L1742.22 6155.92C1740.71 6155.63 1740.08 6153.81 1741.09 6152.65L1793.28 6092.45ZM1557.01 6059.65C1558.02 6058.49 1559.91 6058.85 1560.41 6060.31L1586.45 6135.61C1586.95 6137.06 1585.69 6138.52 1584.18 6138.23L1505.95 6123.12C1504.44 6122.83 1503.81 6121.01 1504.82 6119.85L1557.01 6059.65ZM1320.74 6026.85C1321.75 6025.69 1323.64 6026.06 1324.14 6027.51L1350.17 6102.81C1350.68 6104.27 1349.42 6105.72 1347.91 6105.43L1269.68 6090.33C1268.16 6090.03 1267.54 6088.21 1268.54 6087.05L1320.74 6026.85ZM1084.47 5994.06C1085.48 5992.89 1087.36 5993.26 1087.87 5994.71L1113.9 6070.01C1114.41 6071.47 1113.15 6072.92 1111.63 6072.63L1033.4 6057.53C1031.89 6057.24 1031.26 6055.42 1032.27 6054.25L1084.47 5994.06ZM1717.73 6026.94C1718.74 6025.78 1720.63 6026.14 1721.13 6027.6L1747.16 6102.9C1747.67 6104.35 1746.41 6105.81 1744.89 6105.51L1666.66 6090.41C1665.15 6090.12 1664.52 6088.3 1665.53 6087.14L1717.73 6026.94ZM1481.46 5994.14C1482.46 5992.98 1484.35 5993.34 1484.86 5994.8L1510.89 6070.1C1511.4 6071.55 1510.13 6073.01 1508.62 6072.72L1430.39 6057.61C1428.88 6057.32 1428.25 6055.5 1429.26 6054.34L1481.46 5994.14ZM1245.18 5961.34C1246.19 5960.18 1248.08 5960.55 1248.58 5962L1274.62 6037.3C1275.12 6038.76 1273.86 6040.21 1272.35 6039.92L1194.12 6024.82C1192.61 6024.52 1191.98 6022.7 1192.99 6021.54L1245.18 5961.34ZM1008.91 5928.55C1009.92 5927.38 1011.81 5927.75 1012.31 5929.2L1038.35 6004.5C1038.85 6005.96 1037.59 6007.41 1036.08 6007.12L957.849 5992.02C956.338 5991.73 955.709 5989.91 956.718 5988.74L1008.91 5928.55ZM1878.44 5994.23C1879.45 5993.07 1881.34 5993.43 1881.84 5994.89L1907.88 6070.19C1908.38 6071.64 1907.12 6073.1 1905.61 6072.8L1827.38 6057.7C1825.87 6057.41 1825.24 6055.59 1826.25 6054.43L1878.44 5994.23ZM1642.17 5961.43C1643.18 5960.27 1645.07 5960.63 1645.57 5962.09L1671.61 6037.39C1672.11 6038.84 1670.85 6040.3 1669.34 6040L1591.11 6024.9C1589.6 6024.61 1588.97 6022.79 1589.98 6021.63L1642.17 5961.43ZM1405.9 5928.63C1406.91 5927.47 1408.8 5927.83 1409.3 5929.29L1435.34 6004.59C1435.84 6006.05 1434.58 6007.5 1433.07 6007.21L1354.84 5992.1C1353.33 5991.81 1352.7 5989.99 1353.71 5988.83L1405.9 5928.63ZM1169.63 5895.84C1170.64 5894.67 1172.53 5895.04 1173.03 5896.49L1199.07 5971.79C1199.57 5973.25 1198.31 5974.7 1196.8 5974.41L1118.57 5959.31C1117.06 5959.01 1116.43 5957.2 1117.44 5956.03L1169.63 5895.84ZM1802.89 5928.72C1803.9 5927.56 1805.79 5927.92 1806.29 5929.38L1832.33 6004.68C1832.83 6006.13 1831.57 6007.59 1830.06 6007.29L1751.83 5992.19C1750.32 5991.9 1749.69 5990.08 1750.69 5988.92L1802.89 5928.72ZM1566.62 5895.92C1567.63 5894.76 1569.52 5895.12 1570.02 5896.58L1596.05 5971.88C1596.56 5973.33 1595.3 5974.79 1593.78 5974.5L1515.56 5959.39C1514.04 5959.1 1513.41 5957.28 1514.42 5956.12L1566.62 5895.92ZM1330.35 5863.12C1331.35 5861.96 1333.24 5862.32 1333.75 5863.78L1359.78 5939.08C1360.29 5940.54 1359.03 5941.99 1357.51 5941.7L1279.28 5926.59C1277.77 5926.3 1277.14 5924.48 1278.15 5923.32L1330.35 5863.12ZM1094.07 5830.32C1095.08 5829.16 1096.97 5829.53 1097.48 5830.98L1123.51 5906.28C1124.01 5907.74 1122.75 5909.19 1121.24 5908.9L1043.01 5893.8C1041.5 5893.5 1040.87 5891.69 1041.88 5890.52L1094.07 5830.32ZM1963.61 5896.01C1964.61 5894.84 1966.5 5895.21 1967.01 5896.66L1993.04 5971.96C1993.55 5973.42 1992.29 5974.87 1990.77 5974.58L1912.54 5959.48C1911.03 5959.19 1910.4 5957.37 1911.41 5956.21L1963.61 5896.01ZM1727.33 5863.21C1728.34 5862.05 1730.23 5862.41 1730.74 5863.87L1756.77 5939.17C1757.27 5940.62 1756.01 5942.08 1754.5 5941.78L1676.27 5926.68C1674.76 5926.39 1674.13 5924.57 1675.14 5923.41L1727.33 5863.21ZM1491.06 5830.41C1492.07 5829.25 1493.96 5829.61 1494.46 5831.07L1520.5 5906.37C1521 5907.82 1519.74 5909.28 1518.23 5908.99L1440 5893.88C1438.49 5893.59 1437.86 5891.77 1438.87 5890.61L1491.06 5830.41ZM1254.79 5797.61C1255.8 5796.45 1257.69 5796.82 1258.19 5798.27L1284.23 5873.57C1284.73 5875.03 1283.47 5876.48 1281.96 5876.19L1203.73 5861.09C1202.22 5860.79 1201.59 5858.97 1202.6 5857.81L1254.79 5797.61ZM1888.05 5830.5C1889.06 5829.34 1890.95 5829.7 1891.45 5831.16L1917.49 5906.46C1917.99 5907.91 1916.73 5909.36 1915.22 5909.07L1836.99 5893.97C1835.48 5893.68 1834.85 5891.86 1835.86 5890.7L1888.05 5830.5ZM1651.78 5797.7C1652.79 5796.54 1654.68 5796.9 1655.18 5798.36L1681.22 5873.66C1681.72 5875.11 1680.46 5876.57 1678.95 5876.27L1600.72 5861.17C1599.21 5860.88 1598.58 5859.06 1599.59 5857.9L1651.78 5797.7ZM1415.51 5764.9C1416.52 5763.74 1418.41 5764.1 1418.91 5765.56L1444.95 5840.86C1445.45 5842.31 1444.19 5843.77 1442.68 5843.48L1364.45 5828.37C1362.93 5828.08 1362.31 5826.26 1363.31 5825.1L1415.51 5764.9ZM1179.24 5732.1C1180.24 5730.94 1182.13 5731.31 1182.64 5732.76L1208.67 5808.06C1209.18 5809.52 1207.92 5810.97 1206.4 5810.68L1128.17 5795.58C1126.66 5795.28 1126.03 5793.47 1127.04 5792.3L1179.24 5732.1ZM2048.77 5797.79C2049.78 5796.62 2051.67 5796.99 2052.17 5798.44L2078.21 5873.74C2078.71 5875.2 2077.45 5876.65 2075.94 5876.36L1997.71 5861.26C1996.19 5860.97 1995.57 5859.15 1996.57 5857.98L2048.77 5797.79ZM1812.5 5764.99C1813.51 5763.83 1815.39 5764.19 1815.9 5765.65L1841.93 5840.95C1842.44 5842.4 1841.18 5843.85 1839.66 5843.56L1761.43 5828.46C1759.92 5828.17 1759.29 5826.35 1760.3 5825.19L1812.5 5764.99ZM1576.22 5732.19C1577.23 5731.03 1579.12 5731.39 1579.63 5732.85L1605.66 5808.15C1606.16 5809.6 1604.9 5811.06 1603.39 5810.77L1525.16 5795.66C1523.65 5795.37 1523.02 5793.55 1524.03 5792.39L1576.22 5732.19ZM1339.95 5699.39C1340.96 5698.23 1342.85 5698.59 1343.35 5700.05L1369.39 5775.35C1369.89 5776.8 1368.63 5778.26 1367.12 5777.97L1288.89 5762.86C1287.38 5762.57 1286.75 5760.75 1287.76 5759.59L1339.95 5699.39ZM1973.21 5732.28C1974.22 5731.11 1976.11 5731.48 1976.62 5732.93L2002.65 5808.23C2003.15 5809.69 2001.89 5811.14 2000.38 5810.85L1922.15 5795.75C1920.64 5795.46 1920.01 5793.64 1921.02 5792.47L1973.21 5732.28ZM1736.94 5699.48C1737.95 5698.32 1739.84 5698.68 1740.34 5700.14L1766.38 5775.44C1766.88 5776.89 1765.62 5778.35 1764.11 5778.05L1685.88 5762.95C1684.37 5762.66 1683.74 5760.84 1684.75 5759.68L1736.94 5699.48ZM1500.67 5666.68C1501.68 5665.52 1503.57 5665.88 1504.07 5667.34L1530.11 5742.64C1530.61 5744.09 1529.35 5745.55 1527.84 5745.26L1449.61 5730.15C1448.1 5729.86 1447.47 5728.04 1448.48 5726.88L1500.67 5666.68ZM1264.4 5633.88C1265.41 5632.72 1267.3 5633.09 1267.8 5634.54L1293.84 5709.84C1294.34 5711.3 1293.08 5712.75 1291.57 5712.46L1213.34 5697.35C1211.82 5697.06 1211.2 5695.24 1212.2 5694.08L1264.4 5633.88ZM2133.93 5699.57C2134.94 5698.4 2136.83 5698.77 2137.33 5700.22L2163.37 5775.52C2163.87 5776.98 2162.61 5778.43 2161.1 5778.14L2082.87 5763.04C2081.36 5762.75 2080.73 5760.93 2081.74 5759.76L2133.93 5699.57ZM1897.66 5666.77C1898.67 5665.6 1900.56 5665.97 1901.06 5667.42L1927.1 5742.72C1927.6 5744.18 1926.34 5745.63 1924.83 5745.34L1846.6 5730.24C1845.09 5729.95 1844.46 5728.13 1845.46 5726.97L1897.66 5666.77ZM1661.39 5633.97C1662.4 5632.81 1664.29 5633.17 1664.79 5634.63L1690.82 5709.93C1691.33 5711.38 1690.07 5712.84 1688.56 5712.54L1610.33 5697.44C1608.81 5697.15 1608.18 5695.33 1609.19 5694.17L1661.39 5633.97ZM1425.12 5601.17C1426.12 5600.01 1428.01 5600.37 1428.52 5601.83L1454.55 5677.13C1455.06 5678.58 1453.8 5680.04 1452.28 5679.75L1374.05 5664.64C1372.54 5664.35 1371.91 5662.53 1372.92 5661.37L1425.12 5601.17ZM2058.38 5634.06C2059.38 5632.89 2061.27 5633.26 2061.78 5634.71L2087.81 5710.01C2088.32 5711.47 2087.06 5712.92 2085.54 5712.63L2007.31 5697.53C2005.8 5697.24 2005.17 5695.42 2006.18 5694.25L2058.38 5634.06ZM1822.11 5601.26C1823.11 5600.1 1825 5600.46 1825.51 5601.91L1851.54 5677.22C1852.04 5678.67 1850.78 5680.12 1849.27 5679.83L1771.04 5664.73C1769.53 5664.44 1768.9 5662.62 1769.91 5661.46L1822.11 5601.26ZM1585.83 5568.46C1586.84 5567.3 1588.73 5567.66 1589.23 5569.12L1615.27 5644.42C1615.77 5645.87 1614.51 5647.33 1613 5647.03L1534.77 5631.93C1533.26 5631.64 1532.63 5629.82 1533.64 5628.66L1585.83 5568.46ZM1349.56 5535.66C1350.57 5534.5 1352.46 5534.86 1352.96 5536.32L1379 5611.62C1379.5 5613.07 1378.24 5614.53 1376.73 5614.24L1298.5 5599.13C1296.99 5598.84 1296.36 5597.02 1297.37 5595.86L1349.56 5535.66ZM2219.09 5601.34C2220.1 5600.18 2221.99 5600.55 2222.49 5602L2248.53 5677.3C2249.03 5678.76 2247.77 5680.21 2246.26 5679.92L2168.03 5664.82C2166.52 5664.52 2165.89 5662.71 2166.9 5661.54L2219.09 5601.34ZM1982.82 5568.55C1983.83 5567.38 1985.72 5567.75 1986.22 5569.2L2012.26 5644.5C2012.76 5645.96 2011.5 5647.41 2009.99 5647.12L1931.76 5632.02C1930.25 5631.73 1929.62 5629.91 1930.63 5628.74L1982.82 5568.55ZM1746.55 5535.75C1747.56 5534.59 1749.45 5534.95 1749.95 5536.41L1775.99 5611.71C1776.49 5613.16 1775.23 5614.62 1773.72 5614.32L1695.49 5599.22C1693.98 5598.93 1693.35 5597.11 1694.36 5595.95L1746.55 5535.75ZM1510.28 5502.95C1511.29 5501.79 1513.18 5502.15 1513.68 5503.61L1539.71 5578.91C1540.22 5580.36 1538.96 5581.82 1537.45 5581.53L1459.22 5566.42C1457.7 5566.13 1457.08 5564.31 1458.08 5563.15L1510.28 5502.95ZM2143.54 5535.84C2144.55 5534.67 2146.44 5535.04 2146.94 5536.49L2172.98 5611.79C2173.48 5613.25 2172.22 5614.7 2170.71 5614.41L2092.48 5599.31C2090.96 5599.02 2090.34 5597.2 2091.34 5596.03L2143.54 5535.84ZM1907.27 5503.04C1908.28 5501.87 1910.17 5502.24 1910.67 5503.69L1936.7 5578.99C1937.21 5580.45 1935.95 5581.9 1934.43 5581.61L1856.2 5566.51C1854.69 5566.22 1854.06 5564.4 1855.07 5563.24L1907.27 5503.04ZM1671 5470.24C1672 5469.08 1673.89 5469.44 1674.4 5470.9L1700.43 5546.2C1700.94 5547.65 1699.67 5549.11 1698.16 5548.81L1619.93 5533.71C1618.42 5533.42 1617.79 5531.6 1618.8 5530.44L1671 5470.24ZM1434.72 5437.44C1435.73 5436.28 1437.62 5436.64 1438.13 5438.1L1464.16 5513.4C1464.66 5514.85 1463.4 5516.31 1461.89 5516.02L1383.66 5500.91C1382.15 5500.62 1381.52 5498.8 1382.53 5497.64L1434.72 5437.44ZM2304.26 5503.12C2305.26 5501.96 2307.15 5502.33 2307.66 5503.78L2333.69 5579.08C2334.2 5580.54 2332.93 5581.99 2331.42 5581.7L2253.19 5566.6C2251.68 5566.3 2251.05 5564.48 2252.06 5563.32L2304.26 5503.12ZM2067.98 5470.33C2068.99 5469.16 2070.88 5469.53 2071.38 5470.98L2097.42 5546.28C2097.92 5547.74 2096.66 5549.19 2095.15 5548.9L2016.92 5533.8C2015.41 5533.51 2014.78 5531.69 2015.79 5530.52L2067.98 5470.33ZM1831.71 5437.53C1832.72 5436.36 1834.61 5436.73 1835.11 5438.18L1861.15 5513.48C1861.65 5514.94 1860.39 5516.39 1858.88 5516.1L1780.65 5501C1779.14 5500.71 1778.51 5498.89 1779.52 5497.72L1831.71 5437.53ZM1595.44 5404.73C1596.45 5403.57 1598.34 5403.93 1598.84 5405.39L1624.88 5480.69C1625.38 5482.14 1624.12 5483.6 1622.61 5483.3L1544.38 5468.2C1542.87 5467.91 1542.24 5466.09 1543.25 5464.93L1595.44 5404.73ZM2228.7 5437.61C2229.71 5436.45 2231.6 5436.82 2232.1 5438.27L2258.14 5513.57C2258.64 5515.03 2257.38 5516.48 2255.87 5516.19L2177.64 5501.09C2176.13 5500.79 2175.5 5498.97 2176.51 5497.81L2228.7 5437.61ZM1992.43 5404.82C1993.44 5403.65 1995.33 5404.02 1995.83 5405.47L2021.87 5480.77C2022.37 5482.23 2021.11 5483.68 2019.6 5483.39L1941.37 5468.29C1939.86 5468 1939.23 5466.18 1940.24 5465.01L1992.43 5404.82ZM1756.16 5372.02C1757.17 5370.86 1759.06 5371.22 1759.56 5372.68L1785.59 5447.98C1786.1 5449.43 1784.84 5450.88 1783.33 5450.59L1705.1 5435.49C1703.58 5435.2 1702.96 5433.38 1703.96 5432.22L1756.16 5372.02ZM1519.89 5339.22C1520.89 5338.06 1522.78 5338.42 1523.29 5339.88L1549.32 5415.18C1549.83 5416.63 1548.57 5418.09 1547.05 5417.79L1468.82 5402.69C1467.31 5402.4 1466.68 5400.58 1467.69 5399.42L1519.89 5339.22ZM2389.42 5404.9C2390.43 5403.74 2392.32 5404.1 2392.82 5405.56L2418.86 5480.86C2419.36 5482.31 2418.1 5483.77 2416.59 5483.48L2338.36 5468.37C2336.84 5468.08 2336.22 5466.26 2337.22 5465.1L2389.42 5404.9ZM2153.15 5372.1C2154.15 5370.94 2156.04 5371.31 2156.55 5372.76L2182.58 5448.06C2183.09 5449.52 2181.83 5450.97 2180.31 5450.68L2102.08 5435.58C2100.57 5435.29 2099.94 5433.47 2100.95 5432.3L2153.15 5372.1ZM1916.87 5339.31C1917.88 5338.14 1919.77 5338.51 1920.28 5339.96L1946.31 5415.26C1946.81 5416.72 1945.55 5418.17 1944.04 5417.88L1865.81 5402.78C1864.3 5402.49 1863.67 5400.67 1864.68 5399.5L1916.87 5339.31ZM1680.6 5306.51C1681.61 5305.35 1683.5 5305.71 1684 5307.16L1710.04 5382.47C1710.54 5383.92 1709.28 5385.37 1707.77 5385.08L1629.54 5369.98C1628.03 5369.69 1627.4 5367.87 1628.41 5366.71L1680.6 5306.51ZM2313.86 5339.39C2314.87 5338.23 2316.76 5338.59 2317.27 5340.05L2343.3 5415.35C2343.8 5416.81 2342.54 5418.26 2341.03 5417.97L2262.8 5402.86C2261.29 5402.57 2260.66 5400.75 2261.67 5399.59L2313.86 5339.39ZM2077.59 5306.59C2078.6 5305.43 2080.49 5305.8 2080.99 5307.25L2107.03 5382.55C2107.53 5384.01 2106.27 5385.46 2104.76 5385.17L2026.53 5370.07C2025.02 5369.77 2024.39 5367.96 2025.4 5366.79L2077.59 5306.59ZM1841.32 5273.8C1842.33 5272.63 1844.22 5273 1844.72 5274.45L1870.76 5349.75C1871.26 5351.21 1870 5352.66 1868.49 5352.37L1790.26 5337.27C1788.75 5336.98 1788.12 5335.16 1789.13 5333.99L1841.32 5273.8ZM1605.05 5241C1606.06 5239.84 1607.95 5240.2 1608.45 5241.66L1634.49 5316.96C1634.99 5318.41 1633.73 5319.87 1632.22 5319.57L1553.99 5304.47C1552.47 5304.18 1551.85 5302.36 1552.85 5301.2L1605.05 5241ZM2474.58 5306.68C2475.59 5305.52 2477.48 5305.88 2477.98 5307.34L2504.02 5382.64C2504.52 5384.09 2503.26 5385.55 2501.75 5385.26L2423.52 5370.15C2422.01 5369.86 2421.38 5368.04 2422.39 5366.88L2474.58 5306.68ZM2238.31 5273.88C2239.32 5272.72 2241.21 5273.09 2241.71 5274.54L2267.75 5349.84C2268.25 5351.3 2266.99 5352.75 2265.48 5352.46L2187.25 5337.36C2185.73 5337.06 2185.11 5335.24 2186.11 5334.08L2238.31 5273.88ZM2002.04 5241.09C2003.05 5239.92 2004.93 5240.29 2005.44 5241.74L2031.47 5317.04C2031.98 5318.5 2030.72 5319.95 2029.2 5319.66L1950.97 5304.56C1949.46 5304.27 1948.83 5302.45 1949.84 5301.28L2002.04 5241.09ZM1765.77 5208.29C1766.77 5207.12 1768.66 5207.49 1769.17 5208.94L1795.2 5284.25C1795.7 5285.7 1794.44 5287.15 1792.93 5286.86L1714.7 5271.76C1713.19 5271.47 1712.56 5269.65 1713.57 5268.49L1765.77 5208.29ZM2399.03 5241.17C2400.03 5240.01 2401.92 5240.37 2402.43 5241.83L2428.46 5317.13C2428.97 5318.58 2427.7 5320.04 2426.19 5319.75L2347.96 5304.64C2346.45 5304.35 2345.82 5302.53 2346.83 5301.37L2399.03 5241.17ZM2162.75 5208.37C2163.76 5207.21 2165.65 5207.58 2166.16 5209.03L2192.19 5284.33C2192.69 5285.79 2191.43 5287.24 2189.92 5286.95L2111.69 5271.85C2110.18 5271.55 2109.55 5269.74 2110.56 5268.57L2162.75 5208.37ZM1926.48 5175.58C1927.49 5174.41 1929.38 5174.78 1929.88 5176.23L1955.92 5251.53C1956.42 5252.99 1955.16 5254.44 1953.65 5254.15L1875.42 5239.05C1873.91 5238.76 1873.28 5236.94 1874.29 5235.77L1926.48 5175.58ZM1690.21 5142.78C1691.22 5141.62 1693.11 5141.98 1693.61 5143.43L1719.65 5218.73C1720.15 5220.19 1718.89 5221.64 1717.38 5221.35L1639.15 5206.25C1637.64 5205.96 1637.01 5204.14 1638.02 5202.98L1690.21 5142.78ZM2559.74 5208.46C2560.75 5207.3 2562.64 5207.66 2563.14 5209.12L2589.18 5284.42C2589.68 5285.87 2588.42 5287.33 2586.91 5287.04L2508.68 5271.93C2507.17 5271.64 2506.54 5269.82 2507.55 5268.66L2559.74 5208.46ZM2323.47 5175.66C2324.48 5174.5 2326.37 5174.86 2326.87 5176.32L2352.91 5251.62C2353.41 5253.07 2352.15 5254.53 2350.64 5254.24L2272.41 5239.13C2270.9 5238.84 2270.27 5237.02 2271.28 5235.86L2323.47 5175.66ZM2087.2 5142.86C2088.21 5141.7 2090.1 5142.07 2090.6 5143.52L2116.64 5218.82C2117.14 5220.28 2115.88 5221.73 2114.37 5221.44L2036.14 5206.34C2034.63 5206.04 2034 5204.23 2035 5203.06L2087.2 5142.86ZM1850.93 5110.07C1851.94 5108.9 1853.83 5109.27 1854.33 5110.72L1880.36 5186.02C1880.87 5187.48 1879.61 5188.93 1878.1 5188.64L1799.87 5173.54C1798.35 5173.25 1797.73 5171.43 1798.73 5170.26L1850.93 5110.07ZM2484.19 5142.95C2485.2 5141.79 2487.09 5142.15 2487.59 5143.61L2513.62 5218.91C2514.13 5220.36 2512.87 5221.82 2511.36 5221.53L2433.13 5206.42C2431.61 5206.13 2430.99 5204.31 2431.99 5203.15L2484.19 5142.95ZM2247.92 5110.15C2248.93 5108.99 2250.82 5109.36 2251.32 5110.81L2277.35 5186.11C2277.86 5187.57 2276.6 5189.02 2275.08 5188.73L2196.85 5173.62C2195.34 5173.33 2194.71 5171.51 2195.72 5170.35L2247.92 5110.15ZM2011.65 5077.36C2012.65 5076.19 2014.54 5076.56 2015.05 5078.01L2041.08 5153.31C2041.58 5154.77 2040.32 5156.22 2038.81 5155.93L1960.58 5140.83C1959.07 5140.54 1958.44 5138.72 1959.45 5137.55L2011.65 5077.36ZM1775.37 5044.56C1776.38 5043.39 1778.27 5043.76 1778.77 5045.21L1804.81 5120.51C1805.31 5121.97 1804.05 5123.42 1802.54 5123.13L1724.31 5108.03C1722.8 5107.74 1722.17 5105.92 1723.18 5104.75L1775.37 5044.56ZM2408.63 5077.44C2409.64 5076.28 2411.53 5076.64 2412.03 5078.1L2438.07 5153.4C2438.57 5154.85 2437.31 5156.31 2435.8 5156.02L2357.57 5140.91C2356.06 5140.62 2355.43 5138.8 2356.44 5137.64L2408.63 5077.44ZM2172.36 5044.64C2173.37 5043.48 2175.26 5043.85 2175.76 5045.3L2201.8 5120.6C2202.3 5122.06 2201.04 5123.51 2199.53 5123.22L2121.3 5108.11C2119.79 5107.82 2119.16 5106 2120.17 5104.84L2172.36 5044.64ZM1936.09 5011.85C1937.1 5010.68 1938.99 5011.05 1939.49 5012.5L1965.53 5087.8C1966.03 5089.26 1964.77 5090.71 1963.26 5090.42L1885.03 5075.32C1883.52 5075.03 1882.89 5073.21 1883.9 5072.04L1936.09 5011.85ZM2333.08 5011.93C2334.09 5010.77 2335.98 5011.13 2336.48 5012.59L2362.52 5087.89C2363.02 5089.34 2361.76 5090.8 2360.25 5090.51L2282.02 5075.4C2280.5 5075.11 2279.88 5073.29 2280.88 5072.13L2333.08 5011.93ZM2096.81 4979.13C2097.82 4977.97 2099.71 4978.34 2100.21 4979.79L2126.24 5055.09C2126.75 5056.55 2125.49 5058 2123.97 5057.71L2045.75 5042.61C2044.23 5042.31 2043.6 5040.49 2044.61 5039.33L2096.81 4979.13ZM1860.54 4946.34C1861.54 4945.17 1863.43 4945.54 1863.94 4946.99L1889.97 5022.29C1890.48 5023.75 1889.21 5025.2 1887.7 5024.91L1809.47 5009.81C1807.96 5009.52 1807.33 5007.7 1808.34 5006.53L1860.54 4946.34ZM2257.52 4946.42C2258.53 4945.26 2260.42 4945.62 2260.93 4947.08L2286.96 5022.38C2287.46 5023.83 2286.2 5025.29 2284.69 5025L2206.46 5009.89C2204.95 5009.6 2204.32 5007.78 2205.33 5006.62L2257.52 4946.42ZM2021.25 4913.62C2022.26 4912.46 2024.15 4912.83 2024.65 4914.28L2050.69 4989.58C2051.19 4991.04 2049.93 4992.49 2048.42 4992.2L1970.19 4977.1C1968.68 4976.8 1968.05 4974.99 1969.06 4973.82L2021.25 4913.62ZM2181.97 4880.91C2182.98 4879.75 2184.87 4880.11 2185.37 4881.57L2211.41 4956.87C2211.91 4958.32 2210.65 4959.78 2209.14 4959.49L2130.91 4944.38C2129.4 4944.09 2128.77 4942.27 2129.78 4941.11L2181.97 4880.91ZM1945.7 4848.11C1946.71 4846.95 1948.6 4847.32 1949.1 4848.77L1975.13 4924.07C1975.64 4925.53 1974.38 4926.98 1972.87 4926.69L1894.64 4911.59C1893.12 4911.29 1892.5 4909.48 1893.5 4908.31L1945.7 4848.11ZM2106.41 4815.4C2107.42 4814.24 2109.31 4814.61 2109.82 4816.06L2135.85 4891.36C2136.35 4892.82 2135.09 4894.27 2133.58 4893.98L2055.35 4878.88C2053.84 4878.58 2053.21 4876.76 2054.22 4875.6L2106.41 4815.4ZM2030.86 4749.89C2031.87 4748.73 2033.76 4749.1 2034.26 4750.55L2060.3 4825.85C2060.8 4827.31 2059.54 4828.76 2058.03 4828.47L1979.8 4813.37C1978.29 4813.07 1977.66 4811.26 1978.67 4810.09L2030.86 4749.89Z"
              fill="url(#paint1_linear_517_3951)"/>
        <path d="M-86.4212 3099.73C-124.053 3091.64 -156.323 3127.33 -144.509 3163.96L369.006 4756.11C380.82 4792.74 427.86 4802.85 453.676 4774.3L1575.76 3533.51C1601.58 3504.96 1586.81 3459.17 1549.18 3451.09L-86.4212 3099.73Z"
              fill="url(#paint2_linear_517_3951)"/>
    </g>
    <defs>
        <linearGradient id="paint0_linear_517_3951" x1="-26.1926" y1="-23.1605" x2="751.5" y2="445"
                        gradientUnits="userSpaceOnUse">
            <stop offset="0.120557" stop-color="#99FFF0"/>
            <stop offset="0.373864" stop-color="#1A6358"/>
            <stop offset="1" stop-color="#020E0C"/>
        </linearGradient>
        <linearGradient id="paint1_linear_517_3951" x1="1283.11" y1="5020.47" x2="2186.15" y2="5608.3"
                        gradientUnits="userSpaceOnUse">
            <stop offset="0.402872" stop-color="#020E0C"/>
            <stop offset="0.675989" stop-color="#1A6358"/>
            <stop offset="1" stop-color="#99FFF0"/>
        </linearGradient>
        <linearGradient id="paint2_linear_517_3951" x1="-147.097" y1="3072.75" x2="1144.96" y2="4149.74"
                        gradientUnits="userSpaceOnUse">
            <stop stop-color="#99FFF0"/>
            <stop offset="0.508818" stop-color="#1A6358"/>
            <stop offset="0.883765" stop-color="#020E0C"/>
        </linearGradient>
        <clipPath id="clip0_517_3951">
            <rect width="1920" height="6121" fill="white"/>
        </clipPath>
    </defs>
</svg>
