<?xml version="1.0" encoding="utf-8"?>
<!-- Generator: Adobe Illustrator 21.1.0, SVG Export Plug-In . SVG Version: 6.00 Build 0)  -->
<svg version="1.1" id="Layer_1" xmlns="http://www.w3.org/2000/svg" xmlns:xlink="http://www.w3.org/1999/xlink" x="0px" y="0px"
	 viewBox="0 0 1000 7064" style="enable-background:new 0 0 1000 7064;" xml:space="preserve">
<style type="text/css">
	.st0{clip-path:url(#SVGID_2_);}
	.st1{fill:none;}
	.st2{fill:url(#SVGID_3_);}
	.st3{fill:url(#SVGID_4_);}
</style>
<g>
	<defs>
		<rect id="SVGID_1_" width="1000" height="7064"/>
	</defs>
	<clipPath id="SVGID_2_">
		<use xlink:href="#SVGID_1_"  style="overflow:visible;"/>
	</clipPath>
	<g class="st0">
		<rect class="st1" width="1000" height="7064"/>
		
			<linearGradient id="SVGID_3_" gradientUnits="userSpaceOnUse" x1="-125.4807" y1="6922.2266" x2="652.2119" y2="6454.0659" gradientTransform="matrix(1 0 0 -1 0 7064)">
			<stop  offset="0.1206" style="stop-color:#99FFF0"/>
			<stop  offset="0.3739" style="stop-color:#1A6358"/>
			<stop  offset="1" style="stop-color:#020E0C"/>
		</linearGradient>
		<path class="st2" d="M342.5-278.5c-0.4-1.5,1-2.8,2.4-2.4l77,20.6c1.5,0.4,2,2.3,0.9,3.3l-56.3,56.3c-1.1,1.1-2.9,0.6-3.3-0.9
			L342.5-278.5z M250.6-186.6c-0.4-1.5,1-2.8,2.4-2.4l77,20.6c1.5,0.4,2,2.3,0.9,3.3l-56.3,56.3c-1.1,1.1-2.9,0.6-3.3-0.9
			L250.6-186.6z M161.1-97.1c-1.5-0.4-2.8,1-2.4,2.4l20.6,77c0.4,1.5,2.3,2,3.3,0.9l56.3-56.3c1.1-1.1,0.6-2.9-0.9-3.3L161.1-97.1z
			 M66.7-2.8c-0.4-1.5,1-2.8,2.4-2.4l77,20.6c1.5,0.4,2,2.3,0.9,3.3L90.7,75.1c-1.1,1.1-2.9,0.6-3.3-0.9L66.7-2.8z M-22.8,86.7
			c-1.5-0.4-2.8,1-2.4,2.4l20.6,77c0.4,1.5,2.3,2,3.3,0.9l56.3-56.3c1.1-1.1,0.6-2.9-0.9-3.3L-22.8,86.7z M-117.1,181.1
			c-0.4-1.5,1-2.8,2.4-2.4l77,20.6c1.5,0.4,2,2.3,0.9,3.3l-56.3,56.3c-1.1,1.1-2.9,0.6-3.3-0.9L-117.1,181.1z M-206.6,270.6
			c-1.5-0.4-2.8,1-2.4,2.4l20.6,77c0.4,1.5,2.3,2,3.3,0.9l56.3-56.3c1.1-1.1,0.6-2.9-0.9-3.3L-206.6,270.6z M-301,364.9
			c-0.4-1.5,1-2.8,2.4-2.4l77,20.6c1.5,0.4,2,2.3,0.9,3.3l-56.3,56.3c-1.1,1.1-2.9,0.6-3.3-0.9L-301,364.9z M415.7-210.3
			c-1.5-0.4-2.8,1-2.5,2.5l20.6,77c0.4,1.5,2.3,2,3.3,0.9l56.3-56.3c1.1-1.1,0.6-2.9-0.9-3.3L415.7-210.3z M321.3-115.9
			c-0.4-1.5,1-2.8,2.4-2.5l77,20.6c1.5,0.4,2,2.3,0.9,3.3L345.2-38c-1.1,1.1-2.9,0.6-3.3-0.9L321.3-115.9z M231.8-26.4
			c-1.5-0.4-2.8,1-2.4,2.4L250,53c0.4,1.5,2.3,2,3.3,0.9l56.3-56.3c1.1-1.1,0.6-2.9-0.9-3.3L231.8-26.4z M137.4,68
			c-0.4-1.5,1-2.8,2.4-2.4l77,20.6c1.5,0.4,2,2.3,0.9,3.3l-56.3,56.3c-1.1,1.1-2.9,0.6-3.3-0.9L137.4,68z M48,157.4
			c-1.5-0.4-2.8,1-2.4,2.4l20.6,77c0.4,1.5,2.3,2,3.3,0.9l56.3-56.3c1.1-1.1,0.6-2.9-0.9-3.3L48,157.4z M-46.4,251.8
			c-0.4-1.5,1-2.8,2.4-2.4L33,270c1.5,0.4,2,2.3,0.9,3.3l-56.3,56.3c-1.1,1.1-2.9,0.6-3.3-0.9L-46.4,251.8z M-135.9,341.3
			c-1.5-0.4-2.8,1-2.4,2.4l20.6,77c0.4,1.5,2.3,2,3.3,0.9l56.3-56.3c1.1-1.1,0.6-2.9-0.9-3.3L-135.9,341.3z M-230.3,435.7
			c-0.4-1.5,1-2.8,2.5-2.5l77,20.6c1.5,0.4,2,2.3,0.9,3.3l-56.3,56.3c-1.1,1.1-2.9,0.6-3.3-0.9L-230.3,435.7z M486.4-139.6
			c-1.5-0.4-2.8,1-2.4,2.4l20.6,77c0.4,1.5,2.3,2,3.3,0.9l56.3-56.3c1.1-1.1,0.6-2.9-0.9-3.3L486.4-139.6z M392-45.2
			c-0.4-1.5,1-2.8,2.4-2.4l77,20.6c1.5,0.4,2,2.3,0.9,3.3L416,32.7c-1.1,1.1-2.9,0.6-3.3-0.9L392-45.2z M302.5,44.3
			c-1.5-0.4-2.8,1-2.5,2.4l20.6,77c0.4,1.5,2.3,2,3.3,0.9l56.3-56.3c1.1-1.1,0.6-2.9-0.9-3.3L302.5,44.3z M208.1,138.7
			c-0.4-1.5,1-2.8,2.4-2.4l77,20.6c1.5,0.4,2,2.3,0.9,3.3l-56.3,56.3c-1.1,1.1-2.9,0.6-3.3-0.9L208.1,138.7z M118.7,228.1
			c-1.5-0.4-2.8,1-2.4,2.4l20.6,77c0.4,1.5,2.3,2,3.3,0.9l56.3-56.3c1.1-1.1,0.6-2.9-0.9-3.3L118.7,228.1z M24.3,322.5
			c-0.4-1.5,1-2.8,2.4-2.5l77,20.6c1.5,0.4,2,2.3,0.9,3.3l-56.3,56.3c-1.1,1.1-2.9,0.6-3.3-0.9L24.3,322.5z M-65.2,412
			c-1.5-0.4-2.8,1-2.4,2.4l20.6,77c0.4,1.5,2.3,2,3.3,0.9L12.7,436c1.1-1.1,0.6-2.9-0.9-3.3L-65.2,412z M-159.6,506.4
			c-0.4-1.5,1-2.8,2.4-2.5l77,20.6c1.5,0.4,2,2.3,0.9,3.3l-56.3,56.3c-1.1,1.1-2.9,0.6-3.3-0.9L-159.6,506.4z M557.1-68.8
			c-1.5-0.4-2.8,1-2.4,2.4l20.6,77c0.4,1.5,2.3,2,3.3,0.9l56.3-56.3c1.1-1.1,0.6-2.9-0.9-3.3L557.1-68.8z M462.7,25.5
			c-0.4-1.5,1-2.8,2.4-2.4l77,20.6c1.5,0.4,2,2.3,0.9,3.3l-56.3,56.3c-1.1,1.1-2.9,0.6-3.3-0.9L462.7,25.5z M373.2,115
			c-1.5-0.4-2.8,1-2.4,2.5l20.6,77c0.4,1.5,2.3,2,3.3,0.9l56.3-56.3c1.1-1.1,0.6-2.9-0.9-3.3L373.2,115z M278.9,209.4
			c-0.4-1.5,1-2.8,2.4-2.4l77,20.6c1.5,0.4,2,2.3,0.9,3.3l-56.3,56.3c-1.1,1.1-2.9,0.6-3.3-0.9L278.9,209.4z M189.4,298.9
			c-1.5-0.4-2.8,1-2.4,2.4l20.6,77c0.4,1.5,2.3,2,3.3,0.9l56.3-56.3c1.1-1.1,0.6-2.9-0.9-3.3L189.4,298.9z M95,393.2
			c-0.4-1.5,1-2.8,2.4-2.4l77,20.6c1.5,0.4,2,2.3,0.9,3.3L119,471.1c-1.1,1.1-2.9,0.6-3.3-0.9L95,393.2z M5.5,482.7
			c-1.5-0.4-2.8,1-2.4,2.4l20.6,77c0.4,1.5,2.3,2,3.3,0.9l56.3-56.3c1.1-1.1,0.6-2.9-0.9-3.3L5.5,482.7z M-88.8,577.1
			c-0.4-1.5,1-2.8,2.4-2.4l77,20.6c1.5,0.4,2,2.3,0.9,3.3l-56.3,56.3c-1.1,1.1-2.9,0.6-3.3-0.9L-88.8,577.1z M719.7-90.1
			c-1.5-0.4-2.8,1-2.4,2.4l20.6,77c0.4,1.5,2.3,2,3.3,0.9l56.3-56.3c1.1-1.1,0.6-2.9-0.9-3.3L719.7-90.1z M625.3,4.3
			c-0.4-1.5,1-2.8,2.5-2.4l77,20.6c1.5,0.4,2,2.3,0.9,3.3l-56.3,56.3c-1.1,1.1-2.9,0.6-3.3-0.9L625.3,4.3z M535.9,93.8
			c-1.5-0.4-2.8,1-2.5,2.4l20.6,77c0.4,1.5,2.3,2,3.3,0.9l56.3-56.3c1.1-1.1,0.6-2.9-0.9-3.3L535.9,93.8z M441.5,188.2
			c-0.4-1.5,1-2.8,2.5-2.4l77,20.6c1.5,0.4,2,2.3,0.9,3.3L465.5,266c-1.1,1.1-2.9,0.6-3.3-0.9L441.5,188.2z M352,277.6
			c-1.5-0.4-2.8,1-2.4,2.4l20.6,77c0.4,1.5,2.3,2,3.3,0.9l56.3-56.3c1.1-1.1,0.6-2.9-0.9-3.3L352,277.6z M257.6,372
			c-0.4-1.5,1-2.8,2.4-2.4l77,20.6c1.5,0.4,2,2.3,0.9,3.3l-56.3,56.3c-1.1,1.1-2.9,0.6-3.3-0.9L257.6,372z M168.2,461.5
			c-1.5-0.4-2.8,1-2.4,2.4l20.6,77c0.4,1.5,2.3,2,3.3,0.9l56.3-56.3c1.1-1.1,0.6-2.9-0.9-3.3L168.2,461.5z M73.8,555.9
			c-0.4-1.5,1-2.8,2.4-2.4l77,20.6c1.5,0.4,2,2.3,0.9,3.3l-56.3,56.3c-1.1,1.1-2.9,0.6-3.3-0.9L73.8,555.9z M-15.7,645.3
			c-1.5-0.4-2.8,1-2.4,2.5l20.6,77c0.4,1.5,2.3,2,3.3,0.9l56.3-56.3c1.1-1.1,0.6-2.9-0.9-3.3L-15.7,645.3z M-110.1,739.7
			c-0.4-1.5,1-2.8,2.4-2.4l77,20.6c1.5,0.4,2,2.3,0.9,3.3l-56.3,56.3c-1.1,1.1-2.9,0.6-3.3-0.9L-110.1,739.7z M882.3-111.3
			c-1.5-0.4-2.8,1-2.4,2.5l20.6,77c0.4,1.5,2.3,2,3.3,0.9l56.3-56.3c1.1-1.1,0.6-2.9-0.9-3.3L882.3-111.3z M788-16.9
			c-0.4-1.5,1-2.8,2.4-2.4l77,20.6c1.5,0.4,2,2.3,0.9,3.3L811.9,61c-1.1,1.1-2.9,0.6-3.3-0.9L788-16.9z M698.5,72.6
			c-1.5-0.4-2.8,1-2.4,2.4l20.6,77c0.4,1.5,2.3,2,3.3,0.9l56.3-56.3c1.1-1.1,0.6-2.9-0.9-3.3L698.5,72.6z M604.1,166.9
			c-0.4-1.5,1-2.8,2.5-2.4l77,20.6c1.5,0.4,2,2.3,0.9,3.3l-56.3,56.3c-1.1,1.1-2.9,0.6-3.3-0.9L604.1,166.9z M514.6,256.4
			c-1.5-0.4-2.8,1-2.5,2.4l20.6,77c0.4,1.5,2.3,2,3.3,0.9l56.3-56.3c1.1-1.1,0.6-2.9-0.9-3.3L514.6,256.4z M420.3,350.8
			c-0.4-1.5,1-2.8,2.4-2.4l77,20.6c1.5,0.4,2,2.3,0.9,3.3l-56.3,56.3c-1.1,1.1-2.9,0.6-3.3-0.9L420.3,350.8z M330.8,440.3
			c-1.5-0.4-2.8,1-2.5,2.4l20.6,77c0.4,1.5,2.3,2,3.3,0.9l56.3-56.3c1.1-1.1,0.6-2.9-0.9-3.3L330.8,440.3z M236.4,534.6
			c-0.4-1.5,1-2.8,2.4-2.5l77,20.6c1.5,0.4,2,2.3,0.9,3.3l-56.3,56.3c-1.1,1.1-2.9,0.6-3.3-0.9L236.4,534.6z M146.9,624.1
			c-1.5-0.4-2.8,1-2.4,2.5l20.6,77c0.4,1.5,2.3,2,3.3,0.9l56.3-56.3c1.1-1.1,0.6-2.9-0.9-3.3L146.9,624.1z M52.6,718.5
			c-0.4-1.5,1-2.8,2.4-2.5l77,20.6c1.5,0.4,2,2.3,0.9,3.3l-56.3,56.3c-1.1,1.1-2.9,0.6-3.3-0.9L52.6,718.5z M-36.9,808
			c-1.5-0.4-2.8,1-2.4,2.5l20.6,77c0.4,1.5,2.3,2,3.3,0.9L41,831.9c1.1-1.1,0.6-2.9-0.9-3.3L-36.9,808z M-131.3,902.3
			c-0.4-1.5,1-2.8,2.4-2.4l77,20.6c1.5,0.4,2,2.3,0.9,3.3l-56.3,56.3c-1.1,1.1-2.9,0.6-3.3-0.9L-131.3,902.3z M1045-132.5
			c-1.5-0.4-2.8,1-2.4,2.4l20.6,77c0.4,1.5,2.3,2,3.3,0.9l56.3-56.3c1.1-1.1,0.6-2.9-0.9-3.3L1045-132.5z M950.6-38.1
			c-0.4-1.5,1-2.8,2.5-2.4l77,20.6c1.5,0.4,2,2.3,0.9,3.3l-56.3,56.3c-1.1,1.1-2.9,0.6-3.3-0.9L950.6-38.1z M861.1,51.4
			c-1.5-0.4-2.8,1-2.5,2.4l20.6,77c0.4,1.5,2.3,2,3.3,0.9L939,75.3c1.1-1.1,0.6-2.9-0.9-3.3L861.1,51.4z M766.8,145.7
			c-0.4-1.5,1-2.8,2.4-2.4l77,20.6c1.5,0.4,2,2.3,0.9,3.3l-56.3,56.3c-1.1,1.1-2.9,0.6-3.3-0.9L766.8,145.7z M677.3,235.2
			c-1.5-0.4-2.8,1-2.4,2.4l20.6,77c0.4,1.5,2.3,2,3.3,0.9l56.3-56.3c1.1-1.1,0.6-2.9-0.9-3.3L677.3,235.2z M582.9,329.6
			c-0.4-1.5,1-2.8,2.4-2.4l77,20.6c1.5,0.4,2,2.3,0.9,3.3l-56.3,56.3c-1.1,1.1-2.9,0.6-3.3-0.9L582.9,329.6z M493.4,419.1
			c-1.5-0.4-2.8,1-2.4,2.5l20.6,77c0.4,1.5,2.3,2,3.3,0.9l56.3-56.3c1.1-1.1,0.6-2.9-0.9-3.3L493.4,419.1z M399.1,513.4
			c-0.4-1.5,1-2.8,2.5-2.4l77,20.6c1.5,0.4,2,2.3,0.9,3.3L423,591.3c-1.1,1.1-2.9,0.6-3.3-0.9L399.1,513.4z M309.6,602.9
			c-1.5-0.4-2.8,1-2.4,2.4l20.6,77c0.4,1.5,2.3,2,3.3,0.9l56.3-56.3c1.1-1.1,0.6-2.9-0.9-3.3L309.6,602.9z M215.2,697.3
			c-0.4-1.5,1-2.8,2.4-2.4l77,20.6c1.5,0.4,2,2.3,0.9,3.3l-56.3,56.3c-1.1,1.1-2.9,0.6-3.3-0.9L215.2,697.3z M125.7,786.8
			c-1.5-0.4-2.8,1-2.4,2.4l20.6,77c0.4,1.5,2.3,2,3.3,0.9l56.3-56.3c1.1-1.1,0.6-2.9-0.9-3.3L125.7,786.8z M31.4,881.1
			c-0.4-1.5,1-2.8,2.4-2.4l77,20.6c1.5,0.4,2,2.3,0.9,3.3L55.3,959c-1.1,1.1-2.9,0.6-3.3-0.9L31.4,881.1z M-58.1,970.6
			c-1.5-0.4-2.8,1-2.4,2.4l20.6,77c0.4,1.5,2.3,2,3.3,0.9l56.3-56.3c1.1-1.1,0.6-2.9-0.9-3.3L-58.1,970.6z M-152.5,1065
			c-0.4-1.5,1-2.8,2.4-2.4l77,20.6c1.5,0.4,2,2.3,0.9,3.3l-56.3,56.3c-1.1,1.1-2.9,0.6-3.3-0.9L-152.5,1065z"/>
	</g>
	<g class="st0">
		
			<rect x="-3121" y="-985.4" transform="matrix(4.378657e-03 -1 1 4.378657e-03 894.6166 -72.3255)" class="st1" width="7064" height="1000"/>
		
			<linearGradient id="SVGID_4_" gradientUnits="userSpaceOnUse" x1="-240.1976" y1="-3042.6829" x2="1131.0386" y2="-3868.1484" gradientTransform="matrix(-1 -4.378657e-03 4.378657e-03 -1 999.8745 -686.8574)">
			<stop  offset="0.1206" style="stop-color:#99FFF0"/>
			<stop  offset="0.3739" style="stop-color:#1A6358"/>
			<stop  offset="1" style="stop-color:#020E0C"/>
		</linearGradient>
		<path class="st3" d="M551.8,3325.7c0.4,1.5-1,2.8-2.5,2.4l-76.9-21c-1.5-0.4-2-2.3-0.9-3.3l56.6-56.1c1.1-1.1,3-0.6,3.3,0.9
			L551.8,3325.7z M644.1,3234.2c0.4,1.5-1,2.8-2.5,2.4l-76.9-21c-1.5-0.4-2-2.3-0.9-3.3l56.6-56.1c1.1-1.1,3-0.6,3.3,0.9
			L644.1,3234.2z M734,3145.1c1.5,0.4,2.9-0.9,2.5-2.4l-20.3-77c-0.4-1.5-2.2-2-3.3-0.9l-56.6,56.1c-1.1,1.1-0.6,2.9,0.9,3.3
			L734,3145.1z M828.8,3051.2c0.4,1.5-1,2.8-2.5,2.4l-76.9-21c-1.5-0.4-2-2.3-0.9-3.3l56.6-56.1c1.1-1.1,3-0.6,3.3,0.9L828.8,3051.2
			z M918.7,2962.1c1.5,0.4,2.9-0.9,2.5-2.4l-20.3-77c-0.4-1.5-2.2-2-3.3-0.9l-56.6,56.1c-1.1,1.1-0.6,2.9,0.9,3.4L918.7,2962.1z
			 M1013.4,2868.1c0.4,1.5-1,2.8-2.5,2.4l-76.9-21c-1.5-0.4-2-2.3-0.9-3.3l56.6-56.1c1.1-1.1,3-0.6,3.3,0.9L1013.4,2868.1z
			 M1103.3,2779.1c1.5,0.4,2.9-0.9,2.5-2.4l-20.3-77c-0.4-1.5-2.2-2-3.3-0.9l-56.6,56.1c-1.1,1.1-0.6,2.9,0.9,3.3L1103.3,2779.1z
			 M1198.1,2685.1c0.4,1.5-1,2.8-2.5,2.4l-76.9-21c-1.5-0.4-2-2.3-0.9-3.3l56.6-56.1c1.1-1.1,3-0.6,3.3,0.9L1198.1,2685.1z
			 M478.9,3257.2c1.5,0.4,2.9-1,2.5-2.4l-20.3-77c-0.4-1.5-2.2-2-3.3-0.9l-56.6,56.1c-1.1,1.1-0.6,2.9,0.9,3.4L478.9,3257.2z
			 M573.7,3163.2c0.4,1.5-1,2.8-2.5,2.4l-76.9-21c-1.5-0.4-2-2.3-0.9-3.4l56.6-56.1c1.1-1.1,3-0.6,3.3,0.9L573.7,3163.2z
			 M663.6,3074.1c1.5,0.4,2.9-0.9,2.5-2.4l-20.3-77c-0.4-1.5-2.2-2-3.3-0.9l-56.6,56.1c-1.1,1.1-0.6,2.9,0.9,3.4L663.6,3074.1z
			 M758.4,2980.2c0.4,1.5-1,2.8-2.5,2.4l-76.9-21c-1.5-0.4-2-2.3-0.9-3.4l56.6-56.1c1.1-1.1,3-0.6,3.3,0.9L758.4,2980.2z
			 M848.3,2891.1c1.5,0.4,2.9-0.9,2.5-2.4l-20.3-77c-0.4-1.5-2.2-2-3.3-0.9l-56.6,56.1c-1.1,1.1-0.6,2.9,0.9,3.3L848.3,2891.1z
			 M943,2797.1c0.4,1.5-1,2.8-2.5,2.4l-76.9-21c-1.5-0.4-2-2.3-0.9-3.3l56.6-56.1c1.1-1.1,3-0.6,3.3,0.9L943,2797.1z M1032.9,2708
			c1.5,0.4,2.9-1,2.5-2.4l-20.3-77c-0.4-1.5-2.2-2-3.3-0.9l-56.6,56.1c-1.1,1.1-0.6,2.9,0.9,3.3L1032.9,2708z M1127.7,2614.1
			c0.4,1.5-1,2.8-2.5,2.4l-76.9-21c-1.5-0.4-2-2.3-0.9-3.4l56.6-56.1c1.1-1.1,2.9-0.6,3.3,0.9L1127.7,2614.1z M408.5,3186.1
			c1.5,0.4,2.9-0.9,2.5-2.4l-20.3-77c-0.4-1.5-2.2-2-3.3-0.9l-56.6,56.1c-1.1,1.1-0.6,2.9,0.9,3.3L408.5,3186.1z M503.3,3092.2
			c0.4,1.5-1,2.8-2.5,2.4l-76.9-21c-1.5-0.4-2-2.3-0.9-3.4l56.6-56.1c1.1-1.1,2.9-0.6,3.3,0.9L503.3,3092.2z M593.2,3003.1
			c1.5,0.4,2.9-0.9,2.5-2.4l-20.3-77c-0.4-1.5-2.2-2-3.3-0.9l-56.6,56.1c-1.1,1.1-0.6,2.9,0.9,3.4L593.2,3003.1z M688,2909.1
			c0.4,1.5-1,2.8-2.5,2.4l-76.9-21c-1.5-0.4-2-2.3-0.9-3.3l56.6-56.1c1.1-1.1,3-0.6,3.3,0.9L688,2909.1z M777.9,2820.1
			c1.5,0.4,2.9-1,2.5-2.4l-20.3-77c-0.4-1.5-2.2-2-3.3-0.9l-56.6,56.1c-1.1,1.1-0.6,2.9,0.9,3.3L777.9,2820.1z M872.6,2726.1
			c0.4,1.5-1,2.8-2.5,2.4l-76.9-21c-1.5-0.4-2-2.3-0.9-3.3l56.6-56.1c1.1-1.1,3-0.6,3.3,0.9L872.6,2726.1z M962.5,2637
			c1.5,0.4,2.9-1,2.5-2.4l-20.3-77c-0.4-1.5-2.2-2-3.3-0.9l-56.6,56.1c-1.1,1.1-0.6,2.9,0.9,3.3L962.5,2637z M1057.3,2543.1
			c0.4,1.5-1,2.8-2.5,2.4l-76.9-21c-1.5-0.4-2-2.3-0.9-3.3l56.6-56.1c1.1-1.1,3-0.6,3.3,0.9L1057.3,2543.1z M338.1,3115.1
			c1.5,0.4,2.9-0.9,2.5-2.4l-20.3-77c-0.4-1.5-2.2-2-3.3-0.9l-56.6,56.1c-1.1,1.1-0.6,2.9,0.9,3.3L338.1,3115.1z M432.9,3021.2
			c0.4,1.5-1,2.8-2.5,2.4l-76.9-21c-1.5-0.4-2-2.3-0.9-3.3l56.6-56.1c1.1-1.1,3-0.6,3.3,0.9L432.9,3021.2z M522.8,2932.1
			c1.5,0.4,2.9-1,2.5-2.4l-20.3-77c-0.4-1.5-2.2-2-3.3-0.9l-56.6,56.1c-1.1,1.1-0.6,2.9,0.9,3.3L522.8,2932.1z M617.6,2838.1
			c0.4,1.5-1,2.8-2.5,2.4l-76.9-21c-1.5-0.4-2-2.3-0.9-3.4l56.6-56.1c1.1-1.1,2.9-0.6,3.3,0.9L617.6,2838.1z M707.5,2749
			c1.5,0.4,2.9-0.9,2.5-2.4l-20.3-77c-0.4-1.5-2.2-2-3.3-0.9l-56.6,56.1c-1.1,1.1-0.6,2.9,0.9,3.3L707.5,2749z M802.2,2655.1
			c0.4,1.5-1,2.8-2.5,2.4l-76.9-21c-1.5-0.4-2-2.3-0.9-3.3l56.6-56.1c1.1-1.1,2.9-0.6,3.3,0.9L802.2,2655.1z M892.1,2566
			c1.5,0.4,2.9-0.9,2.5-2.4l-20.3-77c-0.4-1.5-2.2-2-3.3-0.9l-56.6,56.1c-1.1,1.1-0.6,2.9,0.9,3.3L892.1,2566z M986.9,2472
			c0.4,1.5-1,2.8-2.5,2.4l-76.9-21c-1.5-0.4-2-2.3-0.9-3.3l56.6-56.1c1.1-1.1,3-0.6,3.3,0.9L986.9,2472z M175.4,3135.6
			c1.5,0.4,2.9-0.9,2.5-2.4l-20.3-77c-0.4-1.5-2.2-2-3.3-0.9l-56.6,56.1c-1.1,1.1-0.6,2.9,0.9,3.4L175.4,3135.6z M270.2,3041.7
			c0.4,1.5-1,2.8-2.5,2.4l-76.9-21c-1.5-0.4-2-2.3-0.9-3.4l56.6-56.1c1.1-1.1,3-0.6,3.3,0.9L270.2,3041.7z M360.1,2952.6
			c1.5,0.4,2.9-0.9,2.5-2.4l-20.3-77c-0.4-1.5-2.2-2-3.3-0.9l-56.6,56.1c-1.1,1.1-0.6,2.9,0.9,3.3L360.1,2952.6z M454.9,2858.6
			c0.4,1.5-1,2.8-2.5,2.4l-76.9-21c-1.5-0.4-2-2.3-0.9-3.3l56.6-56.1c1.1-1.1,3-0.6,3.3,0.9L454.9,2858.6z M544.7,2769.5
			c1.5,0.4,2.9-0.9,2.5-2.4l-20.3-77c-0.4-1.5-2.2-2-3.3-0.9l-56.6,56.1c-1.1,1.1-0.6,2.9,0.9,3.3L544.7,2769.5z M639.5,2675.6
			c0.4,1.5-1,2.8-2.5,2.4l-76.9-21c-1.5-0.4-2-2.3-0.9-3.3l56.6-56.1c1.1-1.1,3-0.6,3.3,0.9L639.5,2675.6z M729.4,2586.5
			c1.5,0.4,2.9-0.9,2.5-2.4l-20.3-77c-0.4-1.5-2.2-2-3.3-0.9l-56.6,56.1c-1.1,1.1-0.6,2.9,0.9,3.4L729.4,2586.5z M824.2,2492.5
			c0.4,1.5-1,2.8-2.5,2.4l-76.9-21c-1.5-0.4-2-2.3-0.9-3.3l56.6-56.1c1.1-1.1,3-0.6,3.3,0.9L824.2,2492.5z M914,2403.5
			c1.5,0.4,2.9-1,2.5-2.4l-20.3-77c-0.4-1.5-2.2-2-3.3-0.9l-56.6,56.1c-1.1,1.1-0.6,2.9,0.9,3.4L914,2403.5z M1008.8,2309.5
			c0.4,1.5-1,2.8-2.5,2.4l-76.9-21c-1.5-0.4-2-2.3-0.9-3.3l56.6-56.1c1.1-1.1,3-0.6,3.3,0.9L1008.8,2309.5z M12.7,3156.1
			c1.5,0.4,2.9-1,2.5-2.4l-20.3-77c-0.4-1.5-2.2-2-3.3-0.9l-56.6,56.1c-1.1,1.1-0.6,2.9,0.9,3.3L12.7,3156.1z M107.5,3062.2
			c0.4,1.5-1,2.8-2.5,2.4l-76.9-21c-1.5-0.4-2-2.3-0.9-3.3l56.6-56.1c1.1-1.1,2.9-0.6,3.3,0.9L107.5,3062.2z M197.3,2973.1
			c1.5,0.4,2.9-0.9,2.5-2.4l-20.3-77c-0.4-1.5-2.2-2-3.3-0.9l-56.6,56.1c-1.1,1.1-0.6,2.9,0.9,3.3L197.3,2973.1z M292.1,2879.1
			c0.4,1.5-1,2.8-2.5,2.4l-76.9-21c-1.5-0.4-2-2.3-0.9-3.3l56.6-56.1c1.1-1.1,2.9-0.6,3.3,0.9L292.1,2879.1z M382,2790
			c1.5,0.4,2.9-0.9,2.5-2.4l-20.3-77c-0.4-1.5-2.2-2-3.3-0.9l-56.6,56.1c-1.1,1.1-0.6,2.9,0.9,3.3L382,2790z M476.8,2696.1
			c0.4,1.5-1,2.8-2.5,2.4l-76.9-21c-1.5-0.4-2-2.3-0.9-3.3l56.6-56.1c1.1-1.1,3-0.6,3.3,0.9L476.8,2696.1z M566.6,2607
			c1.5,0.4,2.9-1,2.5-2.4l-20.3-77c-0.4-1.5-2.2-2-3.3-0.9l-56.6,56.1c-1.1,1.1-0.6,2.9,0.9,3.3L566.6,2607z M661.4,2513
			c0.4,1.5-1,2.8-2.5,2.4l-76.9-21c-1.5-0.4-2-2.3-0.9-3.3l56.6-56.1c1.1-1.1,3-0.6,3.3,0.9L661.4,2513z M751.3,2424
			c1.5,0.4,2.9-1,2.5-2.4l-20.3-77c-0.4-1.5-2.2-2-3.3-0.9l-56.6,56.1c-1.1,1.1-0.6,2.9,0.9,3.3L751.3,2424z M846.1,2330
			c0.4,1.5-1,2.8-2.5,2.4l-76.9-21c-1.5-0.4-2-2.3-0.9-3.3l56.6-56.1c1.1-1.1,3-0.6,3.3,0.9L846.1,2330z M936,2240.9
			c1.5,0.4,2.9-0.9,2.5-2.4l-20.3-77c-0.4-1.5-2.2-2-3.3-0.9l-56.6,56.1c-1.1,1.1-0.6,2.9,0.9,3.3L936,2240.9z M1030.7,2147
			c0.4,1.5-1,2.8-2.5,2.4l-76.9-21c-1.5-0.4-2-2.3-0.9-3.3l56.6-56.1c1.1-1.1,2.9-0.6,3.3,0.9L1030.7,2147z M-150,3176.6
			c1.5,0.4,2.9-0.9,2.5-2.4l-20.3-77c-0.4-1.5-2.2-2-3.3-0.9l-56.6,56.1c-1.1,1.1-0.6,2.9,0.9,3.3L-150,3176.6z M-55.2,3082.7
			c0.4,1.5-1,2.8-2.5,2.4l-76.9-21c-1.5-0.4-2-2.3-0.9-3.4l56.6-56.1c1.1-1.1,3-0.6,3.3,0.9L-55.2,3082.7z M34.6,2993.6
			c1.5,0.4,2.9-0.9,2.5-2.4l-20.3-77c-0.4-1.5-2.2-2-3.3-0.9l-56.6,56.1c-1.1,1.1-0.6,2.9,0.9,3.3L34.6,2993.6z M129.4,2899.6
			c0.4,1.5-1,2.8-2.5,2.4l-76.9-21c-1.5-0.4-2-2.3-0.9-3.3l56.6-56.1c1.1-1.1,3-0.6,3.3,0.9L129.4,2899.6z M219.3,2810.5
			c1.5,0.4,2.9-0.9,2.5-2.4l-20.3-77c-0.4-1.5-2.2-2-3.3-0.9l-56.6,56.1c-1.1,1.1-0.6,2.9,0.9,3.3L219.3,2810.5z M314.1,2716.6
			c0.4,1.5-1,2.8-2.5,2.4l-76.9-21c-1.5-0.4-2-2.3-0.9-3.4l56.6-56.1c1.1-1.1,2.9-0.6,3.3,0.9L314.1,2716.6z M403.9,2627.5
			c1.5,0.4,2.9-1,2.5-2.4l-20.3-77c-0.4-1.5-2.2-2-3.3-0.9l-56.6,56.1c-1.1,1.1-0.6,2.9,0.9,3.3L403.9,2627.5z M498.7,2533.5
			c0.4,1.5-1,2.8-2.5,2.4l-76.9-21c-1.5-0.4-2-2.3-0.9-3.3l56.6-56.1c1.1-1.1,2.9-0.6,3.3,0.9L498.7,2533.5z M588.6,2444.5
			c1.5,0.4,2.9-0.9,2.5-2.4l-20.3-77c-0.4-1.5-2.2-2-3.3-0.9l-56.6,56.1c-1.1,1.1-0.6,2.9,0.9,3.3L588.6,2444.5z M683.4,2350.5
			c0.4,1.5-1,2.8-2.5,2.4l-76.9-21c-1.5-0.4-2-2.3-0.9-3.3l56.6-56.1c1.1-1.1,3-0.6,3.3,0.9L683.4,2350.5z M773.2,2261.4
			c1.5,0.4,2.9-0.9,2.5-2.4l-20.3-77c-0.4-1.5-2.2-2-3.3-0.9l-56.6,56.1c-1.1,1.1-0.6,2.9,0.9,3.4L773.2,2261.4z M868,2167.5
			c0.4,1.5-1,2.8-2.5,2.4l-76.9-21c-1.5-0.4-2-2.3-0.9-3.3l56.6-56.1c1.1-1.1,3-0.6,3.3,0.9L868,2167.5z M957.9,2078.4
			c1.5,0.4,2.9-0.9,2.5-2.4l-20.3-77c-0.4-1.5-2.2-2-3.3-0.9l-56.6,56.1c-1.1,1.1-0.6,2.9,0.9,3.4L957.9,2078.4z M1052.7,1984.4
			c0.4,1.5-1,2.8-2.5,2.4l-76.9-21c-1.5-0.4-2-2.3-0.9-3.3l56.6-56.1c1.1-1.1,2.9-0.6,3.3,0.9L1052.7,1984.4z"/>
	</g>
</g>
</svg>
