<svg width="55" height="32" viewBox="0 0 55 32" fill="none" xmlns="http://www.w3.org/2000/svg">
    <g opacity="0.8">
        <path opacity="0.6" d="M18.667 15.573L27.7928 20.9006L32.3557 18.2368L23.0225 12.9092L18.667 15.573Z"
              fill="currentColor"/>
        <path opacity="0.8" d="M25.5107 11.4748L34.844 16.8024L39.8217 13.9337L30.4885 8.81104L25.5107 11.4748Z"
              fill="currentColor"/>
        <path opacity="0.3" d="M4.76953 23.3595L14.1028 28.6871L17.6286 26.6381L8.29541 21.5154L4.76953 23.3595Z"
              fill="currentColor"/>
        <path opacity="0.15" d="M0 26.0232L9.33323 31.3508L11.1999 30.5312L1.86663 25.2036L0 26.0232Z"
              fill="currentColor"/>
        <path opacity="0.5" d="M11.6152 19.4661L20.9485 24.7937L24.8892 22.5397L15.7633 17.2122L11.6152 19.4661Z"
              fill="currentColor"/>
        <path opacity="0.8" d="M24.8887 2.66378L49.9847 17.0073L54.755 0L24.8887 2.66378Z"
              fill="currentColor"/>
    </g>
</svg>
