<svg version="1.1" id="Layer_1" xmlns="http://www.w3.org/2000/svg" xmlns:xlink="http://www.w3.org/1999/xlink" x="0px"
     y="0px"
     viewBox="0 0 2890.3 7583.9">
<style type="text/css">
	.st0{fill:url(#SVGID_1_);}
	.st1{fill:url(#SVGID_2_);}
	.st2{fill:url(#SVGID_3_);}
</style>
    <linearGradient id="SVGID_1_" gradientUnits="userSpaceOnUse" x1="175.5597" y1="-5469.2617" x2="953.2523"
                    y2="-5001.1011" gradientTransform="matrix(1 0 0 1 0 5892.0928)">
	<stop offset="0.1206" style="stop-color:#99FFF0"/>
        <stop offset="0.3739" style="stop-color:#1A6358"/>
        <stop offset="1" style="stop-color:#020E0C"/>
</linearGradient>
    <path class="st0" d="M643.5,2.5c-0.4-1.5,1-2.8,2.4-2.4l77,20.6c1.5,0.4,2,2.3,0.9,3.3l-56.3,56.3c-1.1,1.1-2.9,0.6-3.3-0.9
	L643.5,2.5z M551.6,94.4c-0.4-1.5,1-2.8,2.4-2.4l77,20.6c1.5,0.4,2,2.3,0.9,3.3l-56.3,56.3c-1.1,1.1-2.9,0.6-3.3-0.9L551.6,94.4z
	 M462.1,183.9c-1.5-0.4-2.8,1-2.4,2.4l20.6,77c0.4,1.5,2.3,2,3.3,0.9l56.3-56.3c1.1-1.1,0.6-2.9-0.9-3.3L462.1,183.9z M367.8,278.3
	c-0.4-1.5,1-2.8,2.4-2.4l77,20.6c1.5,0.4,2,2.3,0.9,3.3l-56.3,56.3c-1.1,1.1-2.9,0.6-3.3-0.9L367.8,278.3z M278.3,367.8
	c-1.5-0.4-2.8,1-2.4,2.4l20.6,77c0.4,1.5,2.3,2,3.3,0.9l56.3-56.3c1.1-1.1,0.6-2.9-0.9-3.3L278.3,367.8z M183.9,462.1
	c-0.4-1.5,1-2.8,2.4-2.4l77,20.6c1.5,0.4,2,2.3,0.9,3.3L207.9,540c-1.1,1.1-2.9,0.6-3.3-0.9L183.9,462.1z M94.4,551.6
	c-1.5-0.4-2.8,1-2.4,2.4l20.6,77c0.4,1.5,2.3,2,3.3,0.9l56.3-56.3c1.1-1.1,0.6-2.9-0.9-3.3L94.4,551.6z M0.1,646
	c-0.4-1.5,1-2.8,2.4-2.4l77,20.6c1.5,0.4,2,2.3,0.9,3.3L24,723.8c-1.1,1.1-2.9,0.6-3.3-0.9L0.1,646z M716.7,70.8
	c-1.5-0.4-2.8,1-2.5,2.5l20.6,77c0.4,1.5,2.3,2,3.3,0.9l56.3-56.3c1.1-1.1,0.6-2.9-0.9-3.3L716.7,70.8z M622.3,165.2
	c-0.4-1.5,1-2.8,2.5-2.5l77,20.6c1.5,0.4,2,2.3,0.9,3.3L646.3,243c-1.1,1.1-2.9,0.6-3.3-0.9L622.3,165.2z M532.9,254.6
	c-1.5-0.4-2.8,1-2.5,2.4l20.6,77c0.4,1.5,2.3,2,3.3,0.9l56.3-56.3c1.1-1.1,0.6-2.9-0.9-3.3L532.9,254.6z M438.5,349
	c-0.4-1.5,1-2.8,2.4-2.4l77,20.6c1.5,0.4,2,2.3,0.9,3.3l-56.3,56.3c-1.1,1.1-2.9,0.6-3.3-0.9L438.5,349z M349,438.5
	c-1.5-0.4-2.8,1-2.4,2.4l20.6,77c0.4,1.5,2.3,2,3.3,0.9l56.3-56.3c1.1-1.1,0.6-2.9-0.9-3.3L349,438.5z M254.6,532.8
	c-0.4-1.5,1-2.8,2.4-2.4l77,20.6c1.5,0.4,2,2.3,0.9,3.3l-56.3,56.3c-1.1,1.1-2.9,0.6-3.3-0.9L254.6,532.8z M165.2,622.3
	c-1.5-0.4-2.8,1-2.4,2.5l20.6,77c0.4,1.5,2.3,2,3.3,0.9l56.3-56.3c1.1-1.1,0.6-2.9-0.9-3.3L165.2,622.3z M70.8,716.7
	c-0.4-1.5,1-2.8,2.5-2.5l77,20.6c1.5,0.4,2,2.3,0.9,3.3l-56.3,56.3c-1.1,1.1-2.9,0.6-3.3-0.9L70.8,716.7z M787.4,141.5
	c-1.5-0.4-2.8,1-2.4,2.4l20.6,77c0.4,1.5,2.3,2,3.3,0.9l56.3-56.3c1.1-1.1,0.6-2.9-0.9-3.3L787.4,141.5z M693,235.9
	c-0.4-1.5,1-2.8,2.5-2.4l77,20.6c1.5,0.4,2,2.3,0.9,3.3L717,313.7c-1.1,1.1-2.9,0.6-3.3-0.9L693,235.9z M603.6,325.3
	c-1.5-0.4-2.8,1-2.5,2.4l20.6,77c0.4,1.5,2.3,2,3.3,0.9l56.3-56.3c1.1-1.1,0.6-2.9-0.9-3.3L603.6,325.3z M509.2,419.7
	c-0.4-1.5,1-2.8,2.5-2.4l77,20.6c1.5,0.4,2,2.3,0.9,3.3l-56.3,56.3c-1.1,1.1-2.9,0.6-3.3-0.9L509.2,419.7z M419.7,509.2
	c-1.5-0.4-2.8,1-2.4,2.5l20.6,77c0.4,1.5,2.3,2,3.3,0.9l56.3-56.3c1.1-1.1,0.6-2.9-0.9-3.3L419.7,509.2z M325.3,603.6
	c-0.4-1.5,1-2.8,2.4-2.5l77,20.6c1.5,0.4,2,2.3,0.9,3.3l-56.3,56.3c-1.1,1.1-2.9,0.6-3.3-0.9L325.3,603.6z M235.9,693
	c-1.5-0.4-2.8,1-2.4,2.5l20.6,77c0.4,1.5,2.3,2,3.3,0.9l56.3-56.3c1.1-1.1,0.6-2.9-0.9-3.3L235.9,693z M141.5,787.4
	c-0.4-1.5,1-2.8,2.4-2.5l77,20.6c1.5,0.4,2,2.3,0.9,3.3l-56.3,56.3c-1.1,1.1-2.9,0.6-3.3-0.9L141.5,787.4z M858.1,212.2
	c-1.5-0.4-2.8,1-2.4,2.4l20.6,77c0.4,1.5,2.3,2,3.3,0.9l56.3-56.3c1.1-1.1,0.6-2.9-0.9-3.3L858.1,212.2z M763.7,306.6
	c-0.4-1.5,1-2.8,2.4-2.4l77,20.6c1.5,0.4,2,2.3,0.9,3.3l-56.3,56.3c-1.1,1.1-2.9,0.6-3.3-0.9L763.7,306.6z M674.3,396
	c-1.5-0.4-2.8,1-2.4,2.5l20.6,77c0.4,1.5,2.3,2,3.3,0.9l56.3-56.3c1.1-1.1,0.6-2.9-0.9-3.3L674.3,396z M579.9,490.4
	c-0.4-1.5,1-2.8,2.4-2.4l77,20.6c1.5,0.4,2,2.3,0.9,3.3l-56.3,56.3c-1.1,1.1-2.9,0.6-3.3-0.9L579.9,490.4z M490.4,579.9
	c-1.5-0.4-2.8,1-2.4,2.4l20.6,77c0.4,1.5,2.3,2,3.3,0.9l56.3-56.3c1.1-1.1,0.6-2.9-0.9-3.3L490.4,579.9z M396.1,674.3
	c-0.4-1.5,1-2.8,2.4-2.4l77,20.6c1.5,0.4,2,2.3,0.9,3.3L420,752.1c-1.1,1.1-2.9,0.6-3.3-0.9L396.1,674.3z M306.6,763.7
	c-1.5-0.4-2.8,1-2.4,2.4l20.6,77c0.4,1.5,2.3,2,3.3,0.9l56.3-56.3c1.1-1.1,0.6-2.9-0.9-3.3L306.6,763.7z M212.2,858.1
	c-0.4-1.5,1-2.8,2.4-2.4l77,20.6c1.5,0.4,2,2.3,0.9,3.3L236.2,936c-1.1,1.1-2.9,0.6-3.3-0.9L212.2,858.1z M1020.8,191
	c-1.5-0.4-2.8,1-2.4,2.4l20.6,77c0.4,1.5,2.3,2,3.3,0.9l56.3-56.3c1.1-1.1,0.6-2.9-0.9-3.3L1020.8,191z M926.4,285.4
	c-0.4-1.5,1-2.8,2.5-2.4l77,20.6c1.5,0.4,2,2.3,0.9,3.3l-56.3,56.3c-1.1,1.1-2.9,0.6-3.3-0.9L926.4,285.4z M836.9,374.8
	c-1.5-0.4-2.8,1-2.5,2.4l20.6,77c0.4,1.5,2.3,2,3.3,0.9l56.3-56.3c1.1-1.1,0.6-2.9-0.9-3.3L836.9,374.8z M742.5,469.2
	c-0.4-1.5,1-2.8,2.5-2.5l77,20.6c1.5,0.4,2,2.3,0.9,3.3l-56.3,56.3c-1.1,1.1-2.9,0.6-3.3-0.9L742.5,469.2z M653.1,558.7
	c-1.5-0.4-2.8,1-2.4,2.4l20.6,77c0.4,1.5,2.3,2,3.3,0.9l56.3-56.3c1.1-1.1,0.6-2.9-0.9-3.3L653.1,558.7z M558.7,653.1
	c-0.4-1.5,1-2.8,2.4-2.4l77,20.6c1.5,0.4,2,2.3,0.9,3.3l-56.3,56.3c-1.1,1.1-2.9,0.6-3.3-0.9L558.7,653.1z M469.2,742.5
	c-1.5-0.4-2.8,1-2.4,2.4l20.6,77c0.4,1.5,2.3,2,3.3,0.9l56.3-56.3c1.1-1.1,0.6-2.9-0.9-3.3L469.2,742.5z M374.8,836.9
	c-0.4-1.5,1-2.8,2.4-2.4l77,20.6c1.5,0.4,2,2.3,0.9,3.3l-56.3,56.3c-1.1,1.1-2.9,0.6-3.3-0.9L374.8,836.9z M285.4,926.4
	c-1.5-0.4-2.8,1-2.4,2.5l20.6,77c0.4,1.5,2.3,2,3.3,0.9l56.3-56.3c1.1-1.1,0.6-2.9-0.9-3.3L285.4,926.4z M191,1020.8
	c-0.4-1.5,1-2.8,2.4-2.4l77,20.6c1.5,0.4,2,2.3,0.9,3.3l-56.3,56.3c-1.1,1.1-2.9,0.6-3.3-0.9L191,1020.8z M1183.4,169.8
	c-1.5-0.4-2.8,1-2.4,2.5l20.6,77c0.4,1.5,2.3,2,3.3,0.9l56.3-56.3c1.1-1.1,0.6-2.9-0.9-3.3L1183.4,169.8z M1089,264.1
	c-0.4-1.5,1-2.8,2.4-2.4l77,20.6c1.5,0.4,2,2.3,0.9,3.3L1113,342c-1.1,1.1-2.9,0.6-3.3-0.9L1089,264.1z M999.5,353.6
	c-1.5-0.4-2.8,1-2.4,2.4l20.6,77c0.4,1.5,2.3,2,3.3,0.9l56.3-56.3c1.1-1.1,0.6-2.9-0.9-3.3L999.5,353.6z M905.2,448
	c-0.4-1.5,1-2.8,2.5-2.4l77,20.6c1.5,0.4,2,2.3,0.9,3.3l-56.3,56.3c-1.1,1.1-2.9,0.6-3.3-0.9L905.2,448z M815.7,537.5
	c-1.5-0.4-2.8,1-2.5,2.4l20.6,77c0.4,1.5,2.3,2,3.3,0.9l56.3-56.3c1.1-1.1,0.6-2.9-0.9-3.3L815.7,537.5z M721.3,631.8
	c-0.4-1.5,1-2.8,2.5-2.4l77,20.6c1.5,0.4,2,2.3,0.9,3.3l-56.3,56.3c-1.1,1.1-2.9,0.6-3.3-0.9L721.3,631.8z M631.8,721.3
	c-1.5-0.4-2.8,1-2.5,2.5l20.6,77c0.4,1.5,2.3,2,3.3,0.9l56.3-56.3c1.1-1.1,0.6-2.9-0.9-3.3L631.8,721.3z M537.5,815.7
	c-0.4-1.5,1-2.8,2.4-2.5l77,20.6c1.5,0.4,2,2.3,0.9,3.3l-56.3,56.3c-1.1,1.1-2.9,0.6-3.3-0.9L537.5,815.7z M448,905.2
	c-1.5-0.4-2.8,1-2.4,2.5l20.6,77c0.4,1.5,2.3,2,3.3,0.9l56.3-56.3c1.1-1.1,0.6-2.9-0.9-3.3L448,905.2z M353.6,999.5
	c-0.4-1.5,1-2.8,2.4-2.5l77,20.6c1.5,0.4,2,2.3,0.9,3.3l-56.3,56.3c-1.1,1.1-2.9,0.6-3.3-0.9L353.6,999.5z M264.1,1089
	c-1.5-0.4-2.8,1-2.4,2.5l20.6,77c0.4,1.5,2.3,2,3.3,0.9L342,1113c1.1-1.1,0.6-2.9-0.9-3.3L264.1,1089z M169.8,1183.4
	c-0.4-1.5,1-2.8,2.4-2.4l77,20.6c1.5,0.4,2,2.3,0.9,3.3l-56.3,56.3c-1.1,1.1-2.9,0.6-3.3-0.9L169.8,1183.4z M1346,148.6
	c-1.5-0.4-2.8,1-2.4,2.4l20.6,77c0.4,1.5,2.3,2,3.3,0.9l56.3-56.3c1.1-1.1,0.6-2.9-0.9-3.3L1346,148.6z M1251.6,242.9
	c-0.4-1.5,1-2.8,2.5-2.4l77,20.6c1.5,0.4,2,2.3,0.9,3.3l-56.3,56.3c-1.1,1.1-2.9,0.6-3.3-0.9L1251.6,242.9z M1162.2,332.4
	c-1.5-0.4-2.8,1-2.4,2.4l20.6,77c0.4,1.5,2.3,2,3.3,0.9l56.3-56.3c1.1-1.1,0.6-2.9-0.9-3.3L1162.2,332.4z M1067.8,426.8
	c-0.4-1.5,1-2.8,2.4-2.4l77,20.6c1.5,0.4,2,2.3,0.9,3.3l-56.3,56.3c-1.1,1.1-2.9,0.6-3.3-0.9L1067.8,426.8z M978.3,516.3
	c-1.5-0.4-2.8,1-2.4,2.4l20.6,77c0.4,1.5,2.3,2,3.3,0.9l56.3-56.3c1.1-1.1,0.6-2.9-0.9-3.3L978.3,516.3z M884,610.6
	c-0.4-1.5,1-2.8,2.4-2.4l77,20.6c1.5,0.4,2,2.3,0.9,3.3L908,688.4c-1.1,1.1-2.9,0.6-3.3-0.9L884,610.6z M794.5,700.1
	c-1.5-0.4-2.8,1-2.4,2.5l20.6,77c0.4,1.5,2.3,2,3.3,0.9l56.3-56.3c1.1-1.1,0.6-2.9-0.9-3.3L794.5,700.1z M700.1,794.5
	c-0.4-1.5,1-2.8,2.5-2.5l77,20.6c1.5,0.4,2,2.3,0.9,3.3l-56.3,56.3c-1.1,1.1-2.9,0.6-3.3-0.9L700.1,794.5z M610.6,884
	c-1.5-0.4-2.8,1-2.4,2.4l20.6,77c0.4,1.5,2.3,2,3.3,0.9l56.3-56.3c1.1-1.1,0.6-2.9-0.9-3.3L610.6,884z M516.3,978.3
	c-0.4-1.5,1-2.8,2.5-2.4l77,20.6c1.5,0.4,2,2.3,0.9,3.3l-56.3,56.3c-1.1,1.1-2.9,0.6-3.3-0.9L516.3,978.3z M426.8,1067.8
	c-1.5-0.4-2.8,1-2.5,2.4l20.6,77c0.4,1.5,2.3,2,3.3,0.9l56.3-56.3c1.1-1.1,0.6-2.9-0.9-3.3L426.8,1067.8z M332.4,1162.2
	c-0.4-1.5,1-2.8,2.4-2.4l77,20.6c1.5,0.4,2,2.3,0.9,3.3l-56.3,56.3c-1.1,1.1-2.9,0.6-3.3-0.9L332.4,1162.2z M242.9,1251.6
	c-1.5-0.4-2.8,1-2.4,2.4l20.6,77c0.4,1.5,2.3,2,3.3,0.9l56.3-56.3c1.1-1.1,0.6-2.9-0.9-3.3L242.9,1251.6z M148.6,1346
	c-0.4-1.5,1-2.8,2.4-2.4l77,20.6c1.5,0.4,2,2.3,0.9,3.3l-56.3,56.3c-1.1,1.1-2.9,0.6-3.3-0.9L148.6,1346z"/>
    <linearGradient id="SVGID_2_" gradientUnits="userSpaceOnUse" x1="1425.9747" y1="-347.5723" x2="2329.0146"
                    y2="240.2573" gradientTransform="matrix(1 0 0 1 0 5892.0928)">
	<stop offset="0.4029" style="stop-color:#020E0C"/>
        <stop offset="0.676" style="stop-color:#1A6358"/>
        <stop offset="1" style="stop-color:#99FFF0"/>
</linearGradient>
    <path class="st1" d="M2361.3,5106.9c0.5,1.5-0.8,2.9-2.3,2.6l-78.2-15.1c-1.5-0.3-2.1-2.1-1.1-3.3l52.2-60.2c1-1.2,2.9-0.8,3.4,0.7
	L2361.3,5106.9z M2436.9,5172.4c0.5,1.5-0.8,2.9-2.3,2.6l-78.2-15.1c-1.5-0.3-2.1-2.1-1.1-3.3l52.2-60.2c1-1.2,2.9-0.8,3.4,0.7
	L2436.9,5172.4z M2512.5,5237.9c0.5,1.5-0.8,2.9-2.3,2.6l-78.2-15.1c-1.5-0.3-2.1-2.1-1.1-3.3l52.2-60.2c1-1.2,2.9-0.8,3.4,0.7
	L2512.5,5237.9z M2588,5303.4c0.5,1.5-0.8,2.9-2.3,2.6l-78.2-15.1c-1.5-0.3-2.1-2.1-1.1-3.3l52.2-60.2c1-1.2,2.9-0.8,3.4,0.7
	L2588,5303.4z M2663.6,5368.9c0.5,1.4-0.8,2.9-2.3,2.6l-78.2-15.1c-1.5-0.3-2.1-2.1-1.1-3.3l52.2-60.2c1-1.2,2.9-0.8,3.4,0.7
	L2663.6,5368.9z M2739.1,5434.4c0.5,1.5-0.8,2.9-2.3,2.6l-78.2-15.1c-1.5-0.3-2.1-2.1-1.1-3.3l52.2-60.2c1-1.2,2.9-0.8,3.4,0.7
	L2739.1,5434.4z M2814.7,5500c0.5,1.4-0.8,2.9-2.3,2.6l-78.2-15.1c-1.5-0.3-2.1-2.1-1.1-3.3l52.2-60.2c1-1.2,2.9-0.8,3.4,0.7
	L2814.7,5500z M2890.2,5565.5c0.5,1.5-0.8,2.9-2.3,2.6l-78.2-15.1c-1.5-0.3-2.1-2.1-1.1-3.3l52.2-60.2c1-1.2,2.9-0.8,3.4,0.7
	L2890.2,5565.5z M2802.8,5666.3c1.5,0.3,2.8-1.2,2.3-2.6l-26-75.3c-0.5-1.5-2.4-1.8-3.4-0.7l-52.2,60.2c-1,1.2-0.4,3,1.1,3.3
	L2802.8,5666.3z M2719.9,5761.9c0.5,1.5-0.8,2.9-2.3,2.6l-78.2-15.1c-1.5-0.3-2.1-2.1-1.1-3.3l52.2-60.2c1-1.2,2.9-0.8,3.4,0.7
	L2719.9,5761.9z M2632.5,5862.7c1.5,0.3,2.8-1.2,2.3-2.6l-26-75.3c-0.5-1.4-2.4-1.8-3.4-0.7l-52.2,60.2c-1,1.2-0.4,3,1.1,3.3
	L2632.5,5862.7z M2549.6,5958.3c0.5,1.5-0.8,2.9-2.3,2.6l-78.2-15.1c-1.5-0.3-2.1-2.1-1.1-3.3l52.2-60.2c1-1.2,2.9-0.8,3.4,0.7
	L2549.6,5958.3z M2462.1,6059.2c1.5,0.3,2.8-1.2,2.3-2.6l-26-75.3c-0.5-1.5-2.4-1.8-3.4-0.7l-52.2,60.2c-1,1.2-0.4,3,1.1,3.3
	L2462.1,6059.2z M2379.3,6154.8c0.5,1.5-0.8,2.9-2.3,2.6l-78.2-15.1c-1.5-0.3-2.1-2.1-1.1-3.3l52.2-60.2c1-1.2,2.9-0.8,3.4,0.6
	L2379.3,6154.8z M2291.8,6255.6c1.5,0.3,2.8-1.2,2.3-2.6l-26-75.3c-0.5-1.5-2.4-1.8-3.4-0.7l-52.2,60.2c-1,1.2-0.4,3,1.1,3.3
	L2291.8,6255.6z M2208.9,6351.2c0.5,1.5-0.8,2.9-2.3,2.6l-78.2-15.1c-1.5-0.3-2.1-2.1-1.1-3.3l52.2-60.2c1-1.2,2.9-0.8,3.4,0.7
	L2208.9,6351.2z M2121.5,6452.1c1.5,0.3,2.8-1.2,2.3-2.6l-26-75.3c-0.5-1.5-2.4-1.8-3.4-0.7l-52.2,60.2c-1,1.2-0.4,3,1.1,3.3
	L2121.5,6452.1z M2038.6,6547.7c0.5,1.5-0.8,2.9-2.3,2.6l-78.2-15.1c-1.5-0.3-2.1-2.1-1.1-3.3l52.2-60.2c1-1.2,2.9-0.8,3.4,0.7
	L2038.6,6547.7z M1951.2,6648.5c1.5,0.3,2.8-1.2,2.3-2.6l-26-75.3c-0.5-1.5-2.4-1.8-3.4-0.7l-52.2,60.2c-1,1.2-0.4,3,1.1,3.3
	L1951.2,6648.5z M1868.3,6744.1c0.5,1.5-0.8,2.9-2.3,2.6l-78.2-15.1c-1.5-0.3-2.1-2.1-1.1-3.3l52.2-60.2c1-1.2,2.9-0.8,3.4,0.7
	L1868.3,6744.1z M1783.1,6842.3c0.5,1.5-0.8,2.9-2.3,2.6l-78.2-15.1c-1.5-0.3-2.1-2.1-1.1-3.3l52.2-60.2c1-1.2,2.9-0.8,3.4,0.7
	L1783.1,6842.3z M1705.3,6779.4c1.5,0.3,2.8-1.2,2.3-2.6l-26-75.3c-0.5-1.5-2.4-1.8-3.4-0.7L1626,6761c-1,1.2-0.4,3,1.1,3.3
	L1705.3,6779.4z M1792.7,6678.6c0.5,1.5-0.8,2.9-2.3,2.6l-78.2-15.1c-1.5-0.3-2.1-2.1-1.1-3.3l52.2-60.2c1-1.2,2.9-0.8,3.4,0.7
	L1792.7,6678.6z M1875.6,6583c1.5,0.3,2.8-1.2,2.3-2.6l-26-75.3c-0.5-1.5-2.4-1.8-3.4-0.7l-52.2,60.2c-1,1.2-0.4,3,1.1,3.3
	L1875.6,6583z M1963,6482.2c0.5,1.4-0.8,2.9-2.3,2.6l-78.2-15.1c-1.5-0.3-2.1-2.1-1.1-3.3l52.2-60.2c1-1.2,2.9-0.8,3.4,0.7
	L1963,6482.2z M2045.9,6386.6c1.5,0.3,2.8-1.2,2.3-2.6l-26-75.3c-0.5-1.5-2.4-1.8-3.4-0.7l-52.2,60.2c-1,1.2-0.4,3,1.1,3.3
	L2045.9,6386.6z M2133.4,6285.7c0.5,1.4-0.8,2.9-2.3,2.6l-78.2-15.1c-1.5-0.3-2.1-2.1-1.1-3.3l52.2-60.2c1-1.2,2.9-0.8,3.4,0.7
	L2133.4,6285.7z M2216.3,6190.1c1.5,0.3,2.8-1.2,2.3-2.6l-26-75.3c-0.5-1.4-2.4-1.8-3.4-0.6l-52.2,60.2c-1,1.2-0.4,3,1.1,3.3
	L2216.3,6190.1z M2303.7,6089.3c0.5,1.5-0.8,2.9-2.3,2.6l-78.2-15.1c-1.5-0.3-2.1-2.1-1.1-3.3l52.2-60.2c1-1.2,2.9-0.8,3.4,0.7
	L2303.7,6089.3z M2386.6,5993.7c1.5,0.3,2.8-1.2,2.3-2.6l-26-75.3c-0.5-1.5-2.4-1.8-3.4-0.6l-52.2,60.2c-1,1.2-0.4,3,1.1,3.3
	L2386.6,5993.7z M2474,5892.8c0.5,1.5-0.8,2.9-2.3,2.6l-78.2-15.1c-1.5-0.3-2.1-2.1-1.1-3.3l52.2-60.2c1-1.2,2.9-0.8,3.4,0.7
	L2474,5892.8z M2556.9,5797.2c1.5,0.3,2.8-1.2,2.3-2.6l-26-75.3c-0.5-1.5-2.4-1.8-3.4-0.7l-52.2,60.2c-1,1.2-0.4,3,1.1,3.3
	L2556.9,5797.2z M2644.3,5696.4c0.5,1.5-0.8,2.9-2.3,2.6l-78.2-15.1c-1.5-0.3-2.1-2.1-1.1-3.3l52.2-60.2c1-1.2,2.9-0.8,3.4,0.7
	L2644.3,5696.4z M2727.2,5600.8c1.5,0.3,2.8-1.2,2.3-2.6l-26-75.3c-0.5-1.5-2.4-1.8-3.4-0.7l-52.2,60.2c-1,1.2-0.4,3,1.1,3.3
	L2727.2,5600.8z M1629.7,6713.9c1.5,0.3,2.8-1.2,2.3-2.6l-26-75.3c-0.5-1.5-2.4-1.8-3.4-0.7l-52.2,60.2c-1,1.2-0.4,3,1.1,3.3
	L1629.7,6713.9z M1717.2,6613.1c0.5,1.5-0.8,2.9-2.3,2.6l-78.2-15.1c-1.5-0.3-2.1-2.1-1.1-3.3l52.2-60.2c1-1.2,2.9-0.8,3.4,0.7
	L1717.2,6613.1z M1800.1,6517.5c1.5,0.3,2.8-1.2,2.3-2.6l-26-75.3c-0.5-1.5-2.4-1.8-3.4-0.7l-52.2,60.2c-1,1.2-0.4,3,1.1,3.3
	L1800.1,6517.5z M1887.5,6416.7c0.5,1.5-0.8,2.9-2.3,2.6l-78.2-15.1c-1.5-0.3-2.1-2.1-1.1-3.3l52.2-60.2c1-1.2,2.9-0.8,3.4,0.7
	L1887.5,6416.7z M1970.4,6321.1c1.5,0.3,2.8-1.2,2.3-2.6l-26-75.3c-0.5-1.5-2.4-1.8-3.4-0.7l-52.2,60.2c-1,1.2-0.4,3,1.1,3.3
	L1970.4,6321.1z M2057.8,6220.2c0.5,1.5-0.8,2.9-2.3,2.6l-78.2-15.1c-1.5-0.3-2.1-2.1-1.1-3.3l52.2-60.2c1-1.2,2.9-0.8,3.4,0.7
	L2057.8,6220.2z M2140.7,6124.6c1.5,0.3,2.8-1.2,2.3-2.6l-26-75.3c-0.5-1.5-2.4-1.8-3.4-0.7l-52.2,60.2c-1,1.2-0.4,3,1.1,3.3
	L2140.7,6124.6z M2228.1,6023.8c0.5,1.5-0.8,2.9-2.3,2.6l-78.2-15.1c-1.5-0.3-2.1-2.1-1.1-3.3l52.2-60.2c1-1.2,2.9-0.8,3.4,0.6
	L2228.1,6023.8z M2311,5928.2c1.5,0.3,2.8-1.2,2.3-2.6l-26-75.3c-0.5-1.5-2.4-1.8-3.4-0.7l-52.2,60.2c-1,1.2-0.4,3,1.1,3.3
	L2311,5928.2z M2398.5,5827.3c0.5,1.5-0.8,2.9-2.3,2.6l-78.2-15.1c-1.5-0.3-2.1-2.1-1.1-3.3l52.2-60.2c1-1.2,2.9-0.8,3.4,0.6
	L2398.5,5827.3z M2481.4,5731.7c1.5,0.3,2.8-1.2,2.3-2.6l-26-75.3c-0.5-1.4-2.4-1.8-3.4-0.7l-52.2,60.2c-1,1.2-0.4,3,1.1,3.3
	L2481.4,5731.7z M2568.8,5630.9c0.5,1.5-0.8,2.9-2.3,2.6l-78.2-15.1c-1.5-0.3-2.1-2.1-1.1-3.3l52.2-60.2c1-1.2,2.9-0.8,3.4,0.7
	L2568.8,5630.9z M2651.7,5535.3c1.5,0.3,2.8-1.2,2.3-2.6l-26-75.3c-0.5-1.5-2.4-1.8-3.4-0.7l-52.2,60.2c-1,1.2-0.4,3,1.1,3.3
	L2651.7,5535.3z M1554.2,6648.4c1.5,0.3,2.8-1.2,2.3-2.6l-26-75.3c-0.5-1.5-2.4-1.8-3.4-0.6l-52.2,60.2c-1,1.2-0.4,3,1.1,3.3
	L1554.2,6648.4z M1641.6,6547.6c0.5,1.5-0.8,2.9-2.3,2.6l-78.2-15.1c-1.5-0.3-2.1-2.1-1.1-3.3l52.2-60.2c1-1.2,2.9-0.8,3.4,0.7
	L1641.6,6547.6z M1724.5,6452c1.5,0.3,2.8-1.2,2.3-2.6l-26-75.3c-0.5-1.5-2.4-1.8-3.4-0.7l-52.2,60.2c-1,1.2-0.4,3,1.1,3.3
	L1724.5,6452z M1811.9,6351.1c0.5,1.4-0.8,2.9-2.3,2.6l-78.2-15.1c-1.5-0.3-2.1-2.1-1.1-3.3l52.2-60.2c1-1.2,2.9-0.8,3.4,0.7
	L1811.9,6351.1z M1894.8,6255.5c1.5,0.3,2.8-1.2,2.3-2.6l-26-75.3c-0.5-1.5-2.4-1.8-3.4-0.7l-52.2,60.2c-1,1.2-0.4,3,1.1,3.3
	L1894.8,6255.5z M1982.3,6154.7c0.5,1.4-0.8,2.9-2.3,2.6l-78.2-15.1c-1.5-0.3-2.1-2.1-1.1-3.3l52.2-60.2c1-1.2,2.9-0.8,3.4,0.7
	L1982.3,6154.7z M2065.2,6059.1c1.5,0.3,2.8-1.2,2.3-2.6l-26-75.3c-0.5-1.5-2.4-1.8-3.4-0.7l-52.2,60.2c-1,1.2-0.4,3,1.1,3.3
	L2065.2,6059.1z M2152.6,5958.3c0.5,1.4-0.8,2.9-2.3,2.6l-78.2-15.1c-1.5-0.3-2.1-2.1-1.1-3.3l52.2-60.2c1-1.2,2.9-0.8,3.4,0.7
	L2152.6,5958.3z M2235.5,5862.7c1.5,0.3,2.8-1.2,2.3-2.6l-26-75.3c-0.5-1.4-2.4-1.8-3.4-0.6l-52.2,60.2c-1,1.2-0.4,3,1.1,3.3
	L2235.5,5862.7z M2322.9,5761.8c0.5,1.5-0.8,2.9-2.3,2.6l-78.2-15.1c-1.5-0.3-2.1-2.1-1.1-3.3l52.2-60.2c1-1.2,2.9-0.8,3.4,0.7
	L2322.9,5761.8z M2405.8,5666.2c1.5,0.3,2.8-1.2,2.3-2.6l-26-75.3c-0.5-1.5-2.4-1.8-3.4-0.6l-52.2,60.2c-1,1.2-0.4,3,1.1,3.3
	L2405.8,5666.2z M2493.2,5565.4c0.5,1.5-0.8,2.9-2.3,2.6l-78.2-15.1c-1.5-0.3-2.1-2.1-1.1-3.3l52.2-60.2c1-1.2,2.9-0.8,3.4,0.7
	L2493.2,5565.4z M2576.1,5469.8c1.5,0.3,2.8-1.2,2.3-2.6l-26-75.3c-0.5-1.5-2.4-1.8-3.4-0.7l-52.2,60.2c-1,1.2-0.4,3,1.1,3.3
	L2576.1,5469.8z M1478.6,6582.9c1.5,0.3,2.8-1.2,2.3-2.6l-26-75.3c-0.5-1.5-2.4-1.8-3.4-0.7l-52.2,60.2c-1,1.2-0.4,3,1.1,3.3
	L1478.6,6582.9z M1566.1,6482.1c0.5,1.5-0.8,2.9-2.3,2.6l-78.2-15.1c-1.5-0.3-2.1-2.1-1.1-3.3l52.2-60.2c1-1.2,2.9-0.8,3.4,0.7
	L1566.1,6482.1z M1649,6386.5c1.5,0.3,2.8-1.2,2.3-2.6l-26-75.3c-0.5-1.4-2.4-1.8-3.4-0.7l-52.2,60.2c-1,1.2-0.4,3,1.1,3.3
	L1649,6386.5z M1736.4,6285.6c0.5,1.5-0.8,2.9-2.3,2.6l-78.2-15.1c-1.5-0.3-2.1-2.1-1.1-3.3l52.2-60.2c1-1.2,2.9-0.8,3.4,0.7
	L1736.4,6285.6z M1819.3,6190c1.5,0.3,2.8-1.2,2.3-2.6l-26-75.3c-0.5-1.5-2.4-1.8-3.4-0.7l-52.2,60.2c-1,1.2-0.4,3,1.1,3.3
	L1819.3,6190z M1906.7,6089.2c0.5,1.5-0.8,2.9-2.3,2.6l-78.2-15.1c-1.5-0.3-2.1-2.1-1.1-3.3l52.2-60.2c1-1.2,2.9-0.8,3.4,0.7
	L1906.7,6089.2z M1989.6,5993.6c1.5,0.3,2.8-1.2,2.3-2.6l-26-75.3c-0.5-1.5-2.4-1.8-3.4-0.7l-52.2,60.2c-1,1.2-0.4,3,1.1,3.3
	L1989.6,5993.6z M2077,5892.8c0.5,1.5-0.8,2.9-2.3,2.6l-78.2-15.1c-1.5-0.3-2.1-2.1-1.1-3.3l52.2-60.2c1-1.2,2.9-0.8,3.4,0.7
	L2077,5892.8z M2159.9,5797.1c1.5,0.3,2.8-1.2,2.3-2.6l-26-75.3c-0.5-1.5-2.4-1.8-3.4-0.7l-52.2,60.2c-1,1.2-0.4,3,1.1,3.3
	L2159.9,5797.1z M2247.4,5696.3c0.5,1.5-0.8,2.9-2.3,2.6l-78.2-15.1c-1.5-0.3-2.1-2.1-1.1-3.3l52.2-60.2c1-1.2,2.9-0.8,3.4,0.6
	L2247.4,5696.3z M2330.2,5600.7c1.5,0.3,2.8-1.2,2.3-2.6l-26-75.3c-0.5-1.5-2.4-1.8-3.4-0.7l-52.2,60.2c-1,1.2-0.4,3,1.1,3.3
	L2330.2,5600.7z M2417.7,5499.9c0.5,1.5-0.8,2.9-2.3,2.6l-78.2-15.1c-1.5-0.3-2.1-2.1-1.1-3.3l52.2-60.2c1-1.2,2.9-0.8,3.4,0.7
	L2417.7,5499.9z M2500.6,5404.3c1.5,0.3,2.8-1.2,2.3-2.6l-26-75.3c-0.5-1.4-2.4-1.8-3.4-0.7l-52.2,60.2c-1,1.2-0.4,3,1.1,3.3
	L2500.6,5404.3z M1403.1,6517.4c1.5,0.3,2.8-1.2,2.3-2.6l-26-75.3c-0.5-1.4-2.4-1.8-3.4-0.6l-52.2,60.2c-1,1.2-0.4,3,1.1,3.3
	L1403.1,6517.4z M1490.5,6416.6c0.5,1.5-0.8,2.9-2.3,2.6l-78.2-15.1c-1.5-0.3-2.1-2.1-1.1-3.3l52.2-60.2c1-1.2,2.9-0.8,3.4,0.7
	L1490.5,6416.6z M1573.4,6321c1.5,0.3,2.8-1.2,2.3-2.6l-26-75.3c-0.5-1.5-2.4-1.8-3.4-0.7l-52.2,60.2c-1,1.2-0.4,3,1.1,3.3
	L1573.4,6321z M1660.8,6220.1c0.5,1.5-0.8,2.9-2.3,2.6l-78.2-15.1c-1.5-0.3-2.1-2.1-1.1-3.3l52.2-60.2c1-1.2,2.9-0.8,3.4,0.7
	L1660.8,6220.1z M1743.7,6124.5c1.5,0.3,2.8-1.2,2.3-2.6l-26-75.3c-0.5-1.5-2.4-1.8-3.4-0.7l-52.2,60.2c-1,1.2-0.4,3,1.1,3.3
	L1743.7,6124.5z M1831.2,6023.7c0.5,1.4-0.8,2.9-2.3,2.6l-78.2-15.1c-1.5-0.3-2.1-2.1-1.1-3.3l52.2-60.2c1-1.2,2.9-0.8,3.4,0.7
	L1831.2,6023.7z M1914,5928.1c1.5,0.3,2.8-1.2,2.3-2.6l-26-75.3c-0.5-1.5-2.4-1.8-3.4-0.7l-52.2,60.2c-1,1.2-0.4,3,1.1,3.3
	L1914,5928.1z M2001.5,5827.2c0.5,1.4-0.8,2.9-2.3,2.6l-78.2-15.1c-1.5-0.3-2.1-2.1-1.1-3.3l52.2-60.2c1-1.2,2.9-0.8,3.4,0.7
	L2001.5,5827.2z M2084.4,5731.6c1.5,0.3,2.8-1.2,2.3-2.6l-26-75.3c-0.5-1.4-2.4-1.8-3.4-0.6l-52.2,60.2c-1,1.2-0.4,3,1.1,3.3
	L2084.4,5731.6z M2171.8,5630.8c0.5,1.5-0.8,2.9-2.3,2.6l-78.2-15.1c-1.5-0.3-2.1-2.1-1.1-3.3l52.2-60.2c1-1.2,2.9-0.8,3.4,0.7
	L2171.8,5630.8z M2254.7,5535.2c1.5,0.3,2.8-1.2,2.3-2.6l-26-75.3c-0.5-1.5-2.4-1.8-3.4-0.6l-52.2,60.2c-1,1.2-0.4,3,1.1,3.3
	L2254.7,5535.2z M2342.1,5434.4c0.5,1.5-0.8,2.9-2.3,2.6l-78.2-15.1c-1.5-0.3-2.1-2.1-1.1-3.3l52.2-60.2c1-1.2,2.9-0.8,3.4,0.6
	L2342.1,5434.4z M2425,5338.8c1.5,0.3,2.8-1.2,2.3-2.6l-26-75.3c-0.5-1.5-2.4-1.8-3.4-0.7l-52.2,60.2c-1,1.2-0.4,3,1.1,3.3
	L2425,5338.8z M1327.5,6451.9c1.5,0.3,2.8-1.2,2.3-2.6l-26-75.3c-0.5-1.5-2.4-1.8-3.4-0.7l-52.2,60.2c-1,1.2-0.4,3,1.1,3.3
	L1327.5,6451.9z M1414.9,6351.1c0.5,1.5-0.8,2.9-2.3,2.6l-78.2-15.1c-1.5-0.3-2.1-2.1-1.1-3.3l52.2-60.2c1-1.2,2.9-0.8,3.4,0.6
	L1414.9,6351.1z M1497.8,6255.5c1.5,0.3,2.8-1.2,2.3-2.6l-26-75.3c-0.5-1.5-2.4-1.8-3.4-0.7l-52.2,60.2c-1,1.2-0.4,3,1.1,3.3
	L1497.8,6255.5z M1585.3,6154.6c0.5,1.5-0.8,2.9-2.3,2.6l-78.2-15.1c-1.5-0.3-2.1-2.1-1.1-3.3l52.2-60.2c1-1.2,2.9-0.8,3.4,0.7
	L1585.3,6154.6z M1668.2,6059c1.5,0.3,2.8-1.2,2.3-2.6l-26-75.3c-0.5-1.5-2.4-1.8-3.4-0.7l-52.2,60.2c-1,1.2-0.4,3,1.1,3.3
	L1668.2,6059z M1755.6,5958.2c0.5,1.5-0.8,2.9-2.3,2.6l-78.2-15.1c-1.5-0.3-2.1-2.1-1.1-3.3l52.2-60.2c1-1.2,2.9-0.8,3.4,0.7
	L1755.6,5958.2z M1838.5,5862.6c1.5,0.3,2.8-1.2,2.3-2.6l-26-75.3c-0.5-1.5-2.4-1.8-3.4-0.7l-52.2,60.2c-1,1.2-0.4,3,1.1,3.3
	L1838.5,5862.6z M1925.9,5761.7c0.5,1.5-0.8,2.9-2.3,2.6l-78.2-15.1c-1.5-0.3-2.1-2.1-1.1-3.3l52.2-60.2c1-1.2,2.9-0.8,3.4,0.7
	L1925.9,5761.7z M2008.8,5666.1c1.5,0.3,2.8-1.2,2.3-2.6l-26-75.3c-0.5-1.5-2.4-1.8-3.4-0.7l-52.2,60.2c-1,1.2-0.4,3,1.1,3.3
	L2008.8,5666.1z M2096.2,5565.3c0.5,1.5-0.8,2.9-2.3,2.6l-78.2-15.1c-1.5-0.3-2.1-2.1-1.1-3.3l52.2-60.2c1-1.2,2.9-0.8,3.4,0.6
	L2096.2,5565.3z M2179.1,5469.7c1.5,0.3,2.8-1.2,2.3-2.6l-26-75.3c-0.5-1.5-2.4-1.8-3.4-0.7l-52.2,60.2c-1,1.2-0.4,3,1.1,3.3
	L2179.1,5469.7z M2266.6,5368.8c0.5,1.5-0.8,2.9-2.3,2.6l-78.2-15.1c-1.5-0.3-2.1-2.1-1.1-3.3l52.2-60.2c1-1.2,2.9-0.8,3.4,0.6
	L2266.6,5368.8z M2349.5,5273.2c1.5,0.3,2.8-1.2,2.3-2.6l-26-75.3c-0.5-1.4-2.4-1.8-3.4-0.7l-52.2,60.2c-1,1.2-0.4,3,1.1,3.3
	L2349.5,5273.2z M1252,6386.4c1.5,0.3,2.8-1.2,2.3-2.6l-26-75.3c-0.5-1.4-2.4-1.8-3.4-0.6l-52.2,60.2c-1,1.2-0.4,3,1.1,3.3
	L1252,6386.4z M1339.4,6285.5c0.5,1.5-0.8,2.9-2.3,2.6l-78.2-15.1c-1.5-0.3-2.1-2.1-1.1-3.3l52.2-60.2c1-1.2,2.9-0.8,3.4,0.7
	L1339.4,6285.5z M1422.3,6189.9c1.5,0.3,2.8-1.2,2.3-2.6l-26-75.3c-0.5-1.5-2.4-1.8-3.4-0.6l-52.2,60.2c-1,1.2-0.4,3,1.1,3.3
	L1422.3,6189.9z M1509.7,6089.1c0.5,1.5-0.8,2.9-2.3,2.6l-78.2-15.1c-1.5-0.3-2.1-2.1-1.1-3.3l52.2-60.2c1-1.2,2.9-0.8,3.4,0.7
	L1509.7,6089.1z M1592.6,5993.5c1.5,0.3,2.8-1.2,2.3-2.6l-26-75.3c-0.5-1.5-2.4-1.8-3.4-0.7l-52.2,60.2c-1,1.2-0.4,3,1.1,3.3
	L1592.6,5993.5z M1680,5892.7c0.5,1.4-0.8,2.9-2.3,2.6l-78.2-15.1c-1.5-0.3-2.1-2.1-1.1-3.3l52.2-60.2c1-1.2,2.9-0.8,3.4,0.7
	L1680,5892.7z M1762.9,5797.1c1.5,0.3,2.8-1.2,2.3-2.6l-26-75.3c-0.5-1.5-2.4-1.8-3.4-0.7l-52.2,60.2c-1,1.2-0.4,3,1.1,3.3
	L1762.9,5797.1z M1850.4,5696.2c0.5,1.4-0.8,2.9-2.3,2.6l-78.2-15.1c-1.5-0.3-2.1-2.1-1.1-3.3l52.2-60.2c1-1.2,2.9-0.8,3.4,0.7
	L1850.4,5696.2z M1933.3,5600.6c1.5,0.3,2.8-1.2,2.3-2.6l-26-75.3c-0.5-1.5-2.4-1.8-3.4-0.7l-52.2,60.2c-1,1.2-0.4,3,1.1,3.3
	L1933.3,5600.6z M2020.7,5499.8c0.5,1.4-0.8,2.9-2.3,2.6l-78.2-15.1c-1.5-0.3-2.1-2.1-1.1-3.3l52.2-60.2c1-1.2,2.9-0.8,3.4,0.7
	L2020.7,5499.8z M2103.6,5404.2c1.5,0.3,2.8-1.2,2.3-2.6l-26-75.3c-0.5-1.5-2.4-1.8-3.4-0.6l-52.2,60.2c-1,1.2-0.4,3,1.1,3.3
	L2103.6,5404.2z M2191,5303.3c0.5,1.5-0.8,2.9-2.3,2.6l-78.2-15.1c-1.5-0.3-2.1-2.1-1.1-3.3l52.2-60.2c1-1.2,2.9-0.8,3.4,0.7
	L2191,5303.3z M2273.9,5207.7c1.5,0.3,2.8-1.2,2.3-2.6l-26-75.3c-0.5-1.5-2.4-1.8-3.4-0.6l-52.2,60.2c-1,1.2-0.4,3,1.1,3.3
	L2273.9,5207.7z"/>
    <linearGradient id="SVGID_3_" gradientUnits="userSpaceOnUse" x1="99.8188" y1="-2473.3557" x2="1391.8757"
                    y2="-1396.3655" gradientTransform="matrix(1 0 0 1 0 5892.0928)">
	<stop offset="0" style="stop-color:#99FFF0"/>
        <stop offset="0.5088" style="stop-color:#1A6358"/>
        <stop offset="0.8838" style="stop-color:#020E0C"/>
</linearGradient>
    <path class="st2" d="M214.6,3380.8c-37.6-8.1-69.9,27.6-58.1,64.2L670,5037.1c11.8,36.6,58.9,46.7,84.7,18.2l1122.1-1240.8
	c25.8-28.6,11.1-74.3-26.6-82.4L214.6,3380.8z"/>
</svg>
