<svg width="1124" height="1144" viewBox="0 0 1124 1144" fill="none" xmlns="http://www.w3.org/2000/svg">
<path fill-rule="evenodd" clip-rule="evenodd" d="M342.491 -278.527C342.092 -280.014 343.453 -281.375 344.94 -280.976L421.9 -260.355C423.387 -259.957 423.885 -258.098 422.796 -257.009L366.458 -200.671C365.369 -199.582 363.51 -200.08 363.112 -201.567L342.491 -278.527ZM250.567 -186.603C250.168 -188.09 251.529 -189.451 253.016 -189.053L329.976 -168.431C331.463 -168.033 331.961 -166.174 330.872 -165.085L274.534 -108.747C273.446 -107.658 271.587 -108.156 271.188 -109.644L250.567 -186.603ZM161.093 -97.1287C159.605 -97.5272 158.245 -96.1663 158.643 -94.6792L179.264 -17.7197C179.663 -16.2326 181.522 -15.7345 182.61 -16.8231L238.949 -73.1614C240.037 -74.25 239.539 -76.109 238.052 -76.5074L161.093 -97.1287ZM66.7191 -2.75531C66.3207 -4.24246 67.6815 -5.60327 69.1686 -5.2048L146.128 15.4164C147.615 15.8149 148.113 17.6738 147.025 18.7625L90.6865 75.1008C89.5978 76.1894 87.7389 75.6913 87.3404 74.2042L66.7191 -2.75531ZM-22.7552 86.7191C-24.2424 86.3206 -25.6032 87.6814 -25.2047 89.1685L-4.5835 166.128C-4.18503 167.615 -2.32608 168.113 -1.23743 167.025L55.1008 110.686C56.1895 109.598 55.6914 107.739 54.2043 107.34L-22.7552 86.7191ZM-117.129 181.092C-117.527 179.605 -116.166 178.244 -114.679 178.643L-37.7196 199.264C-36.2325 199.663 -35.7344 201.522 -36.8231 202.61L-93.1613 258.949C-94.25 260.037 -96.1089 259.539 -96.5074 258.052L-117.129 181.092ZM-206.603 270.567C-208.09 270.168 -209.451 271.529 -209.052 273.016L-188.431 349.976C-188.033 351.463 -186.174 351.961 -185.085 350.872L-128.747 294.534C-127.658 293.445 -128.156 291.587 -129.643 291.188L-206.603 270.567ZM-300.976 364.94C-301.375 363.453 -300.014 362.092 -298.527 362.491L-221.567 383.112C-220.08 383.51 -219.582 385.369 -220.671 386.458L-277.009 442.796C-278.098 443.885 -279.957 443.387 -280.355 441.9L-300.976 364.94ZM415.651 -210.266C414.164 -210.664 412.803 -209.303 413.201 -207.816L433.823 -130.857C434.221 -129.37 436.08 -128.872 437.169 -129.96L493.507 -186.298C494.596 -187.387 494.098 -189.246 492.61 -189.645L415.651 -210.266ZM321.278 -115.892C320.879 -117.38 322.24 -118.74 323.727 -118.342L400.687 -97.7207C402.174 -97.3222 402.672 -95.4632 401.583 -94.3746L345.245 -38.0363C344.156 -36.9477 342.297 -37.4458 341.899 -38.9329L321.278 -115.892ZM231.803 -26.418C230.316 -26.8165 228.955 -25.4557 229.354 -23.9685L249.975 52.991C250.373 54.4781 252.232 54.9762 253.321 53.8875L309.659 -2.45071C310.748 -3.53937 310.25 -5.39828 308.763 -5.79678L231.803 -26.418ZM137.43 67.9554C137.031 66.4682 138.392 65.1074 139.879 65.5059L216.839 86.1271C218.326 86.5256 218.824 88.3845 217.735 89.4732L161.397 145.811C160.308 146.9 158.45 146.402 158.051 144.915L137.43 67.9554ZM47.9554 157.43C46.4683 157.031 45.1075 158.392 45.506 159.879L66.1272 236.839C66.5257 238.326 68.3846 238.824 69.4732 237.735L125.811 181.397C126.9 180.308 126.402 178.449 124.915 178.051L47.9554 157.43ZM-46.4179 251.803C-46.8164 250.316 -45.4556 248.955 -43.9684 249.354L32.9911 269.975C34.4782 270.373 34.9763 272.232 33.8876 273.321L-22.4506 329.659C-23.5393 330.748 -25.3982 330.25 -25.7967 328.763L-46.4179 251.803ZM-135.892 341.277C-137.379 340.879 -138.74 342.24 -138.342 343.727L-117.721 420.686C-117.322 422.174 -115.463 422.672 -114.374 421.583L-58.0362 365.245C-56.9476 364.156 -57.4457 362.297 -58.9328 361.899L-135.892 341.277ZM-230.266 435.651C-230.664 434.164 -229.303 432.803 -227.816 433.201L-150.857 453.823C-149.37 454.221 -148.871 456.08 -149.96 457.169L-206.298 513.507C-207.387 514.596 -209.246 514.098 -209.644 512.61L-230.266 435.651ZM486.362 -139.555C484.875 -139.954 483.514 -138.593 483.912 -137.106L504.533 -60.1461C504.932 -58.659 506.791 -58.1609 507.879 -59.2495L564.218 -115.588C565.306 -116.676 564.808 -118.535 563.321 -118.934L486.362 -139.555ZM391.988 -45.1817C391.59 -46.6689 392.951 -48.0297 394.438 -47.6312L471.397 -27.01C472.884 -26.6115 473.383 -24.7526 472.294 -23.6639L415.956 32.6743C414.867 33.763 413.008 33.2649 412.609 31.7778L391.988 -45.1817ZM302.514 44.2927C301.027 43.8942 299.666 45.255 300.064 46.7422L320.686 123.702C321.084 125.189 322.943 125.687 324.032 124.598L380.37 68.26C381.459 67.1713 380.961 65.3124 379.473 64.9139L302.514 44.2927ZM208.141 138.666C207.742 137.179 209.103 135.818 210.59 136.217L287.549 156.838C289.037 157.236 289.535 159.095 288.446 160.184L232.108 216.522C231.019 217.611 229.16 217.113 228.762 215.626L208.141 138.666ZM118.666 228.14C117.179 227.742 115.818 229.103 116.217 230.59L136.838 307.549C137.236 309.037 139.095 309.535 140.184 308.446L196.522 252.108C197.611 251.019 197.113 249.16 195.626 248.762L118.666 228.14ZM24.2928 322.514C23.8943 321.027 25.2551 319.666 26.7422 320.064L103.702 340.686C105.189 341.084 105.687 342.943 104.598 344.032L48.26 400.37C47.1714 401.459 45.3125 400.96 44.914 399.473L24.2928 322.514ZM-65.1816 411.988C-66.6688 411.59 -68.0296 412.951 -67.6311 414.438L-47.0099 491.397C-46.6114 492.884 -44.7525 493.382 -43.6638 492.294L12.6744 435.955C13.7631 434.867 13.265 433.008 11.7779 432.609L-65.1816 411.988ZM-159.555 506.362C-159.953 504.874 -158.593 503.514 -157.106 503.912L-80.146 524.533C-78.6589 524.932 -78.1608 526.791 -79.2494 527.879L-135.588 584.218C-136.676 585.306 -138.535 584.808 -138.934 583.321L-159.555 506.362ZM557.072 -68.8444C555.585 -69.2429 554.224 -67.8821 554.623 -66.3949L575.244 10.5646C575.643 12.0517 577.501 12.5498 578.59 11.4612L634.928 -44.8771C636.017 -45.9658 635.519 -47.8247 634.032 -48.2232L557.072 -68.8444ZM462.699 25.529C462.3 24.0418 463.661 22.681 465.148 23.0795L542.108 43.7007C543.595 44.0992 544.093 45.9581 543.005 47.0468L486.666 103.385C485.578 104.474 483.719 103.976 483.32 102.488L462.699 25.529ZM373.225 115.003C371.737 114.605 370.377 115.966 370.775 117.453L391.396 194.412C391.795 195.899 393.654 196.398 394.742 195.309L451.081 138.971C452.169 137.882 451.671 136.023 450.184 135.625L373.225 115.003ZM278.851 209.377C278.453 207.89 279.814 206.529 281.301 206.927L358.26 227.548C359.747 227.947 360.245 229.806 359.157 230.895L302.818 287.233C301.73 288.321 299.871 287.823 299.472 286.336L278.851 209.377ZM189.377 298.851C187.89 298.453 186.529 299.813 186.927 301.301L207.549 378.26C207.947 379.747 209.806 380.245 210.895 379.157L267.233 322.818C268.322 321.73 267.823 319.871 266.336 319.472L189.377 298.851ZM95.0034 393.224C94.6049 391.737 95.9658 390.376 97.4529 390.775L174.412 411.396C175.9 411.795 176.398 413.654 175.309 414.742L118.971 471.081C117.882 472.169 116.023 471.671 115.625 470.184L95.0034 393.224ZM5.52902 482.699C4.0419 482.3 2.68106 483.661 3.07953 485.148L23.7008 562.108C24.0992 563.595 25.9582 564.093 27.0468 563.004L83.3851 506.666C84.4738 505.577 83.9757 503.719 82.4885 503.32L5.52902 482.699ZM-88.8443 577.072C-89.2428 575.585 -87.882 574.224 -86.3948 574.623L-9.43536 595.244C-7.94821 595.642 -7.4501 597.501 -8.53879 598.59L-64.877 654.928C-65.9657 656.017 -67.8246 655.519 -68.2231 654.032L-88.8443 577.072ZM719.707 -90.0576C718.22 -90.4561 716.859 -89.0953 717.257 -87.6081L737.879 -10.6486C738.277 -9.1615 740.136 -8.66339 741.225 -9.75204L797.563 -66.0903C798.652 -67.179 798.154 -69.0379 796.666 -69.4364L719.707 -90.0576ZM625.333 4.31577C624.935 2.82861 626.296 1.46777 627.783 1.86627L704.742 22.4875C706.23 22.886 706.728 24.7449 705.639 25.8336L649.301 82.1718C648.212 83.2605 646.353 82.7624 645.955 81.2752L625.333 4.31577ZM535.859 93.7901C534.372 93.3917 533.011 94.7525 533.41 96.2396L554.031 173.199C554.429 174.686 556.288 175.184 557.377 174.096L613.715 117.757C614.804 116.669 614.306 114.81 612.819 114.411L535.859 93.7901ZM441.486 188.164C441.087 186.676 442.448 185.316 443.935 185.714L520.895 206.335C522.382 206.734 522.88 208.593 521.791 209.681L465.453 266.02C464.364 267.108 462.505 266.61 462.107 265.123L441.486 188.164ZM352.011 277.638C350.524 277.239 349.163 278.6 349.562 280.087L370.183 357.047C370.582 358.534 372.44 359.032 373.529 357.943L429.867 301.605C430.956 300.517 430.458 298.658 428.971 298.259L352.011 277.638ZM257.638 372.011C257.24 370.524 258.6 369.163 260.087 369.562L337.047 390.183C338.534 390.582 339.032 392.44 337.944 393.529L281.605 449.867C280.517 450.956 278.658 450.458 278.259 448.971L257.638 372.011ZM168.164 461.486C166.676 461.087 165.316 462.448 165.714 463.935L186.335 540.895C186.734 542.382 188.593 542.88 189.681 541.791L246.02 485.453C247.108 484.364 246.61 482.505 245.123 482.107L168.164 461.486ZM73.7902 555.859C73.3917 554.372 74.7526 553.011 76.2397 553.41L153.199 574.031C154.686 574.429 155.184 576.288 154.096 577.377L97.7575 633.715C96.6689 634.804 94.8099 634.306 94.4114 632.819L73.7902 555.859ZM-15.6842 645.333C-17.1713 644.935 -18.5321 646.296 -18.1337 647.783L2.48758 724.742C2.88605 726.23 4.74496 726.728 5.83365 725.639L62.1719 669.301C63.2606 668.212 62.7625 666.353 61.2753 665.955L-15.6842 645.333ZM-110.058 739.707C-110.456 738.22 -109.095 736.859 -107.608 737.257L-30.6486 757.879C-29.1614 758.277 -28.6633 760.136 -29.752 761.225L-86.0902 817.563C-87.1789 818.652 -89.0378 818.153 -89.4363 816.666L-110.058 739.707ZM882.341 -111.271C880.854 -111.669 879.493 -110.308 879.892 -108.821L900.513 -31.8618C900.912 -30.3747 902.771 -29.8766 903.859 -30.9653L960.198 -87.3035C961.286 -88.3922 960.788 -90.2511 959.301 -90.6496L882.341 -111.271ZM787.968 -16.8975C787.57 -18.3846 788.93 -19.7454 790.418 -19.347L867.377 1.27429C868.864 1.67276 869.362 3.53171 868.274 4.62036L811.935 60.9586C810.847 62.0473 808.988 61.5492 808.589 60.062L787.968 -16.8975ZM698.494 72.5769C697.007 72.1785 695.646 73.5393 696.044 75.0264L716.665 151.986C717.064 153.473 718.923 153.971 720.011 152.883L776.35 96.5443C777.438 95.4556 776.94 93.5966 775.453 93.1982L698.494 72.5769ZM604.12 166.95C603.722 165.463 605.083 164.102 606.57 164.501L683.529 185.122C685.016 185.521 685.515 187.379 684.426 188.468L628.088 244.806C626.999 245.895 625.14 245.397 624.742 243.91L604.12 166.95ZM514.646 256.425C513.159 256.026 511.798 257.387 512.196 258.874L532.818 335.834C533.216 337.321 535.075 337.819 536.164 336.73L592.502 280.392C593.591 279.303 593.093 277.444 591.605 277.046L514.646 256.425ZM420.273 350.798C419.874 349.311 421.235 347.95 422.722 348.349L499.682 368.97C501.169 369.368 501.667 371.227 500.578 372.316L444.24 428.654C443.151 429.743 441.292 429.245 440.894 427.758L420.273 350.798ZM330.798 440.272C329.311 439.874 327.95 441.235 328.349 442.722L348.97 519.681C349.368 521.169 351.227 521.667 352.316 520.578L408.654 464.24C409.743 463.151 409.245 461.292 407.758 460.894L330.798 440.272ZM236.425 534.646C236.026 533.159 237.387 531.798 238.874 532.196L315.834 552.818C317.321 553.216 317.819 555.075 316.73 556.164L260.392 612.502C259.303 613.591 257.444 613.092 257.046 611.605L236.425 534.646ZM146.95 624.12C145.463 623.722 144.102 625.083 144.501 626.57L165.122 703.529C165.521 705.016 167.38 705.514 168.468 704.426L224.806 648.087C225.895 646.999 225.397 645.14 223.91 644.741L146.95 624.12ZM52.577 718.494C52.1785 717.006 53.5394 715.646 55.0265 716.044L131.986 736.665C133.473 737.064 133.971 738.923 132.883 740.011L76.5443 796.35C75.4557 797.438 73.5967 796.94 73.1982 795.453L52.577 718.494ZM-36.8974 807.968C-38.3845 807.569 -39.7453 808.93 -39.3469 810.418L-18.7256 887.377C-18.3271 888.864 -16.4682 889.362 -15.3796 888.274L40.9587 831.935C42.0474 830.847 41.5493 828.988 40.0621 828.589L-36.8974 807.968ZM-131.271 902.341C-131.669 900.854 -130.308 899.493 -128.821 899.892L-51.8617 920.513C-50.3746 920.912 -49.8765 922.771 -50.9652 923.859L-107.303 980.197C-108.392 981.286 -110.251 980.788 -110.649 979.301L-131.271 902.341ZM1044.98 -132.484C1043.49 -132.883 1042.13 -131.522 1042.53 -130.035L1063.15 -53.075C1063.55 -51.5879 1065.41 -51.0898 1066.49 -52.1785L1122.83 -108.517C1123.92 -109.605 1123.42 -111.464 1121.94 -111.863L1044.98 -132.484ZM950.603 -38.1107C950.204 -39.5978 951.565 -40.9586 953.052 -40.5602L1030.01 -19.9389C1031.5 -19.5404 1032 -17.6815 1030.91 -16.5928L974.57 39.7454C973.481 40.8341 971.622 40.336 971.224 38.8488L950.603 -38.1107ZM861.128 51.3637C859.641 50.9653 858.28 52.3261 858.679 53.8132L879.3 130.773C879.698 132.26 881.557 132.758 882.646 131.669L938.984 75.331C940.073 74.2424 939.575 72.3835 938.088 71.985L861.128 51.3637ZM766.755 145.737C766.356 144.25 767.717 142.889 769.204 143.288L846.164 163.909C847.651 164.307 848.149 166.166 847.06 167.255L790.722 223.593C789.634 224.682 787.775 224.184 787.376 222.697L766.755 145.737ZM677.28 235.212C675.793 234.813 674.432 236.174 674.831 237.661L695.452 314.62C695.851 316.108 697.71 316.606 698.798 315.517L755.136 259.179C756.225 258.09 755.727 256.231 754.24 255.833L677.28 235.212ZM582.907 329.585C582.509 328.098 583.869 326.737 585.357 327.135L662.316 347.757C663.803 348.155 664.301 350.014 663.213 351.103L606.874 407.441C605.786 408.53 603.927 408.032 603.528 406.544L582.907 329.585ZM493.433 419.059C491.946 418.661 490.585 420.022 490.983 421.509L511.604 498.468C512.003 499.955 513.862 500.453 514.951 499.365L571.289 443.027C572.377 441.938 571.879 440.079 570.392 439.681L493.433 419.059ZM399.059 513.433C398.661 511.945 400.022 510.585 401.509 510.983L478.468 531.604C479.955 532.003 480.454 533.862 479.365 534.95L423.027 591.289C421.938 592.377 420.079 591.879 419.681 590.392L399.059 513.433ZM309.585 602.907C308.098 602.509 306.737 603.869 307.135 605.356L327.757 682.316C328.155 683.803 330.014 684.301 331.103 683.213L387.441 626.874C388.53 625.786 388.032 623.927 386.544 623.528L309.585 602.907ZM215.212 697.28C214.813 695.793 216.174 694.432 217.661 694.831L294.621 715.452C296.108 715.851 296.606 717.71 295.517 718.798L239.179 775.137C238.09 776.225 236.231 775.727 235.833 774.24L215.212 697.28ZM125.737 786.755C124.25 786.356 122.889 787.717 123.288 789.204L143.909 866.164C144.307 867.651 146.166 868.149 147.255 867.06L203.593 810.722C204.682 809.633 204.184 807.774 202.697 807.376L125.737 786.755ZM31.3638 881.128C30.9653 879.641 32.3262 878.28 33.8133 878.679L110.773 899.3C112.26 899.698 112.758 901.557 111.669 902.646L55.3311 958.984C54.2425 960.073 52.3835 959.575 51.985 958.088L31.3638 881.128ZM-58.1106 970.603C-59.5977 970.204 -60.9585 971.565 -60.5601 973.052L-39.9388 1050.01C-39.5403 1051.5 -37.6814 1052 -36.5928 1050.91L19.7455 994.57C20.8342 993.481 20.3361 991.622 18.8489 991.224L-58.1106 970.603ZM-152.484 1064.98C-152.882 1063.49 -151.522 1062.13 -150.034 1062.53L-73.075 1083.15C-71.5878 1083.55 -71.0897 1085.41 -72.1784 1086.49L-128.517 1142.83C-129.605 1143.92 -131.464 1143.42 -131.863 1141.94L-152.484 1064.98Z" fill="url(#paint0_linear_119_1320)"/>
<defs>
<linearGradient id="paint0_linear_119_1320" x1="-26.1924" y1="-23.1605" x2="751.5" y2="445" gradientUnits="userSpaceOnUse">
<stop offset="0.120557" stop-color="#99FFF0"/>
<stop offset="0.373864" stop-color="#1A6358"/>
<stop offset="1" stop-color="#020E0C"/>
</linearGradient>
</defs>
</svg>
