<svg xmlns="http://www.w3.org/2000/svg" viewBox="0 0 3710 3710">
    <style>
        #prop-1 { animation: show 0.3s steps(1) 0s infinite; }
        #prop-2 { animation: show 0.3s steps(1) 0.1s infinite; }
        #prop-3 { animation: show 0.3s steps(1) 0.2s infinite; opacity: 0; }
        @keyframes show {
        0%   { opacity: 1; }
        33%  { opacity: 0; }
        100% { opacity: 0; }
        }
    </style>
    <g id="platform">
		<g id="ground">
            <path fill="DarkGreen" opacity="0.5" d="M0,2427.5c635.5,1855.2,2871.6,770.3,3540.1,147C2220.4,1556.2,812.1,1710.4,0,2427.5z"/>

            <path fill="OliveDrab" opacity="0.7" d="M36.1,2546.7c1063.8-790.1,2269.4-724.6,3444.1,81.3l-216.3,145.3c-1001.4-799-2085.3-785.9-3111.8-37.2
				L36.1,2546.7z"/>

            <path fill="DarkGreen" opacity="0.8"
                  d="M331,2796.3c1816-695.7,1985.7-882.6,3379-616.8c-73.3,385.2-362.7,841.6-718.2,1131.1L331,2796.3z"/>

            <path fill="DarkGreen" opacity="1" d="M702.8,2869.9c1092.7-573,2096.9-810.1,2965-531.5l-94.2,234.3c-806.4-290-1389.1-124.7-2388.9,391.5
				L702.8,2869.9z"/>

            <path fill="DarkGreen" opacity="0.5"
                  d="M24.4,2516.6c816.7,1823.3,3029.1,1306.9,3515.6,117C1688.3,3104.6,1789.2,1537.8,24.4,2516.6z"/>

            <path fill="OliveDrab" opacity="0.4" d="M3245,3086.8c126.2-135,227.4-287.6,295.1-453.2c-1840.8,468.2-1752-1077.3-3484.6-134
				C1784.6,1561.6,1404.3,3555,3245,3086.8z"/>
		</g>
        <g>
			<path fill="green" d="M376.4,2558.9c0,3.6-2.9,6.6-6.5,6.6l0,0c-3.6,0-6.6-2.9-6.6-6.5l-0.5-232.9c0-3.6,2.9-6.6,6.5-6.6l0,0
				c3.6,0,6.6,2.9,6.6,6.5L376.4,2558.9z"/>
            <path fill="green" d="M366.9,2441.9c-10.3,5.7-44.6-29.5-68.1-67.8c-15.3-24.9-8.8-27.1-21.1-44.6c-28.8-40.8-63-35.5-75.9-68.3
				c-9.3-23.6,6.6-31.4-2.8-52.6c-17.1-38.8-78.3-31.7-84.2-58.1c-3.9-17.4,18.2-40.7,40.3-50.7c61.9-27.9,169.7,32.1,193.9,109.4
				c13,41.5-8.8,54.2,1.8,134.4C358.7,2403.3,376.1,2436.8,366.9,2441.9z"/>
            <path fill="green" d="M362.9,2324.6c0,0,35.8-177.5,137.1-133.2c101.2,44.3,17.7,103.5-34.2,105.3c-51.9,1.7-34.5,3.9-58,24.6
				C384.2,2341.9,347,2376.5,362.9,2324.6z"/>
            <path fill="darkgreen" d="M154.2,2133.2c15-2.6,30.4-3.7,45.8-2.3l5.8,0.6c1.9,0.2,3.8,0.7,5.7,1c3.9,0.6,7.6,1.7,11.4,2.8
				c7.5,2.4,14.8,5.4,21.5,9.6c3.5,1.9,6.6,4.4,9.8,6.7c3,2.6,6.1,5,8.8,7.9c5.7,5.5,10.5,11.8,15.1,18.1c8.8,13,15.6,27,21.4,41.3
				c11.4,28.7,19.3,58.3,26.1,87.9c6.9,29.7,12.7,59.5,17.8,89.6c-9.1-29.1-17.1-58.4-25.4-87.6c-4.2-14.6-8.2-29.2-12.9-43.6
				c-4.5-14.4-9.3-28.7-15-42.6c-5.5-13.9-12-27.4-20-39.7c-8.1-12.2-17.9-23.4-30.1-31.4c-12-8.2-26.2-13.2-40.9-15.8
				C184.6,2133.1,169.4,2132.8,154.2,2133.2z"/>
            <path fill="darkgreen" d="M376.4,2319.5c4.2-14.9,9.4-29.5,16.4-43.5c6.9-13.9,15.7-27.5,27.9-38.3c6.1-5.3,13-9.9,20.6-13.1
				c7.6-3.1,15.6-5.2,23.7-5.5c16.2-1,31.8,3.2,45.8,9.7c-15.2-2.5-30.4-4.2-44.9-1.9c-14.5,2.2-27.6,8.8-38.4,18.4
				c-5.5,4.7-10.4,10.2-14.9,16.1c-4.6,5.8-8.7,12.1-12.8,18.5C391.6,2292.7,384.3,2306.2,376.4,2319.5z"/>
		</g>
        <g>
			<path fill="green" d="M881.8,3131.1c0,3,2.7,5.4,6.1,5.4l0,0c3.4,0,6.1-2.4,6.1-5.4l0.5-190.4c0-3-2.7-5.4-6.1-5.4l0,0
				c-3.4,0-6.1,2.4-6.1,5.4L881.8,3131.1z"/>
            <path fill="green" d="M890.6,3035.4c9.6,4.6,41.7-24.2,63.6-55.4c14.3-20.3,8.2-22.2,19.8-36.4c26.9-33.4,58.9-29.1,70.9-55.8
				c8.7-19.3-6.2-25.6,2.6-43c16-31.8,73.2-25.9,78.7-47.5c3.6-14.2-17-33.3-37.7-41.4c-57.8-22.8-158.6,26.2-181.1,89.4
				c-12.1,34,8.2,44.3-1.6,109.9C898.3,3003.9,882,3031.3,890.6,3035.4z"/>
            <path fill="green" d="M894.4,2939.5c0,0-33.5-145.2-128.1-108.9s-16.5,84.6,31.9,86.1c48.5,1.4,32.2,3.2,54.2,20.1
				C874.4,2953.7,909.2,2981.9,894.4,2939.5z"/>
            <path fill="darkgreen" d="M1089.3,2783.1c-14-2.4-28.4-3.4-42.9-2.3c-3.6,0.3-7.2,0.6-10.8,1.3c-3.6,0.5-7.2,1.4-10.7,2.2
				c-7,1.9-14,4.4-20.3,7.8c-3.3,1.5-6.2,3.6-9.3,5.5c-2.8,2.1-5.8,4.1-8.3,6.5c-5.4,4.5-9.9,9.7-14.3,14.9
				c-8.3,10.7-14.7,22.2-20.2,33.9c-10.6,23.5-18,47.8-24.2,72.1c-6.3,24.3-11.5,48.8-15.8,73.4c9-23.7,16.6-47.6,24.5-71.4
				c4-11.9,7.8-23.8,12.2-35.5c4.2-11.8,8.7-23.4,14-34.7c5.1-11.3,11.1-22.3,18.5-32.4c7.5-9.9,16.5-19,27.7-25.6
				c11.1-6.7,24.2-10.9,37.9-13.1C1060.9,2783.3,1075.1,2782.9,1089.3,2783.1z"/>
            <path fill="darkgreen" d="M881.8,2935.3c-3.5-12.3-8.2-24.3-14.6-35.9c-6.4-11.5-14.5-22.7-26.1-31.6c-11.4-8.9-26.7-14.7-42-15.1
				c-15.3-0.7-29.9,2.9-42.9,8.5c14.4-1.6,28.5-2.6,41.9-0.7c13.3,2,25.3,7.1,35.3,14.9c10.1,7.7,18.2,17.6,25.9,27.9
				C866.9,2913.7,873.9,2924.6,881.8,2935.3z"/>
		</g>
        <g>
			<path fill="green" d="M2719.4,1850.6c-2.2-47.9-29.8-97.8-48-145.3c-9.6-25.1-16.9-50.4-17.9-77.4c-1.1-26.8,5.5-57.4-10.9-81.1
				c-33.1-47.7-82.4-13.1-105.5,32.4c-26.8,52.8-21.7,129.3-23.8,189.4c-1.3,36.2-6.6,74.2-3.9,110.3c4.5,59.8,25.8,97.8,59.2,119.6
				c32.1,20.9,74,18.2,103.1-6.6C2698.1,1969.5,2723,1927.8,2719.4,1850.6z"/>
            <path fill="gray" d="M2638.2,2093c0.6,0.1,1.3,0,1.9-0.2c2-0.8,3.1-3.1,2.3-5.1c-1-2.7-102.6-273.4-56.7-515.7
				c0.4-2.1-1-4.2-3.2-4.6c-2.1-0.4-4.2,1-4.6,3.2c-46.3,244.5,56.1,517.3,57.1,520C2635.5,2091.9,2636.7,2092.8,2638.2,2093z"/>
		</g>
        <g>
			<path fill="darkgreen" d="M2654.2,1783.7c-7.3-65.7,19.4-139.7,34.1-208.3c7.7-36.3,12.1-72.4,7.7-109.4c-4.4-36.8-20-77.1-2.7-112.9
				c34.9-72.1,109.4-35.7,150.7,21.3c47.9,66.2,57.5,171.5,73.4,253c9.6,49.1,25,99.7,29.1,149.5c6.8,82.5-14.1,138.8-54.9,175.7
				c-39.2,35.4-96.9,40.8-141.9,13.3C2709,1941.1,2666,1889.7,2654.2,1783.7z"/>
            <path fill="grey" d="M2816.5,2092.8c0.5-0.2,0.9-0.7,1-1.3c7.1-34,21.9-127.3,26.6-237.2c3.5-80.7,1.4-158.7-6.3-231.8
				c-9.6-91.5-28-175.5-54.7-249.9c-0.3-0.9-1.4-1.4-2.3-1.1c-1,0.3-1.4,1.4-1.1,2.3c26.6,74.1,44.9,157.9,54.5,249
				c7.7,72.9,9.8,150.7,6.3,231.2c-4.7,109.7-19.4,202.8-26.6,236.7c-0.2,1,0.4,2,1.4,2.2C2815.8,2093.1,2816.2,2093,2816.5,2092.8z
				"/>
		</g>
        <g>
            <path fill="green" d="M3199.8,1815.4c7.9-71.1-21-151.2-36.9-225.4c-8.4-39.2-13.1-78.3-8.3-118.4c4.7-39.8,21.6-83.4,2.9-122.1
				c-37.7-78.1-118.4-38.6-163.1,23.1c-51.8,71.6-62.2,185.6-79.4,273.8c-10.4,53.2-27.1,107.9-31.5,161.8
				c-7.4,89.3,15.2,150.2,59.4,190.2c42.4,38.3,104.8,44.1,153.6,14.3C3140.5,1985.8,3187.1,1930.2,3199.8,1815.4z"/>
            <path fill="grey" d="M3024.1,2150c-0.6-0.3-1-0.8-1.1-1.4c-7.7-36.8-23.7-137.8-28.8-256.7c-3.8-87.3-1.5-171.7,6.9-250.9
				c10.4-99,30.3-190,59.2-270.5c0.4-1,1.5-1.6,2.5-1.2s1.6,1.5,1.2,2.5c-28.8,80.2-48.6,170.9-59,269.5
				c-8.3,78.9-10.6,163.1-6.9,250.3c5.1,118.7,21,219.5,28.7,256.2c0.2,1.1-0.5,2.1-1.5,2.3
				C3024.9,2150.2,3024.5,2150.1,3024.1,2150z"/>
		</g>
        <g>
			<path fill="green" d="M3269.8,2709.9c0,2.8-2.3,5.2-5.1,5.2l0,0c-2.8,0-5.2-2.3-5.2-5.1l-0.4-182.9c0-2.8,2.3-5.2,5.1-5.2l0,0
				c2.8,0,5.2,2.3,5.2,5.1L3269.8,2709.9z"/>
            <path fill="green" d="M3262.4,2618c-8.1,4.5-35-23.2-53.4-53.2c-12-19.5-6.9-21.3-16.6-35c-22.6-32.1-49.5-27.9-59.6-53.6
				c-7.3-18.6,5.2-24.6-2.2-41.3c-13.4-30.5-61.5-24.9-66.1-45.6c-3-13.6,14.3-31.9,31.7-39.8c48.6-21.9,133.3,25.2,152.2,85.9
				c10.2,32.6-6.9,42.6,1.4,105.5C3255.9,2587.8,3269.5,2614.1,3262.4,2618z"/>
            <path fill="green" d="M3259.2,2525.9c0,0,28.1-139.4,107.6-104.6c79.5,34.8,13.9,81.3-26.8,82.7s-27.1,3.1-45.6,19.3
				S3246.7,2566.7,3259.2,2525.9z"/>
            <path fill="darkgreen" d="M3095.3,2375.6c11.8-2.3,23.9-3.3,36-2.3c3,0.3,6.1,0.6,9.1,1.2c3.1,0.4,6,1.3,9,2.1
				c5.9,1.8,11.8,4.2,17.1,7.5c2.8,1.5,5.2,3.5,7.8,5.2c2.4,2.1,4.9,4,7,6.3c4.6,4.3,8.4,9.3,12,14.3c7,10.3,12.3,21.4,17,32.6
				c8.9,22.6,15.1,45.9,20.3,69.3c5.3,23.4,9.6,46.9,13.1,70.5c-7.6-22.7-14.1-45.7-20.7-68.6c-3.4-11.4-6.6-22.9-10.3-34.1
				c-3.6-11.3-7.3-22.5-11.8-33.3c-4.3-10.9-9.4-21.4-15.6-31c-6.3-9.5-13.8-18.2-23.2-24.5c-9.3-6.4-20.3-10.4-31.7-12.6
				C3119.2,2375.9,3107.3,2375.5,3095.3,2375.6z"/>
            <path fill="darkgreen" d="M3269.8,2521.9c2.9-11.9,6.8-23.4,12.1-34.5s12.2-21.9,21.9-30.5c9.6-8.6,22.5-14.1,35.4-14.5
				c12.9-0.6,25.2,2.9,36,8.3c-12.1-1.5-24-2.4-35.2-0.5s-21.2,6.9-29.6,14.3c-8.4,7.4-15.3,16.9-21.7,26.7
				C3282.3,2501.1,3276.4,2511.7,3269.8,2521.9z"/>
		</g>
        <g>
            <path fill="green" d="M828.4,1819.5c7.9-71.1-21-151.2-36.9-225.4c-8.4-39.2-13.1-78.3-8.3-118.4c4.7-39.8,21.6-83.4,2.9-122.1
                c-37.7-78.1-118.4-38.6-163.1,23.1c-51.8,71.6-62.2,185.6-79.4,273.8c-10.4,53.2-27.1,107.9-31.5,161.8
                c-7.4,89.3,15.2,150.2,59.4,190.2c42.4,38.3,104.8,44.1,153.6,14.3C769.1,1989.9,815.6,1934.3,828.4,1819.5z"/>
                <path fill="grey" d="M652.7,2154.1c-0.6-0.3-1-0.8-1.1-1.4c-7.7-36.8-23.7-137.8-28.8-256.7c-3.8-87.3-1.5-171.7,6.9-250.9
                c10.4-99,30.3-190,59.2-270.5c0.4-1,1.5-1.6,2.5-1.2s1.6,1.5,1.2,2.5c-28.8,80.2-48.6,170.9-59,269.5
                c-8.3,78.9-10.6,163.1-6.9,250.3c5.1,118.7,21,219.5,28.7,256.2c0.2,1.1-0.5,2.1-1.5,2.3C653.5,2154.3,653,2154.3,652.7,2154.1z"
                />
        </g>
        <g>
            <path fill="darkgreen" d="M756.1,1791.8c-3.1-47,28.6-100.7,47.8-150.2c10.1-26.2,16.9-52.2,14.8-78.7c-2-26.3-15.2-54.8,4.6-80.9
                c39.9-52.6,112.9-28.1,150.9,11.8c44.1,46.4,47,121.7,57.9,179.8c6.5,35,18.8,71,19.8,106.6c1.6,59-23.1,99.9-66.8,127.3
                c-41.8,26.3-100.5,31.5-144.2,12.8C801.3,1903.4,761.2,1867.5,756.1,1791.8z"/>
                <path fill="grey" d="M900.8,2012.3c-0.9,0.2-1.8,0.2-2.7,0.1c-2.9-0.4-4.7-2.4-3.8-4.5c1.1-2.8,106.9-285,11.6-512.1
                c-0.8-2,0.8-4.3,3.8-5.1c2.9-0.8,6,0.2,6.8,2.2c96.3,229.2-10.5,513.5-11.5,516.4C904.3,2010.8,902.7,2011.9,900.8,2012.3z"/>
        </g>
    </g>
    <g id="drone">
        <g id="main" >
            <path fill="#1EEBCD"
                  d="M1732,536.2c0,0-577-15.6-616,11.7s-15.6,89.7,0,101.4s432.7,74.1,432.7,74.1L1732,536.2z"/>

            <path fill="#1EEBCD"
                  d="M1806,536.2c0,0,577-15.6,616,11.7s15.6,89.7,0,101.4s-432.7,74.1-432.7,74.1L1806,536.2z"/>

            <path fill="#1EEBCD" opacity="0.8" d="M1811.6,522.6c38.8,0,76.7,11.1,109.3,32.1c101.4,65.2,330.6,209,414.5,233
			c109.2,31.2,179.3,42.9,183.2,89.7s-74.1,89.7-183.2,58.5c-112.6-32.2-337.3,19.5-409.9,40.1c-15.8,4.5-32.1,6.7-48.5,6.7h-238.3
			c-16.4,0-32.7-2.2-48.5-6.7c-72.6-20.6-297.3-72.2-409.9-40.1c-109.2,31.2-187.1-11.7-183.2-58.5c3.9-46.8,74.1-58.5,183.2-89.7
			c83.9-24,313-167.8,414.5-233c32.6-21,70.6-32.1,109.3-32.1H1811.6L1811.6,522.6z"/>
            <path fill="grey" opacity="0.4" d="M1045.1,897c15.2,5.1,30.8,9,46.6,11.6c15.8,2.5,31.7,3.9,47.5,2.9c7.9-0.5,15.7-1.6,23.2-3.5
			s14.8-4.7,21.5-8.4c3.4-1.8,6.5-4,9.6-6.2c2.9-2.5,5.8-4.9,8.3-7.7c5.1-5.6,9.5-11.9,12.6-18.9l1.2-2.6l1-2.7l2-5.4l4.5-11.8
			c1.8-3.8,3.6-7.6,5.5-11.3l6.5-10.8c9.3-14,20.9-26.2,33.6-36.8c25.6-21.2,55.2-36.6,85.8-48.4c61.3-23.7,126.1-35.2,190.9-41.9
			c64.9-6.4,130.1-7.4,195.2-4.5c65,3.2,129.8,10.4,194,21.6c64.1,11.5,127.6,26.8,189,49c15.3,5.6,30.5,11.6,45.4,18.3
			c14.9,6.6,29.7,13.8,43.9,21.9c14.3,8.1,28.2,16.9,41.3,26.9l9.6,7.8c3.2,2.7,6.2,5.5,9.3,8.3s5.9,5.9,8.8,8.8
			c2.9,3,5.5,5.8,8.3,8.6c11.2,11.1,23.9,20.5,38.3,26.6c14.3,6.2,29.9,9.7,45.7,11.5s31.9,2.1,47.9,1.3c16.1-0.6,32.1-2.3,48.1-4.2
			h0.1c2.1-0.3,4.1,1.3,4.3,3.4c0.2,2.1-1.3,4.1-3.4,4.3c-16.2,2.1-32.4,4-48.7,4.7c-16.3,1-32.8,0.9-49.2-0.8s-32.9-5.2-48.4-11.7
			c-15.6-6.4-29.5-16.5-41.4-28.1c-3-2.9-5.8-6-8.6-8.9c-2.8-2.8-5.5-5.7-8.4-8.4c-3-2.6-5.8-5.4-8.9-7.9l-9.3-7.5
			c-12.7-9.6-26.3-18.2-40.2-26c-14-7.9-28.4-14.9-43.1-21.4c-14.7-6.6-29.7-12.4-44.8-17.9c-60.7-21.8-123.8-36.8-187.4-47.9
			c-63.7-11-128.1-17.8-192.6-20.9c-64.5-3.1-129.3-2.3-193.5,3.8c-64.1,6.5-128.2,17.6-188.2,40.6c-29.9,11.5-58.6,26.4-83.1,46.5
			c-12.2,10.1-23.2,21.6-31.9,34.6l-6.1,10l-5.2,10.5l-4.2,10.9l-2.3,6l-1.1,3l-1.4,2.9c-7.2,15.5-19.6,29-34.8,36.8
			c-7.5,4-15.6,7-23.8,9c-8.2,1.9-16.5,3-24.8,3.5c-16.6,0.9-33.2-0.7-49.4-3.4c-16.2-2.9-32.1-7-47.6-12.3l0,0
			c-2-0.7-3.1-2.9-2.4-5C1040.9,897.4,1043.1,896.3,1045.1,897z"/>
            <path fill="grey" opacity="0.4" d="M1854.4,951L1854.4,951c-7.5,0-13.6-6.1-13.6-13.6v-74.7c0-7.5,6.1-13.6,13.6-13.6l0,0
			c7.5,0,13.6,6.1,13.6,13.6v74.7C1867.9,944.9,1861.8,951,1854.4,951z"/>
            <path fill="grey" opacity="0.4" d="M1806.8,951L1806.8,951c-7.5,0-13.6-6.1-13.6-13.6v-74.7c0-7.5,6.1-13.6,13.6-13.6l0,0
			c7.5,0,13.6,6.1,13.6,13.6v74.7C1820.4,944.9,1814.3,951,1806.8,951z"/>
            <path fill="grey" opacity="0.4" d="M1759.3,951L1759.3,951c-7.5,0-13.6-6.1-13.6-13.6v-74.7c0-7.5,6.1-13.6,13.6-13.6l0,0
			c7.5,0,13.6,6.1,13.6,13.6v74.7C1772.9,944.9,1766.8,951,1759.3,951z"/>
            <path fill="grey" opacity="0.4" d="M1711.8,951L1711.8,951c-7.5,0-13.6-6.1-13.6-13.6v-74.7c0-7.5,6.1-13.6,13.6-13.6l0,0
			c7.5,0,13.6,6.1,13.6,13.6v74.7C1725.4,944.9,1719.3,951,1711.8,951z"/>
            <path fill="grey" opacity="0.4" d="M1664.3,951L1664.3,951c-7.5,0-13.6-6.1-13.6-13.6v-74.7c0-7.5,6.1-13.6,13.6-13.6l0,0
			c7.5,0,13.6,6.1,13.6,13.6v74.7C1677.9,944.9,1671.8,951,1664.3,951z"/>

            <path fill="silver" d="M2291.4,538.8v-65.2c0-17.6,13.3-32.3,30.7-34.3c24.3-2.8,58.8-3.6,86.8,7.5c13.8,5.5,22.3,19.5,21.3,34.4
			l-4.6,63.7c-1.1,15.7-12.7,28.6-28.2,31.5c-20.3,3.7-50.3,5.6-82.2-4.8C2301.1,567.1,2291.4,553.8,2291.4,538.8z"/>

            <path fill="silver" d="M1246.6,538.8v-65.2c0-17.6-13.3-32.3-30.7-34.3c-24.3-2.8-58.8-3.6-86.8,7.5c-13.8,5.5-22.3,19.5-21.3,34.4
			l4.6,63.7c1.1,15.7,12.7,28.6,28.2,31.5c20.3,3.7,50.3,5.6,82.2-4.8C1236.9,567.1,1246.6,553.8,1246.6,538.8z"/>

            <path fill="silver" d="M1171.2,824.9v-75.3c0-20.3-15.3-37.3-35.5-39.6c-28.1-3.2-67.9-4.2-100.4,8.7c-16,6.3-25.8,22.6-24.6,39.7
			l5.3,73.7c1.3,18.1,14.7,33.1,32.5,36.4c23.5,4.3,58.1,6.5,95-5.5C1160,857.5,1171.2,842.2,1171.2,824.9z"/>

            <path fill="silver" d="M2344.5,824.9v-75.3c0-20.3,15.3-37.3,35.5-39.6c28.1-3.2,67.9-4.2,100.4,8.7c16,6.3,25.8,22.6,24.6,39.7
			l-5.3,73.7c-1.3,18.1-14.7,33.1-32.5,36.4c-23.5,4.3-58.1,6.5-95-5.5C2355.8,857.5,2344.5,842.2,2344.5,824.9z"/>
	    </g>
        <g id="prop-1" >
            <path fill="grey"
              d="M2349.9,401.7c0,0-42.9-46.8-78-58.5s-315.8-27.3-327.5-7.8C1932.7,354.9,2346,448.5,2349.9,401.7z"/>
            <path fill="#1EEBCD" d="M2322.6,456.3l-5.6-45.1c-1.6-12.9,5.5-25.4,17.6-30.4c12.7-5.2,30.9-7.5,52.7,4.4
            c8.2,4.5,13.3,13.2,13.3,22.5v48.6C2376.1,474,2350.3,475.9,2322.6,456.3z"/>
            <path fill="grey" d="M2377.2,425.1c0,0,31.2,58.5,62.4,70.2c31.2,11.7,374.9,49.5,382.1,35.1c15.6-31.2-292.4-113.1-331.4-117
            C2490.2,413.4,2373.3,397.8,2377.2,425.1z"/>
            <path fill="grey"
                  d="M1191.8,406.7c0,0,49.1-40.2,85.5-46.9s316.5,17.7,325.3,38.6C1611.3,419.4,1189,453.6,1191.8,406.7z"/>
            <path fill="#1EEBCD" d="M1216.3,448.7l4.7-37.6c1.6-12.9-5.5-25.4-17.6-30.4c-12.7-5.2-30.9-7.5-52.7,4.4
            c-8.2,4.5-13.3,13.2-13.3,22.5v48.6c22.4,16.3,46.1,19.2,71.3,4.3C1213,458.1,1215.7,453.6,1216.3,448.7z"/>
            <path fill="grey" d="M1161.4,426c0,0-39.2,53.5-71.7,60.6s-378.1-4.1-383.2-19.3c-11-33.1,305.4-70.5,344.6-68.9
            C1051.2,398.4,1169.2,399.5,1161.4,426z"/>
            <path fill="grey"
                  d="M1077.3,682.6c0,0-49.6-37.6-90.1-47c-40.6-9.4-365-21.9-378.5-6.3C595.1,645.1,1072.8,720.2,1077.3,682.6z"
            />
            <path fill="#1EEBCD" d="M1135.2,729.5l6.5-52.1c1.8-14.8-6.2-29.2-20-35c-14.7-6.1-35.8-8.9-61.3,4.9c-9.5,5.2-15.4,15.2-15.4,26.1
            l0.6,45.5c0.1,8.4,4.9,16,12.3,19.9C1082.4,751.3,1107.7,748.9,1135.2,729.5z"/>
            <path fill="grey" d="M1104.6,694.7c0,0,43.3,63.2,80.6,72.7c37.3,9.5,437,9.2,443.4-8.2c14-37.8-350.3-92.7-395.6-92.3
            C1233,666.9,1096.6,663.9,1104.6,694.7z"/>
            <path fill="grey"
                  d="M2439.3,690.2c0,0,42.2-45.7,80.5-62.1s355.5-85.7,371.6-72.6C2907.4,568.5,2450.3,726.4,2439.3,690.2z"/>
            <path fill="#1EEBCD" d="M2380.6,729.5l-6.5-52.1c-1.9-14.9,6.4-29.4,20.3-35.1c14.7-6,35.7-8.6,60.9,5c9.5,5.2,15.4,15.2,15.4,26.1
            v56.1C2442.5,750,2412.6,752.1,2380.6,729.5z"/>
            <path fill="grey" d="M2402.4,705c0,0-31.5,69.8-66.6,85.7s-428.6,85.8-438,69.8c-20.4-34.8,328.6-152.8,373.2-160.3
            C2271.1,700.2,2404.8,673.3,2402.4,705z"/>
        </g>
        <g id="prop-2">
            <path fill="grey" d="M2339.6,418.1c0,0,42.2-45.7,80.5-62.1s355.5-85.7,371.6-72.6C2807.7,296.4,2350.7,454.3,2339.6,418.1z"/>
            <path fill="#1EEBCD" d="M2318.3,456.3l-5.6-45.1c-1.6-12.9,5.5-25.4,17.6-30.4c12.7-5.2,30.9-7.5,52.7,4.4
            c8.2,4.5,13.3,13.2,13.3,22.5v48.6C2371.9,474,2346,475.9,2318.3,456.3z"/>
            <path fill="grey" d="M1113.7,693.4c0,0,21.3-40.9,43.3-54.3c22-13.4,210.8-62.2,222.1-49C1390.4,603.2,1124.3,728.1,1113.7,693.4z
            "/>
            <path fill="grey" d="M1168.6,399.3c0,0-38.9,11.3-57.3,2.6S930,259.1,933.2,249.8c7-20.1,174,79.6,192.3,95
            C1125.5,344.9,1182.2,389.3,1168.6,399.3z"/>
            <path fill="#1EEBCD" d="M1212,448.7l4.7-37.6c1.6-12.9-5.5-25.4-17.6-30.4c-12.7-5.2-30.9-7.5-52.7,4.4c-8.2,4.5-13.3,13.2-13.3,22.5
            v48.6c22.4,16.3,46.1,19.2,71.3,4.3C1208.7,458.1,1211.4,453.6,1212,448.7z"/>
            <path fill="#1EEBCD" d="M1130.9,729.5l6.5-52.1c1.8-14.8-6.2-29.2-20-35c-14.7-6.1-35.8-8.9-61.3,4.9c-9.5,5.2-15.4,15.2-15.4,26.1
            l0.6,45.5c0.1,8.4,4.9,16,12.3,19.9C1078.1,751.3,1103.4,748.9,1130.9,729.5z"/>
            <path fill="grey"
                  d="M2406.3,674.5c0,0-51.3,33.3-85,34.1s-278.4-70.1-282.3-93.1C2035.1,592.6,2417.6,626.8,2406.3,674.5z"/>
            <path fill="grey"
                  d="M1171,429c0,0,44.9-10.5,69.4-2.7s184.8,119,182.3,136.1C1420,579.6,1151.6,459.7,1171,429z"/>
            <path fill="#1EEBCD" d="M2376.3,729.5l-6.5-52.1c-1.9-14.9,6.4-29.4,20.3-35.1c14.7-6,35.7-8.6,60.9,5c9.5,5.2,15.4,15.2,15.4,26.1
            v56.1C2438.2,750,2408.3,752.1,2376.3,729.5z"/>
            <path fill="grey" d="M2431.9,707.7c0,0,34.2,48,66.4,57.7c32.3,9.6,384.4,40.6,391.2,28.8c14.7-25.6-302.8-92.9-342.8-96.1
            C2546.8,698.1,2426.9,685.3,2431.9,707.7z"/>
            <path fill="grey" d="M2341.9,419.8c0,0-18.8,39.3-39.8,48.2c-21,8.9-256.5,48.2-262.1,39.2c-12.2-19.6,196.6-85.9,223.4-90.1
            C2263.3,417.1,2343.4,401.9,2341.9,419.8z"/>
            <path fill="grey" d="M1073.1,686.7c0,0-11.4,52.1-31.3,65.5s-255.6,85.5-263.3,74.4c-16.7-24,185.8-128.3,212.6-136.2
            C991.2,690.5,1070.9,663.7,1073.1,686.7z"/>
        </g>
        <g id="prop-3">
            <path fill="grey" d="M2371.9,415.5c0,0-42.4-17.8-50.7-33.5s2.2-144.4,22.6-150.7C2364.2,225.1,2418.7,411.7,2371.9,415.5z"/>
            <path fill="#1EEBCD" d="M2318.3,456.3l-5.6-45.1c-1.6-12.9,5.5-25.4,17.6-30.4c12.7-5.2,30.9-7.5,52.7,4.4
            c8.2,4.5,13.3,13.2,13.3,22.5v48.6C2371.9,474,2346,475.9,2318.3,456.3z"/>
            <path fill="grey"
                  d="M1185.2,417.8c0,0-34.7-30.1-37.7-47.6s47.2-136.5,68.5-136.1C1237.3,234.6,1230.7,428.8,1185.2,417.8z"/>
            <path fill="grey" d="M1106.9,724.4c0,0-38.4-22.1-42-36.5c-3.5-14.4,25.5-157.3,37.4-157.8c25.9-1,35.7,135.1,32.1,151.3
            C1134.5,681.3,1126.6,730.4,1106.9,724.4z"/>
            <path fill="#1EEBCD" d="M1212,448.7l4.7-37.6c1.6-12.9-5.5-25.4-17.6-30.4c-12.7-5.2-30.9-7.5-52.7,4.4c-8.2,4.5-13.3,13.2-13.3,22.5
            v48.6c22.4,16.3,46.1,19.2,71.3,4.3C1208.7,458.1,1211.4,453.6,1212,448.7z"/>
            <path fill="#1EEBCD" d="M1130.9,729.5l6.5-52.1c1.8-14.8-6.2-29.2-20-35c-14.7-6.1-35.8-8.9-61.3,4.9c-9.5,5.2-15.4,15.2-15.4,26.1
            l0.6,45.5c0.1,8.4,4.9,16,12.3,19.9C1078.1,751.3,1103.4,748.9,1130.9,729.5z"/>
            <path fill="grey"
                  d="M2434.9,711.2c0,0-43.7-17.9-52-33.3c-8.2-15.4,6.5-140.2,28-146C2432.4,526.3,2483.8,708.3,2434.9,711.2z"/>
            <path fill="#1EEBCD" d="M2376.3,729.5l-6.5-52.1c-1.9-14.9,6.4-29.4,20.3-35.1c14.7-6,35.7-8.6,60.9,5c9.5,5.2,15.4,15.2,15.4,26.1
            v56.1C2438.2,750,2408.3,752.1,2376.3,729.5z"/>
            <path fill="grey" d="M1170.4,421.5c0,0,33.2,31,33.5,47.8c0.3,16.9-60.3,175.3-72.2,174.1c-25.9-2.7-5.4-159.2,1.8-177
            C1133.5,466.3,1152.1,411.6,1170.4,421.5z"/>
            <path fill="grey" d="M1087.4,696c0,0,36.2,28.1,38.4,46.3c2.2,18.2-40.1,199.3-52,199.9c-25.9,1.2-22.9-171.3-17.8-191.8
            C1055.9,750.5,1068.3,688.3,1087.4,696z"/>
            <path fill="grey" d="M2414.8,696c0,0,38.1,25.5,43.3,42s-1,181.2-11.8,181.7c-23.4,1.2-51.4-155.5-50.5-174.2
            C2395.8,745.5,2396,689,2414.8,696z"/>
            <path fill="grey" d="M2344.4,427.1c0,0,41.6,45.7,46.1,62.1s-18.1,139.9-30.6,133c-27.1-15-44.9-155.8-42.1-169.6
            C2317.9,452.6,2323.4,408.9,2344.4,427.1z"/>
        </g>
    </g>
</svg>
