
<svg xmlns="http://www.w3.org/2000/svg" viewBox="0 0 3710 3710">
<style type="text/css">
	.st0{fill:url(#mine_1_);}
	.st1{fill:url(#SVGID_1_);}
	.st2{fill:url(#SVGID_2_);}
	.st3{fill:url(#SVGID_3_);}
	.st4{opacity:0.58;}
	.st5{fill:#7D97F4;}
	.st6{fill:url(#_x3C_Path_x3E__2_);}
	.st7{fill:#91B3FA;}
	.st8{fill:url(#SVGID_4_);}
	.st9{fill:url(#SVGID_5_);}
	.st10{fill:url(#SVGID_6_);}
	.st11{fill:url(#SVGID_7_);}
	.st12{fill:url(#SVGID_8_);}
	.st13{fill:url(#SVGID_9_);}
	.st14{fill:url(#SVGID_10_);}
	.st15{fill:url(#SVGID_11_);}
	.st16{fill:url(#SVGID_12_);}
	.st17{opacity:0.42;fill:#FFFFFF;enable-background:new    ;}
</style>
<g id="drone">

		<linearGradient id="mine_1_" gradientUnits="userSpaceOnUse" x1="1860.2882" y1="-2122.3113" x2="2154.8826" y2="-1867.2867" gradientTransform="matrix(1 0 0 1 0 3150)">
		<stop  offset="0" style="stop-color:#09005D"/>
		<stop  offset="1" style="stop-color:#1A0F91"/>
	</linearGradient>
	<path id="mine" class="st0" d="M2236.4,1306.7c-107.6,18-206.7,18.8-296.5,0.8c-14.2-2.8-24.4-15.3-24.4-29.8v-104.5
		c0-16.8,13.6-30.4,30.4-30.4h285.7c16.8,0,30.4,13.6,30.4,30.4v103.4C2261.9,1291.6,2251.1,1304.2,2236.4,1306.7z"/>
	<g id="main">

			<linearGradient id="SVGID_1_" gradientUnits="userSpaceOnUse" x1="2462.3281" y1="-2706.1091" x2="2451.1758" y2="-2167.0999" gradientTransform="matrix(1 0 0 1 0 3150)">
			<stop  offset="0" style="stop-color:#4F52FF"/>
			<stop  offset="1" style="stop-color:#4042E2"/>
		</linearGradient>
		<path class="st1" d="M2137.4,717.7c0,0,577-15.6,616,11.7s15.6,89.7,0,101.4s-432.7,74.1-432.7,74.1L2137.4,717.7z"/>

			<linearGradient id="SVGID_2_" gradientUnits="userSpaceOnUse" x1="1751.1735" y1="-2720.8213" x2="1740.0211" y2="-2181.812" gradientTransform="matrix(1 0 0 1 0 3150)">
			<stop  offset="0" style="stop-color:#4F52FF"/>
			<stop  offset="1" style="stop-color:#4042E2"/>
		</linearGradient>
		<path class="st2" d="M2063.3,717.7c0,0-577-15.6-616,11.7s-15.6,89.7,0,101.4s432.7,74.1,432.7,74.1L2063.3,717.7z"/>

			<linearGradient id="SVGID_3_" gradientUnits="userSpaceOnUse" x1="2094.8706" y1="-2177.2012" x2="2054.5674" y2="-1535.7062" gradientTransform="matrix(1 0 0 1 0 3150)">
			<stop  offset="0" style="stop-color:#4F52FF"/>
			<stop  offset="1" style="stop-color:#4042E2"/>
		</linearGradient>
		<path class="st3" d="M2143,704.1c38.8,0,76.7,11.1,109.3,32.1c101.4,65.2,330.6,209,414.5,233c109.2,31.2,179.3,42.9,183.2,89.7
			c3.9,46.8-74.1,89.7-183.2,58.5c-112.6-32.2-337.3,19.5-409.9,40.1c-15.8,4.5-32.1,6.7-48.5,6.7h-238.3c-16.4,0-32.7-2.2-48.5-6.7
			c-72.6-20.6-297.3-72.2-409.9-40.1c-109.2,31.2-187.1-11.7-183.2-58.5c3.9-46.8,74.1-58.5,183.2-89.7c83.9-24,313-167.8,414.5-233
			c32.6-21,70.6-32.1,109.3-32.1L2143,704.1L2143,704.1z"/>
		<g class="st4">
			<path class="st5" d="M1376.5,1078.5c15.2,5.1,30.8,9,46.6,11.6c15.8,2.5,31.7,3.9,47.5,2.9c7.9-0.5,15.7-1.6,23.2-3.5
				s14.8-4.7,21.5-8.4c3.4-1.8,6.5-4,9.6-6.2c2.9-2.5,5.8-4.9,8.3-7.7c5.1-5.6,9.5-11.9,12.6-18.9l1.2-2.6l1-2.7l2-5.4l4.5-11.8
				c1.8-3.8,3.6-7.6,5.5-11.3l6.5-10.8c9.3-14,20.9-26.2,33.6-36.8c25.6-21.2,55.2-36.6,85.8-48.4c61.3-23.7,126.1-35.2,190.9-41.9
				c64.9-6.4,130.1-7.4,195.2-4.5c65,3.2,129.8,10.4,194,21.6c64.1,11.5,127.6,26.8,189,49c15.3,5.6,30.5,11.6,45.4,18.3
				c14.9,6.6,29.7,13.8,43.9,21.9c14.3,8.1,28.2,16.9,41.3,26.9l9.6,7.8c3.2,2.7,6.2,5.5,9.3,8.3c3.1,2.8,5.9,5.9,8.8,8.8
				c2.9,3,5.5,5.8,8.3,8.6c11.2,11.1,23.9,20.5,38.3,26.6c14.3,6.2,29.9,9.7,45.7,11.5s31.9,2.1,47.9,1.3
				c16.1-0.6,32.1-2.3,48.1-4.2h0.1c2.1-0.3,4.1,1.3,4.3,3.4s-1.3,4.1-3.4,4.3c-16.2,2.1-32.4,4-48.7,4.7c-16.3,1-32.8,0.9-49.2-0.8
				c-16.4-1.7-32.9-5.2-48.4-11.7c-15.6-6.4-29.5-16.5-41.4-28.1c-3-2.9-5.8-6-8.6-8.9c-2.8-2.8-5.5-5.7-8.4-8.4
				c-3-2.6-5.8-5.4-8.9-7.9l-9.3-7.5c-12.7-9.6-26.3-18.2-40.2-26c-14-7.9-28.4-14.9-43.1-21.4c-14.7-6.6-29.7-12.4-44.8-17.9
				c-60.7-21.8-123.8-36.8-187.4-47.9c-63.7-11-128.1-17.8-192.6-20.9c-64.5-3.1-129.3-2.3-193.5,3.8
				c-64.1,6.5-128.2,17.6-188.2,40.6c-29.9,11.5-58.6,26.4-83.1,46.5c-12.2,10.1-23.2,21.6-31.9,34.6l-6.1,10l-5.2,10.5l-4.2,10.9
				l-2.3,6l-1.1,3l-1.4,2.9c-7.2,15.5-19.6,29-34.8,36.8c-7.5,4-15.6,7-23.8,9c-8.2,1.9-16.5,3-24.8,3.5
				c-16.6,0.9-33.2-0.7-49.4-3.4c-16.2-2.9-32.1-7-47.6-12.3l0,0c-2-0.7-3.1-2.9-2.4-5C1372.3,1078.9,1374.5,1077.9,1376.5,1078.5z"
				/>
		</g>
		<path class="st5" d="M1995.7,1132.5L1995.7,1132.5c-7.5,0-13.6-6.1-13.6-13.6v-74.7c0-7.5,6.1-13.6,13.6-13.6l0,0
			c7.5,0,13.6,6.1,13.6,13.6v74.7C2009.3,1126.4,2003.2,1132.5,1995.7,1132.5z"/>
		<path class="st5" d="M2043.2,1132.5L2043.2,1132.5c-7.5,0-13.6-6.1-13.6-13.6v-74.7c0-7.5,6.1-13.6,13.6-13.6l0,0
			c7.5,0,13.6,6.1,13.6,13.6v74.7C2056.8,1126.4,2050.7,1132.5,2043.2,1132.5z"/>
		<path class="st5" d="M2090.7,1132.5L2090.7,1132.5c-7.5,0-13.6-6.1-13.6-13.6v-74.7c0-7.5,6.1-13.6,13.6-13.6l0,0
			c7.5,0,13.6,6.1,13.6,13.6v74.7C2104.3,1126.4,2098.2,1132.5,2090.7,1132.5z"/>
		<path class="st5" d="M2138.2,1132.5L2138.2,1132.5c-7.5,0-13.6-6.1-13.6-13.6v-74.7c0-7.5,6.1-13.6,13.6-13.6l0,0
			c7.5,0,13.6,6.1,13.6,13.6v74.7C2151.8,1126.4,2145.7,1132.5,2138.2,1132.5z"/>
		<path class="st5" d="M2185.7,1132.5L2185.7,1132.5c-7.5,0-13.6-6.1-13.6-13.6v-74.7c0-7.5,6.1-13.6,13.6-13.6l0,0
			c7.5,0,13.6,6.1,13.6,13.6v74.7C2199.3,1126.4,2193.2,1132.5,2185.7,1132.5z"/>
	</g>


	<g id="prop-top-right">

			<linearGradient id="_x3C_Path_x3E__2_" gradientUnits="userSpaceOnUse" x1="2622.8" y1="-2459.9702" x2="2761.6797" y2="-2459.9702" gradientTransform="matrix(1 0 0 1 0 3150)">
			<stop  offset="0" style="stop-color:#09005D"/>
			<stop  offset="1" style="stop-color:#1A0F91"/>
		</linearGradient>
		<path id="_x3C_Path_x3E_" class="st6" d="M2622.8,720.4v-65.2c0-17.6,13.3-32.3,30.7-34.3c24.3-2.8,58.8-3.6,86.8,7.5
			c13.8,5.5,22.3,19.5,21.3,34.4l-4.6,63.7c-1.1,15.7-12.7,28.6-28.2,31.5c-20.3,3.7-50.3,5.6-82.2-4.8
			C2632.5,748.6,2622.8,735.4,2622.8,720.4z"/>
		<path id="_x31_1_4_" class="st7" d="M2680.1,601.4c0,0-25.3-56.4-53.5-69.3c-28.2-12.9-344.4-69.3-351.9-56.4
			c-16.4,28.1,264,123.5,299.9,129.6C2574.6,605.3,2682,627.1,2680.1,601.4z"/>
		<path id="_x32_2_4_" class="st7" d="M2698,601c0,0,55.5,20.6,91,17.5c35.5-3.1,290.5-86.4,293.6-105
			C3085.8,495,2684.1,564.7,2698,601z"/>
		<path id="_x32_3_4_" class="st7" d="M2690.1,614.2C2692.4,614.6,2689,614.3,2690.1,614.2c10.8-0.5,37.6,1.4,39.4-19.3
			c2-24.2-32-176.7-46.8-168.4C2668.1,434.6,2650.3,607.2,2690.1,614.2z"/>
		<path id="_x3C_Path_x3E__1_" class="st5" d="M2654,637.8l-5.6-45.1c-1.6-12.9,5.5-25.4,17.6-30.4c12.7-5.2,30.9-7.5,52.7,4.4
			c8.2,4.5,13.3,13.2,13.3,22.5v48.6C2707.5,655.5,2681.7,657.4,2654,637.8z"/>
		<path id="_x32_1_4_" class="st7" d="M2712.8,613.4c0,0,37.4,40.1,71.3,54.6s315.1,75.3,329.3,63.8
			C3127.6,720.3,2722.5,581.6,2712.8,613.4z"/>
		<path id="_x31_2_3_" class="st7" d="M2688.9,626.8c0,0-42.6-27.4-68.9-23.6c-26.4,3.8-284.8,106.8-285,119
			c-0.3,26.7,248.1-33.6,277.2-45.5C2612.3,676.8,2701.2,643.5,2688.9,626.8z"/>
		<path id="_x31_3_3_" class="st7" d="M2704.3,610.3c-1.3-0.1-5.2,0.3-6.8,0.5c-10.9,1.4-25.5,34.2-27,46.5
			c-1.7,13.8,32.7,126.5,42.3,122.3c20.7-9.2,17.8-131.1,13.7-143.7C2726.6,635.9,2720.4,611.1,2704.3,610.3z"/>
	</g>
	<g id="prop-top-left">

			<linearGradient id="SVGID_4_" gradientUnits="userSpaceOnUse" x1="1439.1204" y1="-2459.9702" x2="1578" y2="-2459.9702" gradientTransform="matrix(1 0 0 1 0 3150)">
			<stop  offset="0" style="stop-color:#09005D"/>
			<stop  offset="1" style="stop-color:#1A0F91"/>
		</linearGradient>
		<path class="st8" d="M1578,720.4v-65.2c0-17.6-13.3-32.3-30.7-34.3c-24.3-2.8-58.8-3.6-86.8,7.5c-13.8,5.5-22.3,19.5-21.3,34.4
			l4.6,63.7c1.1,15.7,12.7,28.6,28.2,31.5c20.3,3.7,50.3,5.6,82.2-4.8C1568.3,748.6,1578,735.4,1578,720.4z"/>
		<path id="_x32_1_2_" class="st7" d="M1487.2,594.6c0,0-42.2-45.7-80.5-62.1s-355.5-85.7-371.6-72.6
			C1019.1,472.9,1476.2,630.8,1487.2,594.6z"/>
		<path id="_x31_2_1_" class="st7" d="M1522.1,573.7c0,0,48.1,31.2,77.8,26.8s321.4-121.5,321.6-135.5
			c0.3-30.3-279.9,38.2-312.8,51.8C1608.6,516.7,1508.2,554.6,1522.1,573.7z"/>
		<path id="_x31_3_1_" class="st7" d="M1501.7,624.5c0,0,32.6-38.9,34.6-54.7c1.9-15.8-36.9-144-47.7-139.2
			c-23.4,10.5-20.1,149.2-15.5,163.6C1473,594.3,1484.5,639.3,1501.7,624.5z"/>
		<path class="st5" d="M1547.7,630.3l4.7-37.6c1.6-12.9-5.5-25.4-17.6-30.4c-12.7-5.2-30.9-7.5-52.7,4.4
			c-8.2,4.5-13.3,13.2-13.3,22.5v48.6c22.4,16.3,46.1,19.2,71.3,4.3C1544.4,639.6,1547.1,635.2,1547.7,630.3z"/>
		<path id="_x32_2_2_" class="st7" d="M1503.9,608.6c0,0-62.6-23.4-102.7-19.9c-40.1,3.5-327.8,98.3-331.3,119.5
			C1066.3,729.3,1519.7,650,1503.9,608.6z"/>
		<path id="_x31_1_2_" class="st7" d="M1524.1,608.2c0,0,28.6,64.2,60.4,78.8c31.8,14.6,388.6,78.9,397.1,64.2
			c18.5-32-297.9-140.6-338.3-147.5C1643.2,603.7,1522,579,1524.1,608.2z"/>
		<path id="_x32_3_2_" class="st7" d="M1512.8,593.6C1510.2,593.2,1514.1,593.6,1512.8,593.6c-12.2,0.5-42.5-1.5-44.4,21.9
			c-2.3,27.5,36.1,201.1,52.8,191.7C1537.7,798.1,1557.8,601.6,1512.8,593.6z"/>
	</g>
	<g id="prop-bottom-left">

			<linearGradient id="SVGID_5_" gradientUnits="userSpaceOnUse" x1="1342.001" y1="-2178.5645" x2="1502.6" y2="-2178.5645" gradientTransform="matrix(1 0 0 1 0 3150)">
			<stop  offset="0" style="stop-color:#09005D"/>
			<stop  offset="1" style="stop-color:#1A0F91"/>
		</linearGradient>
		<path class="st9" d="M1502.6,1006.4v-75.3c0-20.3-15.3-37.3-35.5-39.6c-28.1-3.2-67.9-4.2-100.4,8.7c-16,6.3-25.8,22.6-24.6,39.7
			l5.3,73.7c1.3,18.1,14.7,33.1,32.5,36.4c23.5,4.3,58.1,6.5,95-5.5C1491.4,1039,1502.6,1023.8,1502.6,1006.4z"/>
		<path id="_x32_3_3_" class="st7" d="M1429.8,874.7C1427.4,875.1,1431,874.7,1429.8,874.7c-11.1-0.4-38.4,1.3-40.2-18.1
			c-2.1-22.6,32.7-165.5,47.8-157.8C1452.3,706.4,1470.5,868.2,1429.8,874.7z"/>
		<path id="_x32_2_3_" class="st7" d="M1421.7,862.4c0,0-56.7,19.3-93,16.4c-36.3-2.9-296.8-80.9-300-98.4
			C1025.6,763,1436,828.3,1421.7,862.4z"/>
		<path id="_x31_1_3_" class="st7" d="M1440.1,862.7c0,0,25.9-52.9,54.7-64.9c28.8-12,351.8-65,359.5-52.9
			c16.7,26.4-269.7,115.7-306.3,121.4C1547.8,866.4,1438.1,886.8,1440.1,862.7z"/>
		<path class="st5" d="M1466.6,911l6.5-52.1c1.8-14.8-6.2-29.2-20-35c-14.7-6.1-35.8-8.9-61.3,4.9c-9.5,5.2-15.4,15.2-15.4,26.1
			l0.6,45.5c0.1,8.4,4.9,16,12.3,19.9C1413.8,932.8,1439.1,930.4,1466.6,911z"/>
		<path id="_x32_1_3_" class="st7" d="M1406.7,873.9c0,0-38.2,37.6-72.9,51.1s-321.8,70.5-336.4,59.8
			C982.9,974.1,1396.7,844.1,1406.7,873.9z"/>
		<path id="_x31_2_2_" class="st7" d="M1438.2,891.1c0,0,43.5-25.7,70.4-22.1s291,100,291.1,111.5c0.3,25-253.4-31.5-283.2-42.6
			C1516.5,938,1425.7,906.9,1438.2,891.1z"/>
		<path id="_x31_3_2_" class="st7" d="M1418.3,864.7c0,0,25-4.7,33.8,35.9c2.8,12.8-33.4,118.5-43.2,114.6
			c-21.2-8.6-18.2-122.8-14-134.7C1394.9,880.4,1400.1,864.1,1418.3,864.7z"/>
	</g>
	<g id="prop-bottom-right_1_">
		<path id="_x32_1_1_" class="st7" d="M2770.7,871.7c0,0,42.2-45.7,80.5-62.1s355.5-85.7,371.6-72.6
			C3238.8,750,2781.7,907.9,2770.7,871.7z"/>

			<linearGradient id="SVGID_6_" gradientUnits="userSpaceOnUse" x1="2675.8999" y1="-2178.5645" x2="2836.4988" y2="-2178.5645" gradientTransform="matrix(1 0 0 1 0 3150)">
			<stop  offset="0" style="stop-color:#09005D"/>
			<stop  offset="1" style="stop-color:#1A0F91"/>
		</linearGradient>
		<path class="st10" d="M2675.9,1006.4v-75.3c0-20.3,15.3-37.3,35.5-39.6c28.1-3.2,67.9-4.2,100.4,8.7c16,6.3,25.8,22.6,24.6,39.7
			l-5.3,73.7c-1.3,18.1-14.7,33.1-32.5,36.4c-23.5,4.3-58.1,6.5-95-5.5C2687.1,1039,2675.9,1023.8,2675.9,1006.4z"/>
		<path id="_x31_2" class="st7" d="M2735.9,850.8c0,0-48.1,31.2-77.8,26.8c-29.7-4.3-321.4-121.5-321.6-135.5
			c-0.3-30.3,279.9,38.2,312.8,51.8C2649.4,793.9,2749.7,831.7,2735.9,850.8z"/>
		<path id="_x31_3" class="st7" d="M2756.3,901.7c0,0-32.6-38.9-34.6-54.7c-1.9-15.8,36.9-144,47.7-139.2
			c23.4,10.5,20.1,149.2,15.5,163.6C2784.9,871.5,2773.5,916.5,2756.3,901.7z"/>
		<path class="st5" d="M2712,911l-6.5-52.1c-1.9-14.9,6.4-29.4,20.3-35.1c14.7-6,35.7-8.6,60.9,5c9.5,5.2,15.4,15.2,15.4,26.1V911
			C2773.9,931.5,2744,933.7,2712,911z"/>
		<path id="_x31_1_1_" class="st7" d="M2733.8,885.4c0,0-28.6,64.2-60.4,78.8s-388.6,78.9-397.1,64.2
			c-18.5-32,297.9-140.6,338.3-147.5C2614.8,880.9,2736,856.1,2733.8,885.4z"/>
		<path id="_x32_2_1_" class="st7" d="M2754.1,885.8c0,0,62.6-23.4,102.7-19.9c40.1,3.5,327.8,98.3,331.3,119.5
			C3191.6,1006.5,2738.3,927.2,2754.1,885.8z"/>
		<path id="_x32_3_1_" class="st7" d="M2745.1,870.8C2747.7,870.3,2743.8,870.7,2745.1,870.8c12.2,0.5,42.5-1.5,44.4,21.9
			c2.3,27.5-36.1,201.1-52.8,191.7C2720.3,1075.2,2700.2,878.7,2745.1,870.8z"/>
	</g>
</g>
<g id="platform">
	<g id="ground">

			<linearGradient id="SVGID_7_" gradientUnits="userSpaceOnUse" x1="1726.5619" y1="-752.5732" x2="1502.3289" y2="-1308.6698" gradientTransform="matrix(1 0 0 1 0 3150)">
			<stop  offset="0" style="stop-color:#FF928E"/>
			<stop  offset="1" style="stop-color:#FE7062"/>
		</linearGradient>
		<path class="st11" d="M0,2427.5c635.5,1855.2,2871.6,770.3,3540.1,147C2220.4,1556.2,812.1,1710.4,0,2427.5z"/>

			<linearGradient id="SVGID_8_" gradientUnits="userSpaceOnUse" x1="1772.547" y1="-1345.4749" x2="1737.5275" y2="558.699" gradientTransform="matrix(1 0 0 1 0 3150)">
			<stop  offset="0" style="stop-color:#E1473D"/>
			<stop  offset="1" style="stop-color:#E9605A"/>
		</linearGradient>
		<path class="st12" d="M36.1,2546.7c1063.8-790.1,2269.4-724.6,3444.1,81.3l-216.3,145.3c-1001.4-799-2085.3-785.9-3111.8-37.2
			L36.1,2546.7z"/>

			<linearGradient id="SVGID_9_" gradientUnits="userSpaceOnUse" x1="2001.3311" y1="-978.0787" x2="2225.5198" y2="2717.4299" gradientTransform="matrix(1 0 0 1 0 3150)">
			<stop  offset="0" style="stop-color:#FF928E"/>
			<stop  offset="1" style="stop-color:#FE7062"/>
		</linearGradient>
		<path class="st13" d="M331,2796.3c1816-695.7,1985.7-882.6,3379-616.8c-73.3,385.2-362.7,841.6-718.2,1131.1L331,2796.3z"/>

			<linearGradient id="SVGID_10_" gradientUnits="userSpaceOnUse" x1="2120.4758" y1="-1647.8436" x2="2244.5808" y2="461.9077" gradientTransform="matrix(1 0 0 1 0 3150)">
			<stop  offset="0" style="stop-color:#E1473D"/>
			<stop  offset="1" style="stop-color:#E9605A"/>
		</linearGradient>
		<path class="st14" d="M702.8,2869.9c1092.7-573,2096.9-810.1,2965-531.5l-94.2,234.3c-806.4-290-1389.1-124.7-2388.9,391.5
			L702.8,2869.9z"/>

			<linearGradient id="SVGID_11_" gradientUnits="userSpaceOnUse" x1="24.4" y1="-200.9458" x2="3540" y2="-200.9458" gradientTransform="matrix(1 0 0 1 0 3150)">
			<stop  offset="0" style="stop-color:#FF928E"/>
			<stop  offset="1" style="stop-color:#FE7062"/>
		</linearGradient>
		<path class="st15" d="M24.4,2516.6c816.7,1823.3,3029.1,1306.9,3515.6,117C1688.3,3104.6,1789.2,1537.8,24.4,2516.6z"/>

			<linearGradient id="SVGID_12_" gradientUnits="userSpaceOnUse" x1="951.5233" y1="-1425.1602" x2="6087.9717" y2="3683.876" gradientTransform="matrix(1 0 0 1 0 3150)">
			<stop  offset="0" style="stop-color:#FEBBBA"/>
			<stop  offset="1" style="stop-color:#FF928E"/>
		</linearGradient>
		<path class="st16" d="M3245,3086.8c126.2-135,227.4-287.6,295.1-453.2c-1840.8,468.2-1752-1077.3-3484.6-134
			C1784.6,1561.6,1404.3,3555,3245,3086.8z"/>
	</g>
	<g id="tree-4">
		<g>
			<path class="st5" d="M3199.8,1815.4c7.9-71.1-21-151.2-36.9-225.4c-8.4-39.2-13.1-78.3-8.3-118.4c4.7-39.8,21.6-83.4,2.9-122.1
				c-37.7-78.1-118.4-38.6-163.1,23.1c-51.8,71.6-62.2,185.6-79.4,273.8c-10.4,53.2-27.1,107.9-31.5,161.8
				c-7.4,89.3,15.2,150.2,59.4,190.2c42.4,38.3,104.8,44.1,153.6,14.3C3140.5,1985.8,3187.1,1930.2,3199.8,1815.4z"/>
			<path class="st7" d="M3024.1,2150c-0.6-0.3-1-0.8-1.1-1.4c-7.7-36.8-23.7-137.8-28.8-256.7c-3.8-87.3-1.5-171.7,6.9-250.9
				c10.4-99,30.3-190,59.2-270.5c0.4-1,1.5-1.6,2.5-1.2s1.6,1.5,1.2,2.5c-28.8,80.2-48.6,170.9-59,269.5
				c-8.3,78.9-10.6,163.1-6.9,250.3c5.1,118.7,21,219.5,28.7,256.2c0.2,1.1-0.5,2.1-1.5,2.3
				C3024.9,2150.2,3024.5,2150.1,3024.1,2150z"/>
		</g>
	</g>
	<g id="plant-4">
		<path class="st5" d="M1977.2,2417.4c-0.1,3.6,3,6.6,6.9,6.7l0,0c3.9,0.1,7.1-2.8,7.2-6.4l6-232.8c0.1-3.6-3-6.6-6.9-6.7l0,0
			c-3.9-0.1-7.1,2.8-7.2,6.4L1977.2,2417.4z"/>
		<path class="st5" d="M1990,2300.7c10.9,5.9,48.7-28.4,74.8-66c17-24.5,10.1-26.9,23.8-44c31.9-40.1,68.7-33.9,83.3-66.3
			c10.6-23.4-6.4-31.5,4.2-52.6c19.3-38.4,85-29.7,91.9-55.9c4.6-17.3-18.6-41.1-42.2-51.7c-65.9-29.4-183.3,27.8-211.1,104.5
			c-14.9,41.2,8.2,54.4-5,134.3C1999.8,2262.3,1980.3,2295.4,1990,2300.7z"/>
		<path class="st5" d="M1997.1,2183.5c0,0-34.4-178.4-144.4-136.6c-109.9,41.8-21.5,103,34.3,106.1c55.8,3,37,4.8,61.8,26
			C1973.7,2200.3,2013,2235.8,1997.1,2183.5z"/>
		<path class="st17" d="M2226.1,1997.4c-16.1-3-32.6-4.5-49.2-3.4l-6.2,0.5c-2.1,0.2-4.1,0.6-6.2,0.9c-4.2,0.5-8.2,1.5-12.3,2.5
			c-8.1,2.2-16.1,5.1-23.4,9.1c-3.8,1.8-7.2,4.2-10.7,6.4c-3.2,2.5-6.7,4.9-9.7,7.7c-6.3,5.3-11.6,11.5-16.7,17.7
			c-9.8,12.8-17.4,26.6-24,40.7c-12.9,28.4-22.1,57.8-30.1,87.3c-8.1,29.5-15.1,59.2-21.2,89.1c10.5-28.8,19.8-58,29.3-86.9
			c4.9-14.5,9.5-29,14.9-43.2c5.2-14.3,10.6-28.5,17.1-42.2c6.3-13.8,13.5-27.1,22.4-39.2c9-12,19.8-22.9,33.1-30.6
			c13.2-7.9,28.5-12.6,44.4-14.8C2193.4,1996.5,2209.7,1996.6,2226.1,1997.4z"/>
		<path class="st17" d="M1982.7,2178c-4.1-15-9.5-29.7-16.6-43.9c-7.1-14.1-16.3-27.8-29.1-39c-6.4-5.5-13.8-10.2-21.8-13.6
			c-8.1-3.3-16.7-5.6-25.3-6.1c-17.4-1.4-34.3,2.4-49.5,8.5c16.5-2.1,32.9-3.4,48.4-0.7c15.5,2.6,29.5,9.5,40.9,19.3
			c5.8,4.8,10.9,10.5,15.7,16.5c4.9,5.9,9.1,12.3,13.3,18.8C1967,2150.9,1974.5,2164.6,1982.7,2178z"/>
	</g>
	<g id="tree-3">
		<path class="st7" d="M2654.2,1783.7c-7.3-65.7,19.4-139.7,34.1-208.3c7.7-36.3,12.1-72.4,7.7-109.4c-4.4-36.8-20-77.1-2.7-112.9
			c34.9-72.1,109.4-35.7,150.7,21.3c47.9,66.2,57.5,171.5,73.4,253c9.6,49.1,25,99.7,29.1,149.5c6.8,82.5-14.1,138.8-54.9,175.7
			c-39.2,35.4-96.9,40.8-141.9,13.3C2709,1941.1,2666,1889.7,2654.2,1783.7z"/>
		<path class="st5" d="M2816.5,2092.8c0.5-0.2,0.9-0.7,1-1.3c7.1-34,21.9-127.3,26.6-237.2c3.5-80.7,1.4-158.7-6.3-231.8
			c-9.6-91.5-28-175.5-54.7-249.9c-0.3-0.9-1.4-1.4-2.3-1.1c-1,0.3-1.4,1.4-1.1,2.3c26.6,74.1,44.9,157.9,54.5,249
			c7.7,72.9,9.8,150.7,6.3,231.2c-4.7,109.7-19.4,202.8-26.6,236.7c-0.2,1,0.4,2,1.4,2.2C2815.8,2093.1,2816.2,2093,2816.5,2092.8z"
			/>
	</g>
	<g id="tree-2">
		<path class="st5" d="M2729.4,1770.3c-2.2-47.9-29.8-97.8-48-145.3c-9.6-25.1-16.9-50.4-17.9-77.4c-1.1-26.8,5.5-57.4-10.9-81.1
			c-33.1-47.7-82.4-13.1-105.5,32.4c-26.8,52.8-21.7,129.3-23.8,189.4c-1.3,36.2-6.6,74.2-3.9,110.3c4.5,59.8,25.8,97.8,59.2,119.6
			c32.1,20.9,74,18.2,103.1-6.6C2708.1,1889.2,2733,1847.5,2729.4,1770.3z"/>
		<path class="st7" d="M2648.1,2012.6c0.6,0.1,1.3,0,1.9-0.2c2-0.8,3.1-3.1,2.3-5.1c-1-2.7-102.6-273.4-56.7-515.7
			c0.4-2.1-1-4.2-3.2-4.6c-2.1-0.4-4.2,1-4.6,3.2c-46.3,244.5,56.1,517.3,57.1,520C2645.5,2011.5,2646.7,2012.5,2648.1,2012.6z"/>
	</g>
	<g id="tree-1">
		<path class="st5" d="M831.9,1884.7c-13-46.1,2.6-104.3,8.2-156.4c3-27.6,3.1-54.4-4.5-80.4c-7.5-25.8-25.1-52.1-13.8-81
			c22.8-58.3,90.9-45.1,132.4-11.3c48.1,39.3,67.1,113.7,89.1,169.7c13.3,33.8,31.7,67.6,40.4,102.8c14.3,58.4,2,102.7-29.5,136.6
			c-30.2,32.5-79.5,46.6-121.3,34.7C895.3,1988.6,852.9,1959.1,831.9,1884.7z"/>
		<path class="st7" d="M1004.6,2081.6c-0.7,0.3-1.5,0.5-2.3,0.5c-2.6,0.1-4.5-1.7-4.3-3.9c0.3-3,29.6-299.3-102.2-510.2
			c-1.2-1.9-0.2-4.4,2.1-5.6s5.2-0.7,6.4,1.1c133,212.8,103.5,511.4,103.2,514.4C1007.4,2079.5,1006.2,2080.9,1004.6,2081.6z"/>
	</g>
	<g id="plant-3">
		<path class="st5" d="M603,2597c-1,3.5-4.7,5.5-8.1,4.4l0,0c-3.5-1-5.5-4.7-4.4-8.1l65.8-223.4c1-3.5,4.7-5.5,8.1-4.4l0,0
			c3.5,1,5.5,4.7,4.4,8.1L603,2597z"/>
		<path class="st5" d="M627.3,2482.1c-11.4,2.5-34.3-41-46-84.3c-7.6-28.2-0.7-28.5-7.6-48.8c-16-47.3-50.3-52-53.3-87
			c-2.2-25.3,15.3-28.2,12.3-51.2c-5.4-42.1-66-52.7-64.2-79.6c1.2-17.7,29-33.8,53.1-37.1c67.3-9.1,153.6,79,154.7,160
			c0.6,43.5-23.9,49.5-36.6,129.3C630.3,2442.8,637.5,2479.9,627.3,2482.1z"/>
		<path class="st5" d="M656.7,2368.6c0,0,84.9-160,169.3-88.7s-12.5,104.3-62.7,91.2s-34.2-6-62.6,7.1
			C672.3,2391.2,626.8,2413.7,656.7,2368.6z"/>
		<path class="st17" d="M511.2,2125.7c15.1,1.7,30.2,5.1,44.6,10.9l5.4,2.3c1.8,0.8,3.5,1.7,5.2,2.6c3.5,1.7,6.8,3.8,10.1,5.9
			c6.5,4.4,12.7,9.4,17.9,15.4c2.8,2.8,5,6.1,7.5,9.2c2.1,3.3,4.5,6.6,6.2,10.1c3.9,6.9,6.7,14.3,9.3,21.7c4.8,15,7.2,30.4,8.8,45.7
			c2.7,30.7,1.9,61.3,0,91.7s-4.8,60.7-8.5,90.9c-0.5-30.5,0.2-60.9,0.6-91.2c0.1-15.2,0.4-30.3,0.1-45.4
			c-0.2-15.1-0.7-30.2-2.2-45.1c-1.3-14.9-3.7-29.7-7.9-43.8c-4.3-14-10.5-27.5-19.9-38.7c-9.2-11.3-21.4-20.1-34.7-26.8
			C540.4,2134.2,525.9,2129.6,511.2,2125.7z"/>
		<path class="st17" d="M671.1,2367.5c8.2-13.1,17.4-25.6,28.1-37c10.6-11.4,22.9-21.8,37.6-28.8c7.4-3.4,15.3-5.8,23.5-6.7
			c8.1-0.8,16.4-0.5,24.3,1.4c15.8,3.6,29.6,12.1,41.1,22.3c-13.9-6.7-28-12.7-42.6-14.6c-14.5-2-28.9,0.6-42.1,6.7
			c-6.6,2.9-12.9,6.9-18.9,11.2c-6.1,4.2-11.8,9.1-17.5,14.1C693.4,2346.1,682.6,2357,671.1,2367.5z"/>
	</g>
	<g id="plant-2">
		<path class="st5" d="M1244.2,3366.1c-0.4,2.9-3.1,5-6.1,4.5l0,0c-2.9-0.4-5-3.1-4.5-6.1l27.5-188.4c0.4-2.9,3.1-5,6.1-4.5l0,0
			c2.9,0.4,5,3.2,4.5,6.1L1244.2,3366.1z"/>
		<path class="st5" d="M1250.6,3270.3c-9,3.4-32.5-29.2-46.9-62.9c-9.4-21.9-3.9-23-11.8-38.6c-18.4-36.5-46.7-36.3-53.2-64.3
			c-4.7-20.2,9.1-24.6,4.1-42.9c-9.2-33.5-59.5-35-61.1-57c-1.1-14.5,19.6-30.7,38.7-36.1c53.4-15.1,133.4,46.3,143.7,111.7
			c5.5,35.2-13.6,42.8-14.7,108.9C1248.5,3238.1,1258.6,3267.3,1250.6,3270.3z"/>
		<path class="st5" d="M1261.4,3175c0,0,50.2-139.3,126.8-91.3c76.6,48,1.9,85.8-40.2,81c-42.2-4.8-28.4-0.9-49.9,13
			C1276.6,3191.5,1242.3,3215,1261.4,3175z"/>
		<path class="st17" d="M1115.5,2995.2c12.5-0.5,25.1,0.3,37.4,3.2c3.1,0.7,6.2,1.6,9.2,2.7c3.1,0.9,6,2.3,9,3.5
			c5.8,2.8,11.5,6.1,16.5,10.4c2.6,1.9,4.9,4.4,7.3,6.6c2.1,2.5,4.4,4.8,6.3,7.5c4,5.2,7.2,10.9,10.2,16.6
			c5.6,11.6,9.4,23.9,12.5,36.1c5.8,24.6,8.6,49.5,10.4,74.4c1.9,24.9,2.8,49.7,2.9,74.6c-4.3-24.6-7.4-49.2-10.8-73.8
			c-1.8-12.3-3.3-24.6-5.3-36.7c-1.9-12.2-4.1-24.3-7-36.1c-2.8-11.9-6.4-23.5-11.3-34.4c-5-10.8-11.5-20.9-20.3-28.8
			c-8.6-8.1-19.3-13.8-30.9-17.8C1140.1,2999,1127.9,2996.9,1115.5,2995.2z"/>
		<path class="st17" d="M1272.9,3172.4c4.8-11.8,10.7-23,17.9-33.6c7.2-10.5,15.9-20.6,27.2-28c11.2-7.4,25.3-11.1,38.5-9.6
			c13.3,1.3,25.4,6.7,35.9,13.9c-12.2-3.4-24.3-6.3-36.2-6c-11.8,0.3-23,3.8-32.8,10.2c-9.9,6.3-18.3,15.1-26.5,24.3
			C1288.9,3152.9,1281.3,3162.8,1272.9,3172.4z"/>
	</g>
	<g id="plant-1">
		<path class="st5" d="M3370,2862.4c0.3,2.8-1.7,5.4-4.6,5.7l0,0c-2.8,0.3-5.4-1.7-5.7-4.6l-19.9-181.8c-0.3-2.8,1.7-5.4,4.6-5.7
			l0,0c2.8-0.3,5.4,1.7,5.7,4.6L3370,2862.4z"/>
		<path class="st5" d="M3352.9,2771.8c-7.5,5.3-37.3-19.3-58.8-47.2c-14-18.1-9.2-20.4-20.2-33c-25.9-29.5-52.2-22.5-65-46.9
			c-9.2-17.7,2.5-25-6.6-40.9c-16.6-28.9-63.8-18.2-70.6-38.3c-4.5-13.2,10.8-33.3,27.3-42.9c46-26.9,135.2,10.8,160.5,69.2
			c13.6,31.4-2.3,43.1,12.6,104.8C3343.2,2742.4,3359.6,2767.1,3352.9,2771.8z"/>
		<path class="st5" d="M3339.9,2680.6c0,0,13.1-141.6,95.9-115.5c82.8,26.1,22.5,79.3-17.9,85.1c-40.4,5.7-26.6,6-43.2,24.1
			C3358,2692.3,3331.8,2722.4,3339.9,2680.6z"/>
		<path class="st17" d="M3160.9,2548.6c11.4-3.5,23.4-5.8,35.6-6.1c3.1-0.1,6.1,0,9.2,0.3c3.1,0.1,6.1,0.7,9.2,1.1
			c6.1,1.2,12.2,2.9,17.8,5.7c2.9,1.2,5.6,2.9,8.4,4.4c2.6,1.8,5.3,3.4,7.7,5.5c5,3.8,9.3,8.4,13.5,12.9
			c8.1,9.5,14.6,19.9,20.4,30.6c11.3,21.5,19.9,44,27.6,66.7c7.7,22.7,14.5,45.6,20.6,68.7c-10-21.8-18.9-44-27.9-66
			c-4.6-11-9-22-13.9-32.8c-4.7-10.8-9.7-21.6-15.2-31.9c-5.4-10.4-11.6-20.3-18.8-29.2c-7.3-8.8-15.7-16.6-25.7-21.9
			c-9.9-5.4-21.3-8.2-32.9-9.1C3184.7,2546.3,3172.8,2547.2,3160.9,2548.6z"/>
		<path class="st17" d="M3350,2675.4c1.6-12.1,4.3-24,8.4-35.6c4.1-11.6,9.8-23.1,18.5-32.6c8.7-9.6,20.9-16.4,33.6-18.2
			c12.7-2,25.3,0.2,36.7,4.4c-12.2-0.1-24.1,0.2-35,3.3s-20.3,9.1-27.9,17.4c-7.6,8.2-13.4,18.4-18.8,28.9
			C3360.3,2653.4,3355.5,2664.5,3350,2675.4z"/>
	</g>
</g>
</svg>
