<?xml version="1.0" encoding="UTF-8"?>
<svg id="Layer_1" data-name="Layer 1" xmlns="http://www.w3.org/2000/svg" viewBox="0 0 260 260">
  <circle cx="130" cy="130" r="130" style="fill: #fff;"/>
  <path d="M166.177,225.944c-2.654,0-6.522-.916-9.877-5.281-3.818-4.967-6.552-15.126-9.997-28.937-1.213-4.865-2.359-9.46-3.341-12.385-6.628-19.758-11.372-21.891-13.104-21.891-1.223,0-2.625,1.044-3.585,1.92-5.646,5.148-10.406,22.731-13.882,35.57-1.961,7.246-3.814,14.09-5.726,18.827-4.024,9.972-9.749,12.065-13.843,12.065-7.205,0-14.542-6.165-23.088-19.402-9.963-15.432-22.699-42.023-28.562-70.373-6.693-32.358-2.253-57.516,12.839-72.755,9.878-9.975,22.229-15.247,35.716-15.247,5.99,0,12.048,1.067,18.005,3.173,2.62.926,6.482,3.007,10.954,5.417,3.53,1.902,9.294,5.008,11.406,5.636,1.994-.641,7.329-3.478,10.939-5.398,4.552-2.421,8.851-4.708,11.576-5.653,5.8-2.011,11.741-3.031,17.659-3.031,21.095,0,39.31,12.611,47.535,32.911,7.697,18.994,3.025,45.622-2.25,64.615-5.932,21.36-15.795,44.316-25.741,59.91-8.839,13.854-16.349,20.307-23.634,20.308ZM90.091,66.333c-2.27,0-4.638.278-7.039.827-11.195,2.557-18.727,8.294-23.026,17.54-12.432,26.735,5.625,75.354,18.254,99.868,2.703,5.246,8.661,14.947,12.692,19.949,1.906-5.143,3.543-11.229,5.249-17.568,4.401-16.359,8.953-33.275,19.894-42.511,4.023-3.396,9.37-5.343,14.669-5.343,3.362,0,6.657.786,9.529,2.273,13.768,7.131,20.259,32.094,25.475,52.152.996,3.832,1.961,7.542,2.896,10.78,2.715-3.341,6.081-8.196,7.819-11.067,6.678-11.026,15.917-30.355,21.821-51.537,6.532-23.438,7.136-42.654,1.744-55.572-4.142-9.922-11.682-16.072-23.051-18.799-2.821-.677-5.335-1.006-7.684-1.006-5.271,0-9.844,1.647-16.953,4.892-.9.411-3.444,1.687-6.084,3.047,4.056,1.136,9.038,2.093,13.823,2.647.096.009.213.01.341.01h.068c.319,0,.67-.01,1.031-.019.479-.012.974-.024,1.46-.024,1.708,0,5.708,0,7.594,3.38.524.939,1.533,3.461-.404,6.601-.93,1.506-2.486,4.03-19.546,4.03-.704,0-1.253-.015-1.596-.038-13.44-.872-23.594-7.607-32.552-13.55-8.499-5.638-16.526-10.962-26.426-10.962Z" style="fill: #c6a667;"/>
  <path d="M57.563,66.822c13.115-13.243,30.988-17.069,48.503-10.879,5.423,1.917,20.49,11.451,24.1,11.409,3.306-.038,18.636-9.509,24.08-11.397,24.459-8.483,49.267,3.207,58.922,27.034,12.7,31.341-9.999,92.406-27.573,119.959-4.091,6.415-16.876,25.668-25.331,14.668-5.165-6.72-9.363-30.332-12.561-39.865-3.007-8.963-11.528-34.179-24.799-22.075-10.01,9.13-15.395,42.642-20.875,56.221-7.975,19.761-21.492,2.047-28.093-8.178-20.946-32.443-47.908-105.054-16.371-136.898ZM165.956,84.227c-.826,1.339-14.318,1.775-16.561,1.629-27.17-1.764-39.276-30.008-67.457-23.571-53.99,12.331-24.665,92.428-8.103,124.572,2.097,4.07,14.849,26.391,19.262,25.39,8.752-17.45,10.814-50.966,26.242-63.989,5.039-4.253,12.668-5.561,18.674-2.45,16.135,8.357,21.906,50.343,27.993,66.458,2.688,2.418,13.533-14.393,14.775-16.444,19.192-31.689,53.137-119.99-2.597-133.359-11.186-2.683-17.831-.386-27.879,4.2-1.798.821-13.899,6.95-14.369,7.613-1.534,2.164,6.993,4.208,8.152,4.55,4.784,1.412,10.498,2.472,15.455,3.047,2.274.264,8.427-.911,6.412,2.355Z" style="fill: #c6a667;"/>
</svg>