<svg width="208" height="59" viewBox="0 0 208 59" fill="none" xmlns="http://www.w3.org/2000/svg">
    <path d="M184.043 10.3961C183.325 10.4024 182.618 10.2975 181.907 10.2198C180.669 10.0855 179.511 9.67839 178.392 9.19993C177.19 8.68789 176.01 8.11289 174.865 7.46025C174.002 6.9671 173.122 6.48864 172.215 6.06683C171.275 5.63034 170.374 5.10571 169.423 4.70069C168.566 4.33555 167.663 4.07743 166.779 3.77944C165.939 3.49614 165.063 3.35134 164.199 3.18346C163.311 3.01138 162.387 3.08903 161.52 3.35974C160.536 3.66612 159.604 4.08583 158.732 4.67761C157.689 5.38481 156.795 6.23472 155.979 7.17695C154.716 8.63543 153.713 10.266 152.906 12.0224C152.284 13.376 151.794 14.7736 151.513 16.2405C151.471 16.272 151.459 16.3097 151.488 16.3559C151.275 16.1796 151.317 15.9173 151.3 15.6907C151.267 15.2563 151.288 14.8177 151.269 14.3833C151.25 13.951 151.331 13.5229 151.342 13.0927C151.352 12.6772 151.429 12.2449 151.513 11.8378C151.701 10.9207 151.928 10.0037 152.284 9.13278C152.553 8.47384 152.81 7.80861 153.158 7.18325C153.769 6.08572 154.399 4.99868 155.25 4.06904C156.334 2.88337 157.508 1.79004 158.966 1.08704C159.866 0.652641 160.813 0.312681 161.818 0.188868C162.07 0.253922 162.321 0.155291 162.583 0.180474C162.442 0.0734488 162.223 0.180474 162.123 -0.00209808C163.13 -0.00209808 164.139 -0.00209808 165.146 -0.00209808C165.096 0.0377739 165.006 0.0734488 165 0.119616C164.988 0.207754 165.084 0.201459 165.146 0.205656C165.211 0.209853 165.278 0.201459 165.344 0.19936C165.841 0.325272 166.353 0.35675 166.844 0.522533C167.778 0.841509 168.722 1.12061 169.625 1.52982C172.023 2.61476 174.196 4.06904 176.304 5.63034C177.895 6.80971 179.478 8.00797 181.209 8.97539C182.103 9.47484 183.029 9.92182 184.028 10.1862C184.057 10.2534 184.076 10.3226 184.047 10.3961H184.043Z"
          fill="#C6A667"/>
    <path d="M184.741 35.57C185.434 36.9298 186.115 38.2981 186.664 39.723C187.456 41.7732 188.182 43.8466 188.718 45.9871C188.989 47.0762 189.229 48.1695 189.439 49.267C189.79 51.0802 190.059 52.9059 190.186 54.7505C190.209 55.08 190.242 55.4136 190.315 55.7347C190.419 56.1964 190.69 56.3244 191.21 56.2111C191.239 56.188 191.266 56.1649 191.295 56.1418C191.539 55.9655 191.706 55.7032 191.829 55.4535C192.119 54.868 192.505 54.3434 192.832 53.7852C193.186 53.185 193.547 52.5827 193.92 51.9909C194.4 51.2271 194.809 50.417 195.249 49.6259C195.814 48.6102 196.321 47.5609 196.844 46.5222C197.257 45.6975 197.665 44.8727 198.083 44.0501C198.497 43.2296 198.839 42.3734 199.217 41.5361C199.509 40.8897 199.836 40.2581 200.091 39.597C200.574 38.3358 201.1 37.0893 201.534 35.8092C201.788 35.0579 202.107 34.3277 202.32 33.5659C202.674 32.3068 203.131 31.0833 203.444 29.8095C203.594 29.1989 203.752 28.5798 203.944 27.9733C204.14 27.3522 204.224 26.6932 204.342 26.049C204.503 25.1718 204.67 24.2967 204.795 23.4153C204.91 22.6011 204.98 21.7785 205.056 20.9601C205.095 20.5257 205.058 20.0892 205.11 19.6506C205.164 19.1847 205.133 18.7083 205.124 18.2383C205.116 17.785 205.091 17.3296 205.072 16.8763C205.06 16.5636 205.045 16.251 204.937 15.9509C204.937 15.9152 204.937 15.8816 204.935 15.846C204.92 15.2038 204.839 14.5742 204.634 13.9594C204.526 13.632 204.47 13.2837 204.388 12.9458C204.157 11.9742 203.825 11.0382 203.483 10.1044C202.916 8.55358 202.14 7.12029 201.139 5.80452C200.866 5.44567 200.576 5.10361 200.253 4.80562C199.932 4.50763 199.53 4.29568 199.156 4.05855C197.98 3.31567 196.696 2.86029 195.311 2.8393C194.331 2.82461 193.364 2.982 192.386 3.20025C190.745 3.56959 189.233 4.26 187.683 4.85389C186.858 5.17076 186.076 5.60516 185.267 5.9703C184.353 6.38161 183.444 6.81181 182.452 7.00487C182.41 6.9671 182.377 6.98808 182.345 7.02166C182.239 7.02796 182.133 7.03635 182.028 7.04265C182.047 7.01327 182.055 6.97969 182.049 6.94402C183.559 6.4047 184.848 5.46036 186.218 4.66502C187.467 3.94103 188.684 3.16457 190.031 2.61266C190.555 2.39651 191.082 2.15099 191.606 1.93274C192.144 1.7082 192.728 1.53402 193.32 1.43119C194.087 1.29899 194.846 1.15629 195.63 1.1353C196.817 1.10382 197.951 1.30528 199.067 1.68931C200.712 2.25591 201.99 3.32826 203.102 4.62725C203.977 5.65132 204.705 6.77823 205.3 7.99118C206.217 9.86096 206.993 11.7832 207.401 13.8377C207.927 16.4671 208.121 19.1197 207.929 21.7995C207.823 23.281 207.639 24.7521 207.393 26.2169C207.097 27.9712 206.709 29.7025 206.232 31.4149C205.829 32.8587 205.393 34.2899 204.885 35.7001C204.459 36.8795 204.021 38.0567 203.533 39.2109C203.135 40.1574 202.703 41.0912 202.299 42.0334C200.714 45.7226 198.752 49.202 196.658 52.6142C195.645 54.2678 194.561 55.869 193.418 57.4324C192.728 58.3767 191.804 58.7293 190.674 58.6055C190.572 58.595 190.469 58.5509 190.373 58.6223C190.338 58.6097 190.305 58.5971 190.269 58.5845C189.577 58.4166 189.074 57.9549 188.634 57.4387C188.411 57.1764 188.269 56.8406 188.209 56.4734C188.019 55.3129 188.142 54.1419 188.063 52.9793C188.017 52.3015 187.99 51.6237 187.936 50.9459C187.923 50.7822 187.946 50.5933 187.811 50.4548C187.95 50.3877 187.896 50.3331 187.8 50.2785C187.925 49.9805 187.827 49.6993 187.734 49.4202C187.723 49.3867 187.723 49.351 187.729 49.3174C187.742 48.648 187.588 47.9953 187.531 47.3343C187.479 46.7173 187.196 46.1381 187.243 45.5065C187.262 45.2505 187.064 45.0553 187.043 44.8182C186.977 44.0732 186.793 43.3513 186.637 42.6252C186.305 41.087 185.859 39.5803 185.394 38.0798C185.175 37.3726 184.927 36.6759 184.7 35.9708C184.658 35.8428 184.649 35.7022 184.624 35.5679C184.662 35.5679 184.7 35.57 184.739 35.5721L184.741 35.57Z"
          fill="#C6A667"/>
    <path d="M39.4942 20.1458C40.272 20.213 41.0519 20.2571 41.8276 20.3515C42.7993 20.469 43.7564 20.6621 44.6906 20.9831C46.2087 21.5078 47.0323 22.5696 47.343 24.133C47.4765 24.8025 47.4973 25.4782 47.5953 26.1455C47.6308 26.3868 47.5495 26.4603 47.3263 26.4603C46.511 26.4561 45.6978 26.4603 44.9137 26.4603C44.7636 26.3449 44.8074 26.2085 44.8074 26.0972C44.8011 25.4068 44.553 24.7857 44.2569 24.1834C44.1109 23.8875 43.8565 23.6714 43.5729 23.4972C43.2059 23.2747 42.7972 23.1446 42.3864 23.1026C42.1133 23.0754 41.8589 22.9369 41.5794 22.9767C41.521 22.9683 41.5106 22.7249 41.4064 22.939C41.2166 22.7816 40.981 22.8047 40.7641 22.7984C38.1805 22.7186 35.5969 22.7207 33.0133 22.8026C32.2543 22.8256 31.5119 23.067 30.8822 23.5266C30.4735 23.8245 30.217 24.2421 30.1023 24.7647C29.973 25.3628 29.9918 25.9692 30.1482 26.5253C30.3484 27.2409 30.8301 27.797 31.5328 28.1118C32.3147 28.4602 33.1593 28.5315 33.9934 28.6407C34.0517 28.6931 34.1122 28.7015 34.1769 28.6532C35.2132 28.7813 36.2537 28.7687 37.2943 28.7687C39.4275 28.7687 41.5607 28.8253 43.6813 29.0709C44.4445 29.159 45.2119 29.2534 45.9355 29.5787C46.7029 29.9229 47.2304 30.4643 47.5557 31.2323C48.077 32.4726 48.2438 33.7652 48.0729 35.0936C47.9623 35.9498 47.7559 36.7745 47.245 37.5027C46.7612 38.1931 46.119 38.659 45.3475 38.936C44.7803 39.1396 44.1964 39.3473 43.6042 39.4124C43.1642 39.4606 42.718 39.5047 42.2738 39.5425C40.0238 39.7334 37.7718 39.8153 35.5156 39.7376C34.4271 39.6999 33.3323 39.6558 32.2501 39.4837C32.1333 39.4648 32.0103 39.4292 31.8977 39.5047C31.8622 39.4963 31.8268 39.49 31.7934 39.4816C31.1428 39.4187 30.5131 39.2508 29.8813 39.0997C29.2766 38.957 28.7094 38.6674 28.1901 38.3316C27.6105 37.956 27.2789 37.3621 27.0287 36.72C26.6596 35.7714 26.6784 34.7725 26.6095 33.7841C26.5949 33.5638 26.6304 33.3392 26.499 33.1462C26.6408 33.0706 26.7597 33.0559 26.8827 33.0559C27.6292 33.0559 28.3757 33.0664 29.1222 33.0559C29.3933 33.0518 29.4976 33.1525 29.4851 33.4232C29.4538 34.0213 29.5122 34.6068 29.6894 35.1839C29.9563 36.0505 30.5465 36.5311 31.4014 36.7473C32.4357 37.0096 33.495 37.0809 34.5501 37.1103C36.9273 37.1754 39.3086 37.1984 41.6816 37.0096C42.401 36.9529 43.1308 36.8983 43.8169 36.6108C44.724 36.231 45.1994 35.5448 45.262 34.5669C45.2786 34.3067 45.2891 34.0381 45.2536 33.782C45.0597 32.4117 44.6343 31.9752 43.4979 31.7108C42.8744 31.566 42.2342 31.4883 41.5899 31.4611C40.3408 31.4065 39.0897 31.417 37.8406 31.4065C35.9118 31.3876 33.9871 31.2932 32.0854 30.949C31.1574 30.7811 30.2441 30.5482 29.3912 30.1411C28.5759 29.7508 27.992 29.1128 27.648 28.265C27.1454 27.0311 27.1517 25.7384 27.2664 24.4457C27.2977 24.0911 27.306 23.7301 27.4103 23.3755C27.8127 22.0156 28.6677 21.1468 30.046 20.8006C31.2262 20.5047 32.4253 20.3494 33.6347 20.2508C35.5239 20.0955 37.4173 20.1185 39.3107 20.1332C39.3691 20.1878 39.4316 20.1857 39.4963 20.1416L39.4942 20.1458Z"
          fill="#092648"/>
    <path d="M78.5861 29.8746C78.5861 26.9199 78.5861 23.9651 78.5861 21.0104C78.5861 20.8887 78.5924 20.7649 78.5861 20.6432C78.5736 20.4417 78.6633 20.3557 78.8634 20.3704C78.9844 20.3788 79.1074 20.3704 79.2284 20.3704C84.2496 20.3704 89.2688 20.362 94.29 20.3767C95.343 20.3809 96.3898 20.4879 97.4262 20.7481C98.8108 21.0965 99.6803 21.9653 100.181 23.2579C100.679 24.5422 100.898 25.8895 101.021 27.2577C101.188 29.0918 101.173 30.9259 101.004 32.7559C100.863 34.2899 100.6 35.7987 99.8868 37.1942C99.3675 38.2141 98.5543 38.8101 97.47 39.1228C96.5441 39.3893 95.6037 39.4564 94.6591 39.4585C89.4648 39.4732 84.2705 39.4648 79.0761 39.4648C79.0073 39.4648 78.9364 39.4585 78.8676 39.4648C78.6779 39.4816 78.5694 39.4187 78.5882 39.2046C78.5986 39.0829 78.5882 38.9591 78.5882 38.8374C78.5882 35.847 78.5882 32.8587 78.5882 29.8683L78.5861 29.8746ZM98.1894 27.4004C98.1352 26.5128 97.9809 25.6419 97.6577 24.815C97.422 24.2128 96.9987 23.7427 96.4232 23.4447C95.8143 23.1299 95.1533 23.0208 94.4693 23.0208C90.2488 23.0187 86.0283 23.0145 81.8078 23.0019C81.5492 23.0019 81.4095 23.0607 81.4345 23.3461C81.445 23.4678 81.4345 23.5916 81.4345 23.7133C81.4345 27.8915 81.4345 32.0696 81.4345 36.2457C81.4345 36.3338 81.4408 36.422 81.4345 36.508C81.4116 36.7494 81.4992 36.8648 81.7557 36.8459C82.0142 36.8291 82.277 36.8354 82.5376 36.8354C86.5329 36.8396 90.5282 36.8438 94.5215 36.8522C95.0449 36.8522 95.5641 36.8291 96.0583 36.6297C96.7443 36.3548 97.3219 35.9225 97.6055 35.2321C97.8599 34.6152 98.033 33.9604 98.1081 33.2847C98.3187 31.3855 98.3541 29.4864 98.1998 27.5809C98.2478 27.5158 98.2415 27.455 98.1873 27.3962L98.1894 27.4004Z"
          fill="#092648"/>
    <path d="M8.04271 39.7335C7.81751 39.5614 7.54226 39.6096 7.2962 39.6033C6.39329 39.5761 5.50915 39.3809 4.61042 39.3305C4.1746 39.3054 3.73045 39.1585 3.32174 38.9885C2.91721 38.8206 2.49599 38.6905 2.12273 38.4219C1.25319 37.7923 0.517104 36.7787 0.319007 35.7798C0.271047 35.5427 0.296069 35.293 0.268961 35.0516C0.25645 34.9362 0.254365 34.804 0.145932 34.7201C0.287728 34.6487 0.214745 34.5942 0.131336 34.5417C0.218916 34.4788 0.193893 34.3864 0.185552 34.3046C-0.0146305 32.3655 -0.0146305 30.4223 0.0208184 28.477C0.0395855 27.5494 0.0687788 26.6177 0.158444 25.6901C0.214745 25.0983 0.241853 24.494 0.38782 23.9295C0.725627 22.62 1.54929 21.7176 2.8192 21.1846C3.74088 20.7964 4.69174 20.6096 5.66138 20.4795C8.45767 20.1081 11.2727 20.0724 14.0836 20.1794C15.4474 20.2319 16.8174 20.2906 18.1707 20.5508C18.8984 20.6914 19.6199 20.8132 20.3143 21.0902C21.8219 21.6882 22.7123 22.7984 23.023 24.3765C23.2774 25.6649 23.3212 26.9765 23.3462 28.286C23.3838 30.2439 23.3838 32.2039 23.2232 34.1556C23.1481 35.081 23.0522 36.017 22.5997 36.8543C22.1806 37.6307 21.5801 38.2162 20.7856 38.6317C19.841 39.127 18.8275 39.2991 17.7974 39.4313C17.4388 39.4774 17.0822 39.5782 16.7319 39.6054C16.4003 39.6306 16.0563 39.6096 15.7164 39.6348C13.6687 39.7943 11.6168 39.767 9.56493 39.7376C9.18542 39.7314 8.80591 39.6726 8.42223 39.6747C8.2846 39.6264 8.1428 39.5446 8.04271 39.7335ZM11.7961 22.7459C11.0121 22.7081 9.79848 22.7732 8.58487 22.8089C7.35459 22.8445 6.12638 22.9495 4.93154 23.2789C4.34768 23.4405 3.86182 23.7133 3.57614 24.3051C3.38013 24.7122 3.21123 25.1466 3.15284 25.5642C3.04024 26.3722 2.90678 27.1864 2.90678 28.009C2.90678 30.1894 2.77541 32.376 3.21957 34.5375C3.45728 35.7001 3.93897 36.3653 5.05249 36.636C6.53092 36.997 8.03646 37.0872 9.54408 37.125C10.8098 37.1565 12.0776 37.1649 13.3455 37.1397C14.5445 37.1145 15.7393 37.0599 16.93 36.9151C17.566 36.8375 18.1999 36.7263 18.8046 36.4975C19.23 36.3359 19.5595 36.061 19.7596 35.6539C20.0745 35.0097 20.2267 34.3151 20.3164 33.6058C20.5917 31.4128 20.5708 29.2136 20.4019 27.0164C20.3539 26.391 20.2518 25.7699 20.1058 25.1571C19.8618 24.133 19.2946 23.4468 18.2187 23.2642C17.7954 23.1929 17.3887 23.0376 16.9571 22.9872C15.3848 22.8005 13.8084 22.7543 11.794 22.7522L11.7961 22.7459Z"
          fill="#092648"/>
    <path d="M106.904 28.0321C107.041 27.8894 107.006 27.7005 107.01 27.5368C107.029 26.838 107.102 26.1371 107.202 25.453C107.323 24.6178 107.498 23.7763 107.917 23.004C108.217 22.4521 108.501 21.917 109.047 21.5665C109.36 21.3651 109.685 21.2098 110.038 21.0965C110.521 20.9412 110.995 20.7523 111.502 20.6621C112.438 20.4942 113.374 20.3326 114.323 20.2612C116.143 20.1269 117.968 20.0787 119.79 20.1689C121.194 20.2382 122.603 20.2843 123.988 20.555C124.728 20.6998 125.47 20.8425 126.152 21.1972C126.695 21.4784 127.105 21.8771 127.381 22.4206C127.931 23.5077 128.142 24.6765 128.219 25.879C128.238 26.1749 128.236 26.4729 128.25 26.7709C128.261 26.9744 128.167 27.0521 127.973 27.0521C127.208 27.0521 126.444 27.0479 125.679 27.0584C125.435 27.0605 125.385 26.9367 125.402 26.7289C125.429 26.3952 125.368 26.0679 125.337 25.7363C125.277 25.1088 125.039 24.5548 124.711 24.0239C124.538 23.7448 124.317 23.5077 124.023 23.4279C123.469 23.2789 122.962 23.0187 122.364 22.9516C119.573 22.6389 116.786 22.7333 113.995 22.8655C113.858 22.8718 113.716 22.8844 113.583 22.9159C113.343 22.9746 113.107 23.0082 112.857 23.025C112.188 23.0691 111.547 23.3062 110.995 23.6818C110.574 23.9672 110.317 24.431 110.205 24.9263C109.933 26.1203 109.792 27.3354 109.798 28.5588C109.804 29.904 109.737 31.2512 109.865 32.5943C109.936 33.3413 110.042 34.0779 110.182 34.8145C110.396 35.9372 111.13 36.4744 112.156 36.7263C113.276 37.0012 114.421 37.0872 115.564 37.1166C117.611 37.1712 119.663 37.1858 121.709 37.0285C122.278 36.9844 122.862 36.955 123.41 36.8102C124.317 36.5689 124.841 35.912 125.116 35.0118C125.31 34.3738 125.427 33.7359 125.406 33.0727C125.4 32.8566 125.5 32.8062 125.687 32.8083C126.453 32.8167 127.216 32.8209 127.981 32.8188C128.185 32.8188 128.252 32.907 128.25 33.1042C128.229 34.485 128.094 35.8491 127.537 37.1292C127.047 38.2561 126.152 38.8689 124.974 39.1312C122.122 39.767 118.785 39.7943 116.135 39.7335C115.096 39.7104 114.056 39.6327 113.022 39.4879C112.292 39.3851 111.558 39.3284 110.847 39.1207C109.831 38.8227 108.839 38.4722 108.238 37.4985C107.844 36.8606 107.585 36.1702 107.398 35.4399C107.135 34.4158 107.141 33.3623 107 32.3236C106.914 31.6961 106.958 31.0644 106.949 30.4349C106.941 29.8053 106.954 29.1758 106.954 28.5462C106.954 28.4287 107.01 28.3007 106.899 28.2021C106.995 28.1475 107.045 28.0887 106.906 28.0258L106.904 28.0321Z"
          fill="#092648"/>
    <path d="M75.2498 39.4187C75.1977 39.4774 75.1268 39.469 75.06 39.469C74.1738 39.469 73.2876 39.4669 72.4035 39.4732C72.1803 39.4732 72.0281 39.4334 71.9155 39.1941C71.4359 38.1722 70.8917 37.1816 70.3307 36.2037C70.1514 35.8932 70.1243 35.4525 69.8053 35.2783C69.5071 35.1167 69.1234 35.251 68.7793 35.2489C64.8195 35.2384 60.8596 35.2405 56.8997 35.2174C56.4931 35.2153 56.3242 35.3958 56.1637 35.7127C55.5944 36.8396 54.9938 37.9476 54.435 39.0787C54.2911 39.3725 54.1326 39.4858 53.8094 39.4774C53.0108 39.4564 52.2121 39.4711 51.4135 39.469C51.28 39.469 51.1466 39.4522 50.9485 39.4397C51.4197 38.808 51.5991 38.0819 52.0286 37.4775C52.2622 37.1481 52.3748 36.7326 52.5666 36.3695C53.0295 35.4923 53.4695 34.5984 53.9575 33.7401C54.4413 32.8923 54.7811 31.971 55.3296 31.1568C55.5652 30.8063 55.6799 30.3719 55.8947 30.0047C56.3784 29.1758 56.76 28.2902 57.2396 27.4613C57.7651 26.5568 58.2114 25.6125 58.6972 24.6912C59.2623 23.6168 59.8816 22.5654 60.3591 21.4469C60.4947 21.1321 60.7783 20.9055 60.8304 20.5404C60.8513 20.383 61.0431 20.3851 61.1786 20.3809C61.5436 20.3725 61.9085 20.3746 62.2734 20.3746C63.2118 20.3746 64.1501 20.3746 65.0864 20.3746C65.2657 20.3746 65.3783 20.3977 65.4826 20.6033C66.8984 23.3566 68.3352 26.0972 69.7656 28.8421C70.9584 31.1274 72.147 33.4127 73.3418 35.698C73.959 36.8774 74.5784 38.0567 75.1998 39.234C75.2331 39.297 75.279 39.3452 75.2456 39.4208L75.2498 39.4187ZM68.5583 32.632C68.6229 32.4516 68.5124 32.3404 68.4519 32.2228C67.1945 29.7739 65.933 27.3249 64.6714 24.878C64.3524 24.2589 64.0229 23.6441 63.708 23.0208C63.5996 22.8068 63.4557 22.7417 63.218 22.7228C62.8927 22.6976 62.7572 22.855 62.6258 23.111C61.0702 26.1518 59.5042 29.1884 57.9444 32.227C57.884 32.3467 57.7839 32.4579 57.8152 32.63H68.5562L68.5583 32.632Z"
          fill="#092648"/>
    <path d="M133.428 29.9312C133.428 26.9597 133.428 23.9882 133.428 21.0146C133.428 20.8929 133.434 20.7691 133.428 20.6474C133.415 20.448 133.497 20.3683 133.701 20.3704C134.466 20.3788 135.229 20.3767 135.995 20.3704C136.184 20.3704 136.293 20.427 136.282 20.6369C136.276 20.7754 136.282 20.916 136.282 21.0566C136.282 23.365 136.282 25.6712 136.282 27.9796C136.282 28.4497 136.287 28.4497 136.727 28.4497C141.765 28.4476 146.802 28.4455 151.838 28.4413C151.89 28.4413 151.943 28.4413 151.995 28.4413C152.428 28.4329 152.431 28.4329 152.437 28.0153C152.441 27.7005 152.422 27.3857 152.443 27.071C152.489 26.3701 152.368 25.6754 152.426 24.9703C152.485 24.2715 152.439 23.5643 152.439 22.8592C152.439 22.1541 152.437 21.4511 152.447 20.746C152.453 20.3809 152.466 20.3746 152.835 20.3725C153.565 20.3683 154.295 20.3767 155.025 20.3683C155.246 20.3662 155.35 20.4417 155.329 20.6705C155.321 20.7754 155.329 20.8803 155.329 20.9852C155.329 26.9471 155.329 32.907 155.329 38.8689C155.329 38.9738 155.323 39.0787 155.329 39.1836C155.344 39.3767 155.275 39.4732 155.066 39.4711C154.284 39.4648 153.502 39.4606 152.72 39.4711C152.376 39.4774 152.439 39.2445 152.439 39.043C152.439 36.5962 152.441 34.1472 152.443 31.7003C152.443 31.6122 152.437 31.524 152.447 31.438C152.474 31.1778 152.391 31.033 152.103 31.0707C152.001 31.0833 151.895 31.0707 151.79 31.0707C146.84 31.0707 141.89 31.0707 136.939 31.0707C136.87 31.0707 136.8 31.0707 136.731 31.0707C136.276 31.077 136.278 31.077 136.278 31.5324C136.278 33.8744 136.282 36.2184 136.282 38.5604C136.282 38.787 136.274 39.0158 136.276 39.2424C136.276 39.3935 136.212 39.4648 136.059 39.4648C135.261 39.4648 134.462 39.4606 133.661 39.4669C133.474 39.4669 133.422 39.3767 133.43 39.2088C133.436 39.0871 133.43 38.9633 133.43 38.8416C133.43 35.8701 133.43 32.8986 133.43 29.925L133.428 29.9312Z"
          fill="#092648"/>
    <path d="M159.049 20.3725C160.208 20.3725 161.337 20.3746 162.465 20.3704C162.673 20.3704 162.832 20.4438 162.969 20.5928C164.237 21.9569 165.582 23.2474 166.84 24.6241C167.626 25.4866 168.474 26.2903 169.292 27.1234C169.976 27.8201 170.653 28.521 171.337 29.2177C171.567 29.4507 171.563 29.4402 171.792 29.1989C172.065 28.9093 172.355 28.6365 172.634 28.3532C174.672 26.2819 176.626 24.1267 178.696 22.087C179.18 21.6127 179.626 21.1007 180.087 20.6033C180.208 20.4732 180.331 20.3788 180.523 20.3809C181.701 20.3872 182.879 20.383 184.047 20.383C184.137 20.5634 183.991 20.6222 183.918 20.6998C183.603 21.0251 183.277 21.342 182.96 21.6631C180.869 23.7847 178.765 25.8937 176.696 28.0363C175.57 29.201 174.426 30.3489 173.283 31.4967C173.054 31.7276 172.966 31.9542 172.968 32.2774C172.983 34.4808 172.976 36.6822 172.978 38.8857C172.978 39.0074 172.972 39.1312 172.976 39.2529C172.981 39.4061 172.905 39.4711 172.757 39.4711C171.959 39.4711 171.16 39.4669 170.359 39.4711C170.168 39.4711 170.126 39.3725 170.132 39.2088C170.138 39.0871 170.132 38.9633 170.132 38.8416C170.132 36.6906 170.122 34.5417 170.14 32.3907C170.145 32.0277 170.047 31.7675 169.78 31.5303C169.469 31.2533 169.194 30.9385 168.952 30.5923C168.702 30.2334 168.32 30.0005 168.013 29.692C166.412 28.072 164.806 26.4561 163.203 24.836C162.946 24.5779 162.717 24.2988 162.496 24.005C162.206 23.6168 161.81 23.323 161.437 23.0124C160.874 22.5444 160.494 21.8981 159.946 21.4133C159.712 21.2077 159.491 20.9873 159.264 20.7712C159.166 20.6768 159.051 20.5886 159.049 20.3704V20.3725Z"
          fill="#092648"/>
    <path d="M162.119 0C162.219 0.18467 162.438 0.0755469 162.58 0.182572C162.317 0.157389 162.067 0.25602 161.814 0.190966C161.812 0.12801 161.808 0.0650542 161.806 0.00209852C161.91 0.00209852 162.014 0.00209852 162.119 0.00209852V0Z"
          fill="#C6A667"/>
    <path d="M165.34 0.19936C165.273 0.201459 165.207 0.211951 165.142 0.205656C165.082 0.201459 164.986 0.207754 164.996 0.119616C165.002 0.0734488 165.09 0.0377739 165.142 -0.00209808C165.211 -0.00209808 165.282 -0.00209808 165.351 -0.00209808C165.346 0.0650547 165.344 0.130109 165.34 0.197262V0.19936Z"
          fill="#C6A667"/>
    <path d="M48.9362 52.5764C64.711 52.5764 80.4858 52.5764 96.2606 52.5764C97.1718 52.5764 97.0676 52.4778 97.0613 53.3864C97.0571 54.2322 97.1676 54.1482 96.3169 54.1482C64.7485 54.1482 33.1822 54.1482 1.61389 54.1482C0.700559 54.1482 0.817332 54.2657 0.815247 53.3382C0.815247 52.4967 0.70473 52.5743 1.55551 52.5743C17.347 52.5743 33.1405 52.5743 48.932 52.5743L48.9362 52.5764Z"
          fill="#C6A667"/>
    <path d="M143.258 47.8799C143.258 51.4033 143.258 54.8113 143.258 58.2214C143.258 58.8888 143.306 58.8573 142.647 58.8552C142.334 58.8552 142.021 58.8447 141.708 58.8531C141.473 58.8594 141.346 58.7755 141.362 58.5194C141.371 58.4145 141.362 58.3096 141.362 58.2047C141.362 54.3748 141.362 50.5471 141.362 46.7173C141.362 46.5956 141.366 46.4718 141.362 46.3501C141.356 46.1507 141.454 46.0689 141.646 46.0689C142.376 46.0731 143.106 46.0689 143.835 46.0752C144.015 46.0752 144.159 46.1549 144.29 46.2892C145.249 47.2776 146.231 48.2409 147.174 49.244C148.963 51.1494 150.831 52.9772 152.639 54.8617C153.229 55.4766 153.807 56.1019 154.405 56.7105C154.526 56.8322 154.626 56.9833 154.835 57.0379C154.975 56.8826 154.912 56.6853 154.912 56.5091C154.916 53.2563 154.914 50.0036 154.916 46.753C154.916 46.0164 154.845 46.071 155.582 46.0689C155.878 46.0689 156.172 46.0773 156.468 46.0689C156.705 46.0605 156.831 46.1444 156.812 46.3984C156.803 46.5033 156.812 46.6082 156.812 46.7131C156.812 50.5429 156.812 54.3707 156.812 58.2005C156.812 58.3054 156.806 58.4103 156.812 58.5152C156.831 58.7608 156.728 58.8615 156.48 58.8573C155.715 58.8489 154.952 58.8489 154.186 58.8531C153.976 58.8531 153.828 58.7587 153.686 58.616C152.758 57.6716 151.793 56.7609 150.906 55.7767C150.17 54.9603 149.384 54.1986 148.623 53.4116C146.978 51.7076 145.322 50.0141 143.671 48.3143C143.552 48.1926 143.437 48.0688 143.258 47.8778V47.8799Z"
          fill="#C6A667"/>
    <path d="M173.375 45.9514C173.929 45.9514 174.486 45.9304 175.041 45.9556C176.077 46.0038 177.105 46.1004 178.123 46.3417C179.157 46.5851 179.743 47.2273 180.001 48.2136C180.164 48.8368 180.222 49.4811 180.254 50.1232C180.275 50.5429 180.25 50.5555 179.818 50.5597C179.47 50.5639 179.124 50.566 178.775 50.5597C178.404 50.5513 178.383 50.5471 178.377 50.1841C178.371 49.777 178.233 49.3971 178.121 49.0236C177.945 48.4486 177.535 48.1003 176.919 47.9282C176.123 47.7078 175.316 47.6806 174.509 47.6512C173.677 47.6197 172.841 47.6281 172.009 47.6512C171.248 47.6701 170.487 47.7372 169.736 47.8694C169.469 47.9156 169.206 48.0247 168.956 48.1359C168.664 48.2681 168.468 48.4906 168.345 48.8075C168.082 49.4853 168.009 50.1988 167.978 50.9081C167.932 51.9364 167.938 52.9709 167.978 54.0013C168.001 54.6414 168.068 55.2877 168.274 55.9047C168.451 56.4293 168.745 56.7902 169.34 56.9204C169.969 57.0568 170.597 57.1449 171.235 57.1995C172.274 57.2897 173.316 57.3401 174.355 57.2582C175.233 57.189 176.123 57.2645 176.986 57.0022C177.545 56.8322 177.929 56.5007 178.087 55.9361C178.206 55.5059 178.408 55.0925 178.379 54.6246C178.367 54.4147 178.498 54.3602 178.679 54.3623C179.113 54.3665 179.547 54.3623 179.983 54.3623C180.137 54.3623 180.27 54.4 180.26 54.5889C180.204 55.6319 180.147 56.6769 179.586 57.6087C179.18 58.2844 178.513 58.5173 177.806 58.6453C175.781 59.0147 173.733 59.0336 171.688 58.9517C170.724 58.9119 169.757 58.8363 168.806 58.6453C168.174 58.5173 167.596 58.2697 167.133 57.7787C166.675 57.2918 166.397 56.6916 166.322 56.0663C166.206 55.1177 166.06 54.1713 166.06 53.2039C166.06 51.9448 166.08 50.6877 166.206 49.4391C166.287 48.6228 166.566 47.8568 167.054 47.1811C167.254 46.9041 167.54 46.732 167.842 46.6103C168.601 46.3081 169.398 46.1612 170.207 46.0626C171.26 45.9367 172.319 45.9409 173.377 45.9493L173.375 45.9514Z"
          fill="#C6A667"/>
    <path d="M112.117 45.9346C113.472 45.9136 114.823 45.9724 116.164 46.1759C116.656 46.2494 117.148 46.3585 117.603 46.5914C118.058 46.8223 118.389 47.1622 118.575 47.6365C118.89 48.4381 119.031 49.2775 119.048 50.1358C119.056 50.5597 119.04 50.5618 118.602 50.566C118.201 50.5681 117.803 50.5597 117.403 50.566C117.186 50.5702 117.078 50.4905 117.092 50.2617C117.1 50.1232 117.075 49.9805 117.092 49.842C117.165 49.2964 116.873 48.8704 116.642 48.4276C116.525 48.2052 116.289 48.0856 116.06 48.0121C115.735 47.9072 115.401 47.8023 115.065 47.7624C113.51 47.5861 111.944 47.6092 110.384 47.6722C109.838 47.6932 109.281 47.7309 108.73 47.8338C107.233 48.1171 107.062 48.5577 106.877 49.7602C106.641 51.2858 106.743 52.8282 106.776 54.3644C106.785 54.761 106.891 55.1555 106.96 55.55C107.127 56.4902 107.719 56.956 108.63 57.061C110.39 57.2603 112.152 57.3694 113.923 57.2037C114.542 57.1449 115.167 57.1785 115.776 56.9959C116.335 56.8301 116.706 56.4923 116.882 55.932C117.005 55.5353 117.105 55.1324 117.09 54.7127C117.082 54.4819 117.144 54.3497 117.407 54.356C117.857 54.3686 118.31 54.3623 118.762 54.3581C118.954 54.3581 119.054 54.4357 119.048 54.6372C119.013 55.6172 118.952 56.5972 118.431 57.4597C118.154 57.9214 117.778 58.2907 117.228 58.4775C116.596 58.6894 115.945 58.7818 115.297 58.8447C113.654 59.0042 112.002 59.0441 110.357 58.9454C109.448 58.8909 108.528 58.8342 107.631 58.6474C107.346 58.5887 107.064 58.5047 106.793 58.3977C106.074 58.1165 105.644 57.5709 105.352 56.8595C104.977 55.9529 104.944 54.996 104.891 54.0496C104.833 52.9877 104.833 51.9154 104.896 50.8535C104.948 49.9554 105.021 49.0509 105.319 48.1842C105.605 47.3469 106.097 46.7467 106.977 46.4844C107.744 46.2578 108.524 46.1402 109.314 46.0395C110.25 45.9199 111.187 45.9808 112.121 45.9325L112.117 45.9346Z"
          fill="#C6A667"/>
    <path d="M122.093 52.4673C122.093 50.5618 122.093 48.6564 122.093 46.7509C122.093 46.6103 122.093 46.4718 122.093 46.3312C122.093 46.1612 122.17 46.0731 122.343 46.0731C122.829 46.0731 123.314 46.0731 123.802 46.0731C123.978 46.0731 124.051 46.1675 124.051 46.3354C124.051 46.476 124.053 46.6145 124.053 46.7551C124.053 49.9365 124.053 53.1178 124.053 56.2992C124.053 56.4041 124.053 56.509 124.053 56.614C124.061 57.0652 124.061 57.0694 124.526 57.0694C127.339 57.0694 130.154 57.0694 132.967 57.0694C133.741 57.0694 133.668 57.0001 133.659 57.7745C133.655 58.1165 133.814 58.5404 133.568 58.7797C133.344 58.9958 132.936 58.8489 132.61 58.8489C129.364 58.8552 126.115 58.8531 122.868 58.8531C122.799 58.8531 122.729 58.8531 122.66 58.8531C122.063 58.8531 122.093 58.8951 122.093 58.2865C122.093 56.3475 122.093 54.4063 122.093 52.4673Z"
          fill="#C6A667"/>
    <path d="M160.876 52.4757C160.876 50.5534 160.876 48.6312 160.876 46.7068C160.876 46.5851 160.876 46.4613 160.876 46.3396C160.876 46.1738 160.943 46.0731 161.12 46.0731C161.606 46.0731 162.092 46.0731 162.579 46.0731C162.75 46.0731 162.836 46.1549 162.836 46.327C162.836 46.4487 162.838 46.5725 162.838 46.6943C162.838 50.522 162.838 54.3497 162.838 58.1774C162.838 58.2655 162.842 58.3516 162.838 58.4397C162.819 58.7797 162.775 58.8363 162.442 58.8468C162.025 58.8594 161.608 58.8405 161.191 58.8552C160.926 58.8636 160.867 58.7314 160.874 58.5026C160.884 58.0305 160.882 57.5583 160.882 57.0861C160.882 55.5479 160.882 54.0097 160.882 52.4715H160.876V52.4757Z"
          fill="#C6A667"/>
    <path d="M136.062 52.4757C136.062 50.5534 136.062 48.6312 136.062 46.7068C136.062 46.5851 136.062 46.4613 136.062 46.3396C136.062 46.1738 136.126 46.0731 136.305 46.0731C136.791 46.0731 137.277 46.0731 137.765 46.0731C137.934 46.0731 138.022 46.1528 138.022 46.327C138.022 46.4487 138.024 46.5725 138.024 46.6943C138.024 50.522 138.024 54.3497 138.024 58.1774C138.024 58.2655 138.028 58.3516 138.024 58.4397C138.005 58.7797 137.961 58.8384 137.628 58.8489C137.21 58.8615 136.793 58.8426 136.376 58.8573C136.112 58.8657 136.053 58.7356 136.057 58.5047C136.068 58.0326 136.066 57.5604 136.066 57.0882C136.066 55.55 136.066 54.0118 136.066 52.4736H136.059L136.062 52.4757Z"
          fill="#C6A667"/>
    <path d="M182.049 6.94402C182.056 6.97969 182.049 7.01117 182.028 7.04265C181.907 7.20213 181.759 7.12869 181.603 7.09721C181.722 6.92723 181.878 6.91464 182.047 6.94402H182.049Z"
          fill="#C6A667"/>
    <path d="M8.04272 39.7335C8.14282 39.5446 8.28461 39.6264 8.42224 39.6747C8.30338 39.7439 8.17826 39.7754 8.04272 39.7335Z"
          fill="#C6A667"/>
    <path d="M184.741 35.57C184.704 35.57 184.666 35.5679 184.627 35.5658C184.506 35.4671 184.46 35.3433 184.472 35.1356C184.668 35.2657 184.752 35.3895 184.741 35.57Z"
          fill="#C6A667"/>
    <path d="M184.043 10.3961C184.072 10.3226 184.053 10.2534 184.024 10.1862C184.178 10.1527 184.278 10.2429 184.378 10.3436C184.276 10.4444 184.157 10.4129 184.043 10.3982V10.3961Z"
          fill="#C6A667"/>
    <path d="M187.803 50.2785C187.899 50.331 187.951 50.3877 187.813 50.4548C187.729 50.4002 187.727 50.3415 187.803 50.2785Z"
          fill="#C6A667"/>
    <path d="M0.129554 34.5396C0.213364 34.5921 0.286698 34.6466 0.144221 34.718C0.0562196 34.6655 0.0541244 34.6047 0.129554 34.5396Z"
          fill="#C6A667"/>
    <path d="M34.1778 28.6511C34.1128 28.6994 34.0521 28.6931 33.9934 28.6386C34.0605 28.5651 34.1212 28.5777 34.1778 28.6511Z"
          fill="#C6A667"/>
    <path d="M106.904 28.0321C107.044 28.0971 106.994 28.1538 106.898 28.2084C106.82 28.1454 106.82 28.0866 106.904 28.0321Z"
          fill="#C6A667"/>
    <path d="M41.4023 22.9411C41.5092 22.727 41.5176 22.9683 41.5763 22.9788C41.5113 22.9998 41.4463 23.0187 41.4023 22.9411Z"
          fill="#C6A667"/>
    <path d="M39.4953 20.1458C39.4304 20.1899 39.3675 20.192 39.3088 20.1374C39.3738 20.0619 39.4366 20.0661 39.4953 20.1458Z"
          fill="#C6A667"/>
    <path d="M190.269 58.5824C190.305 58.595 190.338 58.6076 190.374 58.6202C190.313 58.6789 190.282 58.6579 190.269 58.5824Z"
          fill="#C6A667"/>
    <path d="M187.732 49.3153C187.726 49.351 187.726 49.3846 187.736 49.4181C187.642 49.3867 187.64 49.3531 187.732 49.3153Z"
          fill="#C6A667"/>
    <path d="M31.7915 39.4837C31.8271 39.4921 31.8627 39.4984 31.8963 39.5068C31.8418 39.5845 31.8104 39.5656 31.7915 39.4837Z"
          fill="#C6A667"/>
    <path d="M151.486 16.358C151.457 16.3118 151.469 16.2741 151.511 16.2426C151.518 16.272 151.526 16.3013 151.526 16.3328C151.526 16.3412 151.501 16.3517 151.486 16.3601V16.358Z"
          fill="#C6A667"/>
    <path d="M204.931 15.8439C204.931 15.8795 204.933 15.9131 204.933 15.9488C204.843 15.9152 204.839 15.8816 204.931 15.8439Z"
          fill="#C6A667"/>
    <path d="M182.345 7.01956C182.377 6.98389 182.408 6.965 182.452 7.00278C182.423 7.04055 182.387 7.04475 182.345 7.01956Z"
          fill="#C6A667"/>
    <path d="M191.298 56.1439C191.268 56.167 191.241 56.1901 191.212 56.2132C191.212 56.1544 191.239 56.1292 191.298 56.1439Z"
          fill="#C6A667"/>
    <path d="M98.2044 27.583C98.131 27.5263 98.1164 27.4655 98.1918 27.3983C98.2463 27.4571 98.2505 27.5179 98.2044 27.583Z"
          fill="#C6A667"/>
</svg>
