<svg xmlns="http://www.w3.org/2000/svg" viewBox="0 0 205.37 205.01">
    <path d="M125.1.38h.8c2.38,2.3,4.76,4.61,7.16,6.9,1.73,1.65,3.41,3.37,5.27,4.88s3.94,3.21,6.29,2.46c5.25-1.66,9.72,1.37,14.56,2a16.71,16.71,0,0,1,9.28,4.46,4.21,4.21,0,0,0,2.61.61,45.67,45.67,0,0,0,15.77-3,18.32,18.32,0,0,1,5-.89c1.77-.09,2.36,1.12,1.81,2.67a18.47,18.47,0,0,1-2,4.12c-3.16,4.74-6.44,9.4-9.67,14.1a2.77,2.77,0,0,0-.36.48,16,16,0,0,0-1.4,3.8c-.83,7.5-2.24,14.84-5.61,21.67-.58,1.17-.55,2,.67,2.86,4.23,2.87,7.32,6.77,10.15,11.6-4.82-3.63-7.9-8.52-12.65-11.21a9.41,9.41,0,0,0-1.62,1.8c-.59,1.21-.71,2.73-1.51,3.74-2.87,3.6-2.22,7.47-.91,11.23,1.05,3,.32,5.78-.45,8.51a19.52,19.52,0,0,1-5.24,8.87c-2.92,2.84-5.13,6.43-8.17,9.11-3.8,3.35-7.53,6.86-12.41,8.92-2.6,1.1-4.67,3.43-7,5.2-1,.78-2.13,1.49-3.1,2.33-.57.49-1.33,1.18-1.35,1.79-.05,2-.79,3.08-2.29,3.08-1.33,3.13-2.54,6-3.73,8.78a60.41,60.41,0,0,0-2.42,6c-.7,2.36-.78,4.94-1.68,7.2s.82,3.91,1.09,5.87c0,.24.45.55.74.62,3.24.84,4.55,3.72,6.36,6a6.43,6.43,0,0,1,1,6.58,4.24,4.24,0,0,0,.3,3.12,13.51,13.51,0,0,0,2.87,3.28,2.5,2.5,0,0,0,1.93.51c4.36-1,9-.67,13.16-2.5a2.17,2.17,0,0,1,.59-.09c5.07-.63,10.13-1.31,15.21-1.89,3.59-.41,7.16-.41,10.58,1.1,1.62.72,2.91,1.6,3,3.57a4.19,4.19,0,0,1-2.39,4.44,28.63,28.63,0,0,1-5.2,1.94c-3.51.84-7.07,1.45-10.61,2.16-.39.08-1,.11-1.11.33-.84,2.28-2.8,1.26-4.3,1.49a23,23,0,0,1-3.19,0l.91,1.82c-3,.62-5.94,1.29-8.92,1.85-1.89.36-3.84.45-5.72.85-8.3,1.75-16.57,3.61-24.87,5.35-2.6.55-5.24,1-7.88,1.29-2.19.25-4.4.23-6.61.37-.45,0-1.15.16-1.27.45-.49,1.14-1.2.91-2.08.64a3.81,3.81,0,0,0-1.35.13c-4.16.42-8.32,1.28-12.46,1.17-6.91-.18-13.79-1.23-20.69-1.45-5.79-.19-11.24-2.71-17.09-2.21-3.23-1.87-7.38-.66-10.46-3.16-.57-.46-1.53-.39-2.25-.7a15.2,15.2,0,0,1-3.61-1.84c-1.73-1.41-3-3.45-4.89-4.59a8.29,8.29,0,0,1-4.24-8,24.69,24.69,0,0,0-2.31-10.35,23.63,23.63,0,0,1-1.5-6.53c-.3-2.86-.2-5.77-.34-8.66-.16-3.43-.58-6.87-.53-10.3s.54-6.76.86-10.4l-2.27,2.46c.2-1.1.28-1.68.42-2.25.86-3.48,1.69-7,2.61-10.42,1.38-5.18,2.82-10.35,4.25-15.52a67.44,67.44,0,0,1,2.19-7.36,43.39,43.39,0,0,1,3.34-6.06C27.82,91.71,31.38,85.8,35.11,80a57.14,57.14,0,0,1,4.63-5.47,13.43,13.43,0,0,0,1.08-1.59c1.13-1.82,2-3.94,3.44-5.4,2.2-2.16,4.93-3.77,7.29-5.79a21.08,21.08,0,0,0,2.65-3.38l-.42-.5q5-1.71,10.06-3.42c.37-.13,1-.29,1-.53.51-2.2,2.48-1.77,3.93-2.28.48-.17,1-.26,1.48-.41a38.45,38.45,0,0,1,5.44-1.52c1.26-.17,2.61.34,4,.57.23-1.92,1.3-1.77,2.61-1a3.84,3.84,0,0,0,4.42-.18,1.74,1.74,0,0,1,1.2-.23c1.93.44,3.83,1,5.76,1.44A1.76,1.76,0,0,0,95,50.26a4.91,4.91,0,0,1,6.31-.16,5.58,5.58,0,0,0,2.34,1.08c1.93.16,4.07.59,5.77,0,2.73-1,5.18-2.79,7.73-4.3a3.31,3.31,0,0,0,1.22-1.22c1-1.9,2-3.81,2.79-5.8,1.39-3.45,3.13-6.86,3.8-10.46a47.72,47.72,0,0,0,.32-11.62c-.26-4.08-1.12-8.12-1.64-12.18A6.08,6.08,0,0,1,125.1.38Zm45.65,42.22c-.06-.4,0-1.14-.28-1.54-.77-1-1.66-2.41-2.63-2.52s-2.14,1.11-3.11,1.88c-.35.28-.44.94-.58,1.44-.57,2.05-.42,4.06,1.28,5.45a3.27,3.27,0,0,0,2.87.34C170.23,46.75,170.7,44.82,170.75,42.61Zm-25.14-4.51a11.55,11.55,0,0,0-.21-1.79c-.41-1.39-1.07-2.64-2.71-2.82a3,3,0,0,0-3.22,2.15,9.93,9.93,0,0,0-.7,3.64,3.76,3.76,0,0,0,2.83,3.85c1.48.2,3-1.08,3.63-3.1A15.77,15.77,0,0,0,145.61,38.09Z"
          transform="translate(-0.45 -0.38)"/>
    <path fill="transparent"
          d="M125.1.38a6.08,6.08,0,0,0-1.44,5.17c.53,4.06,1.39,8.1,1.64,12.18A47.72,47.72,0,0,1,125,29.35c-.67,3.6-2.41,7-3.8,10.46-.8,2-1.8,3.9-2.79,5.8a3.31,3.31,0,0,1-1.22,1.22c-2.54,1.5-5,3.28-7.73,4.3-1.7.63-3.84.21-5.77,0a5.58,5.58,0,0,1-2.34-1.08,4.91,4.91,0,0,0-6.31.16,1.76,1.76,0,0,1-1.29.09c-1.93-.45-3.83-1-5.76-1.44a1.74,1.74,0,0,0-1.2.23,3.84,3.84,0,0,1-4.42.18c-1.31-.81-2.38-.95-2.61,1-1.41-.22-2.76-.74-4-.57a38.45,38.45,0,0,0-5.44,1.52c-.49.14-1,.24-1.48.41-1.45.5-3.42.07-3.93,2.28-.06.25-.66.4-1,.53q-5,1.72-10.06,3.42l.42.5a21.08,21.08,0,0,1-2.65,3.38c-2.36,2-5.09,3.62-7.29,5.79-1.48,1.46-2.31,3.58-3.44,5.4a13.43,13.43,0,0,1-1.08,1.59A57.14,57.14,0,0,0,35.11,80c-3.73,5.79-7.28,11.7-10.86,17.59a43.39,43.39,0,0,0-3.34,6.06A67.44,67.44,0,0,0,18.72,111c-1.44,5.17-2.87,10.34-4.25,15.52-.92,3.46-1.75,6.95-2.61,10.42-.14.56-.22,1.14-.42,2.25l2.27-2.46c-.32,3.64-.81,7-.86,10.4s.37,6.86.53,10.3c.14,2.89,0,5.79.34,8.66a23.63,23.63,0,0,0,1.5,6.53A24.69,24.69,0,0,1,17.52,183a8.29,8.29,0,0,0,4.24,8c1.86,1.14,3.16,3.17,4.89,4.59a15.2,15.2,0,0,0,3.61,1.84c.72.31,1.69.24,2.25.7,3.07,2.49,7.23,1.29,10.46,3.16,5.85-.5,11.29,2,17.09,2.21,6.91.23,13.79,1.27,20.69,1.45,4.14.11,8.31-.74,12.46-1.17a3.81,3.81,0,0,1,1.35-.13c.88.27,1.6.49,2.08-.64.12-.28.82-.42,1.27-.45,2.2-.15,4.42-.12,6.61-.37,2.64-.31,5.28-.74,7.88-1.29,8.3-1.75,16.58-3.6,24.87-5.35,1.88-.4,3.83-.49,5.72-.85,3-.56,6-1.23,8.92-1.85L151,191a23,23,0,0,0,3.19,0c1.5-.23,3.46.79,4.3-1.49.08-.22.72-.25,1.11-.33,3.54-.71,7.1-1.32,10.61-2.16a28.63,28.63,0,0,0,5.2-1.94,4.19,4.19,0,0,0,2.39-4.44c-.1-2-1.39-2.85-3-3.57-3.42-1.51-7-1.51-10.58-1.1-5.07.58-10.14,1.25-15.21,1.89a2.17,2.17,0,0,0-.59.09c-4.2,1.83-8.8,1.53-13.16,2.5a2.5,2.5,0,0,1-1.93-.51,13.51,13.51,0,0,1-2.87-3.28,4.24,4.24,0,0,1-.3-3.12,6.43,6.43,0,0,0-1-6.58c-1.81-2.32-3.12-5.2-6.36-6-.29-.08-.7-.38-.74-.62-.28-2-2-3.5-1.09-5.87s1-4.84,1.68-7.2a60.41,60.41,0,0,1,2.42-6c1.19-2.83,2.4-5.65,3.73-8.78,1.5,0,2.24-1.13,2.29-3.08,0-.62.78-1.3,1.35-1.79,1-.84,2.07-1.55,3.1-2.33,2.32-1.77,4.39-4.1,7-5.2,4.88-2.06,8.6-5.57,12.41-8.92,3-2.68,5.25-6.27,8.17-9.11a19.52,19.52,0,0,0,5.24-8.87c.77-2.73,1.5-5.49.45-8.51-1.31-3.76-2-7.63.91-11.23.8-1,.92-2.53,1.51-3.74a9.41,9.41,0,0,1,1.62-1.8c4.74,2.7,7.83,7.59,12.65,11.21-2.83-4.83-5.92-8.73-10.15-11.6-1.22-.83-1.25-1.69-.67-2.86,3.37-6.84,4.78-14.17,5.61-21.67a16,16,0,0,1,1.4-3.8,2.77,2.77,0,0,1,.36-.48c3.23-4.69,6.51-9.36,9.67-14.1a18.47,18.47,0,0,0,2-4.12c.54-1.55,0-2.76-1.81-2.67a18.32,18.32,0,0,0-5,.89,45.67,45.67,0,0,1-15.77,3,4.21,4.21,0,0,1-2.61-.61,16.71,16.71,0,0,0-9.28-4.46c-4.84-.62-9.32-3.66-14.56-2-2.35.75-4.48-1-6.29-2.46s-3.54-3.22-5.27-4.88c-2.4-2.29-4.77-4.6-7.16-6.9h79.93v205H.45V.38Z"
          transform="translate(-0.45 -0.38)"/>
    <path fill="transparent"
          d="M170.75,42.61c0,2.21-.52,4.14-2.45,5.05a3.27,3.27,0,0,1-2.87-.34c-1.7-1.39-1.85-3.4-1.28-5.45.14-.5.23-1.16.58-1.44,1-.77,2.15-2,3.11-1.88s1.87,1.54,2.63,2.52C170.78,41.47,170.68,42.2,170.75,42.61Z"
          transform="translate(-0.45 -0.38)"/>
    <path fill="transparent"
          d="M145.61,38.09a15.77,15.77,0,0,1-.37,1.93c-.62,2-2.15,3.29-3.63,3.1a3.76,3.76,0,0,1-2.83-3.85,9.93,9.93,0,0,1,.7-3.64,3,3,0,0,1,3.22-2.15c1.63.18,2.3,1.42,2.71,2.82A11.55,11.55,0,0,1,145.61,38.09Z"
          transform="translate(-0.45 -0.38)"/>
</svg>