<svg xmlns="http://www.w3.org/2000/svg" style="display:none">
    <symbol id="icon-arrow" viewBox="0 0 14.8 29.4">
        <path fill="currentColor" d="M1.5,29.4c-0.4,0-0.8-0.1-1.1-0.4c-0.6-0.6-0.6-1.5,0-2.1L11.3,16c0.7-0.7,0.7-1.8,0-2.5L0.4,2.6
		C-0.1,2-0.1,1,0.4,0.4s1.5-0.6,2.1,0l10.9,10.9c1.9,1.9,1.9,4.9,0,6.8L2.6,29C2.3,29.3,1.9,29.4,1.5,29.4z"/>
    </symbol>
    <symbol id="icon-decor-arrow" viewBox="0 0 55 32">
        <g opacity="0.8">
            <path opacity="0.6" d="M18.667 15.573L27.7928 20.9006L32.3557 18.2368L23.0225 12.9092L18.667 15.573Z"
                  fill="currentColor"/>
            <path opacity="0.8" d="M25.5107 11.4748L34.844 16.8024L39.8217 13.9337L30.4885 8.81104L25.5107 11.4748Z"
                  fill="currentColor"/>
            <path opacity="0.3" d="M4.76953 23.3595L14.1028 28.6871L17.6286 26.6381L8.29541 21.5154L4.76953 23.3595Z"
                  fill="currentColor"/>
            <path opacity="0.15" d="M0 26.0232L9.33323 31.3508L11.1999 30.5312L1.86663 25.2036L0 26.0232Z"
                  fill="currentColor"/>
            <path opacity="0.5" d="M11.6152 19.4661L20.9485 24.7937L24.8892 22.5397L15.7633 17.2122L11.6152 19.4661Z"
                  fill="currentColor"/>
            <path opacity="0.8" d="M24.8887 2.66378L49.9847 17.0073L54.755 0L24.8887 2.66378Z"
                  fill="currentColor"/>
        </g>
    </symbol>
    <symbol id="icon-facebook" viewBox="0 0 706.7 702.6">
            <path d="M405.4,702.6c-4.7,0-9.4-1.7-13-4.8c-4.4-3.8-7-9.4-7-15.2V449.7c0-11,9-20,20-20h60.5l8.6-56.4h-69.1c-11,0-20-9-20-20
		v-62.5c0-44.4,28.5-72.1,74.3-72.1h22v-44.7c-13.9-1.8-34.7-3.8-54.6-3.8c-67.3,0-105.9,40-105.9,109.7v73.4c0,11-9,20-20,20h-64.6
		v56.4h64.6c11,0,20,9,20,20v232.9c0,5.8-2.6,11.4-7,15.2c-4.4,3.8-10.3,5.5-16.1,4.6c-82.3-12.9-157.7-54.9-212.4-118.3
		C30.4,520,0,438.1,0,353.3c0-47.7,9.3-94,27.8-137.5c17.8-42.1,43.3-79.9,75.7-112.3c32.4-32.4,70.2-57.9,112.3-75.7
		C259.4,9.3,305.6,0,353.3,0c47.7,0,94,9.3,137.5,27.8C533,45.6,570.7,71,603.2,103.5c32.4,32.4,57.9,70.2,75.7,112.3
		c18.4,43.6,27.8,89.8,27.8,137.5c0,84.7-30.4,166.7-85.7,230.7c-54.7,63.4-130.1,105.4-212.4,118.3
		C407.5,702.5,406.4,702.6,405.4,702.6z M353.3,40C180.6,40,40,180.6,40,353.3c0,147.4,100.1,272.1,241.3,305V469.7h-64.6
		c-11,0-20-9-20-20v-96.4c0-11,9-20,20-20h64.6v-53.4c0-45.8,13.9-84,40.3-110.3c25.7-25.8,62.3-39.4,105.7-39.4
		c37.7,0,76.4,6.5,78,6.8c9.6,1.6,16.6,10,16.6,19.7v82c0,11-9,20-20,20h-42c-23.7,0-34.3,9.9-34.3,32.1v42.5h72.4
		c5.8,0,11.4,2.5,15.2,7c3.8,4.4,5.5,10.3,4.6,16.1l-14.8,96.4c-1.5,9.8-9.9,17-19.8,17h-57.7v188.7
		c141.1-32.9,241.3-157.6,241.3-305C666.7,180.6,526.1,40,353.3,40z" fill="currentColor"/>
    </symbol>
    <symbol id="icon-github" viewBox="0 0 757.1 739.1">
            <path d="M484.3,739.1c-11.2,0-18.8-3.9-23.5-7.7c-8.4-6.8-13.1-17.4-13.1-29.9v-98.3c0-0.5,0-1.1,0.1-1.6
		c1.5-18.9-5.3-37.5-18.6-51c-5.4-5.5-7.2-13.5-4.6-20.7c2.6-7.2,9-12.3,16.6-13.2c46.3-5.2,78.4-16.5,101.2-35.6
		c30-25.1,44.5-64.8,44.5-121.3c0-0.1,0-0.2,0-0.3c0.5-30.6-10.7-59.8-31.5-82.2c-5.1-5.5-6.7-13.3-4.2-20.3
		c7.9-22.3,8.3-46.2,1.4-68.5c-11.8,1.6-35.7,8.2-73.3,33.6c-4.8,3.3-10.8,4.3-16.5,2.7c-55.2-15-113.6-15-168.8,0
		c-5.6,1.5-11.6,0.5-16.5-2.7c-37.7-25.5-61.5-32.1-73.3-33.6c-7,22.3-6.6,46.2,1.4,68.5c2.5,7,0.9,14.9-4.2,20.3
		c-20.9,22.4-32.1,51.6-31.6,82.2c0,0.1,0,0.2,0,0.3c0,56.4,14.6,96,44.7,121.3c22.9,19.2,54.9,30.6,100.9,35.8
		c7.7,0.9,14.2,6.1,16.7,13.4c2.5,7.3,0.6,15.4-4.9,20.8c-9.7,9.4-15.7,22.1-16.9,35.5c-0.7,7.3-5.2,13.6-11.9,16.5
		c-13.8,6-35,12.7-57.8,10.7c-14.4-1.3-32.8-6.4-49.9-21.6c2.5,4.8,7.4,12.2,15.6,18.7c18.5,14.4,45.2,17.9,79.4,10.5
		c5.9-1.3,12.1,0.2,16.8,4c4.7,3.8,7.4,9.5,7.4,15.6v60.8c0,11.3-4.8,21.7-13.1,28.7c-6.3,5.3-17.6,10.9-35,7.7
		c-0.9-0.2-1.8-0.4-2.7-0.7C183,712.1,118.2,664.4,71.4,599.5C24.7,534.7,0,458.1,0,378.1c0-51.1,10.1-100.6,29.8-147.3
		c19.1-45,46.4-85.5,81.1-120.2c34.8-34.7,75.2-62,120.3-81C277.8,10,327.3,0,378.3,0c0.1,0,0.3,0,0.4,0c79.8,0,156.2,24.6,221,71.2
		c64.8,46.7,112.5,111.3,137.8,187.1c16.2,48.4,22.4,98.6,18.5,149.1c-3.8,48.8-16.8,95.8-38.7,139.8c-21.9,44-51.6,82.7-88.3,115
		c-38,33.5-81.8,58.7-130.2,74.9c-0.7,0.2-1.4,0.4-2,0.6C492.1,738.7,488,739.1,484.3,739.1z M272.2,698.9L272.2,698.9L272.2,698.9z
		 M378.3,40C191.9,40,40.1,191.7,40,378.2c-0.1,145.4,92.2,274,229.7,320.6v-34.5c-45.3,4.3-73.9-9.9-90.6-23.9
		c-21.7-18.1-28.5-39.4-29.2-41.8c-5.2-17.3-16.6-32.3-32-41.9c-0.2-0.1-0.4-0.3-0.6-0.4c-7.6-5.2-27.7-18.9-21.5-38.8
		c4-12.6,16.9-19.7,35.4-19.6c0.9,0,1.7,0.1,2.6,0.2c29.3,4.1,54.6,21.1,69.4,46.8c15.6,26.8,38.9,35.3,69.1,25.3
		c1.5-6.4,3.6-12.6,6.2-18.5c-29.2-5.9-62.5-16.9-89.9-40c-39.1-32.8-58.9-83.9-58.9-151.8c-0.5-37,11.7-72.4,34.6-101
		c-8.8-32.6-6.2-67.1,7.6-98.3c2.3-5.2,6.7-9.2,12.2-10.9c6.3-2,40.4-9.6,108.2,34.1c56.5-13.9,115.6-13.9,172.1,0
		c67.8-43.7,101.9-36.2,108.2-34.1c5.4,1.8,9.9,5.8,12.2,11c13.7,31.2,16.3,65.6,7.6,98.2c22.9,28.6,35,64,34.5,101
		c0,35.2-5.3,66.1-15.7,91.8c-9.8,24-24.3,44.2-43.1,60c-27.4,23-60.8,34-90.1,39.8c7.6,16.2,11.1,34.2,9.8,52.4v94.7
		c84.9-28.9,153.7-88.9,193.8-169.3c40.3-80.9,46.8-172.6,18.1-258.3C653.4,132.8,524.4,40,378.7,40c-0.1,0-0.1,0-0.2,0
		C378.5,40,378.4,40,378.3,40z M561.5,188L561.5,188L561.5,188z M195.2,188L195.2,188L195.2,188z" fill="currentColor"/>
    </symbol>
    <symbol id="icon-phone" viewBox="0 0 683 683">
        <path d="M341.5,683C528,683,683,528.3,683,341.5C683,155,527.7,0,341.2,0C154.4,0,0,155,0,341.5C0,528.3,154.7,683,341.5,683z
	 M341.5,626.1c-158,0-284.3-126.6-284.3-284.6c0-157.7,125.9-284.6,283.9-284.6c157.7,0,284.6,126.9,284.9,284.6
	C626.5,499.6,499.2,626.1,341.5,626.1z M261.2,420.5c78,78.3,177.5,127.9,236.4,69.3c2.3-2.3,4-4.4,5.7-6.7
	c15.4-17.1,19.8-39.8,0-54.6c-15.4-11-31.8-22.4-59.6-41.9c-19.4-13.7-32.1-10.4-47.2,4.7L383,404.5c-4,3.7-10.4,3.3-14.7,0.7
	c-11.7-7-31.5-22.8-50.2-41.5c-18.4-18.4-35.2-39.2-41.5-50.2c-2.3-3.7-4-9.7,0.7-14.1l13.1-14.1c15.1-15.7,18.4-27.8,4.4-47.5
	l-41.2-58.3c-14.1-19.8-34.5-16.1-56.9,0.7c-1.7,1.3-3,2.7-4.4,4C133.3,243.1,183.1,342.5,261.2,420.5z" fill="currentColor"/>
    </symbol>
    <symbol id="icon-telegram" viewBox="0 0 706.7 706.7">
            <path d="M353.3,706.7c-47.7,0-94-9.3-137.5-27.8c-42.1-17.8-79.9-43.3-112.3-75.7C71,570.7,45.6,532.9,27.8,490.9
		C9.3,447.3,0,401,0,353.3c0-47.7,9.3-94,27.8-137.5c17.8-42.1,43.3-79.9,75.7-112.3c32.4-32.4,70.2-57.9,112.3-75.7
		C259.4,9.3,305.6,0,353.3,0s94,9.3,137.5,27.8c42.1,17.8,79.9,43.3,112.3,75.7c32.4,32.4,57.9,70.2,75.7,112.3
		c18.4,43.6,27.8,89.8,27.8,137.5c0,47.7-9.3,94-27.8,137.5c-17.8,42.1-43.3,79.9-75.7,112.3c-32.4,32.4-70.2,57.9-112.3,75.7
		C447.3,697.3,401,706.7,353.3,706.7z M353.3,40C180.6,40,40,180.6,40,353.3s140.6,313.3,313.3,313.3
		c172.8,0,313.3-140.6,313.3-313.3S526.1,40,353.3,40z M444,540.7c-20.2,0-35.9-11.2-49.9-21.1c-3.5-2.5-7-5-10.6-7.4
		c-15.6-10.2-27.6-18.4-39.3-26.4c-10.6-7.2-21.5-14.7-35.1-23.6c-10.4-6.9-24.4-17.9-26-35c-1.2-12.7,4.7-22.5,12.3-31
		c-4.5,3-9.2,6.2-14,9.5c-16.7,11.5-32.8,17.1-47.8,16.8c-14.9-0.3-39.5-7.4-57.6-13.2c-2.4-0.8-4.7-1.5-7-2.2l-0.1,0
		c-9.8-3.1-18.2-5.7-25.2-9.7c-17.9-10.2-18.1-25.4-17.4-31.4c2.3-18.3,20.9-28,36.9-34.4c96.6-42.1,162-70.3,194.4-83.7l0,0
		c95.3-39.6,115-46.6,131.7-46.9c3.6-0.1,16,0.4,25.9,8.3c6.3,5.1,10.3,12.3,11.9,21.2c0.6,3.5,1.4,11.3,0.8,18.4
		c-5.2,55-27.3,184.4-38,241.4c-2.8,14.8-7.2,26.1-13.5,34.5c-9,11.9-19.7,15.2-27.1,15.9C447.4,540.6,445.7,540.7,444,540.7z
		 M324.4,423.7c1.3,1.2,3.4,2.9,6.7,5.1c13.8,9.1,24.9,16.7,35.6,24c11.5,7.9,23.5,16,38.7,26c4.2,2.8,8.1,5.5,11.9,8.2
		c11.8,8.4,19.6,13.7,26.8,13.7c1.2-1.5,4-6.1,6.3-18c10.2-54.7,32.5-184.8,37.5-237.9c0.1-1.1,0.1-2.6,0-4
		c-10.9,1.4-38.8,12-115,43.7c-32.2,13.4-97.5,41.5-194,83.6c0.6,0.2,1.3,0.4,1.9,0.6l0.1,0c2.4,0.7,4.8,1.5,7.3,2.3
		c20.6,6.7,38.7,11.1,46.1,11.3c6.4,0.2,14.8-3.3,24.4-9.8c0,0,0.1-0.1,0.1-0.1c45.2-30.5,80-53.8,103.4-69.3
		c38.2-25.2,39.6-25.6,43.9-26.6c9.9-2.2,18.2-0.5,24.6,5.2c8.4,7.4,9.4,18.3,7.7,25.4c-1.5,6.6-3.4,10.4-34.9,40.7
		c-16,15.4-35.2,33.3-47.9,45.1l-0.9,0.8c-6,5.6-12.2,11.3-13.3,12.4c-2.8,2.9-5.6,5.6-8.3,8.2C330.5,417.2,326.7,421,324.4,423.7z
		 M419,314.3C419,314.3,419,314.3,419,314.3C419,314.3,419,314.3,419,314.3z" fill="currentColor"/>
    </symbol>
    <symbol id="icon-triangle" viewBox="0 0 27 30.3">
        <path d="M25.5,12.5c2,1.2,2,4,0,5.2l-21,12.1C2.5,31,0,29.6,0,27.3L0,3c0-2.3,2.5-3.8,4.5-2.6L25.5,12.5z" fill="currentColor"/>
    </symbol>
</svg>
