<svg xmlns="http://www.w3.org/2000/svg" style="display:none">
<symbol id="icon-arrow" viewBox="0 0 14.8 29.4">    <path fill="currentColor" d="M1.5,29.4c-0.4,0-0.8-0.1-1.1-0.4c-0.6-0.6-0.6-1.5,0-2.1L11.3,16c0.7-0.7,0.7-1.8,0-2.5L0.4,2.6
		C-0.1,2-0.1,1,0.4,0.4s1.5-0.6,2.1,0l10.9,10.9c1.9,1.9,1.9,4.9,0,6.8L2.6,29C2.3,29.3,1.9,29.4,1.5,29.4z"/></symbol>
<symbol id="icon-burger" viewBox="0 0 55 31">    <path fill="currentColor"
          d="M52.5,17.5h-30c-1.4,0-2.5-1.1-2.5-2.5s1.1-2.5,2.5-2.5h30c1.4,0,2.5,1.1,2.5,2.5S53.9,17.5,52.5,17.5z"/>
    <path fill="currentColor" opacity="0.5"
          d="M52.5,31h-50C1.1,31,0,29.9,0,28.5S1.1,26,2.5,26h50c1.4,0,2.5,1.1,2.5,2.5S53.9,31,52.5,31z"/>
    <path fill="currentColor" d="M52.5,5h-50C1.1,5,0,3.9,0,2.5S1.1,0,2.5,0h50C53.9,0,55,1.1,55,2.5S53.9,5,52.5,5z"/></symbol>
<symbol id="icon-close" viewBox="0 0 41 31">    <path fill="currentColor" d="M2.5,31c-0.8,0-1.5-0.4-2-1c-0.8-1.1-0.6-2.7,0.6-3.5l36-26c1.1-0.8,2.7-0.6,3.5,0.6s0.6,2.7-0.6,3.5l-36,26
		C3.5,30.8,3,31,2.5,31z"/>
    <path fill="currentColor" d="M38.5,31c-0.5,0-1-0.2-1.5-0.5L1,4.5C-0.1,3.7-0.3,2.2,0.5,1C1.3-0.1,2.8-0.3,4,0.5l36,26
		c1.1,0.8,1.4,2.4,0.6,3.5C40,30.6,39.3,31,38.5,31z"/></symbol>
<symbol id="icon-decor-arrow" viewBox="0 0 55 32">    <g opacity="0.8">
        <path opacity="0.6" d="M18.667 15.573L27.7928 20.9006L32.3557 18.2368L23.0225 12.9092L18.667 15.573Z"
              fill="currentColor"/>
        <path opacity="0.8" d="M25.5107 11.4748L34.844 16.8024L39.8217 13.9337L30.4885 8.81104L25.5107 11.4748Z"
              fill="currentColor"/>
        <path opacity="0.3" d="M4.76953 23.3595L14.1028 28.6871L17.6286 26.6381L8.29541 21.5154L4.76953 23.3595Z"
              fill="currentColor"/>
        <path opacity="0.15" d="M0 26.0232L9.33323 31.3508L11.1999 30.5312L1.86663 25.2036L0 26.0232Z"
              fill="currentColor"/>
        <path opacity="0.5" d="M11.6152 19.4661L20.9485 24.7937L24.8892 22.5397L15.7633 17.2122L11.6152 19.4661Z"
              fill="currentColor"/>
        <path opacity="0.8" d="M24.8887 2.66378L49.9847 17.0073L54.755 0L24.8887 2.66378Z"
              fill="currentColor"/>
    </g></symbol>
<symbol id="icon-triangle" viewBox="0 0 27 30.3">    <path fill="currentColor"
          d="M25.5,12.5c2,1.2,2,4,0,5.2l-21,12.1C2.5,31,0,29.6,0,27.3L0,3c0-2.3,2.5-3.8,4.5-2.6L25.5,12.5z"/></symbol>
</svg>
