<svg width="432" height="576" viewBox="0 0 432 576" fill="none" xmlns="http://www.w3.org/2000/svg">
<path d="M327.776 168.593V164.955C327.776 160.863 328.687 158.135 330.509 156.771L327.776 158.59C327.32 158.59 327.32 159.044 326.865 159.044C324.587 160.408 323.676 162.682 323.676 167.229V171.321L327.776 168.593Z" fill="url(#paint0_linear_522_9966)"/>
<path d="M300.441 450.504C300.441 451.413 299.985 452.323 299.53 452.323L296.796 454.142C296.341 454.596 296.796 453.687 295.885 453.232C294.063 452.323 292.696 450.049 292.696 447.776C292.696 446.866 291.785 446.866 292.241 446.412L295.43 444.593C295.885 444.138 296.796 444.138 297.707 445.048C299.074 445.957 300.441 448.231 300.441 450.504Z" fill="url(#paint1_linear_522_9966)"/>
<path d="M297.253 451.868C297.253 453.687 295.886 454.596 294.064 453.687C292.242 452.777 290.875 450.504 290.875 448.231C290.875 446.412 292.242 445.502 294.064 446.412C295.886 447.776 297.253 450.049 297.253 451.868Z" fill="url(#paint2_linear_522_9966)"/>
<path d="M301.352 450.504C301.352 448.231 299.529 445.502 297.707 444.138C296.796 443.684 295.885 443.684 294.974 443.684L291.785 445.502C292.241 445.048 293.607 445.048 294.518 445.502C296.341 446.866 298.163 449.595 298.163 451.868L301.352 450.504Z" fill="url(#paint3_linear_522_9966)"/>
<path d="M294.52 446.412C293.609 445.957 293.153 445.957 292.242 445.957C292.698 445.957 293.609 446.412 294.52 446.412C295.887 447.321 297.253 450.049 297.253 451.868C297.253 452.778 296.798 453.687 296.342 453.687C297.253 453.687 297.709 452.778 297.709 451.413C297.709 450.049 296.342 447.776 294.52 446.412Z" fill="url(#paint4_radial_522_9966)"/>
<path d="M367.409 457.325C367.409 458.234 366.954 459.143 366.498 459.143L363.765 460.962C363.309 461.417 363.765 460.507 362.854 460.053C361.032 459.143 359.665 456.87 359.665 454.596C359.665 453.687 358.754 453.687 359.21 453.232L362.398 451.413C362.854 450.959 363.765 450.959 364.676 451.868C366.043 453.232 367.409 455.506 367.409 457.325Z" fill="url(#paint5_linear_522_9966)"/>
<path d="M364.676 459.143C364.676 460.962 363.31 461.871 361.488 460.962C359.665 460.053 358.299 457.779 358.299 455.506C358.299 453.687 359.665 452.778 361.488 453.687C363.31 454.596 364.676 457.324 364.676 459.143Z" fill="url(#paint6_linear_522_9966)"/>
<path d="M368.32 457.779C368.32 455.506 366.498 452.778 364.676 451.413C363.765 450.959 362.854 450.959 361.943 450.959L358.754 452.778C359.209 452.323 360.576 452.323 361.487 452.778C363.309 454.142 365.131 456.87 365.131 459.143L368.32 457.779Z" fill="url(#paint7_linear_522_9966)"/>
<path d="M397.472 420.494C397.472 421.404 397.016 422.313 396.561 422.313L393.828 424.132C393.372 424.586 393.828 423.677 392.916 423.222C391.094 422.313 389.728 420.039 389.728 417.766C389.728 416.857 388.817 416.857 389.272 416.402L392.461 414.583C392.916 414.128 393.828 414.128 394.739 415.038C396.105 415.947 397.472 418.221 397.472 420.494Z" fill="url(#paint8_linear_522_9966)"/>
<path d="M394.739 421.858C394.739 423.677 393.372 424.586 391.55 423.677C389.728 422.768 388.361 420.494 388.361 418.221C388.361 416.402 389.728 415.492 391.55 416.402C393.372 417.311 394.739 420.039 394.739 421.858Z" fill="url(#paint9_linear_522_9966)"/>
<path d="M398.383 420.494C398.383 418.221 396.561 415.492 394.738 414.128C393.827 413.674 392.916 413.674 392.005 413.674L388.816 415.492C389.272 415.038 390.639 415.038 391.55 415.492C393.372 416.857 395.194 419.585 395.194 421.858L398.383 420.494Z" fill="url(#paint10_linear_522_9966)"/>
<path d="M350.097 387.756C350.097 388.665 349.641 389.575 349.186 389.575L346.452 391.394C345.997 391.848 346.453 390.939 345.541 390.484C343.719 389.575 342.353 387.301 342.353 385.028C342.353 384.118 341.442 384.118 341.897 383.664L345.086 381.845C345.541 381.39 346.453 381.39 347.364 382.3C348.73 383.209 350.097 385.482 350.097 387.756Z" fill="url(#paint11_linear_522_9966)"/>
<path d="M346.909 389.12C346.909 390.939 345.542 391.848 343.72 390.939C341.898 390.029 340.531 387.756 340.531 385.482C340.531 383.664 341.898 382.754 343.72 383.664C345.542 385.028 346.909 387.301 346.909 389.12Z" fill="url(#paint12_linear_522_9966)"/>
<path d="M351.008 387.756C351.008 385.483 349.186 382.754 347.363 381.39C346.452 380.936 345.541 380.936 344.63 380.936L341.441 382.754C341.897 382.3 343.264 382.3 344.175 382.754C345.997 384.118 347.819 386.847 347.819 389.12L351.008 387.756Z" fill="url(#paint13_linear_522_9966)"/>
<path d="M344.176 383.664C343.265 383.209 342.81 383.209 341.898 383.209C342.354 383.664 343.265 383.664 344.176 383.664C345.543 384.573 346.909 387.301 346.909 389.12C346.909 390.029 346.454 390.939 345.998 390.939C346.909 390.939 347.365 390.029 347.365 388.665C347.365 387.301 345.998 385.028 344.176 383.664Z" fill="url(#paint14_radial_522_9966)"/>
<path d="M290.421 410.036C290.421 410.946 289.966 411.855 289.51 411.855L286.777 413.674C286.321 414.128 286.777 413.219 285.866 412.764C284.043 411.855 282.677 409.581 282.677 407.308C282.677 406.399 281.766 406.399 282.221 405.944L285.41 404.125C285.866 403.67 286.777 403.67 287.688 404.58C289.054 405.489 290.421 407.763 290.421 410.036Z" fill="url(#paint15_linear_522_9966)"/>
<path d="M287.688 411.4C287.688 413.219 286.321 414.128 284.499 413.219C282.677 412.31 281.311 410.036 281.311 407.763C281.311 405.944 282.677 405.035 284.499 405.944C286.321 406.853 287.688 409.582 287.688 411.4Z" fill="url(#paint16_linear_522_9966)"/>
<path d="M291.332 410.036C291.332 407.763 289.51 405.035 287.688 403.67C286.777 403.216 285.866 403.216 284.954 403.216L281.766 405.035C282.221 404.58 283.588 404.58 284.499 405.035C286.321 406.399 288.143 409.127 288.143 411.4L291.332 410.036Z" fill="url(#paint17_linear_522_9966)"/>
<path d="M284.498 405.944C283.587 405.489 283.132 405.489 282.221 405.489C283.132 405.489 283.587 405.489 284.498 405.944C285.865 406.853 287.232 409.581 287.232 411.4C287.232 412.31 286.776 413.219 286.321 413.219C287.232 413.219 287.687 412.31 287.687 410.946C287.687 409.581 286.321 406.853 284.498 405.944Z" fill="url(#paint18_radial_522_9966)"/>
<path d="M298.167 442.32H293.611V445.048C293.611 445.957 294.522 446.412 295.889 446.412C297.256 446.412 298.167 445.957 298.167 445.048V442.32Z" fill="url(#paint19_linear_522_9966)"/>
<path d="M298.167 442.32C298.167 443.229 297.256 443.684 295.889 443.684C294.522 443.684 293.611 443.229 293.611 442.32C293.611 441.41 294.522 440.956 295.889 440.956C296.8 440.956 298.167 441.865 298.167 442.32Z" fill="url(#paint20_linear_522_9966)"/>
<path d="M289.055 402.761H284.5V405.489C284.5 406.399 285.411 406.853 286.778 406.853C288.144 406.853 289.055 406.399 289.055 405.489V402.761Z" fill="url(#paint21_linear_522_9966)"/>
<path d="M289.055 402.761C289.055 403.67 288.144 404.125 286.778 404.125C285.411 404.125 284.5 403.67 284.5 402.761C284.5 401.852 285.411 401.397 286.778 401.397C287.689 401.397 289.055 401.852 289.055 402.761Z" fill="url(#paint22_linear_522_9966)"/>
<path d="M347.819 380.936H343.264V383.664C343.264 384.573 344.175 385.028 345.541 385.028C346.908 385.028 347.819 384.573 347.819 383.664V380.936Z" fill="url(#paint23_linear_522_9966)"/>
<path d="M396.106 412.764H391.551V415.493C391.551 416.402 392.462 416.857 393.828 416.857C395.195 416.857 396.106 416.402 396.106 415.493V412.764Z" fill="url(#paint24_linear_522_9966)"/>
<path d="M396.106 412.764C396.106 413.674 395.195 414.128 393.828 414.128C392.462 414.128 391.551 413.674 391.551 412.764C391.551 411.855 392.462 411.4 393.828 411.4C394.74 411.4 396.106 412.31 396.106 412.764Z" fill="url(#paint25_linear_522_9966)"/>
<path d="M365.585 449.595H361.029V452.323C361.029 453.232 361.94 453.687 363.307 453.687C364.674 453.687 365.585 453.232 365.585 452.323V449.595Z" fill="url(#paint26_linear_522_9966)"/>
<path d="M365.585 449.595C365.585 450.504 364.674 450.959 363.307 450.959C361.94 450.959 361.029 450.504 361.029 449.595C361.029 448.685 361.94 448.231 363.307 448.231C364.674 448.231 365.585 449.14 365.585 449.595Z" fill="url(#paint27_linear_522_9966)"/>
<path d="M342.808 410.946L385.629 408.672C389.273 408.672 392.462 410.036 395.195 412.764C396.106 413.219 396.562 414.583 395.651 415.038C392.918 412.764 389.729 411.4 386.084 411.855L343.263 417.766L359.663 437.318C361.941 440.501 363.307 443.684 364.674 446.867L365.585 449.595C365.585 451.868 362.852 452.323 362.396 450.504C361.03 445.957 358.296 442.774 355.563 439.137L336.43 420.039L306.82 434.59C302.265 437.318 298.62 440.046 295.887 444.593C294.976 446.412 292.698 445.048 293.154 443.229L293.609 442.32C295.887 438.227 299.076 434.59 303.176 431.862L330.053 416.402L291.332 402.761C289.51 402.306 287.232 402.306 285.41 403.216C284.499 403.67 283.588 403.67 284.043 402.761C286.321 400.488 289.51 399.578 292.698 400.488L333.697 410.491L343.719 381.845C344.175 380.481 347.819 380.936 347.363 382.3L342.808 410.946Z" fill="url(#paint28_linear_522_9966)"/>
<path d="M341.897 407.763H385.629C389.273 407.763 392.462 409.127 395.195 411.855C396.106 412.31 396.562 413.674 395.651 414.128C392.917 411.855 389.729 410.491 386.084 410.946L343.263 412.764L359.663 436.409C361.941 439.591 363.307 442.774 364.674 445.957L365.585 448.685C365.585 450.959 362.852 451.414 362.396 449.595C361.029 445.048 358.296 440.955 355.563 437.318L336.43 415.038L306.82 432.771C302.265 435.499 298.62 439.137 295.887 443.684C294.976 445.502 292.698 444.138 293.154 442.32L293.609 441.41C295.887 437.318 299.076 433.68 303.176 430.952L330.053 411.855L291.332 402.306C289.509 401.852 287.232 401.852 285.41 402.761C284.498 403.216 283.587 403.216 284.498 402.306C286.776 400.033 289.965 399.124 293.154 400.033L334.153 407.763L343.263 383.664L344.174 380.936C344.63 379.572 348.274 380.026 347.819 381.39L347.363 384.573L341.897 407.763Z" fill="url(#paint29_linear_522_9966)"/>
<path d="M343.264 402.306H329.143V410.945C329.143 413.219 332.331 415.038 336.431 415.038C340.531 415.038 343.72 413.219 343.72 410.945V402.306H343.264Z" fill="url(#paint30_linear_522_9966)"/>
<path d="M335.974 406.399C340 406.399 343.263 404.566 343.263 402.306C343.263 400.046 340 398.214 335.974 398.214C331.949 398.214 328.686 400.046 328.686 402.306C328.686 404.566 331.949 406.399 335.974 406.399Z" fill="url(#paint31_linear_522_9966)"/>
<path d="M341.897 371.842H329.598V400.942C329.598 402.761 332.331 404.58 335.52 404.58C338.709 404.58 341.442 403.216 341.442 400.942V371.842H341.897Z" fill="url(#paint32_linear_522_9966)"/>
<path d="M341.897 358.201H329.598V387.301C329.598 389.12 332.331 390.939 335.52 390.939C338.709 390.939 341.442 389.575 341.442 387.301V358.201H341.897Z" fill="url(#paint33_linear_522_9966)"/>
<path d="M334.156 386.847V393.212L406.132 351.835V345.015L334.156 386.847Z" fill="url(#paint34_linear_522_9966)"/>
<path d="M334.154 386.847V393.212L263.09 352.29V345.469L334.154 386.847Z" fill="url(#paint35_linear_522_9966)"/>
<path d="M334.156 382.754V389.575L406.132 347.743V340.922L334.156 382.754Z" fill="#3FB88C"/>
<path d="M334.154 382.754V389.575L263.09 348.198V341.832L334.154 382.754Z" fill="url(#paint36_linear_522_9966)"/>
<path d="M263.09 341.832L334.154 382.754L406.13 340.922L335.521 300L263.09 341.832Z" fill="#55E5B1"/>
<path d="M406.586 340.922C406.586 310.458 411.141 279.993 420.707 250.893L422.53 245.436L417.063 248.619L401.119 297.726V343.651L406.586 340.922Z" fill="#55E5B1"/>
<path d="M417.061 249.074L345.997 207.697L344.175 213.608C335.064 242.253 330.053 272.263 330.053 302.273V302.728L401.117 344.105C401.117 313.641 405.673 283.631 415.239 254.53L417.061 249.074Z" fill="#78FFBE"/>
<path d="M345.996 207.242L417.061 249.074L422.072 245.891L351.463 204.514L345.996 207.242Z" fill="#55E5B1"/>
<path d="M258.076 342.287C250.788 345.469 253.977 358.656 260.81 361.384C267.643 364.112 300.897 382.3 310.464 377.298C320.03 372.296 310.008 363.203 301.353 360.02C292.698 356.837 261.265 340.922 258.076 342.287Z" fill="url(#paint37_linear_522_9966)"/>
<path d="M316.385 304.092C316.385 304.092 294.974 318.642 278.119 330.464C265.82 339.104 252.609 346.834 251.242 357.292C249.876 367.75 252.609 375.934 256.253 387.756C259.442 399.578 265.364 415.947 263.997 427.315C262.631 440.046 243.498 449.14 244.865 459.143C245.32 461.417 261.264 463.236 269.464 455.506C271.742 453.232 278.119 445.048 279.03 442.32C284.041 431.407 279.03 425.496 278.119 421.404C277.208 416.857 279.03 394.122 279.03 383.664C279.03 373.206 276.297 361.384 276.297 361.384C276.297 361.384 300.441 353.654 317.296 346.379C333.695 339.558 349.639 310.003 349.639 310.003L316.385 304.092Z" fill="url(#paint38_radial_522_9966)"/>
<path d="M340.983 315.459C340.983 315.459 327.772 325.917 313.65 338.649C299.529 351.38 280.396 364.567 280.396 374.57C280.396 382.754 284.04 391.394 288.14 404.58C292.24 417.766 294.518 437.318 293.607 444.593C291.784 460.962 270.374 472.329 276.296 472.784C279.94 473.239 301.351 478.241 307.728 466.873C312.284 459.143 313.65 447.321 309.551 439.591C306.817 434.135 310.006 410.946 310.917 400.033C311.828 389.12 307.728 376.389 307.728 376.389C307.728 376.389 354.649 361.384 368.771 346.833C383.348 332.738 375.149 314.095 375.149 314.095L340.983 315.459Z" fill="url(#paint39_radial_522_9966)"/>
<path d="M324.13 287.723C324.13 287.723 318.663 298.636 315.019 302.728C311.375 306.82 301.808 310.003 285.409 321.371C270.376 331.829 258.076 342.741 258.076 342.741C258.076 342.741 297.253 360.929 302.264 363.657C309.552 367.295 310.919 377.753 310.919 377.753C310.919 377.753 353.284 359.565 364.673 352.745C378.795 344.56 381.072 335.466 379.706 322.28C378.339 309.548 370.139 289.542 370.139 289.542L324.13 287.723Z" fill="white"/>
<path d="M379.249 322.28C377.882 309.548 369.683 289.542 369.683 289.542L363.761 289.087C363.761 290.451 363.761 291.815 363.761 292.725C364.672 300.909 368.316 327.736 363.761 339.558C359.661 350.926 323.217 364.112 307.273 369.568C309.551 373.661 310.007 377.753 310.007 377.753C310.007 377.753 352.372 359.565 363.761 352.745C378.338 344.105 380.616 335.011 379.249 322.28Z" fill="#BCBEC0"/>
<path d="M318.664 264.988L303.631 258.168C303.631 258.168 310.008 235.433 310.92 229.522C311.831 223.611 316.386 207.697 327.319 206.333C339.619 204.514 335.519 224.066 332.786 231.795C330.508 239.98 318.664 264.988 318.664 264.988Z" fill="#E0DCFF"/>
<path d="M332.331 205.878C321.854 205.423 322.309 206.787 320.032 208.606C317.754 210.425 315.932 223.156 315.476 229.067C314.565 235.433 304.999 250.893 314.11 259.532C323.22 268.626 323.676 276.356 323.676 279.539C323.676 282.721 322.765 289.542 322.765 289.542C322.765 289.542 342.353 297.726 355.108 298.181C366.497 298.181 371.052 293.634 371.052 293.634C371.052 293.634 370.141 275.901 371.508 269.99C372.419 264.079 382.896 228.613 380.163 223.611C377.43 218.609 367.864 216.336 360.575 213.153C353.286 210.88 332.331 205.878 332.331 205.878Z" fill="white"/>
<path d="M335.517 207.242C334.606 213.153 337.339 215.881 333.239 221.792C329.139 228.158 337.339 230.886 341.895 231.341C348.728 231.796 355.561 224.52 357.383 221.792C359.661 218.609 360.572 214.517 358.294 211.334C355.561 207.697 356.472 201.786 356.472 197.239C356.472 179.96 335.517 206.787 335.517 207.242Z" fill="url(#paint40_radial_522_9966)"/>
<path d="M279.942 467.328C278.12 468.237 274.02 471.42 272.653 475.058C271.287 479.15 274.476 480.969 279.486 482.333C284.953 483.697 290.875 483.697 294.519 482.333C298.164 480.969 302.264 472.784 303.175 472.784C304.086 472.784 307.73 474.148 307.73 474.148C308.186 474.148 310.463 471.42 310.463 471.42C310.463 470.965 311.374 461.417 312.741 458.689C314.108 455.96 315.93 453.687 315.019 449.14C314.108 444.593 310.919 442.32 310.919 442.32C310.919 442.32 312.285 445.957 310.463 451.413C308.641 456.87 301.352 467.783 300.897 469.147C300.441 470.511 296.797 474.148 296.797 474.148C296.797 474.148 294.519 470.511 289.508 468.692C285.409 466.873 279.942 467.328 279.942 467.328Z" fill="white"/>
<path d="M247.598 450.049C245.776 450.959 241.676 454.142 240.31 457.779C238.943 461.872 242.132 463.69 247.143 465.054C252.609 466.418 258.531 466.418 262.176 465.054C265.82 463.69 269.92 455.506 270.831 455.506C271.742 455.506 275.386 456.87 275.386 456.87C275.842 456.87 278.12 454.142 278.12 454.142C278.12 453.687 279.031 444.138 280.397 441.41C281.764 438.682 283.586 436.409 282.675 431.862C281.764 427.315 278.575 425.041 278.575 425.041C278.575 425.041 279.942 428.679 278.12 434.135C276.297 439.591 269.009 450.504 268.553 451.868C268.098 453.232 264.453 456.87 264.453 456.87C264.453 456.87 262.176 453.232 257.165 451.414C252.609 449.595 247.598 450.049 247.598 450.049Z" fill="white"/>
<path d="M371.051 293.634C371.051 293.634 370.14 275.901 371.507 269.99C371.962 267.262 374.696 258.168 376.973 248.619C375.151 250.893 373.329 253.621 371.962 255.894C367.407 264.079 363.763 286.359 364.674 294.544C364.674 295.453 364.674 296.362 365.129 297.272C369.229 295.908 371.051 293.634 371.051 293.634Z" fill="#E0DCFF"/>
<path d="M427.54 382.3H411.596V513.707C411.596 516.435 415.24 518.254 419.34 518.254C423.895 518.254 427.084 515.98 427.084 513.707V382.3H427.54Z" fill="#98BFB3"/>
<path d="M326.866 440.046H310.922V571.453C310.922 574.181 314.566 576 318.666 576C323.221 576 326.41 573.726 326.41 571.453V440.046H326.866Z" fill="#98BFB3"/>
<path d="M102.282 310.912H86.3379V442.319C86.3379 445.048 89.9822 446.866 94.0821 446.866C98.6375 446.866 101.826 444.593 101.826 442.319V310.912H102.282Z" fill="#98BFB3"/>
<path d="M431.641 386.847V378.207L424.808 376.843L206.603 251.347C200.226 247.71 190.659 247.255 185.193 250.438L86.3401 308.184L82.2402 307.275V317.278C82.2402 319.552 84.0624 322.28 87.2512 324.099L306.822 450.049C313.2 453.687 322.766 454.142 328.233 450.959L427.085 393.212C430.73 391.394 431.641 389.12 431.641 386.847Z" fill="#84C8BC"/>
<path d="M328.688 440.955L427.54 383.209C433.007 380.026 432.551 374.57 426.174 370.932L206.603 244.527C200.225 240.889 190.659 240.435 185.192 243.617L85.8841 301.364C80.4176 304.547 80.8731 310.003 87.2507 313.641L306.822 439.591C313.655 443.684 323.221 444.138 328.688 440.955Z" fill="#B1DCD4"/>
<g opacity="0.2">
<path opacity="0.7273" d="M261.264 290.451C263.542 289.087 266.731 288.633 269.464 288.633C270.831 288.633 271.742 289.087 272.653 289.542C273.108 289.542 275.386 290.906 275.842 290.906L346.906 331.829C349.184 333.193 349.64 335.466 348.273 337.285C347.817 337.74 347.817 338.194 346.906 338.649C346.906 339.104 342.806 341.832 341.895 342.287L304.996 363.657L303.63 364.567C301.808 365.476 299.985 365.931 297.708 365.931C295.43 365.931 293.152 365.476 291.786 364.567L218.899 322.28C216.621 320.916 216.166 318.642 217.532 316.369C217.988 315.914 217.988 315.46 218.443 315.005C218.443 314.55 222.999 311.822 223.454 311.367L261.264 290.451Z" fill="black"/>
<path opacity="0.8182" d="M261.72 290.906C263.998 289.542 267.186 289.087 269.92 289.542C271.286 289.542 272.197 289.997 273.108 290.451L275.842 291.815L346.451 332.738C348.728 334.102 349.184 336.376 347.817 338.194C347.362 338.649 346.906 339.104 346.451 339.558C346.451 340.013 341.895 342.741 341.44 342.741L304.996 363.657L303.63 364.567C301.808 365.476 299.985 365.931 297.708 365.931C295.43 365.931 293.608 365.476 291.786 364.567L218.899 322.28C216.621 320.916 216.166 318.642 217.532 316.824C217.988 316.369 217.988 315.914 218.443 315.914C218.443 315.46 223.454 312.731 223.454 312.277L261.72 290.906Z" fill="black"/>
<path opacity="0.9091" d="M261.719 290.906C263.997 289.542 267.186 289.087 269.919 289.542C271.286 289.542 272.197 289.997 273.108 290.451C273.108 290.451 275.841 291.815 275.841 292.27L346.45 332.738C348.728 334.102 349.183 336.376 347.361 338.194C346.906 338.649 346.45 339.104 345.994 339.558C345.994 339.558 341.439 342.287 340.983 342.741L305.451 363.203L304.085 364.112C302.262 365.021 300.44 365.476 298.163 365.476C295.885 365.476 294.063 365.021 292.24 364.112L219.354 321.825C217.076 320.461 216.621 318.188 218.443 316.369C218.898 315.914 219.354 315.46 219.809 315.46C219.809 315.46 224.82 312.277 225.276 312.277L261.719 290.906Z" fill="black"/>
<path d="M292.698 363.657L219.812 321.371C217.078 319.552 217.078 316.824 220.723 315.005L262.177 290.906C265.366 289.087 270.377 288.633 273.566 290.451L346.452 332.738C349.185 334.557 349.185 337.285 345.541 339.104L304.087 363.203C300.442 365.021 295.432 365.476 292.698 363.657Z" fill="black"/>
</g>
<path d="M292.699 363.657L219.812 321.37C218.446 320.461 217.99 319.552 217.99 318.642V315.005C217.99 313.641 218.901 315.914 220.723 315.005L262.178 290.906C265.367 289.087 270.378 288.632 273.566 290.451L346.453 332.738C347.364 333.193 348.275 330.919 348.275 331.828C348.275 332.283 348.275 335.466 348.275 335.466C348.275 336.83 347.364 338.194 345.542 339.104L304.088 363.202C300.443 365.021 295.432 365.476 292.699 363.657Z" fill="url(#paint41_linear_522_9966)"/>
<path d="M292.696 360.02L219.81 317.733C217.076 315.914 217.076 313.186 220.721 311.367L262.175 287.268C265.364 285.45 270.375 284.995 273.564 286.814L346.45 329.1C349.183 330.919 349.184 333.647 345.539 335.466L304.085 359.565C300.441 361.384 295.43 361.838 292.696 360.02Z" fill="url(#paint42_linear_522_9966)"/>
<path d="M297.709 360.02C295.886 360.02 294.52 359.565 293.609 359.11L220.722 316.824C220.267 316.369 219.355 315.914 219.355 315.46C219.355 314.55 220.267 313.641 221.178 313.186L262.632 289.087C263.999 288.178 266.276 287.723 268.098 287.723C269.921 287.723 271.287 288.178 272.198 288.632L345.085 330.919C345.541 331.374 346.452 331.829 346.452 332.283C346.452 333.193 345.541 334.102 344.629 334.557L303.175 358.656C301.809 359.11 299.531 360.02 297.709 360.02Z" fill="url(#paint43_linear_522_9966)"/>
<path d="M296.342 350.016L237.122 315.914C235.755 315.005 236.211 314.095 237.578 313.186L259.899 300.455C261.266 299.545 263.543 299.545 264.455 300.455L323.675 334.557C325.042 335.466 324.586 336.376 323.219 337.285L300.898 350.016C299.531 350.926 297.254 350.926 296.342 350.016Z" fill="url(#paint44_linear_522_9966)"/>
<path opacity="0.3" d="M260.808 303.183L264.453 305.456C264.908 305.911 265.819 305.911 266.275 305.456C266.73 305.002 266.73 304.547 266.275 304.547L262.63 302.273C262.175 301.819 261.264 301.819 260.808 302.273C260.353 302.273 260.353 302.728 260.808 303.183ZM267.186 306.82L269.008 307.73C269.464 308.184 270.375 308.184 270.83 307.73C271.286 307.275 271.286 306.82 270.83 306.82L269.008 305.911C268.553 305.456 267.641 305.456 267.186 305.911C266.73 305.911 266.73 306.366 267.186 306.82ZM271.741 309.549L273.563 310.458C274.019 310.913 274.93 310.913 275.386 310.458C275.841 310.003 275.841 309.549 275.386 309.549L273.563 308.639C273.108 308.184 272.197 308.184 271.741 308.639C271.286 308.639 271.286 309.094 271.741 309.549ZM276.297 311.822L278.119 312.731C278.574 313.186 279.486 313.186 279.941 312.731C280.397 312.277 280.397 311.822 279.941 311.822L278.119 310.913C277.663 310.458 276.752 310.458 276.297 310.913C275.841 311.367 275.841 311.822 276.297 311.822ZM280.852 314.55L282.674 315.46C283.13 315.914 284.041 315.914 284.496 315.46C284.952 315.005 284.952 314.55 284.496 314.55L282.674 313.641C282.219 313.186 281.308 313.186 280.852 313.641C280.397 313.641 280.397 314.095 280.852 314.55ZM285.408 317.278L287.23 318.188C287.685 318.642 288.596 318.642 289.052 318.188C289.507 317.733 289.507 317.278 289.052 317.278L287.23 316.369C286.774 315.914 285.863 315.914 285.408 316.369C284.952 316.369 284.952 316.824 285.408 317.278ZM289.963 319.552L291.785 320.461C292.241 320.916 293.152 320.916 293.607 320.461C294.063 320.007 294.063 319.552 293.607 319.552L291.785 318.642C291.33 318.188 290.419 318.188 289.963 318.642C289.507 319.097 289.507 319.552 289.963 319.552ZM294.518 322.28L296.341 323.189C296.796 323.644 297.707 323.644 298.163 323.189C298.618 322.735 298.618 322.28 298.163 322.28L296.341 321.371C295.885 320.916 294.974 320.916 294.518 321.371C294.063 321.371 294.063 321.825 294.518 322.28ZM299.074 325.008L300.896 325.918C301.352 326.372 302.263 326.372 302.718 325.918C303.174 325.463 303.174 325.008 302.718 325.008L300.896 324.099C300.44 323.644 299.529 323.644 299.074 324.099C298.618 324.099 298.618 324.553 299.074 325.008ZM303.629 327.736L305.451 328.646C305.907 329.1 306.818 329.1 307.274 328.646C307.729 328.191 307.729 327.736 307.274 327.736L305.451 326.827C304.996 326.372 304.085 326.372 303.629 326.827C302.718 326.827 302.718 327.282 303.629 327.736ZM307.729 330.01L309.551 330.919C310.007 331.374 310.918 331.374 311.373 330.919C311.829 330.464 311.829 330.01 311.373 330.01L309.551 329.1C309.096 328.646 308.185 328.646 307.729 329.1C307.274 329.555 307.274 330.01 307.729 330.01ZM312.285 332.738L314.107 333.647C314.562 334.102 315.473 334.102 315.929 333.647C316.384 333.193 316.384 332.738 315.929 332.738L314.107 331.829C313.651 331.374 312.74 331.374 312.285 331.829C311.829 331.829 311.829 332.283 312.285 332.738ZM316.84 335.466L318.662 336.376C319.118 336.83 320.029 336.83 320.484 336.376C320.94 335.921 320.94 335.466 320.484 335.466L318.662 334.557C318.207 334.102 317.295 334.102 316.84 334.557C316.384 334.557 316.384 335.011 316.84 335.466ZM256.708 305.456L258.075 306.366C258.531 306.82 259.442 306.82 259.897 306.366L261.264 305.456C261.719 305.002 261.719 304.547 261.264 304.092L259.897 303.183C259.442 302.728 258.531 302.728 258.075 303.183L256.708 304.547C256.253 304.547 256.253 305.002 256.708 305.456ZM264.908 309.094L266.275 308.184C266.73 307.73 266.73 307.275 266.275 306.82L264.908 305.911C264.453 305.456 263.542 305.456 263.086 305.911L261.264 306.82C260.808 307.275 260.808 307.73 261.264 308.184L262.63 309.094C263.542 309.094 264.453 309.094 264.908 309.094ZM265.819 310.458L267.186 311.367C267.641 311.822 268.553 311.822 269.008 311.367L270.375 310.458C270.83 310.003 270.83 309.549 270.375 309.094L269.008 308.184C268.553 307.73 267.641 307.73 267.186 308.184L265.819 309.549C265.364 310.003 265.364 310.458 265.819 310.458ZM270.375 313.186L271.741 314.095C272.197 314.55 273.108 314.55 273.563 314.095L274.93 313.186C275.386 312.731 275.386 312.277 274.93 311.822L273.563 310.913C273.108 310.458 272.197 310.458 271.741 310.913L270.375 312.277C269.919 312.277 269.919 312.731 270.375 313.186ZM279.941 314.55L278.574 313.641C278.119 313.186 277.208 313.186 276.752 313.641L274.93 314.55C274.475 315.005 274.475 315.46 274.93 315.914L276.297 316.824C276.752 317.278 277.663 317.278 278.119 316.824L279.486 315.914C280.397 315.46 280.397 315.005 279.941 314.55ZM284.496 317.278L283.13 316.369C282.674 315.914 281.763 315.914 281.308 316.369L279.486 317.278C279.03 317.733 279.03 318.188 279.486 318.642L280.852 319.552C281.308 320.007 282.219 320.007 282.674 319.552L284.041 318.642C284.952 318.188 284.952 317.733 284.496 317.278ZM289.052 320.007L287.685 319.097C287.23 318.642 286.319 318.642 285.863 319.097L284.041 320.007C283.585 320.461 283.585 320.916 284.041 321.371L285.408 322.28C285.863 322.735 286.774 322.735 287.23 322.28L288.596 321.371C289.507 320.916 289.507 320.007 289.052 320.007ZM293.607 322.28L292.241 321.371C291.785 320.916 290.874 320.916 290.419 321.371L289.052 322.28C288.596 322.735 288.596 323.189 289.052 323.644L290.419 324.553C290.874 325.008 291.785 325.008 292.241 324.553L293.607 323.644C294.063 323.189 294.063 322.735 293.607 322.28ZM298.163 325.008L296.796 324.099C296.341 323.644 295.429 323.644 294.974 324.099L293.607 325.008C293.152 325.463 293.152 325.918 293.607 326.372L294.974 327.282C295.429 327.736 296.341 327.736 296.796 327.282L298.163 326.372C298.618 325.918 298.618 325.463 298.163 325.008ZM302.263 327.736L300.896 326.827C300.44 326.372 299.529 326.372 299.074 326.827L297.252 327.736C296.796 328.191 296.796 328.646 297.252 329.1L298.618 330.01C299.074 330.465 299.985 330.465 300.44 330.01L301.807 329.1C303.174 328.646 303.174 328.191 302.263 327.736ZM301.807 331.374L303.174 332.283C303.629 332.738 304.54 332.738 304.996 332.283L306.362 331.374C306.818 330.919 306.818 330.465 306.362 330.01L304.996 329.1C304.54 328.646 303.629 328.646 303.174 329.1L301.807 330.01C301.352 330.465 301.352 330.919 301.807 331.374ZM311.373 332.738L310.007 331.829C309.551 331.374 308.64 331.374 308.185 331.829L306.818 332.738C306.362 333.193 306.362 333.647 306.818 334.102L308.185 335.011C308.64 335.466 309.551 335.466 310.007 335.011L311.373 334.102C311.829 333.647 311.829 333.193 311.373 332.738ZM318.207 336.83L314.562 334.557C314.107 334.102 313.196 334.102 312.74 334.557L311.373 335.466C310.918 335.921 310.918 336.376 311.373 336.83L315.018 339.104C315.473 339.558 316.384 339.558 316.84 339.104L318.207 338.194C318.662 337.74 318.662 336.83 318.207 336.83ZM252.609 307.73L256.253 310.003C256.708 310.458 257.62 310.458 258.075 310.003L259.442 309.094C259.897 308.639 259.897 308.184 259.442 307.73L255.797 305.456C255.342 305.002 254.431 305.002 253.975 305.456L252.609 306.366C252.153 306.82 252.153 307.73 252.609 307.73ZM258.986 311.822L260.353 312.731C260.808 313.186 261.719 313.186 262.175 312.731L263.542 311.822C263.997 311.367 263.997 310.913 263.542 310.458L262.63 309.549C262.175 309.094 261.264 309.094 260.808 309.549L259.442 310.458C258.531 310.913 258.531 311.367 258.986 311.822ZM265.364 315.005C265.819 315.46 266.73 315.46 267.186 315.005L268.553 314.095C269.008 313.641 269.008 313.186 268.553 312.731L267.186 311.822C266.73 311.367 265.819 311.367 265.364 311.822L263.997 312.731C263.542 313.186 263.542 313.641 263.997 314.095L265.364 315.005ZM269.919 317.733C270.375 318.188 271.286 318.188 271.741 317.733L273.108 316.824C273.563 316.369 273.563 315.914 273.108 315.46L271.741 314.55C271.286 314.095 270.375 314.095 269.919 314.55L268.553 315.46C268.097 315.914 268.097 316.369 268.553 316.824L269.919 317.733ZM274.019 317.278L272.652 318.188C272.197 318.642 272.197 319.097 272.652 319.552L274.019 320.461C274.475 320.916 275.386 320.916 275.841 320.461L277.208 319.552C277.663 319.097 277.663 318.642 277.208 318.188L275.841 317.278C275.841 317.278 274.93 317.278 274.019 317.278ZM279.03 320.007L277.208 320.916C276.752 321.371 276.752 321.825 277.208 321.825L279.03 322.735C279.486 323.189 280.397 323.189 280.852 322.735L282.674 321.825C283.13 321.371 283.13 320.916 282.674 320.916L280.852 320.007C279.941 319.552 279.486 319.552 279.03 320.007ZM283.13 322.735L281.308 323.644C280.852 324.099 280.852 324.553 281.308 324.553L283.13 325.463C283.585 325.918 284.496 325.918 284.952 325.463L286.774 324.553C287.23 324.099 287.23 323.644 286.774 323.644L284.952 322.735C284.496 322.28 284.041 322.28 283.13 322.735ZM287.685 325.008L285.863 325.918C285.408 326.372 285.408 326.827 285.863 326.827L287.685 327.736C288.141 328.191 289.052 328.191 289.507 327.736L291.33 326.827C291.785 326.372 291.785 325.918 291.33 325.918L289.507 325.008C289.052 325.008 288.141 325.008 287.685 325.008ZM292.241 327.736L290.419 328.646C289.963 329.1 289.963 329.555 290.419 329.555L292.241 330.465C292.696 330.919 293.607 330.919 294.063 330.465L295.885 329.555C296.341 329.1 296.341 328.646 295.885 328.646L294.063 327.736C293.607 327.282 292.696 327.282 292.241 327.736ZM296.796 330.465L294.974 331.374C294.518 331.829 294.518 332.283 294.974 332.283L296.796 333.193C297.252 333.647 298.163 333.647 298.618 333.193L300.44 332.283C300.896 331.829 300.896 331.374 300.44 331.374L298.618 330.465C298.163 330.01 297.252 330.01 296.796 330.465ZM303.174 335.921L304.996 335.011C305.451 334.557 305.451 334.102 304.996 334.102L303.174 333.193C302.718 332.738 301.807 332.738 301.352 333.193L299.529 334.102C299.074 334.557 299.074 335.011 299.529 335.011L301.352 335.921C301.807 336.376 302.718 336.376 303.174 335.921ZM307.729 338.649L309.551 337.74C310.007 337.285 310.007 336.83 309.551 336.83L307.729 335.921C307.274 335.466 306.362 335.466 305.907 335.921L304.085 336.83C303.629 337.285 303.629 337.74 304.085 337.74L305.907 338.649C306.362 338.649 307.274 338.649 307.729 338.649ZM314.107 339.104L312.285 338.194C311.829 337.74 310.918 337.74 310.462 338.194L308.64 339.104C308.185 339.558 308.185 340.013 308.64 340.013L310.462 340.923C310.918 341.377 311.829 341.377 312.285 340.923L314.107 340.013C314.562 340.013 314.562 339.558 314.107 339.104ZM248.509 310.003L253.975 313.186C254.431 313.641 255.342 313.641 255.797 313.186L257.62 312.277C258.075 311.822 258.075 311.367 257.62 311.367L252.153 308.184C251.697 307.73 250.786 307.73 250.331 308.184L248.509 309.094C248.053 309.549 248.053 310.003 248.509 310.003ZM256.708 315.005L258.531 315.914C258.986 316.369 259.897 316.369 260.353 315.914L262.175 315.005C262.63 314.55 262.63 314.095 262.175 314.095L260.353 313.186C259.897 312.731 258.986 312.731 258.531 313.186L256.708 314.095C256.253 314.095 256.253 314.55 256.708 315.005ZM261.264 317.733L263.086 318.642C263.542 319.097 264.453 319.097 264.908 318.642L266.73 317.733C267.186 317.278 267.186 316.824 266.73 316.824L264.908 315.914C264.453 315.46 263.542 315.46 263.086 315.914L261.264 316.824C260.808 316.824 260.808 317.278 261.264 317.733ZM265.819 320.461L267.641 321.371C268.097 321.825 269.008 321.825 269.464 321.371L271.286 320.461C271.741 320.007 271.741 319.552 271.286 319.552L269.464 318.642C269.008 318.188 268.097 318.188 267.641 318.642L265.819 319.097C265.364 319.552 265.364 320.007 265.819 320.461ZM274.019 323.644L275.841 322.735C276.297 322.28 276.297 321.825 275.841 321.825L274.019 320.916C273.563 320.461 272.652 320.461 272.197 320.916L270.375 321.825C269.919 322.28 269.919 322.735 270.375 322.735L272.197 323.644C272.652 324.099 273.563 324.099 274.019 323.644ZM278.574 326.372L280.397 325.463C280.852 325.008 280.852 324.553 280.397 324.553L278.119 323.189C277.663 322.735 276.752 322.735 276.297 323.189L274.93 324.553C274.475 325.008 274.475 325.463 274.93 325.463L276.752 326.372C277.208 326.827 277.663 326.827 278.574 326.372ZM282.674 329.1L284.496 328.191C284.952 327.736 284.952 327.282 284.496 327.282L282.674 326.372C282.219 325.918 281.308 325.918 280.852 326.372L279.486 326.827C279.03 327.282 279.03 327.736 279.486 327.736L281.308 328.646C281.763 329.555 282.219 329.555 282.674 329.1ZM287.23 331.829L289.052 330.919C289.507 330.464 289.507 330.01 289.052 330.01L287.23 329.1C286.774 328.646 285.863 328.646 285.408 329.1L284.041 329.555C283.585 330.01 283.585 330.465 284.041 330.465L285.863 331.374C285.863 331.829 286.774 331.829 287.23 331.829ZM291.785 334.102L293.607 333.193C294.063 332.738 294.063 332.283 293.607 332.283L291.785 331.374C291.33 330.919 290.419 330.919 289.963 331.374L288.141 332.283C287.685 332.738 287.685 333.193 288.141 333.193L289.963 334.102C290.419 334.557 291.33 334.557 291.785 334.102ZM296.341 336.83L298.163 335.921C298.618 335.466 298.618 335.011 298.163 335.011L296.341 334.102C295.885 333.647 294.974 333.647 294.518 334.102L292.696 335.011C292.241 335.466 292.241 335.921 292.696 335.921L294.518 336.83C294.974 337.285 295.885 337.285 296.341 336.83ZM297.252 338.649L299.074 339.558C299.529 340.013 300.44 340.013 300.896 339.558L302.718 338.649C303.174 338.194 303.174 337.74 302.718 337.74L300.896 336.83C300.44 336.376 299.529 336.376 299.074 336.83L297.252 337.74C296.796 337.74 296.796 338.194 297.252 338.649ZM310.007 341.377L305.451 338.649C304.996 338.194 304.085 338.194 303.629 338.649L301.807 339.558C301.352 340.013 301.352 340.468 301.807 340.468L306.362 343.196C306.818 343.651 307.729 343.651 308.185 343.196L310.007 342.287C310.462 342.287 310.462 341.832 310.007 341.377ZM244.409 312.731L252.609 317.278C253.064 317.733 253.975 317.733 254.431 317.278L255.797 316.369C256.253 315.914 256.253 315.46 255.797 315.005L247.598 310.458C247.142 310.003 246.231 310.003 245.775 310.458L244.409 311.367C243.498 311.822 243.498 312.277 244.409 312.731ZM255.342 319.097L256.708 320.007C257.164 320.461 258.075 320.461 258.531 320.007L259.897 319.097C260.353 318.642 260.353 318.188 259.897 317.733L258.531 316.824C258.075 316.369 257.164 316.369 256.708 316.824L255.342 317.733C254.886 318.188 254.886 318.642 255.342 319.097ZM259.897 321.825L261.264 322.735C261.719 323.189 262.63 323.189 263.086 322.735L264.453 321.825C264.908 321.371 264.908 320.916 264.453 320.461L263.086 319.552C262.63 319.097 261.719 319.097 261.264 319.552L259.897 320.461C258.986 320.916 258.986 321.371 259.897 321.825ZM264.453 324.099L265.819 325.008C266.275 325.463 267.186 325.463 267.641 325.008L269.008 324.099C269.464 323.644 269.464 323.189 269.008 322.735L267.641 321.825C267.186 321.371 266.275 321.371 265.819 321.825L264.453 323.189C263.542 323.644 263.542 324.099 264.453 324.099ZM268.553 326.827L270.375 327.736C270.83 328.191 271.741 328.191 272.197 327.736L273.563 326.827C274.019 326.372 274.019 325.918 273.563 325.463L272.197 324.553C271.741 324.099 270.83 324.099 270.375 324.553L269.008 325.463C268.097 325.918 268.097 326.372 268.553 326.827ZM273.108 329.555L274.475 330.465C274.93 330.919 275.841 330.919 276.297 330.465L277.663 329.555C278.119 329.1 278.119 328.646 277.663 328.191L276.297 327.282C275.841 326.827 274.93 326.827 274.475 327.282L273.108 328.191C272.652 328.646 272.652 329.1 273.108 329.555ZM277.663 332.283L279.03 333.193C279.486 333.647 280.397 333.647 280.852 333.193L282.219 332.283C282.674 331.829 282.674 331.374 282.219 330.919L280.852 330.01C280.397 329.555 279.486 329.555 279.03 330.01L277.663 330.919C277.208 331.374 277.208 331.829 277.663 332.283ZM282.219 334.557L283.585 335.466C284.041 335.921 284.952 335.921 285.408 335.466L286.774 334.557C287.23 334.102 287.23 333.647 286.774 333.193L285.408 332.283C284.952 331.829 284.041 331.829 283.585 332.283L282.219 333.193C281.763 333.647 281.763 334.557 282.219 334.557ZM286.774 337.285L288.141 338.194C288.596 338.649 289.507 338.649 289.963 338.194L291.33 337.285C291.785 336.83 291.785 336.376 291.33 335.921L289.963 335.011C289.507 334.557 288.596 334.557 288.141 335.011L286.774 335.921C286.319 336.376 286.319 336.83 286.774 337.285ZM291.33 340.013L292.696 340.923C293.152 341.377 294.063 341.377 294.518 340.923L295.885 340.013C296.341 339.558 296.341 339.104 295.885 338.649L294.518 337.74C294.063 337.285 293.152 337.285 292.696 337.74L291.33 338.649C290.874 339.104 290.874 339.558 291.33 340.013ZM295.885 342.287L297.252 343.196C297.707 343.651 298.618 343.651 299.074 343.196L300.44 342.287C300.896 341.832 300.896 341.377 300.44 340.923L299.074 340.013C298.618 339.558 297.707 339.558 297.252 340.013L295.885 341.377C295.429 341.832 295.429 342.287 295.885 342.287ZM305.451 344.105L304.085 343.196C303.629 342.741 302.718 342.741 302.263 343.196L300.896 344.105C300.44 344.56 300.44 345.015 300.896 345.469L302.263 346.379C302.718 346.834 303.629 346.834 304.085 346.379L305.451 345.469C305.907 345.015 305.907 344.105 305.451 344.105ZM247.142 315.005L243.498 313.186C243.042 312.731 242.131 312.731 241.676 313.186L239.853 314.095C239.398 314.55 239.398 315.005 239.853 315.46L243.498 317.278C243.953 317.733 244.864 317.733 245.32 317.278L246.687 316.369C247.598 315.914 247.598 315.46 247.142 315.005ZM251.697 317.733L250.331 316.824C249.875 316.369 248.964 316.369 248.509 316.824L247.142 317.733C246.687 318.188 246.687 318.642 247.142 319.097L248.509 320.007C248.964 320.461 249.875 320.461 250.331 320.007L251.697 319.097C252.153 318.642 252.153 318.188 251.697 317.733ZM256.253 320.461L254.886 319.552C254.431 319.097 253.52 319.097 253.064 319.552L251.697 320.461C251.242 320.916 251.242 321.371 251.697 321.825L253.064 322.735C253.52 323.189 254.431 323.189 254.886 322.735L256.253 321.825C256.708 321.371 256.708 320.461 256.253 320.461ZM287.685 338.649L258.986 322.28C258.531 321.825 257.62 321.825 257.164 322.28L255.797 323.189C255.342 323.644 255.342 324.099 255.797 324.553L284.496 340.923C284.952 341.377 285.863 341.377 286.319 340.923L287.685 340.013C288.141 339.558 288.141 338.649 287.685 338.649ZM292.241 340.923L290.874 340.013C290.419 339.558 289.507 339.558 289.052 340.013L287.685 340.923C287.23 341.377 287.23 341.832 287.685 342.287L289.052 343.196C289.507 343.651 290.419 343.651 290.874 343.196L292.241 342.287C292.696 341.832 292.696 341.377 292.241 340.923ZM296.796 343.651L295.429 342.741C294.974 342.287 294.063 342.287 293.607 342.741L292.241 343.651C291.785 344.105 291.785 344.56 292.241 345.015L293.152 345.924C293.607 346.379 294.518 346.379 294.974 345.924L296.341 345.015C297.252 344.56 297.252 344.105 296.796 343.651ZM301.352 346.379L299.985 345.469C299.529 345.015 298.618 345.015 298.163 345.469L296.796 346.379C296.341 346.834 296.341 347.288 296.796 347.743L298.163 348.652C298.618 349.107 299.529 349.107 299.985 348.652L301.352 347.743C301.807 347.288 301.807 346.834 301.352 346.379Z" fill="url(#paint45_linear_522_9966)"/>
<path d="M304.542 258.168C304.542 258.168 300.442 264.079 299.075 269.081C297.708 274.082 294.52 293.179 294.064 296.362C294.064 299.545 291.786 303.183 291.786 303.183C291.786 303.183 290.42 303.637 289.509 304.092C289.053 304.547 288.598 305.456 288.598 305.456C288.598 305.456 286.32 305.001 285.864 305.911C284.953 306.82 284.498 308.184 284.498 308.184C284.498 308.184 282.676 307.73 281.765 309.094C280.853 310.458 280.853 313.641 281.309 315.459C281.765 317.278 283.131 320.006 284.042 320.916C284.498 321.825 286.32 320.916 286.32 320.916C286.32 320.916 287.687 322.28 288.598 321.371C289.509 320.916 289.964 319.552 289.964 319.552C289.964 319.552 290.875 321.825 292.698 321.371C294.52 321.371 294.064 320.006 293.609 318.642C293.153 317.278 293.153 315.914 293.153 315.914H294.975C294.975 315.914 295.431 318.642 297.253 318.642C299.075 318.642 298.62 314.55 298.62 314.55C298.62 314.55 303.175 312.731 304.542 310.913C305.908 309.094 306.364 307.275 305.453 305.456C304.542 303.637 303.175 303.183 303.175 303.183C303.175 303.183 307.73 294.089 310.464 287.268C313.197 280.903 313.652 273.627 313.652 273.627L318.208 264.534L304.542 258.168Z" fill="url(#paint46_radial_522_9966)"/>
<path d="M375.605 277.265C375.605 277.265 378.338 288.632 377.883 289.542C377.427 290.451 368.772 295.453 363.761 300.909C358.75 306.366 338.706 327.736 336.428 327.736C333.695 327.282 328.684 323.189 322.762 324.553C316.84 325.918 304.996 337.285 304.996 338.194C305.452 339.104 306.363 339.558 308.185 338.194C310.007 337.285 312.74 335.466 312.74 335.466C312.74 335.466 308.185 340.013 307.274 341.377C305.907 342.741 305.907 344.105 308.64 343.196C311.374 342.287 315.929 338.649 315.929 338.649C315.929 338.649 310.463 342.741 310.918 343.651C311.374 344.56 313.651 344.56 316.385 342.287C319.573 340.013 325.951 336.376 326.407 336.83C326.862 337.285 324.584 339.104 323.218 340.013C321.851 340.922 318.662 344.105 319.118 345.015C320.029 345.924 322.307 345.015 323.673 344.105C325.04 342.741 328.684 340.468 329.14 340.468C330.051 340.013 333.24 340.468 335.517 340.013C337.795 340.013 341.439 339.104 342.806 337.74C344.173 335.921 348.728 332.738 351.917 330.01C354.65 327.736 377.883 310.458 383.805 304.547C389.727 298.636 392.46 297.726 392.46 291.361C392.46 284.995 390.638 272.263 390.638 272.263L375.605 277.265Z" fill="url(#paint47_radial_522_9966)"/>
<path d="M362.395 220.428C358.75 224.52 366.494 246.346 368.317 254.076C370.139 261.805 376.061 277.265 376.061 277.265L392.46 272.718C392.46 272.718 390.183 252.257 390.183 240.889C390.183 229.522 384.261 222.247 377.427 219.519C369.228 216.336 367.861 214.517 362.395 220.428Z" fill="white"/>
<path d="M365.584 181.324C375.15 185.417 387.45 206.787 379.705 222.702C373.783 234.978 366.95 231.795 362.85 244.527C360.117 253.166 364.217 268.171 356.928 269.99C349.184 272.263 335.518 249.074 346.906 231.341C358.295 213.608 357.839 189.509 357.839 189.509L365.584 181.324Z" fill="url(#paint48_linear_522_9966)"/>
<path d="M327.775 165.41C321.853 169.957 320.031 183.598 322.308 194.965C324.586 206.333 326.408 213.153 332.33 214.517C340.53 216.336 353.741 210.425 356.474 205.878C361.485 197.693 364.674 188.599 363.763 178.141C362.852 167.683 348.274 149.041 327.775 165.41Z" fill="url(#paint49_radial_522_9966)"/>
<path d="M365.583 197.239C365.583 197.239 366.95 188.599 361.483 190.418C361.028 190.418 361.028 190.873 360.572 190.873C357.839 192.237 356.017 189.964 353.739 188.145C347.362 183.143 338.251 189.054 323.673 188.599C306.818 188.145 323.218 145.858 354.65 158.135C377.883 167.229 365.583 197.239 365.583 197.239Z" fill="url(#paint50_linear_522_9966)"/>
<path d="M289.963 360.474L219.81 320.006C217.077 318.642 214.799 314.095 214.799 310.458V255.44C214.799 251.802 217.077 249.983 219.81 251.802L289.963 292.27C292.696 293.634 294.974 298.181 294.974 301.819V356.837C294.974 360.474 292.696 361.838 289.963 360.474Z" fill="url(#paint51_linear_522_9966)"/>
<path d="M290.329 291.361L220.176 250.893C219.265 250.438 218.354 249.983 217.443 250.438L216.076 251.347C216.987 250.893 217.898 250.893 219.265 251.802L289.418 292.27C292.152 293.634 294.429 298.181 294.429 301.819V356.837C294.429 359.11 293.518 360.474 292.152 360.929H292.607C292.607 360.929 293.974 360.02 294.429 360.02C295.34 359.565 295.796 358.201 295.796 356.382V300.909C295.34 297.272 293.063 293.179 290.329 291.361Z" fill="url(#paint52_linear_522_9966)"/>
<path d="M335.973 212.244V210.425L343.717 209.97C346.906 209.97 349.639 208.606 351.461 206.333L358.294 198.603L359.661 199.967L352.828 207.697C350.55 210.425 347.361 211.789 343.717 211.789L335.973 212.244Z" fill="url(#paint53_linear_522_9966)"/>
<path d="M338.251 211.334C338.251 212.244 336.885 212.698 335.518 212.698C334.151 212.698 333.24 211.789 333.24 210.88C333.24 209.97 334.607 209.515 335.973 209.515C337.34 209.515 338.707 210.425 338.251 211.334Z" fill="url(#paint54_linear_522_9966)"/>
<path d="M351.008 196.784C351.008 198.603 351.463 199.967 352.83 200.876L355.108 202.24C356.019 202.695 355.563 201.331 357.385 200.422C361.03 198.603 363.763 193.601 363.763 189.509C363.763 187.69 365.585 187.69 364.674 186.781L361.941 185.417C361.03 184.962 359.208 184.962 357.385 185.871C353.741 188.145 351.008 192.692 351.008 196.784Z" fill="url(#paint55_linear_522_9966)"/>
<path d="M353.285 198.148C353.285 202.24 356.018 203.604 359.663 201.786C363.307 199.967 366.04 194.965 366.04 190.873C366.04 186.781 363.307 185.417 359.663 187.235C356.474 189.054 353.285 194.056 353.285 198.148Z" fill="url(#paint56_linear_522_9966)"/>
<path d="M356.475 197.693C356.475 199.058 356.93 199.967 357.841 200.422L358.297 200.876C359.208 201.331 358.752 200.422 359.663 199.512C361.941 198.148 363.763 194.965 363.763 192.237C363.763 190.873 365.13 190.873 364.219 190.418L363.763 189.964C362.852 189.509 361.941 189.509 361.03 190.418C358.297 191.782 356.475 194.965 356.475 197.693Z" fill="url(#paint57_linear_522_9966)"/>
<path d="M356.93 197.693C356.93 200.422 358.752 201.331 361.03 199.967C363.307 198.603 365.129 195.42 365.129 192.692C365.129 189.964 363.307 189.054 361.03 190.418C358.752 191.782 356.93 194.965 356.93 197.693Z" fill="url(#paint58_linear_522_9966)"/>
<path d="M358.299 197.239C358.299 199.058 359.665 199.967 361.488 199.058C363.31 198.148 364.676 195.875 364.676 194.056C364.676 192.237 363.31 191.328 361.488 192.237C359.665 193.147 358.299 195.42 358.299 197.239Z" fill="url(#paint59_linear_522_9966)"/>
<path d="M345.54 159.044C339.618 155.861 334.607 154.497 331.418 155.861L327.318 158.135C330.507 156.316 335.974 157.68 341.896 161.318C351.918 167.229 360.573 177.232 360.573 188.599V192.237L364.673 189.964V186.326C364.217 174.959 356.017 164.955 345.54 159.044Z" fill="url(#paint60_linear_522_9966)"/>
<path d="M341.44 161.318C335.974 158.135 330.507 156.771 327.318 158.135C330.963 156.771 335.974 158.135 341.44 161.318C351.462 167.229 359.662 177.232 359.662 189.054V192.692H360.117V189.054C360.117 177.232 351.918 167.229 341.44 161.318Z" fill="url(#paint61_linear_522_9966)"/>
<path d="M162.173 89.4758L28.6991 12.1776C12.7552 3.08367 0 12.6323 0 34.003V54.919C0 75.835 12.7552 100.389 28.6991 109.482L85.1863 143.585L107.052 208.151L128.918 169.048L161.717 186.781C177.661 195.875 190.416 186.326 190.416 164.955V144.039C190.872 123.123 178.117 99.0244 162.173 89.4758Z" fill="#78FFBE"/>
<path d="M138.028 174.049L128.917 169.048L107.051 208.151L124.817 198.148L138.028 174.049Z" fill="#55E5B1"/>
<path d="M176.752 80.8366L43.278 3.53837C36.4449 -0.553895 30.0673 -1.00859 25.5119 1.71958L10.0234 10.8135C15.0344 7.63063 21.8675 8.08532 29.1562 12.1776L162.63 89.4758C178.574 98.5697 191.329 123.123 191.329 144.039V164.955C191.329 175.413 188.14 182.688 183.129 186.781L191.785 180.87C199.073 176.777 205.906 169.957 205.906 156.316V135.4C205.451 114.484 192.696 90.3852 176.752 80.8366Z" fill="#55E5B1"/>
<path d="M129.827 89.9305L119.35 84.4742V90.3852L129.827 96.2963V89.9305Z" fill="white"/>
<path d="M117.073 121.305L76.0742 98.5698V104.936L117.073 127.216V121.305Z" fill="white"/>
<path d="M133.472 117.667L113.428 106.3V112.665L133.472 124.033V117.667Z" fill="white"/>
<path d="M149.418 114.029L124.363 100.389V106.3L149.418 120.395V114.029Z" fill="white"/>
<path d="M155.338 104.481L136.205 93.5681V99.9339L155.338 110.847V104.481Z" fill="white"/>
<path d="M107.507 103.117L76.0742 85.8383V92.204L107.507 109.028V103.117Z" fill="white"/>
<path d="M76.0742 79.0179L100.218 92.6587V86.293L76.0742 73.1068V79.0179Z" fill="white"/>
<path d="M98.3965 130.853L128.918 147.677V141.766L98.3965 124.942V130.853Z" fill="white"/>
<path d="M122.996 130.853L157.617 150.86V144.494L122.996 124.942V130.853Z" fill="white"/>
<path d="M135.295 151.314L144.861 157.225V150.86L135.295 144.949V151.314Z" fill="white"/>
<path d="M139.85 121.305V127.67L171.282 145.403V139.492L139.85 121.305Z" fill="white"/>
<path d="M76.0742 118.576L92.0182 127.67V121.305L76.0742 112.211V118.576Z" fill="white"/>
<path d="M106.141 95.8416L117.985 102.662V96.751L106.141 89.9306V95.8416Z" fill="white"/>
<path d="M76.0742 66.2864L113.429 86.7477V80.8367L76.0742 59.9207V66.2864Z" fill="white"/>
<path d="M37.3556 81.2913C36.9001 80.8366 36.9001 80.3819 36.9001 79.9272C36.9001 78.5631 36.9001 77.6537 36.9001 77.199C37.3556 74.4709 37.8112 72.6521 39.1778 71.288C40.5444 69.9239 42.3666 68.5598 44.6443 67.1957C46.4664 66.2863 47.8331 65.377 48.7442 64.4676C49.6552 63.5582 50.1108 62.6488 50.1108 61.2847C50.1108 59.0112 49.6552 56.7377 47.8331 54.4643C46.4665 52.1908 44.1887 50.372 41.911 49.0079C36.9001 46.2797 33.7113 47.1891 32.8002 52.6455C32.3446 54.0096 31.8891 54.0096 30.5225 53.5549L23.6894 49.4626C23.2338 49.0079 22.7783 48.5532 22.3227 48.0985C21.8672 47.6438 21.8672 46.7344 21.8672 46.2797C21.8672 43.0969 22.7783 40.3687 24.6004 38.5499C26.4226 36.7311 28.7003 35.8217 31.8891 35.8217C35.0779 35.8217 38.7222 37.1858 42.8221 39.4593C47.3775 41.7328 50.5663 44.9157 53.2996 48.0985C56.0328 51.2814 58.3105 54.4643 59.2216 57.6471C60.5882 60.83 61.0438 63.5582 61.0438 66.2863C61.0438 69.4692 60.5882 71.7427 59.2216 73.1068C57.855 74.4709 56.4884 76.2896 54.2107 77.6537C52.3885 78.5631 51.0219 79.9272 50.1108 80.8366C49.1997 81.746 48.7442 83.1101 48.2886 84.4742C48.2886 85.8383 47.8331 86.7476 47.8331 87.2023C48.2886 86.7476 47.8331 86.7476 47.3775 87.2023C46.922 87.2023 46.4665 87.2023 46.0109 86.7476L38.2667 82.2007C37.8112 82.2007 37.3556 81.746 37.3556 81.2913ZM36.9001 97.6603C36.4445 97.2056 36.4445 96.2962 36.4445 95.8416V87.657C36.4445 87.2023 36.4445 86.7476 36.9001 86.2929C37.3556 86.2929 37.8112 86.2929 38.2667 86.2929L46.0109 90.8399C46.4665 91.2946 46.922 91.7493 47.3775 92.204C47.8331 92.6587 47.8331 93.5681 47.8331 94.0228V102.207C47.8331 102.662 47.8331 103.117 47.3775 103.571C46.922 103.571 46.4665 103.571 46.0109 103.571L38.2667 99.0244C37.8112 99.0244 37.3556 98.5697 36.9001 97.6603Z" fill="white"/>
<defs>
<linearGradient id="paint0_linear_522_9966" x1="324.58" y1="164.461" x2="351.266" y2="155.715" gradientUnits="userSpaceOnUse">
<stop stop-color="#311B61"/>
<stop offset="0.2031" stop-color="#290F52"/>
<stop offset="0.4949" stop-color="#200041"/>
<stop offset="1" stop-color="#0F001F"/>
</linearGradient>
<linearGradient id="paint1_linear_522_9966" x1="299.195" y1="452.696" x2="293.599" y2="445.183" gradientUnits="userSpaceOnUse">
<stop stop-color="#25054D"/>
<stop offset="0.5" stop-color="#45108A"/>
<stop offset="1" stop-color="#25054D"/>
</linearGradient>
<linearGradient id="paint2_linear_522_9966" x1="291.214" y1="450.215" x2="297.476" y2="450.215" gradientUnits="userSpaceOnUse">
<stop stop-color="#25054D"/>
<stop offset="0.5833" stop-color="#2F085F"/>
<stop offset="1" stop-color="#370B6F"/>
</linearGradient>
<linearGradient id="paint3_linear_522_9966" x1="299.804" y1="451.639" x2="294.049" y2="443.913" gradientUnits="userSpaceOnUse">
<stop stop-color="#25054D"/>
<stop offset="0.5" stop-color="#45108A"/>
<stop offset="1" stop-color="#25054D"/>
</linearGradient>
<radialGradient id="paint4_radial_522_9966" cx="0" cy="0" r="1" gradientUnits="userSpaceOnUse" gradientTransform="translate(294.99 450.109) scale(3.3824 3.37611)">
<stop stop-color="white"/>
<stop offset="1"/>
</radialGradient>
<linearGradient id="paint5_linear_522_9966" x1="366.219" y1="459.811" x2="360.623" y2="452.298" gradientUnits="userSpaceOnUse">
<stop stop-color="#25054D"/>
<stop offset="0.5" stop-color="#45108A"/>
<stop offset="1" stop-color="#25054D"/>
</linearGradient>
<linearGradient id="paint6_linear_522_9966" x1="358.239" y1="457.33" x2="364.5" y2="457.33" gradientUnits="userSpaceOnUse">
<stop stop-color="#25054D"/>
<stop offset="0.5833" stop-color="#2F085F"/>
<stop offset="1" stop-color="#370B6F"/>
</linearGradient>
<linearGradient id="paint7_linear_522_9966" x1="366.848" y1="458.739" x2="361.092" y2="451.012" gradientUnits="userSpaceOnUse">
<stop stop-color="#25054D"/>
<stop offset="0.5" stop-color="#45108A"/>
<stop offset="1" stop-color="#25054D"/>
</linearGradient>
<linearGradient id="paint8_linear_522_9966" x1="396.296" y1="422.606" x2="390.699" y2="415.093" gradientUnits="userSpaceOnUse">
<stop stop-color="#25054D"/>
<stop offset="0.5" stop-color="#45108A"/>
<stop offset="1" stop-color="#25054D"/>
</linearGradient>
<linearGradient id="paint9_linear_522_9966" x1="388.314" y1="420.125" x2="394.576" y2="420.125" gradientUnits="userSpaceOnUse">
<stop stop-color="#25054D"/>
<stop offset="0.5833" stop-color="#2F085F"/>
<stop offset="1" stop-color="#370B6F"/>
</linearGradient>
<linearGradient id="paint10_linear_522_9966" x1="396.904" y1="421.549" x2="391.149" y2="413.823" gradientUnits="userSpaceOnUse">
<stop stop-color="#25054D"/>
<stop offset="0.5" stop-color="#45108A"/>
<stop offset="1" stop-color="#25054D"/>
</linearGradient>
<linearGradient id="paint11_linear_522_9966" x1="348.83" y1="389.989" x2="343.233" y2="382.476" gradientUnits="userSpaceOnUse">
<stop stop-color="#25054D"/>
<stop offset="0.5" stop-color="#45108A"/>
<stop offset="1" stop-color="#25054D"/>
</linearGradient>
<linearGradient id="paint12_linear_522_9966" x1="340.849" y1="387.508" x2="347.11" y2="387.508" gradientUnits="userSpaceOnUse">
<stop stop-color="#25054D"/>
<stop offset="0.5833" stop-color="#2F085F"/>
<stop offset="1" stop-color="#370B6F"/>
</linearGradient>
<linearGradient id="paint13_linear_522_9966" x1="349.458" y1="388.917" x2="343.703" y2="381.19" gradientUnits="userSpaceOnUse">
<stop stop-color="#25054D"/>
<stop offset="0.5" stop-color="#45108A"/>
<stop offset="1" stop-color="#25054D"/>
</linearGradient>
<radialGradient id="paint14_radial_522_9966" cx="0" cy="0" r="1" gradientUnits="userSpaceOnUse" gradientTransform="translate(344.625 387.403) scale(3.38241 3.37612)">
<stop stop-color="white"/>
<stop offset="1"/>
</radialGradient>
<linearGradient id="paint15_linear_522_9966" x1="289.371" y1="412.133" x2="283.774" y2="404.619" gradientUnits="userSpaceOnUse">
<stop stop-color="#25054D"/>
<stop offset="0.5" stop-color="#45108A"/>
<stop offset="1" stop-color="#25054D"/>
</linearGradient>
<linearGradient id="paint16_linear_522_9966" x1="281.389" y1="409.652" x2="287.651" y2="409.652" gradientUnits="userSpaceOnUse">
<stop stop-color="#25054D"/>
<stop offset="0.5833" stop-color="#2F085F"/>
<stop offset="1" stop-color="#370B6F"/>
</linearGradient>
<linearGradient id="paint17_linear_522_9966" x1="289.999" y1="411.061" x2="284.244" y2="403.334" gradientUnits="userSpaceOnUse">
<stop stop-color="#25054D"/>
<stop offset="0.5" stop-color="#45108A"/>
<stop offset="1" stop-color="#25054D"/>
</linearGradient>
<radialGradient id="paint18_radial_522_9966" cx="0" cy="0" r="1" gradientUnits="userSpaceOnUse" gradientTransform="translate(285.164 409.546) scale(3.3824 3.37612)">
<stop stop-color="white"/>
<stop offset="1"/>
</radialGradient>
<linearGradient id="paint19_linear_522_9966" x1="293.293" y1="444.5" x2="297.919" y2="444.5" gradientUnits="userSpaceOnUse">
<stop stop-color="#25054D"/>
<stop offset="0.5" stop-color="#45108A"/>
<stop offset="1" stop-color="#25054D"/>
</linearGradient>
<linearGradient id="paint20_linear_522_9966" x1="293.76" y1="441.332" x2="297.477" y2="443.482" gradientUnits="userSpaceOnUse">
<stop stop-color="#25054D"/>
<stop offset="0.5833" stop-color="#2F085F"/>
<stop offset="1" stop-color="#370B6F"/>
</linearGradient>
<linearGradient id="paint21_linear_522_9966" x1="284.166" y1="404.668" x2="288.792" y2="404.668" gradientUnits="userSpaceOnUse">
<stop stop-color="#25054D"/>
<stop offset="0.5" stop-color="#45108A"/>
<stop offset="1" stop-color="#25054D"/>
</linearGradient>
<linearGradient id="paint22_linear_522_9966" x1="284.633" y1="401.5" x2="288.35" y2="403.65" gradientUnits="userSpaceOnUse">
<stop stop-color="#25054D"/>
<stop offset="0.5833" stop-color="#2F085F"/>
<stop offset="1" stop-color="#370B6F"/>
</linearGradient>
<linearGradient id="paint23_linear_522_9966" x1="343.257" y1="383.123" x2="347.883" y2="383.123" gradientUnits="userSpaceOnUse">
<stop stop-color="#25054D"/>
<stop offset="0.5" stop-color="#45108A"/>
<stop offset="1" stop-color="#25054D"/>
</linearGradient>
<linearGradient id="paint24_linear_522_9966" x1="391.29" y1="415.042" x2="395.916" y2="415.042" gradientUnits="userSpaceOnUse">
<stop stop-color="#25054D"/>
<stop offset="0.5" stop-color="#45108A"/>
<stop offset="1" stop-color="#25054D"/>
</linearGradient>
<linearGradient id="paint25_linear_522_9966" x1="391.758" y1="411.874" x2="395.475" y2="414.024" gradientUnits="userSpaceOnUse">
<stop stop-color="#25054D"/>
<stop offset="0.5833" stop-color="#2F085F"/>
<stop offset="1" stop-color="#370B6F"/>
</linearGradient>
<linearGradient id="paint26_linear_522_9966" x1="361.111" y1="451.881" x2="365.737" y2="451.881" gradientUnits="userSpaceOnUse">
<stop stop-color="#25054D"/>
<stop offset="0.5" stop-color="#45108A"/>
<stop offset="1" stop-color="#25054D"/>
</linearGradient>
<linearGradient id="paint27_linear_522_9966" x1="361.578" y1="448.713" x2="365.295" y2="450.863" gradientUnits="userSpaceOnUse">
<stop stop-color="#25054D"/>
<stop offset="0.5833" stop-color="#2F085F"/>
<stop offset="1" stop-color="#370B6F"/>
</linearGradient>
<linearGradient id="paint28_linear_522_9966" x1="335.427" y1="415.258" x2="380.568" y2="354.411" gradientUnits="userSpaceOnUse">
<stop offset="0.030303" stop-color="#8688B3"/>
<stop offset="0.4899" stop-color="#AAABCB"/>
<stop offset="1" stop-color="#C7BAD8"/>
</linearGradient>
<linearGradient id="paint29_linear_522_9966" x1="293.879" y1="396.511" x2="334.296" y2="466.639" gradientUnits="userSpaceOnUse">
<stop offset="0.030303" stop-color="#8688B3"/>
<stop offset="0.4899" stop-color="#AAABCB"/>
<stop offset="1" stop-color="#C7BAD8"/>
</linearGradient>
<linearGradient id="paint30_linear_522_9966" x1="328.832" y1="408.878" x2="342.928" y2="408.878" gradientUnits="userSpaceOnUse">
<stop stop-color="#8A92B3"/>
<stop offset="0.0618641" stop-color="#8E95B6"/>
<stop offset="0.1294" stop-color="#9C9EBE"/>
<stop offset="0.1993" stop-color="#B1ACCB"/>
<stop offset="0.2525" stop-color="#C7BAD8"/>
<stop offset="0.3333" stop-color="#B2AACC"/>
<stop offset="0.4494" stop-color="#9A97BE"/>
<stop offset="0.5569" stop-color="#8B8CB6"/>
<stop offset="0.6465" stop-color="#8688B3"/>
<stop offset="0.8485" stop-color="#AAABCB"/>
<stop offset="1" stop-color="#9396B3"/>
</linearGradient>
<linearGradient id="paint31_linear_522_9966" x1="330.256" y1="399.225" x2="341.581" y2="405.776" gradientUnits="userSpaceOnUse">
<stop offset="0.0555556" stop-color="#838FC7"/>
<stop offset="0.2603" stop-color="#8590C8"/>
<stop offset="0.3611" stop-color="#8D94CB"/>
<stop offset="0.439" stop-color="#9A9ACF"/>
<stop offset="0.4949" stop-color="#A9A1D5"/>
<stop offset="0.5931" stop-color="#ADA5D7"/>
<stop offset="0.7001" stop-color="#B9B3DD"/>
<stop offset="0.8115" stop-color="#CDC8E7"/>
<stop offset="0.925" stop-color="#E9E7F4"/>
<stop offset="1" stop-color="white"/>
</linearGradient>
<linearGradient id="paint32_linear_522_9966" x1="329.874" y1="388.197" x2="341.899" y2="388.197" gradientUnits="userSpaceOnUse">
<stop stop-color="#8A92B3"/>
<stop offset="0.0618641" stop-color="#8E95B6"/>
<stop offset="0.1294" stop-color="#9C9EBE"/>
<stop offset="0.1993" stop-color="#B1ACCB"/>
<stop offset="0.2525" stop-color="#C7BAD8"/>
<stop offset="0.3333" stop-color="#B2AACC"/>
<stop offset="0.4494" stop-color="#9A97BE"/>
<stop offset="0.5569" stop-color="#8B8CB6"/>
<stop offset="0.6465" stop-color="#8688B3"/>
<stop offset="0.8485" stop-color="#AAABCB"/>
<stop offset="1" stop-color="#9396B3"/>
</linearGradient>
<linearGradient id="paint33_linear_522_9966" x1="335.925" y1="374.328" x2="335.925" y2="388.984" gradientUnits="userSpaceOnUse">
<stop stop-color="#4C4C4C"/>
<stop offset="1" stop-color="white"/>
</linearGradient>
<linearGradient id="paint34_linear_522_9966" x1="347.562" y1="375.915" x2="500.44" y2="330.053" gradientUnits="userSpaceOnUse">
<stop offset="0.030303" stop-color="#8688B3"/>
<stop offset="0.4899" stop-color="#AAABCB"/>
<stop offset="1" stop-color="#C7BAD8"/>
</linearGradient>
<linearGradient id="paint35_linear_522_9966" x1="202.367" y1="391.029" x2="399.067" y2="346.853" gradientUnits="userSpaceOnUse">
<stop offset="0.030303" stop-color="#8688B3"/>
<stop offset="0.4899" stop-color="#AAABCB"/>
<stop offset="1" stop-color="#C7BAD8"/>
</linearGradient>
<linearGradient id="paint36_linear_522_9966" x1="202.367" y1="387.055" x2="399.067" y2="342.88" gradientUnits="userSpaceOnUse">
<stop offset="0.0353535" stop-color="#9F19AB"/>
<stop offset="0.2438" stop-color="#AE25B1"/>
<stop offset="0.6455" stop-color="#D744BF"/>
<stop offset="1" stop-color="#FF63CE"/>
</linearGradient>
<linearGradient id="paint37_linear_522_9966" x1="314.232" y1="360.387" x2="253.789" y2="360.387" gradientUnits="userSpaceOnUse">
<stop stop-color="#311B61"/>
<stop offset="0.2031" stop-color="#290F52"/>
<stop offset="0.4949" stop-color="#200041"/>
<stop offset="1" stop-color="#0F001F"/>
</linearGradient>
<radialGradient id="paint38_radial_522_9966" cx="0" cy="0" r="1" gradientUnits="userSpaceOnUse" gradientTransform="translate(209.093 379.252) rotate(180) scale(179.845 179.511)">
<stop offset="0.030303" stop-color="#FEDFCB"/>
<stop offset="1" stop-color="#F9B69E"/>
</radialGradient>
<radialGradient id="paint39_radial_522_9966" cx="0" cy="0" r="1" gradientUnits="userSpaceOnUse" gradientTransform="translate(209.093 379.252) rotate(180) scale(179.845 179.511)">
<stop offset="0.030303" stop-color="#FEDFCB"/>
<stop offset="1" stop-color="#F9B69E"/>
</radialGradient>
<radialGradient id="paint40_radial_522_9966" cx="0" cy="0" r="1" gradientUnits="userSpaceOnUse" gradientTransform="translate(321.804 188.115) rotate(180) scale(45.3565 45.2722)">
<stop offset="0.030303" stop-color="#FEDFCB"/>
<stop offset="1" stop-color="#F9B69E"/>
</radialGradient>
<linearGradient id="paint41_linear_522_9966" x1="220.586" y1="327.234" x2="363.483" y2="327.234" gradientUnits="userSpaceOnUse">
<stop offset="0.0555556" stop-color="#200041"/>
<stop offset="0.2576" stop-color="#210243"/>
<stop offset="0.3572" stop-color="#25084B"/>
<stop offset="0.4341" stop-color="#2C1358"/>
<stop offset="0.4697" stop-color="#311B61"/>
<stop offset="0.482" stop-color="#351F65"/>
<stop offset="0.4954" stop-color="#422C73"/>
<stop offset="0.5093" stop-color="#584188"/>
<stop offset="0.5235" stop-color="#765FA7"/>
<stop offset="0.5303" stop-color="#8770B8"/>
<stop offset="0.5366" stop-color="#7E67AE"/>
<stop offset="0.5617" stop-color="#5C468D"/>
<stop offset="0.5857" stop-color="#442E75"/>
<stop offset="0.6078" stop-color="#362066"/>
<stop offset="0.6263" stop-color="#311B61"/>
<stop offset="0.6724" stop-color="#2A1155"/>
<stop offset="0.7491" stop-color="#230446"/>
<stop offset="0.8131" stop-color="#200041"/>
<stop offset="1" stop-color="#200041"/>
</linearGradient>
<linearGradient id="paint42_linear_522_9966" x1="217.7" y1="323.691" x2="348.089" y2="323.691" gradientUnits="userSpaceOnUse">
<stop stop-color="#311B61"/>
<stop offset="0.2031" stop-color="#290F52"/>
<stop offset="0.4949" stop-color="#200041"/>
<stop offset="1" stop-color="#0F001F"/>
</linearGradient>
<linearGradient id="paint43_linear_522_9966" x1="344.655" y1="335.592" x2="234.584" y2="314.303" gradientUnits="userSpaceOnUse">
<stop stop-color="#3D065F"/>
<stop offset="1" stop-color="#5F27BD"/>
</linearGradient>
<linearGradient id="paint44_linear_522_9966" x1="273.061" y1="344.461" x2="274.847" y2="301.27" gradientUnits="userSpaceOnUse">
<stop stop-color="#3D065F"/>
<stop offset="1" stop-color="#10054D"/>
</linearGradient>
<linearGradient id="paint45_linear_522_9966" x1="263.727" y1="299.3" x2="296.933" y2="351.508" gradientUnits="userSpaceOnUse">
<stop offset="0.0555556" stop-color="#9F79B8"/>
<stop offset="0.2502" stop-color="#A17BBA"/>
<stop offset="0.3461" stop-color="#A883C0"/>
<stop offset="0.4204" stop-color="#B490CC"/>
<stop offset="0.4836" stop-color="#C5A3DC"/>
<stop offset="0.5392" stop-color="#DBBBF0"/>
<stop offset="0.5606" stop-color="#E6C6FA"/>
<stop offset="0.5967" stop-color="#D6B6F1"/>
<stop offset="0.6872" stop-color="#B595DD"/>
<stop offset="0.7735" stop-color="#9D7DCF"/>
<stop offset="0.8529" stop-color="#8E6EC6"/>
<stop offset="0.9192" stop-color="#8969C3"/>
</linearGradient>
<radialGradient id="paint46_radial_522_9966" cx="0" cy="0" r="1" gradientUnits="userSpaceOnUse" gradientTransform="translate(280.855 301.396) rotate(180) scale(47.7736 47.6848)">
<stop offset="0.030303" stop-color="#FEDFCB"/>
<stop offset="1" stop-color="#F9B69E"/>
</radialGradient>
<radialGradient id="paint47_radial_522_9966" cx="0" cy="0" r="1" gradientUnits="userSpaceOnUse" gradientTransform="translate(327.264 318.135) rotate(180) scale(81.1334 80.9827)">
<stop offset="0.030303" stop-color="#FEDFCB"/>
<stop offset="1" stop-color="#F9B69E"/>
</radialGradient>
<linearGradient id="paint48_linear_522_9966" x1="381.901" y1="225.747" x2="342.409" y2="225.747" gradientUnits="userSpaceOnUse">
<stop offset="0.0353535" stop-color="#602213"/>
<stop offset="0.571" stop-color="#6D310E"/>
<stop offset="1" stop-color="#7A4108"/>
</linearGradient>
<radialGradient id="paint49_radial_522_9966" cx="0" cy="0" r="1" gradientUnits="userSpaceOnUse" gradientTransform="translate(328.826 195.9) rotate(180) scale(33.2076 33.1459)">
<stop offset="0.030303" stop-color="#FEDFCB"/>
<stop offset="1" stop-color="#F9B69E"/>
</radialGradient>
<linearGradient id="paint50_linear_522_9966" x1="368.796" y1="176.596" x2="317.023" y2="176.596" gradientUnits="userSpaceOnUse">
<stop offset="0.0353535" stop-color="#602213"/>
<stop offset="0.571" stop-color="#6D310E"/>
<stop offset="1" stop-color="#7A4108"/>
</linearGradient>
<linearGradient id="paint51_linear_522_9966" x1="291.401" y1="309.151" x2="38.0821" y2="287.008" gradientUnits="userSpaceOnUse">
<stop stop-color="#311B61"/>
<stop offset="0.2031" stop-color="#290F52"/>
<stop offset="0.4949" stop-color="#200041"/>
<stop offset="1" stop-color="#0F001F"/>
</linearGradient>
<linearGradient id="paint52_linear_522_9966" x1="311.41" y1="363.406" x2="244.908" y2="256.948" gradientUnits="userSpaceOnUse">
<stop offset="0.0555556" stop-color="#200041"/>
<stop offset="0.2576" stop-color="#210243"/>
<stop offset="0.3572" stop-color="#25084B"/>
<stop offset="0.4341" stop-color="#2C1358"/>
<stop offset="0.4697" stop-color="#311B61"/>
<stop offset="0.482" stop-color="#351F65"/>
<stop offset="0.4954" stop-color="#422C73"/>
<stop offset="0.5093" stop-color="#584188"/>
<stop offset="0.5235" stop-color="#765FA7"/>
<stop offset="0.5303" stop-color="#8770B8"/>
<stop offset="0.5366" stop-color="#7E67AE"/>
<stop offset="0.5617" stop-color="#5C468D"/>
<stop offset="0.5857" stop-color="#442E75"/>
<stop offset="0.6078" stop-color="#362066"/>
<stop offset="0.6263" stop-color="#311B61"/>
<stop offset="0.6724" stop-color="#2A1155"/>
<stop offset="0.7491" stop-color="#230446"/>
<stop offset="0.8131" stop-color="#200041"/>
<stop offset="1" stop-color="#200041"/>
</linearGradient>
<linearGradient id="paint53_linear_522_9966" x1="337.086" y1="213.838" x2="359.666" y2="199.883" gradientUnits="userSpaceOnUse">
<stop stop-color="#311B61"/>
<stop offset="0.2031" stop-color="#290F52"/>
<stop offset="0.4949" stop-color="#200041"/>
<stop offset="1" stop-color="#0F001F"/>
</linearGradient>
<linearGradient id="paint54_linear_522_9966" x1="334.023" y1="212.182" x2="337.812" y2="209.84" gradientUnits="userSpaceOnUse">
<stop stop-color="#311B61"/>
<stop offset="0.2031" stop-color="#290F52"/>
<stop offset="0.4949" stop-color="#200041"/>
<stop offset="1" stop-color="#0F001F"/>
</linearGradient>
<linearGradient id="paint55_linear_522_9966" x1="352.982" y1="200.916" x2="361.508" y2="185.424" gradientUnits="userSpaceOnUse">
<stop offset="0.0555556" stop-color="#200041"/>
<stop offset="0.1029" stop-color="#220345"/>
<stop offset="0.5152" stop-color="#311B61"/>
<stop offset="0.5886" stop-color="#2A1155"/>
<stop offset="0.711" stop-color="#230446"/>
<stop offset="0.8131" stop-color="#200041"/>
<stop offset="1" stop-color="#200041"/>
</linearGradient>
<linearGradient id="paint56_linear_522_9966" x1="355.018" y1="193.148" x2="375.767" y2="199.016" gradientUnits="userSpaceOnUse">
<stop stop-color="#311B61"/>
<stop offset="0.2031" stop-color="#290F52"/>
<stop offset="0.4949" stop-color="#200041"/>
<stop offset="1" stop-color="#0F001F"/>
</linearGradient>
<linearGradient id="paint57_linear_522_9966" x1="357.407" y1="199.121" x2="365.645" y2="185.148" gradientUnits="userSpaceOnUse">
<stop offset="0.0555556" stop-color="#200041"/>
<stop offset="0.1029" stop-color="#220345"/>
<stop offset="0.5152" stop-color="#311B61"/>
<stop offset="0.5886" stop-color="#2A1155"/>
<stop offset="0.711" stop-color="#230446"/>
<stop offset="0.8131" stop-color="#200041"/>
<stop offset="1" stop-color="#200041"/>
</linearGradient>
<linearGradient id="paint58_linear_522_9966" x1="356.905" y1="195.399" x2="365.361" y2="195.399" gradientUnits="userSpaceOnUse">
<stop stop-color="#311B61"/>
<stop offset="0.2031" stop-color="#290F52"/>
<stop offset="0.4949" stop-color="#200041"/>
<stop offset="1" stop-color="#0F001F"/>
</linearGradient>
<linearGradient id="paint59_linear_522_9966" x1="355.36" y1="202.567" x2="371.848" y2="183.827" gradientUnits="userSpaceOnUse">
<stop stop-color="#311B61"/>
<stop offset="0.2031" stop-color="#290F52"/>
<stop offset="0.4949" stop-color="#200041"/>
<stop offset="1" stop-color="#0F001F"/>
</linearGradient>
<linearGradient id="paint60_linear_522_9966" x1="333.773" y1="151.524" x2="360.706" y2="189.231" gradientUnits="userSpaceOnUse">
<stop offset="0.0555556" stop-color="#200041"/>
<stop offset="0.1029" stop-color="#220345"/>
<stop offset="0.5152" stop-color="#311B61"/>
<stop offset="0.5886" stop-color="#2A1155"/>
<stop offset="0.711" stop-color="#230446"/>
<stop offset="0.8131" stop-color="#200041"/>
<stop offset="1" stop-color="#200041"/>
</linearGradient>
<linearGradient id="paint61_linear_522_9966" x1="327.478" y1="175.084" x2="360.158" y2="175.084" gradientUnits="userSpaceOnUse">
<stop stop-color="#311B61"/>
<stop offset="0.2031" stop-color="#290F52"/>
<stop offset="0.4949" stop-color="#200041"/>
<stop offset="1" stop-color="#0F001F"/>
</linearGradient>
</defs>
</svg>
