<?xml version="1.0" encoding="utf-8"?>
<!-- Generator: Adobe Illustrator 21.1.0, SVG Export Plug-In . SVG Version: 6.00 Build 0)  -->
<svg version="1.1" id="Layer_1" xmlns="http://www.w3.org/2000/svg" xmlns:xlink="http://www.w3.org/1999/xlink" x="0px" y="0px"
	 viewBox="0 0 561 531" style="enable-background:new 0 0 561 531;" xml:space="preserve">
<style type="text/css">
	.st0{display:none;fill:#0F4444;}
	.st1{display:none;fill-opacity:0.4;}
	.st2{display:none;fill:#A9A8C6;}
	.st3{display:none;fill:#1C1A2A;}
	.st4{display:none;fill:#E1DFEA;}
	.st5{display:none;fill:#7C7CA0;}
	.st6{display:none;fill:url(#SVGID_1_);}
	.st7{display:none;fill:#090000;}
	.st8{display:none;fill:#1A2738;}
	.st9{display:none;opacity:0.27;}
	.st10{display:inline;fill:#FFFFFF;}
	.st11{display:inline;opacity:0.27;fill:#717F90;enable-background:new    ;}
	.st12{display:none;fill:#1F825E;}
	.st13{display:none;fill:#36CF98;}
	.st14{display:none;fill:#FBFAFC;}
	.st15{fill-opacity:0.2;}
	.st16{display:none;fill-opacity:0.2;}
	.st17{display:none;fill:#B4AAD1;}
	.st18{display:none;fill:#18A48F;}
	.st19{display:none;fill:#1EEBCD;}
	.st20{display:none;fill:#ECE7F2;}
	.st21{fill:#E1DFEA;}
	.st22{fill:#1F825E;}
	.st23{fill:#36CF98;}
	.st24{fill:#1A293B;}
	.st25{fill:#3F4F5D;}
	.st26{fill:#9B346C;}
	.st27{fill:#A23042;}
	.st28{fill:#EF4F25;}
	.st29{fill:#FA7800;}
	.st30{fill:#F7B23B;}
	.st31{fill:#D64A78;}
	.st32{fill:#FBC959;}
	.st33{fill:#8140FF;}
	.st34{fill:#5F26CF;}
	.st35{fill:#E95950;}
	.st36{fill:#F5B538;}
	.st37{fill:#F8E150;}
	.st38{fill:#0C4E5C;}
	.st39{fill:#1F7082;}
	.st40{fill:#339CB4;}
	.st41{display:none;fill:#F0E0DC;}
	.st42{display:none;fill:#F3E187;}
</style>
<path class="st0" d="M458.4,459.1c7,3.9,7,10.4,0,14.4c-7,3.9-18.3,3.9-25.3,0c-7-3.9-7-10.4,0-14.4
	C440,455.2,451.4,455.2,458.4,459.1z"/>
<path class="st0" d="M196.3,369.7L100,424.5c-3.1,1.8-8.1,1.8-11.4,0c-3.1-1.8-3.1-4.7,0-6.5l96.2-54.8c3.1-1.8,8.1-1.8,11.4,0
	C199.5,364.9,199.5,367.9,196.3,369.7z"/>
<path class="st0" d="M270.7,327.3l-50.9,29c-3.1,1.8-8.1,1.8-11.4,0c-3.1-1.8-3.1-4.7,0-6.5l50.9-29c3.1-1.8,8.1-1.8,11.4,0
	C273.9,322.6,273.9,325.5,270.7,327.3z"/>
<path class="st0" d="M224.8,324.6l-96.2,54.8c-3.1,1.8-8.1,1.8-11.4,0c-3.1-1.8-3.1-4.7,0-6.5l96.2-54.8c3.1-1.8,8.1-1.8,11.4,0
	C228,319.9,228,322.8,224.8,324.6z"/>
<path class="st0" d="M348,254.5l-96.2,54.8c-3.1,1.8-8.1,1.8-11.4,0c-3.1-1.8-3.1-4.7,0-6.5l96.2-54.8c3.1-1.8,8.1-1.8,11.4,0
	C351.1,249.9,351.1,252.7,348,254.5z"/>
<path class="st0" d="M403.3,280.6l-96.2,54.8c-3.1,1.8-8.1,1.8-11.4,0c-3.1-1.8-3.1-4.7,0-6.5l96.2-54.8c3.1-1.8,8.1-1.8,11.4,0
	C406.4,275.9,406.4,278.8,403.3,280.6z"/>
<path class="st0" d="M221.6,384l-28.2,16c-3.1,1.8-8.1,1.8-11.4,0c-3.1-1.8-3.1-4.7,0-6.5l28.2-16c3.1-1.8,8.1-1.8,11.4,0
	C224.7,379.3,224.7,382.2,221.6,384z"/>
<path class="st0" d="M463.3,246.5l-28.2,16c-3.1,1.8-8.1,1.8-11.4,0c-3.1-1.8-3.1-4.7,0-6.5l28.2-16c3.1-1.8,8.1-1.8,11.4,0
	C466.4,241.8,466.4,244.7,463.3,246.5z"/>
<path class="st0" d="M244.1,284.9l-96.4,54.8c-3.1,1.8-8.1,1.8-11.4,0c-3.1-1.8-3.1-4.7,0-6.5l96.2-54.8c3.1-1.8,8.1-1.8,11.4,0
	C247.2,280.3,247.2,283.1,244.1,284.9z"/>
<path class="st0" d="M304,250.8l-28.2,16c-3.1,1.8-8.1,1.8-11.4,0c-3.1-1.8-3.1-4.7,0-6.5l28.2-16c3.1-1.8,8.1-1.8,11.4,0
	C307.1,246.2,307.1,249,304,250.8z"/>
<path class="st0" d="M351.3,474.9L255,529.7c-3.1,1.8-8.1,1.8-11.4,0c-3.1-1.8-3.1-4.7,0-6.5l96.2-54.8c3.1-1.8,8.1-1.8,11.4,0
	C354.4,470.2,354.4,473.1,351.3,474.9z"/>
<path class="st0" d="M425.7,432.5l-50.9,29c-3.1,1.8-8.1,1.8-11.4,0c-3.1-1.8-3.1-4.7,0-6.5l50.9-29c3.1-1.8,8.1-1.8,11.4,0
	C428.8,427.8,428.8,430.7,425.7,432.5z"/>
<path class="st0" d="M379.8,429.8l-96.2,54.8c-3.1,1.8-8.1,1.8-11.4,0c-3.1-1.8-3.1-4.7,0-6.5l96.2-54.8c3.1-1.8,8.1-1.8,11.4,0
	C382.9,425.1,382.9,428.1,379.8,429.8z"/>
<path class="st0" d="M502.9,359.9l-96.2,54.8c-3.1,1.8-8.1,1.8-11.4,0c-3.1-1.8-3.1-4.7,0-6.5l96.2-54.8c3.1-1.8,8.1-1.8,11.4,0
	C506.2,355.1,506.2,358.1,502.9,359.9z"/>
<path class="st0" d="M558.3,385.8l-96.2,54.8c-3.1,1.8-8.1,1.8-11.4,0c-3.1-1.8-3.1-4.7,0-6.5l96.2-54.8c3.1-1.8,8.1-1.8,11.4,0
	C561.4,381.1,561.4,384,558.3,385.8z"/>
<path class="st0" d="M376.6,489.3l-28.2,16c-3.1,1.8-8.1,1.8-11.4,0c-3.1-1.8-3.1-4.7,0-6.5l28.2-16c3.1-1.8,8.1-1.8,11.4,0
	C379.7,484.6,379.7,487.5,376.6,489.3z"/>
<path class="st0" d="M399.1,390.3l-96.2,54.8c-3.1,1.8-8.1,1.8-11.4,0c-3.1-1.8-3.1-4.7,0-6.5l96.2-54.8c3.1-1.8,8.1-1.8,11.4,0
	C402.2,385.6,402.2,388.5,399.1,390.3z"/>
<path class="st0" d="M459,356l-28.2,16c-3.1,1.8-8.1,1.8-11.4,0c-3.1-1.8-3.1-4.7,0-6.5l28.2-16c3.1-1.8,8.1-1.8,11.4,0
	C462.1,351.5,462.1,354.3,459,356z"/>
<path class="st0" d="M285.3,402.5L189,457.3c-3.1,1.8-8.1,1.8-11.4,0c-3.1-1.8-3.1-4.7,0-6.5l96.2-54.8c3.1-1.8,8.1-1.8,11.4,0
	C288.4,397.8,288.4,400.7,285.3,402.5z"/>
<path class="st0" d="M359.7,360.2l-50.9,29c-3.1,1.8-8.1,1.8-11.4,0c-3.1-1.8-3.1-4.7,0-6.5l50.9-29c3.1-1.8,8.1-1.8,11.4,0
	C362.8,355.5,362.8,358.5,359.7,360.2z"/>
<path class="st0" d="M313.8,357.6l-96.4,54.7c-3.1,1.8-8.1,1.8-11.4,0c-3.1-1.8-3.1-4.7,0-6.5l96.2-54.8c3.1-1.8,8.1-1.8,11.4,0
	C316.9,352.9,316.9,355.8,313.8,357.6z"/>
<path class="st0" d="M436.9,287.5l-96.2,54.8c-3.1,1.8-8.1,1.8-11.4,0c-3.1-1.8-3.1-4.7,0-6.5l96.2-54.8c3.1-1.8,8.1-1.8,11.4,0
	C440,282.7,440,285.7,436.9,287.5z"/>
<path class="st0" d="M492.2,313.5L396,368.4c-3.1,1.8-8.1,1.8-11.4,0c-3.1-1.8-3.1-4.7,0-6.5l96.2-54.8c3.1-1.8,8.1-1.8,11.4,0
	C495.3,308.8,495.3,311.8,492.2,313.5z"/>
<path class="st0" d="M310.5,416.9l-28.2,16c-3.1,1.8-8.1,1.8-11.4,0c-3.1-1.8-3.1-4.7,0-6.5l28.2-16c3.1-1.8,8.1-1.8,11.4,0
	C313.7,412.2,313.7,415.1,310.5,416.9z"/>
<path class="st0" d="M552.1,279.3l-28.2,16c-3.1,1.8-8.1,1.8-11.4,0c-3.1-1.8-3.1-4.7,0-6.5l28.2-16c3.1-1.8,8.1-1.8,11.4,0
	C555.2,274.7,555.2,277.5,552.1,279.3z"/>
<path class="st0" d="M332.9,317.9l-96.2,54.8c-3.1,1.8-8.1,1.8-11.4,0c-3.1-1.8-3.1-4.7,0-6.5l96.2-54.8c3.1-1.8,8.1-1.8,11.4,0
	C336,313.2,336,316.1,332.9,317.9z"/>
<path class="st0" d="M392.9,283.8l-28.2,16c-3.1,1.8-8.1,1.8-11.4,0c-3.1-1.8-3.1-4.7,0-6.5l28.2-16c3.1-1.8,8.1-1.8,11.4,0
	C396,279.1,396,282,392.9,283.8z"/>
<path class="st0" d="M104,337.5L13,389.2c-3,1.7-7.8,1.7-10.7,0c-3-1.7-3-4.5,0-6.1l91.1-51.8c3-1.7,7.8-1.7,10.7,0
	C107,333,107,335.8,104,337.5z"/>
<path class="st0" d="M174.3,297.4l-48.1,27.4c-3,1.7-7.8,1.7-10.7,0c-3-1.7-3-4.5,0-6.1l48.2-27.4c3-1.7,7.8-1.7,10.7,0
	C177.3,292.9,177.3,295.7,174.3,297.4z"/>
<path class="st0" d="M131,294.8l-91.1,51.8c-3,1.7-7.8,1.7-10.7,0s-3-4.5,0-6.1l91.1-51.8c3-1.7,7.8-1.7,10.7,0
	C134,290.5,134,293.2,131,294.8z"/>
<path class="st0" d="M247.4,228.5l-91.1,51.8c-3,1.7-7.8,1.7-10.7,0c-3-1.7-3-4.5,0-6.1l91.1-51.8c3-1.7,7.8-1.7,10.7,0
	C250.4,224.2,250.4,226.9,247.4,228.5z"/>
<path class="st0" d="M299.7,253.2L208.7,305c-3,1.7-7.8,1.7-10.7,0c-3-1.7-3-4.5,0-6.1l91.1-51.8c3-1.7,7.8-1.7,10.7,0
	C302.7,248.8,302.7,251.6,299.7,253.2z"/>
<path class="st0" d="M127.9,351.1l-26.6,15.1c-3,1.7-7.8,1.7-10.7,0c-3-1.7-3-4.5,0-6.1l26.6-15.1c3-1.7,7.8-1.7,10.7,0
	C130.9,346.6,130.9,349.3,127.9,351.1z"/>
<path class="st0" d="M356.4,220.9L329.8,236c-3,1.7-7.8,1.7-10.7,0c-3-1.7-3-4.5,0-6.1l26.6-15.1c3-1.7,7.8-1.7,10.7,0
	C359.4,216.6,359.4,219.2,356.4,220.9z"/>
<path class="st0" d="M149.1,257.3L58,309.2c-3,1.7-7.8,1.7-10.7,0c-3-1.7-3-4.5,0-6.1l91.1-51.8c3-1.7,7.8-1.7,10.7,0
	C152.1,253,152.1,255.6,149.1,257.3z"/>
<path class="st0" d="M205.8,225.1l-26.6,15.1c-3,1.7-7.8,1.7-10.7,0c-3-1.7-3-4.5,0-6.1l26.6-15.1c3-1.7,7.8-1.7,10.7,0
	C208.8,220.6,208.8,223.4,205.8,225.1z"/>
<path class="st1" d="M525.4,418.1L409.5,484c-14.3,8.1-37.7,8.1-52.1,0L80.1,326.4c-14.3-8.1-14.3-21.4,0-29.6L196,230.8
	c14.3-8.1,37.7-8.1,52.1,0l277.3,157.8C539.7,396.8,539.7,410,525.4,418.1z"/>
<path class="st2" d="M69.7,267.7c1.7,2.2,3.9,3.7,6.2,5.1l278.8,158.5c3.2,1.9,6.7,3.2,10.5,3.9c3.6,0.8,7.5,1.1,11.2,1.1
	c7.6,0,15.5-1.5,21.8-5.1l132.7-75.5c3.7-2.2,7.8-5.9,8.8-9.9c0.1-0.6,0.3-1.4,0.3-2.2c0,8.5,0,10.9,0,19.5c0,5.3-4.3,9.7-9,12.3
	l-132.7,75.5c-3.2,1.8-6.7,3.2-10.5,3.9c-10.7,2.3-23.6,1.4-33.1-3.9L75.9,292.5c-1.2-0.6-2.3-1.4-3.5-2.3c-3-2.4-5.6-6.4-5.6-10.2
	c0-8.5,0-11.2,0-19.7C66.8,262.9,68,265.6,69.7,267.7z"/>
<path class="st3" d="M475.5,393.2c0.9-0.5,1.6-0.5,2.2-0.3c0.6,0.3,1,1,1,2.2v1.4c0,2-1.4,4.6-3.2,5.6l-22.5,12.7
	c-0.9,0.5-1.7,0.5-2.3,0.3c-0.6-0.4-1-1-1-2v-1.4c0-2,1.4-4.6,3.2-5.6L475.5,393.2z"/>
<path class="st3" d="M425.8,421.2c3.1-3.2,6.1-1.9,6.1,1.4c-0.1,4.8-5,9.5-7.6,8c-0.4-0.3-0.6-0.5-0.9-1c-0.4-0.8-0.5-1.7-0.4-2.5
	c0.1-1,0.5-2,0.9-3.1c0.3-0.4,0.5-0.8,0.6-1.1C424.9,422.2,425.3,421.7,425.8,421.2z"/>
<path class="st4" d="M75.1,266.5c2.3,2.7,4.1,3.4,12.1,8c0.1,0.1,271.7,154.6,273.1,155.2c4.7,2.2,10.3,3.3,16.1,3.3v3.3
	c-3.9,0-7.6-0.4-11.2-1.1c-3.7-0.8-7.2-2-10.5-3.9L75.9,272.7c-2.3-1.3-4.5-2.9-6.2-5.1c-1.7-2.2-2.7-4.7-2.8-7.4
	c0-0.8,0-1.7,0.3-2.4c1-4.2,5-7.9,8.8-9.9l132.7-75.5c6.3-3.6,14.1-5.1,21.8-5.1v3.3c-2.8,0-5.7,0.3-8.5,0.9
	c-5.7,1.1-8.5,2.9-12.8,5.5c-4.4,2.5,9.8-5.7-49.7,28.2c-9.7,5.5-19.4,11.2-29.1,16.7c-9.7,5.5-19.5,10.9-29.2,16.5
	c-4,2.3-8,4.7-12.1,7c-4.8,2.7-9.2,5-11.4,6.7C72.2,256,71,261.5,75.1,266.5z"/>
<path class="st4" d="M141.9,320.8l2.3-1.3l-24.5-13.9l-2.2,1.3L141.9,320.8z"/>
<path class="st5" d="M144.2,322.6v-3.1l-2.3,1.3v3.1L144.2,322.6z"/>
<path class="st5" d="M141.9,323.8v-3.1l-24.4-13.9v3.1L141.9,323.8z"/>
<path class="st3" d="M411.5,434c0.5-0.3,0.9-0.9,0.9-1.4s-0.4-0.8-0.9-0.5c-0.5,0.3-0.9,0.9-0.9,1.4
	C410.6,434.2,411,434.3,411.5,434z"/>
<path class="st3" d="M523.6,374.9c0.8-0.4,1.3-1.4,1.3-2.2v-6.2c0-0.8-0.6-1.1-1.3-0.8c-0.8,0.4-1.3,1.4-1.3,2.2v6.2
	C522.2,375,522.8,375.3,523.6,374.9z"/>
<path class="st3" d="M518.2,377.9c0.8-0.4,1.3-1.4,1.3-2.2v-6.2c0-0.8-0.6-1.1-1.3-0.8c-0.8,0.4-1.3,1.4-1.3,2.2v6.2
	C516.9,378,517.5,378.3,518.2,377.9z"/>
<path class="st3" d="M512.9,381c0.8-0.4,1.3-1.4,1.3-2.2v-6.2c0-0.8-0.6-1.1-1.3-0.8c-0.8,0.4-1.3,1.4-1.3,2.2v6.2
	C511.6,381,512.2,381.4,512.9,381z"/>
<path class="st3" d="M507.6,384c0.8-0.4,1.3-1.4,1.3-2.2v-6.2c0-0.8-0.6-1.1-1.3-0.8c-0.8,0.4-1.3,1.4-1.3,2.2v6.2
	C506.3,384,506.8,384.4,507.6,384z"/>
<path class="st3" d="M502.3,387c0.8-0.4,1.3-1.4,1.3-2.2v-6.2c0-0.8-0.6-1.1-1.3-0.8c-0.8,0.4-1.3,1.4-1.3,2.2v6.2
	C500.9,387.1,501.5,387.5,502.3,387z"/>
<path class="st3" d="M496.9,390c0.8-0.4,1.3-1.4,1.3-2.2v-6.2c0-0.8-0.6-1.1-1.3-0.8c-0.8,0.4-1.3,1.4-1.3,2.2v6.2
	C495.6,390.1,496.2,390.5,496.9,390z"/>
<path class="st4" d="M530.7,355.8L398,431.2c-6.3,3.6-14.1,5.2-21.8,5.1V433c5.2,0,10.2-0.9,14.6-2.7c2.6-1,4.5-2.3,6.7-3.6
	c4.4-2.5-9.8,5.7,49.7-28.2c9.7-5.5,19.4-11.2,29.1-16.7c9.7-5.5,19.5-10.9,29.2-16.5c4-2.3,8-4.7,12.1-7c8-4.5,11.8-6.2,14.3-9.7
	c3.2-4.6,2.5-10.7-5.6-15.4c-0.3-0.1-279-158.8-280.3-159.4c-4.4-2.2-10.1-3.3-16.1-3.3v-3.3c3.9,0,7.6,0.4,11.2,1.1
	c3.7,0.8,7.2,2,10.5,3.9l278.6,158.5c2.3,1.3,4.5,2.9,6.2,5.1c1.7,2.2,2.8,5,2.8,7.6c0,0.8-0.1,1.4-0.3,2.2
	C538.5,350.1,534.4,353.7,530.7,355.8z"/>
<path class="st4" d="M251.4,176.9c-3.2-1.8-5-2.9-5.2-2.9c-4.4-2.2-10.1-3.3-16.1-3.3c-2.8,0-5.7,0.3-8.5,0.9
	c-5.7,1.1-8.5,2.9-12.8,5.5c-4,2.4,8-4.6-38.4,21.8l-11.4,6.5c-9.7,5.5-19.4,11.2-29.1,16.7c-2.7,1.5-5.3,3.1-8,4.5
	c-7.1,3.9-14.1,7.9-21.2,12c-4,2.3-8,4.7-12.1,7c-4.8,2.7-9.2,5-11.4,6.7c-5,3.9-6.3,9.5-2.2,14.4c2.3,2.7,4.1,3.4,12.1,8
	l117.9,67.1c73.5,41.9,154.4,87.8,155.1,88.2c4.7,2.2,10.3,3.3,16,3.3c5.2,0,10.2-0.9,14.6-2.7c2.6-1,4.5-2.3,6.7-3.6
	c4.4-2.5-9.8,5.7,49.7-28.2c9.7-5.5,19.4-11.2,29.1-16.7c9.7-5.5,19.5-10.9,29.2-16.5c4-2.3,8-4.7,12.1-7c8-4.5,11.8-6.2,14.3-9.7
	c3.1-4.5,2.6-10.2-4.7-14.8c-0.3-0.3-0.6-0.4-0.9-0.5C526.3,333.3,289.5,198.5,251.4,176.9z"/>
<linearGradient id="SVGID_1_" gradientUnits="userSpaceOnUse" x1="72.4917" y1="230.1637" x2="533.9205" y2="230.1637" gradientTransform="matrix(1 0 0 -1 0 532)">
	<stop  offset="0" style="stop-color:#5FACB1"/>
	<stop  offset="1" style="stop-color:#2B7C56"/>
</linearGradient>
<path class="st6" d="M527.5,333.9c7.2,4.6,7.8,10.3,4.7,14.8c-2.5,3.6-6.2,5.2-14.3,9.7c-4,2.3-8.1,4.6-12.1,7
	c-9.7,5.6-19.4,10.9-29.2,16.5c-9.7,5.5-19.4,11.2-29.1,16.7c-59.7,34-45.5,25.7-49.7,28.2c-2.3,1.4-4.1,2.5-6.7,3.6
	c-9.3,3.8-22.1,3.6-30.7-0.6c-1.3-0.6-237.3-135-273.1-155.2c-8-4.6-9.8-5.3-12.1-8c-4.1-5-2.8-10.4,2.2-14.4
	c2.7-2.2,127.6-72.8,131.5-75.1c4.3-2.5,7.1-4.2,12.8-5.5c8.8-1.9,18.2-0.6,24.7,2.4C246.4,174.1,238.9,169.7,527.5,333.9z"/>
<path class="st7" d="M164.7,209.1c1.2-0.6,3.1-0.6,4.4,0l1.5,0.9l-29.6,16.8c-1.2,0.6-3.1,0.6-4.4,0l-1.5-0.9L164.7,209.1z"/>
<path class="st8" d="M169,206l2.1,1.1c1.2,0.6,1.2,1.8,0,2.4l-0.4,0.3l-1.5-0.9c-1.2-0.6-3.1-0.6-4.4,0l-29.6,16.8l-0.4-0.3
	c-0.6-0.4-0.9-0.8-0.9-1.3s0.3-0.9,0.9-1.3l30-17.1C165.9,205.4,167.8,205.4,169,206z"/>
<g class="st9">
	<path class="st10" d="M194.8,240.6L134.4,275c-1.9,1.1-5.2,1.1-7.1,0c-1.9-1.1-1.9-2.9,0-4.1l60.5-34.4c1.9-1.1,5.2-1.1,7.1,0
		C196.9,237.7,196.9,239.6,194.8,240.6z"/>
	<path class="st10" d="M190.8,259.2l-42.2,24.1c-1.9,1.1-5.2,1.1-7.1,0c-1.9-1.1-1.9-2.9,0-4.1l42.2-24c1.9-1.1,5.2-1.1,7.1,0
		C192.8,256.3,192.8,258.1,190.8,259.2z"/>
	<path class="st10" d="M205,267.2l-42.2,24.1c-1.9,1.1-5.2,1.1-7.1,0c-1.9-1.1-1.9-2.9,0-4.1l42.2-24.1c1.9-1.1,5.2-1.1,7.1,0
		C207,264.3,207,266.1,205,267.2z"/>
</g>
<g class="st9">
	<path class="st10" d="M287.8,298.4l-60.5,34.4c-1.9,1.1-5.2,1.1-7.1,0c-1.9-1.1-1.9-2.9,0-4.1l60.5-34.4c1.9-1.1,5.2-1.1,7.1,0
		C289.8,295.5,289.8,297.4,287.8,298.4z"/>
	<path class="st10" d="M283.7,317l-42.2,24c-1.9,1.1-5.2,1.1-7.1,0c-1.9-1.1-1.9-2.9,0-4.1l42.2-24.1c1.9-1.1,5.2-1.1,7.1,0
		C285.6,314,285.6,315.8,283.7,317z"/>
	<path class="st10" d="M297.9,325l-42.2,24c-1.9,1.1-5.2,1.1-7.1,0c-1.9-1.1-1.9-2.9,0-4.1l42.2-24.1c1.9-1.1,5.2-1.1,7.1,0
		C299.9,322.1,299.9,323.8,297.9,325z"/>
</g>
<g class="st9">
	<path class="st10" d="M411.6,281.9l-60.5,34.4c-1.9,1.1-5.2,1.1-7.1,0c-1.9-1.1-1.9-2.9,0-4.1l60.5-34.4c1.9-1.1,5.2-1.1,7.1,0
		C413.5,278.9,413.5,280.7,411.6,281.9z"/>
	<path class="st10" d="M407.5,300.3l-42.2,24c-1.9,1.1-5.2,1.1-7.1,0c-1.9-1.1-1.9-2.9,0-4.1l42.2-24c1.9-1.1,5.2-1.1,7.1,0
		C409.4,297.4,409.4,299.3,407.5,300.3z"/>
	<path class="st10" d="M421.7,308.4l-42.2,24c-1.9,1.1-5.2,1.1-7.1,0c-1.9-1.1-1.9-2.9,0-4.1l42.2-24.1c1.9-1.1,5.2-1.1,7.1,0
		C423.6,305.5,423.6,307.3,421.7,308.4z"/>
</g>
<g class="st9">
	<path class="st10" d="M398.6,358.3l-60.5,34.4c-1.9,1.1-5.2,1.1-7.1,0c-1.9-1.1-1.9-2.9,0-4.1l60.5-34.4c1.9-1.1,5.2-1.1,7.1,0
		C400.5,355.4,400.5,357.3,398.6,358.3z"/>
	<path class="st10" d="M394.5,376.9l-42.2,23.9c-1.9,1.1-5.2,1.1-7.1,0c-1.9-1.1-1.9-2.9,0-4.1l42.2-24.1c1.9-1.1,5.2-1.1,7.1,0
		C396.5,374,396.5,375.8,394.5,376.9z"/>
	<path class="st10" d="M408.8,384.9l-42.2,24c-1.9,1.1-5.2,1.1-7.1,0c-1.9-1.1-1.9-2.9,0-4.1l42.2-24c1.9-1.1,5.2-1.1,7.1,0
		C410.7,382,410.7,383.8,408.8,384.9z"/>
</g>
<g class="st9">
	<path class="st11" d="M312.8,223.7l-60.5,34.4c-1.9,1.1-5.2,1.1-7.1,0c-1.9-1.1-1.9-2.9,0-4.1l60.5-34.4c1.9-1.1,5.2-1.1,7.1,0
		C314.7,220.8,314.7,222.6,312.8,223.7z"/>
	<path class="st11" d="M308.8,242.1l-42.2,24.1c-1.9,1.1-5.2,1.1-7.1,0c-1.9-1.1-1.9-2.9,0-4.1l42.2-24c1.9-1.1,5.2-1.1,7.1,0
		C310.7,239.2,310.7,241,308.8,242.1z"/>
	<path class="st11" d="M323,250.3l-42.2,24c-1.9,1.1-5.2,1.1-7.1,0c-1.9-1.1-1.9-2.9,0-4.1l42.2-24.1c1.9-1.1,5.2-1.1,7.1,0
		C324.9,247.4,324.9,249.1,323,250.3z"/>
</g>
<path class="st12" d="M132.7,86.4c0,11.1,0,22,0,33.1c0,11.6-8.3,25.7-18.3,31.4c-1.4,0.8-2.8,1.7-4.3,2.4l-10.2,24.3L89.7,165
	c-1.4,0.8-2.8,1.7-4.3,2.4c-0.4,0.3-0.8,0.5-1.3,0.6c-4.7,2.3-8.8,2.4-11.8,0.6c-0.1,0-0.1-0.1-0.3-0.1c-3.2-1.9-5.2-6-5.2-11.6
	c0-11.1,0-22,0-33.1c0-11.6,8.3-25.7,18.5-31.4c9.7-5.5,19.4-11.1,29.1-16.5c5-2.8,9.6-3.2,12.8-1.4c0,0,0.1,0.1,0.3,0.1
	C130.6,76.5,132.7,80.5,132.7,86.4z"/>
<path class="st13" d="M57.4,160.2c-3.4-1.9-5.4-6-5.4-11.7c0-11.1,0-22,0-33.1c0-11.6,8.3-25.7,18.3-31.4
	c9.7-5.5,19.4-11.1,29.1-16.5c5-2.9,9.7-3.2,13-1.3c4.9,2.8,9.8,5.6,14.7,8.4c-3.4-1.8-7.9-1.4-12.8,1.4C104.7,81.4,95,87,85.3,92.5
	c-10.2,5.7-18.5,19.7-18.5,31.3c0,11.1,0,22,0,33.1c0,5.6,1.9,9.7,5.2,11.6C67.1,165.7,62.3,162.9,57.4,160.2z"/>
<path class="st12" d="M89.6,164.9l10.2,12.6L84.9,169l-0.8-1c0.4-0.3,0.8-0.4,1.3-0.6C86.7,166.6,88.1,165.8,89.6,164.9z"/>
<path class="st14" d="M110.1,109.4c-3.9-3.4-11.5-0.8-17.1,6.1c-5.6,6.7-6.8,15.1-2.8,18.6c3.4,2.9,9.6,1.3,14.7-3.6l7.1,6.2
	c0.8,0.8,2.5,0.1,3.6-1.4c1.2-1.5,1.5-3.2,0.6-3.9l-7.1-6.2C113,118.9,113.6,112.3,110.1,109.4z M105.6,126.4
	c-4.1,5.2-9.9,7.3-12.9,4.6c-3-2.5-1.9-8.9,2.2-14.1c4.1-5.2,9.9-7.3,12.9-4.6C110.8,115,109.7,121.2,105.6,126.4z"/>
<path class="st13" d="M67.6,211.5l1.6,2.3c0.1,0.1,0.4,0.3,0.6,0.1l3.6-1.5c0.8-0.3,1,0.4,0.5,1.3l-2.6,3.9
	c-0.3,0.4-0.3,0.6-0.3,0.9l0.6,3.2c0.1,0.6-0.6,1.7-1.3,1.7l-3.2,0.1c-0.3,0-0.5,0.3-0.9,0.5l-3.2,3.4c-0.6,0.8-1.4,0.6-1.3-0.3
	l0.6-3.8c0-0.3,0-0.5-0.3-0.6l-2.6-1c-0.5-0.3-0.3-1.3,0.5-1.8l3.6-2.5c0.3-0.3,0.5-0.5,0.6-0.9l1.6-4.1
	C66.3,211.5,67.3,211,67.6,211.5z"/>
<path class="st13" d="M85.9,201.1l1.6,2.3c0.1,0.1,0.4,0.3,0.6,0.1l3.6-1.5c0.8-0.3,1,0.4,0.5,1.3l-2.6,3.9
	c-0.3,0.4-0.3,0.6-0.3,0.9l0.6,3.2c0.1,0.6-0.6,1.7-1.3,1.7l-3.2,0.1c-0.3,0-0.5,0.3-0.9,0.5l-3.2,3.4c-0.6,0.8-1.4,0.6-1.3-0.3
	l0.6-3.8c0-0.3,0-0.5-0.3-0.6l-2.6-1c-0.5-0.3-0.3-1.3,0.5-1.8l3.6-2.5c0.3-0.3,0.5-0.5,0.6-0.9l1.6-4.1
	C84.6,201.2,85.5,200.7,85.9,201.1z"/>
<path class="st13" d="M104.2,190.7l1.5,2.3c0.1,0.1,0.4,0.3,0.6,0.1l3.6-1.5c0.8-0.3,1,0.4,0.5,1.3l-2.6,3.9
	c-0.3,0.4-0.3,0.6-0.3,0.9l0.6,3.2c0.1,0.6-0.6,1.7-1.3,1.7l-3.2,0.1c-0.3,0-0.5,0.3-0.9,0.5l-3.2,3.4c-0.6,0.8-1.4,0.6-1.3-0.3
	l0.6-3.8c0-0.4,0-0.5-0.3-0.6l-2.6-1c-0.5-0.3-0.3-1.3,0.5-1.8l3.6-2.5c0.3-0.3,0.5-0.5,0.6-0.9l1.6-4.1
	C102.9,190.7,103.8,190.2,104.2,190.7z"/>
<path class="st12" d="M122.4,180.3l1.6,2.3c0.1,0.1,0.4,0.3,0.6,0.1l3.6-1.5c0.8-0.3,1,0.4,0.5,1.3l-2.6,3.9
	c-0.3,0.4-0.3,0.6-0.3,0.9l0.6,3.2c0.1,0.6-0.6,1.7-1.3,1.7l-3.2,0.1c-0.3,0-0.5,0.3-0.9,0.5l-3.2,3.4c-0.6,0.8-1.4,0.6-1.3-0.3
	l0.6-3.8c0-0.3,0-0.5-0.3-0.6l-2.6-1c-0.5-0.3-0.3-1.3,0.5-1.8l3.6-2.5c0.3-0.3,0.5-0.5,0.6-0.9l1.6-4.1
	C121.1,180.4,122,179.9,122.4,180.3z"/>
<path class="st12" d="M140.6,170l1.6,2.3c0.1,0.1,0.4,0.3,0.6,0.1l3.6-1.5c0.8-0.3,1,0.4,0.5,1.3l-2.6,3.9c-0.3,0.4-0.3,0.6-0.3,0.9
	l0.6,3.2c0.1,0.6-0.6,1.7-1.3,1.7l-3.2,0.1c-0.3,0-0.5,0.3-0.9,0.5l-3.2,3.4c-0.6,0.8-1.4,0.6-1.3-0.3l0.6-3.8c0-0.3,0-0.5-0.3-0.6
	l-2.6-1c-0.5-0.3-0.3-1.3,0.5-1.8l3.6-2.5c0.3-0.3,0.5-0.5,0.6-0.9l1.5-4.1C139.3,170,140.2,169.5,140.6,170z"/>
<path class="st13" d="M335.6,30.3c0,9.2,0,18.2,0,27.4c0,9.5,6.8,21.3,15.2,26c1.2,0.6,2.3,1.4,3.6,2l8.4,20.1l8.4-10.4
	c1.2,0.6,2.3,1.4,3.6,2c0.4,0.3,0.6,0.4,1,0.5c3.7,1.9,7.2,1.9,9.7,0.5c0.1,0,0.1-0.1,0.3-0.1c2.6-1.7,4.3-5,4.3-9.5
	c0-9.2,0-18.2,0-27.4c0-9.5-6.8-21.3-15.2-26c-8-4.6-16-9.2-24-13.6c-4.1-2.3-7.9-2.7-10.6-1.1c0,0-0.1,0-0.1,0.1
	C337.4,22.1,335.6,25.4,335.6,30.3z"/>
<path class="st12" d="M398,91.2c2.7-1.5,4.5-5,4.5-9.7c0-9.2,0-18.2,0-27.4c0-9.5-6.8-21.3-15.2-26c-8-4.6-16-9.2-24-13.6
	c-4.3-2.4-8-2.7-10.7-1c-4.1,2.3-8.1,4.6-12.1,7c2.7-1.5,6.5-1.1,10.6,1.1c8,4.6,16,9.2,24,13.6c8.4,4.8,15.2,16.4,15.2,26
	c0,9.2,0,18.2,0,27.4c0,4.7-1.7,8-4.3,9.5C389.9,95.8,394,93.5,398,91.2z"/>
<path class="st12" d="M371.4,95.2l-8.4,10.4l12.4-7l0.6-0.9c-0.4-0.1-0.6-0.4-1-0.5C373.7,96.6,372.6,95.9,371.4,95.2z"/>
<path class="st14" d="M361,48.7c-0.3-0.1-0.5-0.3-0.6-0.1l-0.6,0.3l-3.9-2.2c-1.5-0.9-2.7-0.5-3,0.9l-0.4,2.2l2.1,1.1l0.3-1.9
	c0.1-0.4,0.5-0.5,1-0.3l4.3,2.4c0.3,0.1,0.5,0.3,0.6,0.1l0.6-0.4l3.2,1.8l0.6,1.1c0.1,0.3,0.4,0.5,0.6,0.6l4.3,2.4
	c0.5,0.3,0.9,0.9,1,1.4l0.3,2.3l2.1,1.1l-0.4-2.5c-0.3-1.5-1.5-3.4-3-4.2l-3.9-2.2l-0.6-1.1c-0.1-0.3-0.4-0.5-0.6-0.6L361,48.7z
	 M350.9,50.9c-0.5-0.3-1-0.1-1,0.4v2c0,0.5,0.4,1.3,1,1.5L351,55l1.6,10.1c0.1,1,1,2.2,1.9,2.8l16.7,9.4c1,0.5,1.8,0.4,1.9-0.5
	l1.6-8.3l0.1,0.1c0.5,0.3,1,0.1,1-0.4v-2c0-0.5-0.4-1.3-1-1.5L350.9,50.9z M367.9,65.5c0.5,0.3,1,1,1,1.5v5c0,0.5-0.4,0.8-1,0.4
	c-0.5-0.3-1-1-1-1.5v-5C366.9,65.4,367.4,65.2,367.9,65.5z M362.9,62.6c0.5,0.3,1,1,1,1.5v5c0,0.5-0.4,0.8-1,0.4c-0.5-0.3-1-1-1-1.5
	v-5C361.9,62.5,362.4,62.4,362.9,62.6z M357.9,59.8c0.5,0.3,1,1,1,1.5v5c0,0.5-0.4,0.8-1,0.4c-0.5-0.3-1-1-1-1.5v-5
	C357,59.7,357.3,59.6,357.9,59.8z"/>
<path class="st15" d="M420.6,333.9l-63.8,36.3c-6.3,3.6-16.5,3.6-22.9,0l-117.3-66.7c-6.3-3.6-6.3-9.4,0-13l63.8-36.3
	c6.3-3.6,16.5-3.6,22.9,0l117.3,66.7C427,324.5,427,330.3,420.6,333.9z"/>
<path class="st16" d="M439.6,368.5c-1.6-2.7-5.7-4.5-8.8-5.1c-4-0.8-8-0.1-10.9,1.5c-2.2,1.3-3.4,2.7-3.4,4.3c0,0.6,0,1.3,0,1.9
	c0,2.2,2.2,3.9,4.1,5c2.7,1.5,6.7,2.5,10.7,1.9c3-0.4,6.8-1.9,8.1-4.6c0.3-0.5,0.4-1,0.4-1.5c0-0.6,0-1.3,0-1.9
	C440.1,369.8,440,369.1,439.6,368.5z M430.6,361.3l16.3,9.3l1.9-1.1v-1.9l-4-2.3l9.4,1.1l2.5-1.4V363l-12.3-1.4
	c0.1-3.8,0.1-2.7,0.1-5.1l-2.6,1.5c0,2.3,0,1.1,0,5.3l-9.3-5.2l-1.9,1.1v1.9H430.6z M464.4,381.4c-11.8,7.6-29.8,8.9-43.7,5.3
	c-6.7-1.8-14.2-5.1-18.5-10.4c-4.7-5.9-4.4-12.3,0-17.8c10.7-13.4,41.9-16.7,60.5-6.2c2.8,1.7,5.6,3.6,7.5,6.1
	C476.7,366.6,473.3,375.5,464.4,381.4z"/>
<path class="st17" d="M390.7,365.2c2.1,2.5,4.7,4.6,7.5,6.1c12.8,7.3,31.6,8,45.7,3.2c5.4-1.9,11.1-5,14.6-9.3
	c2.1-2.5,3.4-5.5,3.4-8.9c0,3.2,0,6.4,0,9.5c0,7.8-7.1,13.5-14.2,16.7c-13.6,6.1-32.8,6.1-46.4,0c-7.1-3.2-14.2-8.9-14.2-16.7
	c0-3.2,0-6.4,0-9.5C387.2,359.6,388.6,362.7,390.7,365.2z"/>
<path class="st18" d="M445.1,352v1.9l-2.5,1.4v-1.9L445.1,352z"/>
<path class="st18" d="M442.6,353.4v1.9l-9.4-1.1l-0.5-0.4v-1.5L442.6,353.4z"/>
<path class="st18" d="M437.2,356.4v1.9l-1.9,1.1v-1.9L437.2,356.4z"/>
<path class="st18" d="M435.2,357.6v1.9l-16.3-9.3v-1.9L435.2,357.6z"/>
<path class="st19" d="M437.2,356.4l-1.9,1.1l-16.3-9.3l1.9-1.1l9.3,5.2c0,0,0,0.4,0-5.3l2.6-1.5l-0.1,5.1c1,0.1-3.5-0.4,12.4,1.4
	l-2.5,1.4l-9.9-1.3v1.5C432.7,353.9,432.9,354,437.2,356.4z"/>
<path class="st20" d="M428,357.4c-1.6-2.7-5.7-4.5-8.8-5.1c-4-0.8-8-0.1-10.9,1.5c-2.2,1.3-3.4,2.7-3.4,4.3c0,0.6,0,1.3,0,1.9
	c0,2.2,2.2,3.9,4.1,5c2.7,1.5,6.7,2.5,10.7,1.9c3-0.4,6.8-1.9,8.1-4.6c0.3-0.5,0.4-1,0.4-1.5c0-0.6,0-1.3,0-1.9
	C428.5,358.7,428.4,358.1,428,357.4z M419,350.2l16.3,9.3l1.9-1.1v-1.9l-4-2.3l9.4,1.1l2.5-1.4V352l-12.3-1.4
	c0.1-3.8,0.1-2.7,0.1-5.1l-2.6,1.5c0,2.3,0,1.1,0,5.3l-9.3-5.2l-1.9,1.1v1.9H419z M452.7,370.3c-11.8,7.6-29.8,8.9-43.7,5.3
	c-6.7-1.8-14.2-5.1-18.5-10.4c-4.7-5.9-4.4-12.3,0-17.8c10.7-13.4,41.9-16.7,60.5-6.2c2.8,1.7,5.6,3.6,7.5,6.1
	C465.1,355.5,461.7,364.3,452.7,370.3z"/>
<path class="st19" d="M425.7,359.6c0.1-1.8-1.8-3.1-3.2-3.9c-4.4-2.5-9.2-2.3-12.1-0.6c-1.5,0.9-2.3,1.9-2.3,3.2
	c-0.1,1.7,2.2,3.1,3.6,3.9c4.1,2.3,8.8,2.2,11.9,0.4C424.5,361.9,425.5,361,425.7,359.6z M428.5,359.2c0,1.8-1.7,3.4-3.4,4.3
	c-4.7,2.7-11.4,2.4-16-0.3c-1.9-1.1-4.1-2.8-4.1-5c0-1.7,1.2-3.1,3.4-4.3c4.5-2.5,11-2.5,16.1,0.4
	C426.5,355.4,428.5,357.2,428.5,359.2z"/>
<path class="st20" d="M422.3,357.6c1.7,1,2.7,1.9,3.1,2.9c-1,2.8-7.9,5.2-14,1.7c-1.8-1-3-2-3.4-3.1
	C409.1,356.3,415.9,353.7,422.3,357.6z"/>
<path class="st18" d="M425.7,359.3c0,0.4,0,0.8-0.1,1.1c-0.4-1-1.4-1.9-3.1-2.9c-6.5-3.7-13.2-1.3-14.3,1.7
	c-0.1-0.3-0.3-0.6-0.3-0.9c0-1.3,0.8-2.3,2.3-3.2c3-1.7,7.8-1.9,12.1,0.6C424.5,356.8,425.5,358.1,425.7,359.3z"/>
<path class="st18" d="M409.3,363.4c4.5,2.5,11.2,2.9,16,0.3c1.7-0.9,3.4-2.5,3.4-4.3c0,0.6,0,1.3,0,1.9c0,0.5-0.1,1-0.4,1.5
	c-1.3,2.7-5.2,4.1-8.1,4.6c-4,0.5-8-0.4-10.7-1.9c-1.9-1.1-4.1-2.8-4.1-5c0-0.6,0-1.3,0-1.9C405,360.6,407.3,362.3,409.3,363.4z"/>
<path class="st21" d="M299.6,227.6l36.8-22l-4.1-1.8l-37.3,21.3L299.6,227.6z"/>
<path class="st21" d="M278.9,215.2l36.9-22l-4.3-1.8l-37.3,21.3L278.9,215.2z"/>
<path class="st22" d="M246.1,175.6l3,21.6l18.6-9.3L246.1,175.6z"/>
<path class="st22" d="M237.9,101.7v60.6c1.7,0.9,37.1,21,37.1,21l13.8-7.4l1-60.3v-27V80v-7.9L237.9,101.7z"/>
<path class="st21" d="M235.4,19.5c5.6,3.9,10.5,11.2,12.1,18.5c2.3,9.5,4.8,19.1,7.1,28.5l5.8-3.3c-2.2-8.9-4.4-17.8-6.6-26.7
	c-2.1-8.5-7.8-17.2-14.6-22.1c-3.7-2.7-7.4-5.3-11.1-8c-9.7-7.1-26.1-8.4-36.2-2.5c-8.3,4.7-16.7,9.4-24.9,14.3
	c-8.3,4.7-16.7,9.4-24.9,14.3c-5.2,2.8-8.8,7.8-8.4,13.5c0.3,5.2,3.7,9.8,8,12.9c3.7,2.7,7.4,5.3,11.1,8
	c5.4,3.9,10.3,11.2,12.1,18.5c3,12.1,5.9,24.2,9,36.3h0.3c0.8,0,1.9,0.3,2.7,0.4c1,0.3,1.9,0.5,2.5,0.4c0.8-0.3,1-1.5,0.9-2.4
	c-0.1-0.6-0.3-1.3-0.5-1.9c-2.8-11.5-5.7-22.8-8.5-34.2c-2.1-8.5-7.8-17.2-14.6-22.1c-3.7-2.7-7.4-5.3-11.1-8
	c-3.2-2.3-6.1-5.9-5.2-9.7c0.5-2.5,2.7-4.7,5-6c8.3-4.7,16.7-9.4,24.9-14.3c8.3-4.7,16.7-9.4,24.9-14.3c7.6-4.5,21.2-3.6,29.1,2.2
	C228,14.1,231.8,16.8,235.4,19.5z"/>
<path class="st21" d="M196.5,116.6c-1.3,0.8-2.6,1.5-3.9,2.2c0.8,6.4,1.5,12.7,2.2,19c1.4,0.9,3,1.7,4.4,2.5
	C198.3,132.5,197.4,124.6,196.5,116.6z"/>
<path class="st21" d="M204.1,179.7c-1.6-0.9-3.1-1.8-4.5-2.5c0.9,3.7,3,7.3,5.6,9.9C204.8,184.5,204.4,182.1,204.1,179.7z"/>
<path class="st21" d="M215.2,134.6c-4.4,2.4-8.7,5-13,7.4c2.5,1.4,5,2.8,7.5,4.3c1.8-1,3.6-2,5.6-3.2V134.6z"/>
<path class="st21" d="M202.3,166.8c-0.6-5-1.4-10.1-2.1-15c-1.2,0.6-2.5,1.4-3.6,2c0.5,4.7,1.2,9.3,1.7,14c1.6,0.9,3,1.7,4.5,2.5
	C202.7,169.1,202.6,168,202.3,166.8z"/>
<path class="st21" d="M210.9,198.9c0.1,0.8,0.4,1.7,0.9,2.2c0.8,0.8,2.1,0.6,3.2,0.1c5.8-3.2,4.3-2.3,7.1-3.9
	c-4.1-2.3-8.3-4.7-12.4-7C210.1,193,210.5,196,210.9,198.9z M242.8,204.4v0.5l3.5,1.9c0.3,1.5,0.4,2.9,0.6,4.5
	c-6.8-3.9-13.8-7.9-20.7-11.7c-1.6,0.9-3.1,1.8-4.7,2.7c-1,0.8-5.3,2.9-6.6,3.2c-0.3,0-0.5,0.1-0.8,0.1c-4,0.5-7-2-7.5-6.2
	c-0.5-4.2-1.2-8.3-1.7-12.5c-0.4-2.4-0.6-4.8-1-7.3c1.6,0.9,3,1.7,4.5,2.5c0.1,0.9,0.3,1.8,0.4,2.8c0.5,0.4,0.9,0.8,1.4,1
	c5.3,3.1,10.5,6,15.8,8.9c0.8-0.5,1.6-0.9,2.5-1.4c1.4,0.8,2.7,1.5,4.1,2.3c-0.8,0.5-1.6,0.9-2.5,1.4
	C234.5,199.6,238.6,201.9,242.8,204.4z"/>
<path class="st21" d="M204.3,175.1c0.8,0.3,1.9-0.3,2.6-0.8c0.4-0.3,0.6-0.5,0.6-0.9c0-0.1,0-0.4-0.1-0.5c-0.9-7-1.9-14-2.8-21
	c-1.5-0.9-3-1.7-4.5-2.5c0.1,0.8,0.3,1.5,0.3,2.4c0.6,5,1.4,10.1,2.1,15c0.1,1.1,0.3,2.4,0.5,3.6c0.1,1.1,0.4,2.4,0.5,3.6
	c0,0,0,0,0,0.1C203.5,174.5,203.7,175,204.3,175.1z"/>
<path class="st23" d="M215.2,158v19.5c7.5,4.3,15,8.5,22.6,12.9v-19.5C230.4,166.6,222.9,162.2,215.2,158z"/>
<path class="st23" d="M215.2,143.3v6.2c7.5,4.3,15,8.5,22.6,12.9v-60.7l-22.6-12.9v8.5v8.5v28.8V143.3z"/>
<path class="st23" d="M215.2,88.8l22.6,12.9l51.9-29.5l-22.5-12.9l-6.7,3.8l-5.9,3.3L215.2,88.8z"/>
<path class="st23" d="M217.8,88.8l49.5-28l19.9,11.3l-49.3,28L217.8,88.8z"/>
<path class="st24" d="M222.1,303.4c1.7-0.9,3.4-1.9,4.9-2.8c0.8-0.4,1.4-1.1,1.8-1.9c1.3-2.2,1.2-5.2,0.5-7.6c-1.8-1-3.6-2-5.6-3.2
	l0.1,4.8C225.6,298,224.5,301.8,222.1,303.4z"/>
<path class="st25" d="M205.7,286.6c0,5.7,3.9,12.7,8.9,15.9c3,1.9,5.7,2,7.5,0.9c2.5-1.5,3.5-5.3,1.9-10.6l0.1,3.9l-0.8,0.5
	l-17.1-9.7l-0.1-4.3C205.8,284.3,205.7,285.4,205.7,286.6z"/>
<path class="st22" d="M225.1,282.6c0.6-0.8,1.8-1.5,2.7-1.5c0.3,0,0.5,0.1,0.8,0.3c-5.7-3.2-11.4-6.5-17.1-9.7
	c-0.5-0.3-1.3-0.3-1.8,0c-0.1,0-0.3,0.1-0.4,0.1c-1.7,0.9-3.4,3.4-3.4,5.6v0.4l0.1,5.3l0.1,4.3l17.1,9.7l-0.1-10.1
	C223.1,285.5,224,283.8,225.1,282.6z"/>
<path class="st26" d="M227.9,281.1c-1,0-2.1,0.8-2.7,1.5c-1,1.1-1.9,2.9-1.9,4.6l0.1,10.1l0.8-0.5l-0.1-3.9l-0.1-4.8v-1.9
	c0.1-0.5,0.1-0.8,0.4-1.4c0.5-1.1,1.4-2.3,2.6-2.7c0.8-0.3,1.2,0,1.3,0c0.5,0.3,0.9,0.5,1.4,0.8c0-0.5-0.3-0.9-0.5-1.3
	c-0.1-0.1-0.3-0.3-0.4-0.4C228.4,281.2,228.2,281.1,227.9,281.1z"/>
<path class="st22" d="M237.9,170.9v19.5c1.7,0.9,3.2,1.9,4.9,2.8v-11.7c-0.4-2.8-0.8-5.5-1.2-8.3
	C240.4,172.3,239.1,171.5,237.9,170.9z"/>
<path class="st22" d="M242.8,181.3V193c0.5,0.4,1.2,0.6,1.7,1C243.9,189.9,243.4,185.5,242.8,181.3z"/>
<path class="st22" d="M272,245.7v4.5l17.1,9.7v-10.2c-1.5-1-2.6-2.8-2.5-5.2c0-1.8,0-3.4,0-5.2c-3-1.7-5.9-3.4-9-5.1
	c-0.5-0.3-1.3-0.3-1.8,0c-0.1,0-0.3,0.1-0.4,0.1c-1.7,0.8-3.4,3.4-3.4,5.6v0.5V245.7z"/>
<path class="st21" d="M253.5,224.7c1,1,2.8,0.4,4.1-0.3c1.9-1.1,4.4-2.4,6.2-3.6c-4.1-2.3-8.3-4.7-12.4-7c0.4,2.9,0.8,5.7,1.2,8.7
	C252.6,223.3,252.8,224.2,253.5,224.7z M272.5,221.2c4.7,2.7,9.4,5.3,14.1,8c0,1.5,0,3.1,0,4.7c-6.2-3.6-12.4-7.1-18.6-10.6
	c-2.7,1.5-5.6,3.2-8.3,4.7c-5.4,3.2-10.5,0.6-11.1-4.8c-0.5-3.9-1-7.9-1.6-11.7c-0.3-1.5-0.4-2.9-0.6-4.5c-0.1-1.1-0.3-2.4-0.5-3.6
	c1.6,0.9,3,1.7,4.5,2.5c0.1,1.1,0.3,2.4,0.5,3.6l21.2,12.1L272.5,221.2z"/>
<path class="st24" d="M292.8,263.3c0.8-0.4,1.3-1,1.7-1.8c1.4-2.2,1.2-5.5,0.6-7.9c-1.8-1-3.6-2-5.3-3.1v5c1.5,5.2,0.5,9.2-2.1,10.6
	C289.4,265.2,291.1,264.2,292.8,263.3z"/>
<path class="st26" d="M289.8,250c-0.3-0.1-0.5-0.3-0.8-0.4v10.2l0.8-0.4v-3.9v-5V250z"/>
<path class="st25" d="M289.8,259.5l-0.8,0.4l-17.1-9.7v-4.5c-0.4,1-0.6,2.3-0.6,3.4c0,5.7,3.9,12.7,8.9,15.9c3,1.9,5.6,2,7.4,1
	c2.6-1.4,3.6-5.3,2.1-10.6v3.9H289.8z"/>
<path class="st22" d="M294.6,243.9c-1.3-0.8-2.6-1.5-3.9-2.3c0,0.9,0,1.9,0,2.8c0,0,0,0,0,0.1c0,0.3,0,0.5,0.1,0.9
	c0.6-0.8,1.4-1.4,2.3-1.7C293.5,243.7,294,243.7,294.6,243.9z"/>
<path class="st21" d="M294.2,244.7c-0.4-0.3-0.8-0.3-1.2-0.1c-0.8,0.3-1.5,0.8-1.9,1.4l0.1,0.1c0.1,0.1,0.3,0.3,0.6,0.3
	c0.9,0.1,2.1-0.5,3-0.9c0.1-0.1,0.3-0.1,0.4-0.3C294.7,245.1,294.4,244.9,294.2,244.7z"/>
<path class="st21" d="M294,327.5c0-2.2,1.7-4.8,3.4-5.6c0.1,0,0.3-0.1,0.4-0.1c-22.7-13-45.5-25.8-68.1-38.8
	c-0.5-0.3-0.9-0.5-1.4-0.8c-0.3-0.1-0.5-0.3-1.3,0c-1.2,0.4-2.1,1.7-2.6,2.7c-0.3,0.5-0.3,0.8-0.4,1.4v1.9c1.8,1,3.6,2,5.6,3.2
	c21.6,12.2,43.1,24.6,64.7,36.8L294,327.5z"/>
<path class="st21" d="M286.4,244.4c0-1.8,0-3.4,0-5.2c0-1.8,0-3.7,0-5.5c0-1.5,0-3.1,0-4.7c0-0.9,0-1.8,0-2.7
	c1.4,0.8,2.7,1.5,4.1,2.3c0,0.9,0,1.8,0,2.7c4.8,2.7,9.6,5.5,14.3,8.1c0.8-0.5,1.6-0.9,2.5-1.4c1.5,0.8,3.2,1.4,5,1.8
	c-1.2,0.6-2.2,1.3-3.4,1.9c6.1,3.4,12.3,7,18.3,10.4c1.3,0.8,3.1,1.3,4.1,0.3c0.5-0.5,0.8-1.4,0.9-2.2c0.3-2.4,0.6-4.7,1-7.1
	c0.4-3.2,0.9-6.4,1.3-9.5c1.6-0.9,3-1.7,4.5-2.5c-0.5,3.9-1,7.9-1.5,11.7c-0.4,2.7-0.8,5.3-1,8c-0.8,5.6-5.8,7.9-11.1,4.8
	c-6.8-3.8-13.6-7.8-20.4-11.6c-1.9,1.1-3.9,2.2-5.8,3.3c-0.8,0.5-1.7,0.9-2.5,1.4c-2.7,1.5-5,1.8-6.8,1c-0.3-0.1-0.5-0.3-0.8-0.4
	C287.5,248.8,286.4,246.9,286.4,244.4z M295.3,245.1c1.8-1,3.6-2,5.4-3.1c-3.4-1.9-6.8-3.8-10.2-5.9c0,1.8,0,3.7,0,5.5
	c0,0.9,0,1.9,0,2.8c0,0,0,0,0,0.1c0,0.3,0,0.5,0.1,0.9c0,0.3,0.1,0.4,0.3,0.5l0.1,0.1c0.1,0.1,0.3,0.3,0.6,0.3
	c0.9,0.1,2.1-0.5,3-0.9c0.1-0.1,0.3-0.1,0.4-0.3C295.1,245.2,295.2,245.1,295.3,245.1z"/>
<path class="st26" d="M290.9,246c0.5-0.6,1.2-1.3,1.9-1.4c0.4-0.1,0.9-0.1,1.2,0.1c0.3,0.1,0.6,0.4,0.9,0.5c0.1-0.1,0.3-0.1,0.4-0.3
	c-0.1-0.5-0.4-0.9-0.8-1.1c-0.4-0.3-0.9-0.3-1.4-0.1c-0.9,0.3-1.8,1-2.3,1.7C290.7,245.7,290.8,245.8,290.9,246z"/>
<path class="st21" d="M297.5,93c-0.8,6.5-5.3,50-6.1,56.5l3.7,2.3c0.5-5,5.7-51.7,6.2-56.6C300.1,94.4,298.8,93.7,297.5,93z"/>
<path class="st24" d="M310.3,353.7c1.7-1,3.4-1.9,5-2.9c2.1-1.1,2.8-3.7,2.8-6.1c0-1.9-0.4-3.7-1-5.5c-1.7-0.1-3.5-0.5-5.3-1.3
	l0.1,3.9c0.6,1.8,1.2,3.9,1.2,5.9C313.2,350.8,312,352.7,310.3,353.7z"/>
<path class="st25" d="M294.2,334.8c-1.2,6.2,3.6,15.3,9.8,18.6c1.2,0.6,2.3,1,3.6,1c0.9,0,1.8-0.3,2.6-0.6c1.7-0.9,2.8-2.9,2.8-6.1
	c0-1.9-0.5-4.1-1.2-5.9l0.1,5l-0.8,0.5l-17.1-9.7V334.8z"/>
<path class="st21" d="M311.9,338c1.8,0.8,3.6,1.3,5.3,1.3c6.6,0.4,11.6-4.7,11.5-12.9c0-0.1,0-0.3,0-0.5c0-8-4.8-17.3-11-22.6
	c-29.2-25.6-58.5-51.2-87.7-76.6c-5.2-4.5-8.5-11.8-8.5-17.2c0-2.4,0-4.8,0-7.3c-1,0.8-5.3,2.9-6.6,3.2c-0.3,0-0.5,0.1-0.8,0.1
	c0,1.3,0,2.5,0,3.9c0,7.5,4.3,16.8,11,22.7c29.2,25.6,58.5,51.2,87.7,76.6c5,4.3,8.5,11.7,8.5,17.2c0,0.1,0,0.4,0,0.5
	c0,2.2-0.5,5-2.7,5.5c-0.4,0.1-0.9,0.1-1.4,0.1c-0.5,0-1.2-0.3-1.6-0.4c-2.1,0.9-3.4,2.4-3.7,4.2c-0.1,0.3-0.1,0.6-0.1,0.9
	L311.9,338z"/>
<path class="st26" d="M317.3,332c-0.1-0.3-0.4-0.5-0.6-0.6c-0.1,0-0.1-0.1-0.3-0.1c-0.5-0.1-1.2,0-1.7,0.1c-0.9,0.4-1.6,1.1-2.2,1.9
	c-0.8,1.1-1.4,2.5-1.4,3.9l0.1,10.1l0.8-0.5l-0.1-5l-0.1-3.9v-1.1c0-0.3,0-0.6,0.1-0.9c0.4-1.8,1.7-3.3,3.7-4.2
	C316.3,331.9,316.8,332,317.3,332z"/>
<path class="st22" d="M316.4,331.2c0.1,0,0.3,0.1,0.3,0.1c-5.7-3.2-11.4-6.5-17.1-9.7c-0.5-0.3-1.3-0.3-1.8,0
	c-0.1,0-0.3,0.1-0.4,0.1c-1.7,0.9-3.4,3.4-3.4,5.6v0.4l0.1,6.9v2.8l17.1,9.7l-0.1-10.1c0-1.4,0.6-2.8,1.4-3.9
	c0.5-0.8,1.3-1.5,2.2-1.9C315.2,331.2,315.9,331,316.4,331.2z"/>
<path class="st21" d="M336,146.3c-0.1-0.3-0.3-0.5-0.3-0.8c0.1-0.6,0.1-1.3,0.3-1.9c-1.8-1-38.6-20.4-40.4-21.4v5.6l32.8,18.1
	c2.1,0,6.5,0.9,8.5,1.1v-0.3C336.7,146.7,336.3,146.6,336,146.3z"/>
<path class="st21" d="M337.1,147c3.2,0.4,6.3,1.1,9.2,2.4c-2.1-1.1-4.3-2.4-6.3-3.6v0.1c0,0,0,0.1-0.1,0.1c-0.1,0.1-0.3,0.1-0.4,0.3
	c-0.6,0.3-1.5,0.5-2.2,0.5L337.1,147z"/>
<path class="st21" d="M339.9,145.8c1-9,2.1-17.9,3.1-27c-1.3-0.8-2.6-1.5-3.9-2.2c-1,9-2.1,17.9-3.1,27c-0.1,0.6-0.1,1.3-0.3,1.9
	c0,0.3,0,0.5,0.3,0.8c0.3,0.3,0.6,0.5,1,0.5c0.8,0,1.7-0.3,2.2-0.5c0.1,0,0.3-0.1,0.4-0.3c0.1,0,0.1-0.1,0.1-0.1
	C339.9,145.8,339.9,145.8,339.9,145.8z"/>
<path class="st21" d="M356.8,210.1c0,0.9,0,1.7,0,2.5c1.2-0.6,2.5-1.4,3.6-2c0.1-0.9,0.3-1.9,0.4-2.8
	C359.5,208.6,358.2,209.3,356.8,210.1z"/>
<path class="st21" d="M359.9,290c0-2.2,1.7-4.7,3.4-5.6c0.1,0,0.3-0.1,0.4-0.1c-21.4-12.2-43-24.4-64.5-36.6
	c-0.8,0.5-1.7,0.9-2.5,1.4c-2.7,1.5-5,1.8-6.8,1v0.5c1.8,1,3.6,2,5.3,3.1c21.6,12.3,43.1,24.6,64.8,36.9V290H359.9z"/>
<path class="st21" d="M370.4,196.3c-0.6,2.4-2.5,5.7-5,8.3c-0.1,1.1-0.3,2.3-0.5,3.6c1.8-1,3.7-2.2,5.6-3.2c1.7-2.2,3.2-5,3.9-7.6
	c1.4-5.5,2.7-10.8,4.1-16.3c-1.7,0.9-3.4,1.9-4.9,2.8C372.6,187.9,371.6,192.1,370.4,196.3z"/>
<path class="st24" d="M381.1,313.4c2.1-1.1,2.8-3.7,2.8-6.1c0-1.4-0.3-2.7-0.6-4.1c-0.1-0.5-0.3-1-0.5-1.5c-1.7-0.1-3.4-0.5-5.2-1.3
	v4.1c0.6,1.8,1.2,3.8,1.2,5.7c0,3.2-1.2,5.1-2.8,6.1C377.8,315.4,379.4,314.4,381.1,313.4z"/>
<path class="st25" d="M359.9,297.4c-1.2,6.2,3.6,15.4,9.9,18.6c1.2,0.5,2.3,1,3.6,1c0.9,0,1.8-0.3,2.6-0.6c1.7-0.9,2.8-2.9,2.8-6.1
	c0-1.9-0.4-3.9-1.2-5.7v5l-0.8,0.4l-17.1-9.7V297.4z"/>
<path class="st21" d="M338.6,235.9c11.4,9.9,28.8,25.3,40.2,35.4c5,4.3,8.5,11.7,8.5,17.2c0,0.1,0,0.4,0,0.5c0,2.2-0.5,5-2.7,5.5
	c-0.4,0.1-0.9,0.1-1.4,0.1s-1.2-0.3-1.7-0.4c-1.3,0.5-2.3,1.4-3,2.5c-0.4,0.8-0.8,1.7-0.8,2.5v1.3c1.8,0.8,3.5,1.3,5.2,1.3
	c0.1,0,0.4,0,0.5,0c6.5,0.1,11.2-4.8,11.2-12.9c0-0.1,0-0.3,0-0.5c0-8.1-4.9-17.3-11-22.6c-8.8-7.8-17.7-15.4-26.5-23.2
	c-2.1,0.9-4.7,0.6-7.2-0.9c-0.9-0.5-8-11.2-8.9-11.7l-1.8,1.1C338.4,231.7,339.5,235.7,338.6,235.9z"/>
<path class="st21" d="M379.4,170.4c0.6-0.1,1.3-0.3,1.7-0.5c0.1,0,0.3-0.1,0.4-0.3v-0.1c2.1-8.4,4.3-16.8,6.3-25.1
	c-1.3-0.8-2.5-1.4-3.7-2c-2.1,8.4-4.3,16.7-6.3,25.1c-0.1,0.5-0.3,1-0.4,1.5c-0.1,0.5,0.1,1.3,0.9,1.4
	C378.7,170.4,379,170.4,379.4,170.4z"/>
<path class="st21" d="M381.1,169.9c-0.4,0.1-1,0.4-1.7,0.5c-0.4,0-0.8,0.1-1,0c-0.9-0.1-1.2-0.9-0.9-1.4c0.1-0.5,0.3-1,0.4-1.5
	c-8.5-4.8-17.2-9.8-25.7-14.6c3.2,2.5-53.5-32.2-53.6-29c0,0.9-0.9,4.7-0.9,5.6c6.1,3.4,71.6,41.7,77.6,45.2c2.5-1.4,5-2.8,7.5-4.3
	c-0.4-0.3-0.8-0.4-1.2-0.6v0.1C381.4,169.7,381.2,169.9,381.1,169.9z"/>
<path class="st26" d="M380.6,293.9c-0.9,0.4-1.6,1-2.2,1.9c-0.8,1.1-1.4,2.5-1.4,3.8V310l0.8-0.4v-5v-4.1v-1.3
	c0-0.9,0.4-1.8,0.8-2.5c0.6-1.1,1.7-1.9,3-2.5c0.5,0.1,1,0.3,1.7,0.4c-0.1-0.3-0.4-0.5-0.6-0.6c-0.1,0-0.1-0.1-0.3-0.1
	C381.6,293.6,381.1,293.7,380.6,293.9z"/>
<path class="st22" d="M382.5,293.9c-5.7-3.2-11.4-6.5-17.1-9.7c-0.5-0.3-1.3-0.3-1.8,0c-0.1,0-0.3,0.1-0.4,0.1
	c-1.7,0.8-3.4,3.4-3.4,5.6v0.5v7v2.8L377,310v-10.3c0-1.4,0.6-2.7,1.4-3.8c0.5-0.8,1.3-1.5,2.2-1.9c0.5-0.3,1.2-0.4,1.7-0.1
	C382.3,293.8,382.4,293.8,382.5,293.9z"/>
<path class="st21" d="M382.7,178.7c1.6,0.9,3,1.7,4.4,2.5c0.3-1.8,0.5-3.7,0.8-5.5C386.1,176.6,384.3,177.6,382.7,178.7z"/>
<path class="st26" d="M382.8,301.8c0.1,0.5,0.4,1,0.5,1.5v-1.5C383.2,301.8,383,301.8,382.8,301.8z"/>
<path class="st21" d="M385.8,198.3c0.9,0.5,2.2,1,2.8,0.1c0.1-0.1,0.3-0.4,0.3-0.6v-0.1c0.1-1.1,0.4-2.4,0.5-3.6
	c0.5-3.6,1-7.1,1.4-10.8c0.4-2.7,0.8-5.3,1-7.9c0.1-0.8,0.3-1.5,0.3-2.3c-1.6,0.9-3,1.7-4.5,2.5c-0.3,1.8-0.5,3.7-0.8,5.5
	c-0.6,5.2-1.4,10.3-2.1,15.5c0,0.3,0,0.4-0.1,0.6c0,0.3,0.1,0.4,0.4,0.5C385.4,198,385.6,198.1,385.8,198.3z"/>
<path class="st22" d="M320.7,109.6c-3.2,1.9-6.6,3.7-9.8,5.6c0-2.3,0-4.6,0-7C314.2,108.5,317.4,109.1,320.7,109.6z"/>
<path class="st27" d="M310.7,122.7c0.3-0.1,0.5-0.4,0.8-0.4c0.1-0.1,0.8,0,1.2,0.4c0.4,0.5,0.4,1.4,0.3,1.9
	C312.3,123.8,311.2,122.9,310.7,122.7z"/>
<path class="st23" d="M308.4,102.6c1.4,3.2,2.2,4.8,2.5,5.6c0,2.3,0,4.7,0,7c-1,0.6-2.1,1.1-3.1,1.8
	C308.3,106.9,308.3,106.1,308.4,102.6z"/>
<path class="st27" d="M310.5,127.6c-0.5,0.1-1-0.1-1.3-0.6c0.3,0,0.4-0.1,0.5-0.3C310.1,127,310.2,127.2,310.5,127.6z"/>
<path class="st27" d="M309.2,127c-0.1-0.1-0.3-0.5-0.3-0.9c0.1,0.1,0.5,0.4,0.8,0.6C309.5,126.9,309.4,126.9,309.2,127z"/>
<path class="st28" d="M308.8,123.4c1.3-2.4,4.1-3.7,5.2-1.1c0.4,0.9,0.1,2.3-0.3,3.3c-0.3-0.4-0.4-0.6-0.6-0.9
	c0.3-1.1,0-2.3-1.3-2.3c0,0-0.1,0-0.3,0c-0.3,0-0.5,0.1-0.8,0.4c-0.4,0.3-0.9,0.8-1.3,1.5c-0.4,0.8-0.5,1.3-0.5,1.9
	c0,1.1,0.8,1.7,1.4,1.5c0.1,0.3,0.1,0.3,0.5,1C308.3,129.9,307,127,308.8,123.4z"/>
<path class="st22" d="M308.4,102.6c-0.1,3.6-0.3,4.5-0.6,14.3c-13.3,7.5-26.5,15-39.8,22.6c-0.6-1.5-2.3-5.2-2.5-5.6
	c-3.2-0.5-6.6-0.9-9.8-1.4C273.2,122.5,290.8,112.5,308.4,102.6z"/>
<path class="st29" d="M308,126.6c0,0.9,0.3,1.8,1,2.2c-0.4-0.3-0.9-0.4-1.3-0.6c-0.1-0.1-0.4-0.3-0.5-0.4c-1.2-1.4-0.5-3.6,0.4-5.1
	c0.5-0.8,1-1.5,1.9-2c0.6-0.4,1.4-0.5,2.1-0.1c0.4,0.1,0.8,0.4,1.2,0.6c-0.9-0.4-2.8,0.3-4,2.4C308.3,124.4,307.9,125.6,308,126.6z"
	/>
<path class="st27" d="M285.9,136.7c0.4,0,0.8,0.1,1,0.4c0.4,0.5,0.4,1.3,0.3,1.9c-0.3-0.3-0.5-0.6-0.8-0.9c-0.6-0.6-0.3-0.1-0.5-1
	C286,137,286,136.8,285.9,136.7z"/>
<path class="st27" d="M286.4,138.2c-0.4-0.3-0.9-0.9-1.3-1.1c0.3-0.1,0.5-0.4,0.9-0.4C286.2,137,286.4,137.8,286.4,138.2z"/>
<path class="st30" d="M285.1,137c1.2,0.6,2.1,1.5,2.8,2.7l0.1,0.1c3.2,4.3,4.8,13.7,8.5,16c0.9,0.5,1.7,0.5,2.6,0.4
	c1-0.3,1.8-0.6,2.6-1c0.1,0,1.6-0.9,2.2-1.5c9-7,10.5-23.5,5-27.6c0-1.1,0.6-2.5,1.6-3.3c0.3-0.3,0.1-0.1,0.3-0.1
	c7.6,4.6,7.2,24.2-4,33.6c-3,2.4-7.2,4.7-10.9,3.4c-7.4-2.3-7.9-15.8-12.7-19.3C283.3,139.1,284.1,137.7,285.1,137z"/>
<path class="st27" d="M284.9,142c-0.4,0.1-1-0.1-1.3-0.6c0.3,0,0.4,0,0.6-0.3C284.1,141.1,284.9,141.9,284.9,142z"/>
<path class="st27" d="M284.1,141.1c-0.3,0.1-0.4,0.1-0.6,0.3c-0.1-0.3-0.1-0.5-0.1-0.9C283.7,140.7,284,141,284.1,141.1z"/>
<path class="st22" d="M324,108.9c-35.1,20-44.7,25.5-57,32.4l3.4,71l57-32.4L324,108.9z M309.7,153.5c-1.9,2.3-3.5,3.6-5.8,5
	c-0.1,0-2.2,1.4-4.8,1.7c-8.8,0.9-10.2-11.6-13.6-17.1c-0.5,0.3-1.3,0.5-1.9,0.3c-0.1,0-0.1,0-0.3-0.1c-0.1-0.1-0.6-0.4-1.3-0.6
	c-0.8-0.4-1.2-1.1-1-2.2c0.1-2.2,0.9-3.8,2.7-5.1c0.8-0.5,1.6-0.8,2.5-0.4c0.4,0.3,0.9,0.4,1.3,0.6c1.4,0.5,1.3,2.8,0.6,4.3
	c2.5,3.2,4,9.4,6.2,13.5c1.4,2.4,3,3.6,5.6,2.7c2.2-0.6,5.8-3.1,8.3-6.9c4.4-6.9,5-15.9,2.8-20.5c-1.4,0.6-1.8,0.1-3.2-0.5
	c-0.1-0.1-0.4-0.3-0.5-0.4c-1.2-1.4-0.5-3.6,0.4-5.1c0.5-0.8,1-1.5,1.9-2c0.6-0.4,1.4-0.5,2.1-0.1c0.4,0.1,0.8,0.4,1.2,0.6
	c0.5,0.3,0.9,0.8,1,1.3c0.4,0.9,0.1,2.3-0.3,3.3c0,0,0.1,0.1,0.1,0.3C317.9,132.5,316.1,145.8,309.7,153.5z"/>
<path class="st28" d="M285.9,135.4c0.8-0.1,1.4,0,1.9,0.4c0.9,0.9,0.8,2.8,0.3,4.1c-0.1-0.1,0-0.1-0.6-0.9c0.1-0.6,0.1-1.5-0.3-1.9
	c-0.3-0.3-0.6-0.4-1-0.4c-0.4,0-0.8,0.3-1.2,0.5c-1.4,1.3-1.7,3.3-1.3,4.1c0.3,0.5,0.9,0.8,1.3,0.6c0.1,0.1,0.3,0.4,0.6,1
	c-2.2,1.1-3.7-0.6-3.1-3.2C283.1,137.3,284.7,135.8,285.9,135.4z"/>
<path class="st29" d="M284.2,136.4c-1,1-1.5,2-1.8,3.4c-0.1,0.6-0.3,1.3,0,1.9c0.1,0.5,0.5,1.1,1,1.4c-0.1-0.1-0.6-0.4-1.3-0.6
	c-0.8-0.4-1.2-1.1-1-2.2c0.1-2.2,0.9-3.8,2.7-5.1c0.8-0.5,1.6-0.8,2.5-0.4c0.4,0.3,0.9,0.4,1.3,0.6c-0.4-0.3-1-0.3-1.4-0.1
	C285.3,135.6,284.7,136,284.2,136.4z"/>
<path class="st23" d="M267,141.4l3.4,71l-6.3-8.7v-69.1L267,141.4z"/>
<path class="st23" d="M264.1,134.6l-11.8-1.7l57-32.4l3,6.7l11.8,1.7c-35.1,20-44.7,25.4-57,32.4L264.1,134.6z M255.7,132.5
	c3.2,0.5,6.6,0.9,9.8,1.4c0.1,0.3,1.8,4.1,2.5,5.6c9.3-5.3,46.9-26.6,52.7-29.9c-3.2-0.5-6.6-0.9-9.8-1.4c-0.3-0.6-0.8-1.8-2.5-5.6
	C290.8,112.5,273.2,122.5,255.7,132.5z"/>
<path class="st22" d="M264.1,134.6v69.1l-15.1-3.6l3.4-67.2L264.1,134.6z"/>
<path class="st31" d="M274,135.6c-1.3,0.8-1.3,0.8-1.3,0.8C273.1,135.1,273.6,134.5,274,135.6z"/>
<path class="st32" d="M271.7,173.8c0,0.1,0,0.3-0.1,0.3c-0.1,0.1-0.4,0.3-0.6,0.3c-9.4-1.4-8.8-1.3-8.9-1.4c-0.1,0-0.3-0.1-0.3-0.3
	c-0.4-1.7-0.9-7.4-1-9c-0.5-7.8-0.5-16,0.9-23.8c0.3-1.4,0.9-4.6,1.6-6c0.3-0.5,0.6-0.9,1.2-0.8c9.7,1.5,9,1.3,9.3,1.5
	c0.3,0.3,0.4,0.6,0.5,1H274c-0.5-1.7-1.2,0.3-1.7,1.9c-0.6,2.5-1.2,6-1.4,8.7C269.5,159.4,271.6,174.2,271.7,173.8z"/>
<path class="st33" d="M357.9,146.6v10.3l-5.4-5.2L357.9,146.6z"/>
<path class="st34" d="M355.1,147.5c-0.4,0.4-4.1,3.9-4.5,4.3c0,1.4,0,2.8,0,4.3c-18.6,0-37.1,0-55.7,0c0-1.4,0-2.8,0-4.3
	c-1.6-1.4-3-2.8-4.5-4.3C312.1,147.5,333.7,147.5,355.1,147.5z"/>
<path class="st33" d="M355.1,156c-1.5,0-3,0-4.5,0c0-1.4,0-2.8,0-4.3C352.2,153.2,353.7,154.6,355.1,156z"/>
<path class="st35" d="M341.5,165.4c0-0.4,0-0.6,0-0.9c0-1.5,0.1-1.7-0.1-2c-0.1-0.3-0.3-0.4-0.4-0.5
	C342.7,162.7,342.7,164.5,341.5,165.4z"/>
<path class="st36" d="M336,163.8c0-1.9,2.5-3.8,5.2-2.9c1.5,0.5,2.5,1.7,2.5,2.9c0,1.4-1.2,2.4-2.2,2.9c0,0,0.1-0.9,0.1-1.3
	c0.3-0.3,0.5-0.5,0.8-0.9c0.8-1.8-1.5-3.4-3.5-2.7c-1.7,0.8-1.8,2.4-0.6,3.4c0,0.1,0,0.9-0.1,1.3C336.9,166.1,336,165,336,163.8z"/>
<path class="st37" d="M338.2,161c-1.2,0.5-2.1,1.7-2.1,2.8c0-0.3,0-0.5,0-0.8c0-0.6,0.3-1.5,1.3-2.4c1.4-1,3.6-1.1,5,0
	c0.8,0.5,1.2,1.4,1.2,2.3c0,0.3,0,0.5,0,0.9C343.5,161.2,340.4,159.9,338.2,161z"/>
<path class="st38" d="M288,156.9c0,50.9,0,34.2,0,62.2h69.9c0-18.2,0-34.2,0-62.2C337.6,156.9,324.9,156.9,288,156.9z M343.6,163.8
	c0,1.4-1.2,2.4-2.2,2.9c-0.4,6.5-2.2,13.6-7.2,17.7c-3.9,3.1-8.9,3.8-13.8,2.9c-9.7-2-12.9-10.9-13.6-20.7c-1-0.4-2.2-1.5-2.2-2.9
	c0-0.3,0-0.5,0-0.9c0-0.9,0.5-1.8,1.3-2.3c1.3-1,3.7-1.1,5.2,0c0.8,0.5,1.2,1.5,1.2,2.3v0.9c0,1.3-0.9,2.3-2.1,2.8
	c0,0.9,0.3,3.7,0.9,6.4c1,4.7,3.6,9.4,8.4,10.8c3,1,7.4,1,10.6-0.5c4.8-2.3,6.7-7.6,7.6-12.9c0-0.1,0.4-2.7,0.4-3.7
	c-1.2-0.5-1.9-1.5-1.9-2.8c0-0.4,0-0.5,0-0.9c0-0.6,0.3-1.5,1.3-2.4c1.4-1,3.6-1.1,5,0c0.8,0.5,1.2,1.4,1.2,2.3
	C343.6,163.3,343.6,163.5,343.6,163.8z"/>
<path class="st35" d="M310.1,162.9c0-0.5-0.3-0.9-0.5-1.1c0.6,0.3,1.4,1.1,1.4,1.9c0,0.5-0.3,1.1-0.8,1.5
	C310.1,165,310.1,163,310.1,162.9z"/>
<path class="st30" d="M338.2,164.5C338.2,164.4,338.2,164.4,338.2,164.5C338.2,164.4,338.2,164.5,338.2,164.5
	C338.1,165.2,338.1,164.7,338.2,164.5z M306.7,164.4c0-1.5-0.1-1.7,0.1-2c0.1-0.3,0.3-0.4,0.4-0.5c0.6-0.4,1.5-0.4,2.3,0
	c0.4,0.3,0.5,0.6,0.5,1.1c0,3.4,0.1,6.5,0.9,9.9c1.5,6.6,5.3,11.3,12.1,11.6c7.1,0.4,12.7-3.2,14.5-14.1c0-0.1,0.4-2.2,0.4-3.6
	c0-0.1,0.1-0.9,0.1-1.3c-0.5-0.4-0.8-1-0.8-1.5c0-1.3,1.7-2.5,3.5-1.9c0.1,0,0.1,0,0.3,0.1c0.1,0.1,0.3,0.3,0.4,0.5
	c0.1,0.4,0.1,0.5,0.1,2c0,3.3-0.6,8.1-1.8,11.5c-2.2,6.6-6.8,11.1-14,11.6C312.1,188.7,306.7,177.6,306.7,164.4z"/>
<path class="st35" d="M307.2,161.9c-0.4,0.3-0.5,0.6-0.5,1c0,0.8,0,1.7,0,2.4C305.5,164.4,305.5,162.6,307.2,161.9z"/>
<path class="st36" d="M304.6,163.6c0-1.4,1-2.5,2.5-2.9c2.8-0.9,5,1.1,5,2.9c0,1.3-0.9,2.3-2.1,2.8c0-0.3,0-0.5,0-0.9
	c0-0.6-0.1-0.3,0.3-0.8c0.3-0.4,0.5-0.9,0.5-1.3c0-0.8-0.8-1.7-1.4-1.9c-1.8-0.9-4.3,0.8-3.5,2.5c0.1,0.4,0.4,0.6,0.8,0.9
	c0,0.9,0,1.1,0,1.3C305.7,166.1,304.6,165,304.6,163.6z"/>
<path class="st37" d="M304.6,162.9c0-0.9,0.5-1.8,1.3-2.3c0.8-0.5,1.7-0.8,2.6-0.8c2.3,0,3.7,1.7,3.7,3.2v0.9c0-1.1-0.9-2.3-2.1-2.8
	c-2.2-1-5.4,0.3-5.6,2.8C304.6,163.4,304.6,163.1,304.6,162.9z"/>
<path class="st33" d="M295.1,151.7c0,1.4,0,2.8,0,4.3c-1.5,0-3,0-4.5,0C295.5,151.3,294.6,152.3,295.1,151.7z"/>
<path class="st39" d="M293.4,151.7l-5.4,5.2v-10.3L293.4,151.7z"/>
<path class="st40" d="M290.6,156c33.5,0,45.5,0,64.6,0c-1.5-1.4-3-2.8-4.5-4.3c0.4-0.4,4.1-3.9,4.5-4.3c-21.6,0-43.1,0-64.6,0
	c1.5,1.4,3,2.8,4.5,4.3C294.4,152.3,295.6,151.3,290.6,156z M288,156.9l5.4-5.1l-5.4-5.1h69.9l-5.4,5.1l5.4,5.1
	C332.8,156.9,313.3,156.9,288,156.9z"/>
<path class="st21" d="M245.9,198.8c0.8,0.3,1.9-0.3,2.6-0.8c0.3-0.1,0.6-0.5,0.6-0.8c0-0.3,0-0.4-0.1-0.6c-0.9-7-1.9-14-2.8-21
	c-1.6-0.9-3-1.7-4.5-2.5c0.4,2.8,0.8,5.5,1.2,8.3c0.5,4.2,1.2,8.5,1.7,12.7c0.1,1.3,0.4,2.4,0.5,3.7
	C245.1,198.1,245.3,198.6,245.9,198.8z"/>
<path class="st21" d="M290.7,220.9c0-0.3,0-0.4,0-0.6c0-3.2,0-6.2,0-9.4c0-3.3,0-6.6,0-9.9c-1.4-0.8-2.7-1.5-4.1-2.3
	c0,4.8,0,9.8,0,14.6c0,1.5,0,3.2,0,4.7c0,1,0,2.2,0,3.2c0,0.3,0,0.4,0.1,0.6c0.4,0.8,1.2,0.8,1.9,0.5
	C289.3,222.2,290.7,221.5,290.7,220.9z"/>
<path class="st21" d="M384.2,142.3c1.3,0.6,2.5,1.4,3.7,2c5.8,3.3,11.6,6.6,17.4,9.9c0.5,0.3,0.9,0.6,1.3,1c0.3,0.3,0.3,0.4,0.3,0.4
	s0,0,0,0.1c-0.1,0.3-0.4,0.6-0.6,0.8c-0.3,0.3-0.5,0.4-0.9,0.6c-7.6,4.3-15.1,8.7-22.7,12.9c-2.5,1.4-5,2.8-7.5,4.3
	c-6.1,3.4-12.1,6.9-18.2,10.4c-11.1,6.4-22.3,12.7-33.5,19c-3.2,1.9-9.3,1.9-12.7,0c-1.7-0.9-3.4-1.9-5-2.8
	c-11.2-6.4-22.5-12.9-33.8-19.2c-9.7-5.5-19.5-11.1-29.2-16.5c-1.7-0.9-3.2-1.9-4.9-2.8c-7.5-4.3-15-8.5-22.6-12.9
	c-1.8-1-3.6-2-5.6-3.2c-2.5-1.4-5-2.8-7.5-4.3c-1-0.6-2.1-1.1-3-1.8c-1.4-0.9-3-1.7-4.4-2.5c-5-2.9-10.2-5.9-15.2-8.7
	c-0.5-0.3-0.9-0.6-1.3-1c-0.3-0.3-0.3-0.4-0.3-0.4s0,0,0-0.1c0.1-0.3,0.4-0.6,0.6-0.8c0.3-0.3,0.5-0.4,0.9-0.6c4.4-2.4,8.7-5,13-7.4
	c1.3-0.8,2.6-1.5,3.9-2.2c6.3-3.6,12.5-7.1,18.9-10.7v-8.5c-11.9,6.7-23.8,13.5-35.7,20.2c0.1,0.6,0.3,1.3,0.5,1.9
	c0.3,0.9-0.1,2.2-0.9,2.4c-0.5,0.1-1.3-0.1-2.5-0.4c-0.8-0.1-1.9-0.4-2.7-0.4h-0.3c-1.9,1.7-3.4,3.9-3.4,6.5c0,3.4,2.3,6.2,5.3,7.9
	c6.3,3.6,12.7,7.3,19,10.8c1.8,1,3.5,2,5.3,2.9c1.6,0.9,3,1.7,4.5,2.5c3.6,2,7.2,4.1,10.9,6.1c7.5,4.3,15,8.5,22.6,12.9
	c1.3,0.8,2.6,1.4,3.7,2.2c1.6,0.9,3,1.7,4.5,2.5c8.7,4.8,17.2,9.8,25.8,14.6c4.9,2.8,9.7,5.6,14.6,8.3c1.4,0.8,2.7,1.5,4.1,2.3
	c3,1.7,5.8,3.3,8.8,5c2.1,1.1,4.3,2.4,6.3,3.6c0.4,0.3,0.8,0.5,1.3,0.8c5.7,3.3,14.6,3.2,20.2,0c3.9-2.2,7.8-4.5,11.6-6.6
	c1.6-0.9,3-1.7,4.5-2.5c4.5-2.5,9-5.1,13.6-7.8c2.2-1.3,4.4-2.4,6.6-3.7c1.5-0.9,3-1.7,4.5-2.5c1.9-1.1,3.9-2.2,5.8-3.3
	c1.7-0.9,3.2-1.9,4.9-2.8c1.3-0.8,2.7-1.5,4.1-2.3c1.7-1,3.5-2,5.2-2.9c1.5-0.9,3-1.7,4.5-2.5c5.6-3.2,11.1-6.4,16.8-9.5
	c3-1.7,5.3-4.5,5.3-7.9c0-3.3-2.2-6.2-5.3-7.9c-39.8-22.7-79.6-45.2-119.2-67.8v8.5c2.6,1.5,5.2,2.9,7.8,4.3
	c1.3,0.8,2.6,1.5,3.9,2.2c12.5,7.1,25.2,14.4,37.7,21.5c1.3,0.8,2.6,1.5,3.9,2.2C356.7,126.6,370.4,134.5,384.2,142.3z"/>
<path class="st21" d="M388.7,198.5c-0.6,0.9-1.9,0.4-2.8-0.1c-0.1-0.1-0.4-0.3-0.5-0.4c-0.3-0.3-0.4-0.4-0.4-0.5
	c0-0.3,0-0.4,0.1-0.6c-4.8,2.7-9.6,5.5-14.3,8.1c-1.8,1-3.7,2.2-5.6,3.2c-0.1,1.3-0.4,2.4-0.5,3.7c0,0.3-0.1,0.5-0.3,0.6
	c-0.6,0.9-1.9,0.4-2.8-0.1c-0.1-0.1-0.4-0.3-0.5-0.4c-0.3-0.3-0.4-0.4-0.4-0.6c0-0.3,0-0.4,0.1-0.6c-1.2,0.6-2.5,1.4-3.6,2
	c-5.4,3.2-11,6.2-16.4,9.3c-0.1,1.1-0.4,2.4-0.5,3.6v0.1c0,0.3-0.1,0.4-0.3,0.6c-0.6,0.9-1.9,0.4-2.8-0.1c-0.3-0.3-0.9-0.6-0.9-1
	c0-0.1,0-0.4,0.1-0.5c-4.1,2.4-8.4,4.7-12.5,7.1c-3.2,1.9-9.3,1.9-12.7,0c-1.7-0.9-3.4-1.9-5-2.8c-5-2.9-10.1-5.7-15.1-8.7
	c0,0.3,0,0.4,0,0.6c0,0.6-1.3,1.3-1.9,1.5c-0.8,0.3-1.7,0.1-1.9-0.5c-0.1-0.1-0.1-0.4-0.1-0.6c0-1,0-2.2,0-3.2
	c-1.4-0.8-2.8-1.5-4.1-2.4c-3.5-2-7-3.9-10.5-5.9c-7.6-4.3-15.4-8.7-23-13.1c0,0.3,0,0.4,0.1,0.6c0,0.3-0.4,0.6-0.6,0.8
	c-0.6,0.5-1.8,1-2.6,0.8c-0.5-0.1-0.8-0.6-0.9-1c-0.1-1.3-0.4-2.4-0.5-3.7c-0.5-0.4-1.2-0.6-1.7-1c-1.7-0.9-3.2-1.9-4.9-2.8
	c-7.5-4.3-15-8.5-22.6-12.9c-2.6-1.5-5.3-3.1-8-4.6c0,0.1,0,0.4,0.1,0.5c0,0.3-0.3,0.6-0.6,0.9c-0.6,0.5-1.8,1-2.6,0.8
	c-0.5-0.1-0.8-0.5-0.9-1c0,0,0,0,0-0.1c-0.1-1.1-0.3-2.4-0.5-3.6c-1.6-0.9-3-1.7-4.5-2.5c-3.5-2-7.1-4.1-10.6-6
	c-0.5-0.3-0.9-0.6-1.3-1c-0.3-0.3-0.3-0.4-0.3-0.4s0,0,0-0.1c0.1-0.3,0.4-0.6,0.6-0.8c0.3-0.3,0.5-0.4,0.9-0.6
	c3-1.7,5.9-3.4,8.9-5.1c1.2-0.6,2.5-1.4,3.6-2c-0.1-0.8-0.3-1.5-0.3-2.4c-1.8-1-3.5-2-5.3-2.9c-3.6,2-7.1,4.1-10.7,6.1
	c-3,1.7-5.3,4.5-5.3,7.9c0,3.3,2.3,6.2,5.3,7.9c5.2,2.9,10.3,5.9,15.5,8.8c1.6,0.9,3.1,1.8,4.5,2.5c1.6,0.9,3,1.7,4.5,2.5
	c6.7,3.8,13.3,7.6,20,11.3c1.4,0.8,2.7,1.5,4.1,2.3c3.4,1.9,6.7,3.8,10.1,5.7c1,0.5,1.9,1.1,3,1.7c1.6,0.9,3,1.7,4.5,2.5
	c7.2,4.1,14.5,8.3,21.7,12.3c0.9,0.5,1.9,1.1,2.8,1.7c3.9,2.2,7.8,4.5,11.6,6.6c1.4,0.8,2.7,1.5,4.1,2.3c5.4,3.1,10.9,6.2,16.4,9.3
	c0.1,0,0.3,0.1,0.3,0.1c1.5,0.8,3.2,1.4,5,1.8c1.2,0.3,2.3,0.4,3.5,0.4c4,0.3,8.1-0.6,11.2-2.4c2.5-1.4,5-2.8,7.5-4.3
	c1.6-0.9,3-1.7,4.5-2.5c5.9-3.3,11.8-6.7,17.7-10.1c0.8-0.5,1.5-0.9,2.5-1.4c1.6-0.9,3-1.7,4.5-2.5c6.7-3.8,13.3-7.6,20-11.3
	c1.5-0.9,3-1.7,4.5-2.5c4.3-2.4,8.4-4.8,12.7-7.3c3-1.7,5.3-4.5,5.3-7.9c0-3.3-2.2-6.2-5.3-7.9c-3-1.7-5.9-3.3-8.8-5
	c-0.4,2.7-0.8,5.3-1,7.9c2.1,1.1,4.1,2.3,6.2,3.6c0.5,0.3,0.9,0.6,1.3,1c0.3,0.3,0.3,0.4,0.3,0.4s0,0,0,0.1
	c-0.1,0.3-0.4,0.6-0.6,0.8c-0.3,0.3-0.5,0.4-0.9,0.6c-2.6,1.4-5,2.9-7.6,4.3c-0.1,1.1-0.4,2.4-0.5,3.6v0.1
	C388.9,198.1,388.9,198.3,388.7,198.5z"/>
<path class="st21" d="M336.8,226.1c0.9,0.5,2.2,1,2.8,0.1c0.1-0.1,0.3-0.4,0.3-0.6v-0.1c0.1-1.1,0.4-2.4,0.5-3.6
	c0.9-7,1.9-14,2.8-21c-1.5,0.9-3,1.7-4.5,2.5c-0.9,7-1.9,14-2.8,21c0,0.1,0,0.4-0.1,0.5C335.9,225.6,336.4,226,336.8,226.1z"/>
<path class="st21" d="M360.4,211.2c0,0.3,0.1,0.4,0.4,0.6c0.1,0.1,0.4,0.3,0.5,0.4c0.9,0.5,2.2,1,2.8,0.1c0.1-0.1,0.3-0.4,0.3-0.6
	c0.1-1.3,0.4-2.4,0.5-3.7c0.1-1.1,0.3-2.3,0.5-3.6c0.8-5.9,1.6-11.7,2.3-17.4c-1.5,0.9-3,1.7-4.5,2.5c-0.8,6.1-1.7,12.1-2.5,18.2
	c-0.1,0.9-0.3,1.9-0.4,2.8C360.4,210.8,360.4,211,360.4,211.2z"/>
<path class="st21" d="M349.9,241.9c2.6,1.5,5.2,1.7,7.2,0.9c2.1-0.9,3.5-2.9,3.9-5.7c0.6-5.1,1.4-10.3,2.1-15.4
	c0.3-1.4,0.4-2.9,0.6-4.3c-1.5,0.9-3,1.7-4.5,2.5c-0.8,5.6-1.5,11.1-2.3,16.7c-0.1,0.8-0.4,1.7-0.9,2.2c-1,1-2.8,0.4-4.1-0.3
	c-0.3-0.1-10.7-8.1-11-8.3c-1.3,0.9,7.6,9.5,6.2,10.2C348,240.9,348.9,241.4,349.9,241.9z"/>
<path class="st21" d="M363.7,217.3c-0.3,1.4-0.4,2.9-0.6,4.3c3.7,2.2,7.5,4.2,11.2,6.4c5.3,3.1,10.5,0.8,11.1-4.8
	c0.9-6.6,1.8-13.1,2.7-19.7c-1.6,0.9-3,1.7-4.5,2.5c-0.8,5.6-1.6,11.1-2.3,16.7c-0.1,0.8-0.4,1.7-0.9,2.2c-1,1-2.8,0.4-4.1-0.3
	C372.2,222,367.9,219.8,363.7,217.3z"/>
<path class="st12" d="M215.6,452c0-0.6,0-1.3,0-2c41.9-23.8,39.7-22.4,40.2-23.2c0.3-0.4,0.4-0.8,0.5-1.1c0,0.6,0,1.4,0,2
	c0,0.6-0.4,1.3-0.9,1.7C255,429.6,258.4,427.7,215.6,452z"/>
<path class="st41" d="M240.6,424.6l-5.4,3.1l-16-9.2l5.4-3.1L240.6,424.6z"/>
<path class="st41" d="M219.6,412.8l-5.4,3.1l-16-9.2l5.3-3.1L219.6,412.8z"/>
<path class="st13" d="M217.2,438c-1.2,0.1-2.2-0.1-3-0.6c-0.8-0.4-1.2-1-1-1.7c0.1-0.8,0.8-1.4,2.2-2.2c1.4-0.8,2.7-1.1,3.9-1.3
	c1.2-0.1,2.2,0.1,3,0.5c0.8,0.5,1.2,1,1,1.8c-0.1,0.8-0.9,1.5-2.3,2.3C219.6,437.5,218.3,437.9,217.2,438z"/>
<path class="st12" d="M215.6,449.9c0,0.6,0,1.4,0,2l-14.2,8.1c0-0.6,0-1.4,0-2L215.6,449.9z"/>
<path class="st12" d="M117.6,394.2c32.7,18.6,65.4,37.2,98,55.7l-14.2,8.1c-32.7-18.6-65.4-37.2-98-55.7L117.6,394.2z"/>
<path class="st12" d="M214.3,437.3c0.8,0.5,1.8,0.6,3,0.6c1.2,0,2.5-0.4,3.7-1.1c1.4-0.8,2.2-1.5,2.3-2.3c0.1-0.6-0.3-1.3-1-1.8
	c-0.8-0.4-1.8-0.6-3-0.5c-1.2,0.1-2.5,0.5-3.9,1.3c-1.3,0.8-2.1,1.5-2.2,2.2C213.2,436.3,213.6,437,214.3,437.3z M211.4,434.4
	c1-1.7,3.7-2.8,5.7-3.3c2.6-0.6,5-0.1,6.6,0.8c1,0.5,1.7,1.4,1.4,2.4l5.2-2.9l1.8,1l-14.5,8.3l-1.7-0.9c3.1-1.8,0.1,0.4-3.1-1.5
	C211.1,437.2,210.3,435.8,211.4,434.4z"/>
<path class="st12" d="M202.3,431.9l10.5-6l1.6,0.9l-1.6,0.9c1.2-0.3,1.9-0.3,2.6-0.3c1.3,0.1,2.2,0.6,2.7,1.8l-2.3,0.6
	c-0.5-1.3-2.5-1.7-3.9-1.1c-1.7,0.5-2.1,0.8-7.9,4.1L202.3,431.9z"/>
<path class="st41" d="M198.7,400.8l-5.4,3.1l-16-9.2l5.4-3.1L198.7,400.8z"/>
<path class="st13" d="M197.9,427.5c-1-0.1-3.2-0.9-3.4-1.9c-0.1-0.8,0.9-1.3,1.7-1.3c2.1-0.3,3.5,1.3,6.7,2
	C201.2,427.4,200,427.9,197.9,427.5z"/>
<path class="st12" d="M197.5,424.4c-2.2-0.5-4.4,1-1.9,2.4c1.4,0.8,3.2,1,4.6,0.8c0.9-0.3,1.9-0.8,2.7-1.3
	C200.8,425.8,198.7,424.6,197.5,424.4z M192,425.4c-0.1-1.4,1.6-2.2,3-2.4c3.6-0.6,5.9,1.7,9.4,2.5c0.5-0.3,1.6-0.8,1.6-1.4
	c-0.1-1.1-2.6-2.2-3.7-2.3c-0.6,0-1.6,0.1-2.5,0.4l-1.6-1.1c1.8-0.6,3.4-0.8,5.2-0.3c1.4,0.4,3.9,1.5,4.7,2.5
	c0.6,0.8,0.6,1.4-0.3,2.2c-0.9,0.8-5.4,3.1-7,4.2c-0.4,0.3-0.6,0.6-0.8,1l-1.8-1c0.1-0.4,0.5-0.6,0.9-0.9c-1.9-0.1-3.7-0.4-5.4-1.3
	C192.6,426.7,192.1,426,192,425.4z"/>
<path class="st12" d="M183.5,412.9c3.1-1.8,6.6-2.3,9.8-1.8c4.6,0.8,9.2,3.8,5.8,7.1l-2.3-0.8c1.3-1.4,1.3-2.7-0.9-3.9
	c-2.2-1.3-4.9-1.5-7.4-0.8c-2.1,0.6-4.7,1.9-5.9,3.4c-1.2,1.5-0.3,2.9,1.4,3.9c1.9,1.1,4.8,1.5,7.9,0.3l1.4,1.4
	c-3.6,1.3-7.5,1.3-10.9-0.6c-1.6-0.9-2.5-1.8-2.8-2.7C178.9,416.2,181.4,414.1,183.5,412.9z"/>
<path class="st41" d="M177.8,389l-5.4,3.1l-16-9.2l5.4-3.1L177.8,389z"/>
<path class="st13" d="M254.8,423.6c0.6,0.4,1.6,1.3,1.4,2c0,0.6-0.4,1.4-1.4,2l-39.3,22.3c-32.7-18.6-65.4-37.2-98-55.7
	c42.8-24.3,39.5-22.6,41-22.9c1.8-0.4,3.7-0.3,5.4,0.6L254.8,423.6z M219.1,418.5l16,9.2l5.3-3.1l-16-9.2L219.1,418.5z M213.6,432.4
	c-3.6,2-3.4,4.3-0.9,5.7c3.2,1.9,6.3-0.3,3.1,1.5l1.7,0.9l14.5-8.3l-1.8-1l-5.2,2.9C225.7,431.6,219.5,429.1,213.6,432.4z
	 M212.8,426l-10.5,6l1.8,1c5.9-3.3,6.1-3.6,7.9-4.1c1.6-0.5,3.5-0.1,3.9,1.1l2.3-0.6c-0.5-1.1-1.6-1.7-2.7-1.8
	c-0.6-0.1-1.4,0-2.6,0.3l1.6-0.9L212.8,426z M198.2,406.7l16,9.2l5.3-3.1l-16-9.2L198.2,406.7z M193.2,423.6c-1.7,1-1.8,2.4,0.6,3.7
	c1.7,1,3.5,1.3,5.4,1.3c-0.4,0.3-0.8,0.6-0.9,0.9l1.8,1c0.4-0.9,1.2-1.3,3.9-2.8c0.8-0.4,3.4-1.8,3.9-2.3c0.9-0.8,0.8-1.4,0.3-2.2
	c-0.8-1-3.2-2.2-4.7-2.5c-1.8-0.5-3.4-0.4-5.2,0.3l1.5,1.1c0.9-0.3,1.8-0.4,2.5-0.4c1.2,0.1,3.6,1.1,3.7,2.3c0,0.6-1,1.1-1.6,1.4
	c-1.9-0.5-4.1-1.7-5.7-2.2C196.4,422.7,194.4,423,193.2,423.6z M193.5,421.7l-1.4-1.4c-3.1,1.1-5.9,0.8-7.9-0.3
	c-1.6-0.9-2.6-2.4-1.4-3.9c1.2-1.5,3.9-2.8,5.9-3.4c2.5-0.6,5.2-0.4,7.4,0.8c2.1,1.1,2.2,2.5,0.9,3.9l2.3,0.8
	c3.4-3.3-1.2-6.4-5.8-7.1c-3.2-0.5-6.7,0-9.8,1.8c-2.1,1.1-4.5,3.3-3.6,5.5c0.4,0.9,1.3,1.8,2.8,2.7
	C186.1,423,189.9,423,193.5,421.7z M166,394.6c-0.3-1-1.3-1.5-2.2-2c-1.9-1-2.6-1.5-5.4-3.1c-1-0.5-1.9-1.1-3-1.7
	c-0.8-0.5-1.6-1-2.5-1.3c-1.2-0.4-2.8-0.5-4.1-0.3c-1.9,0.4-3.7,1.5-5.6,2.7c-2.5,1.5-2.3,1.4-3.6,2c-1.8,1.1-1.8,2.5-0.6,3.6
	c0.5,0.5,8.3,4.7,9.8,5.7c1.8,1,2.5,1.5,4.5,1.7c3.9,0.3,6.1-2.2,10.3-4.3c0.8-0.4,1.9-1,2.3-1.9C166,395.4,166,395,166,394.6z
	 M172.4,392l5.3-3.1l-16-9.2l-5.3,3.1L172.4,392z M198.7,400.8l-16-9.2l-5.3,3.1l16,9.2L198.7,400.8z"/>
<path class="st42" d="M145.7,398.7c-5.2-2.9-4.5-2.7-5.4-3.1c-0.9-0.5-1.9-1-2.2-2c-0.1-0.6,0-1.4,0.5-1.9s1.2-0.8,1.8-1.1
	c4.1-2.2,6.3-4.6,10.3-4.3c1.9,0.1,2.8,0.6,4.5,1.7c1,0.6,9.2,5.1,9.8,5.7c0.6,0.5,1,1.3,0.8,2.2c-0.4,1-1.4,1.5-2.3,1.9
	c-4.3,2.3-6.5,4.6-10.3,4.3C150.9,401.8,150.8,401.3,145.7,398.7z"/>
<path class="st13" d="M101.6,407.4c-2.1-1.1-1.9-3.1,0-4.1l1.8-1c0.3,0-1-0.6,98,55.7l-1.8,1c-1.2,0.6-3.2,1.1-5.4,0.6
	C192.6,459.5,198.8,462.8,101.6,407.4z"/>
<path class="st12" d="M100,407.4c0-0.6,0-1.4,0-2c0,0.4,0.1,0.9,0.5,1.1c0.5,0.6-5.4-2.8,92,52.6c1.2,0.6,3.2,1.1,5.4,0.6
	c1.3-0.3,1.7-0.6,3.5-1.7c0,0.6,0,1.3,0,2l-1.8,1c-1.6,0.9-3.6,1-5.4,0.6c-1.4-0.3,4.5,2.9-92.6-52.3
	C100.5,408.8,100,408.1,100,407.4z"/>
</svg>
