<?xml version="1.0" encoding="utf-8"?>
<!-- Generator: Adobe Illustrator 21.1.0, SVG Export Plug-In . SVG Version: 6.00 Build 0)  -->
<svg version="1.1" id="Layer_1" xmlns="http://www.w3.org/2000/svg" xmlns:xlink="http://www.w3.org/1999/xlink" x="0px" y="0px"
	 viewBox="0 0 561 531" style="enable-background:new 0 0 561 531;" xml:space="preserve">
<style type="text/css">
	.st0{display:none;fill:#0F4444;}
	.st1{fill-opacity:0.4;}
	.st2{fill:#A9A8C6;}
	.st3{fill:#1C1A2A;}
	.st4{fill:#E1DFEA;}
	.st5{fill:#7C7CA0;}
	.st6{fill:url(#SVGID_1_);}
	.st7{fill:#090000;}
	.st8{fill:#1A2738;}
	.st9{opacity:0.27;}
	.st10{fill:#FFFFFF;}
</style>
<path class="st0" d="M270.7,327.3l-50.9,29c-3.1,1.8-8.1,1.8-11.4,0c-3.1-1.8-3.1-4.7,0-6.5l50.9-29c3.1-1.8,8.1-1.8,11.4,0
	C273.9,322.6,273.9,325.5,270.7,327.3z"/>
<path class="st1" d="M76.7,322.3c-14.3-8.1-14.3-21.4,0-29.6l115.9-65.9c14.3-8.1,37.7-8.1,52.1,0L522,384.6
	c14.3,8.1,14.3,21.4,0,29.5L406.1,480c-14.3,8.1-37.7,8.1-52.1,0"/>
<path class="st2" d="M69.7,267.7c1.7,2.2,3.9,3.7,6.2,5.1l278.8,158.5c3.2,1.9,6.7,3.2,10.5,3.9c3.6,0.8,7.5,1.1,11.2,1.1
	c7.6,0,15.5-1.5,21.8-5.1l132.7-75.5c3.7-2.2,7.8-5.9,8.8-9.9c0.1-0.6,0.3-1.4,0.3-2.2c0,8.5,0,10.9,0,19.5c0,5.3-4.3,9.7-9,12.3
	l-132.7,75.5c-3.2,1.8-6.7,3.2-10.5,3.9c-10.7,2.3-23.6,1.4-33.1-3.9L75.9,292.5c-1.2-0.6-2.3-1.4-3.5-2.3c-3-2.4-5.6-6.4-5.6-10.2
	c0-8.5,0-11.2,0-19.7C66.8,262.9,68,265.6,69.7,267.7z"/>
<path class="st3" d="M475.5,393.2c0.9-0.5,1.6-0.5,2.2-0.3c0.6,0.3,1,1,1,2.2v1.4c0,2-1.4,4.6-3.2,5.6L453,414.8
	c-0.9,0.5-1.7,0.5-2.3,0.3c-0.6-0.4-1-1-1-2v-1.4c0-2,1.4-4.6,3.2-5.6L475.5,393.2z"/>
<path class="st3" d="M425.8,421.2c3.1-3.2,6.1-1.9,6.1,1.4c-0.1,4.8-5,9.5-7.6,8c-0.4-0.3-0.6-0.5-0.9-1c-0.4-0.8-0.5-1.7-0.4-2.5
	c0.1-1,0.5-2,0.9-3.1c0.3-0.4,0.5-0.8,0.6-1.1C424.9,422.2,425.3,421.7,425.8,421.2z"/>
<path class="st4" d="M75.1,266.5c2.3,2.7,4.1,3.4,12.1,8c0.1,0.1,271.7,154.6,273.1,155.2c4.7,2.2,10.3,3.3,16.1,3.3v3.3
	c-3.9,0-7.6-0.4-11.2-1.1c-3.7-0.8-7.2-2-10.5-3.9L75.9,272.7c-2.3-1.3-4.5-2.9-6.2-5.1s-2.7-4.7-2.8-7.4c0-0.8,0-1.7,0.3-2.4
	c1-4.2,5-7.9,8.8-9.9l132.7-75.5c6.3-3.6,14.1-5.1,21.8-5.1v3.3c-2.8,0-5.7,0.3-8.5,0.9c-5.7,1.1-8.5,2.9-12.8,5.5
	c-4.4,2.5,9.8-5.7-49.7,28.2c-9.7,5.5-19.4,11.2-29.1,16.7c-9.7,5.5-19.5,10.9-29.2,16.5c-4,2.3-8,4.7-12.1,7
	c-4.8,2.7-9.2,5-11.4,6.7C72.2,256,71,261.5,75.1,266.5z"/>
<path class="st4" d="M141.9,320.8l2.3-1.3l-24.5-13.9l-2.2,1.3L141.9,320.8z"/>
<path class="st5" d="M144.2,322.6v-3.1l-2.3,1.3v3.1L144.2,322.6z"/>
<path class="st5" d="M141.9,323.8v-3.1l-24.4-13.9v3.1L141.9,323.8z"/>
<path class="st3" d="M411.5,434c0.5-0.3,0.9-0.9,0.9-1.4s-0.4-0.8-0.9-0.5s-0.9,0.9-0.9,1.4C410.6,434.2,411,434.3,411.5,434z"/>
<path class="st3" d="M523.6,374.9c0.8-0.4,1.3-1.4,1.3-2.2v-6.2c0-0.8-0.6-1.1-1.3-0.8c-0.8,0.4-1.3,1.4-1.3,2.2v6.2
	C522.2,375,522.8,375.3,523.6,374.9z"/>
<path class="st3" d="M518.2,377.9c0.8-0.4,1.3-1.4,1.3-2.2v-6.2c0-0.8-0.6-1.1-1.3-0.8c-0.8,0.4-1.3,1.4-1.3,2.2v6.2
	C516.9,378,517.5,378.3,518.2,377.9z"/>
<path class="st3" d="M512.9,381c0.8-0.4,1.3-1.4,1.3-2.2v-6.2c0-0.8-0.6-1.1-1.3-0.8c-0.8,0.4-1.3,1.4-1.3,2.2v6.2
	C511.6,381,512.2,381.4,512.9,381z"/>
<path class="st3" d="M507.6,384c0.8-0.4,1.3-1.4,1.3-2.2v-6.2c0-0.8-0.6-1.1-1.3-0.8c-0.8,0.4-1.3,1.4-1.3,2.2v6.2
	C506.3,384,506.8,384.4,507.6,384z"/>
<path class="st3" d="M502.3,387c0.8-0.4,1.3-1.4,1.3-2.2v-6.2c0-0.8-0.6-1.1-1.3-0.8c-0.8,0.4-1.3,1.4-1.3,2.2v6.2
	C500.9,387.1,501.5,387.5,502.3,387z"/>
<path class="st3" d="M496.9,390c0.8-0.4,1.3-1.4,1.3-2.2v-6.2c0-0.8-0.6-1.1-1.3-0.8c-0.8,0.4-1.3,1.4-1.3,2.2v6.2
	C495.6,390.1,496.2,390.5,496.9,390z"/>
<path class="st4" d="M530.7,355.8L398,431.2c-6.3,3.6-14.1,5.2-21.8,5.1V433c5.2,0,10.2-0.9,14.6-2.7c2.6-1,4.5-2.3,6.7-3.6
	c4.4-2.5-9.8,5.7,49.7-28.2c9.7-5.5,19.4-11.2,29.1-16.7s19.5-10.9,29.2-16.5c4-2.3,8-4.7,12.1-7c8-4.5,11.8-6.2,14.3-9.7
	c3.2-4.6,2.5-10.7-5.6-15.4c-0.3-0.1-279-158.8-280.3-159.4c-4.4-2.2-10.1-3.3-16.1-3.3v-3.3c3.9,0,7.6,0.4,11.2,1.1
	c3.7,0.8,7.2,2,10.5,3.9l278.6,158.5c2.3,1.3,4.5,2.9,6.2,5.1s2.8,5,2.8,7.6c0,0.8-0.1,1.4-0.3,2.2
	C538.5,350.1,534.4,353.7,530.7,355.8z"/>
<path class="st4" d="M251.4,176.9c-3.2-1.8-5-2.9-5.2-2.9c-4.4-2.2-10.1-3.3-16.1-3.3c-2.8,0-5.7,0.3-8.5,0.9
	c-5.7,1.1-8.5,2.9-12.8,5.5c-4,2.4,8-4.6-38.4,21.8l-11.4,6.5c-9.7,5.5-19.4,11.2-29.1,16.7c-2.7,1.5-5.3,3.1-8,4.5
	c-7.1,3.9-14.1,7.9-21.2,12c-4,2.3-8,4.7-12.1,7c-4.8,2.7-9.2,5-11.4,6.7c-5,3.9-6.3,9.5-2.2,14.4c2.3,2.7,4.1,3.4,12.1,8L205,341.8
	c73.5,41.9,154.4,87.8,155.1,88.2c4.7,2.2,10.3,3.3,16,3.3c5.2,0,10.2-0.9,14.6-2.7c2.6-1,4.5-2.3,6.7-3.6
	c4.4-2.5-9.8,5.7,49.7-28.2c9.7-5.5,19.4-11.2,29.1-16.7s19.5-10.9,29.2-16.5c4-2.3,8-4.7,12.1-7c8-4.5,11.8-6.2,14.3-9.7
	c3.1-4.5,2.6-10.2-4.7-14.8c-0.3-0.3-0.6-0.4-0.9-0.5C526.3,333.3,289.5,198.5,251.4,176.9z"/>
<linearGradient id="SVGID_1_" gradientUnits="userSpaceOnUse" x1="72.6628" y1="561.7587" x2="534.0747" y2="561.7587" gradientTransform="matrix(1 0 0 1 0 -260)">
	<stop  offset="0" style="stop-color:#5FACB1"/>
	<stop  offset="1" style="stop-color:#2B7C56"/>
</linearGradient>
<path class="st6" d="M527.6,333.8c7.2,4.6,7.8,10.3,4.7,14.8c-2.5,3.6-6.2,5.2-14.3,9.7c-4,2.3-8.1,4.6-12.1,7
	c-9.7,5.6-19.4,10.9-29.2,16.5c-9.7,5.5-19.4,11.2-29.1,16.7c-59.7,34-45.5,25.7-49.7,28.2c-2.3,1.4-4.1,2.5-6.7,3.6
	c-9.3,3.8-22.1,3.6-30.7-0.6C359,429,123,294.6,87.2,274.4c-8-4.6-9.8-5.3-12.1-8c-4.1-5-2.8-10.4,2.2-14.4
	c2.7-2.2,127.6-72.8,131.5-75.1c4.3-2.5,7.1-4.2,12.8-5.5c8.8-1.9,18.2-0.6,24.7,2.4C246.5,174,239,169.7,527.6,333.8z"/>
<path class="st7" d="M164.7,209.1c1.2-0.6,3.1-0.6,4.4,0l1.5,0.9L141,226.8c-1.2,0.6-3.1,0.6-4.4,0l-1.5-0.9L164.7,209.1z"/>
<path class="st8" d="M169,206l2.1,1.1c1.2,0.6,1.2,1.8,0,2.4l-0.4,0.3l-1.5-0.9c-1.2-0.6-3.1-0.6-4.4,0l-29.6,16.8l-0.4-0.3
	c-0.6-0.4-0.9-0.8-0.9-1.3s0.3-0.9,0.9-1.3l30-17.1C165.9,205.4,167.8,205.4,169,206z"/>
<g class="st9">
	<path class="st10" d="M194.8,240.6L134.4,275c-1.9,1.1-5.2,1.1-7.1,0s-1.9-2.9,0-4.1l60.5-34.4c1.9-1.1,5.2-1.1,7.1,0
		C196.9,237.7,196.9,239.6,194.8,240.6z"/>
	<path class="st10" d="M190.8,259.2l-42.2,24.1c-1.9,1.1-5.2,1.1-7.1,0c-1.9-1.1-1.9-2.9,0-4.1l42.2-24c1.9-1.1,5.2-1.1,7.1,0
		C192.8,256.3,192.8,258.1,190.8,259.2z"/>
	<path class="st10" d="M205,267.2l-42.2,24.1c-1.9,1.1-5.2,1.1-7.1,0c-1.9-1.1-1.9-2.9,0-4.1l42.2-24.1c1.9-1.1,5.2-1.1,7.1,0
		C207,264.3,207,266.1,205,267.2z"/>
</g>
<g class="st9">
	<path class="st10" d="M287.8,298.4l-60.5,34.4c-1.9,1.1-5.2,1.1-7.1,0c-1.9-1.1-1.9-2.9,0-4.1l60.5-34.4c1.9-1.1,5.2-1.1,7.1,0
		C289.8,295.5,289.8,297.4,287.8,298.4z"/>
	<path class="st10" d="M283.7,317l-42.2,24c-1.9,1.1-5.2,1.1-7.1,0c-1.9-1.1-1.9-2.9,0-4.1l42.2-24.1c1.9-1.1,5.2-1.1,7.1,0
		C285.6,314,285.6,315.8,283.7,317z"/>
	<path class="st10" d="M297.9,325l-42.2,24c-1.9,1.1-5.2,1.1-7.1,0c-1.9-1.1-1.9-2.9,0-4.1l42.2-24.1c1.9-1.1,5.2-1.1,7.1,0
		C299.9,322.1,299.9,323.8,297.9,325z"/>
</g>
<g class="st9">
	<path class="st10" d="M411.6,281.9l-60.5,34.4c-1.9,1.1-5.2,1.1-7.1,0s-1.9-2.9,0-4.1l60.5-34.4c1.9-1.1,5.2-1.1,7.1,0
		S413.5,280.7,411.6,281.9z"/>
	<path class="st10" d="M407.5,300.3l-42.2,24c-1.9,1.1-5.2,1.1-7.1,0s-1.9-2.9,0-4.1l42.2-24c1.9-1.1,5.2-1.1,7.1,0
		C409.4,297.4,409.4,299.3,407.5,300.3z"/>
	<path class="st10" d="M421.7,308.4l-42.2,24c-1.9,1.1-5.2,1.1-7.1,0s-1.9-2.9,0-4.1l42.2-24.1c1.9-1.1,5.2-1.1,7.1,0
		C423.6,305.5,423.6,307.3,421.7,308.4z"/>
</g>
<g class="st9">
	<path class="st10" d="M398.6,358.3l-60.5,34.4c-1.9,1.1-5.2,1.1-7.1,0s-1.9-2.9,0-4.1l60.5-34.4c1.9-1.1,5.2-1.1,7.1,0
		C400.5,355.4,400.5,357.3,398.6,358.3z"/>
	<path class="st10" d="M394.5,376.9l-42.2,23.9c-1.9,1.1-5.2,1.1-7.1,0s-1.9-2.9,0-4.1l42.2-24.1c1.9-1.1,5.2-1.1,7.1,0
		C396.5,374,396.5,375.8,394.5,376.9z"/>
	<path class="st10" d="M408.8,384.9l-42.2,24c-1.9,1.1-5.2,1.1-7.1,0s-1.9-2.9,0-4.1l42.2-24c1.9-1.1,5.2-1.1,7.1,0
		C410.7,382,410.7,383.8,408.8,384.9z"/>
</g>
<g class="st9">
	<path class="st10" d="M313.8,222l-60.5,34.4c-1.9,1.1-5.2,1.1-7.1,0s-1.9-2.9,0-4.1l60.5-34.4c1.9-1.1,5.2-1.1,7.1,0
		C315.7,219.1,315.7,221,313.8,222z"/>
	<path class="st10" d="M309.7,240.6l-42.2,23.9c-1.9,1.1-5.2,1.1-7.1,0s-1.9-2.9,0-4.1l42.2-24.1c1.9-1.1,5.2-1.1,7.1,0
		C311.7,237.7,311.7,239.5,309.7,240.6z"/>
	<path class="st10" d="M324,248.6l-42.2,24c-1.9,1.1-5.2,1.1-7.1,0s-1.9-2.9,0-4.1l42.2-24c1.9-1.1,5.2-1.1,7.1,0
		C325.9,245.7,325.9,247.5,324,248.6z"/>
</g>
</svg>
