<?xml version="1.0" encoding="utf-8"?>
<!-- Generator: Adobe Illustrator 21.1.0, SVG Export Plug-In . SVG Version: 6.00 Build 0)  -->
<svg version="1.1" id="Layer_1" xmlns="http://www.w3.org/2000/svg" xmlns:xlink="http://www.w3.org/1999/xlink" x="0px" y="0px"
	 viewBox="0 0 561 531" style="enable-background:new 0 0 561 531;" xml:space="preserve">
<style type="text/css">
	.st0{fill:#0F4444;}
</style>
<path class="st0" d="M458.4,459.1c7,3.9,7,10.4,0,14.4c-7,3.9-18.3,3.9-25.3,0c-7-3.9-7-10.4,0-14.4
	C440,455.2,451.4,455.2,458.4,459.1z"/>
<path class="st0" d="M196.3,369.7L100,424.5c-3.1,1.8-8.1,1.8-11.4,0c-3.1-1.8-3.1-4.7,0-6.5l96.2-54.8c3.1-1.8,8.1-1.8,11.4,0
	C199.5,364.9,199.5,367.9,196.3,369.7z"/>
<path class="st0" d="M270.7,327.3l-50.9,29c-3.1,1.8-8.1,1.8-11.4,0c-3.1-1.8-3.1-4.7,0-6.5l50.9-29c3.1-1.8,8.1-1.8,11.4,0
	C273.9,322.6,273.9,325.5,270.7,327.3z"/>
<path class="st0" d="M224.8,324.6l-96.2,54.8c-3.1,1.8-8.1,1.8-11.4,0c-3.1-1.8-3.1-4.7,0-6.5l96.2-54.8c3.1-1.8,8.1-1.8,11.4,0
	C228,319.9,228,322.8,224.8,324.6z"/>
<path class="st0" d="M348,254.5l-96.2,54.8c-3.1,1.8-8.1,1.8-11.4,0c-3.1-1.8-3.1-4.7,0-6.5l96.2-54.8c3.1-1.8,8.1-1.8,11.4,0
	C351.1,249.9,351.1,252.7,348,254.5z"/>
<path class="st0" d="M397.2,256.1L301,310.9c-3.1,1.8-8.1,1.8-11.4,0c-3.1-1.8-3.1-4.7,0-6.5l96.2-54.8c3.1-1.8,8.1-1.8,11.4,0
	C400.3,251.4,400.3,254.3,397.2,256.1z"/>
<path class="st0" d="M221.6,384l-28.2,16c-3.1,1.8-8.1,1.8-11.4,0c-3.1-1.8-3.1-4.7,0-6.5l28.2-16c3.1-1.8,8.1-1.8,11.4,0
	C224.7,379.3,224.7,382.2,221.6,384z"/>
<path class="st0" d="M463.3,246.5l-28.2,16c-3.1,1.8-8.1,1.8-11.4,0c-3.1-1.8-3.1-4.7,0-6.5l28.2-16c3.1-1.8,8.1-1.8,11.4,0
	C466.4,241.8,466.4,244.7,463.3,246.5z"/>
<path class="st0" d="M359.7,385.8l-96.4,54.8c-3.1,1.8-8.1,1.8-11.4,0c-3.1-1.8-3.1-4.7,0-6.5l96.2-54.8c3.1-1.8,8.1-1.8,11.4,0
	C362.8,381.2,362.8,384,359.7,385.8z"/>
<path class="st0" d="M402.9,223.4l-28.2,16c-3.1,1.8-8.1,1.8-11.4,0c-3.1-1.8-3.1-4.7,0-6.5l28.2-16c3.1-1.8,8.1-1.8,11.4,0
	C406,218.9,406,221.7,402.9,223.4z"/>
<path class="st0" d="M351.3,474.9L255,529.7c-3.1,1.8-8.1,1.8-11.4,0c-3.1-1.8-3.1-4.7,0-6.5l96.2-54.8c3.1-1.8,8.1-1.8,11.4,0
	C354.4,470.2,354.4,473.1,351.3,474.9z"/>
<path class="st0" d="M425.7,432.5l-50.9,29c-3.1,1.8-8.1,1.8-11.4,0c-3.1-1.8-3.1-4.7,0-6.5l50.9-29c3.1-1.8,8.1-1.8,11.4,0
	C428.8,427.8,428.8,430.7,425.7,432.5z"/>
<path class="st0" d="M379.8,429.8l-96.2,54.8c-3.1,1.8-8.1,1.8-11.4,0c-3.1-1.8-3.1-4.7,0-6.5l96.2-54.8c3.1-1.8,8.1-1.8,11.4,0
	C382.9,425.1,382.9,428.1,379.8,429.8z"/>
<path class="st0" d="M502.9,359.9l-96.2,54.8c-3.1,1.8-8.1,1.8-11.4,0c-3.1-1.8-3.1-4.7,0-6.5l96.2-54.8c3.1-1.8,8.1-1.8,11.4,0
	C506.2,355.1,506.2,358.1,502.9,359.9z"/>
<path class="st0" d="M558.3,385.8l-96.2,54.8c-3.1,1.8-8.1,1.8-11.4,0c-3.1-1.8-3.1-4.7,0-6.5l96.2-54.8c3.1-1.8,8.1-1.8,11.4,0
	C561.4,381.1,561.4,384,558.3,385.8z"/>
<path class="st0" d="M376.6,489.3l-28.2,16c-3.1,1.8-8.1,1.8-11.4,0c-3.1-1.8-3.1-4.7,0-6.5l28.2-16c3.1-1.8,8.1-1.8,11.4,0
	C379.7,484.6,379.7,487.5,376.6,489.3z"/>
<path class="st0" d="M399.1,390.3l-96.2,54.8c-3.1,1.8-8.1,1.8-11.4,0c-3.1-1.8-3.1-4.7,0-6.5l96.2-54.8c3.1-1.8,8.1-1.8,11.4,0
	C402.2,385.6,402.2,388.5,399.1,390.3z"/>
<path class="st0" d="M459,356l-28.2,16c-3.1,1.8-8.1,1.8-11.4,0c-3.1-1.8-3.1-4.7,0-6.5l28.2-16c3.1-1.8,8.1-1.8,11.4,0
	C462.1,351.5,462.1,354.3,459,356z"/>
<path class="st0" d="M285.3,402.5L189,457.3c-3.1,1.8-8.1,1.8-11.4,0c-3.1-1.8-3.1-4.7,0-6.5l96.2-54.8c3.1-1.8,8.1-1.8,11.4,0
	C288.4,397.8,288.4,400.7,285.3,402.5z"/>
<path class="st0" d="M359.7,360.2l-50.9,29c-3.1,1.8-8.1,1.8-11.4,0c-3.1-1.8-3.1-4.7,0-6.5l50.9-29c3.1-1.8,8.1-1.8,11.4,0
	C362.8,355.5,362.8,358.5,359.7,360.2z"/>
<path class="st0" d="M313.8,357.6l-96.4,54.7c-3.1,1.8-8.1,1.8-11.4,0c-3.1-1.8-3.1-4.7,0-6.5l96.2-54.8c3.1-1.8,8.1-1.8,11.4,0
	C316.9,352.9,316.9,355.8,313.8,357.6z"/>
<path class="st0" d="M436.9,287.5l-96.2,54.8c-3.1,1.8-8.1,1.8-11.4,0c-3.1-1.8-3.1-4.7,0-6.5l96.2-54.8c3.1-1.8,8.1-1.8,11.4,0
	C440,282.7,440,285.7,436.9,287.5z"/>
<path class="st0" d="M492.2,313.5L396,368.4c-3.1,1.8-8.1,1.8-11.4,0c-3.1-1.8-3.1-4.7,0-6.5l96.2-54.8c3.1-1.8,8.1-1.8,11.4,0
	C495.3,308.8,495.3,311.8,492.2,313.5z"/>
<path class="st0" d="M177.3,321.2l-28.2,16c-3.1,1.8-8.1,1.8-11.4,0c-3.1-1.8-3.1-4.7,0-6.5l28.2-16c3.1-1.8,8.1-1.8,11.4,0
	C180.5,316.5,180.5,319.4,177.3,321.2z"/>
<path class="st0" d="M552.1,279.3l-28.2,16c-3.1,1.8-8.1,1.8-11.4,0c-3.1-1.8-3.1-4.7,0-6.5l28.2-16c3.1-1.8,8.1-1.8,11.4,0
	C555.2,274.7,555.2,277.5,552.1,279.3z"/>
<path class="st0" d="M332.9,317.9l-96.2,54.8c-3.1,1.8-8.1,1.8-11.4,0c-3.1-1.8-3.1-4.7,0-6.5l96.2-54.8c3.1-1.8,8.1-1.8,11.4,0
	C336,313.2,336,316.1,332.9,317.9z"/>
<path class="st0" d="M392.9,283.8l-28.2,16c-3.1,1.8-8.1,1.8-11.4,0c-3.1-1.8-3.1-4.7,0-6.5l28.2-16c3.1-1.8,8.1-1.8,11.4,0
	C396,279.1,396,282,392.9,283.8z"/>
<path class="st0" d="M104,337.5L13,389.2c-3,1.7-7.8,1.7-10.7,0c-3-1.7-3-4.5,0-6.1l91.1-51.8c3-1.7,7.8-1.7,10.7,0
	C107,333,107,335.8,104,337.5z"/>
<path class="st0" d="M174.3,297.4l-48.1,27.4c-3,1.7-7.8,1.7-10.7,0c-3-1.7-3-4.5,0-6.1l48.2-27.4c3-1.7,7.8-1.7,10.7,0
	C177.3,292.9,177.3,295.7,174.3,297.4z"/>
<path class="st0" d="M131,294.8l-91.1,51.8c-3,1.7-7.8,1.7-10.7,0s-3-4.5,0-6.1l91.1-51.8c3-1.7,7.8-1.7,10.7,0
	C134,290.5,134,293.2,131,294.8z"/>
<path class="st0" d="M247.4,228.5l-91.1,51.8c-3,1.7-7.8,1.7-10.7,0c-3-1.7-3-4.5,0-6.1l91.1-51.8c3-1.7,7.8-1.7,10.7,0
	C250.4,224.2,250.4,226.9,247.4,228.5z"/>
<path class="st0" d="M299.7,253.2L208.7,305c-3,1.7-7.8,1.7-10.7,0c-3-1.7-3-4.5,0-6.1l91.1-51.8c3-1.7,7.8-1.7,10.7,0
	C302.7,248.8,302.7,251.6,299.7,253.2z"/>
<path class="st0" d="M278.6,458.3L252,473.5c-3,1.7-7.8,1.7-10.7,0c-3-1.7-3-4.5,0-6.1l26.6-15.1c3-1.7,7.8-1.7,10.7,0
	C281.6,453.9,281.6,456.6,278.6,458.3z"/>
<path class="st0" d="M356.4,220.9L329.8,236c-3,1.7-7.8,1.7-10.7,0c-3-1.7-3-4.5,0-6.1l26.6-15.1c3-1.7,7.8-1.7,10.7,0
	C359.4,216.6,359.4,219.2,356.4,220.9z"/>
<path class="st0" d="M149.1,257.3L58,309.2c-3,1.7-7.8,1.7-10.7,0c-3-1.7-3-4.5,0-6.1l91.1-51.8c3-1.7,7.8-1.7,10.7,0
	C152.1,253,152.1,255.6,149.1,257.3z"/>
<path class="st0" d="M205.8,225.1l-26.6,15.1c-3,1.7-7.8,1.7-10.7,0c-3-1.7-3-4.5,0-6.1l26.6-15.1c3-1.7,7.8-1.7,10.7,0
	C208.8,220.6,208.8,223.4,205.8,225.1z"/>
<path class="st0" d="M300.2,229l-96.2,54.8c-3.1,1.8-8.1,1.8-11.4,0c-3.1-1.8-3.1-4.7,0-6.5l96.2-54.8c3.1-1.8,8.1-1.8,11.4,0
	C303.3,224.3,303.3,227.2,300.2,229z"/>
<path class="st0" d="M555,356.2l-50.9,29c-3.1,1.8-8.1,1.8-11.4,0c-3.1-1.8-3.1-4.7,0-6.5l50.9-29c3.1-1.8,8.1-1.8,11.4,0
	C558.1,351.5,558.1,354.4,555,356.2z"/>
<path class="st0" d="M459.1,304.1l-50.9,29c-3.1,1.8-8.1,1.8-11.4,0c-3.1-1.8-3.1-4.7,0-6.5l50.9-29c3.1-1.8,8.1-1.8,11.4,0
	C462.2,299.4,462.2,302.3,459.1,304.1z"/>
</svg>
