<?xml version="1.0" encoding="utf-8"?>
<!-- Generator: Adobe Illustrator 21.1.0, SVG Export Plug-In . SVG Version: 6.00 Build 0)  -->
<svg version="1.1" id="Layer_1" xmlns="http://www.w3.org/2000/svg" xmlns:xlink="http://www.w3.org/1999/xlink" x="0px" y="0px"
	 viewBox="0 0 84 65.6" style="enable-background:new 0 0 84 65.6;" xml:space="preserve">
<style type="text/css">
	.st0{fill:#1EEBCD;}
	.st1{fill:#263238;}
</style>
<g id="freepik--speech-bubble--inject-82">
	<g id="freepik--Code--inject-82">
		<path class="st0" d="M22,62.8L0,47.3v-8.2l22-15.7v8.3L6.2,43.1L22,54.5V62.8z"/>
		<path class="st0" d="M28.7,65.6L45.5,3.3h7.1L35.8,65.6H28.7z"/>
		<path class="st0" d="M59.2,62.8v-8.2L75,43.1L59.2,31.7v-8.3L81.3,39v8.2L59.2,62.8z"/>
		<path class="st1" d="M24.7,59.4l-22-15.5v-8.2l22-15.7v8.3L8.9,39.7l15.8,11.4V59.4z"/>
		<path class="st1" d="M31.4,62.2L48.2,0h7.1L38.5,62.2H31.4z"/>
		<path class="st1" d="M61.9,59.4v-8.2l15.9-11.5L61.9,28.3V20L84,35.6v8.2L61.9,59.4z"/>
	</g>
</g>
</svg>
