<svg id="Layer_1" xmlns="http://www.w3.org/2000/svg" viewBox="0 0 500 500">
    <style type="text/css">
        .st0{fill:#263238;}
    </style>
    <g id="freepik--Gears--inject-82">
        <path class="st0" d="M410.4,196.7h-8.7l-1.1-7.6c-3.6-0.7-7-2.1-10-4.2l-6.1,4.6l-6.1-6.1l4.6-6.1c-2-3-3.4-6.4-4.1-10l-7.6-1.1
		v-8.7l7.6-1.1c0.7-3.6,2.1-7,4.2-10l-4.6-6.1l6.1-6.1l6.1,4.6c3-2,6.4-3.4,10-4.1l1.1-7.6h8.7l1.1,7.6c3.6,0.7,7,2.1,10,4.2
		l6.1-4.6l6.1,6.1l-4.6,6.1c2,3,3.4,6.4,4.1,10l7.6,1.1v8.7l-7.6,1.1c-0.7,3.6-2.1,7-4.2,10l4.6,6.1l-6.1,6.1l-6.1-4.6
		c-3,2-6.4,3.4-10,4.1L410.4,196.7z M402.5,195.7h7l1.1-7.4l0.4-0.1c3.7-0.7,7.2-2.1,10.3-4.2l0.3-0.2l6,4.5l4.9-4.9l-4.5-6l0.2-0.3
		c2.1-3.1,3.6-6.6,4.3-10.3l0.1-0.4l7.5-1.1v-7l-7.4-1.1l-0.1-0.4c-0.7-3.7-2.1-7.2-4.2-10.3l-0.2-0.3l4.5-6l-4.9-4.9l-6,4.5
		l-0.3-0.2c-3.1-2.1-6.6-3.6-10.3-4.3l-0.4-0.1l-1.1-7.4h-7l-1.1,7.4l-0.4,0.1c-3.7,0.7-7.2,2.1-10.3,4.2l-0.3,0.2l-6-4.5l-4.9,4.9
		l4.5,6l-0.2,0.3c-2.1,3.1-3.6,6.6-4.3,10.3l-0.1,0.4l-7.5,1.1v7l7.4,1.1l0.1,0.4c0.7,3.7,2.2,7.2,4.3,10.3l0.2,0.3l-4.5,6l4.9,4.9
		l6-4.5l0.3,0.2c3.1,2.1,6.6,3.6,10.3,4.3l0.4,0.1L402.5,195.7z M406.1,181.3c-10.8,0-19.5-8.7-19.5-19.5s8.7-19.5,19.5-19.5
		c10.8,0,19.5,8.7,19.5,19.5C425.6,172.6,416.9,181.3,406.1,181.3z M406.1,143.4c-10.2,0-18.5,8.3-18.5,18.5s8.3,18.5,18.5,18.5
		c10.2,0,18.5-8.3,18.5-18.5c0,0,0,0,0,0C424.6,151.6,416.3,143.4,406.1,143.4L406.1,143.4z"/>
        <path class="st0" d="M440.8,234.8h-6.5l-0.8-5.5c-2.5-0.5-4.9-1.5-7-2.9l-4.4,3.3l-4.6-4.6l3.3-4.4c-1.4-2.1-2.4-4.5-2.9-7
		l-5.4-0.8v-6.5l5.5-0.8c0.5-2.5,1.5-4.9,2.9-7l-3.3-4.4l4.6-4.6l4.4,3.3c2.1-1.4,4.5-2.4,7-2.9l0.8-5.4h6.5l0.8,5.5
		c2.5,0.5,4.9,1.5,7,2.9l4.4-3.3l4.6,4.6l-3.3,4.4c1.4,2.1,2.4,4.5,2.9,7l5.4,0.8v6.5l-5.5,0.8c-0.5,2.5-1.5,4.9-2.9,7l3.3,4.4
		l-4.5,4.6l-4.4-3.3c-2.1,1.4-4.5,2.4-7,2.9L440.8,234.8z M435.2,233.8h4.7l0.8-5.3l0.4-0.1c2.6-0.5,5.1-1.5,7.3-3l0.3-0.2l4.3,3.2
		l3.3-3.4l-3.2-4.3l0.2-0.3c1.5-2.2,2.6-4.7,3-7.3l0.1-0.4l5.3-0.8v-4.7l-5.3-0.8l-0.1-0.4c-0.5-2.6-1.5-5.1-3-7.3l-0.2-0.3l3.2-4.3
		L453,191l-4.3,3.2l-0.3-0.2c-2.2-1.5-4.7-2.6-7.3-3.1l-0.4-0.1l-0.8-5.3h-4.7l-0.8,5.3l-0.4,0.1c-2.6,0.5-5.1,1.5-7.3,3l-0.3,0.2
		l-4.3-3.1l-3.3,3.4l3.2,4.3l-0.2,0.3c-1.5,2.2-2.6,4.7-3,7.3l-0.1,0.4l-5.3,0.8v4.7l5.3,0.8l0.1,0.4c0.5,2.6,1.5,5.1,3,7.3l0.2,0.3
		l-3.2,4.3l3.3,3.4l4.3-3.2l0.3,0.2c2.2,1.5,4.7,2.5,7.3,3l0.4,0.1L435.2,233.8z M437.6,223.8c-7.8,0-14.1-6.3-14.1-14.1
		c0-7.8,6.3-14.1,14.1-14.1c7.8,0,14.1,6.3,14.1,14.1C451.6,217.5,445.4,223.7,437.6,223.8L437.6,223.8z M437.6,196.6
		c-7.2,0-13.1,5.9-13.1,13.1c0,7.2,5.9,13.1,13.1,13.1c7.2,0,13.1-5.9,13.1-13.1C450.7,202.5,444.8,196.6,437.6,196.6L437.6,196.6z"
        />
        <path class="st0" d="M101.8,244.2h-8l-1-6.9c-3.3-0.7-6.3-1.9-9.1-3.8l-5.6,4.2l-5.7-5.6l4.2-5.6c-1.8-2.8-3.1-5.9-3.7-9.1l-6.9-1
		v-8l6.9-1c0.7-3.2,1.9-6.3,3.8-9.1l-4.2-5.6l5.7-5.7l5.6,4.2c2.8-1.8,5.9-3.1,9.2-3.8l1-6.9h8l1,6.9c3.2,0.7,6.3,1.9,9.1,3.8
		l5.6-4.2l5.7,5.7l-4.2,5.6c1.8,2.8,3.1,5.9,3.7,9.1l6.9,1v8l-7,1c-0.7,3.3-1.9,6.3-3.8,9.1l4.2,5.6l-5.7,5.7l-5.6-4.2
		c-2.8,1.8-5.9,3.1-9.1,3.7L101.8,244.2z M94.7,243.2h6.3l1-6.8l0.4-0.1c3.4-0.6,6.6-1.9,9.4-3.9l0.3-0.2l5.5,4.1l4.4-4.4l-4.1-5.5
		l0.2-0.3c2-2.8,3.3-6,3.9-9.4l0.1-0.4l6.8-1v-6.3l-6.8-1l-0.1-0.4c-0.6-3.4-1.9-6.6-3.8-9.4l-0.2-0.3l4.1-5.5l-4.4-4.4l-5.5,4.1
		l-0.3-0.2c-2.8-1.9-6-3.3-9.3-3.9l-0.3-0.1l-1-6.8h-6.3l-1,6.8l-0.3,0.1c-3.4,0.6-6.6,1.9-9.4,3.9l-0.3,0.2l-5.5-4.1l-4.4,4.4
		l4.1,5.5l-0.2,0.3c-2,2.8-3.3,6-3.9,9.4l-0.1,0.4l-6.8,1v6.3l6.8,1l0.1,0.4c0.6,3.4,1.9,6.6,3.8,9.4l0.2,0.3l-4.1,5.5l4.4,4.4
		l5.5-4.1l0.3,0.2c2.8,1.9,6,3.3,9.4,3.9l0.3,0.1L94.7,243.2z M97.9,230.2c-9.8,0-17.8-8-17.8-17.8c0-9.8,8-17.8,17.8-17.8
		s17.8,8,17.8,17.8c0,0,0,0,0,0C115.7,222.2,107.7,230.1,97.9,230.2L97.9,230.2z M97.9,195.6c-9.3,0-16.8,7.5-16.8,16.8
		s7.5,16.8,16.8,16.8s16.8-7.5,16.8-16.8c0,0,0,0,0,0C114.7,203.1,107.2,195.5,97.9,195.6C97.9,195.5,97.9,195.5,97.9,195.6
		L97.9,195.6z"/>
        <path class="st0" d="M70.6,191.7h-5.2l-0.6-4.3c-1.9-0.4-3.7-1.2-5.4-2.2l-3.4,2.6l-3.7-3.7l2.6-3.4c-1.1-1.6-1.8-3.5-2.2-5.4
		l-4.3-0.6v-5.2l4.3-0.6c0.4-1.9,1.2-3.7,2.2-5.4l-2.6-3.4l3.7-3.7l3.5,2.6c1.6-1.1,3.5-1.8,5.4-2.2l0.6-4.3h5.2l0.6,4.3
		c1.9,0.4,3.7,1.2,5.4,2.2l3.4-2.6l3.7,3.7l-2.6,3.4c1.1,1.6,1.8,3.5,2.2,5.4l4.3,0.6v5.2l-4.3,0.6c-0.4,1.9-1.2,3.7-2.2,5.4
		l2.6,3.4l-3.6,3.7l-3.4-2.6c-1.6,1.1-3.5,1.8-5.4,2.2L70.6,191.7z M66.2,190.7h3.5l0.6-4.1l0.4-0.1c2-0.4,3.9-1.2,5.6-2.3l0.3-0.2
		l3.3,2.5l2.5-2.5l-2.5-3.3l0.2-0.3c1.2-1.7,2-3.6,2.3-5.6l0.1-0.4l4.1-0.6v-3.5l-4.1-0.6l-0.1-0.4c-0.4-2-1.2-4-2.3-5.6l-0.2-0.3
		l2.5-3.3l-2.5-2.5l-3.3,2.5l-0.3-0.2c-1.7-1.2-3.6-2-5.6-2.4l-0.3-0.1l-0.6-4.1h-3.5l-0.6,4.1l-0.4,0.1c-2,0.4-3.9,1.2-5.6,2.3
		l-0.3,0.2l-3.3-2.5l-2.5,2.5l2.5,3.3l-0.2,0.3c-1.2,1.7-2,3.6-2.3,5.6l-0.1,0.4l-4.1,0.6v3.5l4.1,0.6l0.1,0.4c0.4,2,1.2,4,2.3,5.6
		l0.2,0.3l-2.5,3.3l2.5,2.5l3.3-2.5l0.3,0.2c1.7,1.2,3.6,2,5.6,2.4l0.3,0.1L66.2,190.7z M68,183.1c-6.1,0-11.1-4.9-11.1-11
		s4.9-11.1,11-11.1S79,165.9,79,172c0,0,0,0,0,0C79,178.1,74.1,183,68,183.1z M68,162c-5.6,0-10.1,4.4-10.1,10s4.4,10.1,10,10.1
		s10.1-4.4,10.1-10c0,0,0-0.1,0-0.1C78,166.5,73.5,162,68,162z"/>
        <path class="st0" d="M246.3,120.1h-6.9l-0.8-5.8c-2.7-0.5-5.3-1.6-7.5-3.2l-4.7,3.5l-4.9-4.8l3.5-4.7c-1.5-2.3-2.6-4.9-3.1-7.5
		l-5.8-0.8v-6.9L222,89c0.5-2.7,1.6-5.3,3.1-7.5l-3.5-4.7l4.9-4.8l4.7,3.5c2.3-1.5,4.9-2.6,7.6-3.1l0.8-5.8h6.9l0.8,5.8
		c2.7,0.5,5.3,1.6,7.5,3.2l4.7-3.6l4.9,4.8l-3.5,4.7c1.5,2.3,2.6,4.9,3.1,7.6l5.8,0.8v6.8l-5.8,0.8c-0.5,2.7-1.6,5.2-3.1,7.5
		l3.5,4.7l-4.9,4.8l-4.7-3.5c-2.3,1.5-4.9,2.6-7.6,3.1L246.3,120.1z M240.3,119.1h5.1l0.8-5.7l0.4-0.1c2.8-0.5,5.5-1.6,7.8-3.2
		l0.3-0.2l4.6,3.4l3.7-3.6l-3.4-4.6l0.2-0.3c1.6-2.3,2.7-5,3.3-7.8l0.1-0.3l5.7-0.8v-5.1l-5.7-0.8l-0.1-0.3
		c-0.5-2.8-1.6-5.5-3.2-7.8l-0.2-0.3L263,77l-3.6-3.6l-4.6,3.4l-0.3-0.2c-2.3-1.6-5-2.7-7.8-3.3l-0.4-0.1l-0.8-5.7h-5.1l-0.8,5.7
		l-0.4,0.1c-2.8,0.5-5.5,1.6-7.8,3.2l-0.3,0.2l-4.6-3.4l-3.5,3.6l3.4,4.6l-0.2,0.3c-1.6,2.3-2.7,5-3.3,7.8l-0.1,0.3l-5.7,0.8v5.1
		l5.6,0.8l0.1,0.3c0.5,2.8,1.6,5.5,3.2,7.8l0.2,0.3l-3.4,4.6l3.6,3.6l4.6-3.4l0.3,0.2c2.3,1.6,5,2.7,7.8,3.3l0.4,0.1L240.3,119.1z
		 M243,108.3c-8.3,0-15-6.7-15-15s6.7-15,15-15s15,6.7,15,15l0,0C258,101.6,251.3,108.3,243,108.3z M243,79.3c-7.7,0-14,6.3-14,14
		s6.3,14,14,14s14-6.3,14-14C257,85.6,250.7,79.3,243,79.3C243,79.3,243,79.3,243,79.3L243,79.3z"/>
    </g>
</svg>
