<svg xmlns="http://www.w3.org/2000/svg" viewBox="0 0 500 500">
    <style type="text/css">
        .st0{fill:#263238;}
        .st1{fill:#FFFFFF;}
        .st2{fill:#1EEBCD;}
    </style>
    <g id="freepik--hand-2--inject-82">
        <path class="st0"
              d="M333.8,383.5l34.6,28.6c1.7,4.1,4,8,6.8,11.6c4.8,6.1,60.6,29.3,60.6,29.3l9.5,2.7l-104.2-78.3L333.8,383.5z"
        />
        <path class="st0" d="M445.4,456.2c0,0-0.1,0-0.1,0l-9.5-2.7c-2.3-1-56.1-23.3-60.9-29.5c-2.8-3.5-5.1-7.4-6.8-11.6l-34.5-28.5
		c-0.1-0.1-0.2-0.2-0.2-0.4c0-0.1,0.1-0.3,0.2-0.4l7.4-6.1c0.2-0.1,0.4-0.1,0.6,0l104.2,78.3c0.2,0.1,0.3,0.4,0.1,0.6
		C445.8,456.1,445.6,456.2,445.4,456.2z M334.6,383.5l34.2,28.2c0.1,0.1,0.1,0.1,0.1,0.2c1.7,4.1,4,8,6.7,11.5
		c4.6,6,59.8,28.9,60.4,29.1l6.9,2L341.2,378L334.6,383.5z"/>
        <path class="st1" d="M401.3,360.8c0,0-9.3-11.4-13.4-18.6s-10-24.1-14.5-34.1s-11-13.1-18.9-16.2s-11-2.4-11-0.3s3.1,5.9,3.1,5.9
		l-13.4,2.4c0,0-5.5-3.1-9-2.1s-10,7.6-10,7.6s-6.9-2.4-11-1.4s-15.5,6.5-20.3,9s-10,2.8-9.6,4.8s5.2,5.5,9.6,4.8s12-3.5,16.9-3.5
		s7.2,1,9.6,2.8s12.4,15.8,13.8,17.5s2.8,8.6,2.8,8.6s-6.1-2.6-9.9-6s-9.2-11.5-15.4-12.2s-12.9,4.8-9.5,7.6s6.9,4.5,9.3,7.6
		s6.2,12.4,12.7,22.4s20.6,16.2,20.6,16.2l29.3,12c0,0,7.6-17.9,21.7-22.7S403,366,403,366L401.3,360.8z"/>
        <path class="st0" d="M363.1,396.1c-0.1,0-0.1,0-0.2,0L333.6,384c-0.1-0.1-14.3-6.4-20.9-16.4c-3.2-4.9-6.1-10.1-8.7-15.3
		c-1.2-2.4-2.5-4.8-4-7c-1.7-2-3.6-3.6-5.8-5c-1.1-0.8-2.2-1.6-3.4-2.5c-1.1-0.8-1.4-2.2-0.9-3.4c1.1-2.8,6.1-5.6,10.7-5.1
		s9.1,5.2,12.5,9c1.1,1.3,2.2,2.5,3.2,3.3c2.7,2.2,5.7,4.1,8.8,5.5c-0.5-2.3-1.5-6.3-2.5-7.4c-0.3-0.4-1.2-1.5-2.3-3.1
		c-3.4-4.6-9.6-13.1-11.4-14.4c-2.4-1.7-4.6-2.7-9.3-2.7c-2.9,0-7,1.1-10.6,2c-2.3,0.6-4.5,1.2-6.2,1.4c-4.6,0.7-9.8-2.8-10.2-5.2
		c-0.3-1.7,1.8-2.4,4.6-3.3c1.8-0.5,3.6-1.2,5.3-2c2.6-1.3,15.8-7.8,20.4-9c3.8-1,9.6,0.8,11,1.3c1.2-1.2,6.8-6.5,10-7.5
		s8.2,1.5,9.2,2l12.4-2.2c-0.9-1.2-2.7-3.8-2.7-5.5c0-0.7,0.3-1.3,0.9-1.7c1.6-1.1,5.4-0.5,10.8,1.6c8.1,3.2,14.7,6.4,19.2,16.4
		c1.8,3.9,3.7,8.8,5.7,13.9c3.1,7.7,6.2,15.7,8.7,20.1c4.1,7.1,13.3,18.4,13.4,18.5c0,0,0.1,0.1,0.1,0.2l1.7,5.2
		c0.1,0.2,0,0.5-0.3,0.6c-0.2,0.1-4.3,2.1-18.3,6.9c-13.7,4.7-21.3,22.3-21.4,22.4C363.5,396,363.3,396.1,363.1,396.1z M299.6,330.3
		c-3.9,0-7.8,2.3-8.7,4.5c-0.4,0.8-0.2,1.7,0.6,2.2c1.1,0.9,2.3,1.7,3.3,2.5c2.2,1.4,4.3,3.2,6,5.2c1.5,2.3,2.9,4.7,4.1,7.2
		c2.6,5.2,5.5,10.3,8.7,15.2c6.4,9.7,20.3,15.9,20.4,16l28.8,11.9c1.3-2.8,8.9-18.1,21.8-22.5c11.6-4,16.5-6.1,17.8-6.7l-1.5-4.7
		c-0.8-1-9.5-11.7-13.4-18.6c-2.5-4.4-5.7-12.5-8.8-20.2c-2-5.1-4-10-5.7-13.9c-4.4-9.7-10.5-12.7-18.6-15.9
		c-7.1-2.8-9.3-2.1-9.9-1.7c-0.3,0.2-0.5,0.5-0.4,0.9c0,1.5,2.1,4.5,3,5.5c0.2,0.2,0.1,0.5-0.1,0.7c-0.1,0.1-0.1,0.1-0.2,0.1
		l-13.4,2.4c-0.1,0-0.2,0-0.3-0.1c0,0-5.4-3-8.6-2s-9.7,7.4-9.8,7.4c-0.1,0.1-0.3,0.2-0.5,0.1c-0.1,0-6.8-2.3-10.7-1.4
		c-3.5,0.9-13.1,5.4-20.2,8.9c-1.7,0.8-3.6,1.5-5.4,2.1c-2.2,0.7-4.1,1.3-4,2.2c0.3,1.8,4.9,5,9.1,4.4c1.7-0.3,3.8-0.8,6.1-1.4
		c3.7-1,7.8-2,10.8-2c5,0,7.5,1.1,9.9,2.9c1.8,1.3,6.9,8.2,11.6,14.6c1.1,1.5,1.9,2.6,2.3,3c1.4,1.8,2.8,8.5,2.9,8.8
		c0,0.2,0,0.4-0.2,0.5c-0.1,0.1-0.3,0.1-0.5,0.1c-3.6-1.6-7-3.6-10-6.1c-1-0.9-2.1-2.1-3.3-3.4c-3.3-3.6-7.4-8.2-11.9-8.7
		C300.3,330.3,299.9,330.3,299.6,330.3z"/>
        <path class="st0" d="M273.3,318.3c-0.3,0-0.5-0.2-0.6-0.4s0.2-0.5,0.4-0.6c0,0,3.4-0.9,4.3-1.2c0.7-0.3,1.3-0.7,1.9-1.2
		c0.2-0.2,0.5-0.1,0.7,0.1c0.2,0.2,0.2,0.5,0,0.7c0,0,0,0,0,0c-0.7,0.6-1.4,1.1-2.3,1.4c-1,0.3-4.2,1.1-4.4,1.2L273.3,318.3z"/>
        <path class="st0" d="M346.9,333c-0.1,0-0.2,0-0.3-0.1c-2.3-2.3-4-5.3-5-8.5c-1.2-4-4.9-6-6.9-7l-0.4-0.2
		c-4.4-2.4-20.2-11.2-20.3-11.3c-0.2-0.1-0.3-0.4-0.2-0.7c0.1-0.2,0.4-0.3,0.7-0.2c0,0,0,0,0,0c0.2,0.1,15.9,8.9,20.3,11.3l0.4,0.2
		c2,1,6.1,3.2,7.4,7.6c0.9,3,2.5,5.8,4.7,8c0.2,0.2,0.2,0.5,0,0.7C347.2,333,347,333,346.9,333L346.9,333z"/>
        <path class="st0" d="M359.6,323.1c-0.2,0-0.4-0.1-0.5-0.3c0,0-1.7-3.5-3.4-6.5c-1.3-2.4-4-3-5.5-3.4c-0.3-0.1-0.6-0.1-0.8-0.2
		c-1.1-0.4-14.1-10.5-16.7-12.5c-0.2-0.2-0.3-0.5-0.1-0.7c0.2-0.2,0.5-0.3,0.7-0.1c0,0,0,0,0,0c5.9,4.6,15.5,12,16.4,12.3
		c0.1,0,0.4,0.1,0.7,0.2c1.5,0.3,4.6,1.1,6.1,3.8c1.7,3.1,3.4,6.5,3.5,6.6c0.1,0.2,0,0.5-0.2,0.7c0,0,0,0,0,0
		C359.8,323.1,359.7,323.1,359.6,323.1z"/>
        <path class="st0" d="M365.1,315.2c-0.1,0-0.3-0.1-0.4-0.2c-0.4-0.4-9-10.1-11.1-14.2c-1.9-3.7-7-2.8-7-2.8c-0.3,0-0.5-0.1-0.6-0.4
		c0-0.3,0.1-0.5,0.4-0.6c0.1,0,5.9-1.1,8.1,3.4c2,4,10.9,13.9,10.9,14c0.2,0.2,0.2,0.5,0,0.7C365.4,315.2,365.3,315.2,365.1,315.2z"
        />
        <path class="st0" d="M297.4,342.4c-0.2,0-0.4-0.1-0.5-0.3c-0.1-0.2,0-0.5,0.2-0.7c0,0,0,0,0,0c1-0.5,1.8-1.4,2.3-2.5
		c0.2-0.7,0-1.4-0.4-2c-1.9-2.8-5.7-2.9-5.8-2.9c-0.3,0-0.5-0.2-0.5-0.5s0.2-0.5,0.5-0.5c0.2,0,4.4,0,6.6,3.3
		c0.6,0.8,0.8,1.8,0.6,2.8c-0.5,1.3-1.5,2.4-2.8,3.1C297.5,342.4,297.4,342.4,297.4,342.4z"/>
        <path class="st2" d="M400.6,356.4c0,0-18.6,4.8-30.3,17.9s-11.7,24.1-10.7,25.8s23.4,13.8,23.4,13.8s13.8-26.5,23.4-33
		s16.6-8.3,16.6-8.3s-17.2-11-17.9-12.4S403,355.3,400.6,356.4z"/>
        <path class="st0" d="M383,414.3c-0.1,0-0.2,0-0.2-0.1c-3.8-2-22.5-12.2-23.6-14s-1.2-13.1,10.7-26.4c11.4-12.8,29.5-17.8,30.5-18
		c2.6-1.1,4.2,2.1,4.9,3.6l0.2,0.4c0.6,1,11.2,8,17.7,12.2c0.2,0.1,0.3,0.3,0.2,0.5c0,0.2-0.2,0.4-0.4,0.4c-0.1,0-6.9,1.8-16.4,8.2
		s-23.1,32.6-23.2,32.9c-0.1,0.1-0.2,0.2-0.3,0.3L383,414.3z M401.4,356.7c-0.2,0-0.5,0.1-0.7,0.1h-0.1c-0.2,0-18.6,4.9-30,17.7
		s-11.6,23.6-10.6,25.2c0.7,1.2,14.1,8.7,22.8,13.3c1.9-3.6,14.3-26.6,23.3-32.8c4.8-3.4,10.1-6.1,15.6-8
		c-4.2-2.7-16.5-10.7-17.1-12l-0.2-0.4C403.6,358.3,402.7,356.7,401.4,356.7L401.4,356.7z M400.5,356.4L400.5,356.4z"/>
        <path class="st2" d="M452.9,459.9c0,0-18.9-9.6-23.4-12L394.4,429c-2-0.5-4-1.2-5.9-2.1c-2.1-1-5.2-0.7-6.5-7.9s2.1-21.7,17.5-36.1
		s25.1-13.8,25.1-13.8s6.5-0.7,8.3,0.7s2.1,5.5,3.8,6.2s49.3,15,49.3,15"/>
        <path class="st0" d="M452.9,460.4c-0.1,0-0.2,0-0.2-0.1c-0.2-0.1-19-9.7-23.4-12l-35-18.9c-2-0.5-4-1.2-5.9-2.1
		c-0.4-0.2-0.7-0.3-1.1-0.4c-2-0.7-4.5-1.6-5.7-7.8s1.2-21.1,17.7-36.6c15.5-14.4,25.1-13.9,25.5-13.9c0.6-0.1,6.7-0.7,8.5,0.8
		c0.9,0.9,1.6,2.1,2,3.4c0.5,1.2,1,2.5,1.7,2.8c1.7,0.7,48.8,14.8,49.3,14.9c0.3,0.1,0.4,0.4,0.4,0.6c-0.1,0.3-0.4,0.4-0.6,0.4
		c-2-0.6-47.7-14.3-49.4-15c-1.1-0.4-1.7-1.8-2.3-3.3c-0.3-1.1-0.9-2.1-1.7-2.9c-1.3-1-6.1-0.8-7.9-0.6c-0.2,0-9.7-0.5-24.8,13.6
		c-16.2,15.1-18.6,29.5-17.4,35.7c1.1,5.7,3.2,6.4,5,7.1c0.4,0.1,0.8,0.3,1.2,0.5c1.9,0.8,3.8,1.5,5.8,2h0.1l35.1,18.9
		c4.4,2.4,23.2,12,23.4,12c0.2,0.1,0.3,0.4,0.2,0.7C453.3,460.3,453.1,460.4,452.9,460.4z"/>
        <path class="st0" d="M401.6,426.4c-0.2,0-0.3-0.1-0.4-0.3c-4.9-8.7-2.9-18.8-2.8-19.3c0-0.3,0.3-0.4,0.6-0.4c0,0,0,0,0,0
		c0.3,0,0.5,0.3,0.4,0.6c0,0,0,0,0,0c0,0.1-2,10.2,2.7,18.6c0.1,0.2,0,0.5-0.2,0.7C401.8,426.3,401.7,426.4,401.6,426.4L401.6,426.4
		z"/>
        <path class="st0" d="M407.1,430.5c-0.2,0-0.3-0.1-0.4-0.2c-3-5-4.3-8.2-3.8-9.7c0.1-0.3,0.3-0.5,0.6-0.7c0.3-0.1,0.5,0.1,0.6,0.3
		c0.1,0.2,0,0.5-0.3,0.6c-0.1,0.1-0.9,1.6,3.6,8.9c0.1,0.2,0.1,0.5-0.2,0.7c0,0,0,0,0,0C407.3,430.5,407.2,430.5,407.1,430.5z
		 M403.9,420.8L403.9,420.8z"/>
    </g>
    <g id="freepik--hand-1--inject-82">
        <path class="st0" d="M191.6,353.2c0,0-22.7,27-29.5,32.4c-4.1,3.3-8.4,6.2-12.9,8.9l-24.5,24.5c0,0,0.7,3.4-6.1,7.5
		s-20.4,8.9-23.8,10.2S53.9,455,53.9,455L191.6,353.2z"/>
        <path class="st0" d="M53.9,455.5c-0.2,0-0.3-0.1-0.4-0.2c-0.1-0.2-0.1-0.5,0.1-0.7l137.7-101.9c0.2-0.2,0.5-0.1,0.7,0.1
		c0.2,0.2,0.1,0.5,0,0.7c-0.9,1.1-22.8,27-29.6,32.5c-4.1,3.3-8.4,6.2-12.9,8.9l-24.3,24.3c0,1-0.4,4.1-6.4,7.7
		c-5.6,3.4-15.6,7.1-21,9.2c-1.3,0.5-2.2,0.8-2.9,1.1c-3.3,1.3-40.5,18.2-40.8,18.4C54.1,455.5,54,455.5,53.9,455.5z M188.5,356.1
		L58,452.6c10-4.5,33.8-15.4,36.6-16.4l2.9-1.1c5.4-2,15.4-5.8,20.9-9.1c6.3-3.8,5.9-6.9,5.9-7c0-0.2,0-0.3,0.1-0.5l24.5-24.5l0.1,0
		c4.5-2.6,8.8-5.6,12.9-8.8C167.1,381,182.2,363.5,188.5,356.1z"/>
        <path class="st1" d="M224.6,311.9c-2.4,0.7-11,0.2-11,0.2s-5.2-4-7.9-6.4s-9.3-16.5-12.6-17.2s-17.4,7.4-17.4,7.4s-11.4-5-14.3-4.5
		s-12.2,8.8-12.2,8.8s-12.9-1.9-15.3,1.9s-6.2,16-10,23.6s-17.7,27.9-17.7,27.9l-1.9,2.6c0,0,2.9,1,11.7,5.5s22.9,26,22.9,26
		s19.6-9.1,30.5-14.1s19.8-16,22.2-20.5s6.4-8.8,11.4-12.9s14.3-5.7,16.5-8.6s-1.4-7.1-1.4-7.1c1.3-0.7,2.6-1.5,3.8-2.4
		c1.2-1,6-3.6,6.4-6.4S226.9,311.2,224.6,311.9z M187.8,334.8l4.5-13.8c1.9,1.4,10.3,4.5,10.3,4.5
		C197.1,326.9,187.8,334.8,187.8,334.8z"/>
        <path class="st0" d="M139,388.2c-0.2,0-0.3-0.1-0.4-0.2c-0.1-0.2-14.1-21.4-22.7-25.8s-11.6-5.4-11.6-5.5c-0.3-0.1-0.4-0.4-0.3-0.6
		c0,0,0-0.1,0.1-0.1l1.9-2.6c0.1-0.2,13.8-20.3,17.6-27.8c1.9-3.8,3.8-8.7,5.5-13c1.8-4.6,3.4-8.7,4.6-10.6
		c2.4-3.8,13.7-2.4,15.5-2.2c1.6-1.4,9.4-8.3,12.2-8.8s12.4,3.6,14.4,4.5c2.2-1.3,14.3-8,17.5-7.3c2.1,0.5,4.8,4.8,8.5,10.8
		c1.8,2.9,3.4,5.6,4.4,6.5c2.4,2.1,6.9,5.7,7.7,6.3c1.2,0.1,8.5,0.4,10.6-0.2l0,0c1.2-0.4,2.4-0.2,3.4,0.6c1,1,1.4,2.4,1.1,3.8
		c-0.4,2.5-3.7,4.7-5.6,6c-0.4,0.3-0.8,0.5-1,0.7c-1.1,0.8-2.2,1.5-3.4,2.1c0.9,1.3,3,4.7,1.1,7.3c-1.1,1.5-4,2.7-7.3,4
		s-6.8,2.7-9.2,4.7c-5.4,4.4-9.1,8.5-11.3,12.7S181,369,169.7,374.1c-10.8,5-30.3,14-30.5,14.1C139.1,388.2,139.1,388.2,139,388.2z
		 M105.2,356c1.3,0.5,4.5,1.9,11.1,5.3c8.3,4.3,20.9,22.9,22.8,25.8c2.8-1.3,20.1-9.3,30.1-13.9c11.1-5.1,19.7-16,22-20.3
		s6-8.6,11.6-13c2.6-2.1,6.3-3.5,9.5-4.8c3-1.2,5.9-2.4,6.9-3.7c1.9-2.5-1.4-6.5-1.4-6.5c-0.1-0.1-0.1-0.3-0.1-0.4
		c0-0.2,0.1-0.3,0.3-0.4c1.3-0.7,2.5-1.5,3.7-2.3c0.2-0.2,0.6-0.4,1.1-0.8c1.7-1.1,4.8-3.3,5.2-5.4c0.3-1,0-2.1-0.8-2.9
		c-0.7-0.6-1.6-0.7-2.4-0.4l0,0c-2.4,0.7-10.8,0.3-11.1,0.3c-0.1,0-0.2,0-0.3-0.1c-0.1,0-5.3-4.1-7.9-6.5c-1.1-1-2.7-3.6-4.6-6.7
		c-2.5-4.2-6-9.9-7.9-10.3c-2.6-0.6-13.2,5.1-17.1,7.3c-0.1,0.1-0.3,0.1-0.4,0c-3.1-1.4-11.8-4.9-14-4.5s-9.4,6.4-11.9,8.7
		c-0.1,0.1-0.3,0.1-0.4,0.1c-3.5-0.5-12.9-1.2-14.8,1.7c-1.2,1.9-2.8,6-4.5,10.5s-3.6,9.3-5.5,13.1c-3.8,7.6-17.5,27.8-17.7,28
		L105.2,356z M224.5,311.9L224.5,311.9z M187.8,335.3c-0.1,0-0.2,0-0.3-0.1c-0.2-0.1-0.3-0.4-0.2-0.6l4.5-13.8
		c0-0.2,0.2-0.3,0.3-0.3c0.2,0,0.3,0,0.4,0.1c1.8,1.4,10.1,4.4,10.1,4.5c0.3,0,0.5,0.2,0.5,0.5s-0.2,0.5-0.5,0.5
		c-5.3,1.4-14.5,9.1-14.6,9.2C188.1,335.3,188,335.3,187.8,335.3z M192.6,321.8l-3.8,11.6c2.5-2,8-6.2,12.3-7.9
		C198.2,324.4,195.4,323.2,192.6,321.8z"/>
        <path class="st0" d="M140.1,316.5c-0.2,0-0.5-0.2-0.5-0.4c-0.1-0.4-0.7-4.2-0.2-5.7s7.9-9,9.4-10.5c0.2-0.2,0.5-0.2,0.7,0
		c0.2,0.2,0.2,0.5,0,0.7c-3.4,3.4-8.9,9.1-9.2,10.1s0.1,4.1,0.3,5.2C140.7,316.2,140.5,316.4,140.1,316.5L140.1,316.5z"/>
        <path class="st0" d="M147.8,321.2c0,0-0.1,0-0.1,0c-0.3-0.1-0.4-0.3-0.3-0.6c0,0,0,0,0,0l1.9-6.2c0-0.1,0.1-0.2,0.2-0.3l26-18.6
		c0.2-0.2,0.5-0.1,0.7,0.1c0,0,0,0,0,0c0.2,0.2,0.1,0.5-0.1,0.7c0,0,0,0,0,0l-25.9,18.5l-1.9,6C148.2,321.1,148,321.2,147.8,321.2z"
        />
        <path class="st0" d="M160.6,325.8L160.6,325.8c-0.3,0-0.5-0.3-0.5-0.6c0.2-1,1.1-6.2,2.3-7.2s9-2.8,10.3-3.2c2.5-2.2,14-12,16.4-12
		c1,0,3.7,1.2,8.3,3.2c5.6,2.5,13.3,5.9,15.9,5.6c0.3,0,0.5,0.2,0.6,0.4c0,0.3-0.2,0.5-0.4,0.6c-2.9,0.3-10.1-2.9-16.4-5.7
		c-3.5-1.5-7.1-3.1-7.9-3.1c-1.6,0-10.6,7.2-15.9,11.8c-0.1,0.1-0.1,0.1-0.2,0.1c-3.5,0.8-9.3,2.4-10,3s-1.6,4.2-2,6.6
		C161.1,325.6,160.9,325.8,160.6,325.8z"/>
        <path class="st0" d="M222.9,316.7c-1.3,0.1-2.6-0.4-3.5-1.3c-0.6-0.7-0.8-1.3-0.5-1.8c0.4-0.9,2-1,2.3-1l0,0c0.3,0,0.5,0.2,0.5,0.5
		c0,0.3-0.2,0.5-0.5,0.5c0,0,0,0,0,0c-0.6,0-1.3,0.2-1.4,0.4c0,0.1,0,0.3,0.4,0.7c1.5,1.7,5.1,0.7,6.4,0.3c0.3-0.1,0.5,0.1,0.6,0.3
		c0,0,0,0,0,0c0.1,0.3-0.1,0.5-0.3,0.6c0,0,0,0,0,0C225.6,316.4,224.2,316.6,222.9,316.7z"/>
        <path class="st0" d="M202.6,326c-0.3,0-0.5-0.2-0.5-0.5c0-0.2,0.1-0.3,0.2-0.4c0.4-0.2,8.9-5.1,16-1c0.2,0.1,0.3,0.4,0.2,0.7
		c0,0,0,0,0,0c-0.1,0.2-0.4,0.3-0.7,0.2c-6.6-3.9-14.9,0.9-15,1C202.8,326,202.7,326,202.6,326z"/>
        <path class="st0" d="M213.6,334.8c-0.2,0-0.5-0.2-0.5-0.4l-0.2-1.4c-0.5-1.8-1.2-3.5-2.1-5.1c-0.1-0.1-0.1-0.3,0-0.4
		c0-0.1,0.2-0.2,0.3-0.3l4.8-1.7c0.3-0.1,0.5,0,0.7,0.2c0.1,0.3,0,0.5-0.2,0.7c0,0-0.1,0-0.1,0l-4.2,1.5c0.8,1.6,1.5,3.2,1.9,4.9
		l0.2,1.4C214.1,334.5,214,334.8,213.6,334.8L213.6,334.8z"/>
        <path class="st0" d="M183.5,344.8c-0.1,0-0.1,0-0.2,0c-0.3-0.1-0.4-0.4-0.3-0.7l4.3-9.5c0.1-0.2,0.4-0.4,0.6-0.3c0,0,0,0,0,0
		c0.3,0.1,0.4,0.4,0.3,0.7l-4.3,9.5C183.9,344.7,183.7,344.8,183.5,344.8z"/>
        <path class="st2" d="M74.6,371.8c0,0,15-9.8,20.5-13.8s8.3-3.3,11.2-4.3s17.2,3.4,26.7,15.3s8.6,20.7,7.4,23.1
		s-31.2,20.5-31.2,20.5s-4.3-17.2-16.9-27.4S74.6,371.8,74.6,371.8z"/>
        <path class="st0" d="M109.2,413c-0.1,0-0.1,0-0.2,0c-0.1-0.1-0.3-0.2-0.3-0.3c0-0.2-4.4-17.1-16.8-27.2s-17.5-13.3-17.6-13.3
		c-0.1-0.1-0.2-0.2-0.2-0.4c0-0.2,0.1-0.3,0.2-0.4c0.2-0.1,15.1-9.8,20.5-13.8c2.6-2.1,5.7-3.4,9-3.8c0.8-0.1,1.6-0.3,2.4-0.5
		c3.4-1.1,17.9,3.8,27.3,15.4c9.7,12.2,8.7,21.2,7.4,23.7s-28.4,18.8-31.5,20.7C109.3,413,109.2,413,109.2,413z M75.5,371.8
		c1.7,1.2,7,4.8,17,13c11.2,9.1,16,23.8,16.9,27c11.6-7,29.7-18.4,30.5-20c1.1-2.3,2.1-10.8-7.3-22.6c-9.6-12-23.8-15.9-26.2-15.1
		c-0.8,0.3-1.7,0.4-2.5,0.6c-3.1,0.4-6.1,1.7-8.5,3.6C90.6,361.9,78.4,369.9,75.5,371.8z"/>
        <path class="st2" d="M14.5,400.3c0,0,27.8-17,32.5-19.8s10-6.6,10-6.6s1.5-7.4,8.5-7.6s13.9,2.5,23.2,7.6s20.8,23.6,22,31
		s3.7,9.6,1.7,14.5s-9.3,5.1-10.7,5.1s-4.9,3-4.9,3l-52.2,34"/>
        <path class="st0" d="M44.5,462c-0.2,0-0.3-0.1-0.4-0.2c-0.2-0.2-0.1-0.5,0.1-0.7c0,0,0,0,0,0l52.2-34c0.5-0.5,3.6-3.1,5.2-3.1
		c1.4,0,8.4-0.2,10.3-4.8c1.2-3,0.7-4.9-0.3-8c-0.6-2-1.1-4.1-1.5-6.2c-1.2-7.4-12.6-25.6-21.7-30.6c-8.9-4.9-15.8-7.8-22.9-7.5
		c-6.6,0.2-8.1,7.1-8.1,7.2c0,0.1-0.1,0.2-0.2,0.3c-0.1,0-5.4,3.9-10,6.6S15,400.5,14.7,400.7c-0.2,0.1-0.5,0.1-0.7-0.2c0,0,0,0,0,0
		c-0.1-0.2-0.1-0.5,0.2-0.7c0,0,0,0,0,0c0.3-0.2,27.9-17,32.5-19.8c4.1-2.5,8.9-5.8,9.8-6.5c0.3-1.2,2.3-7.6,9-7.8
		c7.4-0.3,14.4,2.7,23.4,7.7c9.3,5.1,21,23.8,22.2,31.3c0.4,2,0.8,4.1,1.5,6.1c0.9,3.1,1.6,5.4,0.2,8.7c-2.1,5.1-9.7,5.4-11.2,5.4
		c-0.9,0-3.3,1.8-4.6,2.9l-52.3,34.1C44.7,462,44.6,462,44.5,462z"/>
        <path class="st0" d="M98.7,420.4c-0.1,0-0.2,0-0.3-0.1c-0.2-0.1-0.3-0.4-0.2-0.7c0,0,0,0,0,0c4-6.2,2.3-7.8,2.3-7.8
		c-0.2-0.2-0.2-0.5-0.1-0.7c0.2-0.2,0.5-0.3,0.7-0.1c0,0,0,0,0,0c0.3,0.2,2.4,2.1-2.1,9.1C99,420.3,98.8,420.4,98.7,420.4z"/>
        <path class="st0" d="M90.8,428.8c-0.1,0-0.3-0.1-0.4-0.1c-0.2-0.2-0.2-0.5,0-0.7c0,0,0,0,0,0c3.7-3.5,6.1-8.2,6.7-13.3
		c0-0.3,0.2-0.5,0.5-0.5s0.5,0.2,0.5,0.5c0,0.3-0.4,7.4-7,14C91.1,428.8,91,428.8,90.8,428.8z"/>
    </g>
</svg>
