<svg xmlns="http://www.w3.org/2000/svg" viewBox="0 0 500 500">
    <style type="text/css">
        .st0{fill:#263238;}
        .st1{fill:#FFFFFF;}
        .st2{fill:#1EEBCD;}
    </style>
    <g id="freepik--Table--inject-82">
        <path class="st0" d="M479,283.4h-15.2c-0.3,0-0.5-0.2-0.5-0.5s0.2-0.5,0.5-0.5H479c0.3,0,0.5,0.2,0.5,0.5
		C479.5,283.2,479.3,283.4,479,283.4z"/>
        <path class="st0" d="M457,283.4H22.6c-0.3,0-0.5-0.2-0.5-0.5s0.2-0.5,0.5-0.5H457c0.3,0,0.5,0.2,0.5,0.5
		C457.5,283.2,457.3,283.4,457,283.4z"/>
    </g>
    <g id="freepik--Device--inject-82">
        <path class="st0" d="M114.9,90H390c4.4,0,8,3.6,8,8v191.4l0,0H107l0,0V98C107,93.6,110.5,90,114.9,90z"/>
        <path class="st0" d="M398,289.9H107c-0.3,0-0.5-0.2-0.5-0.5V98c0-4.7,3.8-8.5,8.5-8.5l0,0h275c4.7,0,8.5,3.8,8.5,8.5v191.4
		C398.5,289.7,398.3,289.9,398,289.9z M107.5,288.9h290V98c0-4.1-3.3-7.5-7.5-7.5h0H114.9c-4.1,0-7.5,3.4-7.5,7.5c0,0,0,0,0,0
		L107.5,288.9z"/>
        <polygon class="st1" points="441.6,377.6 63.3,377.6 106.9,289.4 398,289.4 	"/>
        <path class="st0" d="M441.6,378.1H63.3c-0.2,0-0.3-0.1-0.4-0.2c-0.1-0.1-0.1-0.3,0-0.5l43.7-88.2c0.1-0.2,0.3-0.3,0.4-0.3h291
		c0.2,0,0.4,0.1,0.4,0.3l43.7,88.2c0.1,0.1,0.1,0.3,0,0.5C442,378,441.8,378.1,441.6,378.1z M64.1,377.1h376.7l-43.2-87.2H107.3
		L64.1,377.1z"/>
        <rect x="124.6" y="105.8" class="st2" width="255.8" height="167.8"/>
        <path class="st0" d="M380.4,274.1H124.6c-0.3,0-0.5-0.2-0.5-0.5V105.8c0-0.3,0.2-0.5,0.5-0.5h255.8c0.3,0,0.5,0.2,0.5,0.5v167.8
		C380.9,273.9,380.6,274.1,380.4,274.1z M125.1,273.1h254.8V106.3H125.1L125.1,273.1z"/>
        <polygon class="st0" points="240.3,317.3 240.8,306.6 225.4,306.6 224.4,317.3 	"/>
        <path class="st1" d="M240.3,317.8h-15.9c-0.1,0-0.3-0.1-0.4-0.2c-0.1-0.1-0.1-0.2-0.1-0.4l1-10.7c0-0.3,0.2-0.5,0.5-0.5h15.4
		c0.1,0,0.3,0.1,0.4,0.1c0.1,0.1,0.2,0.2,0.1,0.4l-0.5,10.7C240.8,317.6,240.6,317.8,240.3,317.8z M225,316.8h14.9l0.5-9.7h-14.4
		L225,316.8z"/>
        <polygon class="st0" points="272.1,317.3 271.6,306.6 256.2,306.6 256.2,317.3 	"/>
        <path class="st1" d="M272.1,317.8h-15.9c-0.3,0-0.5-0.2-0.5-0.5v-10.7c0-0.3,0.2-0.5,0.5-0.5c0,0,0,0,0,0h15.4
		c0.3,0,0.5,0.2,0.5,0.5l0.5,10.7c0,0.1,0,0.3-0.1,0.4C272.4,317.8,272.2,317.8,272.1,317.8z M256.7,316.8h14.9l-0.5-9.7h-14.4
		L256.7,316.8z"/>
        <polygon class="st0" points="354.9,328.8 371.3,328.8 367.5,317.3 351.6,317.3 	"/>
        <path class="st1" d="M371.3,329.3h-16.4c-0.2,0-0.4-0.1-0.5-0.4l-3.3-11.5c0-0.2,0-0.3,0.1-0.4c0.1-0.1,0.2-0.2,0.4-0.2h15.9
		c0.2,0,0.4,0.1,0.5,0.3l3.9,11.5c0,0.2,0,0.3-0.1,0.5C371.6,329.2,371.5,329.3,371.3,329.3z M355.3,328.3h15.4l-3.5-10.5h-14.9
		L355.3,328.3z"/>
        <polygon class="st0" points="224.4,317.3 225.4,306.6 210.1,306.6 208.5,317.3 	"/>
        <path class="st1" d="M224.4,317.8h-15.9c-0.1,0-0.3-0.1-0.4-0.2c-0.1-0.1-0.1-0.3-0.1-0.4l1.5-10.7c0-0.2,0.2-0.4,0.5-0.4h15.4
		c0.1,0,0.3,0.1,0.4,0.2c0.1,0.1,0.1,0.2,0.1,0.4l-1,10.8C224.9,317.6,224.7,317.8,224.4,317.8z M209.1,316.8H224l0.9-9.7h-14.4
		L209.1,316.8z"/>
        <polygon class="st0" points="192.6,317.3 194.7,306.6 179.3,306.6 176.8,317.3 	"/>
        <path class="st1" d="M192.6,317.8h-15.9c-0.2,0-0.3-0.1-0.4-0.2c-0.1-0.1-0.1-0.3-0.1-0.4l2.6-10.7c0.1-0.2,0.3-0.4,0.5-0.4h15.4
		c0.1,0,0.3,0.1,0.4,0.2c0.1,0.1,0.1,0.3,0.1,0.4l-2.1,10.7C193.1,317.6,192.9,317.8,192.6,317.8z M177.4,316.8h14.9l1.9-9.7h-14.4
		L177.4,316.8z"/>
        <polygon class="st0" points="335.7,317.3 333.1,306.6 317.7,306.6 319.8,317.3 	"/>
        <path class="st1" d="M335.7,317.8h-15.9c-0.2,0-0.5-0.2-0.5-0.4l-2.1-10.7c-0.1-0.3,0.1-0.5,0.4-0.6c0,0,0.1,0,0.1,0h15.4
		c0.2,0,0.4,0.2,0.5,0.4l2.6,10.7c0,0.2,0,0.3-0.1,0.4C336,317.8,335.8,317.8,335.7,317.8z M320.2,316.8H335l-2.3-9.7h-14.4
		L320.2,316.8z"/>
        <polygon class="st0" points="351.6,317.3 348.5,306.6 333.1,306.6 335.7,317.3 	"/>
        <path class="st1" d="M351.6,317.8h-15.9c-0.2,0-0.4-0.2-0.5-0.4l-2.6-10.8c0-0.1,0-0.3,0.1-0.4c0.1-0.1,0.2-0.2,0.4-0.2h15.4
		c0.2,0,0.4,0.1,0.5,0.4l3,10.7c0,0.2,0,0.3-0.1,0.4C351.8,317.7,351.7,317.8,351.6,317.8z M336.1,316.8h14.8l-2.8-9.7h-14.4
		L336.1,316.8z"/>
        <polygon class="st0" points="176.8,317.3 179.3,306.6 163.9,306.6 160.9,317.3 	"/>
        <path class="st1" d="M176.8,317.8h-15.9c-0.2,0-0.3-0.1-0.4-0.2c-0.1-0.1-0.1-0.3-0.1-0.4l3.1-10.7c0.1-0.2,0.3-0.4,0.5-0.4h15.4
		c0.2,0,0.3,0.1,0.4,0.2c0.1,0.1,0.1,0.3,0.1,0.4l-2.6,10.7C177.2,317.7,177,317.8,176.8,317.8z M161.5,316.8h14.8l2.3-9.7h-14.4
		L161.5,316.8z"/>
        <polygon class="st0" points="288,317.3 287,306.6 271.6,306.6 272.1,317.3 	"/>
        <path class="st1" d="M288,317.8h-15.9c-0.3,0-0.5-0.2-0.5-0.5l-0.5-10.7c0-0.1,0-0.3,0.1-0.4c0.1-0.1,0.2-0.2,0.4-0.1H287
		c0.3,0,0.5,0.2,0.5,0.5l1,10.7C288.5,317.6,288.3,317.8,288,317.8C288,317.8,288,317.8,288,317.8z M272.6,316.8h14.9l-0.9-9.7
		h-14.4L272.6,316.8z"/>
        <polygon class="st0" points="367.5,317.3 363.8,306.6 348.5,306.6 351.6,317.3 	"/>
        <path class="st1" d="M367.5,317.8h-15.9c-0.2,0-0.4-0.1-0.5-0.4l-3.1-10.8c-0.1-0.3,0.1-0.5,0.4-0.6c0,0,0.1,0,0.1,0h15.4
		c0.2,0,0.4,0.1,0.5,0.3l3.6,10.7c0,0.2,0,0.3-0.1,0.5C367.8,317.7,367.6,317.8,367.5,317.8z M351.9,316.8h14.8l-3.3-9.7h-14.4
		L351.9,316.8z"/>
        <polygon class="st0" points="319.8,317.3 317.7,306.6 302.3,306.6 303.9,317.3 	"/>
        <path class="st1" d="M319.8,317.8h-15.9c-0.2,0-0.5-0.2-0.5-0.4l-1.5-10.7c0-0.3,0.1-0.5,0.4-0.6c0,0,0.1,0,0.1,0h15.4
		c0.2,0,0.4,0.2,0.5,0.4l2.1,10.7C320.3,317.5,320.1,317.8,319.8,317.8C319.8,317.8,319.8,317.8,319.8,317.8L319.8,317.8z
		 M304.3,316.8h14.9l-1.9-9.7h-14.4L304.3,316.8z"/>
        <polygon class="st0" points="303.9,317.3 302.3,306.6 287,306.6 288,317.3 	"/>
        <path class="st1" d="M303.9,317.8H288c-0.3,0-0.5-0.2-0.5-0.5l-1-10.8c0-0.1,0-0.3,0.1-0.4c0.1-0.1,0.2-0.2,0.4-0.2h15.4
		c0.2,0,0.5,0.2,0.5,0.4l1.5,10.8c0,0.1,0,0.3-0.1,0.4C304.2,317.8,304,317.8,303.9,317.8z M288.5,316.8h14.9l-1.4-9.7h-14.4
		L288.5,316.8z"/>
        <polygon class="st0" points="256.2,317.3 256.2,306.6 240.8,306.6 240.3,317.3 	"/>
        <path class="st1" d="M256.2,317.8h-15.9c-0.1,0-0.3-0.1-0.4-0.2c-0.1-0.1-0.1-0.2-0.1-0.4l0.5-10.7c0-0.3,0.2-0.5,0.5-0.5h15.4
		c0.3,0,0.5,0.2,0.5,0.5v10.7c0,0.1-0.1,0.3-0.1,0.4C256.5,317.8,256.3,317.8,256.2,317.8z M240.8,316.8h14.9v-9.7h-14.4
		L240.8,316.8z"/>
        <polygon class="st0" points="145,317.3 129.1,317.3 124.7,328.8 141.1,328.8 	"/>
        <path class="st1" d="M141.1,329.3h-16.4c-0.2,0-0.3-0.1-0.4-0.2c-0.1-0.1-0.1-0.3-0.1-0.5l4.4-11.5c0.1-0.2,0.3-0.3,0.5-0.3H145
		c0.2,0,0.3,0.1,0.4,0.2c0.1,0.1,0.1,0.3,0.1,0.5l-3.9,11.5C141.5,329.2,141.3,329.3,141.1,329.3z M125.4,328.3h15.3l3.5-10.5h-14.9
		L125.4,328.3z"/>
        <polygon class="st0" points="148.6,306.6 133.2,306.6 129.1,317.3 145,317.3 	"/>
        <path class="st1" d="M145,317.8h-15.9c-0.2,0-0.3-0.1-0.4-0.2c-0.1-0.1-0.1-0.3-0.1-0.5l4.1-10.7c0.1-0.2,0.3-0.3,0.5-0.3h15.4
		c0.3,0,0.5,0.2,0.5,0.5c0,0.1,0,0.1,0,0.2l-3.6,10.8C145.4,317.7,145.2,317.8,145,317.8z M129.8,316.8h14.8l3.3-9.7h-14.4
		L129.8,316.8z"/>
        <polygon class="st0" points="160.9,317.3 163.9,306.6 148.6,306.6 145,317.3 	"/>
        <path class="st1" d="M160.9,317.8H145c-0.3,0-0.5-0.2-0.5-0.5c0-0.1,0-0.1,0-0.2l3.6-10.7c0.1-0.2,0.3-0.3,0.5-0.3H164
		c0.2,0,0.3,0.1,0.4,0.2c0.1,0.1,0.1,0.3,0.1,0.4l-3.1,10.8C161.3,317.7,161.1,317.8,160.9,317.8z M145.7,316.8h14.8l2.8-9.7h-14.4
		L145.7,316.8z"/>
        <polygon class="st0" points="120,341.1 114.9,354.3 132.6,354.3 137,341.1 	"/>
        <path class="st1" d="M132.6,354.8h-17.7c-0.2,0-0.3-0.1-0.4-0.2c-0.1-0.1-0.1-0.3-0.1-0.5l5.1-13.2c0.1-0.2,0.3-0.3,0.5-0.3h17
		c0.2,0,0.3,0.1,0.4,0.2c0.1,0.1,0.1,0.3,0.1,0.5l-4.4,13.2C133,354.7,132.8,354.8,132.6,354.8z M115.6,353.8h16.6l4.1-12.2h-16
		L115.6,353.8z"/>
        <polygon class="st0" points="141.1,328.8 124.7,328.8 120,341.1 137,341.1 	"/>
        <path class="st1" d="M137,341.6h-17c-0.3,0-0.5-0.2-0.5-0.5c0-0.1,0-0.1,0-0.2l4.7-12.3c0.1-0.2,0.3-0.3,0.5-0.3h16.4
		c0.2,0,0.3,0.1,0.4,0.2c0.1,0.1,0.1,0.3,0.1,0.5l-4.1,12.3C137.4,341.5,137.2,341.6,137,341.6z M120.7,340.6h16l3.8-11.3H125
		L120.7,340.6z"/>
        <polygon class="st0" points="137,341.1 132.6,354.3 150.3,354.3 154,341.1 	"/>
        <path class="st1" d="M150.3,354.8h-17.7c-0.3,0-0.5-0.2-0.5-0.5c0-0.1,0-0.1,0-0.2l4.4-13.2c0.1-0.2,0.3-0.3,0.5-0.3h17
		c0.2,0,0.3,0.1,0.4,0.2c0.1,0.1,0.1,0.3,0.1,0.4l-3.8,13.2C150.6,354.7,150.5,354.8,150.3,354.8z M133.3,353.8h16.6l3.5-12.2h-16
		L133.3,353.8z"/>
        <polygon class="st0" points="208.5,317.3 210.1,306.6 194.7,306.6 192.6,317.3 	"/>
        <path class="st1" d="M208.5,317.8h-15.9c-0.1,0-0.3-0.1-0.4-0.2c-0.1-0.1-0.1-0.3-0.1-0.4l2-10.7c0.1-0.2,0.3-0.4,0.5-0.4H210
		c0.3,0,0.5,0.2,0.5,0.5c0,0,0,0.1,0,0.1l-1.5,10.7C209,317.6,208.8,317.8,208.5,317.8z M193.2,316.8h14.9l1.4-9.7h-14.4
		L193.2,316.8z"/>
        <polygon class="st0" points="206.9,328.8 208.5,317.3 192.6,317.3 190.4,328.8 	"/>
        <path class="st1" d="M206.9,329.3h-16.4c-0.3,0-0.5-0.2-0.5-0.5c0,0,0-0.1,0-0.1l2.2-11.5c0-0.2,0.3-0.4,0.5-0.4h15.9
		c0.1,0,0.3,0.1,0.4,0.2c0.1,0.1,0.1,0.3,0.1,0.4l-1.6,11.5C207.4,329.1,207.1,329.3,206.9,329.3z M191.1,328.3h15.4l1.5-10.5h-14.9
		L191.1,328.3z"/>
        <polygon class="st0" points="190.4,328.8 192.6,317.3 176.8,317.3 174,328.8 	"/>
        <path class="st1" d="M190.4,329.3H174c-0.2,0-0.3-0.1-0.4-0.2c-0.1-0.1-0.1-0.3-0.1-0.4l2.7-11.5c0.1-0.2,0.3-0.4,0.5-0.4h15.9
		c0.1,0,0.3,0.1,0.4,0.2c0.1,0.1,0.1,0.3,0.1,0.4l-2.2,11.5C190.9,329.1,190.7,329.3,190.4,329.3z M174.6,328.3H190l2-10.5h-14.9
		L174.6,328.3z"/>
        <polygon class="st0" points="223.3,328.8 224.4,317.3 208.5,317.3 206.9,328.8 	"/>
        <path class="st1" d="M223.3,329.3h-16.4c-0.3,0-0.5-0.2-0.5-0.5c0,0,0-0.1,0-0.1l1.6-11.5c0-0.2,0.2-0.4,0.5-0.4h15.9
		c0.1,0,0.3,0.1,0.4,0.2c0.1,0.1,0.1,0.2,0.1,0.4l-1.1,11.5C223.8,329.1,223.6,329.3,223.3,329.3z M207.5,328.3h15.4l1-10.5H209
		L207.5,328.3z"/>
        <polygon class="st0" points="160.9,317.3 145,317.3 141.1,328.8 157.6,328.8 	"/>
        <path class="st1" d="M157.6,329.3h-16.5c-0.2,0-0.3-0.1-0.4-0.2c-0.1-0.1-0.1-0.3-0.1-0.5l3.8-11.5c0.1-0.2,0.3-0.3,0.5-0.3h15.9
		c0.2,0,0.3,0.1,0.4,0.2c0.1,0.1,0.1,0.3,0.1,0.4l-3.3,11.5C158,329.2,157.8,329.3,157.6,329.3z M141.8,328.3h15.4l3-10.5h-14.9
		L141.8,328.3z"/>
        <polygon class="st0" points="358.4,341.1 375.5,341.1 371.3,328.8 354.9,328.8 	"/>
        <path class="st1" d="M375.5,341.6h-17c-0.2,0-0.4-0.1-0.5-0.4l-3.5-12.3c0-0.2,0-0.3,0.1-0.4c0.1-0.1,0.2-0.2,0.4-0.2h16.4
		c0.2,0,0.4,0.1,0.5,0.3l4.1,12.4c0.1,0.2,0,0.3-0.1,0.5C375.8,341.6,375.6,341.6,375.5,341.6z M358.8,340.6h16l-3.8-11.3h-15.5
		L358.8,340.6z"/>
        <polygon class="st0" points="174,328.8 176.8,317.3 160.9,317.3 157.6,328.8 	"/>
        <path class="st1" d="M174,329.3h-16.4c-0.2,0-0.3-0.1-0.4-0.2c-0.1-0.1-0.1-0.3-0.1-0.4l3.3-11.5c0.1-0.2,0.3-0.4,0.5-0.4h15.9
		c0.2,0,0.3,0.1,0.4,0.2c0.1,0.1,0.1,0.3,0.1,0.4l-2.7,11.5C174.4,329.1,174.2,329.3,174,329.3z M158.2,328.3h15.4l2.5-10.5h-14.9
		L158.2,328.3z"/>
        <polygon class="st0" points="141.1,328.8 137,341.1 154,341.1 157.6,328.8 	"/>
        <path class="st1" d="M154,341.6h-17c-0.2,0-0.3-0.1-0.4-0.2c-0.1-0.1-0.1-0.3-0.1-0.5l4.1-12.3c0.1-0.2,0.3-0.3,0.5-0.4h16.4
		c0.3,0,0.5,0.2,0.5,0.5c0,0,0,0.1,0,0.1l-3.5,12.3C154.4,341.5,154.2,341.6,154,341.6z M137.7,340.6h16l3.2-11.3h-15.4L137.7,340.6
		z"/>
        <polygon class="st0" points="322,328.8 319.8,317.3 303.9,317.3 305.5,328.8 	"/>
        <path class="st1" d="M322,329.3h-16.5c-0.2,0-0.5-0.2-0.5-0.4l-1.7-11.5c0-0.1,0-0.3,0.1-0.4c0.1-0.1,0.2-0.2,0.4-0.2h15.9
		c0.2,0,0.4,0.2,0.5,0.4l2.2,11.5C322.5,329,322.3,329.2,322,329.3C322,329.3,322,329.3,322,329.3L322,329.3z M306,328.3h15.4
		l-2-10.5h-14.9L306,328.3z"/>
        <polygon class="st0" points="305.5,328.8 303.9,317.3 288,317.3 289.1,328.8 	"/>
        <path class="st1" d="M305.5,329.3h-16.4c-0.3,0-0.5-0.2-0.5-0.5l-1.1-11.5c0-0.1,0-0.3,0.1-0.4c0.1-0.1,0.2-0.2,0.4-0.2h15.9
		c0.2,0,0.5,0.2,0.5,0.4l1.6,11.5C306,329,305.8,329.3,305.5,329.3C305.6,329.3,305.5,329.3,305.5,329.3L305.5,329.3z M289.5,328.3
		H305l-1.5-10.5h-14.9L289.5,328.3z"/>
        <polygon class="st0" points="354.9,328.8 351.6,317.3 335.7,317.3 338.4,328.8 	"/>
        <path class="st1" d="M354.9,329.3h-16.4c-0.2,0-0.4-0.2-0.5-0.4l-2.8-11.5c0-0.2,0-0.3,0.1-0.4c0.1-0.1,0.2-0.2,0.4-0.2h15.9
		c0.2,0,0.4,0.1,0.5,0.4l3.3,11.5c0,0.1,0,0.3-0.1,0.4C355.2,329.2,355,329.3,354.9,329.3z M338.8,328.3h15.4l-3-10.5h-14.9
		L338.8,328.3z"/>
        <polygon class="st0" points="256.2,328.8 256.2,317.3 240.3,317.3 239.8,328.8 	"/>
        <path class="st1" d="M256.2,329.3h-16.4c-0.1,0-0.3-0.1-0.4-0.1c-0.1-0.1-0.1-0.2-0.1-0.4l0.5-11.5c0-0.3,0.2-0.5,0.5-0.5h15.9
		c0.3,0,0.5,0.2,0.5,0.5v11.5c0,0.1-0.1,0.3-0.1,0.4C256.5,329.2,256.3,329.3,256.2,329.3z M240.3,328.3h15.4v-10.5h-14.9
		L240.3,328.3z"/>
        <polygon class="st0" points="289.1,328.8 288,317.3 272.1,317.3 272.7,328.8 	"/>
        <path class="st1" d="M289.1,329.3h-16.4c-0.3,0-0.5-0.2-0.5-0.5l-0.6-11.5c0-0.1,0-0.3,0.1-0.4c0.1-0.1,0.2-0.2,0.4-0.1H288
		c0.3,0,0.5,0.2,0.5,0.5l1.1,11.5c0,0.1,0,0.3-0.1,0.4C289.4,329.2,289.2,329.3,289.1,329.3z M273.1,328.3h15.4l-1-10.5h-14.9
		L273.1,328.3z"/>
        <polygon class="st0" points="272.7,328.8 272.1,317.3 256.2,317.3 256.2,328.8 	"/>
        <path class="st1" d="M272.7,329.3h-16.4c-0.3,0-0.5-0.2-0.5-0.5v-11.5c0-0.1,0.1-0.3,0.1-0.4c0.1-0.1,0.2-0.1,0.4-0.1h15.9
		c0.3,0,0.5,0.2,0.5,0.5l0.6,11.5c0,0.1,0,0.3-0.1,0.4C272.9,329.2,272.8,329.3,272.7,329.3z M256.7,328.3h15.4l-0.5-10.5h-14.9
		L256.7,328.3z"/>
        <polygon class="st0" points="239.8,328.8 240.3,317.3 224.4,317.3 223.3,328.8 	"/>
        <path class="st1" d="M239.8,329.3h-16.4c-0.1,0-0.3-0.1-0.4-0.2c-0.1-0.1-0.1-0.2-0.1-0.4l1.1-11.5c0-0.3,0.2-0.5,0.5-0.5h15.9
		c0.3,0,0.5,0.2,0.5,0.5c0,0,0,0,0,0.1l-0.5,11.5C240.3,329.1,240,329.3,239.8,329.3z M223.9,328.3h15.4l0.5-10.5h-14.9L223.9,328.3
		z"/>
        <polygon class="st0" points="289.1,328.8 290.3,341.1 307.3,341.1 305.5,328.8 	"/>
        <path class="st1" d="M307.3,341.6h-17c-0.3,0-0.5-0.2-0.5-0.5l-1.2-12.3c0-0.1,0-0.3,0.1-0.4c0.1-0.1,0.2-0.2,0.4-0.2h16.4
		c0.2,0,0.5,0.2,0.5,0.4l1.8,12.3c0,0.1,0,0.3-0.1,0.4C307.6,341.5,307.5,341.6,307.3,341.6z M290.8,340.6h16l-1.6-11.3h-15.5
		L290.8,340.6z"/>
        <polygon class="st0" points="305.5,328.8 307.3,341.1 324.4,341.1 322,328.8 	"/>
        <path class="st1" d="M324.4,341.6h-17c-0.2,0-0.5-0.2-0.5-0.4l-1.8-12.3c0-0.1,0-0.3,0.1-0.4c0.1-0.1,0.2-0.2,0.4-0.2H322
		c0.2,0,0.4,0.2,0.5,0.4l2.4,12.3c0,0.1,0,0.3-0.1,0.4C324.6,341.5,324.5,341.6,324.4,341.6z M307.8,340.6h16l-2.2-11.3h-15.5
		L307.8,340.6z"/>
        <polygon class="st0" points="157.6,328.8 154,341.1 171.1,341.1 174,328.8 	"/>
        <path class="st1" d="M171.1,341.6H154c-0.2,0-0.3-0.1-0.4-0.2c-0.1-0.1-0.1-0.3-0.1-0.4l3.5-12.3c0.1-0.2,0.3-0.4,0.5-0.4H174
		c0.3,0,0.5,0.2,0.5,0.5c0,0,0,0.1,0,0.1l-2.9,12.3C171.5,341.5,171.3,341.6,171.1,341.6z M154.7,340.6h16l2.7-11.3h-15.5
		L154.7,340.6z"/>
        <polygon class="st0" points="322,328.8 324.4,341.1 341.4,341.1 338.4,328.8 	"/>
        <path class="st1" d="M341.4,341.6h-17c-0.2,0-0.4-0.2-0.5-0.4l-2.4-12.3c0-0.1,0-0.3,0.1-0.4c0.1-0.1,0.2-0.2,0.4-0.2h16.4
		c0.2,0,0.4,0.2,0.5,0.4l3,12.3c0,0.1,0,0.3-0.1,0.4C341.7,341.5,341.6,341.6,341.4,341.6z M324.8,340.6h16l-2.8-11.3h-15.4
		L324.8,340.6z"/>
        <polygon class="st0" points="256.2,328.8 256.2,341.1 273.3,341.1 272.7,328.8 	"/>
        <path class="st1" d="M273.3,341.6h-17c-0.3,0-0.5-0.2-0.5-0.5v-12.3c0-0.1,0-0.3,0.1-0.4c0.1-0.1,0.2-0.1,0.4-0.1h16.4
		c0.3,0,0.5,0.2,0.5,0.5l0.6,12.3c0,0.1,0,0.3-0.1,0.4C273.6,341.6,273.4,341.6,273.3,341.6z M256.7,340.6h16l-0.6-11.3h-15.5
		L256.7,340.6z"/>
        <polygon class="st0" points="338.4,328.8 341.4,341.1 358.4,341.1 354.9,328.8 	"/>
        <path class="st1" d="M358.4,341.6h-17c-0.2,0-0.4-0.2-0.5-0.4l-3-12.3c0-0.2,0-0.3,0.1-0.4c0.1-0.1,0.2-0.2,0.4-0.2h16.4
		c0.2,0,0.4,0.2,0.5,0.4l3.6,12.3c0,0.2,0,0.3-0.1,0.4C358.7,341.6,358.6,341.6,358.4,341.6z M341.8,340.6h16l-3.3-11.3h-15.5
		L341.8,340.6z"/>
        <polygon class="st0" points="272.7,328.8 273.3,341.1 290.3,341.1 289.1,328.8 	"/>
        <path class="st1" d="M290.3,341.6h-17c-0.3,0-0.5-0.2-0.5-0.5l-0.6-12.3c0-0.1,0-0.3,0.1-0.4c0.1-0.1,0.2-0.2,0.4-0.2h16.4
		c0.3,0,0.5,0.2,0.5,0.5l1.2,12.3c0,0.1,0,0.3-0.1,0.4C290.6,341.6,290.4,341.6,290.3,341.6z M273.7,340.6h16l-1.1-11.3h-15.5
		L273.7,340.6z"/>
        <polygon class="st0" points="190.4,328.8 188.1,341.1 205.1,341.1 206.9,328.8 	"/>
        <path class="st1" d="M205.1,341.6h-17c-0.1,0-0.3-0.1-0.4-0.2c-0.1-0.1-0.1-0.3-0.1-0.4l2.4-12.3c0-0.2,0.2-0.4,0.5-0.4h16.4
		c0.3,0,0.5,0.2,0.5,0.5c0,0,0,0,0,0.1l-1.8,12.3C205.6,341.4,205.4,341.6,205.1,341.6z M188.7,340.6h16l1.6-11.3h-15.5L188.7,340.6
		z"/>
        <polygon class="st0" points="174,328.8 171.1,341.1 188.1,341.1 190.4,328.8 	"/>
        <path class="st1" d="M188.1,341.6h-17c-0.2,0-0.3-0.1-0.4-0.2c-0.1-0.1-0.1-0.3-0.1-0.4l2.9-12.3c0.1-0.2,0.3-0.4,0.5-0.4h16.4
		c0.1,0,0.3,0.1,0.4,0.2c0.1,0.1,0.1,0.3,0.1,0.4l-2.3,12.3C188.6,341.5,188.4,341.6,188.1,341.6z M171.7,340.6h16l2.1-11.3h-15.5
		L171.7,340.6z"/>
        <polygon class="st0" points="239.8,328.8 239.2,341.1 256.2,341.1 256.2,328.8 	"/>
        <path class="st1" d="M256.2,341.6h-17c-0.1,0-0.3-0.1-0.4-0.1c-0.1-0.1-0.2-0.2-0.1-0.4l0.6-12.3c0-0.3,0.2-0.5,0.5-0.5h16.4
		c0.3,0,0.5,0.2,0.5,0.5v12.3c0,0.1-0.1,0.3-0.1,0.4C256.5,341.6,256.4,341.6,256.2,341.6z M239.7,340.6h16v-11.3h-15.5L239.7,340.6
		z"/>
        <polygon class="st0" points="223.3,328.8 222.2,341.1 239.2,341.1 239.8,328.8 	"/>
        <path class="st1" d="M239.2,341.6h-17c-0.1,0-0.3-0.1-0.4-0.2c-0.1-0.1-0.1-0.2-0.1-0.4l1.2-12.3c0-0.3,0.2-0.5,0.5-0.5h16.4
		c0.1,0,0.3,0.1,0.4,0.2c0.1,0.1,0.1,0.2,0.1,0.4l-0.6,12.3C239.7,341.4,239.5,341.6,239.2,341.6z M222.7,340.6h16l0.5-11.3h-15.5
		L222.7,340.6z"/>
        <polygon class="st0" points="206.9,328.8 205.1,341.1 222.2,341.1 223.3,328.8 	"/>
        <path class="st1" d="M222.2,341.6h-17c-0.3,0-0.5-0.2-0.5-0.5c0,0,0-0.1,0-0.1l1.8-12.3c0-0.2,0.2-0.4,0.5-0.4h16.4
		c0.1,0,0.3,0.1,0.4,0.2c0.1,0.1,0.1,0.2,0.1,0.4l-1.2,12.3C222.7,341.4,222.4,341.6,222.2,341.6z M205.7,340.6h16l1.1-11.3h-15.4
		L205.7,340.6z"/>
        <polygon class="st0" points="338.4,328.8 335.7,317.3 319.8,317.3 322,328.8 	"/>
        <path class="st1" d="M338.4,329.3H322c-0.2,0-0.4-0.2-0.5-0.4l-2.2-11.5c0-0.1,0-0.3,0.1-0.4c0.1-0.1,0.2-0.2,0.4-0.2h15.9
		c0.2,0,0.4,0.2,0.5,0.4l2.8,11.5c0,0.1,0,0.3-0.1,0.4C338.7,329.2,338.6,329.3,338.4,329.3z M322.4,328.3h15.4l-2.5-10.5h-14.9
		L322.4,328.3z"/>
        <polygon class="st0" points="148.6,306.6 152.2,295.6 137.4,295.6 133.2,306.6 	"/>
        <path class="st1" d="M148.6,307.1h-15.4c-0.3,0-0.5-0.2-0.5-0.5c0-0.1,0-0.1,0-0.2l4.2-11c0.1-0.2,0.3-0.3,0.5-0.3h14.9
		c0.3,0,0.5,0.2,0.5,0.5c0,0.1,0,0.1,0,0.2l-3.7,11C149,306.9,148.8,307.1,148.6,307.1z M133.9,306.1h14.3l3.3-10h-13.8L133.9,306.1
		z"/>
        <polygon class="st0" points="133.2,306.6 119,306.6 114.4,317.3 129.1,317.3 	"/>
        <path class="st1" d="M129.1,317.8h-14.7c-0.2,0-0.3-0.1-0.4-0.2c-0.1-0.1-0.1-0.3,0-0.5l4.6-10.7c0.1-0.2,0.3-0.3,0.5-0.3h14.2
		c0.2,0,0.3,0.1,0.4,0.2c0.1,0.1,0.1,0.3,0,0.5l-4.1,10.8C129.5,317.7,129.3,317.8,129.1,317.8z M115.2,316.8h13.6l3.7-9.7h-13.1
		L115.2,316.8z"/>
        <polygon class="st0" points="137.4,295.6 123.7,295.6 119,306.6 133.2,306.6 	"/>
        <path class="st1" d="M133.2,307.1H119c-0.2,0-0.3-0.1-0.4-0.2c-0.1-0.1-0.1-0.3,0-0.5l4.7-11c0.1-0.2,0.3-0.3,0.5-0.3h13.7
		c0.2,0,0.3,0.1,0.4,0.2c0.1,0.1,0.1,0.3,0.1,0.5l-4.2,11C133.6,307,133.4,307.1,133.2,307.1z M119.7,306.1h13.1l3.8-10H124
		L119.7,306.1z"/>
        <polygon class="st0" points="129.1,317.3 114.4,317.3 109.5,328.8 124.7,328.8 	"/>
        <path class="st1" d="M124.7,329.3h-15.2c-0.3,0-0.5-0.2-0.5-0.5c0-0.1,0-0.1,0-0.2l4.9-11.5c0.1-0.2,0.3-0.3,0.5-0.3h14.7
		c0.2,0,0.3,0.1,0.4,0.2c0.1,0.1,0.1,0.3,0.1,0.5l-4.4,11.5C125.1,329.2,124.9,329.3,124.7,329.3z M110.3,328.3h14.1l4-10.5h-13.6
		L110.3,328.3z"/>
        <polygon class="st0" points="124.7,328.8 109.5,328.8 104.3,341.1 120,341.1 	"/>
        <path class="st1" d="M120,341.6h-15.7c-0.3,0-0.5-0.2-0.5-0.5c0-0.1,0-0.1,0-0.2l5.2-12.3c0.1-0.2,0.3-0.3,0.5-0.3h15.2
		c0.3,0,0.5,0.2,0.5,0.5c0,0.1,0,0.1,0,0.2l-4.7,12.3C120.3,341.5,120.2,341.6,120,341.6z M105,340.6h14.6l4.4-11.3h-14.2L105,340.6
		z"/>
        <polygon class="st0" points="120,341.1 104.3,341.1 98.6,354.3 114.9,354.3 	"/>
        <path class="st1" d="M114.9,354.8H98.6c-0.2,0-0.3-0.1-0.4-0.2c-0.1-0.1-0.1-0.3,0-0.5l5.6-13.2c0.1-0.2,0.3-0.3,0.5-0.3H120
		c0.2,0,0.3,0.1,0.4,0.2c0.1,0.1,0.1,0.3,0.1,0.5l-5.1,13.2C115.3,354.7,115.1,354.8,114.9,354.8z M99.4,353.8h15.2l4.7-12.2h-14.7
		L99.4,353.8z"/>
        <polygon class="st0" points="383.4,317.3 387.8,328.8 402.3,328.8 397.4,317.3 	"/>
        <path class="st1" d="M402.3,329.3h-14.5c-0.2,0-0.4-0.1-0.5-0.3l-4.4-11.5c-0.1-0.2,0-0.3,0-0.5c0.1-0.1,0.2-0.2,0.4-0.2h14.1
		c0.2,0,0.4,0.1,0.5,0.3l4.9,11.5c0.1,0.1,0.1,0.3,0,0.5C402.7,329.2,402.5,329.3,402.3,329.3z M388.1,328.3h13.4l-4.5-10.5h-13
		L388.1,328.3z"/>
        <polygon class="st0" points="392.5,341.1 407.5,341.1 402.3,328.8 387.8,328.8 	"/>
        <path class="st1" d="M407.5,341.6h-15.1c-0.2,0-0.4-0.1-0.5-0.3l-4.7-12.3c-0.1-0.3,0-0.5,0.3-0.6c0.1,0,0.1,0,0.2,0h14.5
		c0.2,0,0.4,0.1,0.5,0.3l5.2,12.3c0.1,0.3,0,0.5-0.3,0.7C407.7,341.6,407.6,341.6,407.5,341.6L407.5,341.6z M392.8,340.6h14
		l-4.8-11.3h-13.5L392.8,340.6z"/>
        <polygon class="st0" points="397.6,354.3 413.2,354.3 407.5,341.1 392.5,341.1 	"/>
        <path class="st1" d="M413.2,354.8h-15.6c-0.2,0-0.4-0.1-0.5-0.3l-5.1-13.2c-0.1-0.3,0-0.6,0.3-0.7c0.1,0,0.1,0,0.2,0h15.1
		c0.2,0,0.4,0.1,0.5,0.3l5.6,13.2c0.1,0.1,0.1,0.3,0,0.5C413.5,354.8,413.4,354.9,413.2,354.8z M397.9,353.8h14.5l-5.2-12.2h-14
		L397.9,353.8z"/>
        <polygon class="st0" points="271.6,306.6 271,295.6 256.2,295.6 256.2,306.6 	"/>
        <path class="st1" d="M271.6,307.1h-15.4c-0.3,0-0.5-0.2-0.5-0.5v-11c0-0.1,0-0.3,0.1-0.4c0.1-0.1,0.2-0.2,0.4-0.1H271
		c0.3,0,0.5,0.2,0.5,0.5l0.5,11c0,0.1,0,0.3-0.1,0.4C271.8,307,271.7,307.1,271.6,307.1z M256.7,306.1H271l-0.5-10h-13.9
		L256.7,306.1z"/>
        <polygon class="st0" points="383.4,317.3 397.4,317.3 392.8,306.6 379.2,306.6 	"/>
        <path class="st1" d="M397.4,317.8h-14.1c-0.2,0-0.4-0.1-0.5-0.3l-4.1-10.8c-0.1-0.3,0-0.5,0.3-0.6c0.1,0,0.1,0,0.2,0h13.6
		c0.2,0,0.4,0.1,0.5,0.3l4.6,10.7c0.1,0.1,0.1,0.3,0,0.5C397.8,317.7,397.6,317.8,397.4,317.8z M383.7,316.8h13l-4.1-9.7H380
		L383.7,316.8z"/>
        <polygon class="st0" points="375.5,341.1 392.5,341.1 387.8,328.8 371.3,328.8 	"/>
        <path class="st1" d="M392.5,341.6h-17c-0.2,0-0.4-0.1-0.5-0.3l-4.2-12.3c-0.1-0.3,0.1-0.5,0.3-0.6c0.1,0,0.1,0,0.2,0h16.5
		c0.2,0,0.4,0.1,0.5,0.3l4.8,12.3c0.1,0.2,0,0.3-0.1,0.5C392.8,341.5,392.7,341.6,392.5,341.6z M375.8,340.6h15.9l-4.3-11.3H372
		L375.8,340.6z"/>
        <polygon class="st0" points="163.9,306.6 167.1,295.6 152.2,295.6 148.6,306.6 	"/>
        <path class="st1" d="M163.9,307.1h-15.4c-0.3,0-0.5-0.2-0.5-0.5c0-0.1,0-0.1,0-0.2l3.7-11c0.1-0.2,0.3-0.3,0.5-0.3h14.9
		c0.2,0,0.3,0.1,0.4,0.2c0.1,0.1,0.1,0.3,0.1,0.4l-3.1,11C164.3,306.9,164.2,307.1,163.9,307.1z M149.3,306.1h14.3l2.9-10h-13.8
		L149.3,306.1z"/>
        <polygon class="st0" points="363.8,306.6 367.5,317.3 383.4,317.3 379.2,306.6 	"/>
        <path class="st1" d="M383.3,317.8h-15.9c-0.2,0-0.4-0.1-0.5-0.3l-3.6-10.7c-0.1-0.2,0-0.3,0.1-0.5c0.1-0.1,0.2-0.2,0.4-0.2h15.4
		c0.2,0,0.4,0.1,0.5,0.3l4.1,10.7c0.1,0.2,0,0.3,0,0.5C383.7,317.7,383.5,317.8,383.3,317.8z M367.8,316.8h14.8l-3.7-9.7h-14.3
		L367.8,316.8z"/>
        <polygon class="st0" points="392.8,306.6 388.1,295.6 375,295.6 379.2,306.6 	"/>
        <path class="st1" d="M392.8,307.1h-13.6c-0.2,0-0.4-0.1-0.5-0.3l-4.2-11c-0.1-0.2,0-0.3,0.1-0.5c0.1-0.1,0.2-0.2,0.4-0.2h13.1
		c0.2,0,0.4,0.1,0.5,0.3l4.7,11c0.1,0.2,0,0.3,0,0.5C393.2,307,393,307.1,392.8,307.1z M379.6,306.1h12.5l-4.3-10h-12.1L379.6,306.1
		z"/>
        <polygon class="st0" points="379.2,306.6 375,295.6 360.1,295.6 363.8,306.6 	"/>
        <path class="st1" d="M379.2,307.1h-15.4c-0.2,0-0.4-0.1-0.5-0.3l-3.7-11c0-0.2,0-0.3,0.1-0.5c0.1-0.1,0.2-0.2,0.4-0.2H375
		c0.2,0,0.4,0.1,0.5,0.3l4.2,11c0.1,0.3,0,0.6-0.3,0.7C379.3,307.1,379.3,307.1,379.2,307.1z M364.2,306.1h14.3l-3.8-10h-13.8
		L364.2,306.1z"/>
        <polygon class="st0" points="324.4,341.1 326.9,354.3 344.6,354.3 341.4,341.1 	"/>
        <path class="st1" d="M344.6,354.8h-17.7c-0.2,0-0.5-0.2-0.5-0.4l-2.5-13.2c0-0.1,0-0.3,0.1-0.4c0.1-0.1,0.2-0.2,0.4-0.2h17
		c0.2,0,0.4,0.2,0.5,0.4l3.2,13.2c0,0.1,0,0.3-0.1,0.4C344.8,354.8,344.7,354.8,344.6,354.8z M327.3,353.8h16.6l-2.9-12.2h-16
		L327.3,353.8z"/>
        <polygon class="st0" points="379.9,354.3 397.6,354.3 392.5,341.1 375.5,341.1 	"/>
        <path class="st1" d="M397.6,354.8h-17.7c-0.2,0-0.4-0.1-0.5-0.3l-4.4-13.2c0-0.2,0-0.3,0.1-0.5c0.1-0.1,0.2-0.2,0.4-0.2h17
		c0.2,0,0.4,0.1,0.5,0.3l5,13.2c0.1,0.1,0.1,0.3,0,0.5C397.9,354.8,397.7,354.8,397.6,354.8z M380.3,353.8h16.6l-4.7-12.2h-16
		L380.3,353.8z"/>
        <polygon class="st0" points="363.8,306.6 360.1,295.6 345.3,295.6 348.5,306.6 	"/>
        <path class="st1" d="M363.8,307.1h-15.4c-0.2,0-0.4-0.2-0.5-0.4l-3.2-11c0-0.2,0-0.3,0.1-0.4c0.1-0.1,0.2-0.2,0.4-0.2h14.9
		c0.2,0,0.4,0.1,0.5,0.3l3.7,11c0,0.2,0,0.3-0.1,0.5C364.2,307,364,307.1,363.8,307.1z M348.8,306.1h14.3l-3.4-10H346L348.8,306.1z"
        />
        <polygon class="st0" points="358.4,341.1 362.2,354.3 379.9,354.3 375.5,341.1 	"/>
        <path class="st1" d="M379.9,354.8h-17.7c-0.2,0-0.4-0.2-0.5-0.4l-3.8-13.2c0-0.2,0-0.3,0.1-0.4c0.1-0.1,0.2-0.2,0.4-0.2h17
		c0.2,0,0.4,0.1,0.5,0.3l4.5,13.2c0,0.2,0,0.3-0.1,0.5C380.2,354.8,380,354.8,379.9,354.8z M362.6,353.8h16.6l-4.1-12.2h-16
		L362.6,353.8z"/>
        <polygon class="st0" points="341.4,341.1 344.6,354.3 362.2,354.3 358.4,341.1 	"/>
        <path class="st1" d="M362.2,354.8h-17.7c-0.2,0-0.4-0.2-0.5-0.4l-3.2-13.2c0-0.1,0-0.3,0.1-0.4c0.1-0.1,0.2-0.2,0.4-0.2h17
		c0.2,0,0.4,0.1,0.5,0.4l3.8,13.2c0,0.2,0,0.3-0.1,0.4C362.5,354.8,362.4,354.8,362.2,354.8z M345,353.8h16.6l-3.6-12.2h-16
		L345,353.8z"/>
        <polygon class="st0" points="371.3,328.8 387.8,328.8 383.4,317.3 367.5,317.3 	"/>
        <path class="st1" d="M387.8,329.3h-16.5c-0.2,0-0.4-0.1-0.5-0.3l-3.8-11.5c-0.1-0.3,0.1-0.5,0.3-0.6c0.1,0,0.1,0,0.2,0h15.9
		c0.2,0,0.4,0.1,0.5,0.3l4.4,11.5c0.1,0.2,0,0.5-0.3,0.6C387.9,329.3,387.8,329.3,387.8,329.3L387.8,329.3z M371.7,328.3H387
		l-4-10.5h-14.9L371.7,328.3z"/>
        <polygon class="st0" points="225.4,306.6 226.5,295.6 211.6,295.6 210.1,306.6 	"/>
        <path class="st1" d="M225.4,307.1h-15.4c-0.1,0-0.3-0.1-0.4-0.2c-0.1-0.1-0.1-0.2-0.1-0.4l1.6-11c0-0.2,0.2-0.4,0.5-0.4h14.9
		c0.1,0,0.3,0.1,0.4,0.2c0.1,0.1,0.1,0.2,0.1,0.4l-1,11C226,306.9,225.7,307.1,225.4,307.1z M210.6,306.1H225l0.9-10h-13.9
		L210.6,306.1z"/>
        <polygon class="st0" points="348.5,306.6 345.3,295.6 330.5,295.6 333.1,306.6 	"/>
        <path class="st1" d="M348.5,307.1h-15.4c-0.2,0-0.4-0.2-0.5-0.4l-2.6-11c0-0.1,0-0.3,0.1-0.4c0.1-0.1,0.2-0.2,0.4-0.2h14.9
		c0.2,0,0.4,0.1,0.5,0.4l3.2,11c0.1,0.3-0.1,0.6-0.4,0.6C348.5,307.1,348.5,307.1,348.5,307.1L348.5,307.1z M333.5,306.1h14.3
		l-2.9-10h-13.8L333.5,306.1z"/>
        <polygon class="st0" points="210.1,306.6 211.6,295.6 196.8,295.6 194.7,306.6 	"/>
        <path class="st1" d="M210.1,307.1h-15.4c-0.2,0-0.3-0.1-0.4-0.2c-0.1-0.1-0.1-0.3-0.1-0.4l2.1-11c0-0.2,0.2-0.4,0.5-0.4h14.9
		c0.1,0,0.3,0.1,0.4,0.2c0.1,0.1,0.1,0.3,0.1,0.4l-1.6,11C210.5,306.9,210.3,307.1,210.1,307.1z M195.3,306.1h14.3l1.4-10h-13.9
		L195.3,306.1z"/>
        <polygon class="st0" points="256.2,306.6 256.2,295.6 241.3,295.6 240.8,306.6 	"/>
        <path class="st1" d="M256.2,307.1h-15.4c-0.1,0-0.3-0.1-0.4-0.2c-0.1-0.1-0.2-0.2-0.1-0.4l0.5-11c0-0.3,0.2-0.5,0.5-0.5h14.8
		c0.3,0,0.5,0.2,0.5,0.5v11C256.7,306.8,256.5,307.1,256.2,307.1L256.2,307.1z M241.3,306.1h14.4v-10h-13.9L241.3,306.1z"/>
        <polygon class="st0" points="194.7,306.6 196.8,295.6 181.9,295.6 179.3,306.6 	"/>
        <path class="st1" d="M194.7,307.1h-15.4c-0.2,0-0.3-0.1-0.4-0.2c-0.1-0.1-0.1-0.3-0.1-0.4l2.6-11c0.1-0.2,0.3-0.4,0.5-0.4h14.9
		c0.1,0,0.3,0.1,0.4,0.2c0.1,0.1,0.1,0.3,0.1,0.4l-2.1,11C195.1,306.9,194.9,307.1,194.7,307.1z M179.9,306.1h14.3l1.9-10h-13.9
		L179.9,306.1z"/>
        <polygon class="st0" points="179.3,306.6 181.9,295.6 167.1,295.6 163.9,306.6 	"/>
        <path class="st1" d="M179.3,307.1h-15.4c-0.2,0-0.3-0.1-0.4-0.2c-0.1-0.1-0.1-0.3-0.1-0.4l3.1-11c0.1-0.2,0.3-0.4,0.5-0.4h14.9
		c0.2,0,0.3,0.1,0.4,0.2c0.1,0.1,0.1,0.3,0.1,0.4l-2.6,11C179.7,306.9,179.5,307.1,179.3,307.1z M164.6,306.1h14.3l2.4-10h-13.9
		L164.6,306.1z"/>
        <polygon class="st0" points="240.8,306.6 241.3,295.6 226.5,295.6 225.4,306.6 	"/>
        <path class="st1" d="M240.8,307.1h-15.4c-0.1,0-0.3-0.1-0.4-0.2c-0.1-0.1-0.1-0.2-0.1-0.4l1.1-11c0-0.3,0.2-0.4,0.5-0.5h14.9
		c0.1,0,0.3,0.1,0.4,0.2c0.1,0.1,0.1,0.2,0.1,0.4l-0.5,11C241.3,306.9,241.1,307.1,240.8,307.1z M226,306.1h14.4l0.5-10h-13.9
		L226,306.1z"/>
        <polygon class="st0" points="333.1,306.6 330.5,295.6 315.6,295.6 317.7,306.6 	"/>
        <path class="st1" d="M333.1,307.1h-15.4c-0.2,0-0.5-0.2-0.5-0.4l-2.1-11c0-0.3,0.1-0.5,0.4-0.6c0,0,0.1,0,0.1,0h14.9
		c0.2,0,0.4,0.2,0.5,0.4l2.6,11c0.1,0.3-0.1,0.5-0.4,0.6C333.2,307.1,333.1,307.1,333.1,307.1L333.1,307.1z M318.1,306.1h14.3
		l-2.4-10h-13.8L318.1,306.1z"/>
        <polygon class="st0" points="317.7,306.6 315.6,295.6 300.7,295.6 302.3,306.6 	"/>
        <path class="st1" d="M317.7,307.1h-15.4c-0.2,0-0.5-0.2-0.5-0.4l-1.6-11c0-0.1,0-0.3,0.1-0.4c0.1-0.1,0.2-0.2,0.4-0.2h14.9
		c0.2,0,0.5,0.2,0.5,0.4l2.1,11c0,0.1,0,0.3-0.1,0.4C318,307,317.9,307.1,317.7,307.1z M302.8,306.1h14.3l-1.9-10h-13.9L302.8,306.1
		z"/>
        <polygon class="st0" points="287,306.6 285.9,295.6 271,295.6 271.6,306.6 	"/>
        <path class="st1" d="M287,307.1h-15.4c-0.3,0-0.5-0.2-0.5-0.5l-0.5-11c0-0.1,0-0.3,0.1-0.4c0.1-0.1,0.2-0.2,0.4-0.2h14.9
		c0.3,0,0.5,0.2,0.5,0.5l1.1,11C287.5,306.8,287.3,307,287,307.1C287,307.1,287,307.1,287,307.1L287,307.1z M272.1,306.1h14.3l-1-10
		h-13.8L272.1,306.1z"/>
        <polygon class="st0" points="324.4,341.1 307.3,341.1 290.3,341.1 273.3,341.1 256.2,341.1 239.2,341.1 222.2,341.1 205.1,341.1
		188.1,341.1 171.1,341.1 154,341.1 150.3,354.3 167.9,354.3 185.6,354.3 203.3,354.3 220.9,354.3 238.6,354.3 256.2,354.3 
		273.9,354.3 291.6,354.3 309.2,354.3 326.9,354.3 	"/>
        <path class="st1" d="M326.9,354.8H150.3c-0.2,0-0.3-0.1-0.4-0.2c-0.1-0.1-0.1-0.3-0.1-0.4l3.8-13.2c0.1-0.2,0.3-0.4,0.5-0.4h170.3
		c0.2,0,0.5,0.2,0.5,0.4l2.5,13.2c0,0.1,0,0.3-0.1,0.4C327.2,354.8,327,354.8,326.9,354.8z M150.9,353.8h175.4l-2.4-12.2H154.4
		L150.9,353.8z"/>
        <polygon class="st0" points="302.3,306.6 300.7,295.6 285.9,295.6 287,306.6 	"/>
        <path class="st1" d="M302.3,307.1H287c-0.3,0-0.5-0.2-0.5-0.5l-1.1-11c0-0.1,0-0.3,0.1-0.4c0.1-0.1,0.2-0.2,0.4-0.2h14.9
		c0.2,0,0.5,0.2,0.5,0.4l1.6,11c0,0.1,0,0.3-0.1,0.4C302.7,307,302.5,307.1,302.3,307.1z M287.4,306.1h14.3l-1.4-10h-13.9
		L287.4,306.1z"/>
        <rect x="63.3" y="377.6" class="st0" width="378.5" height="5.4"/>
        <path class="st0" d="M441.8,383.4H63.3c-0.3,0-0.5-0.2-0.5-0.5v-5.4c0-0.3,0.2-0.5,0.5-0.5h378.5c0.3,0,0.5,0.2,0.5,0.5v5.4
		C442.3,383.2,442.1,383.4,441.8,383.4z M63.8,382.4h377.5v-4.4H63.8L63.8,382.4z"/>
        <path class="st0" d="M157.6,120.5h-16.5c-0.8,0-1.5-0.7-1.5-1.5s0.7-1.5,1.5-1.5h16.5c0.8,0,1.5,0.7,1.5,1.5
		S158.4,120.5,157.6,120.5z"/>
        <path class="st1"
              d="M203,129h-62c-0.8,0-1.5-0.7-1.5-1.5s0.7-1.5,1.5-1.5h62c0.8,0,1.5,0.7,1.5,1.5S203.8,129,203,129z"/>
        <path class="st1" d="M298.8,129h-61.9c-0.8,0-1.5-0.7-1.5-1.5s0.7-1.5,1.5-1.5h62c0.8,0,1.5,0.7,1.5,1.5S299.7,129,298.8,129
		L298.8,129z"/>
        <path class="st0" d="M231.5,129H207c-0.8,0-1.5-0.7-1.5-1.5s0.7-1.5,1.5-1.5h24.5c0.8,0,1.5,0.7,1.5,1.5S232.3,129,231.5,129
		L231.5,129z"/>
        <path class="st0" d="M176.7,137.5h-35.7c-0.8,0-1.5-0.7-1.5-1.5s0.7-1.5,1.5-1.5h35.7c0.8,0,1.5,0.7,1.5,1.5
		S177.5,137.5,176.7,137.5z"/>
        <path class="st0" d="M216.8,137.5h-35.7c-0.8,0-1.5-0.7-1.5-1.5s0.7-1.5,1.5-1.5h35.7c0.8,0,1.5,0.7,1.5,1.5
		S217.6,137.5,216.8,137.5z"/>
        <path class="st0" d="M256.9,137.5h-35.6c-0.8,0-1.5-0.7-1.5-1.5s0.7-1.5,1.5-1.5h35.6c0.8,0,1.5,0.7,1.5,1.5
		S257.8,137.5,256.9,137.5z"/>
        <path class="st0" d="M276.5,137.5h-15.1c-0.8,0-1.5-0.7-1.5-1.5s0.7-1.5,1.5-1.5h15.1c0.8,0,1.5,0.7,1.5,1.5
		S277.4,137.5,276.5,137.5z"/>
        <path class="st0" d="M178.5,120.5H162c-0.8,0-1.5-0.7-1.5-1.5s0.7-1.5,1.5-1.5h16.5c0.8,0,1.5,0.7,1.5,1.5S179.3,120.5,178.5,120.5
		z"/>
        <path class="st0" d="M276.5,120.5H260c-0.8,0-1.5-0.7-1.5-1.5s0.7-1.5,1.5-1.5h16.5c0.8,0,1.5,0.7,1.5,1.5S277.4,120.5,276.5,120.5
		L276.5,120.5z"/>
        <path class="st1" d="M254.7,120.5h-16.5c-0.8,0-1.5-0.7-1.5-1.5s0.7-1.5,1.5-1.5h16.5c0.8,0,1.5,0.7,1.5,1.5
		S255.5,120.5,254.7,120.5z"/>
        <path class="st0" d="M231.1,120.5H183c-0.8,0-1.5-0.7-1.5-1.5s0.7-1.5,1.5-1.5h48.1c0.8,0,1.5,0.7,1.5,1.5S232,120.5,231.1,120.5
		L231.1,120.5L231.1,120.5z"/>
        <path class="st0" d="M157.6,172.2h-16.5c-0.8,0-1.5-0.7-1.5-1.5s0.7-1.5,1.5-1.5h16.5c0.8,0,1.5,0.7,1.5,1.5
		S158.4,172.2,157.6,172.2z"/>
        <path class="st1"
              d="M203,180.7h-62c-0.8,0-1.5-0.7-1.5-1.5s0.7-1.5,1.5-1.5h62c0.8,0,1.5,0.7,1.5,1.5S203.8,180.7,203,180.7z"/>
        <path class="st0" d="M298.8,180.7h-61.9c-0.8,0-1.5-0.7-1.5-1.5s0.7-1.5,1.5-1.5h62c0.8,0,1.5,0.7,1.5,1.5S299.7,180.7,298.8,180.7
		L298.8,180.7z"/>
        <path class="st0" d="M231.5,180.7H207c-0.8,0-1.5-0.7-1.5-1.5s0.7-1.5,1.5-1.5h24.5c0.8,0,1.5,0.7,1.5,1.5S232.3,180.7,231.5,180.7
		L231.5,180.7z"/>
        <path class="st0" d="M176.7,189.2h-35.7c-0.8,0-1.5-0.7-1.5-1.5s0.7-1.5,1.5-1.5h35.7c0.8,0,1.5,0.7,1.5,1.5
		S177.5,189.2,176.7,189.2z"/>
        <path class="st0" d="M216.8,189.2h-35.7c-0.8,0-1.5-0.7-1.5-1.5s0.7-1.5,1.5-1.5h35.7c0.8,0,1.5,0.7,1.5,1.5
		S217.6,189.2,216.8,189.2z"/>
        <path class="st1" d="M256.9,189.2h-35.6c-0.8,0-1.5-0.7-1.5-1.5s0.7-1.5,1.5-1.5h35.6c0.8,0,1.5,0.7,1.5,1.5
		S257.8,189.2,256.9,189.2z"/>
        <path class="st0" d="M276.5,189.2h-15.1c-0.8,0-1.5-0.7-1.5-1.5s0.7-1.5,1.5-1.5h15.1c0.8,0,1.5,0.7,1.5,1.5
		S277.4,189.2,276.5,189.2z"/>
        <path class="st0" d="M178.5,172.2H162c-0.8,0-1.5-0.7-1.5-1.5s0.7-1.5,1.5-1.5h16.5c0.8,0,1.5,0.7,1.5,1.5S179.3,172.2,178.5,172.2
		z"/>
        <path class="st0" d="M276.5,172.2H260c-0.8,0-1.5-0.7-1.5-1.5s0.7-1.5,1.5-1.5h16.5c0.8,0,1.5,0.7,1.5,1.5S277.4,172.2,276.5,172.2
		L276.5,172.2z"/>
        <path class="st1" d="M254.7,172.2h-16.5c-0.8,0-1.5-0.7-1.5-1.5s0.7-1.5,1.5-1.5h16.5c0.8,0,1.5,0.7,1.5,1.5
		S255.5,172.2,254.7,172.2z"/>
        <path class="st0" d="M231.1,172.2H183c-0.8,0-1.5-0.7-1.5-1.5s0.7-1.5,1.5-1.5h48.1c0.8,0,1.5,0.7,1.5,1.5S232,172.2,231.1,172.2
		L231.1,172.2L231.1,172.2z"/>
        <path class="st0" d="M157.6,248.4h-16.5c-0.8,0-1.5-0.7-1.5-1.5s0.7-1.5,1.5-1.5h16.5c0.8,0,1.5,0.7,1.5,1.5
		S158.4,248.4,157.6,248.4z"/>
        <path class="st1"
              d="M203,256.9h-62c-0.8,0-1.5-0.7-1.5-1.5s0.7-1.5,1.5-1.5h62c0.8,0,1.5,0.7,1.5,1.5S203.8,256.9,203,256.9z"/>
        <path class="st0" d="M298.8,256.9h-61.9c-0.8,0-1.5-0.7-1.5-1.5s0.7-1.5,1.5-1.5h62c0.8,0,1.5,0.7,1.5,1.5S299.7,256.9,298.8,256.9
		L298.8,256.9z"/>
        <path class="st0" d="M231.5,256.9H207c-0.8,0-1.5-0.7-1.5-1.5s0.7-1.5,1.5-1.5h24.5c0.8,0,1.5,0.7,1.5,1.5S232.3,256.9,231.5,256.9
		L231.5,256.9z"/>
        <path class="st0" d="M176.7,265.4h-35.7c-0.8,0-1.5-0.7-1.5-1.5s0.7-1.5,1.5-1.5h35.7c0.8,0,1.5,0.7,1.5,1.5
		S177.5,265.4,176.7,265.4z"/>
        <path class="st0" d="M216.8,265.4h-35.7c-0.8,0-1.5-0.7-1.5-1.5s0.7-1.5,1.5-1.5h35.7c0.8,0,1.5,0.7,1.5,1.5
		S217.6,265.4,216.8,265.4z"/>
        <path class="st1" d="M256.9,265.4h-35.6c-0.8,0-1.5-0.7-1.5-1.5s0.7-1.5,1.5-1.5h35.6c0.8,0,1.5,0.7,1.5,1.5
		S257.8,265.4,256.9,265.4z"/>
        <path class="st0" d="M276.5,265.4h-15.1c-0.8,0-1.5-0.7-1.5-1.5s0.7-1.5,1.5-1.5h15.1c0.8,0,1.5,0.7,1.5,1.5
		S277.4,265.4,276.5,265.4z"/>
        <path class="st0" d="M178.5,248.4H162c-0.8,0-1.5-0.7-1.5-1.5s0.7-1.5,1.5-1.5h16.5c0.8,0,1.5,0.7,1.5,1.5S179.3,248.4,178.5,248.4
		z"/>
        <path class="st0" d="M276.5,248.4H260c-0.8,0-1.5-0.7-1.5-1.5s0.7-1.5,1.5-1.5h16.5c0.8,0,1.5,0.7,1.5,1.5S277.4,248.4,276.5,248.4
		L276.5,248.4z"/>
        <path class="st1" d="M254.7,248.4h-16.5c-0.8,0-1.5-0.7-1.5-1.5s0.7-1.5,1.5-1.5h16.5c0.8,0,1.5,0.7,1.5,1.5
		S255.5,248.4,254.7,248.4z"/>
        <path class="st0" d="M231.1,248.4H183c-0.8,0-1.5-0.7-1.5-1.5s0.7-1.5,1.5-1.5h48.1c0.8,0,1.5,0.7,1.5,1.5S232,248.4,231.1,248.4
		L231.1,248.4L231.1,248.4z"/>
        <path class="st0" d="M250.3,146.4h-16.5c-0.8,0-1.5-0.7-1.5-1.5s0.7-1.5,1.5-1.5h16.5c0.8,0,1.5,0.7,1.5,1.5
		S251.1,146.4,250.3,146.4z"/>
        <path class="st0" d="M228.4,146.4h-16.5c-0.8,0-1.5-0.7-1.5-1.5s0.7-1.5,1.5-1.5h16.5c0.8,0,1.5,0.7,1.5,1.5
		S229.2,146.4,228.4,146.4z"/>
        <path class="st0" d="M204.8,146.4h-48.1c-0.8,0-1.5-0.7-1.5-1.5s0.7-1.5,1.5-1.5h48.1c0.8,0,1.5,0.7,1.5,1.5
		S205.6,146.4,204.8,146.4z"/>
        <path class="st0" d="M250.3,161.5h-16.5c-0.8,0-1.5-0.7-1.5-1.5s0.7-1.5,1.5-1.5h16.5c0.8,0,1.5,0.7,1.5,1.5
		S251.1,161.5,250.3,161.5z"/>
        <path class="st0" d="M228.4,161.5h-16.5c-0.8,0-1.5-0.7-1.5-1.5s0.7-1.5,1.5-1.5h16.5c0.8,0,1.5,0.7,1.5,1.5
		S229.2,161.5,228.4,161.5z"/>
        <path class="st1" d="M204.8,161.5h-48.1c-0.8,0-1.5-0.7-1.5-1.5s0.7-1.5,1.5-1.5h48.1c0.8,0,1.5,0.7,1.5,1.5
		S205.6,161.5,204.8,161.5z"/>
        <path class="st0"
              d="M173.1,154h-16.5c-0.8,0-1.5-0.7-1.5-1.5s0.7-1.5,1.5-1.5h16.5c0.8,0,1.5,0.7,1.5,1.5S174,154,173.1,154z"/>
        <path class="st0"
              d="M195,154h-16.5c-0.8,0-1.5-0.7-1.5-1.5s0.7-1.5,1.5-1.5H195c0.8,0,1.5,0.7,1.5,1.5S195.8,154,195,154z"/>
        <path class="st1"
              d="M250.3,154h-48.1c-0.8,0-1.5-0.7-1.5-1.5s0.7-1.5,1.5-1.5h48.1c0.8,0,1.5,0.7,1.5,1.5S251.1,154,250.3,154z"/>
        <path class="st0" d="M250.3,199.4h-16.5c-0.8,0-1.5-0.7-1.5-1.5s0.7-1.5,1.5-1.5h16.5c0.8,0,1.5,0.7,1.5,1.5
		S251.1,199.4,250.3,199.4z"/>
        <path class="st0" d="M228.4,199.4h-16.5c-0.8,0-1.5-0.7-1.5-1.5s0.7-1.5,1.5-1.5h16.5c0.8,0,1.5,0.7,1.5,1.5
		S229.2,199.4,228.4,199.4z"/>
        <path class="st0" d="M204.8,199.4h-48.1c-0.8,0-1.5-0.7-1.5-1.5s0.7-1.5,1.5-1.5h48.1c0.8,0,1.5,0.7,1.5,1.5
		S205.6,199.4,204.8,199.4z"/>
        <path class="st0" d="M250.3,214.6h-16.5c-0.8,0-1.5-0.7-1.5-1.5s0.7-1.5,1.5-1.5h16.5c0.8,0,1.5,0.7,1.5,1.5
		S251.1,214.6,250.3,214.6z"/>
        <path class="st0" d="M228.4,214.6h-16.5c-0.8,0-1.5-0.7-1.5-1.5s0.7-1.5,1.5-1.5h16.5c0.8,0,1.5,0.7,1.5,1.5
		S229.2,214.6,228.4,214.6z"/>
        <path class="st1" d="M204.8,214.6h-48.1c-0.8,0-1.5-0.7-1.5-1.5s0.7-1.5,1.5-1.5h48.1c0.8,0,1.5,0.7,1.5,1.5
		S205.6,214.6,204.8,214.6z"/>
        <path class="st0"
              d="M173.1,207h-16.5c-0.8,0-1.5-0.7-1.5-1.5s0.7-1.5,1.5-1.5h16.5c0.8,0,1.5,0.7,1.5,1.5S174,207,173.1,207z"/>
        <path class="st0"
              d="M195,207h-16.5c-0.8,0-1.5-0.7-1.5-1.5s0.7-1.5,1.5-1.5H195c0.8,0,1.5,0.7,1.5,1.5S195.8,207,195,207z"/>
        <path class="st1"
              d="M250.3,207h-48.1c-0.8,0-1.5-0.7-1.5-1.5s0.7-1.5,1.5-1.5h48.1c0.8,0,1.5,0.7,1.5,1.5S251.1,207,250.3,207z"/>
        <path class="st0" d="M173.1,223.5h-16.5c-0.8,0-1.5-0.7-1.5-1.5s0.7-1.5,1.5-1.5h16.5c0.8,0,1.5,0.7,1.5,1.5S174,223.5,173.1,223.5
		z"/>
        <path class="st0"
              d="M195,223.5h-16.5c-0.8,0-1.5-0.7-1.5-1.5s0.7-1.5,1.5-1.5H195c0.8,0,1.5,0.7,1.5,1.5S195.8,223.5,195,223.5z"
        />
        <path class="st1" d="M250.3,223.5h-48.1c-0.8,0-1.5-0.7-1.5-1.5s0.7-1.5,1.5-1.5h48.1c0.8,0,1.5,0.7,1.5,1.5
		S251.1,223.5,250.3,223.5z"/>
        <path class="st0" d="M173.1,238.6h-16.5c-0.8,0-1.5-0.7-1.5-1.5s0.7-1.5,1.5-1.5h16.5c0.8,0,1.5,0.7,1.5,1.5S174,238.6,173.1,238.6
		z"/>
        <path class="st0"
              d="M195,238.6h-16.5c-0.8,0-1.5-0.7-1.5-1.5s0.7-1.5,1.5-1.5H195c0.8,0,1.5,0.7,1.5,1.5S195.8,238.6,195,238.6z"
        />
        <path class="st1" d="M250.3,238.6h-48.1c-0.8,0-1.5-0.7-1.5-1.5s0.7-1.5,1.5-1.5h48.1c0.8,0,1.5,0.7,1.5,1.5
		S251.1,238.6,250.3,238.6z"/>
        <path class="st0" d="M250.3,231.1h-16.5c-0.8,0-1.5-0.7-1.5-1.5s0.7-1.5,1.5-1.5h16.5c0.8,0,1.5,0.7,1.5,1.5
		S251.1,231.1,250.3,231.1z"/>
        <path class="st0" d="M228.4,231.1h-16.5c-0.8,0-1.5-0.7-1.5-1.5s0.7-1.5,1.5-1.5h16.5c0.8,0,1.5,0.7,1.5,1.5
		S229.2,231.1,228.4,231.1z"/>
        <path class="st1" d="M204.8,231.1h-48.1c-0.8,0-1.5-0.7-1.5-1.5s0.7-1.5,1.5-1.5h48.1c0.8,0,1.5,0.7,1.5,1.5
		S205.6,231.1,204.8,231.1z"/>
        <rect x="129.7" y="116.1" class="st0" width="5.3" height="5.2"/>
        <rect x="129.7" y="124.6" class="st0" width="5.3" height="5.2"/>
        <rect x="129.7" y="133.2" class="st0" width="5.3" height="5.2"/>
        <rect x="129.7" y="141.7" class="st0" width="5.3" height="5.2"/>
        <rect x="129.7" y="150.3" class="st0" width="5.3" height="5.2"/>
        <rect x="129.7" y="158.8" class="st0" width="5.3" height="5.2"/>
        <rect x="129.7" y="167.3" class="st0" width="5.3" height="5.2"/>
        <rect x="129.7" y="175.9" class="st0" width="5.3" height="5.2"/>
        <rect x="129.7" y="184.4" class="st0" width="5.3" height="5.2"/>
        <rect x="129.7" y="193" class="st0" width="5.3" height="5.2"/>
        <rect x="129.7" y="201.5" class="st0" width="5.3" height="5.2"/>
        <rect x="129.7" y="210.1" class="st0" width="5.3" height="5.2"/>
        <rect x="129.7" y="218.6" class="st0" width="5.3" height="5.2"/>
        <rect x="129.7" y="227.1" class="st0" width="5.3" height="5.2"/>
        <rect x="129.7" y="235.7" class="st0" width="5.3" height="5.2"/>
        <rect x="129.7" y="244.2" class="st0" width="5.3" height="5.2"/>
        <rect x="129.7" y="252.8" class="st0" width="5.3" height="5.2"/>
        <rect x="129.7" y="261.3" class="st0" width="5.3" height="5.2"/>
    </g>
    <g id="freepik--speech-bubble--inject-82">
        <path class="st0" d="M380,22.7c-31.6,0-57.2,25.6-57.2,57.2c0,15.6,6.4,30.5,17.7,41.3l-8.1,15.2l20-6.5
		c27.6,15.3,62.4,5.3,77.7-22.4c15.3-27.6,5.3-62.4-22.4-77.7C399.2,25.1,389.7,22.7,380,22.7z"/>
        <path class="st0" d="M380,137.6c-9.7,0-19.2-2.4-27.8-7.1l-19.8,6.4c-0.2,0.1-0.4,0-0.5-0.1c-0.1-0.2-0.1-0.4,0-0.6l8-14.9
		c-22.9-22.2-23.5-58.7-1.3-81.6s58.7-23.5,81.6-1.3c11.2,10.9,17.6,25.8,17.6,41.5C437.7,111.7,411.9,137.5,380,137.6z
		 M352.3,129.4c0.1,0,0.2,0,0.2,0.1c27.4,15.2,61.9,5.3,77.1-22.1c15.2-27.4,5.3-61.9-22.1-77.1s-61.9-5.3-77.1,22.1
		c-4.7,8.4-7.1,17.9-7.1,27.5c-0.1,15.5,6.3,30.3,17.5,41c0.2,0.2,0.2,0.4,0.1,0.6l-7.5,14.1l18.8-6.1L352.3,129.4z"/>
        <path class="st1" d="M377.3,18.6c-31.6,0-57.2,25.6-57.2,57.2c0,15.6,6.4,30.5,17.7,41.3l-8.1,15.2l20-6.5
		c27.6,15.3,62.4,5.3,77.7-22.4c15.3-27.6,5.3-62.4-22.4-77.7C396.5,21,387,18.6,377.3,18.6z"/>
        <path class="st0" d="M377.3,133.5c-9.7,0-19.2-2.4-27.8-7.1l-19.8,6.4c-0.2,0.1-0.4,0-0.5-0.2c-0.1-0.2-0.2-0.4-0.1-0.6l8-14.8
		c-22.9-22.2-23.4-58.7-1.3-81.6c22.2-22.9,58.7-23.4,81.6-1.3s23.4,58.7,1.3,81.6C407.9,127.1,393,133.5,377.3,133.5L377.3,133.5z
		 M349.6,125.3c0.1,0,0.2,0,0.2,0.1c27.4,15.2,62,5.3,77.3-22.1s5.3-62-22.1-77.3s-62-5.3-77.3,22.1c-12.5,22.6-8.3,50.8,10.4,68.6
		c0.2,0.2,0.2,0.4,0.1,0.6l-7.5,14.1l18.8-6.1L349.6,125.3z"/>
        <g id="freepik--Code--inject-82">
            <path class="st2" d="M358.2,99.3l-22-15.5v-8.2l22-15.7v8.3l-15.8,11.4l15.8,11.4V99.3z"/>
            <path class="st2" d="M364.9,102.1l16.8-62.3h7.1l-16.8,62.3H364.9z"/>
            <path class="st2" d="M395.4,99.3v-8.2l15.8-11.5l-15.8-11.4v-8.3l22.1,15.6v8.2L395.4,99.3z"/>
            <path class="st0" d="M360.9,95.9l-22-15.5v-8.2l22-15.7v8.3l-15.8,11.4l15.8,11.4V95.9z"/>
            <path class="st0" d="M367.6,98.7l16.8-62.2h7.1l-16.8,62.2H367.6z"/>
            <path class="st0" d="M398.1,95.9v-8.2L414,76.2l-15.9-11.4v-8.3l22.1,15.6v8.2L398.1,95.9z"/>
        </g>
    </g>
</svg>
