<svg  xmlns="http://www.w3.org/2000/svg" viewBox="0 0 500 500" >
<style type="text/css">
	.st0{fill:#1EEBCD;}
	.st1{opacity:0.7;fill:#FFFFFF;enable-background:new;}
</style>
<g id="freepik--background-simple--inject-82">
	<path class="st0" d="M471,238.3c-4.9,41.8-24,90.4-62.1,112.7c-57.6,33.7-52.8,85.6-165.2,108.2c-16.4,3.4-33.1,4.9-49.8,4.7
		c-8.2-0.1-16.4-0.8-24.5-2c-71.4-10.4-119.5-60.1-137.2-120C9,263,55.3,211.4,86.1,180.3s53.2-128,163.6-151
		c16.8-3.6,34-5.2,51.2-4.9c39.3,1,82.1,13.8,111.7,40.8c2.2,2,4.4,4.1,6.5,6.3C460.2,113.7,477.7,181.3,471,238.3z"/>
	<path class="st1" d="M471,238.3c-4.9,41.8-24,90.4-62.1,112.7c-57.6,33.7-52.8,85.6-165.2,108.2c-16.4,3.4-33.1,4.9-49.8,4.7
		c-8.2-0.1-16.4-0.8-24.5-2c-71.4-10.4-119.5-60.1-137.2-120C9,263,55.3,211.4,86.1,180.3s53.2-128,163.6-151
		c16.8-3.6,34-5.2,51.2-4.9c39.3,1,82.1,13.8,111.7,40.8c2.2,2,4.4,4.1,6.5,6.3C460.2,113.7,477.7,181.3,471,238.3z"/>
</g>
</svg>
