<svg xmlns="http://www.w3.org/2000/svg" viewBox="0 0 3710 3710">
    <g id="ground">
        <path fill="DarkGreen" opacity="0.5" d="M0,2427.5c635.5,1855.2,2871.6,770.3,3540.1,147C2220.4,1556.2,812.1,1710.4,0,2427.5z"/>

        <path fill="OliveDrab" opacity="0.7" d="M36.1,2546.7c1063.8-790.1,2269.4-724.6,3444.1,81.3l-216.3,145.3c-1001.4-799-2085.3-785.9-3111.8-37.2
				L36.1,2546.7z"/>

        <path fill="DarkGreen" opacity="0.8"
              d="M331,2796.3c1816-695.7,1985.7-882.6,3379-616.8c-73.3,385.2-362.7,841.6-718.2,1131.1L331,2796.3z"/>

        <path fill="DarkGreen" opacity="1" d="M702.8,2869.9c1092.7-573,2096.9-810.1,2965-531.5l-94.2,234.3c-806.4-290-1389.1-124.7-2388.9,391.5
				L702.8,2869.9z"/>

        <path fill="DarkGreen" opacity="0.5"
              d="M24.4,2516.6c816.7,1823.3,3029.1,1306.9,3515.6,117C1688.3,3104.6,1789.2,1537.8,24.4,2516.6z"/>

        <path fill="OliveDrab" opacity="0.4" d="M3245,3086.8c126.2-135,227.4-287.6,295.1-453.2c-1840.8,468.2-1752-1077.3-3484.6-134
				C1784.6,1561.6,1404.3,3555,3245,3086.8z"/>
    </g>
</svg>
