<svg xmlns="http://www.w3.org/2000/svg" viewBox="0 0 3710 3710">
    <style>
        #prop-1 { animation: show 0.25s steps(1) 0s infinite; }
        #prop-2 { animation: show 0.25s steps(1) 0.1s infinite; }
        #prop-3 { animation: show 0.25s steps(1) 0.2s infinite; opacity: 0; }
        @keyframes show {
        0%   { opacity: 1; }
        33%  { opacity: 0; }
        100% { opacity: 0; }
        }
    </style>
    <g id="drone">
        <g id="main" >
            <path fill="#1EEBCD"
                  d="M1732,536.2c0,0-577-15.6-616,11.7s-15.6,89.7,0,101.4s432.7,74.1,432.7,74.1L1732,536.2z"/>

            <path fill="#1EEBCD"
                  d="M1806,536.2c0,0,577-15.6,616,11.7s15.6,89.7,0,101.4s-432.7,74.1-432.7,74.1L1806,536.2z"/>

            <path fill="#1EEBCD" opacity="0.9" d="M1811.6,522.6c38.8,0,76.7,11.1,109.3,32.1c101.4,65.2,330.6,209,414.5,233
			c109.2,31.2,179.3,42.9,183.2,89.7s-74.1,89.7-183.2,58.5c-112.6-32.2-337.3,19.5-409.9,40.1c-15.8,4.5-32.1,6.7-48.5,6.7h-238.3
			c-16.4,0-32.7-2.2-48.5-6.7c-72.6-20.6-297.3-72.2-409.9-40.1c-109.2,31.2-187.1-11.7-183.2-58.5c3.9-46.8,74.1-58.5,183.2-89.7
			c83.9-24,313-167.8,414.5-233c32.6-21,70.6-32.1,109.3-32.1H1811.6L1811.6,522.6z"/>
            <path fill="grey" opacity="0.4" d="M1045.1,897c15.2,5.1,30.8,9,46.6,11.6c15.8,2.5,31.7,3.9,47.5,2.9c7.9-0.5,15.7-1.6,23.2-3.5
			s14.8-4.7,21.5-8.4c3.4-1.8,6.5-4,9.6-6.2c2.9-2.5,5.8-4.9,8.3-7.7c5.1-5.6,9.5-11.9,12.6-18.9l1.2-2.6l1-2.7l2-5.4l4.5-11.8
			c1.8-3.8,3.6-7.6,5.5-11.3l6.5-10.8c9.3-14,20.9-26.2,33.6-36.8c25.6-21.2,55.2-36.6,85.8-48.4c61.3-23.7,126.1-35.2,190.9-41.9
			c64.9-6.4,130.1-7.4,195.2-4.5c65,3.2,129.8,10.4,194,21.6c64.1,11.5,127.6,26.8,189,49c15.3,5.6,30.5,11.6,45.4,18.3
			c14.9,6.6,29.7,13.8,43.9,21.9c14.3,8.1,28.2,16.9,41.3,26.9l9.6,7.8c3.2,2.7,6.2,5.5,9.3,8.3s5.9,5.9,8.8,8.8
			c2.9,3,5.5,5.8,8.3,8.6c11.2,11.1,23.9,20.5,38.3,26.6c14.3,6.2,29.9,9.7,45.7,11.5s31.9,2.1,47.9,1.3c16.1-0.6,32.1-2.3,48.1-4.2
			h0.1c2.1-0.3,4.1,1.3,4.3,3.4c0.2,2.1-1.3,4.1-3.4,4.3c-16.2,2.1-32.4,4-48.7,4.7c-16.3,1-32.8,0.9-49.2-0.8s-32.9-5.2-48.4-11.7
			c-15.6-6.4-29.5-16.5-41.4-28.1c-3-2.9-5.8-6-8.6-8.9c-2.8-2.8-5.5-5.7-8.4-8.4c-3-2.6-5.8-5.4-8.9-7.9l-9.3-7.5
			c-12.7-9.6-26.3-18.2-40.2-26c-14-7.9-28.4-14.9-43.1-21.4c-14.7-6.6-29.7-12.4-44.8-17.9c-60.7-21.8-123.8-36.8-187.4-47.9
			c-63.7-11-128.1-17.8-192.6-20.9c-64.5-3.1-129.3-2.3-193.5,3.8c-64.1,6.5-128.2,17.6-188.2,40.6c-29.9,11.5-58.6,26.4-83.1,46.5
			c-12.2,10.1-23.2,21.6-31.9,34.6l-6.1,10l-5.2,10.5l-4.2,10.9l-2.3,6l-1.1,3l-1.4,2.9c-7.2,15.5-19.6,29-34.8,36.8
			c-7.5,4-15.6,7-23.8,9c-8.2,1.9-16.5,3-24.8,3.5c-16.6,0.9-33.2-0.7-49.4-3.4c-16.2-2.9-32.1-7-47.6-12.3l0,0
			c-2-0.7-3.1-2.9-2.4-5C1040.9,897.4,1043.1,896.3,1045.1,897z"/>
            <path fill="grey" opacity="0.4" d="M1854.4,951L1854.4,951c-7.5,0-13.6-6.1-13.6-13.6v-74.7c0-7.5,6.1-13.6,13.6-13.6l0,0
			c7.5,0,13.6,6.1,13.6,13.6v74.7C1867.9,944.9,1861.8,951,1854.4,951z"/>
            <path fill="grey" opacity="0.4" d="M1806.8,951L1806.8,951c-7.5,0-13.6-6.1-13.6-13.6v-74.7c0-7.5,6.1-13.6,13.6-13.6l0,0
			c7.5,0,13.6,6.1,13.6,13.6v74.7C1820.4,944.9,1814.3,951,1806.8,951z"/>
            <path fill="grey" opacity="0.4" d="M1759.3,951L1759.3,951c-7.5,0-13.6-6.1-13.6-13.6v-74.7c0-7.5,6.1-13.6,13.6-13.6l0,0
			c7.5,0,13.6,6.1,13.6,13.6v74.7C1772.9,944.9,1766.8,951,1759.3,951z"/>
            <path fill="grey" opacity="0.4" d="M1711.8,951L1711.8,951c-7.5,0-13.6-6.1-13.6-13.6v-74.7c0-7.5,6.1-13.6,13.6-13.6l0,0
			c7.5,0,13.6,6.1,13.6,13.6v74.7C1725.4,944.9,1719.3,951,1711.8,951z"/>
            <path fill="grey" opacity="0.4" d="M1664.3,951L1664.3,951c-7.5,0-13.6-6.1-13.6-13.6v-74.7c0-7.5,6.1-13.6,13.6-13.6l0,0
			c7.5,0,13.6,6.1,13.6,13.6v74.7C1677.9,944.9,1671.8,951,1664.3,951z"/>

            <path fill="silver" d="M2291.4,538.8v-65.2c0-17.6,13.3-32.3,30.7-34.3c24.3-2.8,58.8-3.6,86.8,7.5c13.8,5.5,22.3,19.5,21.3,34.4
			l-4.6,63.7c-1.1,15.7-12.7,28.6-28.2,31.5c-20.3,3.7-50.3,5.6-82.2-4.8C2301.1,567.1,2291.4,553.8,2291.4,538.8z"/>

            <path fill="silver" d="M1246.6,538.8v-65.2c0-17.6-13.3-32.3-30.7-34.3c-24.3-2.8-58.8-3.6-86.8,7.5c-13.8,5.5-22.3,19.5-21.3,34.4
			l4.6,63.7c1.1,15.7,12.7,28.6,28.2,31.5c20.3,3.7,50.3,5.6,82.2-4.8C1236.9,567.1,1246.6,553.8,1246.6,538.8z"/>

            <path fill="silver" d="M1171.2,824.9v-75.3c0-20.3-15.3-37.3-35.5-39.6c-28.1-3.2-67.9-4.2-100.4,8.7c-16,6.3-25.8,22.6-24.6,39.7
			l5.3,73.7c1.3,18.1,14.7,33.1,32.5,36.4c23.5,4.3,58.1,6.5,95-5.5C1160,857.5,1171.2,842.2,1171.2,824.9z"/>

            <path fill="silver" d="M2344.5,824.9v-75.3c0-20.3,15.3-37.3,35.5-39.6c28.1-3.2,67.9-4.2,100.4,8.7c16,6.3,25.8,22.6,24.6,39.7
			l-5.3,73.7c-1.3,18.1-14.7,33.1-32.5,36.4c-23.5,4.3-58.1,6.5-95-5.5C2355.8,857.5,2344.5,842.2,2344.5,824.9z"/>
	    </g>
        <g id="prop-1" >
            <path fill="grey"
              d="M2349.9,401.7c0,0-42.9-46.8-78-58.5s-315.8-27.3-327.5-7.8C1932.7,354.9,2346,448.5,2349.9,401.7z"/>
            <path fill="#1EEBCD" d="M2322.6,456.3l-5.6-45.1c-1.6-12.9,5.5-25.4,17.6-30.4c12.7-5.2,30.9-7.5,52.7,4.4
            c8.2,4.5,13.3,13.2,13.3,22.5v48.6C2376.1,474,2350.3,475.9,2322.6,456.3z"/>
            <path fill="grey" d="M2377.2,425.1c0,0,31.2,58.5,62.4,70.2c31.2,11.7,374.9,49.5,382.1,35.1c15.6-31.2-292.4-113.1-331.4-117
            C2490.2,413.4,2373.3,397.8,2377.2,425.1z"/>
            <path fill="grey"
                  d="M1191.8,406.7c0,0,49.1-40.2,85.5-46.9s316.5,17.7,325.3,38.6C1611.3,419.4,1189,453.6,1191.8,406.7z"/>
            <path fill="#1EEBCD" d="M1216.3,448.7l4.7-37.6c1.6-12.9-5.5-25.4-17.6-30.4c-12.7-5.2-30.9-7.5-52.7,4.4
            c-8.2,4.5-13.3,13.2-13.3,22.5v48.6c22.4,16.3,46.1,19.2,71.3,4.3C1213,458.1,1215.7,453.6,1216.3,448.7z"/>
            <path fill="grey" d="M1161.4,426c0,0-39.2,53.5-71.7,60.6s-378.1-4.1-383.2-19.3c-11-33.1,305.4-70.5,344.6-68.9
            C1051.2,398.4,1169.2,399.5,1161.4,426z"/>
            <path fill="grey"
                  d="M1077.3,682.6c0,0-49.6-37.6-90.1-47c-40.6-9.4-365-21.9-378.5-6.3C595.1,645.1,1072.8,720.2,1077.3,682.6z"
            />
            <path fill="#1EEBCD" d="M1135.2,729.5l6.5-52.1c1.8-14.8-6.2-29.2-20-35c-14.7-6.1-35.8-8.9-61.3,4.9c-9.5,5.2-15.4,15.2-15.4,26.1
            l0.6,45.5c0.1,8.4,4.9,16,12.3,19.9C1082.4,751.3,1107.7,748.9,1135.2,729.5z"/>
            <path fill="grey" d="M1104.6,694.7c0,0,43.3,63.2,80.6,72.7c37.3,9.5,437,9.2,443.4-8.2c14-37.8-350.3-92.7-395.6-92.3
            C1233,666.9,1096.6,663.9,1104.6,694.7z"/>
            <path fill="grey"
                  d="M2439.3,690.2c0,0,42.2-45.7,80.5-62.1s355.5-85.7,371.6-72.6C2907.4,568.5,2450.3,726.4,2439.3,690.2z"/>
            <path fill="#1EEBCD" d="M2380.6,729.5l-6.5-52.1c-1.9-14.9,6.4-29.4,20.3-35.1c14.7-6,35.7-8.6,60.9,5c9.5,5.2,15.4,15.2,15.4,26.1
            v56.1C2442.5,750,2412.6,752.1,2380.6,729.5z"/>
            <path fill="grey" d="M2402.4,705c0,0-31.5,69.8-66.6,85.7s-428.6,85.8-438,69.8c-20.4-34.8,328.6-152.8,373.2-160.3
            C2271.1,700.2,2404.8,673.3,2402.4,705z"/>
        </g>
        <g id="prop-2">
            <path fill="grey" d="M2339.6,418.1c0,0,42.2-45.7,80.5-62.1s355.5-85.7,371.6-72.6C2807.7,296.4,2350.7,454.3,2339.6,418.1z"/>
            <path fill="#1EEBCD" d="M2318.3,456.3l-5.6-45.1c-1.6-12.9,5.5-25.4,17.6-30.4c12.7-5.2,30.9-7.5,52.7,4.4
            c8.2,4.5,13.3,13.2,13.3,22.5v48.6C2371.9,474,2346,475.9,2318.3,456.3z"/>
            <path fill="grey" d="M1113.7,693.4c0,0,21.3-40.9,43.3-54.3c22-13.4,210.8-62.2,222.1-49C1390.4,603.2,1124.3,728.1,1113.7,693.4z
            "/>
            <path fill="grey" d="M1168.6,399.3c0,0-38.9,11.3-57.3,2.6S930,259.1,933.2,249.8c7-20.1,174,79.6,192.3,95
            C1125.5,344.9,1182.2,389.3,1168.6,399.3z"/>
            <path fill="#1EEBCD" d="M1212,448.7l4.7-37.6c1.6-12.9-5.5-25.4-17.6-30.4c-12.7-5.2-30.9-7.5-52.7,4.4c-8.2,4.5-13.3,13.2-13.3,22.5
            v48.6c22.4,16.3,46.1,19.2,71.3,4.3C1208.7,458.1,1211.4,453.6,1212,448.7z"/>
            <path fill="#1EEBCD" d="M1130.9,729.5l6.5-52.1c1.8-14.8-6.2-29.2-20-35c-14.7-6.1-35.8-8.9-61.3,4.9c-9.5,5.2-15.4,15.2-15.4,26.1
            l0.6,45.5c0.1,8.4,4.9,16,12.3,19.9C1078.1,751.3,1103.4,748.9,1130.9,729.5z"/>
            <path fill="grey"
                  d="M2406.3,674.5c0,0-51.3,33.3-85,34.1s-278.4-70.1-282.3-93.1C2035.1,592.6,2417.6,626.8,2406.3,674.5z"/>
            <path fill="grey"
                  d="M1171,429c0,0,44.9-10.5,69.4-2.7s184.8,119,182.3,136.1C1420,579.6,1151.6,459.7,1171,429z"/>
            <path fill="#1EEBCD" d="M2376.3,729.5l-6.5-52.1c-1.9-14.9,6.4-29.4,20.3-35.1c14.7-6,35.7-8.6,60.9,5c9.5,5.2,15.4,15.2,15.4,26.1
            v56.1C2438.2,750,2408.3,752.1,2376.3,729.5z"/>
            <path fill="grey" d="M2431.9,707.7c0,0,34.2,48,66.4,57.7c32.3,9.6,384.4,40.6,391.2,28.8c14.7-25.6-302.8-92.9-342.8-96.1
            C2546.8,698.1,2426.9,685.3,2431.9,707.7z"/>
            <path fill="grey" d="M2341.9,419.8c0,0-18.8,39.3-39.8,48.2c-21,8.9-256.5,48.2-262.1,39.2c-12.2-19.6,196.6-85.9,223.4-90.1
            C2263.3,417.1,2343.4,401.9,2341.9,419.8z"/>
            <path fill="grey" d="M1073.1,686.7c0,0-11.4,52.1-31.3,65.5s-255.6,85.5-263.3,74.4c-16.7-24,185.8-128.3,212.6-136.2
            C991.2,690.5,1070.9,663.7,1073.1,686.7z"/>
        </g>
        <g id="prop-3">
            <path fill="grey" d="M2371.9,415.5c0,0-42.4-17.8-50.7-33.5s2.2-144.4,22.6-150.7C2364.2,225.1,2418.7,411.7,2371.9,415.5z"/>
            <path fill="#1EEBCD" d="M2318.3,456.3l-5.6-45.1c-1.6-12.9,5.5-25.4,17.6-30.4c12.7-5.2,30.9-7.5,52.7,4.4
            c8.2,4.5,13.3,13.2,13.3,22.5v48.6C2371.9,474,2346,475.9,2318.3,456.3z"/>
            <path fill="grey"
                  d="M1185.2,417.8c0,0-34.7-30.1-37.7-47.6s47.2-136.5,68.5-136.1C1237.3,234.6,1230.7,428.8,1185.2,417.8z"/>
            <path fill="grey" d="M1106.9,724.4c0,0-38.4-22.1-42-36.5c-3.5-14.4,25.5-157.3,37.4-157.8c25.9-1,35.7,135.1,32.1,151.3
            C1134.5,681.3,1126.6,730.4,1106.9,724.4z"/>
            <path fill="#1EEBCD" d="M1212,448.7l4.7-37.6c1.6-12.9-5.5-25.4-17.6-30.4c-12.7-5.2-30.9-7.5-52.7,4.4c-8.2,4.5-13.3,13.2-13.3,22.5
            v48.6c22.4,16.3,46.1,19.2,71.3,4.3C1208.7,458.1,1211.4,453.6,1212,448.7z"/>
            <path fill="#1EEBCD" d="M1130.9,729.5l6.5-52.1c1.8-14.8-6.2-29.2-20-35c-14.7-6.1-35.8-8.9-61.3,4.9c-9.5,5.2-15.4,15.2-15.4,26.1
            l0.6,45.5c0.1,8.4,4.9,16,12.3,19.9C1078.1,751.3,1103.4,748.9,1130.9,729.5z"/>
            <path fill="grey"
                  d="M2434.9,711.2c0,0-43.7-17.9-52-33.3c-8.2-15.4,6.5-140.2,28-146C2432.4,526.3,2483.8,708.3,2434.9,711.2z"/>
            <path fill="#1EEBCD" d="M2376.3,729.5l-6.5-52.1c-1.9-14.9,6.4-29.4,20.3-35.1c14.7-6,35.7-8.6,60.9,5c9.5,5.2,15.4,15.2,15.4,26.1
            v56.1C2438.2,750,2408.3,752.1,2376.3,729.5z"/>
            <path fill="grey" d="M1170.4,421.5c0,0,33.2,31,33.5,47.8c0.3,16.9-60.3,175.3-72.2,174.1c-25.9-2.7-5.4-159.2,1.8-177
            C1133.5,466.3,1152.1,411.6,1170.4,421.5z"/>
            <path fill="grey" d="M1087.4,696c0,0,36.2,28.1,38.4,46.3c2.2,18.2-40.1,199.3-52,199.9c-25.9,1.2-22.9-171.3-17.8-191.8
            C1055.9,750.5,1068.3,688.3,1087.4,696z"/>
            <path fill="grey" d="M2414.8,696c0,0,38.1,25.5,43.3,42s-1,181.2-11.8,181.7c-23.4,1.2-51.4-155.5-50.5-174.2
            C2395.8,745.5,2396,689,2414.8,696z"/>
            <path fill="grey" d="M2344.4,427.1c0,0,41.6,45.7,46.1,62.1s-18.1,139.9-30.6,133c-27.1-15-44.9-155.8-42.1-169.6
            C2317.9,452.6,2323.4,408.9,2344.4,427.1z"/>
        </g>
    </g>
</svg>
