<svg xmlns="http://www.w3.org/2000/svg" viewBox="0 0 3710 3710">
    <g id="plants">
        <g>
            <path fill="green" d="M376.4,2558.9c0,3.6-2.9,6.6-6.5,6.6l0,0c-3.6,0-6.6-2.9-6.6-6.5l-0.5-232.9c0-3.6,2.9-6.6,6.5-6.6l0,0
				c3.6,0,6.6,2.9,6.6,6.5L376.4,2558.9z"/>
            <path fill="green" d="M366.9,2441.9c-10.3,5.7-44.6-29.5-68.1-67.8c-15.3-24.9-8.8-27.1-21.1-44.6c-28.8-40.8-63-35.5-75.9-68.3
				c-9.3-23.6,6.6-31.4-2.8-52.6c-17.1-38.8-78.3-31.7-84.2-58.1c-3.9-17.4,18.2-40.7,40.3-50.7c61.9-27.9,169.7,32.1,193.9,109.4
				c13,41.5-8.8,54.2,1.8,134.4C358.7,2403.3,376.1,2436.8,366.9,2441.9z"/>
            <path fill="green" d="M362.9,2324.6c0,0,35.8-177.5,137.1-133.2c101.2,44.3,17.7,103.5-34.2,105.3c-51.9,1.7-34.5,3.9-58,24.6
				C384.2,2341.9,347,2376.5,362.9,2324.6z"/>
            <path fill="darkgreen" d="M154.2,2133.2c15-2.6,30.4-3.7,45.8-2.3l5.8,0.6c1.9,0.2,3.8,0.7,5.7,1c3.9,0.6,7.6,1.7,11.4,2.8
				c7.5,2.4,14.8,5.4,21.5,9.6c3.5,1.9,6.6,4.4,9.8,6.7c3,2.6,6.1,5,8.8,7.9c5.7,5.5,10.5,11.8,15.1,18.1c8.8,13,15.6,27,21.4,41.3
				c11.4,28.7,19.3,58.3,26.1,87.9c6.9,29.7,12.7,59.5,17.8,89.6c-9.1-29.1-17.1-58.4-25.4-87.6c-4.2-14.6-8.2-29.2-12.9-43.6
				c-4.5-14.4-9.3-28.7-15-42.6c-5.5-13.9-12-27.4-20-39.7c-8.1-12.2-17.9-23.4-30.1-31.4c-12-8.2-26.2-13.2-40.9-15.8
				C184.6,2133.1,169.4,2132.8,154.2,2133.2z"/>
            <path fill="darkgreen" d="M376.4,2319.5c4.2-14.9,9.4-29.5,16.4-43.5c6.9-13.9,15.7-27.5,27.9-38.3c6.1-5.3,13-9.9,20.6-13.1
				c7.6-3.1,15.6-5.2,23.7-5.5c16.2-1,31.8,3.2,45.8,9.7c-15.2-2.5-30.4-4.2-44.9-1.9c-14.5,2.2-27.6,8.8-38.4,18.4
				c-5.5,4.7-10.4,10.2-14.9,16.1c-4.6,5.8-8.7,12.1-12.8,18.5C391.6,2292.7,384.3,2306.2,376.4,2319.5z"/>
        </g>
        <g>
            <path fill="green" d="M881.8,3131.1c0,3,2.7,5.4,6.1,5.4l0,0c3.4,0,6.1-2.4,6.1-5.4l0.5-190.4c0-3-2.7-5.4-6.1-5.4l0,0
				c-3.4,0-6.1,2.4-6.1,5.4L881.8,3131.1z"/>
            <path fill="green" d="M890.6,3035.4c9.6,4.6,41.7-24.2,63.6-55.4c14.3-20.3,8.2-22.2,19.8-36.4c26.9-33.4,58.9-29.1,70.9-55.8
				c8.7-19.3-6.2-25.6,2.6-43c16-31.8,73.2-25.9,78.7-47.5c3.6-14.2-17-33.3-37.7-41.4c-57.8-22.8-158.6,26.2-181.1,89.4
				c-12.1,34,8.2,44.3-1.6,109.9C898.3,3003.9,882,3031.3,890.6,3035.4z"/>
            <path fill="green" d="M894.4,2939.5c0,0-33.5-145.2-128.1-108.9s-16.5,84.6,31.9,86.1c48.5,1.4,32.2,3.2,54.2,20.1
				C874.4,2953.7,909.2,2981.9,894.4,2939.5z"/>
            <path fill="darkgreen" d="M1089.3,2783.1c-14-2.4-28.4-3.4-42.9-2.3c-3.6,0.3-7.2,0.6-10.8,1.3c-3.6,0.5-7.2,1.4-10.7,2.2
				c-7,1.9-14,4.4-20.3,7.8c-3.3,1.5-6.2,3.6-9.3,5.5c-2.8,2.1-5.8,4.1-8.3,6.5c-5.4,4.5-9.9,9.7-14.3,14.9
				c-8.3,10.7-14.7,22.2-20.2,33.9c-10.6,23.5-18,47.8-24.2,72.1c-6.3,24.3-11.5,48.8-15.8,73.4c9-23.7,16.6-47.6,24.5-71.4
				c4-11.9,7.8-23.8,12.2-35.5c4.2-11.8,8.7-23.4,14-34.7c5.1-11.3,11.1-22.3,18.5-32.4c7.5-9.9,16.5-19,27.7-25.6
				c11.1-6.7,24.2-10.9,37.9-13.1C1060.9,2783.3,1075.1,2782.9,1089.3,2783.1z"/>
            <path fill="darkgreen" d="M881.8,2935.3c-3.5-12.3-8.2-24.3-14.6-35.9c-6.4-11.5-14.5-22.7-26.1-31.6c-11.4-8.9-26.7-14.7-42-15.1
				c-15.3-0.7-29.9,2.9-42.9,8.5c14.4-1.6,28.5-2.6,41.9-0.7c13.3,2,25.3,7.1,35.3,14.9c10.1,7.7,18.2,17.6,25.9,27.9
				C866.9,2913.7,873.9,2924.6,881.8,2935.3z"/>
        </g>
        <g>
            <path fill="green" d="M2719.4,1850.6c-2.2-47.9-29.8-97.8-48-145.3c-9.6-25.1-16.9-50.4-17.9-77.4c-1.1-26.8,5.5-57.4-10.9-81.1
				c-33.1-47.7-82.4-13.1-105.5,32.4c-26.8,52.8-21.7,129.3-23.8,189.4c-1.3,36.2-6.6,74.2-3.9,110.3c4.5,59.8,25.8,97.8,59.2,119.6
				c32.1,20.9,74,18.2,103.1-6.6C2698.1,1969.5,2723,1927.8,2719.4,1850.6z"/>
            <path fill="gray" d="M2638.2,2093c0.6,0.1,1.3,0,1.9-0.2c2-0.8,3.1-3.1,2.3-5.1c-1-2.7-102.6-273.4-56.7-515.7
				c0.4-2.1-1-4.2-3.2-4.6c-2.1-0.4-4.2,1-4.6,3.2c-46.3,244.5,56.1,517.3,57.1,520C2635.5,2091.9,2636.7,2092.8,2638.2,2093z"/>
        </g>
        <g>
            <path fill="darkgreen" d="M2654.2,1783.7c-7.3-65.7,19.4-139.7,34.1-208.3c7.7-36.3,12.1-72.4,7.7-109.4c-4.4-36.8-20-77.1-2.7-112.9
				c34.9-72.1,109.4-35.7,150.7,21.3c47.9,66.2,57.5,171.5,73.4,253c9.6,49.1,25,99.7,29.1,149.5c6.8,82.5-14.1,138.8-54.9,175.7
				c-39.2,35.4-96.9,40.8-141.9,13.3C2709,1941.1,2666,1889.7,2654.2,1783.7z"/>
            <path fill="grey" d="M2816.5,2092.8c0.5-0.2,0.9-0.7,1-1.3c7.1-34,21.9-127.3,26.6-237.2c3.5-80.7,1.4-158.7-6.3-231.8
				c-9.6-91.5-28-175.5-54.7-249.9c-0.3-0.9-1.4-1.4-2.3-1.1c-1,0.3-1.4,1.4-1.1,2.3c26.6,74.1,44.9,157.9,54.5,249
				c7.7,72.9,9.8,150.7,6.3,231.2c-4.7,109.7-19.4,202.8-26.6,236.7c-0.2,1,0.4,2,1.4,2.2C2815.8,2093.1,2816.2,2093,2816.5,2092.8z
				"/>
        </g>
        <g>
            <path fill="green" d="M3199.8,1815.4c7.9-71.1-21-151.2-36.9-225.4c-8.4-39.2-13.1-78.3-8.3-118.4c4.7-39.8,21.6-83.4,2.9-122.1
				c-37.7-78.1-118.4-38.6-163.1,23.1c-51.8,71.6-62.2,185.6-79.4,273.8c-10.4,53.2-27.1,107.9-31.5,161.8
				c-7.4,89.3,15.2,150.2,59.4,190.2c42.4,38.3,104.8,44.1,153.6,14.3C3140.5,1985.8,3187.1,1930.2,3199.8,1815.4z"/>
            <path fill="grey" d="M3024.1,2150c-0.6-0.3-1-0.8-1.1-1.4c-7.7-36.8-23.7-137.8-28.8-256.7c-3.8-87.3-1.5-171.7,6.9-250.9
				c10.4-99,30.3-190,59.2-270.5c0.4-1,1.5-1.6,2.5-1.2s1.6,1.5,1.2,2.5c-28.8,80.2-48.6,170.9-59,269.5
				c-8.3,78.9-10.6,163.1-6.9,250.3c5.1,118.7,21,219.5,28.7,256.2c0.2,1.1-0.5,2.1-1.5,2.3
				C3024.9,2150.2,3024.5,2150.1,3024.1,2150z"/>
        </g>
        <g>
            <path fill="green" d="M3269.8,2709.9c0,2.8-2.3,5.2-5.1,5.2l0,0c-2.8,0-5.2-2.3-5.2-5.1l-0.4-182.9c0-2.8,2.3-5.2,5.1-5.2l0,0
				c2.8,0,5.2,2.3,5.2,5.1L3269.8,2709.9z"/>
            <path fill="green" d="M3262.4,2618c-8.1,4.5-35-23.2-53.4-53.2c-12-19.5-6.9-21.3-16.6-35c-22.6-32.1-49.5-27.9-59.6-53.6
				c-7.3-18.6,5.2-24.6-2.2-41.3c-13.4-30.5-61.5-24.9-66.1-45.6c-3-13.6,14.3-31.9,31.7-39.8c48.6-21.9,133.3,25.2,152.2,85.9
				c10.2,32.6-6.9,42.6,1.4,105.5C3255.9,2587.8,3269.5,2614.1,3262.4,2618z"/>
            <path fill="green" d="M3259.2,2525.9c0,0,28.1-139.4,107.6-104.6c79.5,34.8,13.9,81.3-26.8,82.7s-27.1,3.1-45.6,19.3
				S3246.7,2566.7,3259.2,2525.9z"/>
            <path fill="darkgreen" d="M3095.3,2375.6c11.8-2.3,23.9-3.3,36-2.3c3,0.3,6.1,0.6,9.1,1.2c3.1,0.4,6,1.3,9,2.1
				c5.9,1.8,11.8,4.2,17.1,7.5c2.8,1.5,5.2,3.5,7.8,5.2c2.4,2.1,4.9,4,7,6.3c4.6,4.3,8.4,9.3,12,14.3c7,10.3,12.3,21.4,17,32.6
				c8.9,22.6,15.1,45.9,20.3,69.3c5.3,23.4,9.6,46.9,13.1,70.5c-7.6-22.7-14.1-45.7-20.7-68.6c-3.4-11.4-6.6-22.9-10.3-34.1
				c-3.6-11.3-7.3-22.5-11.8-33.3c-4.3-10.9-9.4-21.4-15.6-31c-6.3-9.5-13.8-18.2-23.2-24.5c-9.3-6.4-20.3-10.4-31.7-12.6
				C3119.2,2375.9,3107.3,2375.5,3095.3,2375.6z"/>
            <path fill="darkgreen" d="M3269.8,2521.9c2.9-11.9,6.8-23.4,12.1-34.5s12.2-21.9,21.9-30.5c9.6-8.6,22.5-14.1,35.4-14.5
				c12.9-0.6,25.2,2.9,36,8.3c-12.1-1.5-24-2.4-35.2-0.5s-21.2,6.9-29.6,14.3c-8.4,7.4-15.3,16.9-21.7,26.7
				C3282.3,2501.1,3276.4,2511.7,3269.8,2521.9z"/>
        </g>
        <g>
            <path fill="green" d="M828.4,1819.5c7.9-71.1-21-151.2-36.9-225.4c-8.4-39.2-13.1-78.3-8.3-118.4c4.7-39.8,21.6-83.4,2.9-122.1
                c-37.7-78.1-118.4-38.6-163.1,23.1c-51.8,71.6-62.2,185.6-79.4,273.8c-10.4,53.2-27.1,107.9-31.5,161.8
                c-7.4,89.3,15.2,150.2,59.4,190.2c42.4,38.3,104.8,44.1,153.6,14.3C769.1,1989.9,815.6,1934.3,828.4,1819.5z"/>
            <path fill="grey" d="M652.7,2154.1c-0.6-0.3-1-0.8-1.1-1.4c-7.7-36.8-23.7-137.8-28.8-256.7c-3.8-87.3-1.5-171.7,6.9-250.9
                c10.4-99,30.3-190,59.2-270.5c0.4-1,1.5-1.6,2.5-1.2s1.6,1.5,1.2,2.5c-28.8,80.2-48.6,170.9-59,269.5
                c-8.3,78.9-10.6,163.1-6.9,250.3c5.1,118.7,21,219.5,28.7,256.2c0.2,1.1-0.5,2.1-1.5,2.3C653.5,2154.3,653,2154.3,652.7,2154.1z"
            />
        </g>
        <g>
            <path fill="darkgreen" d="M756.1,1791.8c-3.1-47,28.6-100.7,47.8-150.2c10.1-26.2,16.9-52.2,14.8-78.7c-2-26.3-15.2-54.8,4.6-80.9
                c39.9-52.6,112.9-28.1,150.9,11.8c44.1,46.4,47,121.7,57.9,179.8c6.5,35,18.8,71,19.8,106.6c1.6,59-23.1,99.9-66.8,127.3
                c-41.8,26.3-100.5,31.5-144.2,12.8C801.3,1903.4,761.2,1867.5,756.1,1791.8z"/>
            <path fill="grey" d="M900.8,2012.3c-0.9,0.2-1.8,0.2-2.7,0.1c-2.9-0.4-4.7-2.4-3.8-4.5c1.1-2.8,106.9-285,11.6-512.1
                c-0.8-2,0.8-4.3,3.8-5.1c2.9-0.8,6,0.2,6.8,2.2c96.3,229.2-10.5,513.5-11.5,516.4C904.3,2010.8,902.7,2011.9,900.8,2012.3z"/>
        </g>
    </g>
</svg>
