
<svg xmlns="http://www.w3.org/2000/svg"
	 viewBox="0 0 500 500">
<style type="text/css">
	.st0{fill:#263238;}
</style>
<path class="st0" d="M226.9,282.6c0.4-1.7,0.7-3.5,0.7-5.3l8.1-4.3l-2.2-8.2l-9.2,0.4c-0.9-1.5-2-3-3.3-4.3l2.7-8.8l-7.4-4.3
	l-6.2,6.8c-1.7-0.4-3.5-0.6-5.3-0.7l-4.3-8.1l-8.2,2.2l0.4,9.2c-1.5,0.9-3,2-4.3,3.3l-8.8-2.7l-4.3,7.4l6.8,6.2
	c-0.4,1.7-0.7,3.5-0.7,5.3l-8.1,4.3l2.2,8.2l9.2-0.4c0.9,1.5,2,3,3.3,4.3l-2.7,8.7l7.4,4.3l6.2-6.7c1.7,0.4,3.5,0.7,5.3,0.7l4.3,8.1
	l8.2-2.2l-0.4-7.8l-0.1-1.3c1.6-0.9,3-2,4.3-3.3l8.8,2.7l3.6-6.3l0.6-1.1L226.9,282.6z M207.4,287.6c-5.9,1.6-12-1.8-13.6-7.7
	c-1.6-5.9,1.8-12,7.7-13.6c5.9-1.6,12,1.8,13.6,7.7c0,0,0,0.1,0,0.1C216.7,279.9,213.3,286,207.4,287.6L207.4,287.6z"/>
</svg>
