<svg xmlns="http://www.w3.org/2000/svg"
     viewBox="0 0 500 500">
    <style type="text/css">
        .st0{fill:#FFFFFF;stroke:#222221;stroke-width:1.1031;stroke-miterlimit:10;}
        .st1{fill:#1EEBCD;stroke:#263238;stroke-width:1.1031;stroke-miterlimit:10;}
        .st2{fill:#263238;}
        .st3{fill:none;stroke:#263238;stroke-width:1.1031;stroke-linecap:round;stroke-linejoin:round;stroke-dasharray:4.4124;}
    </style>
    <g id="freepik--Graphics--inject-388">
        <path class="st0" d="M375.8,100.3v58.5c0,8.6-7,15.6-15.6,15.6c0,0,0,0,0,0H225.4c-8.6,0-15.6-7-15.6-15.6c0,0,0,0,0,0v-58.5
		c0-8.6,7-15.6,15.6-15.6h134.8C368.8,84.7,375.8,91.7,375.8,100.3z"/>
        <path class="st1"
              d="M375.8,100.3v1.3H209.7v-1.3c0-8.6,7-15.6,15.6-15.6h134.8C368.8,84.7,375.8,91.7,375.8,100.3z"/>
        <path class="st2" d="M234.1,95.9c-0.9,0.9-2.5,0.9-3.4,0c-0.9-0.9-0.9-2.5,0-3.4s2.5-0.9,3.4,0c0,0,0,0,0,0
		C235,93.5,235,95,234.1,95.9z"/>
        <path class="st2" d="M245.2,95.9c-0.9,0.9-2.5,0.9-3.4,0c-0.9-0.9-0.9-2.5,0-3.4s2.5-0.9,3.4,0c0,0,0,0,0,0
		C246.2,93.5,246.2,95,245.2,95.9z"/>
        <path class="st2" d="M256.4,95.9c-0.9,0.9-2.5,0.9-3.4,0c-0.9-0.9-0.9-2.5,0-3.4s2.5-0.9,3.4,0c0,0,0,0,0,0
		C257.3,93.5,257.3,95,256.4,95.9z"/>
        <rect x="220.3" y="112.4" class="st3" width="54.3" height="46.9"/>
        <rect x="283" y="112.4" class="st2" width="62.5" height="3.3"/>
        <rect x="283" y="119.2" class="st2" width="47.9" height="3.3"/>
        <rect x="283" y="126" class="st2" width="71.4" height="3.3"/>
        <rect x="283" y="132.6" class="st2" width="60.8" height="3.3"/>
    </g>
</svg>
