
<svg xmlns="http://www.w3.org/2000/svg"
	 viewBox="0 0 500 500" style="enable-background:new 0 0 500 500;">
<style type="text/css">
	.st0{fill:#1EEBCD;}
	.st1{opacity:0.7;fill:#FFFFFF;enable-background:new    ;}
	.st2{opacity:0.5;fill:#FFFFFF;enable-background:new    ;}
</style>
<g id="freepik--background-simple--inject-388">
	<path class="st0" d="M456.5,209.1c-48.7-83.5-181-53.8-207.9-94.3c-13.8-20.8-29.3-44.9-51.7-57.4c-21.4-12-46.2-16.2-67.8-14.6
		c-77.2,5.7-109.9,74.7-95.1,150.6C53.7,294.5,143.4,397.9,250,398.6c55.7,0.4,109-19.6,150.7-47.7l0.9-0.6
		C443.3,321.9,493.8,272.8,456.5,209.1z"/>
	<path class="st1" d="M456.5,209.1c-48.7-83.5-181-53.8-207.9-94.3c-13.8-20.8-29.3-44.9-51.7-57.4c-21.4-12-46.2-16.2-67.8-14.6
		c-77.2,5.7-109.9,74.7-95.1,150.6C53.7,294.5,143.4,397.9,250,398.6c55.7,0.4,109-19.6,150.7-47.7l0.9-0.6
		C443.3,321.9,493.8,272.8,456.5,209.1z"/>
</g>
<g id="freepik--Shadow--inject-388">
	<ellipse class="st0" cx="250" cy="445.4" rx="191.5" ry="26.8"/>
	<ellipse class="st2" cx="250" cy="445.4" rx="191.5" ry="26.8"/>
</g>
</svg>
