
<svg  xmlns="http://www.w3.org/2000/svg"
	 viewBox="0 0 500 500">
<style type="text/css">
	.st0{fill:#263238;}
</style>
<path class="st0" d="M182.3,204.6l2.2-13.3l-13.5-5.4c-0.3-2.8-1-5.6-1.9-8.3l9.7-10.8l-7.8-11l-13.4,5.7c-2.2-1.8-4.6-3.3-7.2-4.5
	l-0.8-14.5l-13.3-2.2l-5.5,13.4c-2.8,0.3-5.6,1-8.3,1.9l-10.8-9.7l-11,7.8l5.7,13.4c-1.6,2-2.9,4.1-4,6.3c-0.1,0.3-0.3,0.6-0.5,0.9
	l-14.5,0.8l-2.2,13.3l2.2,0.9l11.3,4.5c0.3,2.8,1,5.6,1.9,8.3L91,213l7.9,11l13.4-5.7c2.2,1.8,4.6,3.3,7.2,4.5l0.8,14.4l13.3,2.2
	l5.4-13.3c2.8-0.3,5.6-1,8.3-1.9l10.8,9.7l11-7.9l-5.7-13.4c1.8-2.2,3.3-4.7,4.5-7.3L182.3,204.6z M145,204
	c-7.8,5.6-18.7,3.8-24.3-4c-5.6-7.8-3.8-18.7,4-24.3c7.8-5.6,18.7-3.8,24.3,4c0,0,0,0,0,0C154.6,187.5,152.8,198.4,145,204L145,204z
	"/>
</svg>
