
<svg xmlns="http://www.w3.org/2000/svg" viewBox="0 0 500 500">
<style type="text/css">
	.st0{fill:#FFFFFF;stroke:#263238;stroke-width:1.1031;stroke-linecap:round;stroke-linejoin:round;}
	.st1{fill:#263238;}
	.st2{opacity:0.2;fill:#FFFFFF;enable-background:new    ;}
	.st3{fill:#1EEBCD;stroke:#263238;stroke-width:1.1031;stroke-miterlimit:10;}
	.st4{fill:none;stroke:#263238;stroke-width:1.1031;stroke-miterlimit:10;}
</style>
<g id="freepik--Window--inject-388">
	<path class="st0" d="M430.5,133.5v180.1c0,12.3-9.9,22.2-22.2,22.2H91.7c-12.3,0-22.2-9.9-22.2-22.2V133.5c0-0.5,0-1,0.1-1.6
		c0.8-11.6,10.5-20.6,22.1-20.6h316.7c11.7,0,21.3,9,22.1,20.7C430.5,132.5,430.5,133,430.5,133.5z"/>
	<path class="st1" d="M80.3,140.3h340.6l0,0v166.3c0,11.5-9.3,20.8-20.8,20.8h-299c-11.5,0-20.8-9.3-20.8-20.8L80.3,140.3
		L80.3,140.3L80.3,140.3z"/>
	<path class="st2" d="M420.9,140.3v166.3c0.1,11.4-9.1,20.7-20.6,20.8H100.8c-11.4-0.1-20.6-9.4-20.6-20.8V140.3H420.9z"/>
	<path class="st3" d="M430.5,132H69.5c0.8-11.6,10.5-20.6,22.1-20.6h316.7C420,111.4,429.7,120.4,430.5,132z"/>
	<path class="st1" d="M113.9,121.6c0,2.2-1.8,3.9-3.9,3.9s-3.9-1.8-3.9-3.9s1.8-3.9,3.9-3.9S113.9,119.5,113.9,121.6L113.9,121.6z"
		/>
	<path class="st1" d="M130.5,121.6c0,2.2-1.8,3.9-3.9,3.9s-3.9-1.8-3.9-3.9s1.8-3.9,3.9-3.9S130.5,119.5,130.5,121.6L130.5,121.6z"
		/>
	<circle class="st1" cx="143.2" cy="121.6" r="3.9"/>
	<path class="st4" d="M420.9,140.3v166.3c0,11.5-9.3,20.8-20.8,20.8h-299c-9.9,0-18.5-7-20.4-16.8v-0.1c-0.3-1.3-0.4-2.7-0.4-4
		V140.3H420.9z"/>
</g>
</svg>
