<?xml version="1.0" encoding="utf-8"?>
<!-- Generator: Adobe Illustrator 21.1.0, SVG Export Plug-In . SVG Version: 6.00 Build 0)  -->
<svg version="1.1" id="Layer_1" xmlns="http://www.w3.org/2000/svg" xmlns:xlink="http://www.w3.org/1999/xlink" x="0px" y="0px"
	 viewBox="0 0 500 500" style="enable-background:new 0 0 500 500;" xml:space="preserve">
<style type="text/css">
	.st0{fill:#263238;}
</style>
<path class="st0" d="M415.9,197.6l1.9-11.2l-11.4-4.6c-0.3-2.4-0.8-4.7-1.6-7l8.2-9.1l-6.6-9.3l-11.3,4.8c-1.9-1.5-3.9-2.8-6.1-3.8
	l-0.7-12.2l-11.2-1.9l-4.6,11.3c-2.4,0.3-4.7,0.8-7,1.6l-9.1-8.2l-9.3,6.6l4.8,11.3c-1.4,1.7-2.4,3.5-3.4,5.3
	c-0.1,0.3-0.3,0.5-0.4,0.8l-12.2,0.7l-1.9,11.2l1.9,0.8l9.5,3.8c0.3,2.4,0.8,4.7,1.6,7l-8.1,9.2l6.7,9.3l11.3-4.8
	c1.9,1.5,3.9,2.8,6.1,3.8l0.7,12.2l11.2,1.9l4.6-11.2c2.4-0.3,4.7-0.8,7-1.6l9.1,8.2l9.3-6.7l-4.8-11.3c1.5-1.9,2.8-4,3.8-6.2
	L415.9,197.6z M384.4,197.1c-6.6,4.7-15.8,3.2-20.5-3.4c-4.7-6.6-3.2-15.8,3.4-20.5c6.6-4.7,15.8-3.2,20.5,3.4l0,0
	C392.5,183.2,391,192.4,384.4,197.1L384.4,197.1z"/>
</svg>
