<svg xmlns="http://www.w3.org/2000/svg" viewBox="0 0 500 500">
<style type="text/css">
	.st0{fill:#1EEBCD;}
	.st1{fill:#FFFFFF;}
	.st2{fill:none;stroke:#263238;stroke-width:1.1031;stroke-linecap:round;stroke-linejoin:round;}
	.st3{opacity:0.5;fill:#FFFFFF;0  ;}
	.st4{opacity:0.2;0  ;}
	.st5{fill:#263238;}
	.st6{fill:none;stroke:#263238;stroke-width:2.2062;stroke-linecap:round;stroke-linejoin:round;}
	
		.st7{opacity:0.2;fill:none;stroke:#FFFFFF;stroke-width:1.1031;stroke-linecap:round;stroke-linejoin:round;0  ;}
	.st8{fill:#FFFFFF;stroke:#263238;stroke-width:1.1031;stroke-linecap:round;stroke-linejoin:round;}
	.st9{fill:none;stroke:#FFFFFF;stroke-width:1.1031;stroke-linecap:round;stroke-linejoin:round;}
</style>
<g id="freepik--Character--inject-388">
	<path class="st0" d="M296.9,440.5c0,0-29,8.3-33,9.8c-3.7,1.3-13.7,4.8-21.1,3.7c-0.7-0.1-1.4-0.3-2.1-0.5c-7.6-2.3-11-4.4-12-9.1
		s2.8-8.3,6.4-10.5s23.4-4.6,23.4-4.6l4.8,1.4l0,0L296.9,440.5z"/>
	<path class="st1" d="M242.7,453.9c-0.7-0.1-1.4-0.3-2.1-0.5c-7.6-2.3-11-4.4-12-9.1s2.8-8.3,6.4-10.5s23.4-4.6,23.4-4.6l4.8,1.4
		c-4.3,2-20.4,3.1-23.9,5.1s-5.2,5.8-3.1,11C237.2,449.4,240.1,452,242.7,453.9z"/>
	<path class="st2" d="M292.5,441.6c0,0-21.8,5.6-30.4,9.3s-25.1,5.2-31-2.3s-0.7-13.9,5.2-15.3s17.7-3.7,24.2-2.8"/>
	<path class="st2" d="M243.1,453.5c0,0-11.1-6.1-7.4-14.6c2.7-6.3,17.5-4.9,24.8-8.4"/>
	<path class="st0" d="M385.2,455.3c-0.3,3-1.4,5.8-4.4,7.6c-2,1.2-4.8,1.9-8.9,1.8c-10.2-0.1-29.3-7.4-29.3-7.4l-17.9-9.9l9.3-14.7
		l2.5-4l6.6,1.5c0,0,5.5,3.1,10.9,5.5s18.8,3,23.5,6.8S385.7,450.3,385.2,455.3z"/>
	<path class="st1" d="M385.2,455.3c-0.3,3-1.4,5.8-4.4,7.6c0.9-2.9,0.7-6.1-0.5-8.9c-2-4.5-8.5-8.5-17.1-9.1s-15.1-4.7-18.5-6.5
		c-2.7-1.4-8.3-4.4-10.7-5.7l2.5-4l6.6,1.5c0,0,5.5,3.1,10.9,5.5s18.8,3,23.5,6.8S385.7,450.3,385.2,455.3z"/>
	<path class="st2" d="M328.7,450.2c12.9,7.5,27.1,12.4,41.9,14.3c3.3,0.4,7,0.5,9.2-2c1.2-1.4,1.7-3.3,1.5-5.1
		c-0.4-4.6-4.3-8.2-8.5-10.1s-8.9-2.3-13.4-3.3s-8.8-2.6-12.9-4.7c-3.2-1.7-6.4-3.7-9.9-4.5s-7.8,0.2-9.7,3.3"/>
	<path class="st2" d="M378.6,463.7c3.4-1.6,5.8-4.8,6.5-8.5c0.6-4.3-1.8-8.7-5.3-11.4s-7.8-3.9-12.1-4.8s-8.7-1.5-12.8-3.1
		c-6.3-2.5-12.5-7.3-19-5.6"/>
	<path class="st0" d="M348.9,295.3l-30.3-11.5l-0.4-0.1c0,0,0.1-0.8,0.2-2c0.2-2.4,0.3-6.4-0.9-7.7c-1.7-2-6.5-0.3-11.1-2.5
		s-13.3,1.7-13.3,1.7s-6.2-1.1-9,3.4c-1.4,3.6-0.9,9-0.9,9l-0.6,0.2c-3.6,1.4-23.3,8.7-27.4,11.7c-4.6,3.3-9.7,36.6-11.3,46.4
		s-4.5,18.6-3.1,22s22.6,19.6,34.7,23.8s55.2,3,55.2,3s0.7-0.2,2-0.6c7.3-2.3,33.1-12,46.8-34.7
		C379.6,357.4,366.3,313.9,348.9,295.3z M267.1,351.4c-2.2,1.6-1,7.7-1,7.7l-3.8-3.3l9.5-23.4l4.1,18
		C275.9,350.3,269.3,349.8,267.1,351.4z M343.2,366.3c-1,0.5,3-10.7,1.1-13.3s-7.7-2.3-7.7-2.3l0.5-3.1l3.4-17.6l1.1-1.4
		c0,0,11.8,20.2,13.9,27.3C355.5,356,342.7,366.3,343.2,366.3z"/>
	<path class="st1" d="M291.7,222.3l-15.6,16.6c0,0-2.1,1.9-1.3,6.7s2.9,9,4.4,9.3c1.2,0.2,2.4,0.3,3.6,0.3c0,0,3.4,7.3,5.7,10.1
		c0,0,0.8,11.2,0.4,14.3c0,0,5.6,4.9,10.9,5.5s13.5-7.5,13.5-7.5l2-9.9c0,0,4.8-7.3,5.1-9.2s2.5-1.4,3.6-2.4s3.6-5.2,4-9.3
		s0.4-8.7-4.3-7.3c-4.1-1.1-1.5-9.7-1.5-9.7l-7.1-6.3L291.7,222.3z"/>
	<path class="st3" d="M318.6,283.7c-0.2,0.6-0.5,1.2-0.8,1.8c-2.6,4.9-13.8,14.1-13.8,14.1l-3.4-10.5l-1.9,10.5
		c-3.8-1.6-15.2-11.5-15.2-11.5s-0.4-0.9-0.9-2.4l0.6-0.2c0,0-0.5-5.4,0.9-9c2.7-4.5,9-3.4,9-3.4s8.6-3.8,13.3-1.7s9.5,0.5,11.1,2.5
		s0.6,9.7,0.6,9.7L318.6,283.7z"/>
	<path class="st4" d="M348.9,295.3l-30.3-11.5l-0.4-0.1c0,0,0.1-0.8,0.2-2l-0.6,3.9l-4.5,6.1c4.8,1.8,9.5,3.8,14,6.2
		c4.4,2.4,7,7.2,6.4,12.2l-5.6,47.8l-2.3,27.1l6.9,7.2c7.3-2.3,33.1-12,46.8-34.7C379.6,357.4,366.3,313.9,348.9,295.3z
		 M343.2,366.3c-1,0.5,3-10.7,1.1-13.3s-7.7-2.3-7.7-2.3l0.5-3.1l3.4-17.6l1.1-1.4c0,0,11.8,20.2,13.9,27.3
		C355.5,356,342.7,366.3,343.2,366.3z"/>
	<path class="st4" d="M277.9,353l-4.7-15.7c0,0-8.5-28.8-14.2-35.9l1.5,20.3c0,0-5,24.2-9.6,31.4s-5.6,9,0,9s19.2,10.8,19.2,10.8
		l-1-9L277.9,353z M266,359.1l-3.8-3.3l9.5-23.4l4.1,18c0,0-6.5-0.5-8.8,1.1S266,359.1,266,359.1z"/>
	<path class="st2" d="M288.5,265.3c0,0,0.9,8.5,0,12.4"/>
	<path class="st2" d="M314.1,276.5c0-2.7,0.3-5.5,0.9-8.1"/>
	<path class="st2" d="M316.4,228.6c0,0,5.1,6.4,4.9,11.3s-0.6,10.7-0.5,16.3s-9.1,17.5-13.8,18.6s-8.8,1.3-11.9-1.7
		s-6.1-7.2-10-12.6s-3-17.3-3-17.3"/>
	<path class="st2" d="M304,247.7c-0.3,1.8-0.4,3.6-0.4,5.4c-0.1,1.5,0.4,3,1.3,4.2c0.6,0.6,1.4,1,1.5,1.9c0,0.7-0.4,1.4-1.1,1.8
		c-0.6,0.3-1.3,0.7-1.9,1.1"/>
	<path class="st2" d="M295.9,262.6c0,0,0.6,3.8,5.7,4.6"/>
	<path class="st5" d="M296.4,250.6c0,1.1-0.5,2-1.1,2s-1.1-0.9-1.1-2s0.5-2,1.1-2S296.4,249.5,296.4,250.6z"/>
	<path class="st5" d="M311.7,251.1c0,1.1-0.5,2-1.1,2s-1.1-0.9-1.1-2s0.5-2,1.1-2S311.7,250,311.7,251.1z"/>
	<path class="st6" d="M308.6,246.3c0,0,5-5,9.2,0.6"/>
	<path class="st6" d="M298.1,246.4c0,0-3.2-3.5-8.1,0"/>
	<path class="st5" d="M288.9,270c0,0,3,8.4,9.9,10.8s15.9-10,15.9-10l-0.5-1.6c0,0-5.9,7.7-12.5,6.4s-13.1-10.3-13.1-10.3L288.9,270
		z"/>
	<path class="st2" d="M282.8,254.9c0,0-4.1,1.4-5.1-1.7s-4.8-11.5-1.5-14.3s5.8,3.7,5.8,3.7"/>
	<path class="st2" d="M320.7,256.6c0,0,3.8,0.8,4.9-2.4s4.8-11.5,1.5-14.3s-5.8,3.7-5.8,3.7"/>
	<path class="st5" d="M281.9,250.6c1.4-0.2,2.7-1,3.6-2.1c0.5-1,0.9-2.1,1-3.2c0.4-2.1,0.6-4.3,0.6-6.4c0-0.8,0-1.7,0.2-2.5
		c0.3-0.8,0.8-1.6,1.4-2.2c1.4-1.7,3.1-3.1,4.5-4.8c1.5-1.6,2.2-3.8,2-6c6.3,5.2,14.5,7.3,22.5,5.8c7.1-1.4,14-7.7,13.2-15.6
		c-0.3-2.7-2.3-4.9-5-5.5c-3.5-0.9-6.7,1-9.9,2.2c-5.8,2.2-11.5-1.6-17.4-2.2c-5-0.6-11.2,0.1-13.9,5.1c0,0-9,1.1-13,8.5
		s3.6,17.7,3.6,17.7s3-3.7,6.9,3.8L281.9,250.6z"/>
	<path class="st5" d="M317,226.7c0,0-2.3,12.2,3.8,18.1c0,0,1.3-3.7,2.7-4.6c2-4.4,1.6-9.5-1.1-13.5
		C317.9,219.6,317,226.7,317,226.7z"/>
	<path class="st7" d="M328.1,212.8c-1.1,3.4-3.7,6.1-7,7.3c-8.5,3.5-16.7-0.4-25.2-1.1c-6.9-0.6-14.6,5.6-15.1,12.8"/>
	<path class="st7" d="M275.6,229.8c0.2-5.7,3.7-10.8,9-13.1"/>
	<path class="st2" d="M286.5,276.5c3.7,3.9,8.2,7,13.2,9c0,0,10.1-3,15.3-10"/>
	<path class="st2" d="M288.5,273.2c-1.8,0.5-3.4,1.7-4.3,3.4c-1.6,2.8-0.6,11.6-0.6,11.6s8.2,8.1,15.2,11.5l2.1-11.6l3.2,11.6
		c0,0,10.8-7.6,13.8-14.1c0,0,1-7.5,0-10c-0.5-1.4-1.8-2.3-3.2-2.4"/>
	<path class="st2" d="M275.6,350.7c0,0-3.2-21.5-7.5-30.3"/>
	<path class="st2" d="M258.9,301.4c2.5,3.5,4.7,7.2,6.6,11.1"/>
	<path class="st2" d="M343.2,317.4c0.9-3.6,2-7.1,3.5-10.5"/>
	<path class="st2" d="M336.6,350.7c0,0,2.3-14.7,5.1-26.9"/>
	<path class="st2" d="M340.5,330c2.2-3,5.4-5.1,8.9-6.1"/>
	<path class="st2" d="M318.3,283.6c0,0,18.6,7.5,30.7,11.7c0,0,14.8,13.9,30.7,62.1c0,0-14.5,24.5-42.2,32.3"/>
	<path class="st2" d="M342.2,367.1l13.4-11.1c0,0,7.1-5.4,14.4-1.7"/>
	<path class="st2" d="M341.7,328.7c0,0,11,16.3,13.9,27.3"/>
	<path class="st2" d="M266.1,359.7l-3.9-3.7c0,0-5.8-1-12.4,3.4"/>
	<path class="st2" d="M262.2,356c0,0,4.9-16,9.6-24.2"/>
	<path class="st2" d="M283.3,285.5c0,0-26.8,10.1-29.4,13s-12.6,59.2-12.9,65.6c-0.2,5.8,20.7,18.7,31,24.1"/>
	<path class="st5" d="M303.3,304.6c0,1-0.8,1.8-1.8,1.8s-1.8-0.8-1.8-1.8s0.8-1.8,1.8-1.8l0,0C302.5,302.8,303.3,303.6,303.3,304.6
		C303.3,304.5,303.3,304.6,303.3,304.6z"/>
	<path class="st5" d="M334.3,398.8h-61c-0.8,0-1.4-0.6-1.4-1.4l0,0c0-0.8,0.6-1.4,1.4-1.4h61c0.8,0,1.4,0.6,1.4,1.4l0,0
		C335.8,398.1,335.1,398.8,334.3,398.8z"/>
	<path class="st8" d="M336.5,394l8.2-38.4c0.5-2.2-0.9-4.4-3.1-4.8c-0.3-0.1-0.6-0.1-0.9-0.1h-71.3c-2.3,0-4.1,1.8-4.1,4.1
		c0,0.3,0,0.5,0.1,0.8l7.3,37.1c0.4,1.9,2,3.2,3.9,3.3l55.8,1.3C334.3,397.3,336,395.9,336.5,394z"/>
	<line class="st2" x1="321.6" y1="354.3" x2="330.1" y2="354.3"/>
	<line class="st2" x1="281.2" y1="354.3" x2="313.3" y2="354.3"/>
	<path class="st5" d="M336.6,434.8l-6.5,17.1c0,0-16.6-4.2-37.8-8.5c-22.2-4.5-45.4-10.4-57.4-31.5c-1.5-2.6-2.4-5.6-1.8-8.5
		c1.7-7.3,11.2-9.3,17.5-10c3.9-0.4,7.9-0.6,11.8-0.7c2,0,8.6-1.1,10.3,0.1c2.4,1.8,5,3.3,7.7,4.6c3.5,1.5,55.4-1.4,55.4-1.4
		c0.9-2,1.5-4.1,1.6-6.2c8.1-4.1,27-7.6,35-6.1c12.5,2.4,19.8,9.7,18.5,17.4S361.8,429.2,336.6,434.8z"/>
	<path class="st9" d="M336.6,434.8c0,0-15.8-4.2-28.6-12.9s-22.9-18.8-40.9-16.7"/>
	<path class="st9" d="M305,419.8c8.1-2.3,14.1-7.6,20.6-12.7c6.9-5.5,14.3-10.4,22.1-14.5"/>
	<path class="st2" d="M304.5,252.1"/>
</g>
<g class="st0">
	<path d="M304.6,367.9L304.6,367.9c0.2,0.1,0.3,0.3,0.5,0.4c0.1,0.1,0.2,0.2,0.3,0.3c0.1,0.1,0.2,0.2,0.4,0.1
		c0.3-0.1,0.6,0.1,0.9,0.1c0.2,0,0.4,0.1,0.6,0.3c0,0,0.1,0,0.2,0c0.3,0,0.6-0.1,0.9-0.2c0.1,0,0.2,0,0.3-0.1c0.1,0,0.1,0.1,0.1,0.2
		c0,0.1-0.1,0.2-0.1,0.2c-0.2,0.3-0.4,0.6-0.6,0.8c0,0,0,0,0,0c0,0.1-0.1,0.1-0.1,0.2c0,0.4-0.1,0.9-0.3,1.3c0,0.1,0,0.1,0,0.2
		c0.3,0.2,0.4,0.4,0.6,0.7c-0.3-0.2-0.5-0.5-0.8-0.7c0,0-0.1,0.1-0.1,0.1c0,0.1,0,0.2-0.1,0.2c-0.2,0.2-0.1,0.4-0.1,0.7
		c0.1,0.2,0,0.3,0,0.5c-0.1,0.2-0.2,0.4-0.3,0.5c-0.2,0.2-0.3,0.4-0.5,0.5c-0.2,0.2-0.5,0.4-0.7,0.5c-0.2,0.1-0.3,0.2-0.4,0.3
		c-0.1,0-0.1,0.1-0.2,0.1c0,0-0.1,0.1-0.1,0.1c0,0.1,0,0.2-0.1,0.2c-0.1,0.2-0.2,0.4-0.2,0.5c-0.1,0.1-0.1,0.2-0.1,0.4
		c0,0.1,0,0.3-0.1,0.4s0,0.2,0.1,0.4c0,0,0,0,0,0c0.2,0.1,0.3,0.2,0.4,0.4c0.1,0.1,0.1,0.3,0.1,0.4c0,0.1,0,0.1,0,0.2
		c0,0.1,0.1,0.1,0.2,0.2c0,0,0.1,0,0.1,0c0.3-0.1,0.5,0,0.8-0.1c0,0,0,0,0,0c0.3,0,0.6-0.1,0.9-0.1c0.2,0,0.4,0,0.6,0.1
		c0.1,0,0.2,0.1,0.2,0.2c0,0.1,0,0.2-0.1,0.3c-0.1,0-0.2,0.1-0.3,0.1c-0.2,0.1-0.4,0.1-0.6,0.1c0,0-0.1,0-0.1,0
		c-0.1,0.1-0.2,0.1-0.3,0.1c-0.1,0-0.1,0-0.2,0l0.1,0.1c-0.2,0-0.4,0.1-0.5,0.1c-0.1,0-0.2,0-0.3,0.1c-0.5,0.1-1,0.2-1.5,0.3
		c-0.2,0-0.3,0.1-0.5,0.1c-0.1,0-0.3,0-0.4,0c0,0-0.1,0-0.1,0c0,0.1-0.1,0.1-0.1,0c0,0-0.1,0-0.1,0c-0.2,0-0.5,0.1-0.7,0.1
		c-0.4,0-0.8-0.1-1.2-0.1c-0.3,0-0.7-0.2-1-0.1c-0.2-0.1-0.4,0-0.6-0.2c0,0-0.1,0-0.1,0c-0.1,0-0.1-0.1-0.2-0.1
		c-0.1-0.1-0.2-0.2-0.3-0.3c-0.2-0.1-0.3-0.3-0.3-0.5c0-0.2,0-0.4-0.1-0.6c0-0.1-0.1-0.3-0.1-0.4c0-0.2,0-0.3,0-0.5
		c0-0.2,0-0.4,0-0.6c0-0.2,0-0.4,0.1-0.6l-0.1,0.1c0-0.1,0-0.1,0-0.1c0.1-0.2,0.1-0.4,0.2-0.6c0.1-0.3,0.2-0.6,0.3-0.9
		c0-0.1,0.1-0.3,0.1-0.4c0.1-0.1,0.1-0.2,0.2-0.4c0.2-0.4,0.4-0.7,0.7-1.1c0.1-0.1,0.2-0.2,0.3-0.3c0,0,0-0.1,0.1-0.1
		c0.1-0.1,0.1-0.2,0.2-0.3c0.1-0.1,0.3-0.2,0.4-0.3c0.1-0.1,0.1-0.1,0.2-0.2l0,0c0.2-0.1,0.4-0.1,0.6-0.2c0,0,0.1,0,0.1,0
		c0-0.1,0.1-0.1,0.2-0.1c0,0,0.1,0,0.1,0c0.1,0,0.2-0.1,0.3-0.1c0.1,0,0.2,0,0.2,0c0-0.1,0.1-0.1,0.2-0.1c0.1,0.1,0.2,0,0.3,0
		c0,0,0,0,0.1,0c0.1,0,0.2,0.1,0.3,0.1c0,0,0.1,0,0.1,0c0.1-0.1,0.3-0.1,0.4,0c0,0,0.1,0.1,0.1,0.1c0.1,0,0.2,0,0.3,0
		c0.2-0.1,0.3-0.2,0.5-0.3c0,0,0.1,0,0.1-0.1c0.1-0.1,0.1-0.2,0.2-0.3c0.1-0.2,0.2-0.4,0.2-0.6c0-0.2,0-0.5,0-0.7
		c0-0.2-0.1-0.5-0.1-0.7C304.5,368.1,304.6,368,304.6,367.9z M307.4,370.4C307.4,370.4,307.4,370.3,307.4,370.4
		c-0.1-0.2-0.1-0.2-0.2-0.2c-0.1,0-0.1,0.1-0.2,0.1c0,0,0,0.1,0,0.1c0,0.1,0,0.2,0.1,0.3c0.1,0,0.1,0,0.2,0
		C307.3,370.7,307.4,370.5,307.4,370.4L307.4,370.4z M305.9,370.1c0,0,0-0.1,0-0.1c0-0.1-0.1-0.2-0.2-0.2c-0.1,0-0.2,0-0.2,0.1
		c0,0.1,0,0.1,0,0.2c0,0.1,0.1,0.2,0.2,0.2c0.1,0,0.2-0.1,0.2-0.2C305.9,370.2,305.9,370.2,305.9,370.1z"/>
</g>
</svg>
