<?xml version="1.0" encoding="utf-8"?>
<!-- Generator: Adobe Illustrator 21.1.0, SVG Export Plug-In . SVG Version: 6.00 Build 0)  -->
<svg version="1.1" id="Layer_1" xmlns="http://www.w3.org/2000/svg" xmlns:xlink="http://www.w3.org/1999/xlink" x="0px" y="0px"
	 viewBox="0 0 500 500" style="enable-background:new 0 0 500 500;" xml:space="preserve">
<style type="text/css">
	.st0{fill:#263238;}
	.st1{fill:#FFFFFF;stroke:#263238;stroke-linecap:round;stroke-linejoin:round;}
	.st2{fill:none;stroke:#FFFFFF;stroke-linecap:round;stroke-linejoin:round;}
	.st3{fill:none;stroke:#263238;stroke-linecap:round;stroke-linejoin:round;}
	.st4{fill:#FFFFFF;}
	.st5{clip-path:url(#SVGID_2_);}
	.st6{opacity:0.4;fill:#1EEBCD;enable-background:new    ;}
	.st7{fill:#1EEBCD;}
	.st8{clip-path:url(#SVGID_4_);}
	.st9{opacity:0.3;fill-opacity:0.7;enable-background:new    ;}
	.st10{clip-path:url(#SVGID_6_);}
	.st11{clip-path:url(#SVGID_8_);}
	.st12{clip-path:url(#SVGID_10_);}
	.st13{clip-path:url(#SVGID_12_);}
	.st14{fill:#1EEBCD;stroke:#263238;stroke-linecap:round;stroke-linejoin:round;}
	.st15{clip-path:url(#SVGID_14_);}
	.st16{opacity:0.3;fill:#FFFFFF;fill-opacity:0.7;enable-background:new    ;}
	.st17{clip-path:url(#SVGID_16_);}
</style>
<g id="freepik--Character--inject-2">
	<path class="st0" d="M417.3,428c-5.4,4.5-46.6,32.8-105.6,28.2c-3.2-26.8-15.3-137-1.5-154.3c0,0,33.4-15.9,64.1-9.2
		s42.7,13.1,44.9,18.6C420.9,315.6,418.5,393.6,417.3,428z"/>
	<path class="st1" d="M373.3,304.5c-17.7,15.3-40.5,12.1-40,0.3c0.1-1.8,2-4.1,2-4.1l-0.7-1.1l-3-4.5c-2.2-3.4-4.9-7.6-6.8-10.8
		c-1.6-2.6,38.3-27.2,38.3-13.1c0,19.9,9.8,23.6,9.8,23.6C376.6,296.4,380,298.8,373.3,304.5z"/>
	<path class="st2" d="M384.5,334.9c0,0-3.6,12.2-1.9,15.8"/>
	<path class="st2" d="M380.3,299.4c0,11.8-35.2,23.4-45.5,11.5"/>
	<path class="st0" d="M351.4,285.7c0,0-2.4,8.9-13.4,15.8c-0.5-0.9-1.4-1.6-2.4-1.9c-0.3-0.1-0.7-0.1-1,0l-3-4.5
		C337.3,291.1,351.4,285.7,351.4,285.7z"/>
	<path class="st1" d="M356.3,274.8c0,0-0.1,8.8-2,10.6c-14,13.4-27.6,14.4-29.8,10.9c-15.1-23.8-11.6-30-13.1-34.1
		c-2.7-7.1-6.1-18.8-4.6-25.9c3.3-15.8,33-28,48.6-12.1c7.5,7.6,9.9,24.1,8.3,37.8"/>
	<path class="st3" d="M313.3,254.9c0,0-4.2-1.9-5.1,0.4"/>
	<path class="st3" d="M323.4,255c0,0,8.7-3.6,12.6,0.8"/>
	<path class="st0" d="M333,261.1c0.1,1.3-0.5,2.4-1.4,2.5s-1.8-0.9-1.9-2.2s0.5-2.4,1.4-2.5S332.8,259.9,333,261.1z"/>
	<path class="st0" d="M316,261.5c0.1,1.3-0.5,2.4-1.4,2.5s-1.8-0.9-1.9-2.2s0.5-2.4,1.4-2.5S315.8,260.2,316,261.5z"/>
	<path class="st1" d="M316.4,258.1c1.2,2,0.5,5.3-1,9.9s-0.2,6.2,6,6.7"/>
	<path class="st3" d="M321.3,282.6c0,0,8-0.7,11.7-2.7"/>
	<path class="st0" d="M372,237.2c0-5.9-5.9-18.1-16.1-19.5l0,0c-5.9-6.2-14.3-8.4-24.5-6.1c-23.6,5.4-30.8,28.7-31.8,32.6
		c-0.1,0.4-0.1,0.6-0.1,0.6l6.3-1.6l-2.7,5.3l3.3,2.2l-0.8,0.8l3.8,3.7l-1.2-6.8c0.7-4.4,5.8-10.5,5.8-10.5c-1.8,2.4-3,5.2-3.3,8.2
		c2-5.2,14-10,14-10c-3.9,3.2-6,9.3-6,9.3c3.7-4.6,12.4-7.5,17.9-9.1c1.9,4.5,4.8,9.2,9.1,11.8c4,2.5,3.9,7.5,3.9,7.5
		c4.3,3,7.5,7.3,9,12.4l4.8,6.6C363.3,274.8,372,264.1,372,237.2z"/>
	<path class="st1" d="M351.6,257.5c-1.6-3.5,4.3-12.9,8.4-11.7c2.3,0.7,5.4,4.9,6,9.4c0.6,4.5-2.6,13-6,14.8
		c-2.1,1.2-3.9-2.1-3.9-2.1"/>
	<polygon class="st4" points="96.5,427.3 209.5,400.8 445.2,428 384.5,469.5 	"/>
	<polyline class="st1" points="96.5,427.3 209.5,400.8 445.2,428 	"/>
	<polygon class="st1" points="194.3,432.5 240,412.3 297.9,415.3 272.1,437.3 	"/>
	<path class="st0" d="M312.5,301c-14.7,6-17.8,19.5-42.8,72.8c0,0-11.1,2.3-17,15.7s4,24.1,15.4,23.7c0,0,4.6,4,14,3.6
		s51-64.1,51-64.1L312.5,301z"/>
	<path class="st2" d="M274.1,376.9c6.6,5.8,10.3,14.4,8.3,23.9"/>
	<path class="st2" d="M280.4,379.7c0,0,8.1,1.8,9.3,12.1"/>
	<path class="st2" d="M304,349.5c-3.8-9.4-5.1-19.6-3.8-29.7"/>
	<path class="st2" d="M302.9,335.9c-0.6,4.2,3.7,26.6,3.7,50.1"/>
	<path class="st0" d="M412.5,305.4c18.4,9.2,20.5,37.6,3.2,71.5c-12.2,23.9-29.1,59.3-39.8,61.7s-21.1-4.3-21.1-4.3s-9-0.4-11.7-6.8
		c-7.4-17.5,11.5-39.6,18.9-34.3c0,0,23.8-51.7,28.1-54.9"/>
	<path class="st2" d="M341.4,416.9c-2.4-12.1,16.6-26.3,20.6-23.7c0,0,14.1,0.8,16.2,10.5"/>
	<path class="st2" d="M393.1,419.4c8.3-14.6,22.6-42.5,22.6-42.5"/>
	<path class="st2" d="M362,393.2c0,0,9.9-5.9,17.3-0.3"/>
	<path class="st2" d="M365.4,386c0,0,5.5-12,11-23s18.2-27.3,23.5-28.1"/>
	<path class="st4" d="M261.2,407.6c-1.2-0.1-2.3-0.4-3.4-0.9c-17-8.9-30.2-23.5-38.2-34c-3.1-4-5.9-8.2-8.5-12.6l4.1-17.5
		c0,0,3.8,10,19.3,19.8s33.8,13.1,39.7,23C279.3,394,270.1,408,261.2,407.6z"/>
	<g>
		<defs>
			<path id="SVGID_1_" d="M261.2,407.6c-1.2-0.1-2.3-0.4-3.4-0.9c-17-8.9-30.2-23.5-38.2-34c-3.1-4-5.9-8.2-8.5-12.6l4.1-17.5
				c0,0,3.8,10,19.3,19.8s33.8,13.1,39.7,23C279.3,394,270.1,408,261.2,407.6z"/>
		</defs>
		<clipPath id="SVGID_2_">
			<use xlink:href="#SVGID_1_"  style="overflow:visible;"/>
		</clipPath>
		<g class="st5">
			<path class="st6" d="M261.2,407.6c-0.2-1.3-0.5-2.5-1-3.7c-3.6-8.9-25.2-26.7-25.2-26.7c-5.1-0.2-10.8-2.3-15.4-4.6
				c-3.1-4-6-8.2-8.6-12.6l4.1-17.5c0,0,3.8,10,19.3,19.8s33.8,13.1,39.7,23C279.3,394,270.1,408,261.2,407.6z"/>
		</g>
	</g>
	<path class="st3" d="M261.2,407.6c-1.2-0.1-2.3-0.4-3.4-0.9c-17-8.9-30.2-23.5-38.2-34c-3.1-4-5.9-8.2-8.5-12.6l4.1-17.5
		c0,0,3.8,10,19.3,19.8s33.8,13.1,39.7,23C279.3,394,270.1,408,261.2,407.6z"/>
	<path class="st1" d="M222.7,358.9c0,0-2.1,9.3-7.7,7.2c-3-1.1-8.8-10.1-9.9-14.6L222.7,358.9z"/>
	<path class="st1" d="M198.1,301.5l4.5-2.3c0,0,12.8,0.1,20.8,6.6c7.2,5.9,10.9,15.1,10.9,15.1s28.1-15.5,56.8-6.6l11.7,65.2
		l-53.8,3.5l-33.6-31.9L198.1,301.5z"/>
	<path class="st7" d="M306.6,382.1c0,0-6.3-0.2-14.8,0.1c-12.8,0.4-30.4,1.8-38.4,6.5l-0.4-0.1l-7.4-2.6l-0.1-0.2
		c-1.4-2-12.3-17.8-28-24.2l-22.2-61.9c0,0,23,1,35.6,21.8l6.3,2.3c0,0,37.5-11.1,58.6-7.1L306.6,382.1z"/>
	<g>
		<defs>
			<path id="SVGID_3_" d="M306.6,382.1c0,0-6.3-0.2-14.8,0.1c-12.8,0.4-30.4,1.8-38.4,6.5l-0.4-0.1l-7.4-2.6l-0.1-0.2
				c-1.4-2-12.3-17.8-28-24.2l-22.2-61.9c0,0,23,1,35.6,21.8l6.3,2.3c0,0,37.5-11.1,58.6-7.1L306.6,382.1z"/>
		</defs>
		<clipPath id="SVGID_4_">
			<use xlink:href="#SVGID_3_"  style="overflow:visible;"/>
		</clipPath>
		<g class="st8">
			<path class="st9" d="M245.4,385.8c-1.4-2-12.3-17.8-28-24.2l-22.2-61.9c0,0,23,1,35.6,21.8L245.4,385.8z"/>
			<path class="st9" d="M291.8,382.2c-12.8,0.4-30.4,1.8-38.4,6.5l-0.4-0.1L238.2,326c0,0,12.1-2.7,15.8-1.3
				C254,324.7,278.5,342.8,291.8,382.2z"/>
		</g>
	</g>
	<path class="st3" d="M306.6,382.1c0,0-6.3-0.2-14.8,0.1c-12.8,0.4-30.4,1.8-38.4,6.5l-0.4-0.1l-7.4-2.6l-0.1-0.2
		c-1.4-2-12.3-17.8-28-24.2l-22.2-61.9c0,0,23,1,35.6,21.8l6.3,2.3c0,0,37.5-11.1,58.6-7.1L306.6,382.1z"/>
	<line class="st3" x1="237.2" y1="323.8" x2="251.7" y2="383.8"/>
	<line class="st3" x1="245.6" y1="386" x2="231.5" y2="326"/>
	<path class="st1" d="M209.9,360c-3.2-0.9-9.7-20.2-6.7-28.5c0,0,3.5-6.1,5-6.5c2.2-0.6,11.3-0.5,10.8,1.1c-1,3.5-7.9,3.5-7.9,3.5
		l-2.3,4.1l0.1,2.3c0,0,3.3-2.4,4.5-2.3c0.6,0,3.8,1.6,6.4,2.9c2.2,1.1,3.5,1.8,3,2.8c-1.6,3.5-8.5,1-8.5,1l-2.6,3.9
		c0,0,2.5,0.4,3.6,0.5s10.1,6.1,9.9,6.9c-1.1,2.9-9.6-0.2-9.6-0.2l-1.5,1.3c0,0,6.3,1.6,7,1.9c1,0.4,4.9,3.3,4.8,3.7
		c-0.5,2.6-5.8,0.7-5.8,0.7l-4.6-0.2c-0.7,0.6-1.6,1.1-2.5,1.3"/>
	<path class="st3" d="M208.9,335.9c0,0-3,2.5-3.8,3.3s-0.6,3-0.6,3"/>
	<path class="st3" d="M206.7,347.4c0,2.5,1.7,4.1,2.5,4.9s-1.3,3,1,4.6"/>
	<path class="st4" d="M354.8,427.9c-6.4,1.7-13.3-9.4-21.7-21.6l0,0c-5.6-8-11.8-16.5-18.9-22c-0.6-0.4-1.1-0.9-1.7-1.3l4.2-21
		c8.7,4.5,14.1,11.8,23.1,19.3c14.5,12.1,27.4,19.5,30.9,24.8S365.7,424.9,354.8,427.9z"/>
	<g>
		<defs>
			<path id="SVGID_5_" d="M354.8,427.9c-6.4,1.7-13.3-9.4-21.7-21.6l0,0c-5.6-8-11.8-16.5-18.9-22c-0.6-0.4-1.1-0.9-1.7-1.3l4.2-21
				c8.7,4.5,14.1,11.8,23.1,19.3c14.5,12.1,27.4,19.5,30.9,24.8S365.7,424.9,354.8,427.9z"/>
		</defs>
		<clipPath id="SVGID_6_">
			<use xlink:href="#SVGID_5_"  style="overflow:visible;"/>
		</clipPath>
		<g class="st10">
			<path class="st6" d="M333.1,406.3c-5.6-8-11.8-16.5-18.9-22c0.9,0,1.9-0.1,2.8-0.4C317,383.8,328.3,393,333.1,406.3z"/>
		</g>
	</g>
	<path class="st3" d="M354.8,427.9c-6.4,1.7-13.3-9.4-21.7-21.6l0,0c-5.6-8-11.8-16.5-18.9-22c-0.6-0.4-1.1-0.9-1.7-1.3l4.2-21
		c8.7,4.5,14.1,11.8,23.1,19.3c14.5,12.1,27.4,19.5,30.9,24.8S365.7,424.9,354.8,427.9z"/>
	<path class="st4" d="M319,382.2c-0.4,0.8-1.2,1.4-2,1.6c-0.2,0.1-0.5,0.2-0.7,0.2h-0.2c-6.7,1.8-21.8-1.9-21.8-1.9
		s-9.9-4.7-10.5-5.8c-0.4-0.9-0.8-1.8-1.1-2.7l-0.3-0.8c0,0-3.6-2-4-3.6s-1.2-2,1-2.3s14,0,14,0l-12.9-5.2c0,0-8.5-4.3-9.3-5.8
		s-1.8-2.5,2.6-1.9s13.9,3.4,13.9,3.4l7.5,1.6l-7.4-3.2c0,0-14.6-1.8-11.9-6.3h8.3c4.7,0.2,9.4,0.8,14,1.8
		c2.4,0.7,18.4,10.7,18.4,10.7"/>
	<g>
		<defs>
			<path id="SVGID_7_" d="M319,382.2c-0.4,0.8-1.2,1.4-2,1.6c-0.2,0.1-0.5,0.2-0.7,0.2h-0.2c-6.7,1.8-21.8-1.9-21.8-1.9
				s-9.9-4.7-10.5-5.8c-0.4-0.9-0.8-1.8-1.1-2.7l-0.3-0.8c0,0-3.6-2-4-3.6s-1.2-2,1-2.3s14,0,14,0l-12.9-5.2c0,0-8.5-4.3-9.3-5.8
				s-1.8-2.5,2.6-1.9s13.9,3.4,13.9,3.4l7.5,1.6l-7.4-3.2c0,0-14.6-1.8-11.9-6.3h8.3c4.7,0.2,9.4,0.8,14,1.8
				c2.4,0.7,18.4,10.7,18.4,10.7"/>
		</defs>
		<clipPath id="SVGID_8_">
			<use xlink:href="#SVGID_7_"  style="overflow:visible;"/>
		</clipPath>
		<g class="st11">
			<path class="st6" d="M316.1,384.1c-6.7,1.8-21.8-1.9-21.8-1.9s-9.9-4.7-10.5-5.8c-0.4-0.9-0.8-1.8-1.1-2.7l12.1,1.3
				c-0.9,1.6-0.9,3.4,0,5C296.2,382.4,311.6,384.9,316.1,384.1z"/>
		</g>
	</g>
	<path class="st3" d="M319,382.2c-0.4,0.8-1.2,1.4-2,1.6c-0.2,0.1-0.5,0.2-0.7,0.2h-0.2c-6.7,1.8-21.8-1.9-21.8-1.9
		s-9.9-4.7-10.5-5.8c-0.4-0.9-0.8-1.8-1.1-2.7l-0.3-0.8c0,0-3.6-2-4-3.6s-1.2-2,1-2.3s14,0,14,0l-12.9-5.2c0,0-8.5-4.3-9.3-5.8
		s-1.8-2.5,2.6-1.9s13.9,3.4,13.9,3.4l7.5,1.6l-7.4-3.2c0,0-14.6-1.8-11.9-6.3h8.3c4.7,0.2,9.4,0.8,14,1.8
		c2.4,0.7,18.4,10.7,18.4,10.7"/>
	<line class="st3" x1="282.4" y1="372.9" x2="297" y2="375"/>
	<path class="st7" d="M136.8,417.6l36.6,11l67-15.3c0,0-40.9-11.6-41.3-11.3S136.8,417.6,136.8,417.6z"/>
	<g>
		<defs>
			<path id="SVGID_9_" d="M136.8,417.6l36.6,11l67-15.3c0,0-40.9-11.6-41.3-11.3S136.8,417.6,136.8,417.6z"/>
		</defs>
		<clipPath id="SVGID_10_">
			<use xlink:href="#SVGID_9_"  style="overflow:visible;"/>
		</clipPath>
		<g class="st12">
			<path class="st9" d="M136.8,417.6l36.6,11l67-15.3c0,0-40.9-11.6-41.3-11.3S136.8,417.6,136.8,417.6z"/>
		</g>
	</g>
	<path class="st3" d="M136.8,417.6l36.6,11l67-15.3c0,0-40.9-11.6-41.3-11.3S136.8,417.6,136.8,417.6z"/>
	<path class="st7" d="M137.3,404.7c-2.6,0.2-3.2,9.4-0.5,12.9l59.2-12.3l4.7-11.2L137.3,404.7z"/>
	<g>
		<defs>
			<path id="SVGID_11_" d="M137.3,404.7c-2.6,0.2-3.2,9.4-0.5,12.9l59.2-12.3l4.7-11.2L137.3,404.7z"/>
		</defs>
		<clipPath id="SVGID_12_">
			<use xlink:href="#SVGID_11_"  style="overflow:visible;"/>
		</clipPath>
		<g class="st13">
			<path class="st9" d="M137.3,404.7c-2.6,0.2-3.2,9.4-0.5,12.9l59.2-12.3l4.7-11.2L137.3,404.7z"/>
		</g>
	</g>
	<path class="st3" d="M137.3,404.7c-2.6,0.2-3.2,9.4-0.5,12.9l59.2-12.3l4.7-11.2L137.3,404.7z"/>
	<path class="st1" d="M237.5,404.6c0,0-0.9,4.9-0.3,7.9l-63.9,14.5l-33.7-9.9c0,0-3.5-6.2-0.4-11l61.5-10.5L237.5,404.6z"/>
	<polygon class="st14" points="137.3,404.7 200.7,394.1 240,404.1 173.9,417.3 	"/>
	<polyline class="st3" points="139.6,410.6 173.1,420.6 227.9,409.6 	"/>
	<line class="st3" x1="237" y1="410.6" x2="178.1" y2="423.2"/>
	<path class="st3" d="M140.4,414.6c0.5,0,25.3,7.7,25.3,7.7"/>
	<line class="st3" x1="232.2" y1="408.3" x2="236.9" y2="407.5"/>
	<line class="st3" x1="172" y1="424.1" x2="169.5" y2="423.5"/>
	<path class="st0" d="M139.2,406c2.7,3.1,2.9,7.7,0.4,11C137.4,413.7,137.2,409.5,139.2,406z"/>
	<g>
		<defs>
			<path id="SVGID_13_" d="M139.2,406c2.7,3.1,2.9,7.7,0.4,11C137.4,413.7,137.2,409.5,139.2,406z"/>
		</defs>
		<clipPath id="SVGID_14_">
			<use xlink:href="#SVGID_13_"  style="overflow:visible;"/>
		</clipPath>
		<g class="st15">
			<path class="st16" d="M139.2,406c2.7,3.1,2.9,7.7,0.4,11C137.4,413.7,137.2,409.5,139.2,406z"/>
		</g>
	</g>
	<path class="st3" d="M139.2,406c2.7,3.1,2.9,7.7,0.4,11C137.4,413.7,137.2,409.5,139.2,406z"/>
	<polygon class="st4" points="276.1,420.6 340,423.2 333.8,445.3 255.1,442.3 	"/>
	<g>
		<defs>
			<polygon id="SVGID_15_" points="276.1,420.6 340,423.2 333.8,445.3 255.1,442.3 			"/>
		</defs>
		<clipPath id="SVGID_16_">
			<use xlink:href="#SVGID_15_"  style="overflow:visible;"/>
		</clipPath>
		<g class="st17">
			<polygon class="st6" points="276.1,420.6 340,423.2 333.8,445.3 255.1,442.3 			"/>
		</g>
	</g>
	<polygon class="st3" points="276.1,420.6 340,423.2 333.8,445.3 255.1,442.3 	"/>
</g>
</svg>
