<?xml version="1.0" encoding="utf-8"?>
<!-- Generator: Adobe Illustrator 21.1.0, SVG Export Plug-In . SVG Version: 6.00 Build 0)  -->
<svg version="1.1" id="Layer_1" xmlns="http://www.w3.org/2000/svg" xmlns:xlink="http://www.w3.org/1999/xlink" x="0px" y="0px"
	 viewBox="0 0 500 500" style="enable-background:new 0 0 500 500;" xml:space="preserve">
<style type="text/css">
	.st0{opacity:0.7;fill:#FFFFFF;enable-background:new    ;}
	.st1{fill:#1EEBCD;}
</style>
<g id="freepik--background-simple--inject-2">
	<path class="st0" d="M67.9,167.1c0,0-27.9,72,11.3,144.5s119.9,110.8,184.5,143.6s131.7,16.8,163.5-36.8s-11.8-91.9-11.9-168.4
		s11.5-96.7-30-161.4s-143.1-78.9-219.9-31S67.9,167.1,67.9,167.1z"/>
	<path class="st1" d="M63.7,139.2C90.4,87.3,140,48.1,201.8,42.6c42.5-3.7,84.8,8.5,118.7,34.3c16.9,13,31.8,29.5,41.8,48.4
		c11.4,21.7,14.8,46.7,26.5,68.3c14.6,26.9,42,37.9,60.5,61.1c15.2,19.1,20.4,44.7,18.6,69.1c-3.2,44.4-29.2,86.6-67.5,109.4
		c-32.4,19.3-71.4,24.6-109,22.8c-58-2.7-115.7-21.8-161.4-57.6s-78.5-88.8-86.3-146.3C38.4,213,46.1,173.3,63.7,139.2z"/>
	<path class="st0" d="M63.7,139.2C90.4,87.3,140,48.1,201.8,42.6c42.5-3.7,84.8,8.5,118.7,34.3c16.9,13,31.8,29.5,41.8,48.4
		c11.4,21.7,14.8,46.7,26.5,68.3c14.6,26.9,42,37.9,60.5,61.1c15.2,19.1,20.4,44.7,18.6,69.1c-3.2,44.4-29.2,86.6-67.5,109.4
		c-32.4,19.3-71.4,24.6-109,22.8c-58-2.7-115.7-21.8-161.4-57.6s-78.5-88.8-86.3-146.3C38.4,213,46.1,173.3,63.7,139.2z"/>
</g>
</svg>
