<?xml version="1.0" encoding="utf-8"?>
<!-- Generator: Adobe Illustrator 21.1.0, SVG Export Plug-In . SVG Version: 6.00 Build 0)  -->
<svg version="1.1" id="Layer_1" xmlns="http://www.w3.org/2000/svg" xmlns:xlink="http://www.w3.org/1999/xlink" x="0px" y="0px"
	 viewBox="0 0 500 500" style="enable-background:new 0 0 500 500;" xml:space="preserve">
<style type="text/css">
	.st0{fill:#1EEBCD;}
	.st1{clip-path:url(#SVGID_2_);}
	.st2{opacity:0.6;}
	.st3{fill:#FFFFFF;}
	.st4{fill:none;stroke:#263238;stroke-linecap:round;stroke-linejoin:round;}
</style>
<g id="freepik--Earth--inject-2">
	<path class="st0" d="M240.3,211.6c-1.4,2.6-2.9,5.1-4.6,7.5c-18.4,25.5-52.8,33.6-80.6,18.9c-1.4-0.7-2.8-1.5-4.1-2.3
		s-2.6-1.7-3.8-2.6c-1.5-1.1-2.9-2.2-4.3-3.4l0,0c-0.1-0.1-0.2-0.1-0.2-0.2l0,0c-26.1-23.1-28.5-63-5.4-89s63-28.5,89-5.4
		C248.1,154.3,253.9,185.9,240.3,211.6L240.3,211.6z"/>
	<g>
		<defs>
			<path id="SVGID_1_" d="M240.3,211.6c-1.4,2.6-2.9,5.1-4.6,7.5c-18.4,25.5-52.8,33.6-80.6,18.9c-1.4-0.7-2.8-1.5-4.1-2.3
				s-2.6-1.7-3.8-2.6c-1.5-1.1-2.9-2.2-4.3-3.4l0,0c-0.1-0.1-0.2-0.1-0.2-0.2l0,0c-26.1-23.1-28.5-63-5.4-89s63-28.5,89-5.4
				C248.1,154.3,253.9,185.9,240.3,211.6L240.3,211.6z"/>
		</defs>
		<clipPath id="SVGID_2_">
			<use xlink:href="#SVGID_1_"  style="overflow:visible;"/>
		</clipPath>
		<g class="st1">
			<g class="st2">
				<path class="st3" d="M240.3,211.6c-1.4,2.6-2.9,5.1-4.6,7.5l-1.2-1l-2.1-1.1l-2.2-1.2l0.4-2.7l-0.1-2.4c-0.1-2.4,1.6-0.4,3-1.2
					c1.1-0.8,2-1.8,2.6-3c0,0,1-3.2,0.7-4.5c-0.5-1.5-1.2-2.9-1.9-4.3l-3.6,5l-3-0.2l-2.8-1.5l-0.4-3.9l-1.5-0.8l-0.6-2.3l-7.9-2.2
					l-0.9-1.6c-0.9-1.6-4.5-2.4-4.5-2.4l0.9-2.1l1.4-2.3c1.4-2.3,2.9,1.5,2.9,1.5l1.7,0.9l3.1-2.6l0.8-3.7l5.1,0.3
					c-0.2-1,0.3-2.1,1.3-2.5c1.7-0.7,0.9-4.3,0.3-5.7s-3-0.3-3-0.3s-2.6-3.9-2.9-5.5s4.9-1,7.1-2.6s1.5-4.7,0.4-4.8s2.1-7.1,8.4-5.2
					c1.7,0.5,2.8,0.4,3.5-0.3C250,171.5,249.9,193.3,240.3,211.6z"/>
				<path class="st3" d="M196.5,184.6l-2.1,2.7c0,0-0.9-2.2-2.2-1l-2,1.8l-1.4,4.1l-2.6,1.7l-1.6-0.8l-1.5-0.8l-1.6-0.9l-1.6,3
					l-1.3,2.4c0.6,1.2,1.4,2.3,2.3,3.3l2.8,4.9l3.4,1.7c1.4,0.1,2.8,0.2,4.2,0.5l2.3,1.2l-0.8,5c0,0-1.7,2.8-2.9,2.1l-1.2-0.8
					l-1.9,6.6l-0.1,3.6c0,0-1.1,0.5-2.3,0.9s-0.4,0.2-2.8,0.9s-2.2,0.7-4.1,1.3c-1.7,0.6-3.2,1.3-4.8,2.2l0.2,3.5l-4.6,0.7l-2.6-1.4
					l0.6-2.2l0.3-3.4l-0.4-2.6l-1.1-2.3l3.1-2.8l-0.7-1.8l-1.8-3.5l-3.7,2l-1.9,1l-4.3-1.9l-0.5-2.6L154,208l-1.3-2.9l-2.4-3.2
					l-0.6-2.8l1.3-2.5l0.7-1.3l-2.2-2.9l-0.6-2.1l-3.7-3.4c0,0,1.1-0.1,0.8-1.6s2.1-4,2.1-4c1.3,0.7,5.3,3.5,5.3,3.5l3.5,0.5
					c0,0,0.7,0,1.4-1.3c0.8-1.2,1.7-2.3,2.8-3.3c0,0-1.6-5.6-0.5-6.3s2.3-4.4,2.3-4.4l0.9-1.8c0,0-2.2-0.9-2.6-2.1s-5.8,0.4-5.8,0.4
					l-3.7,2.6l-2.9,2.3l-1.3,2.4c0,0-2.6-3.1-2.6-1.4c-0.2,1.8-0.6,3.5-1.2,5.2c0,0,0.5,0.3-0.2,1.6s-1.5,1.3-3,1.5
					c-2,0-4-0.1-6-0.4c0,0-1,3.7-0.3,4.3l0.7,0.6c0,0-1.1,2.7-2.1,2.1l-2.6-1.4l-3.6,1.5l-4,4.4l-0.9-0.2
					c-5.1-34.2,18.3-66.2,52.5-71.6c0.2,1,0.5,1.9,0.5,1.9l-1,4.9l-1.3,2.4l-1.1,2.1l-1.6,2.9l4,3.7l-0.9,4.3l-2.1,1.4l-0.6,3.3
					l3.7,7.2l1,2.8c-0.6,1.4-0.9,2.8-0.9,4.3c0,0,0.4,2.7,2.4,3.8s4.6,2.3,4.6,2.3l-0.2,4l-0.9,1l1.5,4.3c4.5,1.8,4.1,3.3,4.5,1.8
					l0.4-1.5l3.1-1.1l3.9,4.7c0.9,0,1.8,0.4,2.3,1.2C196.9,183.1,198.7,181.9,196.5,184.6z"/>
				<path class="st3" d="M143.5,219.4c0.1,1.4-1.7,3.2-1.7,3.2l1.5,0.8l0.4,4l-1.1,2.1c-7.9-6.9-13.9-15.8-17.4-25.6l0.8-4.2
					l3.5-0.5c0,0,3.2-2.1,4.6-1.5s2.7,4,2.7,4s1,4.6,0.9,4.6l0,0h-0.1h0.1l1.4,0.8l0.4,1.8l-2,3.8h-3.2c0,0-0.6-0.3-0.7,1.3
					c0.1,1.2,0.7,2.2,1.7,2.9l3.5-0.9l0.9-3.6l3.4-0.7c0,0-0.5,2.2,0.3,2.6l0.8,0.4l0.5,2.6C144,217.8,143.5,218.5,143.5,219.4z"/>
				<path class="st3" d="M160.1,225.1c-0.3-0.9-0.4-1.6-2.6-2.7s-2-0.7-2.8,0.2c-0.7,1-2,1.4-3.2,1.1c-1.4-0.3-0.7,1.3-0.7,1.3
					l0.3,4.3l-3.9,3.9c1.2,0.9,2.5,1.8,3.8,2.6l0.8-2.6l6.6,1.9c-1.4-0.4-0.6-2.3-0.6-2.3l-1.4-0.7
					C156.4,231.9,160.4,225.9,160.1,225.1z"/>
				<path class="st3" d="M201.4,202.9l-2.1-2.2l-2.5,0.8l-1,2l-0.8,1.4l1,2l2,2.4l1.1-2.2c0,0,3.2,0,4.8-1.8
					S201.4,202.9,201.4,202.9z"/>
				<path class="st3" d="M195.1,193.1l4,2.1l0.2-0.9c0.2-0.8,0.6-1.5,1.1-2.1l-3.1-3.2L195.1,193.1z"/>
				<path class="st3" d="M193.7,239.6l-1.1-1.7l-1.3-0.7h-4.1l-2.3,4.4c0,0-2.2-0.3-5.2-0.6s-2.2,0.9-2.2,0.9l-0.8,2.8
					c7.4,0.9,14.9,0.5,22.1-1.2c-0.8-0.6-1.7-1.1-2.6-1.6L193.7,239.6z"/>
			</g>
		</g>
	</g>
	<path class="st4" d="M240.3,211.6c-1.4,2.6-2.9,5.1-4.6,7.5c-18.4,25.5-52.8,33.6-80.6,18.9c-1.4-0.7-2.8-1.5-4.1-2.3
		s-2.6-1.7-3.8-2.6c-1.5-1.1-2.9-2.2-4.3-3.4l0,0c-0.1-0.1-0.2-0.1-0.2-0.2l0,0c-26.1-23.1-28.5-63-5.4-89s63-28.5,89-5.4
		C248.1,154.3,253.9,185.9,240.3,211.6L240.3,211.6z"/>
	<path class="st4" d="M198.8,243.6c-7.3,1.7-14.7,2.1-22.1,1.2l0.8-2.8c0,0-0.7-1.2,2.2-0.9s5.2,0.6,5.2,0.6l2.3-4.4h4.1l1.3,0.7
		l1.1,1.7l2.5,2.4C197.1,242.5,198,243,198.8,243.6z"/>
	<path class="st4" d="M240.5,153.2c-0.7,0.6-1.8,0.8-3.5,0.3c-6.3-1.9-9.5,5.1-8.4,5.2s1.9,3.2-0.4,4.8s-7.5,1-7.1,2.6
		s2.9,5.5,2.9,5.5s2.3-1.1,2.9,0.3s1.4,5-0.3,5.7c-1,0.4-1.5,1.5-1.3,2.5l-5.1-0.3l-0.8,3.7l-3.1,2.6l-1.7-0.9c0,0-1.5-3.8-2.9-1.5
		l-1.4,2.3l-0.9,2.1c0,0,3.6,0.8,4.5,2.4l0.9,1.6l7.9,2.2l0.6,2.3l1.5,0.8l0.4,3.9l2.9,1.5l3,0.2l3.6-5c0.7,1.4,1.4,2.9,1.9,4.3
		c0.4,1.3-0.7,4.5-0.7,4.5c-0.6,1.2-1.5,2.2-2.6,3c-1.4,0.7-3.2-1.2-3,1.2l0.1,2.4l-0.4,2.7l2.2,1.2l2.1,1.1l1.2,1"/>
	<path class="st4" d="M122.1,191.5l0.9,0.2l4-4.4l3.6-1.5l2.6,1.4c1.1,0.6,2.1-2.1,2.1-2.1l-0.7-0.6c-0.7-0.6,0.3-4.3,0.3-4.3
		c2,0.3,4,0.4,6,0.4c1.6-0.2,2.3-0.1,3-1.5s0.2-1.6,0.2-1.6c0.6-1.7,1-3.4,1.2-5.2c0-1.7,2.6,1.4,2.6,1.4l1.3-2.4l2.8-2.2l3.7-2.6
		c0,0,5.4-1.5,5.8-0.4s2.6,2.1,2.6,2.1l-0.9,1.8c0,0-1.2,3.6-2.3,4.4s0.5,6.3,0.5,6.3c-1.1,1-2,2.1-2.8,3.3
		c-0.7,1.3-1.4,1.3-1.4,1.3l-3.5-0.5c0,0-4-2.8-5.3-3.5c0,0-2.4,2.5-2.1,4s-0.8,1.6-0.8,1.6l3.7,3.4l0.6,2.1l2.2,2.9l-0.7,1.3
		l-1.3,2.5l0.6,2.8l2.4,3.2l1.3,2.9l1.5,4.7l0.5,2.6l4.3,1.9l1.9-1l3.7-2l1.8,3.5l0.7,1.8l-3.1,2.8l1.1,2.3l0.4,2.6l-0.3,3.4
		l-0.6,2.2l2.6,1.4l4.6-0.7l-0.2-3.5c1.5-0.9,3.1-1.6,4.8-2.2c1.9-0.6,1.8-0.5,4.1-1.3s1.7-0.5,2.8-0.9s2.3-0.9,2.3-0.9l0.1-3.6
		l1.9-6.6l1.2,0.8c1.2,0.8,2.9-2.1,2.9-2.1l0.8-5l-2.4-1.2c-1.4-0.3-2.8-0.4-4.2-0.5l-3.3-1.7l-2.8-4.9c-0.9-1-1.7-2.1-2.3-3.3
		l1.3-2.4l1.6-3l1.6,0.9l1.5,0.8l1.6,0.8l2.6-1.7l1.4-4.1l2-1.8c1.3-1.2,2.2,1,2.2,1l2.1-2.7c2.1-2.7,0.4-1.4-0.7-2.8
		c-0.5-0.8-1.4-1.2-2.3-1.2l-3.9-4.7l-3.1,1.2l-0.4,1.5c-0.4,1.5,0,0-4.5-1.8l-1.5-4.3l0.9-1l0.2-4c0,0-2.6-1.3-4.6-2.3
		s-2.4-3.8-2.4-3.8c0-1.5,0.3-3,0.9-4.3l-1-2.8l-3.7-7.2l0.6-3.3l2.1-1.4l0.9-4.3l-3.9-3.7l1.6-2.9l1.1-2.1l1.3-2.4l1-4.9
		c0,0-0.3-0.9-0.5-1.9"/>
	<path class="st4" d="M143,229.7c-0.1-0.1-0.2-0.2-0.3-0.2l0,0l1.1-2.1l-0.4-4l-1.5-0.8c0,0,1.8-1.8,1.7-3.2c0-0.9,0.4-1.7,1.1-2.1
		l-0.5-2.6l-0.8-0.4c-0.8-0.4-0.3-2.6-0.3-2.6l-3.4,0.7l-0.9,3.6l-3.5,0.9c-1-0.7-1.6-1.8-1.7-2.9c0.1-1.7,0.7-1.3,0.7-1.3h3.2
		l2-3.8l-0.4-1.8l-1.4-0.8"/>
	<path class="st4" d="M137.6,206.1L137.6,206.1c0.2,0.1-0.9-4.6-0.9-4.6s-1.3-3.4-2.7-4s-4.6,1.5-4.6,1.5l-3.5,0.5l-0.8,4.2"/>
	<path class="st4" d="M151.8,233.1l-0.8,2.6c-1.3-0.8-2.6-1.7-3.8-2.6l3.9-3.9l-0.3-4.3c0,0-0.7-1.6,0.7-1.3
		c1.2,0.3,2.4-0.2,3.2-1.1c0.8-0.9,0.7-1.3,2.8-0.2s2.3,1.9,2.6,2.7s-3.6,6.9-3.6,6.9l1.4,0.7c0,0-0.8,1.9,0.6,2.3L151.8,233.1z"/>
	<path class="st4" d="M196.8,201.4l2.5-0.8l2.1,2.2c0,0,4.3,0.6,2.6,2.4s-4.8,1.8-4.8,1.8l-1.2,2.2l-2-2.4l-1-2l0.8-1.4L196.8,201.4
		z"/>
	<path class="st4" d="M200.3,192.2c-0.5,0.6-0.9,1.3-1.1,2.1l-0.2,0.9l-4-2.1l2.2-4.1L200.3,192.2z"/>
</g>
</svg>
