<?xml version="1.0" encoding="utf-8"?>
<!-- Generator: Adobe Illustrator 21.1.0, SVG Export Plug-In . SVG Version: 6.00 Build 0)  -->
<svg version="1.1" id="Layer_1" xmlns="http://www.w3.org/2000/svg" xmlns:xlink="http://www.w3.org/1999/xlink" x="0px" y="0px"
	 viewBox="0 0 500 500" style="enable-background:new 0 0 500 500;" xml:space="preserve">
<style type="text/css">
	.st0{fill:none;stroke:#263238;stroke-linecap:round;stroke-linejoin:round;}
	.st1{fill:#263238;}
</style>
<g id="freepik--Elements--inject-2">
	<path class="st0" d="M46.1,158.1c1.2,4.7,0.6-3.9,2.9-14.4s6.3-6.3,6.3-6.3"/>
	<line class="st0" x1="45.3" y1="147.4" x2="52.6" y2="144.4"/>
	<path class="st0" d="M58.6,140.8c0,0-4.3,9,2.2,12.8"/>
	<path class="st0" d="M64.7,138.3c0,0,7.2,4,2.7,12.6"/>
	<line class="st0" x1="59.8" y1="143.9" x2="65" y2="147.6"/>
	<line class="st0" x1="63.9" y1="142.2" x2="59.8" y2="148.6"/>
	
		<ellipse transform="matrix(0.1619 -0.9868 0.9868 0.1619 -169.2971 273.0883)" class="st0" cx="76.1" cy="236.2" rx="10.9" ry="10.9"/>
	
		<ellipse transform="matrix(0.9796 -0.2009 0.2009 0.9796 -46.4608 23.1734)" class="st0" cx="90.9" cy="240.5" rx="12.1" ry="12.1"/>
	<line class="st0" x1="86.1" y1="231.7" x2="81.1" y2="233.5"/>
	<line class="st0" x1="86.8" y1="233.8" x2="79.6" y2="236.4"/>
	<line class="st0" x1="87" y1="236.3" x2="79" y2="239.4"/>
	<line class="st0" x1="86.5" y1="239.7" x2="79.1" y2="243.1"/>
	<line class="st0" x1="85.2" y1="242.3" x2="79.6" y2="244.6"/>
	<path class="st0" d="M81.4,219.6c-0.3-1-3.8-1.6-4,1s3.7,0.4,4.8-1c0,0-2,2.7-1.2,3.2"/>
	<path class="st0" d="M101,222.9l-3.1,6.5c0,0,1.6-3.3,3.3-3c2.1,0.4,0.7,3.8-1.8,2.5"/>
	<line class="st0" x1="442.7" y1="329.5" x2="447.6" y2="334.1"/>
	<line class="st0" x1="447.6" y1="328.3" x2="443.5" y2="334.4"/>
	<line class="st0" x1="452.5" y1="330" x2="457.4" y2="328.2"/>
	<line class="st0" x1="459.8" y1="323" x2="462.8" y2="325.7"/>
	<line class="st0" x1="465.1" y1="319.9" x2="461.3" y2="332.9"/>
	<polygon class="st0" points="235,256.2 248.2,247.1 265.8,248.3 266.9,270.6 254,279.8 238.1,278.7 	"/>
	<polyline class="st0" points="238.1,278.7 250.9,269.4 266.9,270.6 	"/>
	<line class="st0" x1="250.9" y1="269.4" x2="248.2" y2="247.1"/>
	<polyline class="st0" points="235,256.2 252.5,258.3 265.8,248.3 	"/>
	<line class="st0" x1="252.5" y1="258.3" x2="254" y2="279.8"/>
	<polygon class="st0" points="389.9,181.4 384,199.6 402.3,197.2 	"/>
	<line class="st0" x1="389.9" y1="181.4" x2="393.1" y2="198.3"/>
	<polyline class="st0" points="392.6,195.6 394.7,195.3 395.2,198.1 	"/>
	<line class="st0" x1="159.4" y1="348.6" x2="168.5" y2="353"/>
	<line class="st0" x1="165.6" y1="345.1" x2="163" y2="354.7"/>
	<path class="st0" d="M166.9,340.5c0.5-0.5,1.4-0.6,2,0c0.1,0.1,0.2,0.2,0.2,0.3c0.9,1.4-0.9,4.5-0.9,4.5l3.7-1.4"/>
	<path class="st0" d="M231.1,34c8.7,4.9-1.3,16.9-1.3,23.9s10,6,15,8c2,0,6,0,5.9,5.1"/>
	<path class="st0" d="M221.4,40.4c1.5,8.3,11,5.3,16.8,7.2c10,3.3,4.4,13.6,1.5,19.8c-1.8,3.7-3.6,8.9-0.4,12.5"/>
	<line class="st0" x1="222.7" y1="43.6" x2="233.1" y2="34.9"/>
	<line class="st0" x1="226.8" y1="46.2" x2="234.6" y2="39.7"/>
	<line class="st0" x1="231.4" y1="52.7" x2="238" y2="47.5"/>
	<line class="st0" x1="230" y1="60.5" x2="243" y2="51.2"/>
	<line class="st0" x1="235" y1="64.2" x2="244" y2="57.5"/>
	<line class="st0" x1="238.8" y1="78.2" x2="250.1" y2="69"/>
	<line class="st0" x1="239.1" y1="71" x2="246.4" y2="65.8"/>
	
		<ellipse transform="matrix(0.9285 -0.3714 0.3714 0.9285 -118.054 55.1526)" class="st0" cx="84.2" cy="334.1" rx="20.9" ry="20.9"/>
	<path class="st0" d="M89.4,313.8c7.3-8.6,13.5-13.4,15.9-11.8c3.6,2.4-2.9,18.7-14.6,36.4S66.6,368.6,63,366.2
		c-2.4-1.6-0.4-9.2,4.6-19.3"/>
	<path class="st0" d="M63.7,338.4c-10.2-2.9-16.7-6.4-16.3-9.1c0.6-4.3,18.2-5.3,39.2-2.2s37.5,9.1,36.9,13.4c-0.4,3-9,4.4-21.2,3.9
		"/>
	<path class="st0" d="M66.3,323.2c-7.7-13.9-11.5-24.7-8.9-26.4c3.4-2.2,16.6,12.1,29.5,32s20.6,37.8,17.2,40
		c-2.3,1.5-8.8-4.3-16.7-14.2"/>
	<path class="st1" d="M108.3,311.1c-1,1.6-3.2,2-4.8,1s-2-3.2-1-4.8c1-1.6,3.2-2,4.8-1C108.9,307.3,109.3,309.5,108.3,311.1
		C108.3,311.1,108.3,311.1,108.3,311.1z"/>
	<path class="st1" d="M96.9,363.8c-1,1.6-3.2,2-4.8,1s-2-3.2-1-4.8c1-1.6,3.2-2,4.8-1C97.5,360,97.9,362.1,96.9,363.8
		C96.9,363.7,96.9,363.7,96.9,363.8z"/>
	<path class="st1" d="M78.5,328c-1,1.6-3.2,2-4.8,1s-2-3.2-1-4.8c1-1.6,3.2-2,4.8-1C79.1,324.3,79.6,326.4,78.5,328z"/>
	<polygon class="st0" points="297.8,178.3 309.6,178.3 315.5,168.1 309.6,157.9 297.8,157.9 291.9,168.1 	"/>
	<polyline class="st0" points="296.1,200.7 290.2,190.5 278.5,190.5 	"/>
	<polygon class="st0" points="280,168.1 291.8,168.1 297.7,157.9 291.8,147.7 280,147.7 274.1,157.9 	"/>
	<polygon class="st0" points="297.8,157.9 309.6,157.9 315.5,147.7 309.6,137.5 297.8,137.5 291.9,147.7 	"/>
	<circle class="st1" cx="297.7" cy="157.9" r="1.6"/>
	<circle class="st1" cx="273.1" cy="136.5" r="1.6"/>
	<path class="st1" d="M294.5,200.7c0-0.9,0.7-1.6,1.6-1.6c0.9,0,1.6,0.7,1.6,1.6c0,0.9-0.7,1.6-1.6,1.6l0,0
		C295.2,202.3,294.5,201.6,294.5,200.7z"/>
	<circle class="st1" cx="278.5" cy="190.5" r="1.6"/>
	<path class="st1" d="M326.9,148c0-0.9,0.7-1.6,1.6-1.6s1.6,0.7,1.6,1.6c0,0.9-0.7,1.6-1.6,1.6c0,0,0,0,0,0
		C327.6,149.6,326.9,148.9,326.9,148C326.9,148,326.9,148,326.9,148z"/>
	<circle class="st1" cx="290.1" cy="190.5" r="1.6"/>
	<path class="st1" d="M313.9,148c0-0.9,0.7-1.6,1.6-1.6c0.9,0,1.6,0.7,1.6,1.6c0,0.9-0.7,1.6-1.6,1.6l0,0
		C314.6,149.6,313.9,148.9,313.9,148z"/>
	<path class="st1" d="M296.1,178.3c0-0.9,0.7-1.6,1.6-1.6c0.9,0,1.6,0.7,1.6,1.6c0,0.9-0.7,1.6-1.6,1.6c0,0,0,0,0,0
		C296.8,179.9,296.1,179.2,296.1,178.3z"/>
	<line class="st0" x1="315.5" y1="148" x2="328.5" y2="148"/>
	<line class="st0" x1="297.7" y1="178.3" x2="290.1" y2="190.5"/>
	<line class="st0" x1="280" y1="147.7" x2="273.1" y2="136.5"/>
	<path class="st0" d="M363.6,107.5c3.4-11.6,15.6-18.2,27.1-14.7c7.4,2.2,13.1,8.2,15,15.7"/>
	<path class="st0" d="M382,135.3c-11-1.3-19.3-10.6-19.3-21.7"/>
	<path class="st0" d="M406.3,113.7c0,12-9.8,21.8-21.8,21.8"/>
	<path class="st0" d="M407.5,99.8c6.8-0.9,11.4-0.4,12.1,1.6c1.4,4.1-13.2,12.8-32.6,19.6s-36.3,8.9-37.7,4.8
		c-0.8-2.2,3.1-5.7,9.8-9.5"/>
	<polygon class="st0" points="290.1,84.9 292.2,89.1 296.9,89.8 293.5,93.1 294.3,97.8 290.1,95.6 285.9,97.8 286.7,93.1 
		283.4,89.8 288,89.1 	"/>
	<path class="st0" d="M142.5,73.6c0,7.8-6.3,14.2-14.2,14.2c-0.5,0-0.9,0-1.3-0.1c-7.8-0.7-13.5-7.7-12.8-15.5s7.7-13.5,15.5-12.8
		C136.9,60.2,142.5,66.3,142.5,73.6L142.5,73.6z"/>
	<path class="st0" d="M140.2,76.2c0,1.2-1,2.2-2.2,2.2c-1.2,0-2.2-1-2.2-2.2c0-1.2,1-2.2,2.2-2.2c0,0,0,0,0,0
		C139.2,74,140.2,75,140.2,76.2z"/>
	<path class="st0" d="M120.4,81.8c0,1.1-0.5,2.1-1.3,2.7c-1.9-1.5-3.3-3.5-4.2-5.8c0.6-0.3,1.2-0.5,1.8-0.5
		C118.8,78.2,120.4,79.7,120.4,81.8C120.4,81.7,120.4,81.8,120.4,81.8z"/>
	<path class="st0" d="M138,84c-2.6,2.5-6.1,3.9-9.7,3.9c-0.5,0-0.9,0-1.3-0.1c-0.1-0.4-0.1-0.8-0.1-1.2c0-3.3,2.6-5.9,5.9-5.9
		C135,80.7,137,82,138,84z"/>
	<circle class="st0" cx="124.8" cy="64.7" r="3.3"/>
	<path class="st0" d="M127.9,74c0,0.8-0.7,1.5-1.5,1.5c-0.8,0-1.5-0.7-1.5-1.5c0-0.8,0.7-1.5,1.5-1.5S127.9,73.2,127.9,74
		C127.9,74,127.9,74,127.9,74z"/>
	<path class="st0" d="M139.8,65.3c-0.4,0.1-0.8,0.2-1.2,0.2c-2.3,0-4.2-1.9-4.2-4.1c0,0,0,0,0,0c0-0.2,0-0.3,0-0.5
		C136.6,61.9,138.4,63.4,139.8,65.3z"/>
	<path class="st0" d="M465.9,238.3l1.5-3.4l-2.5-1.4c0.1-0.6,0.1-1.2,0-1.8l2.5-1.2l-1.4-3.5l-2.7,0.8c-0.4-0.5-0.8-0.9-1.3-1.3
		l0.9-2.7l-3.4-1.5l-1.4,2.5c-0.6-0.1-1.2-0.1-1.8,0l-1.2-2.5l-3.5,1.4l0.8,2.7c-0.5,0.4-0.9,0.8-1.3,1.3l-2.7-0.9l-1.5,3.4l2.5,1.4
		c-0.1,0.6-0.1,1.2,0,1.8l-2.5,1.2l1.4,3.5l2.7-0.8c0.4,0.5,0.8,0.9,1.3,1.3l-0.9,2.7l3.4,1.5l1.4-2.5c0.6,0.1,1.2,0.1,1.8,0.1
		l1.2,2.6l3.5-1.4l-0.8-2.7c0.5-0.4,0.9-0.8,1.3-1.3L465.9,238.3z M455.4,236.4c-2.2-1-3.2-3.6-2.2-5.8c1-2.2,3.6-3.2,5.8-2.2
		c2.2,1,3.2,3.6,2.2,5.8C460.2,236.4,457.6,237.3,455.4,236.4z"/>
	<path class="st0" d="M447.6,255.9l2.1-4.7l-3.4-1.9c0.1-0.8,0.1-1.7,0.1-2.5l3.5-1.7l-1.8-4.8l-3.7,1.1c-0.5-0.7-1.1-1.3-1.7-1.8
		l1.3-3.6l-4.7-2.1l-1.9,3.4c-0.8-0.1-1.7-0.1-2.5-0.1l-1.7-3.4l-4.8,1.8l1.1,3.7c-0.7,0.5-1.3,1.1-1.8,1.7l-3.6-1.2l-2.1,4.7
		l3.4,1.9c-0.1,0.8-0.1,1.7-0.1,2.5l-3.5,1.7l1.8,4.8l3.7-1.1c0.5,0.7,1.1,1.3,1.7,1.8l-1.3,3.6l4.7,2.1l1.9-3.4
		c0.8,0.1,1.7,0.1,2.5,0.1l1.7,3.5l4.8-1.8l-1.1-3.7c0.7-0.5,1.3-1.1,1.8-1.7L447.6,255.9z M433.4,253.3c-3-1.3-4.3-4.8-3-7.8
		c1.3-3,4.8-4.3,7.8-3c3,1.3,4.3,4.8,3,7.8c0,0,0,0,0,0C439.9,253.3,436.4,254.7,433.4,253.3C433.4,253.3,433.4,253.3,433.4,253.3z"
		/>
</g>
</svg>
