<?xml version="1.0" encoding="utf-8"?>
<!-- Generator: Adobe Illustrator 21.1.0, SVG Export Plug-In . SVG Version: 6.00 Build 0)  -->
<svg version="1.1" id="Layer_1" xmlns="http://www.w3.org/2000/svg" xmlns:xlink="http://www.w3.org/1999/xlink" x="0px" y="0px"
	 viewBox="0 0 512 630" style="enable-background:new 0 0 512 630;" xml:space="preserve">
<style type="text/css">
	.st0{display:none;fill:url(#SVGID_1_);}
	.st1{display:none;fill:#FDD65B;}
	.st2{display:none;fill:url(#SVGID_2_);}
	.st3{display:none;opacity:0.1;}
	.st4{display:inline;opacity:0.1;fill:url(#SVGID_3_);enable-background:new    ;}
	.st5{display:inline;opacity:0.1;fill:url(#SVGID_4_);enable-background:new    ;}
	.st6{display:inline;opacity:0.1;fill:url(#SVGID_5_);enable-background:new    ;}
	.st7{display:none;fill:url(#SVGID_6_);}
	.st8{display:none;fill:url(#SVGID_7_);}
	.st9{display:none;fill:url(#SVGID_8_);}
	.st10{display:none;fill:url(#SVGID_9_);}
	.st11{display:inline;opacity:0.1;fill:url(#SVGID_10_);enable-background:new    ;}
	.st12{display:inline;opacity:0.1;fill:url(#SVGID_11_);enable-background:new    ;}
	.st13{display:inline;opacity:0.1;fill:url(#SVGID_12_);enable-background:new    ;}
	.st14{display:none;fill:url(#SVGID_13_);}
	.st15{display:none;fill:url(#SVGID_14_);}
	.st16{display:none;fill:url(#SVGID_15_);}
	.st17{display:none;fill:url(#SVGID_16_);}
	.st18{display:none;fill:url(#SVGID_17_);}
	.st19{display:none;fill:url(#SVGID_18_);}
	.st20{display:none;fill:url(#SVGID_19_);}
	.st21{display:none;fill:url(#SVGID_20_);}
	.st22{display:none;fill:url(#SVGID_21_);}
	.st23{display:none;fill:url(#SVGID_22_);}
	.st24{display:none;fill:url(#SVGID_23_);}
	.st25{display:none;fill:url(#SVGID_24_);}
	.st26{display:none;fill:url(#SVGID_25_);}
	.st27{display:none;fill:url(#SVGID_26_);}
	.st28{display:inline;opacity:0.1;fill:url(#SVGID_27_);enable-background:new    ;}
	.st29{display:inline;opacity:0.1;fill:url(#SVGID_28_);enable-background:new    ;}
	.st30{display:inline;opacity:0.1;fill:url(#SVGID_29_);enable-background:new    ;}
	.st31{display:none;fill:url(#SVGID_30_);}
	.st32{display:none;fill:url(#SVGID_31_);}
	.st33{display:none;fill:url(#SVGID_32_);}
	.st34{display:none;fill:url(#SVGID_33_);}
	.st35{display:none;fill:url(#SVGID_34_);}
	.st36{display:none;fill:url(#SVGID_35_);}
	.st37{display:none;opacity:0.8;}
	.st38{display:inline;opacity:0.6;fill:#FFFFFF;enable-background:new    ;}
	.st39{display:inline;opacity:0.8;fill:#FFFFFF;enable-background:new    ;}
	.st40{display:inline;opacity:0.3;fill:#FFFFFF;enable-background:new    ;}
	.st41{display:inline;opacity:0.15;fill:#FFFFFF;enable-background:new    ;}
	.st42{display:inline;opacity:0.5;fill:#FFFFFF;enable-background:new    ;}
	.st43{display:none;fill:url(#SVGID_36_);}
	.st44{display:none;fill:url(#SVGID_37_);}
	.st45{display:none;fill:url(#SVGID_38_);}
	.st46{display:none;fill:url(#SVGID_39_);}
	.st47{display:none;fill:url(#SVGID_40_);}
	.st48{display:none;fill:url(#SVGID_41_);}
	.st49{display:none;fill:url(#SVGID_42_);}
	.st50{display:none;fill:url(#SVGID_43_);}
	.st51{display:none;fill:url(#SVGID_44_);}
	.st52{display:none;fill:url(#SVGID_45_);}
	.st53{display:none;fill:url(#SVGID_46_);}
	.st54{display:none;fill:url(#SVGID_47_);}
	.st55{display:none;fill:url(#SVGID_48_);}
	.st56{display:none;fill:url(#SVGID_49_);}
	.st57{display:none;fill:url(#SVGID_50_);}
	.st58{display:none;fill:url(#SVGID_51_);}
	.st59{display:none;fill:url(#SVGID_52_);}
	.st60{display:none;fill:url(#SVGID_53_);}
	.st61{display:none;fill:url(#SVGID_54_);}
	.st62{display:none;fill:#EBDEF3;}
	.st63{display:none;fill:url(#SVGID_55_);}
	.st64{display:none;fill:url(#SVGID_56_);}
	.st65{display:none;fill:url(#SVGID_57_);}
	.st66{display:none;fill:url(#SVGID_58_);}
	.st67{display:none;fill:url(#SVGID_59_);}
	.st68{display:none;fill:url(#SVGID_60_);}
	.st69{display:none;fill:url(#SVGID_61_);}
	.st70{display:none;fill:url(#SVGID_62_);}
	.st71{display:none;fill:url(#SVGID_63_);}
	.st72{display:none;fill:url(#SVGID_64_);}
	.st73{display:none;fill:url(#SVGID_65_);}
	.st74{display:none;fill:url(#SVGID_66_);}
	.st75{display:none;fill:url(#SVGID_67_);}
	.st76{display:none;fill:url(#SVGID_68_);}
	.st77{display:none;fill:url(#SVGID_69_);}
	.st78{display:none;fill:url(#SVGID_70_);}
	.st79{display:none;opacity:0.2;}
	.st80{display:inline;opacity:9.090900e-02;enable-background:new    ;}
	.st81{display:inline;opacity:0.1818;enable-background:new    ;}
	.st82{display:inline;opacity:0.2727;enable-background:new    ;}
	.st83{display:inline;opacity:0.3636;enable-background:new    ;}
	.st84{display:inline;opacity:0.4545;enable-background:new    ;}
	.st85{display:inline;opacity:0.5455;enable-background:new    ;}
	.st86{display:inline;opacity:0.6364;enable-background:new    ;}
	.st87{display:inline;opacity:0.7273;enable-background:new    ;}
	.st88{display:inline;opacity:0.8182;enable-background:new    ;}
	.st89{display:inline;opacity:0.9091;enable-background:new    ;}
	.st90{display:inline;opacity:0.2;enable-background:new    ;}
	.st91{display:none;fill:#A9A8C6;}
	.st92{display:none;fill:#E1DFEA;}
	.st93{display:none;fill:url(#SVGID_71_);}
	.st94{display:none;fill:#7C7CA0;}
	.st95{display:none;opacity:0.27;fill:#FFFFFF;enable-background:new    ;}
	.st96{display:none;fill:#095448;}
	.st97{fill:#4A998C;}
	.st98{fill:#FFFFFF;}
	.st99{fill:#FFCD8B;}
	.st100{fill:#EBDEF3;}
	.st101{fill:#34766B;}
	.st102{opacity:0.27;fill:#FFFFFF;enable-background:new    ;}
	.st103{display:none;fill:url(#SVGID_72_);}
	.st104{display:none;fill:url(#SVGID_73_);}
	.st105{display:none;fill:url(#SVGID_74_);}
	.st106{display:none;fill:url(#SVGID_75_);}
	.st107{display:none;fill:url(#SVGID_76_);}
	.st108{display:none;fill:url(#SVGID_77_);}
	.st109{display:none;fill:url(#SVGID_78_);}
	.st110{display:none;fill:url(#SVGID_79_);}
	.st111{display:none;fill:#36CF98;}
	.st112{display:none;fill:url(#SVGID_80_);}
	.st113{display:none;fill:url(#SVGID_81_);}
	.st114{display:none;fill:url(#SVGID_82_);}
	.st115{display:none;fill:#1F825E;}
	.st116{display:none;fill:url(#SVGID_83_);}
	.st117{display:none;fill:url(#SVGID_84_);}
	.st118{display:none;fill:url(#SVGID_85_);}
	.st119{display:none;fill:#17533D;}
</style>
<linearGradient id="SVGID_1_" gradientUnits="userSpaceOnUse" x1="399.5668" y1="469.9428" x2="394.9838" y2="422.9388" gradientTransform="matrix(1 0 0 1 0 -160)">
	<stop  offset="3.535350e-02" style="stop-color:#FFBA78"/>
	<stop  offset="0.395" style="stop-color:#FFC987"/>
	<stop  offset="1" style="stop-color:#FEECA8"/>
</linearGradient>
<path class="st0" d="M430.1,294.3V289l-8.9,2.3l-9.6-1.8c-1.1-0.2-2-0.6-2.3-1.5l-5-9.9c-0.9-1.6-4.4-1.9-6.1-0.6l-9.8,8.4
	c-0.6,0.5-1.7,0.8-2.9,0.8l-17-0.2c0,0,0,0-0.2,0l-3.4-3.6v5.5c0,0.5,0.2,1,0.6,1.5l10.1,8.2c0.6,0.5,0.9,1.3,0.5,1.9l-3.1,5.5
	l-2.4-0.5v5.2c0,0.2,0,0.3,0,0.5v0.2c0.3,1.1,2.3,2.1,4.4,1.6l16-3.2c1.1-0.2,2.3-0.2,3.2,0.3l13.6,6.1c2.3,1,5.5,0,5.5-1.6
	l-0.3-10.3c0-0.6,0.5-1.3,1.4-1.8l13.7-6C429.8,295.7,430.2,294.9,430.1,294.3z"/>
<path class="st1" d="M408.4,314.6l-13.6-6.1c-0.9-0.5-2.1-0.5-3.2-0.3l-16,3.2c-2.1,0.5-4.1-0.5-4.4-1.6v0.5c0,0.2,0,0.3,0,0.5v0.2
	c0.3,1.1,2.3,2.1,4.4,1.6l16-3.2c1.1-0.2,2.3-0.2,3.2,0.3l13.6,6.1c2.3,1,5.5,0,5.5-1.6v-1C413.7,314.8,410.5,315.8,408.4,314.6z"/>
<path class="st1" d="M376.8,298.9c0.3-0.6,0.2-1.3-0.6-1.8l-10.1-8.2c-0.5-0.5-0.8-1-0.6-1.5v1.1c0,0.5,0.2,1,0.6,1.5l10.1,8.2
	C376.5,298.5,376.6,298.6,376.8,298.9z"/>
<path class="st1" d="M428.7,295.1l-13.7,6c-0.9,0.3-1.5,1-1.4,1.8v1c0-0.6,0.6-1.3,1.4-1.6l13.7-6c1.1-0.5,1.5-1.1,1.4-1.9v-1.1
	C430.2,293.8,429.8,294.6,428.7,295.1z"/>
<linearGradient id="SVGID_2_" gradientUnits="userSpaceOnUse" x1="414.271" y1="427.359" x2="382.626" y2="464.336" gradientTransform="matrix(1 0 0 1 0 -160)">
	<stop  offset="3.535350e-02" style="stop-color:#FFBA78"/>
	<stop  offset="0.395" style="stop-color:#FFC987"/>
	<stop  offset="1" style="stop-color:#FEECA8"/>
</linearGradient>
<path class="st2" d="M411.6,283.9l16.2,3.1c2.8,0.5,3.2,2.7,0.9,3.7l-13.7,6c-0.9,0.3-1.5,1-1.4,1.8l0.3,10.3c0,1.8-3.2,2.7-5.5,1.6
	l-13.6-6.1c-0.9-0.5-2.1-0.5-3.2-0.3l-16,3.2c-2.8,0.5-5.2-1-4.3-2.6l5.3-9.7c0.3-0.6,0.2-1.3-0.5-1.9l-10.1-8.2
	c-1.7-1.5,0-3.4,2.8-3.4l17,0.2c1.1,0,2.1-0.3,2.9-0.8l9.8-8.4c1.7-1.5,5.2-1.1,6.1,0.6l5,9.9C409.8,283.1,410.5,283.6,411.6,283.9z
	"/>
<g class="st3">
	
		<linearGradient id="SVGID_3_" gradientUnits="userSpaceOnUse" x1="371.469" y1="460.0058" x2="370.004" y2="444.9798" gradientTransform="matrix(1 0 0 1 0 -160)">
		<stop  offset="3.535350e-02" style="stop-color:#FFA98C"/>
		<stop  offset="0.3169" style="stop-color:#FFB892"/>
		<stop  offset="0.8601" style="stop-color:#FEE1A3"/>
		<stop  offset="1" style="stop-color:#FEECA8"/>
	</linearGradient>
	<path class="st4" d="M376.8,301.7c0.3-0.6,0.2-1.3-0.5-1.9l-10.1-8.2c-0.5-0.5-0.8-1-0.6-1.5l-0.2-0.2v3.1c0,0.5,0.2,1,0.6,1.5
		l9.2,7.4L376.8,301.7z"/>
	
		<linearGradient id="SVGID_4_" gradientUnits="userSpaceOnUse" x1="392.8579" y1="480.2848" x2="391.457" y2="465.9138" gradientTransform="matrix(1 0 0 1 0 -160)">
		<stop  offset="3.535350e-02" style="stop-color:#FFA98C"/>
		<stop  offset="0.3169" style="stop-color:#FFB892"/>
		<stop  offset="0.8601" style="stop-color:#FEE1A3"/>
		<stop  offset="1" style="stop-color:#FEECA8"/>
	</linearGradient>
	<path class="st5" d="M408.4,317.4l-13.6-6.1c-0.9-0.5-2.1-0.5-3.2-0.3l-16,3.2c-2.3,0.5-4.4-0.6-4.4-1.9v2.7c0,0.2,0,0.3,0,0.5v0.2
		c0.3,1.1,2.3,2.1,4.4,1.6l16-3.2c1.1-0.2,2.3-0.2,3.2,0.3l13.6,6.1c2.3,1,5.5,0,5.5-1.6l-0.2-2.4
		C413.1,317.5,410.4,318.2,408.4,317.4z"/>
	
		<linearGradient id="SVGID_5_" gradientUnits="userSpaceOnUse" x1="422.3462" y1="465.1372" x2="421.2212" y2="453.5991" gradientTransform="matrix(1 0 0 1 0 -160)">
		<stop  offset="3.535350e-02" style="stop-color:#FFA98C"/>
		<stop  offset="0.3169" style="stop-color:#FFB892"/>
		<stop  offset="0.8601" style="stop-color:#FEE1A3"/>
		<stop  offset="1" style="stop-color:#FEECA8"/>
	</linearGradient>
	<path class="st6" d="M428.7,297.7l-13.7,6c-0.9,0.3-1.5,1-1.4,1.8l0.2,2.4c0.2-0.5,0.6-0.8,1.4-1.1l13.7-6c1.1-0.5,1.5-1.1,1.4-1.9
		v-2.6C430.1,296.8,429.6,297.3,428.7,297.7z"/>
</g>
<linearGradient id="SVGID_6_" gradientUnits="userSpaceOnUse" x1="399.5698" y1="463.2735" x2="394.9868" y2="416.2695" gradientTransform="matrix(1 0 0 1 0 -160)">
	<stop  offset="3.535350e-02" style="stop-color:#FFBA78"/>
	<stop  offset="0.395" style="stop-color:#FFC987"/>
	<stop  offset="1" style="stop-color:#FEECA8"/>
</linearGradient>
<path class="st7" d="M430.1,287.5v-5.2l-8.9,2.3l-9.6-1.8c-1.1-0.2-2-0.6-2.3-1.5l-5-9.9c-0.9-1.6-4.4-1.9-6.1-0.6l-9.8,8.4
	c-0.6,0.5-1.7,0.8-2.9,0.8l-17-0.2c0,0,0,0-0.2,0l-3.4-3.6v5.5c0,0.5,0.2,1,0.6,1.5l10.1,8.2c0.6,0.5,0.9,1.3,0.5,1.9l-3.1,5.5
	l-2.4-0.5v5.2c0,0.2,0,0.3,0,0.5v0.2c0.3,1.1,2.3,2.1,4.4,1.6l16-3.2c1.1-0.2,2.3-0.2,3.2,0.3l13.6,6.1c2.3,1,5.5,0,5.5-1.6
	l-0.3-10.3c0-0.6,0.5-1.3,1.4-1.8l13.7-6C429.8,288.9,430.2,288.3,430.1,287.5z"/>
<path class="st1" d="M408.4,308l-13.6-6.1c-0.9-0.5-2.1-0.5-3.2-0.3l-16,3.2c-2.1,0.5-4.1-0.5-4.4-1.6v0.5c0,0.2,0,0.3,0,0.5v0.2
	c0.3,1.1,2.3,2.1,4.4,1.6l16-3.2c1.1-0.2,2.3-0.2,3.2,0.3l13.6,6.1c2.3,1,5.5,0,5.5-1.6v-1C413.7,308.2,410.5,309,408.4,308z"/>
<path class="st1" d="M428.7,288.3l-13.7,6c-0.9,0.3-1.5,1-1.4,1.8v1c0-0.6,0.6-1.3,1.4-1.6l13.7-6c1.1-0.5,1.5-1.1,1.4-1.9v-1.1
	C430.2,287.1,429.8,287.8,428.7,288.3z"/>
<linearGradient id="SVGID_7_" gradientUnits="userSpaceOnUse" x1="414.2062" y1="420.6347" x2="382.5612" y2="457.6117" gradientTransform="matrix(1 0 0 1 0 -160)">
	<stop  offset="3.535350e-02" style="stop-color:#FFBA78"/>
	<stop  offset="0.395" style="stop-color:#FFC987"/>
	<stop  offset="1" style="stop-color:#FEECA8"/>
</linearGradient>
<path class="st8" d="M411.6,277.1l16.2,3.1c2.8,0.5,3.2,2.7,0.9,3.7l-13.7,6c-0.9,0.3-1.5,1-1.4,1.8l0.3,10.3c0,1.8-3.2,2.7-5.5,1.6
	l-13.6-6.1c-0.9-0.5-2.1-0.5-3.2-0.3l-16,3.2c-2.8,0.5-5.2-1-4.3-2.6l5.3-9.7c0.3-0.6,0.2-1.3-0.5-1.9L366,278
	c-1.7-1.5,0-3.4,2.8-3.4l17,0.2c1.1,0,2.1-0.3,2.9-0.8l9.8-8.4c1.7-1.5,5.2-1.1,6.1,0.6l5,9.9C409.8,276.5,410.5,277,411.6,277.1z"
	/>
<linearGradient id="SVGID_8_" gradientUnits="userSpaceOnUse" x1="450.2658" y1="488.5328" x2="445.6828" y2="441.5288" gradientTransform="matrix(1 0 0 1 0 -160)">
	<stop  offset="3.535350e-02" style="stop-color:#FFBA78"/>
	<stop  offset="0.395" style="stop-color:#FFC987"/>
	<stop  offset="1" style="stop-color:#FEECA8"/>
</linearGradient>
<path class="st9" d="M480.8,312.9v-5.3l-8.9,2.3l-9.6-1.8c-1.1-0.2-2-0.6-2.3-1.5l-5-9.9c-0.9-1.6-4.4-1.9-6.1-0.6l-9.8,8.4
	c-0.6,0.5-1.7,0.8-2.9,0.8l-17-0.2c0,0,0,0-0.2,0l-3.4-3.6v5.5c0,0.5,0.2,1,0.6,1.5l10.1,8.2c0.6,0.5,0.9,1.3,0.5,1.9l-3.1,5.5
	l-2.4-0.5v5.2c0,0.2,0,0.3,0,0.5v0.2c0.3,1.1,2.3,2.1,4.4,1.6l16-3.2c1.1-0.2,2.3-0.2,3.2,0.3l13.6,6.1c2.3,1,5.5,0,5.5-1.6
	l-0.3-10.3c0-0.6,0.5-1.3,1.4-1.8l13.7-6C480.5,314.3,481,313.5,480.8,312.9z"/>
<path class="st1" d="M459.1,333.2l-13.6-6.1c-0.9-0.5-2.1-0.5-3.2-0.3l-16,3.2c-2.1,0.5-4.1-0.5-4.4-1.6v0.5c0,0.2,0,0.3,0,0.5v0.2
	c0.3,1.1,2.3,2.1,4.4,1.6l16-3.2c1.1-0.2,2.3-0.2,3.2,0.3l13.6,6.1c2.3,1,5.5,0,5.5-1.6v-1C464.3,333.4,461.2,334.4,459.1,333.2z"/>
<path class="st1" d="M427.3,317.5c0.3-0.6,0.2-1.3-0.6-1.8l-10.1-8.2c-0.5-0.5-0.8-1-0.6-1.5v1.1c0,0.5,0.2,1,0.6,1.5l10.1,8.2
	C427.2,317.1,427.3,317.2,427.3,317.5z"/>
<path class="st1" d="M479.4,313.7l-13.8,6c-0.9,0.3-1.5,1-1.4,1.8v1c0-0.6,0.6-1.3,1.4-1.6l13.8-6c1.1-0.5,1.5-1.1,1.4-1.9v-1.1
	C481,312.4,480.5,313.2,479.4,313.7z"/>
<linearGradient id="SVGID_9_" gradientUnits="userSpaceOnUse" x1="464.9618" y1="445.9708" x2="433.3158" y2="482.9477" gradientTransform="matrix(1 0 0 1 0 -160)">
	<stop  offset="3.535350e-02" style="stop-color:#FFBA78"/>
	<stop  offset="0.395" style="stop-color:#FFC987"/>
	<stop  offset="1" style="stop-color:#FEECA8"/>
</linearGradient>
<path class="st10" d="M462.3,302.5l16.2,3.1c2.7,0.5,3.2,2.7,0.9,3.7l-13.7,6c-0.9,0.3-1.5,1-1.4,1.8l0.3,10.3
	c0,1.8-3.2,2.7-5.5,1.6l-13.6-6.1c-0.9-0.5-2.1-0.5-3.2-0.3l-16,3.2c-2.8,0.5-5.2-1-4.3-2.6l5.3-9.7c0.3-0.6,0.2-1.3-0.5-1.9
	l-10.1-8.2c-1.7-1.5,0-3.4,2.8-3.4l17,0.2c1.1,0,2.1-0.3,2.9-0.8l9.8-8.4c1.7-1.5,5.2-1.1,6.1,0.6l5,9.9
	C460.3,301.7,461.2,302.2,462.3,302.5z"/>
<g class="st3">
	
		<linearGradient id="SVGID_10_" gradientUnits="userSpaceOnUse" x1="421.9699" y1="478.6151" x2="420.5049" y2="463.5891" gradientTransform="matrix(1 0 0 1 0 -160)">
		<stop  offset="3.535350e-02" style="stop-color:#FFA98C"/>
		<stop  offset="0.3169" style="stop-color:#FFB892"/>
		<stop  offset="0.8601" style="stop-color:#FEE1A3"/>
		<stop  offset="1" style="stop-color:#FEECA8"/>
	</linearGradient>
	<path class="st11" d="M427.3,320.3c0.3-0.6,0.2-1.3-0.5-1.9l-10.1-8.2c-0.5-0.5-0.8-1-0.6-1.5l-0.2-0.2v3.1c0,0.5,0.2,1,0.6,1.5
		l9.2,7.4L427.3,320.3z"/>
	
		<linearGradient id="SVGID_11_" gradientUnits="userSpaceOnUse" x1="443.5573" y1="498.8748" x2="442.1553" y2="484.5038" gradientTransform="matrix(1 0 0 1 0 -160)">
		<stop  offset="3.535350e-02" style="stop-color:#FFA98C"/>
		<stop  offset="0.3169" style="stop-color:#FFB892"/>
		<stop  offset="0.8601" style="stop-color:#FEE1A3"/>
		<stop  offset="1" style="stop-color:#FEECA8"/>
	</linearGradient>
	<path class="st12" d="M459.1,336l-13.6-6.1c-0.9-0.5-2.1-0.5-3.2-0.3l-16,3.2c-2.3,0.5-4.4-0.6-4.4-1.9v2.7c0,0.2,0,0.3,0,0.5v0.2
		c0.3,1.1,2.3,2.1,4.4,1.6l16-3.2c1.1-0.2,2.3-0.2,3.2,0.3l13.6,6.1c2.3,1,5.5,0,5.5-1.6l-0.2-2.4
		C463.7,336.1,461.1,336.8,459.1,336z"/>
	
		<linearGradient id="SVGID_12_" gradientUnits="userSpaceOnUse" x1="472.9558" y1="483.736" x2="471.8308" y2="472.199" gradientTransform="matrix(1 0 0 1 0 -160)">
		<stop  offset="3.535350e-02" style="stop-color:#FFA98C"/>
		<stop  offset="0.3169" style="stop-color:#FFB892"/>
		<stop  offset="0.8601" style="stop-color:#FEE1A3"/>
		<stop  offset="1" style="stop-color:#FEECA8"/>
	</linearGradient>
	<path class="st13" d="M479.4,316.2l-13.8,6c-0.9,0.3-1.5,1-1.4,1.8l0.2,2.4c0.2-0.5,0.6-0.8,1.4-1.1l13.7-6
		c1.1-0.5,1.5-1.1,1.4-1.9v-2.6C480.6,315.4,480.3,315.9,479.4,316.2z"/>
</g>
<linearGradient id="SVGID_13_" gradientUnits="userSpaceOnUse" x1="450.2786" y1="482.0636" x2="445.6956" y2="435.0606" gradientTransform="matrix(1 0 0 1 0 -160)">
	<stop  offset="3.535350e-02" style="stop-color:#FFBA78"/>
	<stop  offset="0.395" style="stop-color:#FFC987"/>
	<stop  offset="1" style="stop-color:#FEECA8"/>
</linearGradient>
<path class="st14" d="M480.8,306.4V301l-8.9,2.3l-9.6-1.8c-1.1-0.2-2-0.6-2.3-1.5l-5-9.9c-0.9-1.6-4.4-1.9-6.1-0.6l-9.8,8.4
	c-0.6,0.5-1.7,0.8-2.9,0.8l-17-0.2c0,0,0,0-0.2,0l-3.4-3.6v5.5c0,0.5,0.2,1,0.6,1.5l10.1,8.2c0.6,0.5,0.9,1.3,0.5,1.9l-3.1,5.5
	l-2.4-0.5v5.2c0,0.2,0,0.3,0,0.5v0.2c0.3,1.1,2.3,2.1,4.4,1.6l16-3.2c1.1-0.2,2.3-0.2,3.2,0.3l13.6,6.1c2.3,1,5.5,0,5.5-1.6
	l-0.3-10.3c0-0.6,0.5-1.3,1.4-1.8l13.7-6C480.5,307.8,481,307,480.8,306.4z"/>
<path class="st1" d="M459.1,326.8l-13.6-6.1c-0.9-0.5-2.1-0.5-3.2-0.3l-16,3.2c-2.1,0.5-4.1-0.5-4.4-1.6v0.5c0,0.2,0,0.3,0,0.5v0.2
	c0.3,1.1,2.3,2.1,4.4,1.6l16-3.2c1.1-0.2,2.3-0.2,3.2,0.3l13.6,6.1c2.3,1,5.5,0,5.5-1.6v-1C464.3,326.9,461.2,327.9,459.1,326.8z"/>
<path class="st1" d="M427.3,311.1c0.3-0.6,0.2-1.3-0.6-1.8l-10.1-8.2c-0.5-0.5-0.8-1-0.6-1.5v1.1c0,0.5,0.2,1,0.6,1.5l10.1,8.2
	C427.2,310.6,427.3,310.7,427.3,311.1z"/>
<path class="st1" d="M479.4,307.2l-13.8,6c-0.9,0.3-1.5,1-1.4,1.8v1c0-0.6,0.6-1.3,1.4-1.6l13.8-6c1.1-0.5,1.5-1.1,1.4-1.9v-1.1
	C481,305.9,480.5,306.7,479.4,307.2z"/>
<linearGradient id="SVGID_14_" gradientUnits="userSpaceOnUse" x1="464.9456" y1="439.4889" x2="433.2996" y2="476.4669" gradientTransform="matrix(1 0 0 1 0 -160)">
	<stop  offset="3.535350e-02" style="stop-color:#FFBA78"/>
	<stop  offset="0.395" style="stop-color:#FFC987"/>
	<stop  offset="1" style="stop-color:#FEECA8"/>
</linearGradient>
<path class="st15" d="M462.3,296l16.2,3.1c2.7,0.5,3.2,2.7,0.9,3.7l-13.7,6c-0.9,0.3-1.5,1-1.4,1.8l0.3,10.3c0,1.8-3.2,2.7-5.5,1.6
	l-13.6-6.1c-0.9-0.5-2.1-0.5-3.2-0.3l-16,3.2c-2.8,0.5-5.2-1-4.3-2.6l5.3-9.7c0.3-0.6,0.2-1.3-0.5-1.9l-10.1-8.2
	c-1.7-1.5,0-3.4,2.8-3.4l17,0.2c1.1,0,2.1-0.3,2.9-0.8l9.8-8.4c1.7-1.5,5.2-1.1,6.1,0.6l5,9.9C460.3,295.2,461.2,295.7,462.3,296z"
	/>
<linearGradient id="SVGID_15_" gradientUnits="userSpaceOnUse" x1="450.2721" y1="475.5972" x2="445.6891" y2="428.5932" gradientTransform="matrix(1 0 0 1 0 -160)">
	<stop  offset="3.535350e-02" style="stop-color:#FFBA78"/>
	<stop  offset="0.395" style="stop-color:#FFC987"/>
	<stop  offset="1" style="stop-color:#FEECA8"/>
</linearGradient>
<path class="st16" d="M480.8,299.9v-5.3l-8.9,2.3l-9.6-1.8c-1.1-0.2-2-0.6-2.3-1.5l-5-9.9c-0.9-1.6-4.4-1.9-6.1-0.6l-9.8,8.4
	c-0.6,0.5-1.7,0.8-2.9,0.8l-17-0.2c0,0,0,0-0.2,0l-3.4-3.6v5.5c0,0.5,0.2,1,0.6,1.5l10.1,8.2c0.6,0.5,0.9,1.3,0.5,1.9l-3.1,5.5
	l-2.4-0.5v5.2c0,0.2,0,0.3,0,0.5v0.2c0.3,1.1,2.3,2.1,4.4,1.6l16-3.2c1.1-0.2,2.3-0.2,3.2,0.3l13.6,6.1c2.3,1,5.5,0,5.5-1.6
	l-0.3-10.3c0-0.6,0.5-1.3,1.4-1.8l13.7-6C480.5,301.4,481,300.6,480.8,299.9z"/>
<path class="st1" d="M459.1,320.3l-13.6-6.1c-0.9-0.5-2.1-0.5-3.2-0.3l-16,3.2c-2.1,0.5-4.1-0.5-4.4-1.6v0.5c0,0.2,0,0.3,0,0.5v0.2
	c0.3,1.1,2.3,2.1,4.4,1.6l16-3.2c1.1-0.2,2.3-0.2,3.2,0.3l13.6,6.1c2.3,1,5.5,0,5.5-1.6v-1C464.3,320.5,461.2,321.4,459.1,320.3z"/>
<path class="st1" d="M427.3,304.6c0.3-0.6,0.2-1.3-0.6-1.8l-10.1-8.2c-0.5-0.5-0.8-1-0.6-1.5v1.1c0,0.5,0.2,1,0.6,1.5l10.1,8.2
	C427.2,304.1,427.3,304.3,427.3,304.6z"/>
<path class="st1" d="M479.4,300.7l-13.8,6c-0.9,0.3-1.5,1-1.4,1.8v1c0-0.6,0.6-1.3,1.4-1.6l13.8-6c1.1-0.5,1.5-1.1,1.4-1.9v-1.1
	C481,299.4,480.5,300.2,479.4,300.7z"/>
<linearGradient id="SVGID_16_" gradientUnits="userSpaceOnUse" x1="464.9785" y1="433.0511" x2="433.3325" y2="470.0281" gradientTransform="matrix(1 0 0 1 0 -160)">
	<stop  offset="3.535350e-02" style="stop-color:#FFBA78"/>
	<stop  offset="0.395" style="stop-color:#FFC987"/>
	<stop  offset="1" style="stop-color:#FEECA8"/>
</linearGradient>
<path class="st17" d="M462.3,289.6l16.2,3.1c2.7,0.5,3.2,2.7,0.9,3.7l-13.7,6c-0.9,0.3-1.5,1-1.4,1.8l0.3,10.3
	c0,1.8-3.2,2.7-5.5,1.6l-13.6-6.1c-0.9-0.5-2.1-0.5-3.2-0.3l-16,3.2c-2.8,0.5-5.2-1-4.3-2.6l5.3-9.7c0.3-0.6,0.2-1.3-0.5-1.9
	l-10.1-8.2c-1.7-1.5,0-3.4,2.8-3.4l17,0.2c1.1,0,2.1-0.3,2.9-0.8l9.8-8.4c1.7-1.5,5.2-1.1,6.1,0.6l5,9.9
	C460.3,288.8,461.2,289.2,462.3,289.6z"/>
<linearGradient id="SVGID_17_" gradientUnits="userSpaceOnUse" x1="450.2753" y1="469.1299" x2="445.6923" y2="422.1269" gradientTransform="matrix(1 0 0 1 0 -160)">
	<stop  offset="3.535350e-02" style="stop-color:#FFBA78"/>
	<stop  offset="0.395" style="stop-color:#FFC987"/>
	<stop  offset="1" style="stop-color:#FEECA8"/>
</linearGradient>
<path class="st18" d="M480.8,293.4v-5.3l-8.9,2.3l-9.6-1.8c-1.1-0.2-2-0.6-2.3-1.5l-5-9.9c-0.9-1.6-4.4-1.9-6.1-0.6l-9.8,8.4
	c-0.6,0.5-1.7,0.8-2.9,0.8l-17-0.2c0,0,0,0-0.2,0l-3.4-3.6v5.5c0,0.5,0.2,1,0.6,1.5l10.1,8.2c0.6,0.5,0.9,1.3,0.5,1.9l-3.1,5.5
	l-2.4-0.5v5.2c0,0.2,0,0.3,0,0.5v0.2c0.3,1.1,2.3,2.1,4.4,1.6l16-3.2c1.1-0.2,2.3-0.2,3.2,0.3l13.6,6.1c2.3,1,5.5,0,5.5-1.6
	l-0.3-10.3c0-0.6,0.5-1.3,1.4-1.8l13.7-6C480.5,294.9,481,294.1,480.8,293.4z"/>
<path class="st1" d="M459.1,313.8l-13.6-6.1c-0.9-0.5-2.1-0.5-3.2-0.3l-16,3.2c-2.1,0.5-4.1-0.5-4.4-1.6v0.5c0,0.2,0,0.3,0,0.5v0.2
	c0.3,1.1,2.3,2.1,4.4,1.6l16-3.2c1.1-0.2,2.3-0.2,3.2,0.3l13.6,6.1c2.3,1,5.5,0,5.5-1.6v-1C464.3,314,461.2,315,459.1,313.8z"/>
<path class="st1" d="M427.3,298.1c0.3-0.6,0.2-1.3-0.6-1.8l-10.1-8.2c-0.5-0.5-0.8-1-0.6-1.5v1.1c0,0.5,0.2,1,0.6,1.5l10.1,8.2
	C427.2,297.7,427.3,297.8,427.3,298.1z"/>
<path class="st1" d="M479.4,294.3l-13.8,6c-0.9,0.3-1.5,1-1.4,1.8v1c0-0.6,0.6-1.3,1.4-1.6l13.8-6c1.1-0.5,1.5-1.1,1.4-1.9v-1.1
	C481,293,480.5,293.8,479.4,294.3z"/>
<linearGradient id="SVGID_18_" gradientUnits="userSpaceOnUse" x1="464.9623" y1="426.5701" x2="433.3163" y2="463.5471" gradientTransform="matrix(1 0 0 1 0 -160)">
	<stop  offset="3.535350e-02" style="stop-color:#FFBA78"/>
	<stop  offset="0.395" style="stop-color:#FFC987"/>
	<stop  offset="1" style="stop-color:#FEECA8"/>
</linearGradient>
<path class="st19" d="M462.3,283.1l16.2,3.1c2.7,0.5,3.2,2.7,0.9,3.7l-13.7,6c-0.9,0.3-1.5,1-1.4,1.8l0.3,10.3
	c0,1.8-3.2,2.7-5.5,1.6l-13.6-6.1c-0.9-0.5-2.1-0.5-3.2-0.3l-16,3.2c-2.8,0.5-5.2-1-4.3-2.6l5.3-9.7c0.3-0.6,0.2-1.3-0.5-1.9
	l-10.1-8.2c-1.7-1.5,0-3.4,2.8-3.4l17,0.2c1.1,0,2.1-0.3,2.9-0.8l9.8-8.4c1.7-1.5,5.2-1.1,6.1,0.6l5,9.9
	C460.3,282.3,461.2,282.8,462.3,283.1z"/>
<linearGradient id="SVGID_19_" gradientUnits="userSpaceOnUse" x1="450.27" y1="462.6754" x2="445.687" y2="415.6714" gradientTransform="matrix(1 0 0 1 0 -160)">
	<stop  offset="3.535350e-02" style="stop-color:#FFBA78"/>
	<stop  offset="0.395" style="stop-color:#FFC987"/>
	<stop  offset="1" style="stop-color:#FEECA8"/>
</linearGradient>
<path class="st20" d="M480.8,287v-5.3l-8.9,2.3l-9.6-1.8c-1.1-0.2-2-0.6-2.3-1.5l-5-9.9c-0.9-1.6-4.4-1.9-6.1-0.6l-9.8,8.4
	c-0.6,0.5-1.7,0.8-2.9,0.8l-17-0.2c0,0,0,0-0.2,0l-3.4-3.6v5.5c0,0.5,0.2,1,0.6,1.5l10.1,8.2c0.6,0.5,0.9,1.3,0.5,1.9l-3.1,5.5
	l-2.4-0.5v5.2c0,0.2,0,0.3,0,0.5v0.2c0.3,1.1,2.3,2.1,4.4,1.6l16-3.2c1.1-0.2,2.3-0.2,3.2,0.3l13.6,6.1c2.3,1,5.5,0,5.5-1.6
	l-0.3-10.3c0-0.6,0.5-1.3,1.4-1.8l13.7-6C480.5,288.4,481,287.6,480.8,287z"/>
<path class="st1" d="M459.1,307.4l-13.6-6.1c-0.9-0.5-2.1-0.5-3.2-0.3l-16,3.2c-2.1,0.5-4.1-0.5-4.4-1.6v0.5c0,0.2,0,0.3,0,0.5v0.2
	c0.3,1.1,2.3,2.1,4.4,1.6l16-3.2c1.1-0.2,2.3-0.2,3.2,0.3l13.6,6.1c2.3,1,5.5,0,5.5-1.6v-1C464.3,307.5,461.2,308.5,459.1,307.4z"/>
<path class="st1" d="M427.3,291.7c0.3-0.6,0.2-1.3-0.6-1.8l-10.1-8.2c-0.5-0.5-0.8-1-0.6-1.5v1.1c0,0.5,0.2,1,0.6,1.5l10.1,8.2
	C427.2,291.2,427.3,291.3,427.3,291.7z"/>
<path class="st1" d="M479.4,287.8l-13.8,6c-0.9,0.3-1.5,1-1.4,1.8v1c0-0.6,0.6-1.3,1.4-1.6l13.8-6c1.1-0.5,1.5-1.1,1.4-1.9V286
	C481,286.5,480.5,287.3,479.4,287.8z"/>
<linearGradient id="SVGID_20_" gradientUnits="userSpaceOnUse" x1="464.9405" y1="420.0956" x2="433.2945" y2="457.0726" gradientTransform="matrix(1 0 0 1 0 -160)">
	<stop  offset="3.535350e-02" style="stop-color:#FFBA78"/>
	<stop  offset="0.395" style="stop-color:#FFC987"/>
	<stop  offset="1" style="stop-color:#FEECA8"/>
</linearGradient>
<path class="st21" d="M462.3,276.6l16.2,3.1c2.7,0.5,3.2,2.7,0.9,3.7l-13.7,6c-0.9,0.3-1.5,1-1.4,1.8l0.3,10.3
	c0,1.8-3.2,2.7-5.5,1.6l-13.6-6.1c-0.9-0.5-2.1-0.5-3.2-0.3l-16,3.2c-2.8,0.5-5.2-1-4.3-2.6l5.3-9.7c0.3-0.6,0.2-1.3-0.5-1.9
	l-10.1-8.2c-1.7-1.5,0-3.4,2.8-3.4l17,0.2c1.1,0,2.1-0.3,2.9-0.8l9.8-8.4c1.7-1.5,5.2-1.1,6.1,0.6l5,9.9
	C460.3,275.8,461.2,276.5,462.3,276.6z"/>
<linearGradient id="SVGID_21_" gradientUnits="userSpaceOnUse" x1="450.2825" y1="456.0042" x2="445.6994" y2="409.0002" gradientTransform="matrix(1 0 0 1 0 -160)">
	<stop  offset="3.535350e-02" style="stop-color:#FFBA78"/>
	<stop  offset="0.395" style="stop-color:#FFC987"/>
	<stop  offset="1" style="stop-color:#FEECA8"/>
</linearGradient>
<path class="st22" d="M480.8,280.2v-5.3l-8.9,2.3l-9.6-1.8c-1.1-0.2-2-0.6-2.3-1.5l-5-9.9c-0.9-1.6-4.4-1.9-6.1-0.6l-9.8,8.4
	c-0.6,0.5-1.7,0.8-2.9,0.8l-17-0.2c0,0,0,0-0.2,0l-3.4-3.6v5.5c0,0.5,0.2,1,0.6,1.5l10.1,8.2c0.6,0.5,0.9,1.3,0.5,1.9l-3.1,5.5
	l-2.4-0.5v5.2c0,0.2,0,0.3,0,0.5v0.2c0.3,1.1,2.3,2.1,4.4,1.6l16-3.2c1.1-0.2,2.3-0.2,3.2,0.3l13.6,6.1c2.3,1,5.5,0,5.5-1.6
	l-0.3-10.3c0-0.6,0.5-1.3,1.4-1.8l13.7-6C480.5,281.6,481,281,480.8,280.2z"/>
<path class="st1" d="M459.1,300.7l-13.6-6.1c-0.9-0.5-2.1-0.5-3.2-0.3l-16,3.2c-2.1,0.5-4.1-0.5-4.4-1.6v0.5c0,0.2,0,0.3,0,0.5v0.2
	c0.3,1.1,2.3,2.1,4.4,1.6l16-3.2c1.1-0.2,2.3-0.2,3.2,0.3l13.6,6.1c2.3,1,5.5,0,5.5-1.6v-1C464.3,300.9,461.2,301.7,459.1,300.7z"/>
<path class="st1" d="M427.3,285c0.3-0.6,0.2-1.3-0.6-1.8l-10.1-8.2c-0.5-0.5-0.8-1-0.6-1.5v1.1c0,0.5,0.2,1,0.6,1.5l10.1,8.2
	C427.2,284.6,427.3,284.7,427.3,285z"/>
<path class="st1" d="M479.4,281l-13.8,6c-0.9,0.3-1.5,1-1.4,1.8v1c0-0.6,0.6-1.3,1.4-1.6l13.8-6c1.1-0.5,1.5-1.1,1.4-1.9v-1.1
	C481,279.9,480.5,280.7,479.4,281z"/>
<linearGradient id="SVGID_22_" gradientUnits="userSpaceOnUse" x1="464.9751" y1="413.4551" x2="433.3291" y2="450.4321" gradientTransform="matrix(1 0 0 1 0 -160)">
	<stop  offset="3.535350e-02" style="stop-color:#FFBA78"/>
	<stop  offset="0.395" style="stop-color:#FFC987"/>
	<stop  offset="1" style="stop-color:#FEECA8"/>
</linearGradient>
<path class="st23" d="M462.3,270l16.2,3.1c2.7,0.5,3.2,2.7,0.9,3.7l-13.7,6c-0.9,0.3-1.5,1-1.4,1.8l0.3,10.3c0,1.8-3.2,2.7-5.5,1.6
	l-13.6-6.1c-0.9-0.5-2.1-0.5-3.2-0.3l-16,3.2c-2.8,0.5-5.2-1-4.3-2.6l5.3-9.7c0.3-0.6,0.2-1.3-0.5-1.9l-10.1-8.2
	c-1.7-1.5,0-3.4,2.8-3.4l17,0.2c1.1,0,2.1-0.3,2.9-0.8l9.8-8.4c1.7-1.5,5.2-1.1,6.1,0.6l5,9.9C460.3,269.2,461.2,269.7,462.3,270z"
	/>
<linearGradient id="SVGID_23_" gradientUnits="userSpaceOnUse" x1="450.2846" y1="449.526" x2="445.7016" y2="402.5219" gradientTransform="matrix(1 0 0 1 0 -160)">
	<stop  offset="3.535350e-02" style="stop-color:#FFBA78"/>
	<stop  offset="0.395" style="stop-color:#FFC987"/>
	<stop  offset="1" style="stop-color:#FEECA8"/>
</linearGradient>
<path class="st24" d="M480.8,273.7v-5.3l-8.9,2.3l-9.6-1.8c-1.1-0.2-2-0.6-2.3-1.5l-5-9.9c-0.9-1.6-4.4-1.9-6.1-0.6l-9.8,8.4
	c-0.6,0.5-1.7,0.8-2.9,0.8l-17-0.2c0,0,0,0-0.2,0l-3.4-3.6v5.5c0,0.5,0.2,1,0.6,1.5l10.1,8.2c0.6,0.5,0.9,1.3,0.5,1.9l-3.1,5.5
	l-2.4-0.5v5.2c0,0.2,0,0.3,0,0.5v0.2c0.3,1.1,2.3,2.1,4.4,1.6l16-3.2c1.1-0.2,2.3-0.2,3.2,0.3l13.6,6.1c2.3,1,5.5,0,5.5-1.6
	l-0.3-10.3c0-0.6,0.5-1.3,1.4-1.8l13.7-6C480.5,275.2,481,274.5,480.8,273.7z"/>
<path class="st1" d="M459.1,294.3l-13.6-6.1c-0.9-0.5-2.1-0.5-3.2-0.3l-16,3.2c-2.1,0.5-4.1-0.5-4.4-1.6v0.5c0,0.2,0,0.3,0,0.5v0.2
	c0.3,1.1,2.3,2.1,4.4,1.6l16-3.2c1.1-0.2,2.3-0.2,3.2,0.3l13.6,6.1c2.3,1,5.5,0,5.5-1.6v-1C464.3,294.4,461.2,295.2,459.1,294.3z"/>
<path class="st1" d="M427.3,278.6c0.3-0.6,0.2-1.3-0.6-1.8l-10.1-8.2c-0.5-0.5-0.8-1-0.6-1.5v1.1c0,0.5,0.2,1,0.6,1.5l10.1,8.2
	C427.2,278.1,427.3,278.3,427.3,278.6z"/>
<path class="st1" d="M479.4,274.5l-13.8,6c-0.9,0.3-1.5,1-1.4,1.8v1c0-0.6,0.6-1.3,1.4-1.6l13.8-6c1.1-0.5,1.5-1.1,1.4-1.9v-1.1
	C481,273.4,480.5,274,479.4,274.5z"/>
<linearGradient id="SVGID_24_" gradientUnits="userSpaceOnUse" x1="464.9147" y1="406.9255" x2="433.2689" y2="443.9025" gradientTransform="matrix(1 0 0 1 0 -160)">
	<stop  offset="3.535350e-02" style="stop-color:#FFBA78"/>
	<stop  offset="0.395" style="stop-color:#FFC987"/>
	<stop  offset="1" style="stop-color:#FEECA8"/>
</linearGradient>
<path class="st25" d="M462.3,263.4l16.2,3.1c2.7,0.5,3.2,2.7,0.9,3.7l-13.7,6c-0.9,0.3-1.5,1-1.4,1.8l0.3,10.3
	c0,1.8-3.2,2.7-5.5,1.6l-13.6-6.1c-0.9-0.5-2.1-0.5-3.2-0.3l-16,3.2c-2.8,0.5-5.2-1-4.3-2.6l5.3-9.7c0.3-0.6,0.2-1.3-0.5-1.9
	l-10.1-8.2c-1.7-1.5,0-3.4,2.8-3.4l17,0.2c1.1,0,2.1-0.3,2.9-0.8l9.8-8.4c1.7-1.5,5.2-1.1,6.1,0.6l5,9.9
	C460.3,262.7,461.2,263.2,462.3,263.4z"/>
<linearGradient id="SVGID_25_" gradientUnits="userSpaceOnUse" x1="480.8771" y1="522.7492" x2="476.2942" y2="475.7452" gradientTransform="matrix(1 0 0 1 0 -160)">
	<stop  offset="3.535350e-02" style="stop-color:#FFBA78"/>
	<stop  offset="0.395" style="stop-color:#FFC987"/>
	<stop  offset="1" style="stop-color:#FEECA8"/>
</linearGradient>
<path class="st26" d="M511.4,347v-5.3l-8.9,2.3l-9.6-1.8c-1.1-0.2-2-0.6-2.3-1.5l-5-9.9c-0.9-1.6-4.4-1.9-6.1-0.6l-9.8,8.4
	c-0.6,0.5-1.7,0.8-2.9,0.8l-17-0.2c0,0,0,0-0.2,0l-3.4-3.6v5.5c0,0.5,0.2,1,0.6,1.5l10.1,8.2c0.6,0.5,0.9,1.3,0.5,1.9l-3.1,5.5
	l-2.4-0.5v5.2c0,0.2,0,0.3,0,0.5v0.2c0.3,1.1,2.3,2.1,4.4,1.6l16-3.2c1.1-0.2,2.3-0.2,3.2,0.3l13.6,6.1c2.3,1,5.5,0,5.5-1.6
	l-0.3-10.3c0-0.6,0.5-1.3,1.4-1.8l13.7-6C511,348.4,511.5,347.8,511.4,347z"/>
<path class="st1" d="M489.7,367.5l-13.6-6.1c-0.9-0.5-2.1-0.5-3.2-0.3l-16,3.2c-2.1,0.5-4.1-0.5-4.4-1.6v0.5c0,0.2,0,0.3,0,0.5v0.2
	c0.3,1.1,2.3,2.1,4.4,1.6l16-3.2c1.1-0.2,2.3-0.2,3.2,0.3l13.6,6.1c2.3,1,5.5,0,5.5-1.6v-1C494.9,367.7,491.8,368.5,489.7,367.5z"/>
<path class="st1" d="M457.9,351.8c0.3-0.6,0.2-1.3-0.6-1.8l-10.1-8.2c-0.5-0.5-0.8-1-0.6-1.5v1.1c0,0.5,0.2,1,0.6,1.5l10.1,8.2
	C457.7,351.3,457.9,351.5,457.9,351.8z"/>
<path class="st1" d="M510,347.8l-13.8,6c-0.9,0.3-1.5,1-1.4,1.8v1c0-0.6,0.6-1.3,1.4-1.6l13.8-6c1.1-0.5,1.5-1.1,1.4-1.9V346
	C511.5,346.6,511,347.3,510,347.8z"/>
<linearGradient id="SVGID_26_" gradientUnits="userSpaceOnUse" x1="495.4813" y1="480.164" x2="463.8362" y2="517.141" gradientTransform="matrix(1 0 0 1 0 -160)">
	<stop  offset="3.535350e-02" style="stop-color:#FFBA78"/>
	<stop  offset="0.395" style="stop-color:#FFC987"/>
	<stop  offset="1" style="stop-color:#FEECA8"/>
</linearGradient>
<path class="st27" d="M492.9,336.6l16.2,3.1c2.8,0.5,3.2,2.7,0.9,3.7l-13.7,6c-0.9,0.3-1.5,1-1.4,1.8l0.3,10.3
	c0,1.8-3.2,2.7-5.5,1.6l-13.6-6.1c-0.9-0.5-2.1-0.5-3.2-0.3l-16,3.2c-2.8,0.5-5.2-1-4.3-2.6l5.3-9.7c0.3-0.6,0.2-1.3-0.5-1.9
	l-10.1-8.2c-1.7-1.5,0-3.4,2.8-3.4l17,0.2c1.1,0,2.1-0.3,2.9-0.8l9.8-8.4c1.7-1.5,5.2-1.1,6.1,0.6l5,9.9
	C490.9,336,491.8,336.5,492.9,336.6z"/>
<g class="st3">
	
		<linearGradient id="SVGID_27_" gradientUnits="userSpaceOnUse" x1="452.5619" y1="512.8334" x2="451.0969" y2="497.8074" gradientTransform="matrix(1 0 0 1 0 -160)">
		<stop  offset="3.535350e-02" style="stop-color:#FFA98C"/>
		<stop  offset="0.3169" style="stop-color:#FFB892"/>
		<stop  offset="0.8601" style="stop-color:#FEE1A3"/>
		<stop  offset="1" style="stop-color:#FEECA8"/>
	</linearGradient>
	<path class="st28" d="M457.9,354.6c0.3-0.6,0.2-1.3-0.5-1.9l-10.1-8.2c-0.5-0.5-0.8-1-0.6-1.5l-0.2-0.2v3.1c0,0.5,0.2,1,0.6,1.5
		l9.2,7.4L457.9,354.6z"/>
	
		<linearGradient id="SVGID_28_" gradientUnits="userSpaceOnUse" x1="474.1682" y1="533.0901" x2="472.7672" y2="518.7201" gradientTransform="matrix(1 0 0 1 0 -160)">
		<stop  offset="3.535350e-02" style="stop-color:#FFA98C"/>
		<stop  offset="0.3169" style="stop-color:#FFB892"/>
		<stop  offset="0.8601" style="stop-color:#FEE1A3"/>
		<stop  offset="1" style="stop-color:#FEECA8"/>
	</linearGradient>
	<path class="st29" d="M489.7,370.1l-13.6-6.1c-0.9-0.5-2.1-0.5-3.2-0.3l-16,3.2c-2.3,0.5-4.4-0.6-4.4-1.9v2.7c0,0.2,0,0.3,0,0.5
		v0.2c0.3,1.1,2.3,2.1,4.4,1.6l16-3.2c1.1-0.2,2.3-0.2,3.2,0.3l13.6,6.1c2.3,1,5.5,0,5.5-1.6l-0.2-2.4
		C494.2,370.4,491.6,371.1,489.7,370.1z"/>
	
		<linearGradient id="SVGID_29_" gradientUnits="userSpaceOnUse" x1="503.6469" y1="517.9445" x2="502.5219" y2="506.4065" gradientTransform="matrix(1 0 0 1 0 -160)">
		<stop  offset="3.535350e-02" style="stop-color:#FFA98C"/>
		<stop  offset="0.3169" style="stop-color:#FFB892"/>
		<stop  offset="0.8601" style="stop-color:#FEE1A3"/>
		<stop  offset="1" style="stop-color:#FEECA8"/>
	</linearGradient>
	<path class="st30" d="M510,350.5l-13.7,6c-0.9,0.3-1.5,1-1.4,1.8l0.2,2.4c0.2-0.5,0.6-0.8,1.4-1.1l13.7-6c1.1-0.5,1.5-1.1,1.4-1.9
		v-2.6C511.2,349.6,510.9,350,510,350.5z"/>
</g>
<linearGradient id="SVGID_30_" gradientUnits="userSpaceOnUse" x1="480.8803" y1="516.2819" x2="476.2973" y2="469.2779" gradientTransform="matrix(1 0 0 1 0 -160)">
	<stop  offset="3.535350e-02" style="stop-color:#FFBA78"/>
	<stop  offset="0.395" style="stop-color:#FFC987"/>
	<stop  offset="1" style="stop-color:#FEECA8"/>
</linearGradient>
<path class="st31" d="M511.4,340.5v-5.3l-8.9,2.3l-9.6-1.8c-1.1-0.2-2-0.6-2.3-1.5l-5-9.9c-0.9-1.6-4.4-1.9-6.1-0.6l-9.8,8.4
	c-0.6,0.5-1.7,0.8-2.9,0.8l-17-0.2c0,0,0,0-0.2,0l-3.4-3.6v5.5c0,0.5,0.2,1,0.6,1.5l10.1,8.2c0.6,0.5,0.9,1.3,0.5,1.9l-3.1,5.5
	l-2.4-0.5v5.2c0,0.2,0,0.3,0,0.5v0.2c0.3,1.1,2.3,2.1,4.4,1.6l16-3.2c1.1-0.2,2.3-0.2,3.2,0.3l13.6,6.1c2.3,1,5.5,0,5.5-1.6
	l-0.3-10.3c0-0.6,0.5-1.3,1.4-1.8l13.7-6C511,342,511.5,341.3,511.4,340.5z"/>
<path class="st1" d="M489.7,361l-13.6-6.1c-0.9-0.5-2.1-0.5-3.2-0.3l-16,3.2c-2.1,0.5-4.1-0.5-4.4-1.6v0.5c0,0.2,0,0.3,0,0.5v0.2
	c0.3,1.1,2.3,2.1,4.4,1.6l16-3.2c1.1-0.2,2.3-0.2,3.2,0.3l13.6,6.1c2.3,1,5.5,0,5.5-1.6v-1C494.9,361.2,491.8,362,489.7,361z"/>
<path class="st1" d="M457.9,345.3c0.3-0.6,0.2-1.3-0.6-1.8l-10.1-8.2c-0.5-0.5-0.8-1-0.6-1.5v1.1c0,0.5,0.2,1,0.6,1.5l10.1,8.2
	C457.7,344.9,457.9,345,457.9,345.3z"/>
<path class="st1" d="M510,341.3l-13.8,6c-0.9,0.3-1.5,1-1.4,1.8v1c0-0.6,0.6-1.3,1.4-1.6l13.8-6c1.1-0.5,1.5-1.1,1.4-1.9v-1.1
	C511.5,340.2,511,340.8,510,341.3z"/>
<linearGradient id="SVGID_31_" gradientUnits="userSpaceOnUse" x1="495.5143" y1="473.7253" x2="463.8692" y2="510.7023" gradientTransform="matrix(1 0 0 1 0 -160)">
	<stop  offset="3.535350e-02" style="stop-color:#FFBA78"/>
	<stop  offset="0.395" style="stop-color:#FFC987"/>
	<stop  offset="1" style="stop-color:#FEECA8"/>
</linearGradient>
<path class="st32" d="M492.9,330.2l16.2,3.1c2.8,0.5,3.2,2.7,0.9,3.7l-13.7,6c-0.9,0.3-1.5,1-1.4,1.8l0.3,10.3
	c0,1.8-3.2,2.7-5.5,1.6l-13.6-6.1c-0.9-0.5-2.1-0.5-3.2-0.3l-16,3.2c-2.8,0.5-5.2-1-4.3-2.6l5.3-9.7c0.3-0.6,0.2-1.3-0.5-1.9
	l-10.1-8.2c-1.7-1.5,0-3.4,2.8-3.4l17,0.2c1.1,0,2.1-0.3,2.9-0.8l9.8-8.4c1.7-1.5,5.2-1.1,6.1,0.6l5,9.9
	C490.9,329.5,491.8,330,492.9,330.2z"/>
<linearGradient id="SVGID_32_" gradientUnits="userSpaceOnUse" x1="480.8835" y1="509.8146" x2="476.3006" y2="462.8106" gradientTransform="matrix(1 0 0 1 0 -160)">
	<stop  offset="3.535350e-02" style="stop-color:#FFBA78"/>
	<stop  offset="0.395" style="stop-color:#FFC987"/>
	<stop  offset="1" style="stop-color:#FEECA8"/>
</linearGradient>
<path class="st33" d="M511.4,334v-5.3l-8.9,2.3l-9.6-1.8c-1.1-0.2-2-0.6-2.3-1.5l-5-9.9c-0.9-1.6-4.4-1.9-6.1-0.6l-9.8,8.4
	c-0.6,0.5-1.7,0.8-2.9,0.8l-17-0.2c0,0,0,0-0.2,0l-3.4-3.6v5.5c0,0.5,0.2,1,0.6,1.5l10.1,8.2c0.6,0.5,0.9,1.3,0.5,1.9l-3.1,5.5
	l-2.4-0.5v5.2c0,0.2,0,0.3,0,0.5v0.2c0.3,1.1,2.3,2.1,4.4,1.6l16-3.2c1.1-0.2,2.3-0.2,3.2,0.3l13.6,6.1c2.3,1,5.5,0,5.5-1.6
	l-0.3-10.3c0-0.6,0.5-1.3,1.4-1.8l13.7-6C511,335.5,511.5,334.8,511.4,334z"/>
<path class="st1" d="M489.7,354.6l-13.6-6.1c-0.9-0.5-2.1-0.5-3.2-0.3l-16,3.2c-2.1,0.5-4.1-0.5-4.4-1.6v0.5c0,0.2,0,0.3,0,0.5v0.2
	c0.3,1.1,2.3,2.1,4.4,1.6l16-3.2c1.1-0.2,2.3-0.2,3.2,0.3l13.6,6.1c2.3,1,5.5,0,5.5-1.6v-1C494.9,354.7,491.8,355.5,489.7,354.6z"/>
<path class="st1" d="M457.9,338.9c0.3-0.6,0.2-1.3-0.6-1.8l-10.1-8.2c-0.5-0.5-0.8-1-0.6-1.5v1.1c0,0.5,0.2,1,0.6,1.5l10.1,8.2
	C457.7,338.4,457.9,338.6,457.9,338.9z"/>
<path class="st1" d="M510,334.8l-13.8,6c-0.9,0.3-1.5,1-1.4,1.8v1c0-0.6,0.6-1.3,1.4-1.6l13.8-6c1.1-0.5,1.5-1.1,1.4-1.9V333
	C511.5,333.7,511,334.4,510,334.8z"/>
<linearGradient id="SVGID_33_" gradientUnits="userSpaceOnUse" x1="495.4984" y1="467.2448" x2="463.8524" y2="504.2218" gradientTransform="matrix(1 0 0 1 0 -160)">
	<stop  offset="3.535350e-02" style="stop-color:#FFBA78"/>
	<stop  offset="0.395" style="stop-color:#FFC987"/>
	<stop  offset="1" style="stop-color:#FEECA8"/>
</linearGradient>
<path class="st34" d="M492.9,323.7l16.2,3.1c2.8,0.5,3.2,2.7,0.9,3.7l-13.7,6c-0.9,0.3-1.5,1-1.4,1.8l0.3,10.3
	c0,1.8-3.2,2.7-5.5,1.6l-13.6-6.1c-0.9-0.5-2.1-0.5-3.2-0.3l-16,3.2c-2.8,0.5-5.2-1-4.3-2.6l5.3-9.7c0.3-0.6,0.2-1.3-0.5-1.9
	l-10.1-8.2c-1.7-1.5,0-3.4,2.8-3.4l17,0.2c1.1,0,2.1-0.3,2.9-0.8l9.8-8.4c1.7-1.5,5.2-1.1,6.1,0.6l5,9.9
	C490.9,323,491.8,323.5,492.9,323.7z"/>
<linearGradient id="SVGID_34_" gradientUnits="userSpaceOnUse" x1="480.8768" y1="503.1452" x2="476.2938" y2="456.1412" gradientTransform="matrix(1 0 0 1 0 -160)">
	<stop  offset="3.535350e-02" style="stop-color:#FFBA78"/>
	<stop  offset="0.395" style="stop-color:#FFC987"/>
	<stop  offset="1" style="stop-color:#FEECA8"/>
</linearGradient>
<path class="st35" d="M511.4,327.4v-5.3l-8.9,2.3l-9.6-1.8c-1.1-0.2-2-0.6-2.3-1.5l-5-9.9c-0.9-1.6-4.4-1.9-6.1-0.6l-9.8,8.4
	c-0.6,0.5-1.7,0.8-2.9,0.8l-17-0.2c0,0,0,0-0.2,0l-3.4-3.6v5.5c0,0.5,0.2,1,0.6,1.5l10.1,8.2c0.6,0.5,0.9,1.3,0.5,1.9l-3.1,5.5
	l-2.4-0.5v5.2c0,0.2,0,0.3,0,0.5v0.2c0.3,1.1,2.3,2.1,4.4,1.6l16-3.2c1.1-0.2,2.3-0.2,3.2,0.3l13.6,6.1c2.3,1,5.5,0,5.5-1.6
	l-0.3-10.3c0-0.6,0.5-1.3,1.4-1.8l13.7-6C511,328.9,511.5,328,511.4,327.4z"/>
<path class="st1" d="M489.7,347.9l-13.6-6.1c-0.9-0.5-2.1-0.5-3.2-0.3l-16,3.2c-2.1,0.5-4.1-0.5-4.4-1.6v0.5c0,0.2,0,0.3,0,0.5v0.2
	c0.3,1.1,2.3,2.1,4.4,1.6l16-3.2c1.1-0.2,2.3-0.2,3.2,0.3l13.6,6.1c2.3,1,5.5,0,5.5-1.6v-1C494.9,347.9,491.8,348.9,489.7,347.9z"/>
<path class="st1" d="M457.9,332.1c0.3-0.6,0.2-1.3-0.6-1.8l-10.1-8.2c-0.5-0.5-0.8-1-0.6-1.5v1.1c0,0.5,0.2,1,0.6,1.5l10.1,8.2
	C457.7,331.6,457.9,331.9,457.9,332.1z"/>
<path class="st1" d="M510,328.2l-13.8,6c-0.9,0.3-1.5,1-1.4,1.8v1c0-0.6,0.6-1.3,1.4-1.6l13.8-6c1.1-0.5,1.5-1.1,1.4-1.9v-1.1
	C511.5,327.1,511,327.7,510,328.2z"/>
<linearGradient id="SVGID_35_" gradientUnits="userSpaceOnUse" x1="495.5326" y1="460.604" x2="463.8866" y2="497.582" gradientTransform="matrix(1 0 0 1 0 -160)">
	<stop  offset="3.535350e-02" style="stop-color:#FFBA78"/>
	<stop  offset="0.395" style="stop-color:#FFC987"/>
	<stop  offset="1" style="stop-color:#FEECA8"/>
</linearGradient>
<path class="st36" d="M492.9,317.1l16.2,3.1c2.8,0.5,3.2,2.7,0.9,3.7l-13.7,6c-0.9,0.3-1.5,1-1.4,1.8l0.3,10.3
	c0,1.8-3.2,2.7-5.5,1.6l-13.6-6.1c-0.9-0.5-2.1-0.5-3.2-0.3l-16,3.2c-2.8,0.5-5.2-1-4.3-2.6l5.3-9.7c0.3-0.6,0.2-1.3-0.5-1.9
	l-10.1-8.2c-1.7-1.5,0-3.4,2.8-3.4l17,0.2c1.1,0,2.1-0.3,2.9-0.8l9.8-8.4c1.7-1.5,5.2-1.1,6.1,0.6l5,9.9
	C490.9,316.4,491.8,316.9,492.9,317.1z"/>
<g class="st37">
	<path class="st38" d="M365.1,344.7l10.9,6.8l5.5-3.2l-11.2-6.8L365.1,344.7z"/>
	<path class="st39" d="M373.3,339.7l11.2,6.8l6-3.7l-11.2-6.8L373.3,339.7z"/>
	<path class="st40" d="M348.4,355l11.2,6.8l4.2-2.6l-11.2-6.8L348.4,355z"/>
	<path class="st41" d="M342.7,358.4l11.2,6.8l2.2-1.3l-11.2-6.6L342.7,358.4z"/>
	<path class="st42" d="M356.6,350l11.2,6.6l4.7-2.9l-10.9-6.8L356.6,350z"/>
	<path class="st39" d="M372.5,328.4l30.1,18.4l5.7-21.8L372.5,328.4z"/>
</g>
<linearGradient id="SVGID_36_" gradientUnits="userSpaceOnUse" x1="5.7" y1="403.3267" x2="221.1" y2="403.3267" gradientTransform="matrix(1 0 0 1 0 -160)">
	<stop  offset="0" style="stop-color:#5FACB1"/>
	<stop  offset="1" style="stop-color:#2B7C56"/>
</linearGradient>
<path class="st43" d="M208.6,384.2L17.9,267.3c-6.7-4.2-12.2-15-12.2-24.5V112.3c0-9.5,5.5-13.9,12.2-9.7l191,116.6
	c6.7,4.2,12.2,15,12.2,24.5v130.5C220.8,383.9,215.4,388.1,208.6,384.2z"/>
<linearGradient id="SVGID_37_" gradientUnits="userSpaceOnUse" x1="165.473" y1="495.65" x2="193.444" y2="495.65" gradientTransform="matrix(1 0 0 1 0 -160)">
	<stop  offset="3.535350e-02" style="stop-color:#9F19AB"/>
	<stop  offset="0.2438" style="stop-color:#AE25B1"/>
	<stop  offset="0.6455" style="stop-color:#D744BF"/>
	<stop  offset="1" style="stop-color:#FF63CE"/>
</linearGradient>
<path class="st44" d="M193.5,344.2c0,9.5-6.2,13.2-13.9,8.4c-7.7-4.7-13.9-16.1-13.9-25.5c0-9.5,6.2-13.2,13.9-8.4
	C187.3,323.4,193.5,334.7,193.5,344.2z"/>
<linearGradient id="SVGID_38_" gradientUnits="userSpaceOnUse" x1="183.108" y1="506.45" x2="211.078" y2="506.45" gradientTransform="matrix(1 0 0 1 0 -160)">
	<stop  offset="3.535350e-02" style="stop-color:#FFA98C"/>
	<stop  offset="0.3169" style="stop-color:#FFB892"/>
	<stop  offset="0.8601" style="stop-color:#FEE1A3"/>
	<stop  offset="1" style="stop-color:#FEECA8"/>
</linearGradient>
<path class="st45" d="M211.1,355c0,9.5-6.2,13.2-13.9,8.4c-7.7-4.7-13.9-16.1-13.9-25.5c0-9.5,6.2-13.2,13.9-8.4
	C204.9,334.2,211.1,345.5,211.1,355z"/>
<radialGradient id="SVGID_39_" cx="-82.8771" cy="23.3301" r="0.9995" gradientTransform="matrix(6.4802 0 0 6.8581 562.2498 42.3087)" gradientUnits="userSpaceOnUse">
	<stop  offset="0" style="stop-color:#FFFFFF"/>
	<stop  offset="1" style="stop-color:#000000"/>
</radialGradient>
<path class="st46" d="M24.6,200.7l2.5,1.6c0.5,0.3,0.7,0.5,1,1.3c0.5,0.8,0.5,1.3,0.5,1.8v4.2c0,0.5,0,1.1-0.2,1.3
	c-0.2,0.3-0.7,0.3-1.2,0l-3-1.8c-0.2-0.3-0.5-0.5-1-0.8l-0.5-0.8c-0.2-0.5-0.7-0.8-0.7-1.6c0-0.5,0.2-0.8,0.7-0.5
	c0.2,0,0.2,0.3,0.5,0.5l0.5,0.5c0.2,0.3,0.5,0.8,0.7,0.8l3.2,1.8v-4.7l-4-2.4v-8.7l4.7,2.9c0.2,0.3,0.7,0.8,0.7,1.3
	c0,0.8-0.2,0.8-0.7,0.5l-3.2-2.1v4.7h-0.5V200.7z"/>
<radialGradient id="SVGID_40_" cx="-82.2893" cy="24.2372" r="1" gradientTransform="matrix(6.2378 0 0 6.6014 548.315 47.4766)" gradientUnits="userSpaceOnUse">
	<stop  offset="0" style="stop-color:#FFFFFF"/>
	<stop  offset="1" style="stop-color:#000000"/>
</radialGradient>
<path class="st47" d="M33.1,201.3c0,0.5-0.2,0.8-0.7,0.5s-0.7-1.1-0.7-1.3v-1.1c0-0.5,0.2-0.8,0.7-0.5l6,3.7v5.8
	c0,0.8,0,0.8-0.2,1.1l-2,1.3c-0.2,0.3-0.5,0.3-0.5,1.1v3.9c0,0.5-0.2,0.8-0.7,0.5s-0.7-0.8-0.7-1.3v-4.7c0-0.5,0-0.8,0.2-1.1l2-1.3
	c0.5-0.3,0.5-0.3,0.5-1.1v-2.6L33.1,201.3z"/>
<radialGradient id="SVGID_41_" cx="-83.4656" cy="22.4224" r="1" gradientTransform="matrix(6.7426 0 0 7.1357 607.6137 54.2711)" gradientUnits="userSpaceOnUse">
	<stop  offset="0" style="stop-color:#FFFFFF"/>
	<stop  offset="1" style="stop-color:#000000"/>
</radialGradient>
<path class="st48" d="M42.8,218.6l4.7,2.9c0.2,0.3,0.7,0.8,0.7,1.3c0,0.8-0.2,0.8-0.7,0.5l-6-3.7v-6.3c0-1.6,0.5-1.8,1.5-1.3
	l3.7,2.4v-4.7l-4.7-2.9c-0.2-0.3-0.7-0.8-0.7-1.3c0-0.8,0.2-0.8,0.7-0.5l4.5,2.9c0.5,0.3,0.7,0.5,1,1.3c0.5,0.8,0.5,1.3,0.5,2.1v3.9
	c0,0.8,0,1.3-0.5,1.6c-0.2,0.3-0.7,0.3-1,0l-3.7-2.4V218.6z"/>
<radialGradient id="SVGID_42_" cx="-82.8771" cy="23.3304" r="1" gradientTransform="matrix(6.4802 0 0 6.858 591.7263 60.3258)" gradientUnits="userSpaceOnUse">
	<stop  offset="0" style="stop-color:#FFFFFF"/>
	<stop  offset="1" style="stop-color:#000000"/>
</radialGradient>
<path class="st49" d="M54,218.9l2.5,1.6c0.5,0.3,0.7,0.5,1,1.3c0.5,0.8,0.5,1.3,0.5,1.8v4.2c0,0.5,0,1.1-0.2,1.3s-0.7,0.3-1.2,0
	l-3-1.8c-0.2-0.3-0.5-0.5-1-0.8L52,226c-0.2-0.5-0.7-0.8-0.7-1.6c0-0.5,0.2-0.8,0.7-0.5c0.2,0,0.2,0.3,0.5,0.5L53,225
	c0.2,0.3,0.5,0.8,0.7,0.8l3.2,1.8v-4.7l-4-2.4v-8.7l4.7,2.9c0.2,0.3,0.7,0.8,0.7,1.3c0,0.8-0.2,0.8-0.7,0.5l-3.2-2.1v4.5L54,218.9
	L54,218.9z"/>
<radialGradient id="SVGID_43_" cx="-82.2893" cy="24.2388" r="0.9989" gradientTransform="matrix(6.2378 0 0 6.6014 587.617 71.4898)" gradientUnits="userSpaceOnUse">
	<stop  offset="0" style="stop-color:#FFFFFF"/>
	<stop  offset="1" style="stop-color:#000000"/>
</radialGradient>
<path class="st50" d="M72.4,225.2c0,0.5-0.2,0.8-0.7,0.5s-0.7-1.1-0.7-1.3v-1.1c0-0.5,0.2-0.8,0.7-0.5l6,3.7v5.8
	c0,0.8,0,0.8-0.2,1.1l-2,1.3c-0.2,0.3-0.5,0.3-0.5,1.1v3.9c0,0.5-0.2,0.8-0.7,0.5s-0.7-0.8-0.7-1.3v-5c0-0.5,0-0.8,0.2-1.1l2-1.3
	c0.5-0.3,0.5-0.3,0.5-1.1v-2.6L72.4,225.2z"/>
<radialGradient id="SVGID_44_" cx="-83.4656" cy="22.4224" r="1" gradientTransform="matrix(6.7426 0 0 7.1357 646.9147 78.2843)" gradientUnits="userSpaceOnUse">
	<stop  offset="0" style="stop-color:#FFFFFF"/>
	<stop  offset="1" style="stop-color:#000000"/>
</radialGradient>
<path class="st51" d="M82.1,242.9l4.7,2.9c0.2,0.3,0.7,0.8,0.7,1.3c0,0.8-0.2,0.8-0.7,0.5l-6-3.7v-6.3c0-1.6,0.5-1.8,1.5-1.3
	l3.7,2.4V234l-4.7-2.9c-0.2-0.3-0.7-0.8-0.7-1.3c0-0.8,0.2-0.8,0.7-0.5l4.5,2.9c0.5,0.3,0.7,0.5,1,1.3c0.5,0.8,0.5,1.3,0.5,2.1v3.9
	c0,0.8,0,1.3-0.5,1.6c-0.2,0.3-0.7,0.3-1,0l-3.7-2.4V242.9z"/>
<radialGradient id="SVGID_45_" cx="-83.2308" cy="22.7825" r="0.9984" gradientTransform="matrix(6.6354 0 0 7.0222 646.2332 84.0881)" gradientUnits="userSpaceOnUse">
	<stop  offset="0" style="stop-color:#FFFFFF"/>
	<stop  offset="1" style="stop-color:#000000"/>
</radialGradient>
<path class="st52" d="M91.3,236.8c-0.2-0.3-0.7-0.8-0.7-1.3c0-0.8,0.2-0.8,0.7-0.5l4.7,2.9c0.7,0.5,1.2,1.6,1.2,2.9v3.7
	c0,0.8,0,1.3-0.5,1.6c0.5,0.8,0.5,1.6,0.5,2.4v3.7c0,1.1-0.5,1.6-1.2,1.1l-4.7-2.9c-0.2-0.3-0.7-0.8-0.7-1.3c0-0.8,0.2-0.8,0.7-0.5
	l4.7,2.9v-3.2c0-1.1-0.2-1.6-0.7-1.8l-2.7-1.6c-0.2-0.3-0.7-0.8-0.7-1.3c0-0.8,0.2-0.8,0.7-0.5l2.7,1.6c0.5,0.3,0.7,0,0.7-1.1v-3.2
	L91.3,236.8z"/>
<radialGradient id="SVGID_46_" cx="-82.978" cy="23.1742" r="1" gradientTransform="matrix(6.5238 0 0 6.9042 645.1194 90.2745)" gradientUnits="userSpaceOnUse">
	<stop  offset="0" style="stop-color:#FFFFFF"/>
	<stop  offset="1" style="stop-color:#000000"/>
</radialGradient>
<path class="st53" d="M105.7,243.9c0.7,0.5,1.2,1.8,1.2,2.9v11.3c0,1.1-0.5,1.6-1.2,1.1l-4-2.4c-0.7-0.5-1.2-1.6-1.2-2.9v-11.3
	c0-1.1,0.5-1.6,1.2-1.1L105.7,243.9z M105.7,257.1v-11.3l-4-2.4v11.3L105.7,257.1z"/>
<radialGradient id="SVGID_47_" cx="-82.2893" cy="24.237" r="0.9993" gradientTransform="matrix(6.2378 0 0 6.6015 636.7434 101.4996)" gradientUnits="userSpaceOnUse">
	<stop  offset="0" style="stop-color:#FFFFFF"/>
	<stop  offset="1" style="stop-color:#000000"/>
</radialGradient>
<path class="st54" d="M121.4,255.2c0,0.5-0.2,0.8-0.7,0.5s-0.7-1.1-0.7-1.3v-1.1c0-0.5,0.2-0.8,0.7-0.5l6,3.7v5.8
	c0,0.8,0,0.8-0.2,1.1l-2,1.3c-0.2,0.3-0.5,0.3-0.5,1.1v3.9c0,0.5-0.2,0.8-0.7,0.5s-0.7-0.8-0.7-1.3v-4.7c0-0.5,0-0.8,0.2-1.1l2-1.3
	c0.5-0.3,0.5-0.3,0.5-1.1v-2.6L121.4,255.2z"/>
<radialGradient id="SVGID_48_" cx="-82.2893" cy="24.2372" r="0.9994" gradientTransform="matrix(6.2378 0 0 6.6014 646.5684 107.5098)" gradientUnits="userSpaceOnUse">
	<stop  offset="0" style="stop-color:#FFFFFF"/>
	<stop  offset="1" style="stop-color:#000000"/>
</radialGradient>
<path class="st55" d="M131.3,261.3c0,0.5-0.2,0.8-0.7,0.5s-0.7-1.1-0.7-1.3v-1.1c0-0.5,0.2-0.8,0.7-0.5l6,3.7v5.8
	c0,0.8,0,0.8-0.2,1.1l-2,1.3c-0.2,0.3-0.5,0.3-0.5,1.1v3.9c0,0.5-0.2,0.8-0.7,0.5s-0.7-0.8-0.7-1.3v-4.7c0-0.5,0-0.8,0.2-1.1l2-1.3
	c0.5-0.3,0.5-0.3,0.5-1.1v-2.6L131.3,261.3z"/>
<radialGradient id="SVGID_49_" cx="-82.2893" cy="24.2372" r="1" gradientTransform="matrix(6.2378 0 0 6.6014 656.3944 113.5127)" gradientUnits="userSpaceOnUse">
	<stop  offset="0" style="stop-color:#FFFFFF"/>
	<stop  offset="1" style="stop-color:#000000"/>
</radialGradient>
<path class="st56" d="M141,267.3c0,0.5-0.2,0.8-0.7,0.5s-0.7-1.1-0.7-1.3v-1.1c0-0.5,0.2-0.8,0.7-0.5l6,3.7v5.8c0,0.8,0,0.8-0.2,1.1
	l-2,1.3c-0.2,0.3-0.5,0.3-0.5,1.1v3.9c0,0.5-0.2,0.8-0.7,0.5s-0.7-0.8-0.7-1.3v-4.7c0-0.5,0-0.8,0.2-1.1l2-1.3
	c0.5-0.3,0.5-0.3,0.5-1.1v-2.6L141,267.3z"/>
<radialGradient id="SVGID_50_" cx="-82.2893" cy="24.2374" r="1" gradientTransform="matrix(6.2378 0 0 6.6014 666.2194 119.4527)" gradientUnits="userSpaceOnUse">
	<stop  offset="0" style="stop-color:#FFFFFF"/>
	<stop  offset="1" style="stop-color:#000000"/>
</radialGradient>
<path class="st57" d="M151,273.4c0,0.5-0.2,0.8-0.7,0.5s-0.7-1.1-0.7-1.3v-1.1c0-0.5,0.2-0.8,0.7-0.5l6,3.7v5.8c0,0.8,0,0.8-0.2,1.1
	l-2,1.3c-0.2,0.3-0.5,0.3-0.5,1.1v3.9c0,0.5-0.2,0.8-0.7,0.5s-0.7-0.8-0.7-1.3v-4.7c0-0.5,0-0.8,0.2-1.1l2-1.3
	c0.5-0.3,0.5-0.3,0.5-1.1v-2.6L151,273.4z"/>
<radialGradient id="SVGID_51_" cx="-82.978" cy="23.1742" r="1" gradientTransform="matrix(6.5238 0 0 6.9042 713.8974 132.2984)" gradientUnits="userSpaceOnUse">
	<stop  offset="0" style="stop-color:#FFFFFF"/>
	<stop  offset="1" style="stop-color:#000000"/>
</radialGradient>
<path class="st58" d="M174.6,285.8c0.7,0.5,1.2,1.8,1.2,2.9V300c0,1.1-0.5,1.6-1.2,1.1l-4-2.4c-0.7-0.5-1.2-1.6-1.2-2.9v-11.3
	c0-1.1,0.5-1.6,1.2-1.1L174.6,285.8z M174.6,299.2v-11.3l-4-2.4v11.3L174.6,299.2z"/>
<radialGradient id="SVGID_52_" cx="-82.978" cy="23.1742" r="1" gradientTransform="matrix(6.5238 0 0 6.9042 723.7214 138.3013)" gradientUnits="userSpaceOnUse">
	<stop  offset="0" style="stop-color:#FFFFFF"/>
	<stop  offset="1" style="stop-color:#000000"/>
</radialGradient>
<path class="st59" d="M184.3,291.8c0.7,0.5,1.2,1.8,1.2,2.9V306c0,1.1-0.5,1.6-1.2,1.1l-4-2.4c-0.7-0.5-1.2-1.6-1.2-2.9v-11.3
	c0-1.1,0.5-1.6,1.2-1.1L184.3,291.8z M184.3,305.2v-11.3l-4-2.4v11.3L184.3,305.2z"/>
<radialGradient id="SVGID_53_" cx="-82.9779" cy="23.1765" r="1.0017" gradientTransform="matrix(6.5237 0 0 6.9043 733.5401 144.3047)" gradientUnits="userSpaceOnUse">
	<stop  offset="0" style="stop-color:#FFFFFF"/>
	<stop  offset="1" style="stop-color:#000000"/>
</radialGradient>
<path class="st60" d="M194.2,297.9c0.7,0.5,1.2,1.8,1.2,2.9v11.3c0,1.1-0.5,1.6-1.2,1.1l-4-2.4c-0.7-0.5-1.2-1.6-1.2-2.9v-11.3
	c0-1.1,0.5-1.6,1.2-1.1L194.2,297.9z M194.2,311.3v-11.6l-4-2.4v11.3L194.2,311.3z"/>
<radialGradient id="SVGID_54_" cx="-82.978" cy="23.1746" r="1" gradientTransform="matrix(6.5238 0 0 6.9041 743.3714 150.3155)" gradientUnits="userSpaceOnUse">
	<stop  offset="0" style="stop-color:#FFFFFF"/>
	<stop  offset="1" style="stop-color:#000000"/>
</radialGradient>
<path class="st61" d="M204.2,303.9c0.7,0.5,1.2,1.8,1.2,2.9v11.3c0,1.1-0.5,1.6-1.2,1.1l-4-2.4c-0.7-0.5-1.2-1.6-1.2-2.9v-11.3
	c0-1.1,0.5-1.6,1.2-1.1L204.2,303.9z M204.2,317.3V306l-4-2.4V315L204.2,317.3z"/>
<path class="st62" d="M23.9,201l2.5,1.6c0.5,0.3,0.7,0.5,1,1.3c0.5,0.8,0.5,1.3,0.5,1.8v4.2c0,0.5,0,1.1-0.2,1.3
	c-0.2,0.3-0.7,0.3-1.2,0l-3-1.8c-0.2-0.3-0.5-0.5-1-0.8l-0.5-1.1c-0.2-0.5-0.7-0.8-0.7-1.6c0-0.5,0.2-0.8,0.7-0.5
	c0.2,0,0.2,0.3,0.5,0.5l0.5,0.5c0.2,0.3,0.5,0.8,0.7,0.8l3.2,1.8v-4.7l-4.5-2.4v-8.7l4.7,2.9c0.2,0.3,0.7,0.8,0.7,1.3
	c0,0.8-0.2,0.8-0.7,0.5l-3.2-2.1C23.9,195.8,23.9,201,23.9,201z"/>
<path class="st62" d="M32.3,201.3c0,0.5-0.2,0.8-0.7,0.5s-0.7-1.1-0.7-1.3v-1.1c0-0.5,0.2-0.8,0.7-0.5l6,3.7v5.8
	c0,0.8,0,0.8-0.2,1.1l-2,1.3c-0.2,0.3-0.5,0.3-0.5,1.1v3.9c0,0.5-0.2,0.8-0.7,0.5s-0.7-0.8-0.7-1.3v-4.7c0-0.5,0-0.8,0.2-1.1l2-1.3
	c0.5-0.3,0.5-0.3,0.5-1.1v-2.6L32.3,201.3z"/>
<path class="st62" d="M42,218.9l4.7,2.9c0.2,0.3,0.7,0.8,0.7,1.3c0,0.8-0.2,0.8-0.7,0.5l-6-3.7v-6.3c0-1.6,0.5-1.8,1.5-1.3l3.7,2.4
	V210l-4.7-2.9c-0.2-0.3-0.7-0.8-0.7-1.3c0-0.8,0.2-0.8,0.7-0.5l4.5,2.9c0.5,0.3,0.7,0.5,1,1.3c0.5,0.8,0.5,1.3,0.5,2.1v3.9
	c0,0.8,0,1.3-0.5,1.6c-0.2,0.3-0.7,0.3-1,0l-3.7-2.4V218.9z"/>
<path class="st62" d="M53.2,218.9l2.5,1.6c0.5,0.3,0.7,0.5,1,1.3c0.5,0.8,0.5,1.3,0.5,1.8v4.2c0,0.5,0,1.1-0.2,1.3
	c-0.2,0.3-0.7,0.3-1.2,0l-3-1.8c-0.2-0.3-0.5-0.5-1-0.8l-0.5-0.5c-0.2-0.5-0.7-0.8-0.7-1.6c0-0.5,0.2-0.8,0.7-0.5
	c0.2,0,0.2,0.3,0.5,0.5l0.5,0.5c0.2,0.3,0.5,0.8,0.7,0.8l3.2,1.8v-4.7l-4-2.4v-8.7l4.7,2.9c0.2,0.3,0.7,0.8,0.7,1.3
	c0,0.8-0.2,0.8-0.7,0.5l-3.2-2.1v4.5L53.2,218.9L53.2,218.9z"/>
<path class="st62" d="M71.6,225.5c0,0.5-0.2,0.8-0.7,0.5s-0.7-1.1-0.7-1.3v-1.1c0-0.5,0.2-0.8,0.7-0.5l6,3.7v5.8
	c0,0.8,0,0.8-0.2,1.1l-2,1.3c-0.2,0.3-0.5,0.3-0.5,1.1v3.9c0,0.5-0.2,0.8-0.7,0.5s-0.7-0.8-0.7-1.3v-5.3c0-0.5,0-0.8,0.2-1.1l2-1.3
	c0.5-0.3,0.5-0.3,0.5-1.1v-2.6L71.6,225.5z"/>
<path class="st62" d="M81.3,242.9l4.7,2.9c0.2,0.3,0.7,0.8,0.7,1.3c0,0.8-0.2,0.8-0.7,0.5l-6-3.7v-6.3c0-1.6,0.5-1.8,1.5-1.3
	l3.7,2.4V234l-4.7-2.9c-0.2-0.3-0.7-0.8-0.7-1.3c0-0.8,0.2-0.8,0.7-0.5l4.5,2.9c0.5,0.3,0.7,0.5,1,1.3c0.5,0.8,0.5,1.3,0.5,2.1v3.9
	c0,0.8,0,1.3-0.5,1.6c-0.2,0.3-0.7,0.3-1,0l-3.7-2.4V242.9z"/>
<path class="st62" d="M90.5,237.1c-0.2-0.3-0.7-0.8-0.7-1.3c0-0.8,0.2-0.8,0.7-0.5l4.7,2.9c0.7,0.5,1.2,1.6,1.2,2.9v3.7
	c0,0.8,0,1.3-0.5,1.6c0.5,0.8,0.5,1.6,0.5,2.4v3.7c0,1.1-0.5,1.6-1.2,1.1l-4.7-2.9c-0.2-0.3-0.7-0.8-0.7-1.3c0-0.8,0.2-0.8,0.7-0.5
	l4.7,2.9v-3.2c0-1.1-0.2-1.6-0.7-1.8l-2.7-1.6c-0.2-0.3-0.7-0.8-0.7-1.3c0-0.8,0.2-0.8,0.7-0.5l2.7,1.6c0.5,0.3,0.7,0,0.7-1.1v-3.2
	L90.5,237.1z"/>
<path class="st62" d="M104.9,243.9c0.7,0.5,1.2,1.8,1.2,2.9v11.3c0,1.1-0.5,1.6-1.2,1.1l-4-2.4c-0.7-0.5-1.2-1.6-1.2-2.9v-11.3
	c0-1.1,0.5-1.6,1.2-1.1L104.9,243.9z M104.9,257.3V246l-4-2.4V255L104.9,257.3z"/>
<path class="st62" d="M120.6,255.5c0,0.5-0.2,0.8-0.7,0.5c-0.5-0.3-0.7-1.1-0.7-1.3v-1.1c0-0.5,0.2-0.8,0.7-0.5l6,3.7v5.8
	c0,0.8,0,0.8-0.2,1.1l-2,1.3c-0.2,0.3-0.5,0.3-0.5,1.1v3.9c0,0.5-0.2,0.8-0.7,0.5s-0.7-0.8-0.7-1.3v-4.7c0-0.5,0-0.8,0.2-1.1l2-1.3
	c0.5-0.3,0.5-0.3,0.5-1.1v-2.6L120.6,255.5z"/>
<path class="st62" d="M130.6,261.3c0,0.5-0.2,0.8-0.7,0.5s-0.7-1.1-0.7-1.3v-1.1c0-0.5,0.2-0.8,0.7-0.5l6,3.7v5.8
	c0,0.8,0,0.8-0.2,1.1l-2,1.3c-0.2,0.3-0.5,0.3-0.5,1.1v3.9c0,0.5-0.2,0.8-0.7,0.5s-0.7-0.8-0.7-1.3v-4.7c0-0.5,0-0.8,0.2-1.1l2-1.3
	c0.5-0.3,0.5-0.3,0.5-1.1v-2.6L130.6,261.3z"/>
<path class="st62" d="M140.3,267.3c0,0.5-0.2,0.8-0.7,0.5s-0.7-1.1-0.7-1.3v-1.1c0-0.5,0.2-0.8,0.7-0.5l6,3.7v5.8
	c0,0.8,0,0.8-0.2,1.1l-2,1.3c-0.2,0.3-0.5,0.3-0.5,1.1v3.9c0,0.5-0.2,0.8-0.7,0.5s-0.7-0.8-0.7-1.3v-4.7c0-0.5,0-0.8,0.2-1.1l2-1.3
	c0.5-0.3,0.5-0.3,0.5-1.1v-2.6L140.3,267.3z"/>
<path class="st62" d="M150.2,273.4c0,0.5-0.2,0.8-0.7,0.5s-0.7-1.1-0.7-1.3v-1.1c0-0.5,0.2-0.8,0.7-0.5l6,3.7v5.8
	c0,0.8,0,0.8-0.2,1.1l-2,1.3c-0.2,0.3-0.5,0.3-0.5,1.1v3.9c0,0.5-0.2,0.8-0.7,0.5s-0.7-0.8-0.7-1.3v-4.7c0-0.5,0-0.8,0.2-1.1l2-1.3
	c0.5-0.3,0.5-0.3,0.5-1.1v-2.6L150.2,273.4z"/>
<path class="st62" d="M173.8,285.8c0.7,0.5,1.2,1.8,1.2,2.9V300c0,1.1-0.5,1.6-1.2,1.1l-4-2.4c-0.7-0.5-1.2-1.6-1.2-2.9v-11.3
	c0-1.1,0.5-1.6,1.2-1.1L173.8,285.8z M173.8,299.2v-11.3l-4-2.4v11.3L173.8,299.2z"/>
<path class="st62" d="M183.8,291.8c0.7,0.5,1.2,1.8,1.2,2.9V306c0,1.1-0.5,1.6-1.2,1.1l-4-2.4c-0.7-0.5-1.2-1.6-1.2-2.9v-11.3
	c0-1.1,0.5-1.6,1.2-1.1L183.8,291.8z M183.8,305.2v-11.3l-4-2.4v11.3L183.8,305.2z"/>
<path class="st62" d="M193.5,297.9c0.7,0.5,1.2,1.8,1.2,2.9v11.3c0,1.1-0.5,1.6-1.2,1.1l-4-2.4c-0.7-0.5-1.2-1.6-1.2-2.9v-11.3
	c0-1.1,0.5-1.6,1.2-1.1L193.5,297.9z M193.5,311.3V300l-4-2.4v11.3L193.5,311.3z"/>
<path class="st62" d="M203.4,303.9c0.7,0.5,1.2,1.8,1.2,2.9v11.3c0,1.1-0.5,1.6-1.2,1.1l-4-2.4c-0.7-0.5-1.2-1.6-1.2-2.9v-11.3
	c0-1.1,0.5-1.6,1.2-1.1L203.4,303.9z M203.4,317.3V306l-4-2.4V315L203.4,317.3z"/>
<linearGradient id="SVGID_55_" gradientUnits="userSpaceOnUse" x1="60.3759" y1="362.3836" x2="11.7276" y2="318.7986" gradientTransform="matrix(1 0 0 1 0 -160)">
	<stop  offset="3.535350e-02" style="stop-color:#FFA98C"/>
	<stop  offset="0.3169" style="stop-color:#FFB892"/>
	<stop  offset="0.8601" style="stop-color:#FEE1A3"/>
	<stop  offset="1" style="stop-color:#FEECA8"/>
</linearGradient>
<path class="st63" d="M50,192.8v-7.6l-28.1-16.8v7.4L50,192.8z"/>
<linearGradient id="SVGID_56_" gradientUnits="userSpaceOnUse" x1="59.0863" y1="352.6245" x2="14.6865" y2="312.8445" gradientTransform="matrix(1 0 0 1 0 -160)">
	<stop  offset="3.535350e-02" style="stop-color:#FFA98C"/>
	<stop  offset="0.3169" style="stop-color:#FFB892"/>
	<stop  offset="0.8601" style="stop-color:#FEE1A3"/>
	<stop  offset="1" style="stop-color:#FEECA8"/>
</linearGradient>
<path class="st64" d="M50,183.6v-0.5c0-3.9-2.7-8.7-6-10.8l-16.2-10c-3.2-2.1-6-0.5-6,3.4v0.5L50,183.6z"/>
<linearGradient id="SVGID_57_" gradientUnits="userSpaceOnUse" x1="57.251" y1="368.2733" x2="12.995" y2="328.6233" gradientTransform="matrix(1 0 0 1 0 -160)">
	<stop  offset="3.535350e-02" style="stop-color:#FFA98C"/>
	<stop  offset="0.3169" style="stop-color:#FFB892"/>
	<stop  offset="0.8601" style="stop-color:#FEE1A3"/>
	<stop  offset="1" style="stop-color:#FEECA8"/>
</linearGradient>
<path class="st65" d="M21.9,177.6c0,4.2,2.7,8.9,6,11.1l16.2,10c3.2,2.1,6,0.5,6-3.4V195L21.9,177.6z"/>
<radialGradient id="SVGID_58_" cx="-89.9934" cy="12.352" r="1" gradientTransform="matrix(12.2398 0 0 12.9535 1137.4602 28.3953)" gradientUnits="userSpaceOnUse">
	<stop  offset="0" style="stop-color:#FFFFFF"/>
	<stop  offset="1" style="stop-color:#000000"/>
</radialGradient>
<path class="st66" d="M21.9,177.8c0,0.3,0,0.5,0,0.8l26.9,16.6v0.3c0,1.8-0.5,3.2-1.5,3.7c1.5-0.5,2.5-1.8,2.5-4.2v-0.3L21.9,177.8z
	"/>
<radialGradient id="SVGID_59_" cx="-90.3839" cy="11.7506" r="0.9999" gradientTransform="matrix(12.8662 0 0 13.6163 1198.8474 20.5658)" gradientUnits="userSpaceOnUse">
	<stop  offset="0" style="stop-color:#FFFFFF"/>
	<stop  offset="1" style="stop-color:#000000"/>
</radialGradient>
<path class="st67" d="M21.9,169.4L49,185.7v6.6l1,0.5v-7.6l-28.1-16.8V169.4z"/>
<radialGradient id="SVGID_60_" cx="-89.7582" cy="12.7146" r="1" gradientTransform="matrix(11.8906 0 0 12.584 1103.9619 12.5897)" gradientUnits="userSpaceOnUse">
	<stop  offset="0" style="stop-color:#FFFFFF"/>
	<stop  offset="1" style="stop-color:#000000"/>
</radialGradient>
<path class="st68" d="M44,172.3l-16.2-10c-1.7-1.1-3.2-1.1-4.5-0.3c1-0.3,2.2,0,3.5,0.8l16.2,10c3,1.8,5.5,6.3,5.7,10l1,0.5v-0.5
	C50,179.2,47.3,174.4,44,172.3z"/>
<path class="st62" d="M24.4,242.9v-5.3l0.7,0.5v5.3c0,1.8-0.7,2.4-2,1.6c-0.2-0.3-0.7-0.5-1-0.8v-0.8c0.2,0.3,0.5,0.5,0.7,0.5
	c0.5,0.3,0.7,0.3,1,0C24.4,244.2,24.4,243.6,24.4,242.9z"/>
<path class="st62" d="M28.6,242.3c0.7,0.5,1.2,1.1,1.7,1.8c0.5,0.8,0.7,1.6,0.7,2.4c0,1.1-0.2,1.6-0.7,1.8c-0.5,0.3-1,0.3-1.7-0.3
	c-0.7-0.5-1.2-1.1-1.5-1.8c-0.5-0.8-0.7-1.6-0.7-2.6c0-1.1,0.2-1.6,0.7-1.8C27.4,241.8,28.1,241.8,28.6,242.3z M29.8,244.4
	c-0.2-0.5-0.5-1.1-1-1.3c-0.5-0.3-0.7-0.3-1,0c-0.2,0.3-0.2,0.8-0.2,1.3s0.2,1.3,0.5,1.8c0.2,0.5,0.5,1.1,1,1.3c0.5,0.3,0.7,0.3,1,0
	c0.2-0.3,0.5-0.8,0.5-1.3C30.1,245.5,29.8,245,29.8,244.4z"/>
<path class="st62" d="M32.1,250.2v-8.4l0.7,0.5v3.7c0.2-0.3,0.2-0.3,0.5-0.3c0.2,0,0.5,0,1,0.3c0.2,0,0.2,0.3,0.5,0.3
	s0.2,0.3,0.5,0.5c0.2,0.3,0.2,0.5,0.5,0.8c0,0.3,0.2,0.5,0.2,0.8s0,0.8,0,1.1v3.4l-0.7-0.5v-3.2c0-0.5,0-1.1-0.2-1.3
	c-0.2-0.5-0.5-0.8-0.7-1.1s-0.5-0.3-0.7-0.3s-0.2,0.3-0.5,0.5c0,0,0,0.3,0,0.5v3.4L32.1,250.2z"/>
<path class="st62" d="M37.6,253.4v-4.2c0-0.5,0-1.1,0-1.6l0.7,0.5v1.1c0.2-0.3,0.2-0.3,0.5-0.3s0.5,0,1,0.3c0.2,0,0.2,0.3,0.5,0.5
	c0.2,0.3,0.2,0.5,0.5,0.8c0.2,0.3,0.2,0.5,0.5,1.1c0,0.5,0.2,0.8,0.2,1.3v3.4l-0.7-0.5v-3.4c0-0.5,0-1.1-0.2-1.3
	c-0.2-0.5-0.5-0.8-0.7-1.1s-0.5-0.3-0.7,0c-0.2,0-0.2,0.3-0.5,0.5c0,0,0,0.3,0,0.5v3.4L37.6,253.4z"/>
<path class="st62" d="M44.5,257.6l0.2-0.8c0.5,0.5,1,1.1,1.5,1.3c0.5,0.3,0.7,0.3,1,0.3c0.2,0,0.2-0.3,0.2-0.8c0-0.3,0-0.8-0.2-1.1
	c-0.2-0.3-0.5-0.8-1-1.3c-1.2-1.3-1.7-2.4-1.7-3.4c0-0.5,0.2-1.1,0.5-1.3c0.5-0.3,1,0,1.5,0.3s1,0.8,1.5,1.3l-0.2,0.8
	c-0.2-0.5-0.7-0.8-1.2-1.1s-0.7-0.3-1-0.3s-0.2,0.3-0.2,0.5c0,0.3,0,0.8,0.2,1.1s0.5,0.8,1,1.3s1,1.3,1.2,1.8s0.5,1.1,0.5,1.6
	s-0.2,1.1-0.5,1.3c-0.5,0.3-1,0-1.7-0.3c-0.2-0.3-0.7-0.5-1-0.8C45,258.1,44.8,257.9,44.5,257.6z"/>
<path class="st62" d="M49.7,261v-4.2c0-0.5,0-1.1,0-1.6l0.7,0.5v1.1c0.2-0.5,0.7-0.5,1.5-0.3c0.2,0.3,0.5,0.5,0.7,0.8
	s0.5,0.8,0.5,1.1c0-0.3,0.2-0.3,0.5-0.5c0.2,0,0.7,0,1,0.3c0.2,0,0.2,0.3,0.5,0.5c0.2,0.3,0.2,0.5,0.5,0.8s0.2,0.5,0.5,1.1
	c0,0.5,0.2,0.8,0.2,1.3v3.4l-0.7-0.5v-3.2c0-0.5,0-1.1-0.2-1.6s-0.5-0.8-0.7-1.1c-0.2-0.3-0.5-0.3-0.7,0c-0.2,0-0.2,0.3-0.5,0.5
	c0,0.3,0,0.3,0,0.5v3.4l-0.7-0.5v-3.4c0-0.5,0-0.8-0.2-1.3c-0.2-0.3-0.5-0.8-0.7-0.8c-0.2-0.3-0.5-0.3-0.7,0c-0.2,0-0.2,0.3-0.5,0.5
	c0,0,0,0.3,0,0.5v3.4L49.7,261z"/>
<path class="st62" d="M57.9,258.1c0,0,0.2,0,0.5,0c0.2,0,0.2,0.3,0.5,0.5c0,0.3,0.2,0.3,0.2,0.5c0,0.3,0,0.3-0.2,0.3
	c0,0-0.2,0-0.5,0c-0.2,0-0.2-0.3-0.5-0.5c0-0.3-0.2-0.3-0.2-0.5C57.7,258.4,57.7,258.4,57.9,258.1z M58.7,266.5L58,266v-5.8l0.7,0.5
	V266.5z"/>
<path class="st62" d="M60.2,260.8l0.7,0.3v1.3l1.2,0.8v0.8l-1.2-0.8v3.2c0,0.8,0.2,1.3,0.7,1.6c0.2,0,0.2,0.3,0.5,0.3v0.8
	c-0.2,0-0.5-0.3-0.7-0.3c-0.5-0.3-0.7-0.5-1-1.1c-0.2-0.5-0.2-1.1-0.2-1.6v-3.2l-0.7-0.5v-0.8l0.7,0.5V260.8z"/>
<path class="st62" d="M63.4,269.4V261l0.7,0.5v3.7c0.2-0.3,0.2-0.3,0.5-0.3s0.5,0,1,0.3c0.2,0,0.2,0.3,0.5,0.3
	c0.2,0,0.2,0.3,0.5,0.5c0.2,0.3,0.2,0.5,0.5,0.8c0,0.3,0.2,0.5,0.2,0.8s0,0.8,0,1.1v3.4l-0.7-0.5v-3.2c0-0.5,0-1.1-0.2-1.3
	c-0.2-0.5-0.5-0.8-0.7-1.1c-0.2-0.3-0.5-0.3-0.7-0.3s-0.2,0.3-0.5,0.5c0,0,0,0.3,0,0.5v3.4L63.4,269.4z"/>
<linearGradient id="SVGID_61_" gradientUnits="userSpaceOnUse" x1="125.2218" y1="364.5928" x2="220.5728" y2="399.4988" gradientTransform="matrix(1 0 0 1 0 -160)">
	<stop  offset="3.535350e-02" style="stop-color:#FFA98C"/>
	<stop  offset="0.3169" style="stop-color:#FFB892"/>
	<stop  offset="0.8601" style="stop-color:#FEE1A3"/>
	<stop  offset="1" style="stop-color:#FEECA8"/>
</linearGradient>
<path class="st69" d="M143.2,216.3l0.2,1.6c-0.7,0-1.5-0.3-2.7-1.1c-1.5-1.1-2.7-2.4-3.7-3.9c-1-1.8-1.5-3.7-1.5-5.8
	s0.5-3.4,1.5-3.9s2.5-0.5,4,0.5c1,0.8,2,1.3,2.5,2.1l-0.2,1.1c-0.5-0.8-1.2-1.3-2.2-1.8c-1.2-0.8-2.2-1.1-3-0.5
	c-0.7,0.5-1.2,1.6-1.2,3.2c0,1.6,0.2,3.2,1,4.5c0.7,1.3,1.7,2.4,3,3.2C141.8,216,142.5,216.3,143.2,216.3z"/>
<linearGradient id="SVGID_62_" gradientUnits="userSpaceOnUse" x1="125.6386" y1="367.6197" x2="216.2026" y2="400.7717" gradientTransform="matrix(1 0 0 1 0 -160)">
	<stop  offset="3.535350e-02" style="stop-color:#FFA98C"/>
	<stop  offset="0.3169" style="stop-color:#FFB892"/>
	<stop  offset="0.8601" style="stop-color:#FEE1A3"/>
	<stop  offset="1" style="stop-color:#FEECA8"/>
</linearGradient>
<path class="st70" d="M145.2,219.2v-6.3c0-1.1,0-2.1,0-2.9l1.2,0.8v1.8c0.2-0.5,0.5-0.8,0.7-1.1c0.5-0.3,0.7,0,1.2,0.3
	c0,0,0.2,0.3,0.5,0.3v1.6c0,0-0.2-0.3-0.5-0.3c-0.5-0.3-1-0.3-1.2-0.3c-0.2,0.3-0.5,0.5-0.7,1.1c0,0.3,0,0.5,0,0.8v5L145.2,219.2z"
	/>
<linearGradient id="SVGID_63_" gradientUnits="userSpaceOnUse" x1="124.3009" y1="368.5129" x2="219.8849" y2="403.5019" gradientTransform="matrix(1 0 0 1 0 -160)">
	<stop  offset="3.535350e-02" style="stop-color:#FFA98C"/>
	<stop  offset="0.3169" style="stop-color:#FFB892"/>
	<stop  offset="0.8601" style="stop-color:#FEE1A3"/>
	<stop  offset="1" style="stop-color:#FEECA8"/>
</linearGradient>
<path class="st71" d="M156.4,221.5l-5.5-3.4c0,1.1,0.2,2.1,0.7,2.9c0.5,0.8,1.2,1.6,2,1.8c0.7,0.5,1.5,0.8,2.2,0.8l0.2,1.3
	c-0.7,0-1.5-0.3-2.5-1.1c-1.2-0.8-2-1.6-2.7-2.9c-0.7-1.3-1-2.6-1-3.9c0-1.3,0.2-2.4,1-2.9c0.7-0.5,1.5-0.5,2.7,0.3
	c0.5,0.3,1,0.8,1.5,1.3s0.7,1.1,1,1.8c0.2,0.5,0.5,1.1,0.5,1.6s0.2,1.1,0.2,1.6C156.4,221.3,156.4,221.5,156.4,221.5z M151,217.1
	l4,2.4c0-0.8-0.2-1.3-0.5-2.1c-0.2-0.8-0.7-1.3-1.5-1.8c-0.7-0.5-1.2-0.5-1.5,0C151.2,216,151,216.5,151,217.1z"/>
<linearGradient id="SVGID_64_" gradientUnits="userSpaceOnUse" x1="124.3522" y1="369.1769" x2="220.1222" y2="404.2339" gradientTransform="matrix(1 0 0 1 0 -160)">
	<stop  offset="3.535350e-02" style="stop-color:#FFA98C"/>
	<stop  offset="0.3169" style="stop-color:#FFB892"/>
	<stop  offset="0.8601" style="stop-color:#FEE1A3"/>
	<stop  offset="1" style="stop-color:#FEECA8"/>
</linearGradient>
<path class="st72" d="M163.4,216.5l1.5,0.8v11.3c0,0.8,0,1.6,0,2.4l-1.2-0.8v-1.6c-0.2,0.5-0.5,0.5-1,0.8c-0.5,0-1,0-1.5-0.5
	c-1-0.5-1.7-1.6-2.5-2.9s-1-2.6-1-3.9c0-1.6,0.2-2.6,1-2.9c0.7-0.5,1.5-0.5,2.5,0c0.5,0.3,1,0.8,1.5,1.3s0.7,1.1,1,1.6v-5.5h-0.3
	V216.5z M163.4,226.3v-1.6c0-0.3,0-0.5,0-0.8c0-0.5-0.2-1.3-0.7-1.8c-0.2-0.5-0.7-1.1-1.2-1.3c-0.7-0.5-1.2-0.5-1.7,0
	s-0.5,1.1-0.5,2.1c0,1.1,0.2,1.8,0.5,2.9c0.5,0.8,1,1.6,1.7,2.1c0.5,0.3,1,0.3,1.2,0.3c0.5-0.3,0.7-0.5,0.7-1.1
	C163.4,226.8,163.4,226.5,163.4,226.3z"/>
<linearGradient id="SVGID_65_" gradientUnits="userSpaceOnUse" x1="127.2897" y1="371.7234" x2="216.3457" y2="404.3254" gradientTransform="matrix(1 0 0 1 0 -160)">
	<stop  offset="3.535350e-02" style="stop-color:#FFA98C"/>
	<stop  offset="0.3169" style="stop-color:#FFB892"/>
	<stop  offset="0.8601" style="stop-color:#FEE1A3"/>
	<stop  offset="1" style="stop-color:#FEECA8"/>
</linearGradient>
<path class="st73" d="M167.1,220c0.2,0,0.5,0,0.7,0c0.2,0.3,0.5,0.3,0.5,0.8c0.2,0.3,0.2,0.5,0.2,0.8s0,0.5-0.2,0.5s-0.5,0-0.7,0
	c-0.2-0.3-0.5-0.3-0.5-0.8c-0.2-0.3-0.2-0.5-0.2-0.8S167.1,220,167.1,220z M168.6,233.4l-1.5-0.8v-9.5l1.5,0.8V233.4z"/>
<linearGradient id="SVGID_66_" gradientUnits="userSpaceOnUse" x1="124.8796" y1="372.782" x2="218.3656" y2="407.004" gradientTransform="matrix(1 0 0 1 0 -160)">
	<stop  offset="3.535350e-02" style="stop-color:#FFA98C"/>
	<stop  offset="0.3169" style="stop-color:#FFB892"/>
	<stop  offset="0.8601" style="stop-color:#FEE1A3"/>
	<stop  offset="1" style="stop-color:#FEECA8"/>
</linearGradient>
<path class="st74" d="M171.1,223.9l1.5,0.3v2.4l2,1.3v1.3l-2-1.3v5c0,1.3,0.2,2.1,1,2.4c0.2,0.3,0.5,0.3,0.7,0.3v1.3
	c-0.2,0-0.7-0.3-1.2-0.5c-0.7-0.5-1.2-1.1-1.5-1.6c-0.2-0.8-0.5-1.6-0.5-2.9v-5l-1.2-0.8v-1.3l1.2,0.8V223.9z"/>
<linearGradient id="SVGID_67_" gradientUnits="userSpaceOnUse" x1="123.6526" y1="374.6582" x2="219.0046" y2="409.5632" gradientTransform="matrix(1 0 0 1 0 -160)">
	<stop  offset="3.535350e-02" style="stop-color:#FFA98C"/>
	<stop  offset="0.3169" style="stop-color:#FFB892"/>
	<stop  offset="0.8601" style="stop-color:#FEE1A3"/>
	<stop  offset="1" style="stop-color:#FEECA8"/>
</linearGradient>
<path class="st75" d="M186.8,242.9l0.2,1.6c-0.7,0-1.5-0.3-2.7-1.1c-1.5-1.1-2.7-2.4-3.7-3.9c-1-1.8-1.5-3.7-1.5-5.8
	s0.5-3.4,1.5-3.9s2.5-0.5,4,0.5c1,0.8,2,1.3,2.5,2.1l-0.2,1.1c-0.5-0.8-1.2-1.3-2.2-1.8c-1.2-0.8-2.2-1.1-3-0.5
	c-0.7,0.5-1.2,1.6-1.2,3.2c0,1.6,0.2,3.2,1,4.5c0.7,1.3,1.7,2.4,3,3.2C185.5,242.6,186.3,242.9,186.8,242.9z"/>
<linearGradient id="SVGID_68_" gradientUnits="userSpaceOnUse" x1="123.5037" y1="378.1737" x2="217.9236" y2="412.7377" gradientTransform="matrix(1 0 0 1 0 -160)">
	<stop  offset="3.535350e-02" style="stop-color:#FFA98C"/>
	<stop  offset="0.3169" style="stop-color:#FFB892"/>
	<stop  offset="0.8601" style="stop-color:#FEE1A3"/>
	<stop  offset="1" style="stop-color:#FEECA8"/>
</linearGradient>
<path class="st76" d="M194,243.4v3.4c0,0.8,0,1.6,0,2.4l-1.2-0.8v-1.3c-0.2,0.3-0.5,0.3-1,0.5c-0.5,0-1-0.3-1.5-0.5
	c-0.7-0.5-1.2-1.1-1.7-1.8c-0.5-0.8-0.5-1.6-0.5-2.4c0-1.1,0.5-1.8,1.2-1.8s2,0.3,3.5,1.3v-0.3c0-0.3,0-0.5,0-0.8s0-0.5-0.2-0.8
	c0-0.3-0.2-0.5-0.5-0.8c-0.2-0.3-0.5-0.5-1-0.8c-0.7-0.5-1.5-0.8-2-0.5l-0.2-1.3c0.7,0,1.5,0.3,2.5,0.8s1.7,1.6,2.2,2.4
	C193.7,241,194,242.1,194,243.4z M192.7,245v-1.6c-2.2-1.3-3.2-1.3-3.2,0c0,0.5,0.2,1.1,0.5,1.3c0.2,0.5,0.5,0.8,1,1.1
	s1,0.3,1.2,0.3s0.5-0.3,0.7-0.8C192.7,245.5,192.7,245.2,192.7,245z"/>
<linearGradient id="SVGID_69_" gradientUnits="userSpaceOnUse" x1="126.4207" y1="380.5375" x2="216.9787" y2="413.6865" gradientTransform="matrix(1 0 0 1 0 -160)">
	<stop  offset="3.535350e-02" style="stop-color:#FFA98C"/>
	<stop  offset="0.3169" style="stop-color:#FFB892"/>
	<stop  offset="0.8601" style="stop-color:#FEE1A3"/>
	<stop  offset="1" style="stop-color:#FEECA8"/>
</linearGradient>
<path class="st77" d="M196.2,250.5v-6.3c0-1.1,0-2.1,0-2.9l1.2,0.8v1.8c0.2-0.5,0.5-0.8,0.7-1.1c0.5-0.3,0.7,0,1.2,0.3
	c0,0,0.2,0.3,0.5,0.3v1.6c0,0-0.2-0.3-0.5-0.3c-0.5-0.3-1-0.3-1.2-0.3c-0.2,0.3-0.5,0.5-0.7,1.1c0,0.3,0,0.5,0,0.8v5L196.2,250.5z"
	/>
<linearGradient id="SVGID_70_" gradientUnits="userSpaceOnUse" x1="122.5998" y1="379.0839" x2="218.3708" y2="414.1429" gradientTransform="matrix(1 0 0 1 0 -160)">
	<stop  offset="3.535350e-02" style="stop-color:#FFA98C"/>
	<stop  offset="0.3169" style="stop-color:#FFB892"/>
	<stop  offset="0.8601" style="stop-color:#FEE1A3"/>
	<stop  offset="1" style="stop-color:#FEECA8"/>
</linearGradient>
<path class="st78" d="M206.7,242.9l1.5,0.8V255c0,0.8,0,1.6,0,2.4l-1.2-0.8V255c-0.2,0.5-0.5,0.5-1,0.8c-0.5,0-1,0-1.5-0.5
	c-1-0.5-1.7-1.6-2.5-2.9c-0.7-1.3-1-2.6-1-3.9c0-1.6,0.2-2.6,1-2.9c0.7-0.5,1.5-0.5,2.5,0c0.5,0.3,1,0.8,1.5,1.3s0.7,1.1,1,1.6V243
	h-0.3V242.9z M206.7,252.9v-1.6c0-0.3,0-0.5,0-0.8c0-0.5-0.2-1.3-0.7-1.8c-0.2-0.5-0.7-1.1-1.2-1.3c-0.7-0.5-1.2-0.5-1.7,0
	s-0.7,1.1-0.7,2.1c0,1.1,0.2,1.8,0.5,2.9c0.5,0.8,1,1.6,1.7,2.1c0.5,0.3,1,0.3,1.2,0.3c0.5-0.3,0.7-0.5,0.7-1.1
	C206.7,253.4,206.7,253.1,206.7,252.9z"/>
<path class="st62" d="M100.5,292.1v-6.6h-1l-0.2-0.8h1.5l0.7,0.5v7.6L100.5,292.1z"/>
<path class="st62" d="M105.4,295v-6.6h-1l-0.2-0.8h1.5l0.7,0.5v7.6L105.4,295z"/>
<path class="st62" d="M108.9,297.6l-0.7-0.5l2.7-6.8l0.7,0.5L108.9,297.6z"/>
<path class="st62" d="M115.9,301.5l-4-2.4v-0.5l0.7-0.3c1-0.5,1.5-0.8,1.7-1.3c0.2-0.3,0.5-0.8,0.5-1.3s0-0.8-0.2-1.3
	s-0.5-0.8-1-1.1s-1-0.3-1.2-0.3l-0.2-0.8c0.5-0.3,1,0,1.7,0.3s1,0.8,1.5,1.6c0.2,0.5,0.5,1.3,0.5,1.8s-0.2,1.1-0.5,1.6
	c-0.2,0.3-1,0.8-1.7,1.3l-0.5,0.3l2.7,1.8V301.5z"/>
<path class="st62" d="M117.4,295.8c0.5-0.5,1-0.5,1.5,0c0.7,0.5,1.2,1.1,1.5,1.8c0.2,0.8,0.5,2.1,0.5,3.2c0,1.3-0.2,2.1-0.5,2.6
	c-0.5,0.5-1,0.5-1.7,0c-0.7-0.3-1.2-1.1-1.5-1.8c-0.5-1.1-0.5-2.1-0.5-3.2C116.9,297.1,117.1,296,117.4,295.8z M118.9,296.3
	c-0.5-0.3-0.7-0.3-1,0.3c-0.2,0.5-0.2,1.1-0.2,2.1c0,1.1,0,1.8,0.2,2.6c0.2,0.8,0.5,1.1,1,1.3c0.5,0.3,0.7,0.3,1-0.3
	c0.2-0.5,0.2-1.1,0.2-2.1c0-1.1,0-1.8-0.2-2.4C119.9,297.1,119.4,296.5,118.9,296.3z"/>
<g class="st79">
	<path class="st80" d="M107.4,466.3l18.4-10.8c0.7-0.5,35.6-20.5,36.1-20l11.9-6.1c5.5-3.2,13.2-4.5,20.1-4.5c6,0,12.2,1.8,16.7,4.5
		l83.6,50.3l17.9,10.8l101.2,61.1c3.2,2.1,6.2,5,8,8.2c1.2,2.4,2,5,2,7.6c0.2,7.1-4,13.7-11.4,18.4l-18.4,10.8
		c-0.7,0.5-35.6,20.5-36.1,20l-11.9,6.3c-5.5,3.2-13.2,4.5-20.1,4.5c-6,0-12.2-1.8-16.7-4.5l-83.6-50.3l-17.9-10.8L106,500.7
		c-3.2-2.1-6.2-5-8-8.2c-1.2-2.4-2-5-2-7.6C96,477.4,100,470.8,107.4,466.3z"/>
	<path class="st81" d="M109.2,467.9l17.9-10.5c1.5-0.8,34.1-18.9,35.3-18.2l11.7-5.3c4.7-2.9,13.2-3.2,19.4-3.2
		c5.5,0,12.2,2.4,15.9,4.7l81.1,49l17.2,10.5l98.2,59.2c3,1.8,6.2,5,7.7,7.6c1.2,2.4,2.2,4.7,2.2,7.4c0.5,6.8-3.5,13.4-10.7,17.9
		l-17.9,10.5c-1.5,0.8-34.1,18.9-35.3,18.2l-11.7,5c-4.7,2.9-13.2,3.2-19.4,3.2c-5.5,0-12.2-2.4-15.9-4.7l-81.1-49l-17.2-10.5
		l-98.2-59.2c-3-1.8-6.2-5-7.7-7.6c-1.2-2.4-2-4.7-2.2-7.4C98,478.7,102,472.1,109.2,467.9z"/>
	<path class="st82" d="M111.2,469.2l17.4-10.3c2.2-1.3,32.6-17.6,34.6-16.3l11.2-3.9c4.2-2.6,13.2-1.8,18.7-1.8
		c4.7,0,11.9,2.9,15.4,5l78.6,47.4l16.7,10l95.2,57.6c2.7,1.6,6.2,5,7.7,7.4c1.2,2.1,2.2,4.5,2.5,7.1c0.5,6.6-3.2,12.9-10.2,17.4
		l-17.4,10.3c-2.2,1.3-32.6,17.6-34.6,16.3l-11.2,3.9c-4.2,2.6-13.2,1.8-18.7,1.8c-4.7,0-11.9-2.9-15.4-5l-78.6-47.4l-16.7-10
		L111.2,501c-2.7-1.6-6.2-5-7.7-7.4c-1.2-2.1-2.2-4.5-2.5-7.1C100.2,480,104,473.7,111.2,469.2z"/>
	<path class="st83" d="M112.9,470.8l16.9-9.7c3-1.8,31.1-16.1,33.6-14.5l10.9-2.9c3.7-2.4,13.2-0.8,17.9-0.8
		c4.2,0,11.7,3.4,14.7,5.3l76.1,46.1l16.2,9.7l92.3,55.8c2.2,1.3,6.2,5,7.5,6.8c1.2,2.1,2.2,4.2,2.7,6.6c0.7,6.3-2.7,12.4-9.7,16.8
		l-16.9,9.7c-3,1.8-31.1,16.1-33.6,14.5l-10.9,2.9c-3.7,2.4-13.2,0.8-17.9,0.8c-4.2,0-11.7-3.4-14.7-5.3l-76.1-46.1l-16.2-9.7
		L113.4,501c-2.2-1.3-6.2-5-7.5-6.8c-1.2-2.1-2.2-4.2-2.7-6.6C102.5,481.3,105.9,475.2,112.9,470.8z"/>
	<path class="st84" d="M114.9,472.4l16.4-9.5c3.7-2.4,29.6-14.5,32.8-12.6l10.4-1.6c3.2-1.8,13.2,0.5,17.2,0.5
		c3.5,0,11.7,3.7,14.2,5.3l73.6,44.5l15.7,9.5l89.3,54.2c2,1.3,6.5,4.7,7.5,6.6c1.2,2.1,2.5,3.9,2.7,6.3c1,6.1-2.2,12.1-9.2,16.3
		l-16.4,9.5c-3.7,2.4-29.6,14.5-32.8,12.6l-10.4,1.6c-3.2,1.8-13.2-0.5-17.2-0.5c-3.5,0-11.7-3.7-14.2-5.3l-73.6-44.5l-15.7-9.5
		l-89.3-54.2c-2-1.3-6.5-4.7-7.5-6.6c-1.2-2.1-2.5-3.9-2.7-6.3C104.7,482.6,107.9,476.6,114.9,472.4z"/>
	<path class="st85" d="M116.6,473.9l15.9-8.9c4.5-2.6,28.1-13.2,32.1-10.8l10.2-0.5c2.7-1.6,13.2,1.8,16.4,1.8
		c3,0,11.4,4.2,13.7,5.5l71.1,43.2l15.2,9.2l86.3,52.4c1.7,1.1,6.5,4.7,7.5,6.1c1.2,2.1,2.5,3.7,3,5.8c1.2,5.5-2,11.6-8.7,15.8
		l-15.9,8.9c-4.5,2.6-28.1,13.2-32.1,10.8l-10.2,0.5c-2.7,1.6-13.2-1.8-16.4-1.8c-3,0-11.4-4.2-13.7-5.5l-71.1-43.2l-15.2-9.2
		l-86.3-52.4c-1.7-1.1-6.5-4.7-7.5-6.1c-1.2-2.1-2.5-3.7-3-5.8C106.7,483.9,109.9,478.1,116.6,473.9z"/>
	<path class="st86" d="M118.4,475.5l15.4-8.7c5.2-3.2,26.6-11.6,31.3-8.7l9.7,0.5c2.2-1.3,13.2,2.9,15.9,2.9
		c2.5,0,11.2,4.7,12.9,5.8l68.6,41.8l14.7,8.9l83.3,50.5c1.2,0.8,6.5,4.7,7.2,5.8c1.2,1.8,2.7,3.4,3.2,5.5
		c1.5,5.3-1.5,11.1-8.2,15.3l-15.4,8.7c-5.2,3.2-26.6,11.6-31.3,8.7L316,612c-2.2,1.3-13.2-2.9-15.9-2.9c-2.5,0-11.2-4.7-12.9-5.8
		l-68.4-41.8l-14.7-8.9l-83.3-50.5c-1.2-0.8-6.5-4.7-7.2-5.8c-1.2-1.8-2.7-3.4-3.2-5.5C108.9,485.2,111.9,479.5,118.4,475.5z"/>
	<path class="st87" d="M120.4,477.1l14.9-8.2c6-3.7,25.1-10,30.3-6.8l9.5,1.8c1.5-1.1,12.9,4.2,15.2,4.2c1.7,0,11.2,5,12.4,5.8
		l66.4,40.3l14.2,8.7l80.3,49c1,0.5,6.7,4.5,7.2,5.3c1.7,1.6,2.7,3.2,3.5,5c1.5,5-1,10.8-7.7,14.7l-14.9,8.2
		c-6,3.7-25.1,10-30.3,6.8l-9.4-1.8c-1.5,1.1-12.9-4.2-15.2-4.2c-1.7,0-11.2-5-12.4-5.8L218,559.8l-14.2-8.7l-80.3-48.7
		c-1-0.5-6.7-4.5-7.2-5.3c-1.7-1.6-2.7-3.2-3.5-5C111.2,486.6,113.9,481,120.4,477.1z"/>
	<path class="st88" d="M122.1,478.7l14.4-7.9c6.7-4.2,23.9-8.7,29.6-5l9.2,2.9c1-0.5,12.9,5.5,14.4,5.5c1.2,0,10.9,5.5,11.7,6.1
		l63.9,39l13.7,8.2l77.3,47.1c0.7,0.5,6.7,4.2,7,5c1.7,1.3,3,2.9,3.5,4.7c1.7,4.7-0.7,10.3-7,14.2l-14.4,7.9
		c-6.7,4.2-23.9,8.7-29.6,5l-9.2-2.9c-1,0.5-12.9-5.5-14.4-5.5c-1.2,0-10.9-5.5-11.7-6.1l-63.9-39l-13.7-8.2l-77.3-47.1
		c-0.7-0.5-6.7-4.2-7-5c-1.7-1.3-3-2.9-3.5-4.7C113.4,487.9,115.9,482.6,122.1,478.7z"/>
	<path class="st89" d="M124.1,480.2l13.9-7.4c7.5-4.5,22.4-7.1,28.8-3.2l8.7,3.9c0.5-0.3,12.9,6.6,13.7,6.6c0.5,0,10.7,6.1,11.2,6.3
		l61.4,37.4l13.2,7.9l74.4,45.5c0.2,0.3,6.7,4.2,7,4.5c1.7,1.3,3,2.9,3.7,4.5c2,4.5-0.2,9.7-6.5,13.7l-13.9,7.4
		c-7.5,4.5-22.4,7.1-28.8,3.2l-8.7-3.9c-0.5,0.3-12.9-6.6-13.7-6.6c-0.5,0-10.7-6.1-11.2-6.3l-61.4-37.4l-13.2-7.9l-74.4-45.5
		c-0.2-0.3-6.7-4.2-7-4.5c-1.7-1.3-3-2.9-3.7-4.5C115.4,489.2,117.9,483.9,124.1,480.2z"/>
	<path class="st90" d="M305.6,610l-90.8-55.5L124,499c-7.2-4.5-6.2-12.1,2-17.1l13.4-7.1c8.2-5,20.9-5.5,28.1-1.3l90.8,55.5
		l90.8,55.5c7.2,4.5,6.2,12.1-2,17.1l-13.4,7.1C325.3,613.7,312.8,614.2,305.6,610z"/>
</g>
<path class="st91" d="M305.6,597.6l-158.9-97.1c-17.9-11.1-32.6-40.3-32.6-65.5V29.7c0-12.9-9.9-15.8-4-20.3
	c0.2-0.3,14.2-6.8,14.4-7.1c6.5-2.6,13.4-3.9,21.9,1.3l158.9,97.1c17.9,11.1,32.6,40.3,32.6,65.5v405.3c0,13.4-4,22.9-10.7,27.4
	c-0.5,0.3-17.2,8.7-17.7,8.9C303.9,610,313.3,602.4,305.6,597.6z"/>
<path class="st92" d="M290.5,605.3l-158.9-97.1c-18-11.1-32.6-40.3-32.6-65.6V37.3c0-25.3,14.4-36.8,32.6-26.1l158.9,97.1
	c17.9,11.1,32.6,40.3,32.6,65.5v405.3C322.8,604.5,308.4,616.1,290.5,605.3z"/>
<path class="st92" d="M103.5,445.5V39.4c0-22.1,12.7-32.4,28.3-22.6L290,113.4c15.7,9.5,28.4,35.3,28.4,57.6v405.8
	c0,22.1-12.7,32.4-28.4,22.6l-158.2-96.6C116.1,493.4,103.5,467.6,103.5,445.5z"/>
<linearGradient id="SVGID_71_" gradientUnits="userSpaceOnUse" x1="103.1392" y1="211.6188" x2="319.3472" y2="745.288" gradientTransform="matrix(1 0 0 1 0 -160)">
	<stop  offset="0" style="stop-color:#5FACB1"/>
	<stop  offset="1" style="stop-color:#2B7C56"/>
</linearGradient>
<path class="st93" d="M135.5,50.5c-12.4-7.6-22.4-1.6-22.4,13.4v388.7c0,15,9.9,33.4,22.4,41.1L286.7,586
	c12.4,7.6,22.4,1.6,22.4-13.4v-389c0-15-9.9-33.4-22.4-41.1L135.5,50.5z"/>
<path class="st94" d="M327.3,277.6v-30.3c0-3.9,2.2-8.4,5-10c2.7-1.6,5,0,5,3.9v30.3c0,3.9-2.2,8.4-5,10S327.3,281.3,327.3,277.6z"
	/>
<path class="st91" d="M330.3,281c-1.5,0-2-1.8-2-3.4v-30.3c0-3.4,2-7.6,4.5-8.9c0.5-0.3,1-0.5,1.5-0.5c1.5,0,2,1.8,2,3.4v30.3
	c0,3.4-2,7.6-4.5,8.9C331,280.8,330.5,281,330.3,281z"/>
<path class="st95" d="M113.2,404.8l195.6,118.6v-2.6L113.2,402.2V404.8z"/>
<path class="st95" d="M113.2,453l195.7,121.2v-2.6L113.2,450.3V453z"/>
<path class="st96" d="M111.4,346.3l197.5,120.5V265L111.4,144.4V346.3z"/>
<path class="st96" d="M111.4,347.9l197.5,120.5v-2.6L111.4,345V347.9z"/>
<path class="st97" d="M226.3,245.8l-114.6-70v133.7l114.6,70c5.5,3.4,9.9-0.3,9.9-7.9V265.8C236,258.1,231.8,249.2,226.3,245.8z"/>
<path class="st98" d="M215.6,346.5c0,7.6-5,10.8-11.4,6.8c-6.2-3.9-11.4-13.2-11.4-20.8c0-7.6,5-10.8,11.4-6.8
	S215.6,338.9,215.6,346.5z"/>
<path class="st99" d="M230,355.2c0,7.6-5,10.8-11.4,6.8c-6.2-3.9-11.4-13.2-11.4-20.8c0-7.6,5-10.8,11.4-6.8
	C225.1,338.4,230,347.6,230,355.2z"/>
<path class="st100" d="M116.9,250.2c0,0.3-0.2,0.8-0.5,0.5c-0.2-0.3-0.5-0.8-0.5-1.1v-0.8c0-0.3,0.2-0.8,0.5-0.5l5,2.9v4.7
	c0,0.5,0,0.5-0.2,0.8l-1.5,1.1c-0.2,0.3-0.2,0.3-0.2,0.8v3.2c0,0.5-0.2,0.8-0.5,0.5c-0.5-0.3-0.5-0.5-0.5-1.1v-3.9
	c0-0.5,0-0.5,0.2-0.8l1.5-1.1c0.2-0.3,0.2-0.3,0.2-1.1v-2.1L116.9,250.2z"/>
<path class="st100" d="M124.8,264.4l3.7,2.4c0.2,0.3,0.5,0.5,0.5,1.1c0,0.5-0.2,0.5-0.5,0.5l-5-2.9v-5.3c0-1.3,0.5-1.6,1.2-1.1
	l3,1.8V257l-3.7-2.4c-0.2-0.3-0.5-0.5-0.5-1.1c0-0.5,0.2-0.5,0.5-0.5l3.7,2.4c0.2,0.3,0.5,0.5,1,1.1c0.2,0.5,0.2,1.1,0.2,1.6v3.2
	c0,0.5,0,1.1-0.2,1.3c-0.2,0.3-0.5,0-1,0l-3.2-1.8v3.7h0.3V264.4z"/>
<path class="st100" d="M132.3,259.7c-0.2-0.3-0.5-0.5-0.5-1.1s0.2-0.5,0.5-0.5l3.7,2.4c0.7,0.3,1,1.3,1,2.4v3.2c0,0.5,0,1.1-0.5,1.3
	c0.2,0.8,0.5,1.1,0.5,1.8v3.2c0,0.8-0.5,1.3-1,1.1l-3.7-2.4c-0.2-0.3-0.5-0.5-0.5-1.1c0-0.5,0.2-0.5,0.5-0.5l3.7,2.4v-2.6
	c0-0.8-0.2-1.3-0.5-1.6l-2.2-1.3c-0.2-0.3-0.5-0.5-0.5-1.1c0-0.5,0.2-0.5,0.5-0.5l2.2,1.3c0.2,0.3,0.5,0,0.5-0.8v-2.6L132.3,259.7z"
	/>
<path class="st100" d="M144,265.2c0.5,0.3,1,1.3,1,2.4v9.2c0,0.8-0.5,1.3-1,1.1l-3.2-2.1c-0.7-0.3-1-1.3-1-2.4v-9.2
	c0-0.8,0.5-1.3,1-1.1L144,265.2z M144,276v-9.2l-3.2-2.1v9.2L144,276z"/>
<path class="st100" d="M156.7,274.4c0,0.3-0.2,0.8-0.5,0.5c-0.2-0.3-0.5-0.8-0.5-1.1V273c0-0.3,0.2-0.8,0.5-0.5l5,2.9v4.7
	c0,0.5,0,0.5-0.2,0.8l-1.5,1.1c-0.2,0.3-0.2,0.3-0.2,0.8v3.2c0,0.5-0.2,0.8-0.5,0.5c-0.5-0.3-0.5-0.5-0.5-1.1v-4.2
	c0-0.5,0-0.5,0.2-0.8l1.5-1.1c0.2-0.3,0.2-0.3,0.2-1.1v-2.1L156.7,274.4z"/>
<path class="st100" d="M164.6,279.4c0,0.3-0.2,0.8-0.5,0.5c-0.2-0.3-0.5-0.8-0.5-1.1V278c0-0.3,0.2-0.8,0.5-0.5l5,2.9v4.7
	c0,0.5,0,0.5-0.2,0.8l-1.5,1.1c-0.2,0.3-0.2,0.3-0.2,0.8v3.2c0,0.5-0.2,0.8-0.5,0.5c-0.5-0.3-0.5-0.5-0.5-1.1v-3.9
	c0-0.5,0-0.5,0.2-0.8l1.5-1.1c0.2-0.3,0.2-0.3,0.2-1.1v-2.4L164.6,279.4z"/>
<path class="st100" d="M172.6,284.2c0,0.3-0.2,0.8-0.5,0.5c-0.2-0.3-0.5-0.8-0.5-1.1v-0.8c0-0.3,0.2-0.8,0.5-0.5l5,2.9v4.7
	c0,0.5,0,0.5-0.2,0.8l-1.5,1.1c-0.2,0.3-0.2,0.3-0.2,0.8v3.2c0,0.5-0.2,0.8-0.5,0.5c-0.5-0.3-0.5-0.5-0.5-1.1v-3.9
	c0-0.5,0-0.5,0.2-0.8l1.5-1.1c0.2-0.3,0.2-0.3,0.2-1.1v-2.1L172.6,284.2z"/>
<path class="st100" d="M180.5,289.2c0,0.3-0.2,0.8-0.5,0.5c-0.2-0.3-0.5-0.8-0.5-1.1v-0.8c0-0.3,0.2-0.8,0.5-0.5l5,2.9v4.7
	c0,0.5,0,0.5-0.2,0.8l-1.5,1.1c-0.2,0.3-0.2,0.3-0.2,0.8v3.2c0,0.5-0.2,0.8-0.5,0.5c-0.5-0.3-0.5-0.5-0.5-1.1v-3.9
	c0-0.5,0-0.5,0.2-0.8l1.5-1.1c0.2-0.3,0.2-0.3,0.2-1.1v-2.1L180.5,289.2z"/>
<path class="st100" d="M199.9,299.2c0.5,0.3,1,1.3,1,2.4v9.2c0,0.8-0.5,1.3-1,1.1l-3.2-2.1c-0.7-0.3-1-1.3-1-2.4v-9.2
	c0-0.8,0.5-1.3,1-1.1L199.9,299.2z M199.9,310.2V301l-3.2-2.1v9.2L199.9,310.2z"/>
<path class="st100" d="M207.9,304.2c0.5,0.3,1,1.3,1,2.4v9.2c0,0.8-0.5,1.3-1,1.1l-3.2-2.1c-0.7-0.3-1-1.3-1-2.4v-9.2
	c0-0.8,0.5-1.3,1-1.1L207.9,304.2z M207.9,315v-9.2l-3.2-2.1v9.2L207.9,315z"/>
<path class="st100" d="M215.9,308.9c0.5,0.3,1,1.3,1,2.4v9.2c0,0.8-0.5,1.3-1,1.1l-3.2-2.1c-0.7-0.3-1-1.3-1-2.4v-9.2
	c0-0.8,0.5-1.3,1-1.1L215.9,308.9z M215.9,319.7v-9.2l-3.2-2.1v9.2L215.9,319.7z"/>
<path class="st100" d="M223.8,313.9c0.5,0.3,1,1.3,1,2.4v9.2c0,0.8-0.5,1.3-1,1.1l-3.2-2.1c-0.7-0.3-1-1.3-1-2.4v-9.2
	c0-0.8,0.5-1.3,1-1.1L223.8,313.9z M223.8,324.7v-9.2l-3.2-2.1v9.2L223.8,324.7z"/>
<path class="st101" d="M175.1,242.9l0.2,1.3c-0.5,0-1.2-0.3-2.2-0.8c-1.2-0.8-2.2-1.8-3-3.4c-0.7-1.3-1.2-2.9-1.2-4.7
	c0-1.6,0.5-2.6,1.2-3.2c0.7-0.5,2-0.3,3.2,0.5c1,0.5,1.5,1.1,2,1.8l-0.2,1.1c-0.5-0.5-1-1.1-1.7-1.6c-1-0.5-1.7-0.8-2.5-0.3
	c-0.5,0.3-1,1.3-1,2.6s0.2,2.6,1,3.7c0.5,1.1,1.5,2.1,2.5,2.6C173.8,242.6,174.6,242.9,175.1,242.9z"/>
<path class="st101" d="M176.6,245.2V240c0-1.1,0-1.8,0-2.4l1,0.5v1.6c0.2-0.5,0.2-0.8,0.7-0.8c0.2,0,0.7,0,1,0.3c0,0,0.2,0,0.2,0.3
	v1.3c0,0-0.2-0.3-0.5-0.3c-0.5-0.3-0.7-0.3-1,0c-0.2,0.3-0.5,0.5-0.5,1.1c0,0.3,0,0.3,0,0.5v3.9L176.6,245.2z"/>
<path class="st101" d="M185.8,247.1l-4.5-2.6c0,0.8,0.2,1.6,0.5,2.4c0.5,0.8,1,1.3,1.5,1.6c0.7,0.5,1.2,0.5,1.7,0.8l0.2,1.1
	c-0.5,0-1.2-0.3-2-0.8c-1-0.5-1.7-1.3-2.2-2.4c-0.5-1.1-0.7-2.1-0.7-3.4c0-1.1,0.2-2.1,0.7-2.4c0.5-0.5,1.2-0.5,2.2,0.3
	c0.5,0.3,1,0.8,1.2,1.1c0.2,0.5,0.7,1.1,0.7,1.3c0.2,0.5,0.2,1.1,0.5,1.3c0,0.5,0,0.8,0,1.3C185.8,246.8,185.8,247.1,185.8,247.1z
	 M181.3,243.6l3.2,2.1c0-0.5,0-1.1-0.2-1.8c-0.2-0.5-0.7-1.1-1.2-1.3c-0.5-0.3-1-0.3-1.2,0C181.5,242.6,181.3,242.9,181.3,243.6z"/>
<path class="st101" d="M191.5,243.1l1.2,0.8v9.2c0,0.5,0,1.3,0,2.1l-1-0.5v-1.3c-0.2,0.3-0.5,0.5-0.7,0.5s-0.7,0-1.2-0.3
	c-0.7-0.5-1.5-1.3-2-2.4c-0.5-1.1-0.7-2.1-0.7-3.2c0-1.3,0.2-2.1,0.7-2.4c0.5-0.5,1.2-0.3,2,0c0.5,0.3,0.7,0.5,1.2,1.1
	c0.2,0.5,0.5,0.8,0.7,1.3v-5L191.5,243.1L191.5,243.1z M191.5,251v-1.3c0-0.3,0-0.5,0-0.5c0-0.5-0.2-1.1-0.5-1.6
	c-0.2-0.5-0.7-0.8-1-1.1c-0.5-0.3-1-0.3-1.2,0s-0.5,1.1-0.5,1.8c0,0.8,0.2,1.6,0.5,2.4c0.2,0.8,0.7,1.3,1.2,1.6s0.7,0.3,1,0.3
	c0.2,0,0.5-0.3,0.5-0.8C191.5,251.5,191.5,251.3,191.5,251z"/>
<path class="st101" d="M194.5,245.8c0.2,0,0.2,0,0.5,0c0.2,0,0.5,0.3,0.5,0.5c0.2,0.3,0.2,0.5,0.2,0.8s0,0.5-0.2,0.5s-0.2,0-0.5,0
	c-0.2,0-0.2-0.3-0.5-0.5c-0.2-0.3-0.2-0.5-0.2-0.8C194.2,246,194.2,245.8,194.5,245.8z M195.5,256.8l-1.2-0.8v-7.6l1.2,0.8V256.8z"
	/>
<path class="st101" d="M197.7,249.2l1,0.3v1.8l1.7,1.1v1.1l-1.7-1.1v4.2c0,1.1,0.2,1.6,0.7,2.1c0.2,0.3,0.5,0.3,0.7,0.3v1.1
	c-0.2,0-0.7-0.3-1-0.5c-0.5-0.3-1-0.8-1.2-1.3s-0.5-1.3-0.5-2.4v-4.2l-1-0.5V250l1,0.5v-1.3H197.7z"/>
<path class="st101" d="M210.4,264.4l0.2,1.3c-0.5,0-1.2-0.3-2.2-0.8c-1.2-0.8-2.2-1.8-3-3.4c-0.7-1.3-1.2-2.9-1.2-4.7
	c0-1.6,0.5-2.6,1.2-3.2c0.7-0.5,2-0.3,3.2,0.5c1,0.5,1.5,1.1,2,1.8l-0.2,1.1c-0.5-0.5-1-1.1-1.7-1.6c-1-0.5-1.7-0.8-2.5-0.3
	c-0.5,0.3-1,1.3-1,2.6s0.2,2.6,1,3.7c0.5,1.1,1.5,2.1,2.5,2.6C209.1,264.2,209.9,264.4,210.4,264.4z"/>
<path class="st101" d="M216.1,264.7v2.9c0,0.8,0,1.3,0,1.8l-1-0.5v-1.1c-0.2,0.3-0.5,0.3-0.7,0.3s-0.7,0-1.2-0.3s-1-0.8-1.5-1.6
	c-0.2-0.5-0.5-1.3-0.5-1.8c0-0.8,0.2-1.3,1-1.6c0.7,0,1.5,0.3,2.7,1.1v-0.3c0-0.3,0-0.3,0-0.5c0-0.3,0-0.5-0.2-0.8
	c0-0.3-0.2-0.5-0.5-0.8c-0.2-0.3-0.5-0.5-0.7-0.5c-0.7-0.3-1.2-0.5-1.7-0.5l-0.2-1.1c0.5,0,1.2,0,2,0.5c0.7,0.5,1.5,1.3,1.7,2.1
	C216.1,262.9,216.1,263.9,216.1,264.7z M215.1,266.3V265c-1.7-1.1-2.7-1.1-2.7,0c0,0.5,0,0.8,0.2,1.1c0.2,0.3,0.5,0.5,0.7,0.8
	c0.5,0.3,0.7,0.3,1,0.3c0.2,0,0.5-0.3,0.5-0.5C215.1,266.5,215.1,266.3,215.1,266.3z"/>
<path class="st101" d="M218.1,270.5v-5.3c0-1.1,0-1.8,0-2.4l1,0.5v1.6c0.2-0.5,0.2-0.8,0.7-0.8c0.2,0,0.7,0,1,0.3c0,0,0.2,0,0.2,0.3
	v1.3c0,0-0.2-0.3-0.5-0.3c-0.5-0.3-0.7-0.3-1,0c-0.2,0.3-0.5,0.5-0.5,1.1c0,0.3,0,0.3,0,0.5v3.9L218.1,270.5z"/>
<path class="st101" d="M226.3,264.4l1.2,0.8v9.2c0,0.5,0,1.3,0,2.1l-1-0.5v-1.3c-0.2,0.3-0.5,0.5-0.7,0.5s-0.7,0-1.2-0.3
	c-0.7-0.5-1.5-1.3-2-2.4s-0.7-2.1-0.7-3.2c0-1.3,0.2-2.1,0.7-2.4c0.5-0.5,1.2-0.3,2,0c0.5,0.3,0.7,0.5,1.2,1.1
	c0.2,0.5,0.5,0.8,0.7,1.3v-5L226.3,264.4L226.3,264.4z M226.3,272.3V271c0-0.3,0-0.5,0-0.5c0-0.5-0.2-1.1-0.5-1.6
	c-0.2-0.5-0.7-0.8-1-1.1c-0.5-0.3-1-0.3-1.2,0s-0.5,1.1-0.5,1.8c0,0.8,0.2,1.6,0.5,2.4c0.2,0.8,0.7,1.3,1.2,1.6
	c0.5,0.3,0.7,0.3,1,0.3c0.2,0,0.5-0.3,0.5-0.8C226.3,272.9,226.3,272.6,226.3,272.3z"/>
<path class="st100" d="M134.8,301.3v-5.5h-1l-0.2-0.8h1.2l0.5,0.3v6.3L134.8,301.3z"/>
<path class="st100" d="M139,303.7v-5.5h-1l-0.2-0.8h1.2l0.5,0.3v6.3L139,303.7z"/>
<path class="st100" d="M141.8,305.8l-0.5-0.3l2.2-5.5l0.5,0.3L141.8,305.8z"/>
<path class="st100" d="M147.5,308.9l-3.2-2.1v-0.5l0.5-0.3c0.7-0.3,1.2-0.8,1.5-1.1c0.2-0.3,0.5-0.5,0.5-1.1c0-0.3,0-0.8-0.2-1.1
	c-0.2-0.3-0.5-0.5-0.7-0.8c-0.5-0.3-0.7-0.3-1-0.3l-0.2-0.8c0.5-0.3,1,0,1.5,0.3s1,0.8,1.2,1.3s0.5,1.1,0.5,1.6s-0.2,1.1-0.5,1.3
	c-0.2,0.3-0.7,0.5-1.2,1.1l-0.5,0.3l2.2,1.3v0.8h-0.4V308.9z"/>
<path class="st100" d="M148.7,304.2c0.2-0.3,0.7-0.3,1.2,0s1,0.8,1.2,1.6c0.2,0.8,0.5,1.6,0.5,2.6c0,1.1-0.2,1.8-0.5,2.1
	c-0.2,0.3-0.7,0.3-1.2,0s-1-0.8-1.2-1.6c-0.2-0.8-0.5-1.6-0.5-2.6C148.2,305.2,148.2,304.4,148.7,304.2z M150,304.7
	c-0.2-0.3-0.5,0-0.7,0.3s-0.2,0.8-0.2,1.8c0,0.8,0,1.6,0.2,2.1s0.5,1.1,0.7,1.1c0.2,0.3,0.5,0.3,0.7-0.3c0.2-0.3,0.2-1.1,0.2-1.8
	c0-0.8,0-1.6-0.2-2.1C150.5,305.2,150.2,305,150,304.7z"/>
<path class="st95" d="M147,387.6l-17.2-10.5l-1-4.2c0-0.5-0.5-0.8-0.7-1.1l-5.2-3.2c-0.5-0.3-0.7,0-0.7,0.5s0.2,1.1,0.7,1.3l4.7,2.9
	l6,23.7c0,0.5,0.5,0.8,0.7,1.1l1.7,1.1h-0.2c-0.7,0.5-0.7,2.1,0,3.4c0.7,1.6,2.2,2.4,3,1.8c0.7-0.5,0.7-2.1,0-3.4l-0.2-0.3l3.7,2.1
	H142c-0.7,0.5-0.7,2.1,0,3.4c0.7,1.6,2.2,2.4,3,1.8c0.7-0.5,0.7-2.1,0-3.4l-0.2-0.3l0.7,0.5c0.5,0.3,0.7,0,0.7-0.5s-0.2-1.1-0.7-1.3
	l-10.7-6.6l-1.2-4.7l12.4,7.6c1.2,0.8,2.2,0.3,2.2-0.8l1.2-5.8C149.7,390.8,148.5,388.4,147,387.6z"/>
<path class="st95" d="M147,440l-17.2-10.5l-1-4.2c0-0.5-0.5-0.8-0.7-1.1l-5.2-3.2c-0.5-0.3-0.7,0-0.7,0.5s0.2,1.1,0.7,1.3l4.7,2.9
	l6,23.7c0,0.5,0.5,0.8,0.7,1.1l1.7,1.1h-0.2c-0.7,0.5-0.7,2.1,0,3.4c0.7,1.6,2.2,2.4,3,1.8c0.7-0.5,0.7-2.1,0-3.4l-0.2-0.3l3.7,2.1
	H142c-0.7,0.5-0.7,2.1,0,3.4c0.7,1.6,2.2,2.4,3,1.8c0.7-0.5,0.7-2.1,0-3.4l-0.2-0.3l0.7,0.5c0.5,0.3,0.7,0,0.7-0.5s-0.2-1.1-0.7-1.3
	l-10.7-6.6l-1.2-4.7l12.4,7.6c1.2,0.8,2.2,0.3,2.2-0.8l1.2-5.8C149.7,443.4,148.5,440.8,147,440z"/>
<path class="st95" d="M236.7,445.5l-73.4-44.7v-5.3l73.4,44.7L236.7,445.5L236.7,445.5z"/>
<path class="st95" d="M202.9,437.1l-39.5-24v-5.3l39.5,24V437.1z"/>
<path class="st95" d="M236.7,501.6l-73.4-44.5v-5.5l73.4,44.7L236.7,501.6L236.7,501.6z"/>
<path class="st95" d="M202.9,493.1l-39.5-23.7v-5.5l39.5,24V493.1z"/>
<path class="st95" d="M253.7,464.2l-8.5-5.3v-1.8l1.5-0.8c1.7-0.8,2.7-1.6,3.5-2.1c0.7-0.5,1-1.3,1-2.4c0-0.8-0.2-1.6-0.5-2.1
	c-0.2-0.8-1-1.3-1.7-1.8c-1-0.5-1.7-0.8-2.7-0.3l-0.7-2.4c1-0.5,2.5-0.3,4,0.8c1.2,0.8,2.5,1.8,3,3.2c0.7,1.3,1,2.6,1,3.9
	s-0.2,2.1-1,2.9c-0.7,0.8-1.5,1.3-3,2.1l-1,0.5l5.2,3.2v2.4H253.7z"/>
<path class="st95" d="M263.6,454.7v2.4l-5-2.9l-0.2,2.9c0.2,0,0.5,0.3,1,0.5c1.2,0.8,2.2,1.8,3,2.9c1,1.6,1.7,3.2,1.7,5
	c0,1.6-0.5,2.4-1.5,2.9s-2.2,0.3-3.7-0.8c-1.2-0.8-2.5-1.8-3.5-2.9l0.5-1.8c0.7,1.1,1.7,1.8,2.7,2.6c0.7,0.5,1.5,0.5,2,0.5
	c0.5-0.3,0.7-0.8,0.7-1.6c0-1.8-1.2-3.7-3.5-5c-0.5-0.3-1-0.5-1.7-0.8l0.7-7.4L263.6,454.7z"/>
<path class="st95" d="M270.6,458.7c1.5,0.8,2.5,2.4,3.2,4.2c0.7,1.8,1.2,3.9,1.2,6.3c0,2.6-0.5,4.2-1.2,5.3c-0.7,1.1-2,1.1-3.5,0
	c-1.5-0.8-2.5-2.4-3.2-4.2c-0.7-1.8-1.2-3.9-1.2-6.6c0-2.4,0.5-4.2,1.2-5C267.8,457.9,269.1,457.9,270.6,458.7z M270.3,461
	c-0.7-0.5-1.2-0.3-1.5,0.5c-0.5,0.8-0.5,2.1-0.5,3.9s0.2,3.4,0.5,4.5c0.5,1.3,1,2.1,1.5,2.4c1.5,0.8,2.2-0.5,2.2-4.5
	C272.6,464.2,271.8,461.8,270.3,461z"/>
<path class="st95" d="M281,465.2c1.5,0.8,2.5,2.4,3.2,4.2c0.7,1.8,1.2,3.9,1.2,6.3c0,2.6-0.5,4.2-1.2,5.3c-0.7,1.1-2,1.1-3.5,0
	c-1.5-0.8-2.5-2.4-3.2-4.2c-0.7-1.8-1.2-3.9-1.2-6.6c0-2.4,0.5-4.2,1.2-5C278.3,464.2,279.5,464.2,281,465.2z M280.8,467.4
	c-0.7-0.5-1.2-0.3-1.5,0.5c-0.5,0.8-0.5,2.1-0.5,3.9s0.2,3.4,0.5,4.5c0.5,1.3,1,2.1,1.5,2.4c1.5,0.8,2.2-0.5,2.2-4.5
	C283,470.5,282.3,468.1,280.8,467.4z"/>
<path class="st95" d="M290.7,479.5l5,3.2v2.1l-5-3.2V479.5z"/>
<path class="st95" d="M255.9,510l8.5,5.3v1.8l-5.5,10.3l-2.5-1.6l5.2-9.7l-6-3.7V510H255.9z"/>
<path class="st95" d="M274.1,521v2.4l-5-2.9l-0.2,2.9c0.2,0,0.5,0.3,1,0.5c1.2,0.8,2.2,1.8,3,2.9c1,1.6,1.7,3.2,1.7,5
	c0,1.6-0.5,2.4-1.5,2.9s-2.2,0.3-3.7-0.8c-1.2-0.8-2.5-1.8-3.5-2.9l0.5-1.8c0.7,1.1,1.7,1.8,2.7,2.6c0.7,0.5,1.5,0.5,2,0.5
	c0.5-0.3,0.7-0.8,0.7-1.6c0-1.8-1.2-3.7-3.5-5c-0.5-0.3-1-0.5-1.7-0.8l0.7-7.4L274.1,521z"/>
<path class="st95" d="M281,525c1.5,0.8,2.5,2.4,3.2,4.2s1.2,3.9,1.2,6.3c0,2.6-0.5,4.2-1.2,5.3s-2,1.1-3.5,0
	c-1.5-0.8-2.5-2.4-3.2-4.2s-1.2-3.9-1.2-6.6c0-2.4,0.5-4.2,1.2-5C278.3,524.2,279.5,524.2,281,525z M280.8,527.4
	c-0.7-0.5-1.2-0.3-1.5,0.5c-0.2,0.8-0.5,2.1-0.5,3.9c0,1.8,0.2,3.4,0.5,4.5c0.5,1.3,1,2.1,1.5,2.4c1.5,0.8,2.2-0.5,2.2-4.5
	C283,530.5,282.3,528.1,280.8,527.4z"/>
<path class="st102" d="M290.7,539.5l5,3.2v2.1l-5-3.2V539.5z"/>
<path class="st95" d="M147,488.9l-17.2-10.5l-1-4.2c0-0.5-0.5-0.8-0.7-1.1l-5.2-3.2c-0.5-0.3-0.7,0-0.7,0.5s0.2,1.1,0.7,1.3l4.7,2.9
	l4.2,16.6c0.7,0.5,1.7,1.3,2.5,1.8l12.9,7.9c0.5,0,1-0.5,1.2-1.1l1.2-5.8C149.7,492.4,148.5,490,147,488.9z"/>
<path class="st95" d="M236.7,550.8L163.4,506v-5.3l73.4,44.5L236.7,550.8L236.7,550.8z"/>
<linearGradient id="SVGID_72_" gradientUnits="userSpaceOnUse" x1="178.61" y1="577.9899" x2="219.408" y2="577.9899" gradientTransform="matrix(1 0 0 1 0 -160)">
	<stop  offset="0" style="stop-color:#FFBB96"/>
	<stop  offset="0.2273" style="stop-color:#FFFBC9"/>
	<stop  offset="0.5404" style="stop-color:#F9B673"/>
	<stop  offset="0.6391" style="stop-color:#F9B876"/>
	<stop  offset="0.7249" style="stop-color:#FABE81"/>
	<stop  offset="0.8057" style="stop-color:#FCC993"/>
	<stop  offset="0.8586" style="stop-color:#FED2A3"/>
	<stop  offset="0.9697" style="stop-color:#FFC28C"/>
</linearGradient>
<path class="st103" d="M200.9,393.9l3.5,14.5c0.2,1.3,1,2.4,2,2.9l10.7,6.8c2,1.3,3,5,1.2,5.5l-8.7,2.6c-0.7,0.3-1,1.1-0.7,2.4
	l3.2,14.5c0.5,2.6-1.5,3.4-3.2,0.8l-9-12.9c-0.7-1.1-1.7-1.6-2.5-1.6l-9,2.1c-1.7,0.3-3.7-2.9-3.2-5l3.2-10.5c0.2-0.8,0-2.1-0.7-3.2
	l-8.7-13.2c-1.5-2.4-0.7-5,1.2-3.9l10.7,6.3c1,0.5,1.7,0.3,2-0.5l3.5-10.3C197.7,389.5,200.4,391,200.9,393.9z"/>
<linearGradient id="SVGID_73_" gradientUnits="userSpaceOnUse" x1="250.9243" y1="672.252" x2="124.4453" y2="457.5379" gradientTransform="matrix(1 0 0 1 0 -160)">
	<stop  offset="3.535350e-02" style="stop-color:#FFBA78"/>
	<stop  offset="0.395" style="stop-color:#FFC987"/>
	<stop  offset="1" style="stop-color:#FEECA8"/>
</linearGradient>
<path class="st104" d="M198.7,395l3.5,14.5c0.2,1.3,1,2.4,2,2.9l10.7,6.8c2,1.3,3,5,1.2,5.5l-8.7,2.6c-0.7,0.3-1,1.1-0.7,2.4
	l3.2,14.5c0.5,2.6-1.5,3.4-3.2,0.8l-9-12.9c-0.7-1.1-1.7-1.6-2.5-1.6l-9,2.1c-1.7,0.3-3.7-2.9-3.2-5l3.2-10.5c0.2-0.8,0-2.1-0.7-3.2
	l-8.7-13.2c-1.5-2.4-0.7-5,1.2-3.9l10.7,6.3c1,0.5,1.7,0.3,2-0.5l3.5-10.3C195.2,390.8,198,392.3,198.7,395z"/>
<linearGradient id="SVGID_74_" gradientUnits="userSpaceOnUse" x1="277.2" y1="501.4228" x2="324.608" y2="501.4228" gradientTransform="matrix(1 0 0 1 0 -160)">
	<stop  offset="0" style="stop-color:#FFBB96"/>
	<stop  offset="0.2273" style="stop-color:#FFFBC9"/>
	<stop  offset="0.5404" style="stop-color:#F9B673"/>
	<stop  offset="0.6391" style="stop-color:#F9B876"/>
	<stop  offset="0.7249" style="stop-color:#FABE81"/>
	<stop  offset="0.8057" style="stop-color:#FCC993"/>
	<stop  offset="0.8586" style="stop-color:#FED2A3"/>
	<stop  offset="0.9697" style="stop-color:#FFC28C"/>
</linearGradient>
<path class="st105" d="M303.1,313.4l4.2,16.8c0.2,1.3,1.2,2.9,2.2,3.4l12.4,7.9c2.2,1.6,3.2,5.8,1.5,6.3l-9.9,3.2
	c-0.7,0.3-1.2,1.3-1,2.6l3.7,16.8c0.7,3.2-1.7,3.9-3.7,1.1l-10.2-15c-0.7-1.3-2-1.8-2.7-1.8l-10.2,2.4c-2,0.5-4.5-3.4-3.7-5.8
	l3.7-12.4c0.2-1.1,0-2.6-1-3.7l-9.9-15.3c-2-2.9-1-5.8,1.5-4.5l12.4,7.4c1,0.5,2,0.3,2.2-0.5l4.2-11.8
	C299.4,308.4,302.4,310.2,303.1,313.4z"/>
<linearGradient id="SVGID_75_" gradientUnits="userSpaceOnUse" x1="361.2838" y1="611.0919" x2="214.3147" y2="361.5961" gradientTransform="matrix(1 0 0 1 0 -160)">
	<stop  offset="3.535350e-02" style="stop-color:#FFBA78"/>
	<stop  offset="0.395" style="stop-color:#FFC987"/>
	<stop  offset="1" style="stop-color:#FEECA8"/>
</linearGradient>
<path class="st106" d="M300.4,315l4.2,16.8c0.2,1.3,1.2,2.9,2.2,3.4l12.4,7.9c2.2,1.6,3.2,5.8,1.5,6.3l-9.9,3.2
	c-0.7,0.3-1.2,1.3-1,2.6l3.7,16.8c0.7,3.2-1.7,3.9-3.7,1.1l-10.2-15c-0.7-1.3-2-1.8-2.7-1.8l-10.2,2.4c-2,0.5-4.5-3.4-3.7-5.8
	l3.7-12.4c0.2-1.1,0-2.6-1-3.7l-9.9-15.3c-2-2.9-1-5.8,1.5-4.5l12.4,7.4c1,0.5,2,0.3,2.2-0.5l4.2-11.8
	C296.7,310,299.7,311.8,300.4,315z"/>
<linearGradient id="SVGID_76_" gradientUnits="userSpaceOnUse" x1="250.694" y1="428.6633" x2="284.113" y2="428.6633" gradientTransform="matrix(1 0 0 1 0 -160)">
	<stop  offset="0" style="stop-color:#FFBB96"/>
	<stop  offset="0.2273" style="stop-color:#FFFBC9"/>
	<stop  offset="0.5404" style="stop-color:#F9B673"/>
	<stop  offset="0.6391" style="stop-color:#F9B876"/>
	<stop  offset="0.7249" style="stop-color:#FABE81"/>
	<stop  offset="0.8057" style="stop-color:#FCC993"/>
	<stop  offset="0.8586" style="stop-color:#FED2A3"/>
	<stop  offset="0.9697" style="stop-color:#FFC28C"/>
</linearGradient>
<path class="st107" d="M269.1,249.2l3,11.8c0.2,1.1,1,1.8,1.7,2.4l8.7,5.5c1.7,1.1,2.2,3.9,1,4.5l-7,2.1c-0.5,0.3-0.7,1.1-0.5,1.8
	l2.5,11.8c0.5,2.1-1.2,2.6-2.7,0.8l-7.2-10.5c-0.5-0.8-1.5-1.3-2-1.3l-7.2,1.6c-1.2,0.3-3.2-2.4-2.7-3.9l2.5-8.7
	c0.2-0.8,0-1.8-0.5-2.6l-7-10.8c-1.2-2.1-0.7-4.2,1-3.2l8.7,5.3c0.7,0.5,1.5,0.3,1.7-0.5l3-8.4C266.3,245.5,268.6,246.8,269.1,249.2
	z"/>
<linearGradient id="SVGID_77_" gradientUnits="userSpaceOnUse" x1="310.1754" y1="506.0096" x2="206.5764" y2="330.1356" gradientTransform="matrix(1 0 0 1 0 -160)">
	<stop  offset="3.535350e-02" style="stop-color:#FFBA78"/>
	<stop  offset="0.395" style="stop-color:#FFC987"/>
	<stop  offset="1" style="stop-color:#FEECA8"/>
</linearGradient>
<path class="st108" d="M267.1,250.2l3,11.8c0.2,1.1,1,1.8,1.7,2.4l8.7,5.5c1.7,1.1,2.2,3.9,1,4.5l-7,2.1c-0.5,0.3-0.7,1.1-0.5,1.8
	l2.5,11.8c0.5,2.1-1.2,2.6-2.7,0.8l-7.2-10.5c-0.5-0.8-1.5-1.3-2-1.3l-7.2,1.6c-1.2,0.3-3.2-2.4-2.7-3.9l2.5-8.7
	c0.2-0.8,0-1.8-0.5-2.6l-7-10.8c-1.2-2.1-0.7-4.2,1-3.2l8.7,5.3c0.7,0.5,1.5,0.3,1.7-0.5l3-8.4C264.4,246.5,266.6,247.9,267.1,250.2
	z"/>
<linearGradient id="SVGID_78_" gradientUnits="userSpaceOnUse" x1="235.408" y1="561.9569" x2="291.559" y2="561.9569" gradientTransform="matrix(1 0 0 1 0 -160)">
	<stop  offset="0" style="stop-color:#FFBB96"/>
	<stop  offset="0.2273" style="stop-color:#FFFBC9"/>
	<stop  offset="0.5404" style="stop-color:#F9B673"/>
	<stop  offset="0.6391" style="stop-color:#F9B876"/>
	<stop  offset="0.7249" style="stop-color:#FABE81"/>
	<stop  offset="0.8057" style="stop-color:#FCC993"/>
	<stop  offset="0.8586" style="stop-color:#FED2A3"/>
	<stop  offset="0.9697" style="stop-color:#FFC28C"/>
</linearGradient>
<path class="st109" d="M266.3,368.9l5,20c0.5,1.6,1.5,3.2,2.7,3.9l14.9,9.5c2.7,1.8,4,6.8,1.7,7.4l-11.9,3.7c-1,0.3-1.5,1.6-1,3.2
	l4.2,19.7c0.7,3.7-2.2,4.5-4.5,1.3L265.3,420c-1-1.6-2.2-2.4-3.5-2.1l-12.2,2.9c-2.2,0.5-5.2-3.9-4.5-6.8l4.2-14.7
	c0.2-1.3,0-2.9-1-4.5l-11.9-18.2c-2.2-3.4-1-7.1,1.7-5.3L253,380c1.2,0.8,2.2,0.5,2.7-0.8l5-13.9
	C261.6,362.9,265.3,365.2,266.3,368.9z"/>
<linearGradient id="SVGID_79_" gradientUnits="userSpaceOnUse" x1="334.9323" y1="692.0388" x2="160.8584" y2="396.5257" gradientTransform="matrix(1 0 0 1 0 -160)">
	<stop  offset="3.535350e-02" style="stop-color:#FFBA78"/>
	<stop  offset="0.395" style="stop-color:#FFC987"/>
	<stop  offset="1" style="stop-color:#FEECA8"/>
</linearGradient>
<path class="st110" d="M262.9,370.8l5,20c0.5,1.6,1.5,3.2,2.7,3.9l14.9,9.5c2.7,1.8,4,6.8,1.7,7.4l-11.9,3.7c-1,0.3-1.5,1.6-1,3.2
	l4.2,19.7c0.7,3.7-2.2,4.5-4.5,1.3l-12.2-17.6c-1-1.6-2.2-2.4-3.5-2.1l-12.2,2.9c-2.2,0.5-5.2-3.9-4.5-6.8l4.2-14.7
	c0.2-1.3,0-2.9-1-4.5L233,378.4c-2.2-3.4-1-7.1,1.7-5.3l14.9,8.7c1.2,0.8,2.2,0.5,2.7-0.8l5-13.9
	C258.4,364.7,262.1,367.1,262.9,370.8z"/>
<path class="st111" d="M76.8,131.5l-27.6-16.8l60.2-66.3c6-6.6,15.2-7.9,22.6-3.4l15.2,9.2L76.8,131.5z"/>
<linearGradient id="SVGID_80_" gradientUnits="userSpaceOnUse" x1="302.4277" y1="50.0935" x2="140.4985" y2="243.3676" gradientTransform="matrix(1 0 0 1 0 -160)">
	<stop  offset="0" style="stop-color:#9F79C8"/>
	<stop  offset="0.1409" style="stop-color:#A27DCA"/>
	<stop  offset="0.2725" style="stop-color:#AC88CF"/>
	<stop  offset="0.4" style="stop-color:#BC9BD7"/>
	<stop  offset="0.5202" style="stop-color:#D1B4E3"/>
	<stop  offset="0.6493" style="stop-color:#DBC4E9"/>
	<stop  offset="0.8997" style="stop-color:#F4EDF8"/>
	<stop  offset="1" style="stop-color:#FFFFFF"/>
</linearGradient>
<path class="st112" d="M104.2,148.4l-27.6-16.8L147,53.9l27.6,16.8L104.2,148.4z"/>
<path class="st111" d="M131.8,165.2l-27.6-16.8l70.4-77.6l27.6,16.8L131.8,165.2z"/>
<linearGradient id="SVGID_81_" gradientUnits="userSpaceOnUse" x1="351.2595" y1="91.0051" x2="189.3313" y2="284.2785" gradientTransform="matrix(1 0 0 1 0 -160)">
	<stop  offset="0" style="stop-color:#9F79C8"/>
	<stop  offset="0.1409" style="stop-color:#A27DCA"/>
	<stop  offset="0.2725" style="stop-color:#AC88CF"/>
	<stop  offset="0.4" style="stop-color:#BC9BD7"/>
	<stop  offset="0.5202" style="stop-color:#D1B4E3"/>
	<stop  offset="0.6493" style="stop-color:#DBC4E9"/>
	<stop  offset="0.8997" style="stop-color:#F4EDF8"/>
	<stop  offset="1" style="stop-color:#FFFFFF"/>
</linearGradient>
<path class="st113" d="M159.2,182.1L131.6,165L202,87.6l27.6,16.8L159.2,182.1z"/>
<path class="st111" d="M186.8,198.9l-27.6-17.1l70.4-77.4l27.6,16.8L186.8,198.9z"/>
<linearGradient id="SVGID_82_" gradientUnits="userSpaceOnUse" x1="400.0583" y1="131.8882" x2="238.1292" y2="325.1619" gradientTransform="matrix(1 0 0 1 0 -160)">
	<stop  offset="0" style="stop-color:#9F79C8"/>
	<stop  offset="0.1409" style="stop-color:#A27DCA"/>
	<stop  offset="0.2725" style="stop-color:#AC88CF"/>
	<stop  offset="0.4" style="stop-color:#BC9BD7"/>
	<stop  offset="0.5202" style="stop-color:#D1B4E3"/>
	<stop  offset="0.6493" style="stop-color:#DBC4E9"/>
	<stop  offset="0.8997" style="stop-color:#F4EDF8"/>
	<stop  offset="1" style="stop-color:#FFFFFF"/>
</linearGradient>
<path class="st114" d="M214.1,215.5l-27.6-16.8l70.4-77.6l27.6,16.8L214.1,215.5z"/>
<path class="st111" d="M241.5,232.3l65.7-72.4c-2.7-5.8-6.5-10.8-10.9-14.7l-11.9-7.4L214,215.4L241.5,232.3z"/>
<path class="st115" d="M63.2,152.6c-7.7-4.7-13.9-17.1-13.9-27.9v-10.3l27.6,16.8v10.3C76.8,152.3,70.6,157.3,63.2,152.6z"/>
<linearGradient id="SVGID_83_" gradientUnits="userSpaceOnUse" x1="124.817" y1="230.8896" x2="61.192" y2="371.7767" gradientTransform="matrix(1 0 0 1 0 -160)">
	<stop  offset="0" style="stop-color:#9F79C8"/>
	<stop  offset="0.1409" style="stop-color:#A27DCA"/>
	<stop  offset="0.2725" style="stop-color:#AC88CF"/>
	<stop  offset="0.4" style="stop-color:#BC9BD7"/>
	<stop  offset="0.5202" style="stop-color:#D1B4E3"/>
	<stop  offset="0.6493" style="stop-color:#DBC4E9"/>
	<stop  offset="0.8997" style="stop-color:#F4EDF8"/>
	<stop  offset="1" style="stop-color:#FFFFFF"/>
</linearGradient>
<path class="st116" d="M90.5,169.4c-7.7-4.7-13.9-17.1-13.9-27.9v-10.3l27.6,16.8v10.3C104.2,169.2,98,174.2,90.5,169.4z"/>
<path class="st115" d="M118.1,186.3c-7.7-4.7-13.9-17.1-13.9-27.9v-10.3l27.6,16.8v10.3C131.8,186,125.6,191,118.1,186.3z"/>
<linearGradient id="SVGID_84_" gradientUnits="userSpaceOnUse" x1="183.1253" y1="257.2207" x2="119.4994" y2="398.1078" gradientTransform="matrix(1 0 0 1 0 -160)">
	<stop  offset="0" style="stop-color:#9F79C8"/>
	<stop  offset="0.1409" style="stop-color:#A27DCA"/>
	<stop  offset="0.2725" style="stop-color:#AC88CF"/>
	<stop  offset="0.4" style="stop-color:#BC9BD7"/>
	<stop  offset="0.5202" style="stop-color:#D1B4E3"/>
	<stop  offset="0.6493" style="stop-color:#DBC4E9"/>
	<stop  offset="0.8997" style="stop-color:#F4EDF8"/>
	<stop  offset="1" style="stop-color:#FFFFFF"/>
</linearGradient>
<path class="st117" d="M145.5,203.1c-7.7-4.7-13.9-17.1-13.9-27.9V165l27.6,16.8v10.3C159.2,202.6,152.9,207.6,145.5,203.1z"/>
<path class="st115" d="M173.1,220c-7.7-4.7-13.9-17.1-13.9-27.9v-10.3l27.6,16.8v10.3C186.8,219.4,180.5,224.4,173.1,220z"/>
<linearGradient id="SVGID_85_" gradientUnits="userSpaceOnUse" x1="241.2705" y1="283.4786" x2="177.6444" y2="424.3669" gradientTransform="matrix(1 0 0 1 0 -160)">
	<stop  offset="0" style="stop-color:#9F79C8"/>
	<stop  offset="0.1409" style="stop-color:#A27DCA"/>
	<stop  offset="0.2725" style="stop-color:#AC88CF"/>
	<stop  offset="0.4" style="stop-color:#BC9BD7"/>
	<stop  offset="0.5202" style="stop-color:#D1B4E3"/>
	<stop  offset="0.6493" style="stop-color:#DBC4E9"/>
	<stop  offset="0.8997" style="stop-color:#F4EDF8"/>
	<stop  offset="1" style="stop-color:#FFFFFF"/>
</linearGradient>
<path class="st118" d="M200.4,236.5c-7.7-4.7-13.9-17.1-13.9-27.9v-10.3l27.6,16.8v10.3C214.1,236.3,207.9,241.3,200.4,236.5z"/>
<path class="st115" d="M227.8,253.4c-7.7-4.7-13.9-17.1-13.9-27.9v-10.3l27.6,16.8v10.3C241.5,253.1,235.3,257.9,227.8,253.4z"/>
<path class="st119" d="M241.5,242.3l70.1-38.7c0-11.3,0-22.6,0-23.2c0-7.4-1.7-14.2-4.5-20.5L241.4,232L241.5,242.3L241.5,242.3z"/>
</svg>
