<?xml version="1.0" encoding="utf-8"?>
<!-- Generator: Adobe Illustrator 21.1.0, SVG Export Plug-In . SVG Version: 6.00 Build 0)  -->
<svg version="1.1" id="Layer_1" xmlns="http://www.w3.org/2000/svg" xmlns:xlink="http://www.w3.org/1999/xlink" x="0px"
     y="0px"
     viewBox="0 0 485 476" style="enable-background:new 0 0 485 476;" xml:space="preserve">
<style type="text/css">
	.st0{fill:#155638;}
	.st1{fill:url(#SVGID_1_);}
	.st2{opacity:0.7;fill-opacity:0.4;enable-background:new    ;}
	.st3{fill:#FFFFFF;}
	.st4{opacity:0.7;}
	.st5{fill:#FFDB98;}
</style>
    <path class="st0" d="M264.8,471l125.1-76.5c10.4-6.4,9-17.4-2.9-24.6L172.4,238.8c-11.9-7.2-29.9-8-40.3-1.8L7,313.5
	c-10.4,6.4-9,17.4,2.9,24.6l214.6,131.1C236.5,476.6,254.4,477.4,264.8,471z"/>
    <linearGradient id="SVGID_1_" gradientUnits="userSpaceOnUse" x1="6.287191e-07" y1="127.456" x2="396.8906"
                    y2="127.456" gradientTransform="matrix(1 0 0 -1 0 478)">
	<stop offset="0" style="stop-color:#5FACB1"/>
        <stop offset="1" style="stop-color:#2B7C56"/>
</linearGradient>
    <path class="st1" d="M264.8,467.6L389.9,391c10.4-6.4,9-17.4-2.9-24.6L172.4,235.3c-11.9-7.2-29.9-8-40.3-1.8L7,309.9
	c-10.4,6.4-9,17.4,2.9,24.6l214.6,131.1C236.5,473,254.4,473.8,264.8,467.6z"/>
    <path class="st2" d="M257.1,423.3c1.7,1,3.6,1.5,5.7,1.1c2.2-0.3,4.5-1.1,7-2.6c2.6-1.6,4-2.9,4.5-4.3c0.5-1.3-0.3-2.5-2-3.4
	s-3.6-1.5-5.7-1.1c-2.2,0.3-4.5,1.1-7,2.6c-2.6,1.6-4,2.9-4.5,4.3C254.6,421,255.4,422.2,257.1,423.3z M259.5,421.7
	c-0.8-0.5-0.8-1-0.3-1.6c0.5-0.7,1.5-1.6,3.4-2.6c1.9-1.1,3.3-1.8,4.3-2.1c1.1-0.3,2-0.2,2.8,0.2c0.8,0.5,0.9,1,0.3,1.6
	c-0.5,0.7-1.5,1.6-3.4,2.6c-1.9,1.1-3.3,1.8-4.3,2.1C261.2,422.2,260.3,422.2,259.5,421.7z M232.6,408.4c1.7,1,3.6,1.5,5.7,1.1
	c2.2-0.3,4.5-1.1,7-2.6c2.6-1.6,4-3,4.5-4.3c0.5-1.3-0.3-2.5-2-3.4c-1.7-1-3.6-1.5-5.7-1.1c-2.2,0.3-4.5,1.1-7,2.6
	c-2.6,1.6-4,2.9-4.5,4.3C230.3,406.1,230.9,407.3,232.6,408.4z M235.2,406.8c-0.8-0.5-0.8-1-0.3-1.6c0.5-0.7,1.5-1.6,3.4-2.6
	c1.9-1.1,3.3-1.8,4.3-2.1s2-0.2,2.8,0.2c0.8,0.5,0.9,1,0.3,1.6c-0.5,0.7-1.5,1.6-3.4,2.6c-1.9,1.1-3.3,1.8-4.3,2.1
	C236.8,407.3,235.8,407.3,235.2,406.8z M244.8,415.8c1.7,1,3.6,1.5,5.7,1.1s4.5-1.1,7-2.6c2.6-1.6,4-3,4.5-4.3
	c0.5-1.3-0.3-2.5-2-3.4c-1.7-1-3.6-1.5-5.7-1.1c-2.2,0.3-4.5,1.1-7,2.6c-2.6,1.6-4,2.9-4.5,4.3C242.5,413.6,243.1,414.8,244.8,415.8
	z M247.3,414.3c-0.8-0.5-0.8-1-0.3-1.6c0.5-0.7,1.5-1.6,3.4-2.6c1.9-1.1,3.3-1.8,4.3-2.1c1.1-0.3,2-0.2,2.8,0.2
	c0.8,0.5,0.9,1,0.3,1.6c-0.5,0.7-1.5,1.6-3.4,2.6c-1.9,1.1-3.3,1.8-4.3,2.1S248.1,414.8,247.3,414.3z M269.3,430.7
	c1.7,1,3.6,1.5,5.7,1.1c2.2-0.3,4.5-1.1,7-2.6c2.6-1.6,4-2.9,4.5-4.3c0.5-1.3-0.3-2.5-2-3.4c-1.7-1-3.6-1.5-5.7-1.1
	c-2.2,0.3-4.5,1.1-7,2.6c-2.6,1.6-4,2.9-4.5,4.3C266.8,428.6,267.6,429.7,269.3,430.7z M271.8,429.2c-0.8-0.5-0.8-1-0.3-1.6
	c0.5-0.7,1.5-1.6,3.4-2.6c1.9-1.1,3.3-1.8,4.3-2.1c1.1-0.3,2-0.2,2.8,0.2c0.8,0.5,0.9,1,0.3,1.6c-0.5,0.7-1.5,1.6-3.4,2.6
	c-1.9,1.1-3.3,1.8-4.3,2.1S272.5,429.7,271.8,429.2z M203.3,390.4c1.7,1,3.6,1.5,5.7,1.1s4.5-1.1,7-2.6c2.6-1.6,4-2.9,4.5-4.3
	c0.5-1.3-0.3-2.5-2-3.4c-1.7-1-3.6-1.5-5.7-1.1c-2.2,0.3-4.5,1.1-7,2.6c-2.6,1.6-4,2.9-4.5,4.3C200.8,388.1,201.5,389.4,203.3,390.4
	z M205.8,388.9c-0.8-0.5-0.8-1-0.3-1.6c0.5-0.7,1.5-1.6,3.4-2.6c1.9-1.1,3.3-1.8,4.3-2.1c1.1-0.3,2-0.2,2.8,0.2
	c0.8,0.5,0.9,1,0.3,1.6c-0.5,0.7-1.5,1.6-3.4,2.6c-1.9,1.1-3.3,1.8-4.3,2.1S206.6,389.2,205.8,388.9z M178.9,375.5
	c1.7,1,3.6,1.5,5.7,1.1s4.5-1.1,7-2.6c2.6-1.6,4-3,4.5-4.3c0.5-1.3-0.3-2.5-2-3.4c-1.7-1-3.6-1.5-5.7-1.1s-4.5,1.1-7,2.6
	c-2.6,1.6-4,3-4.5,4.3C176.5,373.2,177.2,374.5,178.9,375.5z M181.3,374c-0.8-0.5-0.8-1-0.3-1.6c0.5-0.7,1.5-1.6,3.4-2.6
	c1.9-1.1,3.3-1.8,4.3-2.1c1.1-0.3,2-0.2,2.8,0.2c0.8,0.5,0.9,1,0.3,1.6c-0.5,0.7-1.5,1.6-3.4,2.6c-1.9,1.1-3.3,1.8-4.3,2.1
	C183,374.5,182.1,374.3,181.3,374z M191.1,383c1.7,1,3.6,1.5,5.7,1.1c2.2-0.3,4.5-1.1,7-2.6c2.6-1.6,4-2.9,4.5-4.3
	c0.5-1.3-0.3-2.5-2-3.4c-1.7-1-3.6-1.5-5.7-1.1c-2.2,0.3-4.5,1.1-7,2.6c-2.6,1.6-4,2.9-4.5,4.3C188.6,380.7,189.4,381.9,191.1,383z
	 M193.6,381.4c-0.8-0.5-0.8-1-0.3-1.6c0.5-0.7,1.5-1.6,3.4-2.6c1.9-1.1,3.3-1.8,4.3-2.1s2-0.2,2.8,0.2c0.8,0.5,0.9,1,0.3,1.6
	c-0.5,0.7-1.5,1.6-3.4,2.6c-1.9,1.1-3.3,1.8-4.3,2.1C195.3,381.9,194.3,381.9,193.6,381.4z M215.6,397.9c1.7,1,3.6,1.5,5.7,1.1
	c2.2-0.3,4.5-1.1,7-2.6c2.6-1.6,4-2.9,4.5-4.3c0.5-1.3-0.3-2.5-2-3.4c-1.7-1-3.6-1.5-5.7-1.1s-4.5,1.1-7,2.6c-2.6,1.6-4,3-4.5,4.3
	C213.1,395.6,213.7,396.8,215.6,397.9z M218,396.3c-0.8-0.5-0.8-1-0.3-1.6c0.5-0.7,1.5-1.6,3.4-2.6c1.9-1.1,3.3-1.8,4.3-2.1
	c1.1-0.3,2-0.2,2.8,0.2c0.8,0.5,0.9,1,0.3,1.6c-0.5,0.7-1.5,1.6-3.4,2.6c-1.9,1.1-3.3,1.8-4.3,2.1
	C219.6,396.8,218.7,396.8,218,396.3z M159.7,363.7c1.7,1,3.6,1.5,5.7,1.1c2.2-0.3,4.5-1.1,7-2.6c2.6-1.6,4-3,4.5-4.3
	c0.5-1.3-0.3-2.5-2-3.4c-1.7-1-3.6-1.5-5.7-1.1c-2.2,0.3-4.5,1.1-7,2.6c-2.6,1.6-4,2.9-4.5,4.3C157.2,361.5,158,362.7,159.7,363.7z
	 M162.1,362.2c-0.8-0.5-0.8-1-0.3-1.6c0.5-0.7,1.5-1.6,3.4-2.6c1.9-1.1,3.3-1.8,4.3-2.1c1.1-0.3,2-0.2,2.8,0.2
	c0.8,0.5,0.9,1,0.3,1.6c-0.5,0.7-1.5,1.6-3.4,2.6c-1.9,1.1-3.3,1.8-4.3,2.1C163.8,362.7,162.9,362.7,162.1,362.2z M135.2,348.7
	c1.7,1,3.6,1.5,5.7,1.1s4.5-1.1,7-2.6c2.6-1.6,4-2.9,4.5-4.3s-0.3-2.5-2-3.4c-1.7-1-3.6-1.5-5.7-1.1s-4.5,1.1-7,2.6
	c-2.6,1.6-4,3-4.5,4.3C132.9,346.6,133.5,347.8,135.2,348.7z M137.7,347.3c-0.8-0.5-0.8-1-0.3-1.6c0.5-0.7,1.5-1.6,3.4-2.6
	c1.9-1.1,3.3-1.8,4.3-2.1c1.1-0.3,2-0.2,2.8,0.2c0.8,0.5,0.9,1,0.3,1.6c-0.5,0.7-1.5,1.6-3.4,2.6c-1.9,1.1-3.3,1.8-4.3,2.1
	C139.4,347.8,138.4,347.8,137.7,347.3z M147.4,356.3c1.7,1,3.6,1.5,5.7,1.1c2.2-0.3,4.5-1.1,7-2.6c2.6-1.6,4-2.9,4.5-4.3
	c0.5-1.3-0.3-2.5-2-3.4c-1.7-1-3.6-1.5-5.7-1.1c-2.2,0.3-4.5,1.1-7,2.6c-2.6,1.6-4,3-4.5,4.3C145.1,354,145.7,355.1,147.4,356.3z
	 M149.9,354.8c-0.8-0.5-0.8-1-0.3-1.6c0.5-0.7,1.5-1.6,3.4-2.6c1.9-1.1,3.3-1.8,4.3-2.1s2-0.2,2.8,0.2c0.8,0.5,0.9,1,0.3,1.6
	c-0.5,0.7-1.5,1.6-3.4,2.6c-1.9,1.1-3.3,1.8-4.3,2.1C151.6,355.3,150.7,355.1,149.9,354.8z M123,341.4c1.7,1,3.6,1.5,5.7,1.1
	c2.2-0.3,4.5-1.1,7-2.6c2.6-1.6,4-2.9,4.5-4.3c0.5-1.3-0.3-2.5-2-3.4c-1.7-1-3.6-1.5-5.7-1.1c-2.2,0.3-4.5,1.1-7,2.6
	c-2.6,1.6-4,2.9-4.5,4.3C120.6,339.1,121.3,340.2,123,341.4z M125.6,339.9c-0.8-0.5-0.8-1-0.3-1.6c0.5-0.7,1.5-1.6,3.4-2.6
	c1.9-1.1,3.3-1.8,4.3-2.1c1.1-0.3,2-0.2,2.8,0.2c0.8,0.5,0.9,1,0.3,1.6c-0.5,0.7-1.5,1.6-3.4,2.6c-1.9,1.1-3.3,1.8-4.3,2.1
	C127.1,340.4,126.2,340.2,125.6,339.9z M84.4,299.3c-1.7-1-3.6-1.5-5.7-1.1c-2.2,0.3-4.5,1.1-7,2.6c-2.6,1.6-4,3-4.5,4.3
	c-0.5,1.3,0.3,2.5,2,3.4c1.7,1,3.6,1.5,5.7,1.1c2.2-0.3,4.5-1.1,7-2.6c2.6-1.6,4-3,4.5-4.3C86.7,301.4,86.1,300.2,84.4,299.3z
	 M81.9,300.7c0.8,0.5,0.9,1,0.3,1.6c-0.5,0.7-1.5,1.6-3.4,2.6c-1.9,1.1-3.3,1.8-4.3,2.1c-1.1,0.3-2,0.2-2.8-0.2
	c-0.8-0.5-0.8-1-0.3-1.6c0.5-0.7,1.5-1.6,3.4-2.6c1.9-1.1,3.3-1.8,4.3-2.1C80.2,300.2,81.1,300.4,81.9,300.7z M93.7,323.3
	c1.7,1,3.6,1.5,5.7,1.1c2.2-0.3,4.5-1.1,7-2.6c2.6-1.6,4-3,4.5-4.3c0.5-1.3-0.3-2.5-2-3.4c-1.7-1-3.6-1.5-5.7-1.1
	c-2.2,0.3-4.5,1.1-7,2.6c-2.6,1.6-4,2.9-4.5,4.3C91.2,321.2,92,322.4,93.7,323.3z M96.2,321.9c-0.8-0.5-0.8-1-0.3-1.6
	c0.5-0.7,1.5-1.6,3.4-2.6c1.9-1.1,3.3-1.8,4.3-2.1c1.1-0.3,2-0.2,2.8,0.2c0.8,0.5,0.9,1,0.3,1.6c-0.5,0.7-1.5,1.6-3.4,2.6
	c-1.9,1.1-3.3,1.8-4.3,2.1C97.9,322.4,96.9,322.4,96.2,321.9z M81.5,316c1.7,1,3.6,1.5,5.7,1.1c2.2-0.3,4.5-1.1,7-2.6
	c2.6-1.6,4-3,4.5-4.3c0.5-1.3-0.3-2.5-2-3.4c-1.7-1-3.6-1.5-5.7-1.1c-2.2,0.3-4.5,1.1-7,2.6c-2.6,1.6-4,3-4.5,4.3
	C79,313.7,79.8,314.8,81.5,316z M83.9,314.5c-0.8-0.5-0.8-1-0.3-1.6c0.5-0.7,1.5-1.6,3.4-2.6c1.9-1.1,3.3-1.8,4.3-2.1
	c1.1-0.3,2-0.2,2.8,0.2c0.8,0.5,0.9,1,0.3,1.6c-0.5,0.7-1.5,1.6-3.4,2.6c-1.9,1.1-3.3,1.8-4.3,2.1C85.6,315,84.7,314.8,83.9,314.5z
	 M105.9,330.9c1.7,1,3.6,1.5,5.7,1.1c2.2-0.3,4.5-1.1,7-2.6c2.6-1.6,4-3,4.5-4.3c0.5-1.3-0.3-2.5-2-3.4c-1.7-1-3.6-1.5-5.7-1.1
	c-2.2,0.3-4.5,1.1-7,2.6c-2.6,1.6-4,2.9-4.5,4.3C103.4,328.6,104.1,329.7,105.9,330.9z M108.4,329.4c-0.8-0.5-0.8-1-0.3-1.6
	c0.5-0.7,1.5-1.6,3.4-2.6c1.9-1.1,3.3-1.8,4.3-2.1c1.1-0.3,2-0.2,2.8,0.2c0.8,0.5,0.9,1,0.3,1.6c-0.5,0.7-1.5,1.6-3.4,2.6
	c-1.9,1.1-3.3,1.8-4.3,2.1C109.9,329.9,109.2,329.7,108.4,329.4z"/>
    <path class="st3" d="M257.1,421.3c1.7,1,3.6,1.5,5.7,1.1s4.5-1.1,7-2.6c2.6-1.6,4-2.9,4.5-4.3c0.5-1.3-0.3-2.5-2-3.4
	c-1.7-1-3.6-1.5-5.7-1.1c-2.2,0.3-4.5,1.1-7,2.6c-2.6,1.6-4,3-4.5,4.3C254.6,419.2,255.4,420.4,257.1,421.3z M259.5,419.9
	c-0.8-0.5-0.8-1-0.3-1.6c0.5-0.7,1.5-1.6,3.4-2.6c1.9-1.1,3.3-1.8,4.3-2.1c1.1-0.3,2-0.2,2.8,0.2c0.8,0.5,0.9,1,0.3,1.6
	c-0.5,0.7-1.5,1.6-3.4,2.6c-1.9,1.1-3.3,1.8-4.3,2.1C261.2,420.4,260.3,420.4,259.5,419.9z M232.6,406.4c1.7,1,3.6,1.5,5.7,1.1
	c2.2-0.3,4.5-1.1,7-2.6c2.6-1.6,4-3,4.5-4.3c0.5-1.3-0.3-2.5-2-3.4c-1.7-1-3.6-1.5-5.7-1.1s-4.5,1.1-7,2.6c-2.6,1.6-4,3-4.5,4.3
	C230.3,404.3,230.9,405.5,232.6,406.4z M235.2,405c-0.8-0.5-0.8-1-0.3-1.6c0.5-0.7,1.5-1.6,3.4-2.6c1.9-1.1,3.3-1.8,4.3-2.1
	s2-0.2,2.8,0.2c0.8,0.5,0.9,1,0.3,1.6c-0.5,0.7-1.5,1.6-3.4,2.6c-1.9,1.1-3.3,1.8-4.3,2.1C236.8,405.5,235.8,405.5,235.2,405z
	 M244.8,414c1.7,1,3.6,1.5,5.7,1.1c2.2-0.3,4.5-1.1,7-2.6c2.6-1.6,4-2.9,4.5-4.3c0.5-1.3-0.3-2.5-2-3.4c-1.7-1-3.6-1.5-5.7-1.1
	c-2.2,0.3-4.5,1.1-7,2.6c-2.6,1.6-4,2.9-4.5,4.3C242.5,411.7,243.1,412.8,244.8,414z M247.3,412.5c-0.8-0.5-0.8-1-0.3-1.6
	c0.5-0.7,1.5-1.6,3.4-2.6c1.9-1.1,3.3-1.8,4.3-2.1s2-0.2,2.8,0.2c0.8,0.5,0.9,1,0.3,1.6c-0.5,0.7-1.5,1.6-3.4,2.6
	c-1.9,1.1-3.3,1.8-4.3,2.1S248.1,412.8,247.3,412.5z M269.3,428.9c1.7,1,3.6,1.5,5.7,1.1c2.2-0.3,4.5-1.1,7-2.6
	c2.6-1.6,4-2.9,4.5-4.3c0.5-1.3-0.3-2.5-2-3.4c-1.7-1-3.6-1.5-5.7-1.1s-4.5,1.1-7,2.6c-2.6,1.6-4,3-4.5,4.3
	C266.8,426.6,267.6,427.7,269.3,428.9z M271.8,427.4c-0.8-0.5-0.8-1-0.3-1.6c0.5-0.7,1.5-1.6,3.4-2.6c1.9-1.1,3.3-1.8,4.3-2.1
	c1.1-0.3,2-0.2,2.8,0.2c0.8,0.5,0.9,1,0.3,1.6c-0.5,0.7-1.5,1.6-3.4,2.6c-1.9,1.1-3.3,1.8-4.3,2.1
	C273.5,427.9,272.5,427.7,271.8,427.4z M203.3,388.6c1.7,1,3.6,1.5,5.7,1.1c2.2-0.3,4.5-1.1,7-2.6c2.6-1.6,4-2.9,4.5-4.3
	c0.5-1.3-0.3-2.5-2-3.4c-1.7-1-3.6-1.5-5.7-1.1c-2.2,0.3-4.5,1.1-7,2.6c-2.6,1.6-4,3-4.5,4.3C200.8,386.3,201.5,387.4,203.3,388.6z
	 M205.8,387.1c-0.8-0.5-0.8-1-0.3-1.6c0.5-0.7,1.5-1.6,3.4-2.6c1.9-1.1,3.3-1.8,4.3-2.1s2-0.2,2.8,0.2c0.8,0.5,0.9,1,0.3,1.6
	c-0.5,0.7-1.5,1.6-3.4,2.6c-1.9,1.1-3.3,1.8-4.3,2.1C207.5,387.6,206.6,387.4,205.8,387.1z M178.9,373.7c1.7,1,3.6,1.5,5.7,1.1
	c2.2-0.3,4.5-1.1,7-2.6c2.6-1.6,4-2.9,4.5-4.3c0.5-1.3-0.3-2.5-2-3.4c-1.7-1-3.6-1.5-5.7-1.1c-2.2,0.3-4.5,1.1-7,2.6
	c-2.6,1.6-4,3-4.5,4.3C176.5,371.4,177.2,372.5,178.9,373.7z M181.3,372.2c-0.8-0.5-0.8-1-0.3-1.6c0.5-0.7,1.5-1.6,3.4-2.6
	c1.9-1.1,3.3-1.8,4.3-2.1s2-0.2,2.8,0.2c0.8,0.5,0.9,1,0.3,1.6c-0.5,0.7-1.5,1.6-3.4,2.6c-1.9,1.1-3.3,1.8-4.3,2.1
	S182.1,372.5,181.3,372.2z M191.1,381c1.7,1,3.6,1.5,5.7,1.1c2.2-0.3,4.5-1.1,7-2.6c2.6-1.6,4-2.9,4.5-4.3c0.5-1.3-0.3-2.5-2-3.4
	c-1.7-1-3.6-1.5-5.7-1.1c-2.2,0.3-4.5,1.1-7,2.6c-2.6,1.6-4,3-4.5,4.3C188.6,378.9,189.4,380.1,191.1,381z M193.6,379.6
	c-0.8-0.5-0.8-1-0.3-1.6c0.5-0.7,1.5-1.6,3.4-2.6c1.9-1.1,3.3-1.8,4.3-2.1c1.1-0.3,2-0.2,2.8,0.2c0.8,0.5,0.9,1,0.3,1.6
	c-0.5,0.7-1.5,1.6-3.4,2.6c-1.9,1.1-3.3,1.8-4.3,2.1S194.3,380.1,193.6,379.6z M215.6,395.9c1.7,1,3.6,1.5,5.7,1.1
	c2.2-0.3,4.5-1.1,7-2.6c2.6-1.6,4-2.9,4.5-4.3c0.5-1.3-0.3-2.5-2-3.4c-1.7-1-3.6-1.5-5.7-1.1c-2.2,0.3-4.5,1.1-7,2.6
	c-2.6,1.6-4,3-4.5,4.3C213.1,393.8,213.7,395,215.6,395.9z M218,394.5c-0.8-0.5-0.8-1-0.3-1.6c0.5-0.7,1.5-1.6,3.4-2.6
	c1.9-1.1,3.3-1.8,4.3-2.1c1.1-0.3,2-0.2,2.8,0.2c0.8,0.5,0.9,1,0.3,1.6c-0.5,0.7-1.5,1.6-3.4,2.6c-1.9,1.1-3.3,1.8-4.3,2.1
	C219.6,395,218.7,395,218,394.5z M159.7,361.9c1.7,1,3.6,1.5,5.7,1.1s4.5-1.1,7-2.6c2.6-1.6,4-3,4.5-4.3c0.5-1.3-0.3-2.5-2-3.4
	c-1.7-1-3.6-1.5-5.7-1.1s-4.5,1.1-7,2.6c-2.6,1.6-4,2.9-4.5,4.3S158,360.9,159.7,361.9z M162.1,360.4c-0.8-0.5-0.8-1-0.3-1.6
	c0.5-0.7,1.5-1.6,3.4-2.6c1.9-1.1,3.3-1.8,4.3-2.1s2-0.2,2.8,0.2c0.8,0.5,0.9,1,0.3,1.6c-0.5,0.7-1.5,1.6-3.4,2.6
	c-1.9,1.1-3.3,1.8-4.3,2.1C163.8,360.9,162.9,360.9,162.1,360.4z M135.2,346.9c1.7,1,3.6,1.5,5.7,1.1c2.2-0.3,4.5-1.1,7-2.6
	c2.6-1.6,4-3,4.5-4.3s-0.3-2.5-2-3.4s-3.6-1.5-5.7-1.1c-2.2,0.3-4.5,1.1-7,2.6c-2.6,1.6-4,3-4.5,4.3
	C132.9,344.8,133.5,346,135.2,346.9z M137.7,345.5c-0.8-0.5-0.8-1-0.3-1.6c0.5-0.7,1.5-1.6,3.4-2.6c1.9-1.1,3.3-1.8,4.3-2.1
	c1.1-0.3,2-0.2,2.8,0.2c0.8,0.5,0.9,1,0.3,1.6c-0.5,0.7-1.5,1.6-3.4,2.6c-1.9,1.1-3.3,1.8-4.3,2.1S138.4,346,137.7,345.5z
	 M147.4,354.5c1.7,1,3.6,1.5,5.7,1.1s4.5-1.1,7-2.6c2.6-1.6,4-3,4.5-4.3c0.5-1.3-0.3-2.5-2-3.4c-1.7-1-3.6-1.5-5.7-1.1
	c-2.2,0.3-4.5,1.1-7,2.6c-2.6,1.6-4,2.9-4.5,4.3C145.1,352.2,145.7,353.3,147.4,354.5z M149.9,352.8c-0.8-0.5-0.8-1-0.3-1.6
	c0.5-0.7,1.5-1.6,3.4-2.6c1.9-1.1,3.3-1.8,4.3-2.1c1.1-0.3,2-0.2,2.8,0.2c0.8,0.5,0.9,1,0.3,1.6c-0.5,0.7-1.5,1.6-3.4,2.6
	c-1.9,1.1-3.3,1.8-4.3,2.1C151.6,353.5,150.7,353.3,149.9,352.8z M123,339.6c1.7,1,3.6,1.5,5.7,1.1c2.2-0.3,4.5-1.1,7-2.6
	c2.6-1.6,4-2.9,4.5-4.3c0.5-1.3-0.3-2.5-2-3.4c-1.7-1-3.6-1.5-5.7-1.1s-4.5,1.1-7,2.6c-2.6,1.6-4,3-4.5,4.3
	C120.6,337.3,121.3,338.4,123,339.6z M125.6,337.9c-0.8-0.5-0.8-1-0.3-1.6c0.5-0.7,1.5-1.6,3.4-2.6c1.9-1.1,3.3-1.8,4.3-2.1
	c1.1-0.3,2-0.2,2.8,0.2c0.8,0.5,0.9,1,0.3,1.6c-0.5,0.7-1.5,1.6-3.4,2.6c-1.9,1.1-3.3,1.8-4.3,2.1
	C127.1,338.6,126.2,338.4,125.6,337.9z M84.4,297.5c-1.7-1-3.6-1.5-5.7-1.1c-2.2,0.3-4.5,1.1-7,2.6c-2.6,1.6-4,3-4.5,4.3
	c-0.5,1.3,0.3,2.5,2,3.4c1.7,1,3.6,1.5,5.7,1.1c2.2-0.3,4.5-1.1,7-2.6c2.6-1.6,4-3,4.5-4.3C86.7,299.6,86.1,298.4,84.4,297.5z
	 M81.9,298.9c0.8,0.5,0.9,1,0.3,1.6c-0.5,0.7-1.5,1.6-3.4,2.6c-1.9,1.1-3.3,1.8-4.3,2.1c-1.1,0.3-2,0.2-2.8-0.2
	c-0.8-0.5-0.8-1-0.3-1.6c0.5-0.7,1.5-1.6,3.4-2.6c1.9-1.1,3.3-1.8,4.3-2.1C80.2,298.4,81.1,298.4,81.9,298.9z M93.7,321.5
	c1.7,1,3.6,1.5,5.7,1.1c2.2-0.3,4.5-1.1,7-2.6c2.6-1.6,4-3,4.5-4.3c0.5-1.3-0.3-2.5-2-3.4c-1.7-1-3.6-1.5-5.7-1.1s-4.5,1.1-7,2.6
	c-2.6,1.6-4,2.9-4.5,4.3C91.2,319.4,92,320.6,93.7,321.5z M96.2,320.1c-0.8-0.5-0.8-1-0.3-1.6c0.5-0.7,1.5-1.6,3.4-2.6
	c1.9-1.1,3.3-1.8,4.3-2.1s2-0.2,2.8,0.2c0.8,0.5,0.9,1,0.3,1.6c-0.5,0.7-1.5,1.6-3.4,2.6c-1.9,1.1-3.3,1.8-4.3,2.1
	C97.9,320.6,96.9,320.6,96.2,320.1z M81.5,314.2c1.7,1,3.6,1.5,5.7,1.1c2.2-0.3,4.5-1.1,7-2.6c2.6-1.6,4-3,4.5-4.3
	c0.5-1.3-0.3-2.5-2-3.4c-1.7-1-3.6-1.5-5.7-1.1c-2.2,0.3-4.5,1.1-7,2.6c-2.6,1.6-4,2.9-4.5,4.3C79,311.9,79.8,313,81.5,314.2z
	 M83.9,312.5c-0.8-0.5-0.8-1-0.3-1.6c0.5-0.7,1.5-1.6,3.4-2.6c1.9-1.1,3.3-1.8,4.3-2.1c1.1-0.3,2-0.2,2.8,0.2c0.8,0.5,0.9,1,0.3,1.6
	c-0.6,0.7-1.5,1.6-3.4,2.6c-1.9,1.1-3.3,1.8-4.3,2.1C85.6,313.2,84.7,313,83.9,312.5z M105.9,329.1c1.7,1,3.6,1.5,5.7,1.1
	c2.2-0.3,4.5-1.1,7-2.6c2.6-1.6,4-3,4.5-4.3c0.5-1.3-0.3-2.5-2-3.4c-1.7-1-3.6-1.5-5.7-1.1c-2.2,0.3-4.5,1.1-7,2.6
	c-2.6,1.6-4,2.9-4.5,4.3C103.4,326.8,104.1,327.9,105.9,329.1z M108.4,327.4c-0.8-0.5-0.8-1-0.3-1.6c0.5-0.7,1.5-1.6,3.4-2.6
	c1.9-1.1,3.3-1.8,4.3-2.1s2-0.2,2.8,0.2c0.8,0.5,0.9,1,0.3,1.6c-0.5,0.7-1.5,1.6-3.4,2.6c-1.9,1.1-3.3,1.8-4.3,2.1
	C109.9,328.1,109.2,327.9,108.4,327.4z"/>
    <g class="st4">
	<path class="st2" d="M106.5,285c0-0.3,0.2-0.7,0.6-1c0.3-0.2,0.6-0.3,1.1-0.3l85.9-7c0.9,0,1.7,0,2.2,0c0.6,0,1.2,0.3,1.9,0.7
		l5.6,3.4c0.5,0.3,0.8,0.7,0.8,1s-0.2,0.7-0.6,1c-0.3,0.2-0.6,0.3-1.1,0.3l-85.6,7c-0.9,0-1.7,0-2.2,0c-0.6,0-1.2-0.3-1.9-0.7
		l-5.6-3.4C107,285.7,106.7,285.3,106.5,285z M133.8,267.1c-0.3-2.3,0.9-4.4,3.7-6.4c1.4-1,2.3-1.6,2.9-2c0.6-0.3,2-1.1,4.2-2.3
		c3.3-1.8,6.7-2.6,10.5-2.5c3.9,0.2,7.4,1.3,11,3.4c3.6,2.1,5.4,4.4,5.7,6.7c0.2,2.3-1.1,4.4-3.9,6.4c-1.9,1.3-3.1,2.1-3.9,2.5
		c-0.6,0.3-1.7,1-3.3,1.8c-3.3,1.6-6.7,2.5-10.5,2.3c-3.9-0.2-7.4-1.3-10.8-3.4C136,271.6,134.1,269.4,133.8,267.1z M139.8,302.9
		c-0.3-2.3,0.9-4.6,3.7-6.6c1.4-1,2.3-1.6,2.9-2c0.6-0.3,2-1.1,4-2.3c3.3-1.8,6.8-2.6,10.7-2.5c3.9,0.2,7.4,1.3,11,3.4
		c3.6,2.1,5.4,4.4,5.7,6.7c0.2,2.3-1.1,4.4-4,6.4c-1.9,1.3-3.1,2.1-3.7,2.5c-0.6,0.3-1.7,1-3.3,1.8c-3.3,1.6-6.7,2.5-10.5,2.3
		c-3.9-0.2-7.4-1.3-10.8-3.4C142,307.5,140.1,305.3,139.8,302.9z M149.4,270.6c1.2-0.2,2.3-0.5,3.4-1c1.5-0.8,2.6-1.5,3.3-1.8
		c0.6-0.3,1.5-1,2.9-2c0.9-0.7,1.5-1.3,1.7-2.1c0.2-0.7-0.3-1.5-1.4-2.1c-2-1.1-4.3-1.1-7,0.2c-0.8,0.3-1.9,1-3.1,1.8
		c-1.4,0.8-2.3,1.5-3.1,2c-0.9,0.7-1.5,1.5-1.5,2.1c-0.2,0.7,0.3,1.5,1.4,2C147.1,270.2,148.4,270.6,149.4,270.6z M155.5,306.3
		c1.2-0.2,2.3-0.5,3.6-1c1.5-0.8,2.6-1.5,3.3-1.8c0.6-0.3,1.5-1,2.9-2c0.9-0.7,1.5-1.5,1.5-2.1c0.2-0.7-0.3-1.5-1.4-2
		c-1.1-0.7-2.3-1-3.4-0.8c-1.2,0.2-2.3,0.5-3.4,1c-0.8,0.3-1.9,1-3.1,1.8c-1.4,0.8-2.3,1.5-3.1,2c-0.9,0.7-1.5,1.3-1.7,2.1
		c-0.2,0.7,0.3,1.5,1.4,2.1C153.1,306.1,154.2,306.3,155.5,306.3z"/>
</g>
    <path class="st5" d="M106.5,283.4c0-0.3,0.2-0.7,0.6-1c0.3-0.2,0.6-0.3,1.1-0.3l85.9-7c0.9,0,1.7,0,2.2,0c0.6,0,1.2,0.3,1.9,0.7
	l5.6,3.4c0.5,0.3,0.8,0.7,0.8,1s-0.2,0.7-0.6,1c-0.3,0.2-0.6,0.3-1.1,0.3l-85.6,7c-0.9,0-1.7,0-2.2,0c-0.6,0-1.2-0.3-1.9-0.7
	l-5.6-3.4C107,284,106.7,283.7,106.5,283.4z M133.8,265.5c-0.3-2.3,0.9-4.4,3.7-6.4c1.4-1,2.3-1.6,2.9-2c0.6-0.3,2-1.1,4.2-2.3
	c3.3-1.8,6.7-2.6,10.5-2.5c3.9,0.2,7.4,1.3,11,3.4c3.6,2.1,5.4,4.4,5.7,6.7c0.2,2.3-1.1,4.4-3.9,6.4c-1.9,1.3-3.1,2.1-3.9,2.5
	c-0.6,0.3-1.7,1-3.3,1.8c-3.3,1.6-6.7,2.5-10.5,2.3c-3.9-0.2-7.4-1.3-10.8-3.4C136,269.9,134.1,267.8,133.8,265.5z M139.8,301.2
	c-0.3-2.3,0.9-4.6,3.7-6.6c1.4-1,2.3-1.6,2.9-2c0.6-0.3,2-1.1,4-2.3c3.3-1.8,6.8-2.6,10.7-2.5c3.9,0.2,7.4,1.3,11,3.4
	c3.6,2.1,5.4,4.4,5.7,6.7c0.2,2.3-1.1,4.4-4,6.4c-1.9,1.3-3.1,2.1-3.7,2.5c-0.6,0.3-1.7,1-3.3,1.8c-3.3,1.6-6.7,2.5-10.5,2.3
	c-3.9-0.2-7.4-1.3-10.8-3.4C142,305.8,140.1,303.7,139.8,301.2z M149.4,268.9c1.2-0.2,2.3-0.5,3.4-1c1.5-0.8,2.6-1.5,3.3-1.8
	c0.6-0.3,1.5-1,2.9-2c0.9-0.7,1.5-1.3,1.7-2.1c0.2-0.7-0.3-1.5-1.4-2.1c-2-1.1-4.3-1.1-7,0.2c-0.8,0.3-1.9,1-3.1,1.8
	c-1.4,0.8-2.3,1.5-3.1,2c-0.9,0.7-1.5,1.5-1.5,2.1c-0.2,0.7,0.3,1.5,1.4,2C147.1,268.6,148.4,268.9,149.4,268.9z M155.5,304.7
	c1.2-0.2,2.3-0.5,3.6-1c1.5-0.8,2.6-1.5,3.3-1.8c0.6-0.3,1.5-1,2.9-2c0.9-0.7,1.5-1.5,1.5-2.1c0.2-0.7-0.3-1.5-1.4-2
	c-1.1-0.7-2.3-1-3.4-0.8c-1.2,0.2-2.3,0.5-3.4,1c-0.8,0.3-1.9,1-3.1,1.8c-1.4,0.8-2.3,1.5-3.1,2c-0.9,0.7-1.5,1.3-1.7,2.1
	c-0.2,0.7,0.3,1.5,1.4,2.1C153.1,304.5,154.2,304.7,155.5,304.7z"/>
    <path class="st3" d="M275.5,344.7c0.2,0,0.5,0,0.6-0.2l1.7-1c0.2-0.2,0.3-0.2,0.3-0.3s-0.2-0.3-0.3-0.3l-7.7-4.8l13.3-8.2
	c0.2-0.2,0.3-0.2,0.3-0.3s-0.2-0.3-0.3-0.3l-2.3-1.3c-0.2-0.2-0.3-0.2-0.6-0.2c-0.2,0-0.5,0-0.6,0.2l-15.6,9.5
	c-0.2,0.2-0.3,0.2-0.3,0.3s0.2,0.3,0.3,0.3l10.5,6.4C275,344.7,275.2,344.7,275.5,344.7z M282.5,341.5l-1.1,0.7
	c-1.5,1.1-2.3,2.3-2.3,3.4s1.1,2.5,2.9,3.6c1.9,1.1,3.9,1.8,5.9,1.8s3.9-0.5,5.7-1.5c0.2-0.2,0.6-0.3,1.1-0.7
	c0.5-0.3,0.9-0.5,1.1-0.7c1.5-1.1,2.3-2.3,2.3-3.4c-0.2-1.3-1.1-2.5-2.9-3.6c-1.9-1.1-3.9-1.8-5.9-1.8c-2,0-3.9,0.5-5.7,1.5
	L282.5,341.5z M284.9,344.2l0.9-0.7l0.9-0.5c1.1-0.7,2-1,3.1-1c0.9,0,1.9,0.2,2.8,0.7c0.8,0.5,1.2,1.1,1.1,1.6c0,0.7-0.6,1.3-1.5,2
	c-0.2,0.2-0.5,0.3-0.9,0.7c-0.5,0.3-0.8,0.5-0.9,0.5c-1.1,0.7-2,1-3.1,1c-0.9,0-1.9-0.2-2.8-0.7c-0.9-0.5-1.2-1.1-1.2-1.6
	C283.4,345.5,283.8,344.8,284.9,344.2z M288,357.1c-0.2,0-0.3,0.2-0.5,0.2s-0.2,0.2-0.2,0.3s0,0.2,0.2,0.3l2,1.1
	c0.3,0.2,0.8,0.2,1.1,0.2l22.6-5.4c0.2,0,0.3-0.2,0.5-0.2s0.2-0.2,0.2-0.3s0-0.2-0.2-0.3l-2-1.1c-0.3-0.2-0.6-0.2-1.1-0.2l-11.1,2.8
	l4.6-6.7c0.2-0.3,0.2-0.5-0.2-0.7l-2-1.3c-0.2-0.2-0.3-0.2-0.5-0.2s-0.3,0-0.6,0.2c-0.2,0-0.2,0.2-0.3,0.3l-6.2,9.5L288,357.1z
	 M312,356.1c0,0.2,0.2,0.2,0.2,0.3l1.9,1.1c0.2,0.2,0.5,0.2,0.6,0c0.2,0,0.5,0,0.8,0c0.5,0,0.9,0,1.4,0.2c0.5,0,1.1,0.3,1.5,0.7
	c0.8,0.5,1.2,1,1.2,1.3c0,0.5-0.3,0.8-1.1,1.3l-0.5,0.3l-3.9-1.8c-1.9-0.8-3.4-1.3-5-1.5c-1.5-0.2-2.9,0.2-4,0.8
	c-0.6,0.5-1.1,1-1.2,1.5c-0.2,0.7,0,1.1,0.3,1.8c0.3,0.7,0.9,1.1,1.7,1.6c0.9,0.7,2,1,2.9,1.1c0.9,0.2,1.9,0.2,2.8,0.2l-0.9,0.5
	c-0.2,0.2-0.3,0.2-0.3,0.3s0.2,0.3,0.3,0.3l2,1.1c0.2,0.2,0.3,0.2,0.6,0.2c0.2,0,0.5,0,0.6-0.2l7.6-4.6c1.4-0.8,2-1.8,2-2.8
	s-0.9-2.1-2.9-3.3c-1.1-0.7-2.3-1.1-3.6-1.5c-1.2-0.3-2.2-0.3-3.1-0.3s-1.5,0.2-2,0.5C312,355.8,312,356,312,356.1z M315.6,362.8
	c-1.1,0.7-2.2,1-3.4,1c-1.1,0-2.2-0.3-3.1-0.8c-0.6-0.3-0.9-0.8-1.1-1.1c-0.2-0.5,0-0.8,0.6-1.1c0.9-0.7,2.5-0.3,4.6,0.5l2.8,1.3
	L315.6,362.8z M316.4,369.6c0,0.2,0.2,0.3,0.3,0.3l2,1.3c0.2,0.2,0.3,0.2,0.6,0.2c0.2,0,0.5,0,0.6-0.2l16-9.7
	c0.2-0.2,0.3-0.2,0.3-0.3s-0.2-0.3-0.3-0.3l-2-1.3c-0.2-0.2-0.3-0.2-0.6-0.2c-0.2,0-0.5,0-0.6,0.2l-16,9.7
	C316.4,369.4,316.4,369.6,316.4,369.6z M333.7,365.1c-0.2-0.2-0.3-0.2-0.6-0.2c-0.2,0-0.5,0-0.6,0.2l-1.4,0.8
	c-0.2,0.2-0.3,0.2-0.3,0.3c0,0.2,0.2,0.3,0.3,0.3l1.9,1.1l-5.4,3.3c-1.5,0.8-2.2,1.8-2.2,2.8s0.8,1.8,2.2,2.8l2,1.1
	c0.2,0.2,0.3,0.2,0.6,0.2c0.2,0,0.5,0,0.6-0.2l1.5-1c0.2-0.2,0.3-0.2,0.3-0.3s-0.2-0.3-0.3-0.3l-1.7-1c-0.6-0.3-0.8-0.7-0.6-1
	s0.5-0.8,1.2-1.1l5.1-3.1l3.1,1.8c0.2,0.2,0.3,0.2,0.6,0.2c0.2,0,0.5,0,0.6-0.2l1.4-0.8c0.2-0.2,0.3-0.2,0.3-0.3
	c0-0.2-0.2-0.3-0.3-0.3l-3.1-1.8l4-2.5c0.2-0.2,0.3-0.2,0.3-0.3s-0.2-0.2-0.3-0.3l-2-1.1c-0.2-0.2-0.3-0.2-0.6-0.2
	c-0.2,0-0.5,0-0.6,0.2l-4,2.5L333.7,365.1z M355.4,378.4l-2-1.1c-0.3-0.2-0.6-0.2-1.1-0.2l-11.1,2.8l4.6-6.7
	c0.2-0.3,0.2-0.5-0.2-0.7l-2-1.1c-0.2-0.2-0.3-0.2-0.5-0.2s-0.3,0-0.6,0.2c-0.2,0-0.2,0.2-0.3,0.3l-6.2,9.5l-6.3,1.5
	c-0.2,0-0.3,0.2-0.5,0.2c-0.2,0-0.2,0.2-0.2,0.3s0,0.2,0.2,0.3l2,1.1c0.3,0.2,0.8,0.2,1.1,0.2l22.6-5.4c0.2,0,0.3-0.2,0.5-0.2
	c0.2,0,0.2-0.2,0.2-0.3C355.7,378.7,355.5,378.6,355.4,378.4z M289,373.2c0-0.2-0.2-0.2-0.2-0.3l-2.3-1.5c-0.2-0.2-0.3-0.2-0.6-0.2
	c-0.2,0-0.5,0-0.8,0.2c-1.2,0.5-2.3,0.7-3.4,0.5c-1.1-0.2-2-0.5-2.9-1.1c-2.3-1.5-2.2-3,0.3-4.6c0.5-0.3,1.1-0.7,2-1.3
	c0.9-0.5,1.5-1,2-1.1c2.6-1.5,5.1-1.6,7.4-0.2c0.9,0.7,1.5,1.1,1.7,1.8c0.2,0.7-0.2,1.3-0.8,2.1c-0.2,0.2-0.3,0.3-0.2,0.5
	c0,0.2,0.2,0.2,0.3,0.3l2.3,1.5c0.2,0,0.3,0.2,0.5,0.2c0.2,0,0.3,0,0.5-0.2c1.1-0.7,1.7-1.5,1.9-2.3c0.3-0.8,0.2-1.8-0.5-2.8
	c-0.6-1-1.5-1.8-2.9-2.8c-2.2-1.3-4.5-2.1-6.8-2.1s-4.6,0.5-6.8,1.8c-0.5,0.3-1.2,0.7-2.2,1.3c-0.9,0.7-1.7,1-2.2,1.3
	c-2,1.3-2.9,2.6-2.9,4.1c0.2,1.5,1.2,2.8,3.4,4.3c1.4,0.8,2.9,1.5,4.5,1.8c1.5,0.3,3.1,0.5,4.5,0.3c1.4-0.2,2.6-0.5,3.7-1.1
	C289,373.3,289,373.3,289,373.2z M306.3,376.6c0-1-0.9-2.1-2.9-3.3c-1.1-0.7-2.3-1.1-3.6-1.5c-1.2-0.3-2.2-0.3-3.1-0.3
	c-0.9,0-1.5,0.2-2,0.5c-0.2,0.2-0.3,0.2-0.2,0.3c0,0.2,0.2,0.2,0.2,0.3l1.9,1.1c0.2,0.2,0.5,0.2,0.6,0c0.2,0,0.5,0,0.8,0
	c0.5,0,0.9,0,1.4,0.2c0.5,0,1.1,0.3,1.5,0.7c0.8,0.5,1.2,1,1.2,1.3c0,0.5-0.3,0.8-1.1,1.3l-0.5,0.3l-3.9-1.8c-1.9-0.8-3.4-1.3-5-1.5
	c-1.5-0.2-2.9,0.2-4,0.8c-0.6,0.5-1.1,1-1.2,1.5c-0.2,0.7,0,1.1,0.3,1.8c0.3,0.7,0.9,1.1,1.7,1.6c0.9,0.7,2,1,2.9,1.1
	c0.9,0.2,1.9,0.2,2.8,0.2l-0.9,0.5c-0.2,0.2-0.3,0.2-0.3,0.3s0.2,0.3,0.3,0.3l2,1.3c0.2,0.2,0.3,0.2,0.6,0.2c0.2,0,0.5,0,0.6-0.2
	l7.6-4.6C305.7,378.7,306.3,377.8,306.3,376.6z M298.2,379.2c-1.1,0.7-2.2,1-3.4,1c-1.1,0-2.2-0.3-3.1-0.8c-0.6-0.3-0.9-0.8-1.1-1.1
	c-0.2-0.5,0-0.8,0.6-1.1c0.9-0.7,2.5-0.3,4.6,0.5l2.8,1.3L298.2,379.2z M313.9,383.7l1.9,1.1c0.2,0.2,0.3,0.2,0.6,0.2
	c0.2,0,0.5,0,0.6-0.2l1.7-1.1c0.2-0.2,0.3-0.2,0.3-0.3s-0.2-0.3-0.3-0.3l-1.1-0.7c-1.5-1-3.3-1.3-5.1-1.1l0.9-0.7
	c0.2-0.2,0.3-0.2,0.3-0.3c0-0.2-0.2-0.3-0.3-0.3l-2-1.1c-0.2-0.2-0.3-0.2-0.6-0.2c-0.2,0-0.5,0-0.6,0.2l-11.3,6.9
	c-0.2,0.2-0.3,0.2-0.3,0.3s0.2,0.3,0.3,0.3l2.2,1.3c0.2,0.2,0.3,0.2,0.6,0.2c0.2,0,0.5,0,0.6-0.2l6.7-4.1c0.8-0.5,1.5-0.7,2.5-0.7
	C312.3,383,313.1,383.2,313.9,383.7z M336,388.1l-2.2-1.3c-0.2-0.2-0.3-0.2-0.6-0.2c-0.2,0-0.5,0-0.6,0.2l-5.3,3.3
	c0.2-1.1-0.6-2.3-2.2-3.3c-1.7-1-3.4-1.5-5.3-1.3c-1.9,0.2-3.7,0.7-5.6,1.6l-0.8,0.5l-0.8,0.5c-1.7,1.1-2.6,2.3-2.8,3.4
	c-0.2,1.1,0.6,2.3,2.2,3.3c1.7,1,3.6,1.5,5.6,1.3l-0.9,0.5c-0.2,0.2-0.3,0.2-0.3,0.3c0,0.2,0.2,0.3,0.3,0.3l2,1.1
	c0.2,0.2,0.3,0.2,0.6,0.2c0.2,0,0.5,0,0.6-0.2l16-9.7c0.2-0.2,0.3-0.2,0.3-0.3C336.3,388.2,336.2,388.1,336,388.1z M323.6,392.3
	c-0.2,0.2-0.5,0.3-0.9,0.7c-0.5,0.3-0.8,0.5-0.9,0.5c-0.9,0.5-1.9,0.8-2.9,0.8c-1.1,0.2-2-0.2-2.9-0.7c-1.7-1-1.5-2.3,0.5-3.6
	l0.8-0.5l0.8-0.5c2.2-1.1,4.2-1.3,5.9-0.3c0.9,0.5,1.2,1.1,1.2,1.8C324.7,391.4,324.3,391.9,323.6,392.3z"/>
    <path class="st3" d="M39.3,324.8c0,0,0-0.2,0.2-0.2l3.3-2l2.6-5.7l0.2-0.2c0.2,0,0.2,0,0.3,0s0.2,0,0.3,0l1.2,0.8
	c0.2,0.2,0.3,0.3,0.2,0.5l-1.7,3.9l6.5-1c0.2,0,0.2,0,0.3,0c0.2,0,0.3,0,0.3,0.2l1.2,0.8c0.2,0,0.2,0.2,0.2,0.2s0,0.2-0.2,0.2H54
	l-9.4,1.6l-3.3,2c-0.2,0-0.2,0.2-0.3,0.2c-0.2,0-0.3,0-0.3-0.2l-1.4-0.8C39.3,325,39.3,324.8,39.3,324.8z"/>
    <path class="st3" d="M44.9,327.4c0-0.7,0.5-1.5,1.4-2.1l0.6-0.3l0.6-0.3c1.1-0.7,2.2-0.8,3.4-0.8c1.2,0,2.3,0.3,3.4,1
	c1.1,0.7,1.7,1.3,1.7,2.1c0,0.7-0.5,1.5-1.4,2.1c-0.2,0-0.3,0.2-0.6,0.3s-0.5,0.3-0.6,0.3c-1.1,0.7-2.2,0.8-3.4,0.8
	c-1.2,0-2.3-0.3-3.4-1.1C45.5,328.9,45.1,328.3,44.9,327.4z M49.9,329.1c0.6,0,1.2-0.2,1.9-0.7c0.2,0,0.3-0.2,0.6-0.3
	s0.5-0.3,0.6-0.3c0.6-0.3,0.9-0.8,0.9-1.1s-0.2-0.7-0.6-1c-0.5-0.3-1.1-0.5-1.7-0.5c-0.6,0-1.2,0.2-1.9,0.7l-0.6,0.3l-0.6,0.3
	c-0.6,0.3-0.9,0.8-0.9,1.1s0.2,0.7,0.8,1C48.6,329.1,49.2,329.1,49.9,329.1z"/>
    <path class="st3" d="M52.3,332c0-0.7,0.6-1.3,1.5-2l4-2.5c0.2,0,0.2-0.2,0.3-0.2c0.2,0,0.3,0,0.3,0.2l1.2,0.8c0.2,0,0.2,0.2,0.2,0.2
	c0,0.2,0,0.2-0.2,0.2l-3.9,2.5c-1.2,0.7-1.2,1.3-0.2,2c0.5,0.3,1.1,0.5,1.7,0.5c0.6,0,1.2-0.2,1.7-0.5l3.9-2.5
	c0.2,0,0.2-0.2,0.3-0.2c0.2,0,0.3,0,0.3,0.2l1.2,0.8c0.2,0,0.2,0.2,0.2,0.2s0,0.2-0.2,0.2l-6.8,4.1c-0.2,0-0.2,0.2-0.3,0.2
	c-0.2,0-0.3,0-0.3-0.2l-1.2-0.7c-0.2,0-0.2-0.2-0.2-0.2s0-0.2,0.2-0.2l0.6-0.3c-1.2,0.2-2.3-0.2-3.4-0.8
	C52.8,333.3,52.3,332.7,52.3,332z"/>
    <path class="st3" d="M59,336.8c0,0,0-0.2,0.2-0.2l6.7-4.1c0.2,0,0.2-0.2,0.3-0.2c0.2,0,0.3,0,0.3,0.2l1.2,0.7c0.2,0,0.2,0.2,0.2,0.2
	c0,0.2,0,0.2-0.2,0.2l-0.6,0.3c1.1-0.2,2.2,0.2,2.9,0.7l0.6,0.3c0.2,0,0.2,0.2,0.2,0.2s0,0.2-0.2,0.2l-1.1,0.7
	c-0.2,0-0.2,0.2-0.3,0.2c-0.2,0-0.3,0-0.3-0.2l-1.1-0.7c-0.5-0.3-0.9-0.5-1.4-0.5c-0.5,0-0.9,0.2-1.4,0.3l-3.9,2.5
	c-0.2,0-0.2,0.2-0.3,0.2c-0.2,0-0.3,0-0.3-0.2l-1.2-0.8C59.2,336.9,59,336.9,59,336.8z"/>
    <path class="st3" d="M66.1,341c0,0,0-0.2,0.2-0.2l9.3-5.7c0.2,0,0.2-0.2,0.3-0.2c0.2,0,0.3,0,0.3,0.2l1.1,0.7
	c0.2,0.2,0.3,0.3,0.2,0.3l-2.2,6.4l6.2-3.8c0.2,0,0.2-0.2,0.3-0.2c0.2,0,0.3,0,0.3,0.2l1.2,0.8c0.2,0,0.2,0.2,0.2,0.2s0,0.2-0.2,0.2
	l-9.3,5.7c-0.2,0-0.2,0.2-0.3,0.2c-0.2,0-0.3,0-0.3-0.2l-1.1-0.7c-0.2-0.2-0.3-0.3-0.2-0.5l2.2-6.2l-6,3.8c-0.2,0-0.2,0.2-0.3,0.2
	c-0.2,0-0.3,0-0.3-0.2l-1.2-0.8C66.1,341.2,66.1,341.2,66.1,341z"/>
    <path class="st3" d="M75.7,346.9c-0.2-0.3-0.3-0.7-0.2-1.1c0.2-0.3,0.3-0.7,0.8-0.8c0.6-0.3,1.4-0.5,2.3-0.5s1.9,0.3,2.9,0.8l2.3,1
	l0.3-0.2c0.5-0.3,0.6-0.5,0.6-0.8s-0.2-0.5-0.6-0.8c-0.3-0.2-0.6-0.3-0.9-0.3s-0.6,0-0.8,0c-0.3,0-0.5,0-0.5,0c-0.2,0-0.3,0-0.5,0
	l-1.1-0.7c-0.2,0-0.2-0.2-0.2-0.2s0-0.2,0.2-0.2c0.3-0.2,0.6-0.2,1.2-0.3c0.5,0,1.1,0,1.9,0.2c0.6,0.2,1.4,0.5,2,0.8
	c1.1,0.7,1.7,1.3,1.7,2c0,0.7-0.5,1.1-1.2,1.6l-4.5,2.8c-0.2,0-0.2,0.2-0.3,0.2c-0.2,0-0.3,0-0.3-0.2l-1.2-0.7
	c-0.2,0-0.2-0.2-0.2-0.2s0-0.2,0.2-0.2l0.6-0.3c-0.5,0-1.1,0-1.7-0.2c-0.6-0.2-1.1-0.3-1.7-0.7C76.3,347.6,76,347.3,75.7,346.9z
	 M80.5,347.9c0.6,0,1.4-0.2,2-0.7l0.3-0.2l-1.7-0.8c-1.2-0.5-2.2-0.7-2.8-0.3c-0.3,0.2-0.5,0.3-0.3,0.7c0.2,0.3,0.3,0.5,0.6,0.7
	C79.3,347.8,79.8,347.9,80.5,347.9z"/>
    <path class="st3" d="M82.2,350.9c0,0,0-0.2,0.2-0.2l6.8-4.1c0.2,0,0.2-0.2,0.3-0.2c0.2,0,0.3,0,0.3,0.2l1.1,0.7
	c0.2,0,0.2,0.2,0.2,0.2s0,0.2-0.2,0.2l-0.5,0.3c1.2,0,2.2,0.2,3.1,0.7c1.1,0.7,1.4,1.3,0.9,2.1c0.6-0.2,1.2,0,1.9,0
	c0.6,0.2,1.2,0.3,1.7,0.7c0.8,0.5,1.1,1,1.1,1.6c0,0.7-0.6,1.3-1.5,1.8l-4,2.5c-0.2,0-0.2,0.2-0.3,0.2c-0.2,0-0.3,0-0.3-0.2
	l-1.2-0.7c-0.2,0-0.2-0.2-0.2-0.2s0-0.2,0.2-0.2l4-2.5c0.6-0.3,0.9-0.7,0.9-1s-0.2-0.7-0.6-0.8c-0.3-0.2-0.8-0.3-1.4-0.3
	c-0.5,0-1.1,0.2-1.7,0.5l-4,2.5c-0.2,0-0.2,0.2-0.3,0.2c-0.2,0-0.3,0-0.3-0.2l-1.2-0.8c-0.2,0-0.2-0.2-0.2-0.2s0-0.2,0.2-0.2l4-2.5
	c0.6-0.3,0.9-0.7,0.9-1s-0.2-0.7-0.6-0.8c-0.3-0.2-0.8-0.3-1.4-0.3c-0.5,0-1.1,0.2-1.7,0.5l-4,2.5c-0.2,0-0.2,0.2-0.3,0.2
	s-0.3,0-0.3-0.2l-1.2-0.8C82.2,351,82.2,351,82.2,350.9z"/>
    <path class="st3" d="M95.2,358.1c0-0.8,0.5-1.5,1.5-2.1l0.3-0.2c1.2-0.7,2.5-1.1,3.7-1.1c1.2,0,2.5,0.3,3.6,1
	c1.1,0.7,1.7,1.5,1.5,2.3c0,0.8-0.6,1.5-1.9,2.3l-0.3,0.2c-0.2,0-0.2,0.2-0.3,0.2s-0.3,0-0.3-0.2l-4.8-3h-0.2
	c-0.5,0.3-0.8,0.7-0.9,1.1c0,0.3,0.2,0.7,0.6,1c0.6,0.3,1.2,0.5,2,0.5c0.2,0,0.3,0,0.5,0c0,0,0.2,0,0.3,0.2l1.2,0.8
	c0.2,0,0.2,0.2,0.2,0.2s0,0.2-0.2,0.2c-0.2,0.2-0.6,0.2-1.2,0.2c-0.6,0-1.2,0-2-0.2s-1.4-0.5-2.2-0.8
	C95.9,359.6,95.4,358.9,95.2,358.1z M103,358.4c0.6-0.3,0.9-0.7,0.9-1.1c0-0.3-0.2-0.7-0.6-1c-0.5-0.3-1.1-0.5-1.7-0.3
	c-0.6,0-1.2,0.2-1.7,0.5L103,358.4z"/>
    <path class="st3" d="M234.3,355.3l19.5,12l1.9-1.1l-19.5-12L234.3,355.3z M283.7,353.8c-1.2-0.8-3.3-0.8-4.3,0
	c-0.9,0.5-1.1,1.3-0.8,2l-18.7,1.5l6.7-8.7c1.2,0.5,2.8,0.3,3.7-0.3c1.2-0.7,1.2-2,0-2.6c-1.2-0.7-3.3-0.8-4.3,0
	c-0.9,0.7-1.1,1.5-0.5,2.3l-14.6,3.8l2.3-11.5c1.1,0.3,2.5,0.2,3.3-0.5c1.2-0.7,1.2-2,0-2.6c-1.2-0.8-3.3-0.8-4.3,0
	c-1.2,0.7-1.2,2,0,2.6h0.2L237.9,353l19.7,12.1l21.7-8.7l0.2,0.2c1.2,0.8,3.3,0.8,4.3,0C284.9,355.8,284.9,354.6,283.7,353.8z"/>
</svg>
