<?xml version="1.0" encoding="utf-8"?>
<!-- Generator: Adobe Illustrator 21.1.0, SVG Export Plug-In . SVG Version: 6.00 Build 0)  -->
<svg version="1.1" id="Layer_1" xmlns="http://www.w3.org/2000/svg" xmlns:xlink="http://www.w3.org/1999/xlink" x="0px"
     y="0px"
     viewBox="0 0 485 476" style="enable-background:new 0 0 485 476;" xml:space="preserve">
<style type="text/css">
	.st0{opacity:0.15;}
	.st1{opacity:0.15;fill:url(#SVGID_1_);enable-background:new    ;}
	.st2{fill:url(#SVGID_2_);}
	.st3{fill:url(#SVGID_3_);}
	.st4{fill:#FDD65B;}
	.st5{fill:url(#SVGID_4_);}
	.st6{fill:url(#SVGID_5_);}
	.st7{fill:url(#SVGID_6_);}
	.st8{fill:url(#SVGID_7_);}
	.st9{fill:url(#SVGID_8_);}
	.st10{fill:url(#SVGID_9_);}
	.st11{fill:url(#SVGID_10_);}
	.st12{fill:url(#SVGID_11_);}
	.st13{fill:url(#SVGID_12_);}
	.st14{fill:url(#SVGID_13_);}
	.st15{fill:url(#SVGID_14_);}
	.st16{fill:url(#SVGID_15_);}
	.st17{fill:url(#SVGID_16_);}
	.st18{fill:url(#SVGID_17_);}
	.st19{fill:url(#SVGID_18_);}
	.st20{fill:url(#SVGID_19_);}
	.st21{fill:url(#SVGID_20_);}
	.st22{fill:url(#SVGID_21_);}
	.st23{fill:url(#SVGID_22_);}
	.st24{fill:url(#SVGID_23_);}
	.st25{fill:url(#SVGID_24_);}
	.st26{fill:url(#SVGID_25_);}
	.st27{fill:url(#SVGID_26_);}
	.st28{fill:url(#SVGID_27_);}
	.st29{fill:url(#SVGID_28_);}
	.st30{fill:url(#SVGID_29_);}
	.st31{fill:url(#SVGID_30_);}
	.st32{fill:url(#SVGID_31_);}
	.st33{fill:url(#SVGID_32_);}
	.st34{fill:url(#SVGID_33_);}
	.st35{fill:url(#SVGID_34_);}
	.st36{fill:url(#SVGID_35_);}
	.st37{fill:url(#SVGID_36_);}
	.st38{fill:url(#SVGID_37_);}
	.st39{fill:url(#SVGID_38_);}
	.st40{fill:url(#SVGID_39_);}
	.st41{fill:url(#SVGID_40_);}
	.st42{opacity:0.15;fill:url(#SVGID_41_);enable-background:new    ;}
	.st43{fill:url(#SVGID_42_);}
	.st44{fill:url(#SVGID_43_);}
	.st45{fill:url(#SVGID_44_);}
	.st46{fill:url(#SVGID_45_);}
	.st47{fill:url(#SVGID_46_);}
	.st48{fill:url(#SVGID_47_);}
	.st49{fill:url(#SVGID_48_);}
	.st50{opacity:0.1;}
	.st51{opacity:0.1;fill:url(#SVGID_49_);enable-background:new    ;}
	.st52{opacity:0.1;fill:url(#SVGID_50_);enable-background:new    ;}
	.st53{opacity:0.1;fill:url(#SVGID_51_);enable-background:new    ;}
</style>
    <g class="st0">
	
		<linearGradient id="SVGID_1_" gradientUnits="userSpaceOnUse" x1="411.934" y1="207.5875" x2="459.662"
                        y2="207.5875" gradientTransform="matrix(1 0 0 -1 0 478)">
		<stop offset="0" style="stop-color:#FFBB96"/>
            <stop offset="0.2273" style="stop-color:#FFFBC9"/>
            <stop offset="0.5404" style="stop-color:#F9B673"/>
            <stop offset="0.6391" style="stop-color:#F9B876"/>
            <stop offset="0.7249" style="stop-color:#FABE81"/>
            <stop offset="0.8057" style="stop-color:#FCC993"/>
            <stop offset="0.8586" style="stop-color:#FED2A3"/>
            <stop offset="0.9697" style="stop-color:#FFC28C"/>
	</linearGradient>
        <path class="st1" d="M435.9,276.3c-13.3,0-24.3-6.7-24.3-14.9v1.3v1.8c0,8.2,10.8,14.9,24.3,14.9c13.3,0,24.3-6.7,24.3-14.9v-0.2
		v-3C460.2,269.6,449.4,276.3,435.9,276.3z"/>
</g>
    <linearGradient id="SVGID_2_" gradientUnits="userSpaceOnUse" x1="411.996" y1="214.306" x2="459.724" y2="214.306"
                    gradientTransform="matrix(1 0 0 -1 0 478)">
	<stop offset="0" style="stop-color:#FFBB96"/>
        <stop offset="0.2273" style="stop-color:#FFFBC9"/>
        <stop offset="0.5404" style="stop-color:#F9B673"/>
        <stop offset="0.6391" style="stop-color:#F9B876"/>
        <stop offset="0.7249" style="stop-color:#FABE81"/>
        <stop offset="0.8057" style="stop-color:#FCC993"/>
        <stop offset="0.8586" style="stop-color:#FED2A3"/>
        <stop offset="0.9697" style="stop-color:#FFC28C"/>
</linearGradient>
    <path class="st2"
          d="M460.2,252.6h-48.5v7.2v0.2c0,8.2,10.8,14.9,24.3,14.9c13.5,0,24.3-6.7,24.3-14.9v-0.2v-7.2H460.2z"/>
    <linearGradient id="SVGID_3_" gradientUnits="userSpaceOnUse" x1="411.996" y1="211.3565" x2="459.724" y2="211.3565"
                    gradientTransform="matrix(1 0 0 -1 0 478)">
	<stop offset="0" style="stop-color:#FFBB96"/>
        <stop offset="0.2273" style="stop-color:#FFFBC9"/>
        <stop offset="0.5404" style="stop-color:#F9B673"/>
        <stop offset="0.6391" style="stop-color:#F9B876"/>
        <stop offset="0.7249" style="stop-color:#FABE81"/>
        <stop offset="0.8057" style="stop-color:#FCC993"/>
        <stop offset="0.8586" style="stop-color:#FED2A3"/>
        <stop offset="0.9697" style="stop-color:#FFC28C"/>
</linearGradient>
    <path class="st3" d="M436.1,273.4c-13.3,0-24.3-6.7-24.3-14.9v1.3v0.2c0,8.2,10.8,14.9,24.3,14.9c13.3,0,24.3-6.7,24.3-14.9v-0.2
	v-1.3C460.2,266.6,449.4,273.4,436.1,273.4z"/>
    <path class="st4" d="M443.5,274.2c0.2,0,0.5-0.2,0.6-0.2v-19h-0.6V274.2z"/>
    <path class="st4" d="M446.4,273.5c0.2,0,0.5-0.2,0.6-0.2v-18.2h-0.6V273.5z"/>
    <path class="st4" d="M449.5,272.4c0.3-0.2,0.5-0.2,0.6-0.3v-17h-0.6V272.4z"/>
    <path class="st4" d="M440.4,274.7c0.2,0,0.5,0,0.6,0v-19.5h-0.6V274.7z"/>
    <path class="st4" d="M455.6,268.8c0.2-0.2,0.5-0.3,0.6-0.7V255h-0.6V268.8z"/>
    <path class="st4" d="M458.7,265.3c0.3-0.5,0.5-0.8,0.6-1.3v-8.8h-0.6V265.3z"/>
    <path class="st4" d="M452.6,270.9c0.2-0.2,0.5-0.3,0.6-0.3v-15.4h-0.6V270.9z"/>
    <path class="st4" d="M437.3,274.8c0.2,0,0.5,0,0.6,0V255h-0.6V274.8z"/>
    <path class="st4" d="M434.4,274.8c0.2,0,0.5,0,0.6,0V255h-0.6V274.8z"/>
    <path class="st4" d="M428.2,274.2c0.2,0,0.5,0.2,0.6,0.2v-19.2h-0.6V274.2z"/>
    <path class="st4" d="M431.3,274.7c0.2,0,0.5,0,0.6,0V255h-0.6V274.7z"/>
    <path class="st4" d="M425.2,273.4c0.2,0,0.5,0.2,0.6,0.2V255h-0.6V273.4z"/>
    <path class="st4" d="M413,264.7c0.2,0.3,0.5,0.8,0.6,1.1v-10.7H413V264.7z"/>
    <path class="st4" d="M416.1,268.4c0.2,0.2,0.5,0.3,0.6,0.5V255h-0.6V268.4z"/>
    <path class="st4" d="M422.1,272.2c0.2,0.2,0.5,0.2,0.6,0.3v-17.4h-0.6V272.2z"/>
    <path class="st4" d="M419,270.7c0.2,0.2,0.5,0.3,0.6,0.3v-15.9H419V270.7z"/>
    <linearGradient id="SVGID_4_" gradientUnits="userSpaceOnUse" x1="483.4207" y1="270.3169" x2="433.2877" y2="222.6439"
                    gradientTransform="matrix(1 0 0 -1 0 478)">
	<stop offset="3.535350e-02" style="stop-color:#FFBA78"/>
        <stop offset="0.395" style="stop-color:#FFC987"/>
        <stop offset="1" style="stop-color:#FEECA8"/>
</linearGradient>
    <path class="st5" d="M436.1,267.6c13.4,0,24.3-6.7,24.3-14.9c0-8.2-10.9-14.9-24.3-14.9c-13.4,0-24.3,6.7-24.3,14.9
	C411.8,261,422.6,267.6,436.1,267.6z"/>
    <linearGradient id="SVGID_5_" gradientUnits="userSpaceOnUse" x1="456.6597" y1="244.8684" x2="419.1837" y2="209.2314"
                    gradientTransform="matrix(1 0 0 -1 0 478)">
	<stop offset="3.535350e-02" style="stop-color:#FFBA78"/>
        <stop offset="0.395" style="stop-color:#FFC987"/>
        <stop offset="1" style="stop-color:#FEECA8"/>
</linearGradient>
    <path class="st6" d="M454.2,252.7c0,6.2-8.1,11.1-18.1,11.1c-10.1,0-18.1-5.1-18.1-11.1c0-6.2,8.1-11.1,18.1-11.1
	C446.1,241.6,454.2,246.5,454.2,252.7z"/>
    <radialGradient id="SVGID_6_" cx="-58.3009" cy="623.9346" r="1"
                    gradientTransform="matrix(13.4068 0 0 -14.1884 1226.1754 9093.0586)" gradientUnits="userSpaceOnUse">
	<stop offset="0" style="stop-color:#FFFFFF"/>
        <stop offset="1" style="stop-color:#000000"/>
</radialGradient>
    <path class="st7" d="M436.7,242.1c9.8,0,17.5,4.8,18.1,10.7c0-0.2,0-0.3,0-0.7c0-6.2-8.1-11.1-18.1-11.1c-10.1,0-18.1,5.1-18.1,11.1
	c0,0.2,0,0.3,0,0.7C419,246.8,426.9,242.1,436.7,242.1z"/>
    <linearGradient id="SVGID_7_" gradientUnits="userSpaceOnUse" x1="463.5185" y1="252.6964" x2="428.1525" y2="219.0654"
                    gradientTransform="matrix(1 0 0 -1 0 478)">
	<stop offset="0" style="stop-color:#FFBB96"/>
        <stop offset="0.2273" style="stop-color:#FFFBC9"/>
        <stop offset="0.5404" style="stop-color:#F9B673"/>
        <stop offset="0.6391" style="stop-color:#F9B876"/>
        <stop offset="0.7249" style="stop-color:#FABE81"/>
        <stop offset="0.8057" style="stop-color:#FCC993"/>
        <stop offset="0.8586" style="stop-color:#FED2A3"/>
        <stop offset="0.9697" style="stop-color:#FFC28C"/>
</linearGradient>
    <path class="st8" d="M436.1,242.7c9.8,0,17.5,4.8,18.1,10.7c0-0.2,0-0.3,0-0.7c0-6.2-8.1-11.1-18.1-11.1c-10.1,0-18.1,5.1-18.1,11.1
	c0,0.2,0,0.3,0,0.7C418.4,247.3,426.3,242.7,436.1,242.7z"/>
    <radialGradient id="SVGID_8_" cx="-86.2694" cy="624.691" r="0.9996"
                    gradientTransform="matrix(1.6622 -5.172 -9.8633 -3.5548 6751.9756 2017.916)"
                    gradientUnits="userSpaceOnUse">
	<stop offset="0" style="stop-color:#F49587"/>
        <stop offset="0.116" style="stop-color:#BD7368"/>
        <stop offset="0.2362" style="stop-color:#8B554D"/>
        <stop offset="0.3594" style="stop-color:#603B35"/>
        <stop offset="0.4835" style="stop-color:#3E2622"/>
        <stop offset="0.6085" style="stop-color:#231513"/>
        <stop offset="0.7352" style="stop-color:#0F0908"/>
        <stop offset="0.8644" style="stop-color:#040202"/>
        <stop offset="1" style="stop-color:#000000"/>
</radialGradient>
    <path class="st9" d="M448.8,238.3c5.4,2,9.1,5.9,8.2,8.7c-0.9,2.8-6,3.6-11.5,1.6c-5.4-2-9.1-5.9-8.2-8.7
	C438.1,237,443.3,236.3,448.8,238.3z"/>
    <linearGradient id="SVGID_9_" gradientUnits="userSpaceOnUse" x1="426.958" y1="225.1225" x2="445.029" y2="225.1225"
                    gradientTransform="matrix(1 0 0 -1 0 478)">
	<stop offset="0" style="stop-color:#FFBB96"/>
        <stop offset="0.2273" style="stop-color:#FFFBC9"/>
        <stop offset="0.5404" style="stop-color:#F9B673"/>
        <stop offset="0.6391" style="stop-color:#F9B876"/>
        <stop offset="0.7249" style="stop-color:#FABE81"/>
        <stop offset="0.8057" style="stop-color:#FCC993"/>
        <stop offset="0.8586" style="stop-color:#FED2A3"/>
        <stop offset="0.9697" style="stop-color:#FFC28C"/>
</linearGradient>
    <path class="st10" d="M437.5,249.1c-0.5,0.2-0.9,0.2-1.4,0.3c-0.5,0.2-0.9,0.3-1.4,0.5c-0.5,0.2-0.9,0.3-1.4,0.5l1.4,0.8
	c0.2,0,0.3-0.2,0.5-0.2s0.3-0.2,0.5-0.2c0.8-0.3,1.5-0.5,2.3-0.8c0.8-0.2,1.4-0.3,2-0.5c0.6,0,1.2,0,1.9,0c0.6,0.2,1.1,0.3,1.7,0.7
	c0.6,0.3,1.1,0.8,1.2,1.3c0.2,0.5,0.2,0.8,0,1.3c-0.2,0.5-0.5,1-0.9,1.3c-0.5,0.5-0.9,0.8-1.5,1.3l2,1.1l-1.7,1l-2-1.1
	c-0.9,0.5-2,1-3.3,1.5c-1.1,0.5-2.3,0.8-3.4,1l-1.1-2.8c0.6-0.2,1.1-0.3,1.7-0.3c0.5-0.2,1.1-0.3,1.7-0.5c0.6-0.2,1.2-0.5,1.7-0.7
	l-1.4-0.8c-0.5,0.2-1.1,0.3-1.5,0.7c-0.8,0.3-1.5,0.5-2.2,0.7c-0.6,0.2-1.2,0.3-1.9,0.3c-0.6,0-1.1,0-1.5-0.2
	c-0.5-0.2-0.9-0.3-1.4-0.5c-0.6-0.3-0.9-0.8-1.2-1.1c-0.2-0.5-0.3-0.8-0.2-1.3c0.2-0.5,0.3-1,0.8-1.3c0.3-0.5,0.8-1,1.4-1.3l-1.7-1
	l1.7-1l1.7,1c0.5-0.3,0.9-0.5,1.5-0.7c0.5-0.2,1.1-0.3,1.5-0.5c0.5-0.2,0.9-0.3,1.4-0.5c0.5-0.2,0.9-0.3,1.2-0.3L437.5,249.1z
	 M431.9,251.9c0.2,0.2,0.3,0.2,0.6,0.2s0.5-0.2,0.9-0.2l-1.2-0.8C431.7,251.4,431.6,251.7,431.9,251.9z M439.8,253.2
	c-0.2-0.2-0.3-0.2-0.6-0.2s-0.6,0.2-0.9,0.2l1.2,0.7c0.3-0.2,0.5-0.3,0.5-0.5C439.9,253.5,439.9,253.4,439.8,253.2z"/>
    <linearGradient id="SVGID_10_" gradientUnits="userSpaceOnUse" x1="454.0865" y1="235.4332" x2="438.2915"
                    y2="227.2882" gradientTransform="matrix(1 0 0 -1 0 478)">
	<stop offset="3.535350e-02" style="stop-color:#FFBA78"/>
        <stop offset="0.395" style="stop-color:#FFC987"/>
        <stop offset="1" style="stop-color:#FEECA8"/>
</linearGradient>
    <path class="st11" d="M437.5,248.5c-0.5,0.2-0.9,0.2-1.4,0.3c-0.5,0.2-0.9,0.3-1.4,0.5c-0.5,0.2-0.9,0.3-1.4,0.5l1.4,0.8
	c0.2,0,0.3-0.2,0.5-0.2s0.3-0.2,0.5-0.2c0.8-0.3,1.5-0.5,2.3-0.8c0.8-0.2,1.4-0.3,2-0.5c0.6,0,1.2,0,1.9,0c0.6,0.2,1.1,0.3,1.7,0.7
	c0.6,0.3,1.1,0.8,1.2,1.3c0.2,0.5,0.2,0.8,0,1.3c-0.2,0.5-0.5,1-0.9,1.3c-0.5,0.5-0.9,0.8-1.5,1.3l2,1.1l-1.7,1l-2-1.1
	c-0.9,0.5-2,1-3.3,1.5c-1.1,0.5-2.3,0.8-3.4,1l-1.1-2.8c0.6-0.2,1.1-0.3,1.7-0.3c0.5-0.2,1.1-0.3,1.7-0.5c0.6-0.2,1.2-0.5,1.7-0.7
	l-1.4-0.8c-0.5,0.2-1.1,0.3-1.5,0.7c-0.8,0.3-1.5,0.5-2.2,0.7c-0.6,0.2-1.2,0.3-1.9,0.3c-0.6,0-1.1,0-1.5-0.2
	c-0.5-0.2-0.9-0.3-1.4-0.5c-0.6-0.3-0.9-0.8-1.2-1.1c-0.2-0.5-0.3-0.8-0.2-1.3c0.2-0.5,0.3-1,0.8-1.3c0.3-0.5,0.8-1,1.4-1.3l-1.7-1
	l1.7-1l1.7,1c0.5-0.3,0.9-0.5,1.5-0.7c0.5-0.2,1.1-0.3,1.5-0.5c0.5-0.2,0.9-0.3,1.4-0.5c0.5-0.2,0.9-0.3,1.2-0.3L437.5,248.5z
	 M431.9,251.2c0.2,0.2,0.3,0.2,0.6,0.2s0.5-0.2,0.9-0.2l-1.2-0.8C431.7,250.7,431.6,251.1,431.9,251.2z M439.8,252.7
	c-0.2-0.2-0.3-0.2-0.6-0.2s-0.6,0.2-0.9,0.2l1.2,0.7c0.3-0.2,0.5-0.3,0.5-0.5C439.9,252.9,439.9,252.7,439.8,252.7z"/>
    <radialGradient id="SVGID_11_" cx="-59.1048" cy="625.8276" r="1"
                    gradientTransform="matrix(16.1739 0 0 -17.1165 1379.5828 10965.4014)"
                    gradientUnits="userSpaceOnUse">
	<stop offset="0" style="stop-color:#F49587"/>
        <stop offset="0.116" style="stop-color:#BD7368"/>
        <stop offset="0.2362" style="stop-color:#8B554D"/>
        <stop offset="0.3594" style="stop-color:#603B35"/>
        <stop offset="0.4835" style="stop-color:#3E2622"/>
        <stop offset="0.6085" style="stop-color:#231513"/>
        <stop offset="0.7352" style="stop-color:#0F0908"/>
        <stop offset="0.8644" style="stop-color:#040202"/>
        <stop offset="1" style="stop-color:#000000"/>
</radialGradient>
    <path class="st12" d="M437.5,248.5c-0.5,0.2-0.9,0.2-1.4,0.3c-0.5,0.2-0.9,0.3-1.4,0.5c-0.5,0.2-0.9,0.3-1.4,0.5l1.4,0.8
	c0.2,0,0.3-0.2,0.5-0.2s0.3-0.2,0.5-0.2c0.8-0.3,1.5-0.5,2.3-0.8c0.8-0.2,1.4-0.3,2-0.5c0.6,0,1.2,0,1.9,0c0.6,0.2,1.1,0.3,1.7,0.7
	c0.6,0.3,1.1,0.8,1.2,1.3c0.2,0.5,0.2,0.8,0,1.3c-0.2,0.5-0.5,1-0.9,1.3c-0.5,0.5-0.9,0.8-1.5,1.3l2,1.1l-1.7,1l-2-1.1
	c-0.9,0.5-2,1-3.3,1.5c-1.1,0.5-2.3,0.8-3.4,1l-1.1-2.8c0.6-0.2,1.1-0.3,1.7-0.3c0.5-0.2,1.1-0.3,1.7-0.5c0.6-0.2,1.2-0.5,1.7-0.7
	l-1.4-0.8c-0.5,0.2-1.1,0.3-1.5,0.7c-0.8,0.3-1.5,0.5-2.2,0.7c-0.6,0.2-1.2,0.3-1.9,0.3c-0.6,0-1.1,0-1.5-0.2
	c-0.5-0.2-0.9-0.3-1.4-0.5c-0.6-0.3-0.9-0.8-1.2-1.1c-0.2-0.5-0.3-0.8-0.2-1.3c0.2-0.5,0.3-1,0.8-1.3c0.3-0.5,0.8-1,1.4-1.3l-1.7-1
	l1.7-1l1.7,1c0.5-0.3,0.9-0.5,1.5-0.7c0.5-0.2,1.1-0.3,1.5-0.5c0.5-0.2,0.9-0.3,1.4-0.5c0.5-0.2,0.9-0.3,1.2-0.3L437.5,248.5z
	 M431.9,251.2c0.2,0.2,0.3,0.2,0.6,0.2s0.5-0.2,0.9-0.2l-1.2-0.8C431.7,250.7,431.6,251.1,431.9,251.2z M439.8,252.7
	c-0.2-0.2-0.3-0.2-0.6-0.2s-0.6,0.2-0.9,0.2l1.2,0.7c0.3-0.2,0.5-0.3,0.5-0.5C439.9,252.9,439.9,252.7,439.8,252.7z"/>
    <linearGradient id="SVGID_12_" gradientUnits="userSpaceOnUse" x1="411.996" y1="222.336" x2="459.724" y2="222.336"
                    gradientTransform="matrix(1 0 0 -1 0 478)">
	<stop offset="0" style="stop-color:#FFBB96"/>
        <stop offset="0.2273" style="stop-color:#FFFBC9"/>
        <stop offset="0.5404" style="stop-color:#F9B673"/>
        <stop offset="0.6391" style="stop-color:#F9B876"/>
        <stop offset="0.7249" style="stop-color:#FABE81"/>
        <stop offset="0.8057" style="stop-color:#FCC993"/>
        <stop offset="0.8586" style="stop-color:#FED2A3"/>
        <stop offset="0.9697" style="stop-color:#FFC28C"/>
</linearGradient>
    <path class="st13"
          d="M460.2,244.5h-48.5v7.2v0.2c0,8.2,10.8,14.9,24.3,14.9c13.5,0,24.3-6.7,24.3-14.9v-0.2v-7.2H460.2z"/>
    <linearGradient id="SVGID_13_" gradientUnits="userSpaceOnUse" x1="411.996" y1="219.3865" x2="459.724" y2="219.3865"
                    gradientTransform="matrix(1 0 0 -1 0 478)">
	<stop offset="0" style="stop-color:#FFBB96"/>
        <stop offset="0.2273" style="stop-color:#FFFBC9"/>
        <stop offset="0.5404" style="stop-color:#F9B673"/>
        <stop offset="0.6391" style="stop-color:#F9B876"/>
        <stop offset="0.7249" style="stop-color:#FABE81"/>
        <stop offset="0.8057" style="stop-color:#FCC993"/>
        <stop offset="0.8586" style="stop-color:#FED2A3"/>
        <stop offset="0.9697" style="stop-color:#FFC28C"/>
</linearGradient>
    <path class="st14" d="M436.1,265.3c-13.3,0-24.3-6.7-24.3-14.9v1.3v0.2c0,8.2,10.8,14.9,24.3,14.9c13.3,0,24.3-6.7,24.3-14.9v-0.2
	v-1.3C460.2,258.6,449.4,265.3,436.1,265.3z"/>
    <path class="st4" d="M443.5,266.2c0.2,0,0.5-0.2,0.6-0.2v-19h-0.6V266.2z"/>
    <path class="st4" d="M446.4,265.3c0.2,0,0.5-0.2,0.6-0.2V247h-0.6V265.3z"/>
    <path class="st4" d="M449.5,264.4c0.3-0.2,0.5-0.2,0.6-0.3v-17h-0.6V264.4z"/>
    <path class="st4" d="M440.4,266.6c0.2,0,0.5,0,0.6,0v-19.5h-0.6V266.6z"/>
    <path class="st4" d="M455.6,260.7c0.2-0.2,0.5-0.3,0.6-0.7V247h-0.6V260.7z"/>
    <path class="st4" d="M458.7,257.1c0.3-0.5,0.5-0.8,0.6-1.3V247h-0.6V257.1z"/>
    <path class="st4" d="M452.6,262.9c0.2-0.2,0.5-0.3,0.6-0.3v-15.4h-0.6V262.9z"/>
    <path class="st4" d="M437.3,266.8c0.2,0,0.5,0,0.6,0V247h-0.6V266.8z"/>
    <path class="st4" d="M434.4,266.8c0.2,0,0.5,0,0.6,0V247h-0.6V266.8z"/>
    <path class="st4" d="M428.2,266c0.2,0,0.5,0.2,0.6,0.2V247h-0.6V266z"/>
    <path class="st4" d="M431.3,266.5c0.2,0,0.5,0,0.6,0v-19.7h-0.6V266.5z"/>
    <path class="st4" d="M425.2,265.3c0.2,0,0.5,0.2,0.6,0.2V247h-0.6V265.3z"/>
    <path class="st4" d="M413,256.5c0.2,0.3,0.5,0.8,0.6,1.1V247H413V256.5z"/>
    <path class="st4" d="M416.1,260.4c0.2,0.2,0.5,0.3,0.6,0.5V247h-0.6V260.4z"/>
    <path class="st4" d="M422.1,264.2c0.2,0.2,0.5,0.2,0.6,0.3v-17.4h-0.6V264.2z"/>
    <path class="st4" d="M419,262.5c0.2,0.2,0.5,0.3,0.6,0.3V247H419V262.5z"/>
    <linearGradient id="SVGID_14_" gradientUnits="userSpaceOnUse" x1="483.3734" y1="278.4647" x2="433.2404"
                    y2="230.7917" gradientTransform="matrix(1 0 0 -1 0 478)">
	<stop offset="3.535350e-02" style="stop-color:#FFBA78"/>
        <stop offset="0.395" style="stop-color:#FFC987"/>
        <stop offset="1" style="stop-color:#FEECA8"/>
</linearGradient>
    <path class="st15" d="M436.1,259.4c13.4,0,24.3-6.7,24.3-14.9c0-8.2-10.9-14.9-24.3-14.9c-13.4,0-24.3,6.7-24.3,14.9
	C411.8,252.8,422.6,259.4,436.1,259.4z"/>
    <linearGradient id="SVGID_15_" gradientUnits="userSpaceOnUse" x1="456.6124" y1="253.0181" x2="419.1364"
                    y2="217.3801" gradientTransform="matrix(1 0 0 -1 0 478)">
	<stop offset="3.535350e-02" style="stop-color:#FFBA78"/>
        <stop offset="0.395" style="stop-color:#FFC987"/>
        <stop offset="1" style="stop-color:#FEECA8"/>
</linearGradient>
    <path class="st16" d="M454.2,244.5c0,6.2-8.1,11.1-18.1,11.1c-10.1,0-18.1-5.1-18.1-11.1c0-6.2,8.1-11.1,18.1-11.1
	C446.1,233.4,454.2,238.5,454.2,244.5z"/>
    <radialGradient id="SVGID_16_" cx="-58.3009" cy="623.935" r="1"
                    gradientTransform="matrix(13.4068 0 0 -14.1889 1226.1754 9085.2754)" gradientUnits="userSpaceOnUse">
	<stop offset="0" style="stop-color:#FFFFFF"/>
        <stop offset="1" style="stop-color:#000000"/>
</radialGradient>
    <path class="st17" d="M436.7,234c9.8,0,17.5,4.8,18.1,10.7c0-0.2,0-0.3,0-0.7c0-6.2-8.1-11.1-18.1-11.1c-10.1,0-18.1,5.1-18.1,11.1
	c0,0.2,0,0.3,0,0.7C419,238.6,426.9,234,436.7,234z"/>
    <linearGradient id="SVGID_17_" gradientUnits="userSpaceOnUse" x1="463.4721" y1="260.8451" x2="428.1051"
                    y2="227.2151" gradientTransform="matrix(1 0 0 -1 0 478)">
	<stop offset="0" style="stop-color:#FFBB96"/>
        <stop offset="0.2273" style="stop-color:#FFFBC9"/>
        <stop offset="0.5404" style="stop-color:#F9B673"/>
        <stop offset="0.6391" style="stop-color:#F9B876"/>
        <stop offset="0.7249" style="stop-color:#FABE81"/>
        <stop offset="0.8057" style="stop-color:#FCC993"/>
        <stop offset="0.8586" style="stop-color:#FED2A3"/>
        <stop offset="0.9697" style="stop-color:#FFC28C"/>
</linearGradient>
    <path class="st18" d="M436.1,234.5c9.8,0,17.5,4.8,18.1,10.7c0-0.2,0-0.3,0-0.7c0-6.2-8.1-11.1-18.1-11.1
	c-10.1,0-18.1,5.1-18.1,11.1c0,0.2,0,0.3,0,0.7C418.4,239.3,426.3,234.5,436.1,234.5z"/>
    <radialGradient id="SVGID_18_" cx="-86.2716" cy="624.6907" r="1"
                    gradientTransform="matrix(1.6622 -5.1717 -9.8633 -3.5547 6751.9756 2009.7249)"
                    gradientUnits="userSpaceOnUse">
	<stop offset="0" style="stop-color:#F49587"/>
        <stop offset="0.116" style="stop-color:#BD7368"/>
        <stop offset="0.2362" style="stop-color:#8B554D"/>
        <stop offset="0.3594" style="stop-color:#603B35"/>
        <stop offset="0.4835" style="stop-color:#3E2622"/>
        <stop offset="0.6085" style="stop-color:#231513"/>
        <stop offset="0.7352" style="stop-color:#0F0908"/>
        <stop offset="0.8644" style="stop-color:#040202"/>
        <stop offset="1" style="stop-color:#000000"/>
</radialGradient>
    <path class="st19" d="M448.8,230.1c5.4,2,9.1,5.9,8.2,8.7c-0.9,2.8-6,3.6-11.5,1.6c-5.4-2-9.1-5.9-8.2-8.7
	C438.1,229,443.3,228.1,448.8,230.1z"/>
    <linearGradient id="SVGID_19_" gradientUnits="userSpaceOnUse" x1="426.958" y1="233.1525" x2="445.029" y2="233.1525"
                    gradientTransform="matrix(1 0 0 -1 0 478)">
	<stop offset="0" style="stop-color:#FFBB96"/>
        <stop offset="0.2273" style="stop-color:#FFFBC9"/>
        <stop offset="0.5404" style="stop-color:#F9B673"/>
        <stop offset="0.6391" style="stop-color:#F9B876"/>
        <stop offset="0.7249" style="stop-color:#FABE81"/>
        <stop offset="0.8057" style="stop-color:#FCC993"/>
        <stop offset="0.8586" style="stop-color:#FED2A3"/>
        <stop offset="0.9697" style="stop-color:#FFC28C"/>
</linearGradient>
    <path class="st20" d="M437.5,241.1c-0.5,0.2-0.9,0.2-1.4,0.3c-0.5,0.2-0.9,0.3-1.4,0.5c-0.5,0.2-0.9,0.3-1.4,0.5l1.4,0.8
	c0.2,0,0.3-0.2,0.5-0.2s0.3-0.2,0.5-0.2c0.8-0.3,1.5-0.5,2.3-0.8c0.8-0.2,1.4-0.3,2-0.5c0.6,0,1.2,0,1.9,0c0.6,0.2,1.1,0.3,1.7,0.7
	c0.6,0.3,1.1,0.8,1.2,1.3c0.2,0.5,0.2,0.8,0,1.3c-0.2,0.5-0.5,1-0.9,1.3c-0.5,0.5-0.9,0.8-1.5,1.3l2,1.1l-1.7,1l-2-1.1
	c-0.9,0.5-2,1-3.3,1.5c-1.1,0.5-2.3,0.8-3.4,1l-1.1-2.8c0.6-0.2,1.1-0.3,1.7-0.3c0.5-0.2,1.1-0.3,1.7-0.5c0.6-0.2,1.2-0.5,1.7-0.7
	l-1.4-0.8c-0.5,0.2-1.1,0.3-1.5,0.7c-0.8,0.3-1.5,0.5-2.2,0.7c-0.6,0.2-1.2,0.3-1.9,0.3c-0.6,0-1.1,0-1.5-0.2
	c-0.5-0.2-0.9-0.3-1.4-0.5c-0.6-0.3-0.9-0.8-1.2-1.1c-0.2-0.5-0.3-0.8-0.2-1.3c0.2-0.5,0.3-1,0.8-1.3c0.3-0.5,0.8-1,1.4-1.3l-1.7-1
	l1.7-1l1.7,1c0.5-0.3,0.9-0.5,1.5-0.7c0.5-0.2,1.1-0.3,1.5-0.5c0.5-0.2,0.9-0.3,1.4-0.5c0.5-0.2,0.9-0.3,1.2-0.3L437.5,241.1z
	 M431.9,243.9c0.2,0.2,0.3,0.2,0.6,0.2s0.5-0.2,0.9-0.2l-1.2-0.8C431.7,243.4,431.6,243.5,431.9,243.9z M439.8,245.2
	c-0.2-0.2-0.3-0.2-0.6-0.2s-0.6,0.2-0.9,0.2l1.2,0.7c0.3-0.2,0.5-0.3,0.5-0.5C439.9,245.3,439.9,245.3,439.8,245.2z"/>
    <linearGradient id="SVGID_20_" gradientUnits="userSpaceOnUse" x1="454.1144" y1="243.4792" x2="438.3194"
                    y2="235.3332" gradientTransform="matrix(1 0 0 -1 0 478)">
	<stop offset="3.535350e-02" style="stop-color:#FFBA78"/>
        <stop offset="0.395" style="stop-color:#FFC987"/>
        <stop offset="1" style="stop-color:#FEECA8"/>
</linearGradient>
    <path class="st21" d="M437.5,240.4c-0.5,0.2-0.9,0.2-1.4,0.3c-0.5,0.2-0.9,0.3-1.4,0.5c-0.5,0.2-0.9,0.3-1.4,0.5l1.4,0.8
	c0.2,0,0.3-0.2,0.5-0.2s0.3-0.2,0.5-0.2c0.8-0.3,1.5-0.5,2.3-0.8c0.8-0.2,1.4-0.3,2-0.5c0.6,0,1.2,0,1.9,0c0.6,0.2,1.1,0.3,1.7,0.7
	c0.6,0.3,1.1,0.8,1.2,1.3c0.2,0.5,0.2,0.8,0,1.3c-0.2,0.5-0.5,1-0.9,1.3c-0.5,0.5-0.9,0.8-1.5,1.3l2,1.1l-1.7,1l-2-1.1
	c-0.9,0.5-2,1-3.3,1.5c-1.1,0.5-2.3,0.8-3.4,1l-1.1-2.8c0.6-0.2,1.1-0.3,1.7-0.3c0.5-0.2,1.1-0.3,1.7-0.5c0.6-0.2,1.2-0.5,1.7-0.7
	l-1.4-0.8c-0.5,0.2-1.1,0.3-1.5,0.7c-0.8,0.3-1.5,0.5-2.2,0.7c-0.6,0.2-1.2,0.3-1.9,0.3c-0.6,0-1.1,0-1.5-0.2
	c-0.5-0.2-0.9-0.3-1.4-0.5c-0.6-0.3-0.9-0.8-1.2-1.1c-0.2-0.5-0.3-0.8-0.2-1.3c0.2-0.5,0.3-1,0.8-1.3c0.3-0.5,0.8-1,1.4-1.3l-1.7-1
	l1.7-1l1.7,1c0.5-0.3,0.9-0.5,1.5-0.7c0.5-0.2,1.1-0.3,1.5-0.5c0.5-0.2,0.9-0.3,1.4-0.5c0.5-0.2,0.9-0.3,1.2-0.3L437.5,240.4z
	 M431.9,243.2c0.2,0.2,0.3,0.2,0.6,0.2s0.5-0.2,0.9-0.2l-1.2-0.8C431.7,242.7,431.6,243,431.9,243.2z M439.8,244.5
	c-0.2-0.2-0.3-0.2-0.6-0.2s-0.6,0.2-0.9,0.2l1.2,0.7c0.3-0.2,0.5-0.3,0.5-0.5C439.9,244.7,439.9,244.7,439.8,244.5z"/>
    <radialGradient id="SVGID_21_" cx="-59.1048" cy="625.8276" r="1"
                    gradientTransform="matrix(16.1739 0 0 -17.1165 1379.5828 10957.3008)"
                    gradientUnits="userSpaceOnUse">
	<stop offset="0" style="stop-color:#F49587"/>
        <stop offset="0.116" style="stop-color:#BD7368"/>
        <stop offset="0.2362" style="stop-color:#8B554D"/>
        <stop offset="0.3594" style="stop-color:#603B35"/>
        <stop offset="0.4835" style="stop-color:#3E2622"/>
        <stop offset="0.6085" style="stop-color:#231513"/>
        <stop offset="0.7352" style="stop-color:#0F0908"/>
        <stop offset="0.8644" style="stop-color:#040202"/>
        <stop offset="1" style="stop-color:#000000"/>
</radialGradient>
    <path class="st22" d="M437.5,240.4c-0.5,0.2-0.9,0.2-1.4,0.3c-0.5,0.2-0.9,0.3-1.4,0.5c-0.5,0.2-0.9,0.3-1.4,0.5l1.4,0.8
	c0.2,0,0.3-0.2,0.5-0.2s0.3-0.2,0.5-0.2c0.8-0.3,1.5-0.5,2.3-0.8c0.8-0.2,1.4-0.3,2-0.5c0.6,0,1.2,0,1.9,0c0.6,0.2,1.1,0.3,1.7,0.7
	c0.6,0.3,1.1,0.8,1.2,1.3c0.2,0.5,0.2,0.8,0,1.3c-0.2,0.5-0.5,1-0.9,1.3c-0.5,0.5-0.9,0.8-1.5,1.3l2,1.1l-1.7,1l-2-1.1
	c-0.9,0.5-2,1-3.3,1.5c-1.1,0.5-2.3,0.8-3.4,1l-1.1-2.8c0.6-0.2,1.1-0.3,1.7-0.3c0.5-0.2,1.1-0.3,1.7-0.5c0.6-0.2,1.2-0.5,1.7-0.7
	l-1.4-0.8c-0.5,0.2-1.1,0.3-1.5,0.7c-0.8,0.3-1.5,0.5-2.2,0.7c-0.6,0.2-1.2,0.3-1.9,0.3c-0.6,0-1.1,0-1.5-0.2
	c-0.5-0.2-0.9-0.3-1.4-0.5c-0.6-0.3-0.9-0.8-1.2-1.1c-0.2-0.5-0.3-0.8-0.2-1.3c0.2-0.5,0.3-1,0.8-1.3c0.3-0.5,0.8-1,1.4-1.3l-1.7-1
	l1.7-1l1.7,1c0.5-0.3,0.9-0.5,1.5-0.7c0.5-0.2,1.1-0.3,1.5-0.5c0.5-0.2,0.9-0.3,1.4-0.5c0.5-0.2,0.9-0.3,1.2-0.3L437.5,240.4z
	 M431.9,243.2c0.2,0.2,0.3,0.2,0.6,0.2s0.5-0.2,0.9-0.2l-1.2-0.8C431.7,242.7,431.6,243,431.9,243.2z M439.8,244.5
	c-0.2-0.2-0.3-0.2-0.6-0.2s-0.6,0.2-0.9,0.2l1.2,0.7c0.3-0.2,0.5-0.3,0.5-0.5C439.9,244.7,439.9,244.7,439.8,244.5z"/>
    <linearGradient id="SVGID_22_" gradientUnits="userSpaceOnUse" x1="411.996" y1="230.858" x2="459.724" y2="230.858"
                    gradientTransform="matrix(1 0 0 -1 0 478)">
	<stop offset="0" style="stop-color:#FFBB96"/>
        <stop offset="0.2273" style="stop-color:#FFFBC9"/>
        <stop offset="0.5404" style="stop-color:#F9B673"/>
        <stop offset="0.6391" style="stop-color:#F9B876"/>
        <stop offset="0.7249" style="stop-color:#FABE81"/>
        <stop offset="0.8057" style="stop-color:#FCC993"/>
        <stop offset="0.8586" style="stop-color:#FED2A3"/>
        <stop offset="0.9697" style="stop-color:#FFC28C"/>
</linearGradient>
    <path class="st23"
          d="M460.2,236h-48.5v7.2v0.2c0,8.2,10.8,14.9,24.3,14.9c13.5,0,24.3-6.7,24.3-14.9v-0.2V236H460.2z"/>
    <linearGradient id="SVGID_23_" gradientUnits="userSpaceOnUse" x1="411.996" y1="228.0725" x2="459.724" y2="228.0725"
                    gradientTransform="matrix(1 0 0 -1 0 478)">
	<stop offset="0" style="stop-color:#FFBB96"/>
        <stop offset="0.2273" style="stop-color:#FFFBC9"/>
        <stop offset="0.5404" style="stop-color:#F9B673"/>
        <stop offset="0.6391" style="stop-color:#F9B876"/>
        <stop offset="0.7249" style="stop-color:#FABE81"/>
        <stop offset="0.8057" style="stop-color:#FCC993"/>
        <stop offset="0.8586" style="stop-color:#FED2A3"/>
        <stop offset="0.9697" style="stop-color:#FFC28C"/>
</linearGradient>
    <path class="st24" d="M436.1,256.6c-13.3,0-24.3-6.7-24.3-14.9v1.3v0.2c0,8.2,10.8,14.9,24.3,14.9c13.3,0,24.3-6.7,24.3-14.9V243
	v-1.3C460.2,250.1,449.4,256.6,436.1,256.6z"/>
    <path class="st4" d="M443.5,257.6c0.2,0,0.5-0.2,0.6-0.2v-19h-0.6V257.6z"/>
    <path class="st4" d="M446.4,256.8c0.2,0,0.5-0.2,0.6-0.2v-18.2h-0.6V256.8z"/>
    <path class="st4" d="M449.5,255.8c0.3-0.2,0.5-0.2,0.6-0.3v-17h-0.6V255.8z"/>
    <path class="st4" d="M440.4,258.1c0.2,0,0.5,0,0.6,0v-19.5h-0.6V258.1z"/>
    <path class="st4" d="M455.6,252.2c0.2-0.2,0.5-0.3,0.6-0.7v-13.1h-0.6V252.2z"/>
    <path class="st4" d="M458.7,248.6c0.3-0.5,0.5-0.8,0.6-1.3v-8.9h-0.6V248.6z"/>
    <path class="st4" d="M452.6,254.4c0.2-0.2,0.5-0.3,0.6-0.3v-15.4h-0.6V254.4z"/>
    <path class="st4" d="M437.3,258.3c0.2,0,0.5,0,0.6,0v-19.8h-0.6V258.3z"/>
    <path class="st4" d="M434.4,258.3c0.2,0,0.5,0,0.6,0v-19.8h-0.6V258.3z"/>
    <path class="st4" d="M428.2,257.5c0.2,0,0.5,0.2,0.6,0.2v-19.2h-0.6V257.5z"/>
    <path class="st4" d="M431.3,258c0.2,0,0.5,0,0.6,0v-19.7h-0.6V258z"/>
    <path class="st4" d="M425.2,256.8c0.2,0,0.5,0.2,0.6,0.2v-18.5h-0.6V256.8z"/>
    <path class="st4" d="M413,248c0.2,0.3,0.5,0.8,0.6,1.1v-10.7H413V248z"/>
    <path class="st4" d="M416.1,251.9c0.2,0.2,0.5,0.3,0.6,0.5v-13.9h-0.6V251.9z"/>
    <path class="st4" d="M422.1,255.7c0.2,0.2,0.5,0.2,0.6,0.3v-17.4h-0.6V255.7z"/>
    <path class="st4" d="M419,254c0.2,0.2,0.5,0.3,0.6,0.3v-15.9H419V254z"/>
    <linearGradient id="SVGID_24_" gradientUnits="userSpaceOnUse" x1="483.3754" y1="286.9886" x2="433.2424"
                    y2="239.3156" gradientTransform="matrix(1 0 0 -1 0 478)">
	<stop offset="3.535350e-02" style="stop-color:#FFBA78"/>
        <stop offset="0.395" style="stop-color:#FFC987"/>
        <stop offset="1" style="stop-color:#FEECA8"/>
</linearGradient>
    <path class="st25" d="M436.1,250.9c13.4,0,24.3-6.7,24.3-14.9c0-8.2-10.9-14.9-24.3-14.9c-13.4,0-24.3,6.7-24.3,14.9
	C411.8,244.2,422.6,250.9,436.1,250.9z"/>
    <linearGradient id="SVGID_25_" gradientUnits="userSpaceOnUse" x1="456.6323" y1="261.5221" x2="419.1553"
                    y2="225.8851" gradientTransform="matrix(1 0 0 -1 0 478)">
	<stop offset="3.535350e-02" style="stop-color:#FFBA78"/>
        <stop offset="0.395" style="stop-color:#FFC987"/>
        <stop offset="1" style="stop-color:#FEECA8"/>
</linearGradient>
    <path class="st26" d="M454.2,236c0,6.2-8.1,11.1-18.1,11.1c-10.1,0-18.1-5.1-18.1-11.1c0-6.1,8.1-11.1,18.1-11.1
	C446.1,224.9,454.2,229.9,454.2,236z"/>
    <radialGradient id="SVGID_26_" cx="-58.3009" cy="623.935" r="1"
                    gradientTransform="matrix(13.4068 0 0 -14.1889 1226.1754 9076.749)" gradientUnits="userSpaceOnUse">
	<stop offset="0" style="stop-color:#FFFFFF"/>
        <stop offset="1" style="stop-color:#000000"/>
</radialGradient>
    <path class="st27" d="M436.7,225.3c9.8,0,17.5,4.8,18.1,10.7c0-0.2,0-0.3,0-0.7c0-6.2-8.1-11.1-18.1-11.1
	c-10.1,0-18.1,5.1-18.1,11.1c0,0.2,0,0.3,0,0.7C419,230.1,426.9,225.3,436.7,225.3z"/>
    <linearGradient id="SVGID_27_" gradientUnits="userSpaceOnUse" x1="463.4739" y1="269.3692" x2="428.1059"
                    y2="235.7382" gradientTransform="matrix(1 0 0 -1 0 478)">
	<stop offset="0" style="stop-color:#FFBB96"/>
        <stop offset="0.2273" style="stop-color:#FFFBC9"/>
        <stop offset="0.5404" style="stop-color:#F9B673"/>
        <stop offset="0.6391" style="stop-color:#F9B876"/>
        <stop offset="0.7249" style="stop-color:#FABE81"/>
        <stop offset="0.8057" style="stop-color:#FCC993"/>
        <stop offset="0.8586" style="stop-color:#FED2A3"/>
        <stop offset="0.9697" style="stop-color:#FFC28C"/>
</linearGradient>
    <path class="st28" d="M436.1,226c9.8,0,17.5,4.8,18.1,10.7c0-0.2,0-0.3,0-0.7c0-6.2-8.1-11.1-18.1-11.1c-10.1,0-18.1,5.1-18.1,11.1
	c0,0.2,0,0.3,0,0.7C418.4,230.8,426.3,226,436.1,226z"/>
    <radialGradient id="SVGID_28_" cx="-86.2704" cy="624.691" r="1"
                    gradientTransform="matrix(1.6622 -5.1719 -9.8633 -3.5548 6752.0205 2001.2865)"
                    gradientUnits="userSpaceOnUse">
	<stop offset="0" style="stop-color:#F49587"/>
        <stop offset="0.116" style="stop-color:#BD7368"/>
        <stop offset="0.2362" style="stop-color:#8B554D"/>
        <stop offset="0.3594" style="stop-color:#603B35"/>
        <stop offset="0.4835" style="stop-color:#3E2622"/>
        <stop offset="0.6085" style="stop-color:#231513"/>
        <stop offset="0.7352" style="stop-color:#0F0908"/>
        <stop offset="0.8644" style="stop-color:#040202"/>
        <stop offset="1" style="stop-color:#000000"/>
</radialGradient>
    <path class="st29" d="M448.8,221.6c5.4,2,9.1,5.9,8.2,8.7c-0.9,2.8-6,3.6-11.5,1.6c-5.4-2-9.1-5.9-8.2-8.7
	C438.1,220.4,443.3,219.6,448.8,221.6z"/>
    <linearGradient id="SVGID_29_" gradientUnits="userSpaceOnUse" x1="426.958" y1="241.674" x2="445.029" y2="241.674"
                    gradientTransform="matrix(1 0 0 -1 0 478)">
	<stop offset="0" style="stop-color:#FFBB96"/>
        <stop offset="0.2273" style="stop-color:#FFFBC9"/>
        <stop offset="0.5404" style="stop-color:#F9B673"/>
        <stop offset="0.6391" style="stop-color:#F9B876"/>
        <stop offset="0.7249" style="stop-color:#FABE81"/>
        <stop offset="0.8057" style="stop-color:#FCC993"/>
        <stop offset="0.8586" style="stop-color:#FED2A3"/>
        <stop offset="0.9697" style="stop-color:#FFC28C"/>
</linearGradient>
    <path class="st30" d="M437.5,232.6c-0.5,0.2-0.9,0.2-1.4,0.3c-0.5,0.2-0.9,0.3-1.4,0.5c-0.5,0.2-0.9,0.3-1.4,0.5l1.4,0.8
	c0.2,0,0.3-0.2,0.5-0.2s0.3-0.2,0.5-0.2c0.8-0.3,1.5-0.5,2.3-0.8c0.8-0.2,1.4-0.3,2-0.5c0.6,0,1.2,0,1.9,0c0.6,0.2,1.1,0.3,1.7,0.7
	c0.6,0.3,1.1,0.8,1.2,1.3c0.2,0.5,0.2,0.8,0,1.3c-0.2,0.5-0.5,1-0.9,1.3c-0.5,0.5-0.9,0.8-1.5,1.3l2,1.1l-1.7,1l-2-1.1
	c-0.9,0.5-2,1-3.3,1.5c-1.1,0.5-2.3,0.8-3.4,1l-1.1-2.8c0.6-0.2,1.1-0.3,1.7-0.3c0.5-0.2,1.1-0.3,1.7-0.5c0.6-0.2,1.2-0.5,1.7-0.7
	l-1.4-0.8c-0.5,0.2-1.1,0.3-1.5,0.7c-0.8,0.3-1.5,0.5-2.2,0.7c-0.6,0.2-1.2,0.3-1.9,0.3c-0.6,0-1.1,0-1.5-0.2
	c-0.5-0.2-0.9-0.3-1.4-0.5c-0.6-0.3-0.9-0.8-1.2-1.1c-0.2-0.5-0.3-0.8-0.2-1.3c0.2-0.5,0.3-1,0.8-1.3c0.3-0.5,0.8-1,1.4-1.3l-1.7-1
	l1.7-1l1.7,1c0.5-0.3,0.9-0.5,1.5-0.7c0.5-0.2,1.1-0.3,1.5-0.5c0.5-0.2,0.9-0.3,1.4-0.5c0.5-0.2,0.9-0.3,1.2-0.3L437.5,232.6z
	 M431.9,235.3c0.2,0.2,0.3,0.2,0.6,0.2s0.5-0.2,0.9-0.2l-1.2-0.8C431.7,234.9,431.6,235,431.9,235.3z M439.8,236.7
	c-0.2-0.2-0.3-0.2-0.6-0.2s-0.6,0.2-0.9,0.2l1.2,0.7c0.3-0.2,0.5-0.3,0.5-0.5C439.9,236.8,439.9,236.8,439.8,236.7z"/>
    <linearGradient id="SVGID_30_" gradientUnits="userSpaceOnUse" x1="454.1165" y1="252.0012" x2="438.3205"
                    y2="243.8552" gradientTransform="matrix(1 0 0 -1 0 478)">
	<stop offset="3.535350e-02" style="stop-color:#FFBA78"/>
        <stop offset="0.395" style="stop-color:#FFC987"/>
        <stop offset="1" style="stop-color:#FEECA8"/>
</linearGradient>
    <path class="st31" d="M437.5,231.9c-0.5,0.2-0.9,0.2-1.4,0.3c-0.5,0.2-0.9,0.3-1.4,0.5c-0.5,0.2-0.9,0.3-1.4,0.5l1.4,0.8
	c0.2,0,0.3-0.2,0.5-0.2s0.3-0.2,0.5-0.2c0.8-0.3,1.5-0.5,2.3-0.8c0.8-0.2,1.4-0.3,2-0.5c0.6,0,1.2,0,1.9,0c0.6,0.2,1.1,0.3,1.7,0.7
	c0.6,0.3,1.1,0.8,1.2,1.3c0.2,0.5,0.2,0.8,0,1.3c-0.2,0.5-0.5,1-0.9,1.3c-0.5,0.5-0.9,0.8-1.5,1.3l2,1.1l-1.7,1l-2-1.1
	c-0.9,0.5-2,1-3.3,1.5c-1.1,0.5-2.3,0.8-3.4,1l-1.1-2.8c0.6-0.2,1.1-0.3,1.7-0.3c0.5-0.2,1.1-0.3,1.7-0.5c0.6-0.2,1.2-0.5,1.7-0.7
	l-1.4-0.8c-0.5,0.2-1.1,0.3-1.5,0.7c-0.8,0.3-1.5,0.5-2.2,0.7c-0.6,0.2-1.2,0.3-1.9,0.3c-0.6,0-1.1,0-1.5-0.2
	c-0.5-0.2-0.9-0.3-1.4-0.5c-0.6-0.3-0.9-0.8-1.2-1.1c-0.2-0.5-0.3-0.8-0.2-1.3c0.2-0.5,0.3-1,0.8-1.3c0.3-0.5,0.8-1,1.4-1.3l-1.7-1
	l1.7-1l1.7,1c0.5-0.3,0.9-0.5,1.5-0.7c0.5-0.2,1.1-0.3,1.5-0.5c0.5-0.2,0.9-0.3,1.4-0.5c0.5-0.2,0.9-0.3,1.2-0.3L437.5,231.9z
	 M431.9,234.7c0.2,0.2,0.3,0.2,0.6,0.2s0.5-0.2,0.9-0.2l-1.2-0.8C431.7,234.2,431.6,234.5,431.9,234.7z M439.8,236
	c-0.2-0.2-0.3-0.2-0.6-0.2s-0.6,0.2-0.9,0.2l1.2,0.7c0.3-0.2,0.5-0.3,0.5-0.5C439.9,236.2,439.9,236.2,439.8,236z"/>
    <radialGradient id="SVGID_31_" cx="-59.1048" cy="625.8279" r="1"
                    gradientTransform="matrix(16.1739 0 0 -17.1172 1379.5828 10949.2207)"
                    gradientUnits="userSpaceOnUse">
	<stop offset="0" style="stop-color:#F49587"/>
        <stop offset="0.116" style="stop-color:#BD7368"/>
        <stop offset="0.2362" style="stop-color:#8B554D"/>
        <stop offset="0.3594" style="stop-color:#603B35"/>
        <stop offset="0.4835" style="stop-color:#3E2622"/>
        <stop offset="0.6085" style="stop-color:#231513"/>
        <stop offset="0.7352" style="stop-color:#0F0908"/>
        <stop offset="0.8644" style="stop-color:#040202"/>
        <stop offset="1" style="stop-color:#000000"/>
</radialGradient>
    <path class="st32" d="M437.5,231.9c-0.5,0.2-0.9,0.2-1.4,0.3c-0.5,0.2-0.9,0.3-1.4,0.5c-0.5,0.2-0.9,0.3-1.4,0.5l1.4,0.8
	c0.2,0,0.3-0.2,0.5-0.2s0.3-0.2,0.5-0.2c0.8-0.3,1.5-0.5,2.3-0.8c0.8-0.2,1.4-0.3,2-0.5c0.6,0,1.2,0,1.9,0c0.6,0.2,1.1,0.3,1.7,0.7
	c0.6,0.3,1.1,0.8,1.2,1.3c0.2,0.5,0.2,0.8,0,1.3c-0.2,0.5-0.5,1-0.9,1.3c-0.5,0.5-0.9,0.8-1.5,1.3l2,1.1l-1.7,1l-2-1.1
	c-0.9,0.5-2,1-3.3,1.5c-1.1,0.5-2.3,0.8-3.4,1l-1.1-2.8c0.6-0.2,1.1-0.3,1.7-0.3c0.5-0.2,1.1-0.3,1.7-0.5c0.6-0.2,1.2-0.5,1.7-0.7
	l-1.4-0.8c-0.5,0.2-1.1,0.3-1.5,0.7c-0.8,0.3-1.5,0.5-2.2,0.7c-0.6,0.2-1.2,0.3-1.9,0.3c-0.6,0-1.1,0-1.5-0.2
	c-0.5-0.2-0.9-0.3-1.4-0.5c-0.6-0.3-0.9-0.8-1.2-1.1c-0.2-0.5-0.3-0.8-0.2-1.3c0.2-0.5,0.3-1,0.8-1.3c0.3-0.5,0.8-1,1.4-1.3l-1.7-1
	l1.7-1l1.7,1c0.5-0.3,0.9-0.5,1.5-0.7c0.5-0.2,1.1-0.3,1.5-0.5c0.5-0.2,0.9-0.3,1.4-0.5c0.5-0.2,0.9-0.3,1.2-0.3L437.5,231.9z
	 M431.9,234.7c0.2,0.2,0.3,0.2,0.6,0.2s0.5-0.2,0.9-0.2l-1.2-0.8C431.7,234.2,431.6,234.5,431.9,234.7z M439.8,236
	c-0.2-0.2-0.3-0.2-0.6-0.2s-0.6,0.2-0.9,0.2l1.2,0.7c0.3-0.2,0.5-0.3,0.5-0.5C439.9,236.2,439.9,236.2,439.8,236z"/>
    <linearGradient id="SVGID_32_" gradientUnits="userSpaceOnUse" x1="411.996" y1="239.544" x2="459.724" y2="239.544"
                    gradientTransform="matrix(1 0 0 -1 0 478)">
	<stop offset="0" style="stop-color:#FFBB96"/>
        <stop offset="0.2273" style="stop-color:#FFFBC9"/>
        <stop offset="0.5404" style="stop-color:#F9B673"/>
        <stop offset="0.6391" style="stop-color:#F9B876"/>
        <stop offset="0.7249" style="stop-color:#FABE81"/>
        <stop offset="0.8057" style="stop-color:#FCC993"/>
        <stop offset="0.8586" style="stop-color:#FED2A3"/>
        <stop offset="0.9697" style="stop-color:#FFC28C"/>
</linearGradient>
    <path class="st33"
          d="M460.2,227.3h-48.5v7.2v0.2c0,8.2,10.8,14.9,24.3,14.9c13.5,0,24.3-6.7,24.3-14.9v-0.2v-7.2H460.2z"/>
    <linearGradient id="SVGID_33_" gradientUnits="userSpaceOnUse" x1="411.996" y1="236.594" x2="459.724" y2="236.594"
                    gradientTransform="matrix(1 0 0 -1 0 478)">
	<stop offset="0" style="stop-color:#FFBB96"/>
        <stop offset="0.2273" style="stop-color:#FFFBC9"/>
        <stop offset="0.5404" style="stop-color:#F9B673"/>
        <stop offset="0.6391" style="stop-color:#F9B876"/>
        <stop offset="0.7249" style="stop-color:#FABE81"/>
        <stop offset="0.8057" style="stop-color:#FCC993"/>
        <stop offset="0.8586" style="stop-color:#FED2A3"/>
        <stop offset="0.9697" style="stop-color:#FFC28C"/>
</linearGradient>
    <path class="st34" d="M436.1,248.1c-13.3,0-24.3-6.7-24.3-14.9v1.3v0.2c0,8.2,10.8,14.9,24.3,14.9c13.3,0,24.3-6.7,24.3-14.9v-0.2
	v-1.3C460.2,241.4,449.4,248.1,436.1,248.1z"/>
    <path class="st4" d="M443.5,248.9c0.2,0,0.5-0.2,0.6-0.2v-19h-0.6V248.9z"/>
    <path class="st4" d="M446.4,248.1c0.2,0,0.5-0.2,0.6-0.2v-18.2h-0.6V248.1z"/>
    <path class="st4" d="M449.5,247.1c0.3-0.2,0.5-0.2,0.6-0.3v-17h-0.6V247.1z"/>
    <path class="st4" d="M440.4,249.4c0.2,0,0.5,0,0.6,0v-19.5h-0.6V249.4z"/>
    <path class="st4" d="M455.6,243.5c0.2-0.2,0.5-0.3,0.6-0.7v-13.1h-0.6V243.5z"/>
    <path class="st4" d="M458.7,239.9c0.3-0.5,0.5-0.8,0.6-1.3v-8.8h-0.6V239.9z"/>
    <path class="st4" d="M452.6,245.7c0.2-0.2,0.5-0.3,0.6-0.3v-15.4h-0.6V245.7z"/>
    <path class="st4" d="M437.3,249.6c0.2,0,0.5,0,0.6,0v-19.8h-0.6V249.6z"/>
    <path class="st4" d="M434.4,249.6c0.2,0,0.5,0,0.6,0v-19.8h-0.6V249.6z"/>
    <path class="st4" d="M428.2,248.8c0.2,0,0.5,0.2,0.6,0.2v-19.2h-0.6V248.8z"/>
    <path class="st4" d="M431.3,249.4c0.2,0,0.5,0,0.6,0v-19.7h-0.6V249.4z"/>
    <path class="st4" d="M425.2,248.1c0.2,0,0.5,0.2,0.6,0.2v-18.5h-0.6V248.1z"/>
    <path class="st4" d="M413,239.4c0.2,0.3,0.5,0.8,0.6,1.1v-10.7H413V239.4z"/>
    <path class="st4" d="M416.1,243.2c0.2,0.2,0.5,0.3,0.6,0.5v-13.9h-0.6V243.2z"/>
    <path class="st4" d="M422.1,247c0.2,0.2,0.5,0.2,0.6,0.3v-17.4h-0.6V247z"/>
    <path class="st4" d="M419,245.3c0.2,0.2,0.5,0.3,0.6,0.3v-15.9H419V245.3z"/>
    <linearGradient id="SVGID_34_" gradientUnits="userSpaceOnUse" x1="483.362" y1="295.6626" x2="433.229" y2="247.9896"
                    gradientTransform="matrix(1 0 0 -1 0 478)">
	<stop offset="3.535350e-02" style="stop-color:#FFBA78"/>
        <stop offset="0.395" style="stop-color:#FFC987"/>
        <stop offset="1" style="stop-color:#FEECA8"/>
</linearGradient>
    <path class="st35" d="M436.1,242.2c13.4,0,24.3-6.7,24.3-14.9c0-8.2-10.9-14.9-24.3-14.9c-13.4,0-24.3,6.7-24.3,14.9
	C411.8,235.5,422.6,242.2,436.1,242.2z"/>
    <linearGradient id="SVGID_35_" gradientUnits="userSpaceOnUse" x1="456.6009" y1="270.2141" x2="419.1249"
                    y2="234.5781" gradientTransform="matrix(1 0 0 -1 0 478)">
	<stop offset="3.535350e-02" style="stop-color:#FFBA78"/>
        <stop offset="0.395" style="stop-color:#FFC987"/>
        <stop offset="1" style="stop-color:#FEECA8"/>
</linearGradient>
    <path class="st36" d="M454.2,227.3c0,6.2-8.1,11.1-18.1,11.1c-10.1,0-18.1-5.1-18.1-11.1c0-6.2,8.1-11.1,18.1-11.1
	C446.1,216.2,454.2,221.2,454.2,227.3z"/>
    <linearGradient id="SVGID_36_" gradientUnits="userSpaceOnUse" x1="463.5417" y1="277.9559" x2="428.1757"
                    y2="244.3259" gradientTransform="matrix(1 0 0 -1 0 478)">
	<stop offset="0" style="stop-color:#FFBB96"/>
        <stop offset="0.2273" style="stop-color:#FFFBC9"/>
        <stop offset="0.5404" style="stop-color:#F9B673"/>
        <stop offset="0.6391" style="stop-color:#F9B876"/>
        <stop offset="0.7249" style="stop-color:#FABE81"/>
        <stop offset="0.8057" style="stop-color:#FCC993"/>
        <stop offset="0.8586" style="stop-color:#FED2A3"/>
        <stop offset="0.9697" style="stop-color:#FFC28C"/>
</linearGradient>
    <path class="st37" d="M436.1,217.5c9.8,0,17.5,4.8,18.1,10.7c0-0.2,0-0.3,0-0.7c0-6.2-8.1-11.1-18.1-11.1
	c-10.1,0-18.1,5.1-18.1,11.1c0,0.2,0,0.3,0,0.7C418.4,222.1,426.3,217.5,436.1,217.5z"/>
    <linearGradient id="SVGID_37_" gradientUnits="userSpaceOnUse" x1="422.782" y1="249.8892" x2="450.306" y2="249.8892"
                    gradientTransform="matrix(1 0 0 -1 0 478)">
	<stop offset="0" style="stop-color:#FFBB96"/>
        <stop offset="0.2273" style="stop-color:#FFFBC9"/>
        <stop offset="0.5404" style="stop-color:#F9B673"/>
        <stop offset="0.6391" style="stop-color:#F9B876"/>
        <stop offset="0.7249" style="stop-color:#FABE81"/>
        <stop offset="0.8057" style="stop-color:#FCC993"/>
        <stop offset="0.8586" style="stop-color:#FED2A3"/>
        <stop offset="0.9697" style="stop-color:#FFC28C"/>
</linearGradient>
    <path class="st38" d="M442.4,225.2l6.8,1.3c1.1,0.2,1.4,1.1,0.5,1.6l-5.9,2.5c-0.5,0.2-0.6,0.5-0.6,0.7l0.2,4.4
	c0,0.7-1.4,1.1-2.3,0.7l-5.7-2.6c-0.3-0.2-0.9-0.2-1.4-0.2l-6.8,1.5c-1.1,0.2-2.2-0.5-1.9-1.1l2.3-4.1c0.2-0.3,0-0.7-0.2-0.8
	l-4.3-3.4c-0.8-0.7,0-1.5,1.2-1.5h7.1c0.5,0,0.9-0.2,1.2-0.3l4.2-3.6c0.6-0.7,2.2-0.5,2.6,0.3l2.2,4.3
	C441.6,224.9,442,225,442.4,225.2z"/>
    <linearGradient id="SVGID_38_" gradientUnits="userSpaceOnUse" x1="407.5301" y1="227.7693" x2="441.0971"
                    y2="255.0783" gradientTransform="matrix(1 0 0 -1 0 478)">
	<stop offset="3.535350e-02" style="stop-color:#FFBA78"/>
        <stop offset="0.395" style="stop-color:#FFC987"/>
        <stop offset="1" style="stop-color:#FEECA8"/>
</linearGradient>
    <path class="st39" d="M442.4,224.4l6.8,1.3c1.1,0.2,1.4,1.1,0.5,1.6l-5.9,2.5c-0.5,0.2-0.6,0.5-0.6,0.7l0.2,4.4
	c0,0.7-1.4,1.1-2.3,0.7l-5.7-2.6c-0.3-0.2-0.9-0.2-1.4-0.2l-6.8,1.5c-1.1,0.2-2.2-0.5-1.9-1.1l2.3-4.1c0.2-0.3,0-0.7-0.2-0.8
	l-4.3-3.4c-0.8-0.7,0-1.5,1.2-1.5h7.1c0.5,0,0.9-0.2,1.2-0.3l4.2-3.6c0.6-0.7,2.2-0.5,2.6,0.3l2.2,4.3
	C441.6,224,442,224.2,442.4,224.4z"/>
    <linearGradient id="SVGID_39_" gradientUnits="userSpaceOnUse" x1="436.581" y1="195.9505" x2="484.31" y2="195.9505"
                    gradientTransform="matrix(1 0 0 -1 0 478)">
	<stop offset="0" style="stop-color:#FFBB96"/>
        <stop offset="0.2273" style="stop-color:#FFFBC9"/>
        <stop offset="0.5404" style="stop-color:#F9B673"/>
        <stop offset="0.6391" style="stop-color:#F9B876"/>
        <stop offset="0.7249" style="stop-color:#FABE81"/>
        <stop offset="0.8057" style="stop-color:#FCC993"/>
        <stop offset="0.8586" style="stop-color:#FED2A3"/>
        <stop offset="0.9697" style="stop-color:#FFC28C"/>
</linearGradient>
    <path class="st40"
          d="M484.8,270.9h-48.5v7.2v0.2c0,8.2,10.8,14.9,24.3,14.9c13.3,0,24.3-6.7,24.3-14.9v-0.2v-7.2H484.8z"/>
    <linearGradient id="SVGID_40_" gradientUnits="userSpaceOnUse" x1="436.58" y1="193.001" x2="484.309" y2="193.001"
                    gradientTransform="matrix(1 0 0 -1 0 478)">
	<stop offset="0" style="stop-color:#FFBB96"/>
        <stop offset="0.2273" style="stop-color:#FFFBC9"/>
        <stop offset="0.5404" style="stop-color:#F9B673"/>
        <stop offset="0.6391" style="stop-color:#F9B876"/>
        <stop offset="0.7249" style="stop-color:#FABE81"/>
        <stop offset="0.8057" style="stop-color:#FCC993"/>
        <stop offset="0.8586" style="stop-color:#FED2A3"/>
        <stop offset="0.9697" style="stop-color:#FFC28C"/>
</linearGradient>
    <path class="st41" d="M460.5,291.7c-13.3,0-24.3-6.7-24.3-14.9v1.3v0.2c0,8.2,10.8,14.9,24.3,14.9c13.3,0,24.3-6.7,24.3-14.9v-0.2
	v-1.3C484.8,285,474,291.7,460.5,291.7z"/>
    <g class="st0">
	
		<linearGradient id="SVGID_41_" gradientUnits="userSpaceOnUse" x1="436.58" y1="189.3955" x2="484.309"
                        y2="189.3955" gradientTransform="matrix(1 0 0 -1 0 478)">
		<stop offset="0" style="stop-color:#FFBB96"/>
            <stop offset="0.2273" style="stop-color:#FFFBC9"/>
            <stop offset="0.5404" style="stop-color:#F9B673"/>
            <stop offset="0.6391" style="stop-color:#F9B876"/>
            <stop offset="0.7249" style="stop-color:#FABE81"/>
            <stop offset="0.8057" style="stop-color:#FCC993"/>
            <stop offset="0.8586" style="stop-color:#FED2A3"/>
            <stop offset="0.9697" style="stop-color:#FFC28C"/>
	</linearGradient>
        <path class="st42" d="M460.5,294.5c-13.3,0-24.3-6.7-24.3-14.9v1.3v1.8c0,8.2,10.8,14.9,24.3,14.9c13.3,0,24.3-6.7,24.3-14.9v-0.2
		v-2.9C484.8,287.9,474,294.5,460.5,294.5z"/>
</g>
    <path class="st4" d="M468,292.5c0.2,0,0.5-0.2,0.6-0.2v-19H468V292.5z"/>
    <path class="st4" d="M471.1,291.9c0.2,0,0.5-0.2,0.6-0.2v-18.2h-0.6V291.9z"/>
    <path class="st4" d="M474.2,290.7c0.3-0.2,0.5-0.2,0.6-0.3v-17h-0.6V290.7z"/>
    <path class="st4" d="M465,293c0.2,0,0.5,0,0.6,0v-19.5H465V293z"/>
    <path class="st4" d="M480.2,287.1c0.2-0.2,0.5-0.3,0.6-0.7v-13.1h-0.6V287.1z"/>
    <path class="st4" d="M483.3,283.7c0.3-0.5,0.5-0.8,0.6-1.3v-8.9h-0.6V283.7z"/>
    <path class="st4" d="M477.1,289.3c0.2-0.2,0.5-0.3,0.6-0.3v-15.4h-0.6V289.3z"/>
    <path class="st4" d="M461.9,293.2c0.2,0,0.5,0,0.6,0v-19.8h-0.6V293.2z"/>
    <path class="st4" d="M458.8,293.2c0.2,0,0.5,0,0.6,0v-19.8h-0.6V293.2z"/>
    <path class="st4" d="M452.8,292.5c0.2,0,0.5,0.2,0.6,0.2v-19.2h-0.6V292.5z"/>
    <path class="st4" d="M455.9,293c0.2,0,0.5,0,0.6,0v-19.7h-0.6V293z"/>
    <path class="st4" d="M449.7,291.7c0.2,0,0.5,0.2,0.6,0.2v-18.5h-0.6V291.7z"/>
    <path class="st4" d="M437.6,283c0.2,0.3,0.5,0.8,0.6,1.1v-10.7h-0.6V283z"/>
    <path class="st4" d="M440.6,286.8c0.2,0.2,0.5,0.3,0.6,0.5v-13.9h-0.6V286.8z"/>
    <path class="st4" d="M446.8,290.6c0.2,0.2,0.5,0.2,0.6,0.3v-17.4h-0.6V290.6z"/>
    <path class="st4" d="M443.7,289.1c0.2,0.2,0.5,0.3,0.6,0.3v-15.9h-0.6V289.1z"/>
    <linearGradient id="SVGID_42_" gradientUnits="userSpaceOnUse" x1="507.9536" y1="252.0247" x2="457.8206"
                    y2="204.3517" gradientTransform="matrix(1 0 0 -1 0 478)">
	<stop offset="3.535350e-02" style="stop-color:#FFBA78"/>
        <stop offset="0.395" style="stop-color:#FFC987"/>
        <stop offset="1" style="stop-color:#FEECA8"/>
</linearGradient>
    <path class="st43"
          d="M460.5,286c13.4,0,24.3-6.7,24.3-14.9s-10.9-14.9-24.3-14.9s-24.3,6.7-24.3,14.9S447.1,286,460.5,286z"/>
    <linearGradient id="SVGID_43_" gradientUnits="userSpaceOnUse" x1="481.2109" y1="226.5569" x2="443.7349"
                    y2="190.9199" gradientTransform="matrix(1 0 0 -1 0 478)">
	<stop offset="3.535350e-02" style="stop-color:#FFBA78"/>
        <stop offset="0.395" style="stop-color:#FFC987"/>
        <stop offset="1" style="stop-color:#FEECA8"/>
</linearGradient>
    <path class="st44" d="M478.7,271.1c0,6.2-8.1,11.1-18.1,11.1c-10.1,0-18.1-5.1-18.1-11.1c0-6.1,8.1-11.1,18.1-11.1
	C470.6,259.8,478.7,264.8,478.7,271.1z"/>
    <linearGradient id="SVGID_44_" gradientUnits="userSpaceOnUse" x1="488.0526" y1="234.4039" x2="452.6855"
                    y2="200.7739" gradientTransform="matrix(1 0 0 -1 0 478)">
	<stop offset="0" style="stop-color:#FFBB96"/>
        <stop offset="0.2273" style="stop-color:#FFFBC9"/>
        <stop offset="0.5404" style="stop-color:#F9B673"/>
        <stop offset="0.6391" style="stop-color:#F9B876"/>
        <stop offset="0.7249" style="stop-color:#FABE81"/>
        <stop offset="0.8057" style="stop-color:#FCC993"/>
        <stop offset="0.8586" style="stop-color:#FED2A3"/>
        <stop offset="0.9697" style="stop-color:#FFC28C"/>
</linearGradient>
    <path class="st45" d="M460.5,261.1c9.8,0,17.5,4.8,18.1,10.7c0-0.2,0-0.3,0-0.7c0-6.2-8.1-11.1-18.1-11.1
	c-10.1,0-18.1,5.1-18.1,11.1c0,0.2,0,0.3,0,0.7C443,265.7,450.9,261.1,460.5,261.1z"/>
    <linearGradient id="SVGID_45_" gradientUnits="userSpaceOnUse" x1="446.222" y1="206.46" x2="475.792" y2="206.46"
                    gradientTransform="matrix(1 0 0 -1 0 478)">
	<stop offset="0" style="stop-color:#FFBB96"/>
        <stop offset="0.2273" style="stop-color:#FFFBC9"/>
        <stop offset="0.5404" style="stop-color:#F9B673"/>
        <stop offset="0.6391" style="stop-color:#F9B876"/>
        <stop offset="0.7249" style="stop-color:#FABE81"/>
        <stop offset="0.8057" style="stop-color:#FCC993"/>
        <stop offset="0.8586" style="stop-color:#FED2A3"/>
        <stop offset="0.9697" style="stop-color:#FFC28C"/>
</linearGradient>
    <path class="st46" d="M446.3,273.5l11.5,7l1.1-0.7l-11.5-7L446.3,273.5z M475.2,272.7c-0.8-0.5-1.9-0.5-2.6,0
	c-0.5,0.3-0.6,0.8-0.5,1.1l-11,0.8l3.9-5.1c0.8,0.3,1.5,0.2,2.2-0.2c0.8-0.5,0.8-1.1,0-1.6c-0.8-0.5-1.9-0.5-2.6,0
	c-0.6,0.3-0.6,1-0.3,1.3l-8.5,2.3l1.4-6.7c0.6,0.2,1.4,0,2-0.2c0.8-0.5,0.8-1.1,0-1.6c-0.8-0.5-1.9-0.5-2.6,0
	c-0.8,0.5-0.8,1.1,0,1.6l-8.4,7.9l11.6,7l12.7-5.1c0,0,0,0,0.2,0c0.8,0.5,1.9,0.5,2.6,0C476,273.9,476,273.2,475.2,272.7z"/>
    <linearGradient id="SVGID_46_" gradientUnits="userSpaceOnUse" x1="441.1956" y1="186.612" x2="464.8196" y2="209.042"
                    gradientTransform="matrix(1 0 0 -1 0 478)">
	<stop offset="3.535350e-02" style="stop-color:#FFBA78"/>
        <stop offset="0.395" style="stop-color:#FFC987"/>
        <stop offset="1" style="stop-color:#FEECA8"/>
</linearGradient>
    <path class="st47" d="M446.3,272.9l11.5,7l1.1-0.7l-11.5-7L446.3,272.9z M475.2,272.1c-0.8-0.5-1.9-0.5-2.6,0
	c-0.5,0.3-0.6,0.8-0.5,1.1l-11,0.8l3.9-5.1c0.8,0.3,1.5,0.2,2.2-0.2c0.8-0.5,0.8-1.1,0-1.6c-0.8-0.5-1.9-0.5-2.6,0
	c-0.6,0.3-0.6,1-0.3,1.3l-8.5,2.3l1.4-6.7c0.6,0.2,1.4,0,2-0.2c0.8-0.5,0.8-1.1,0-1.6c-0.8-0.5-1.9-0.5-2.6,0
	c-0.8,0.5-0.8,1.1,0,1.6l-8.4,7.9l11.6,7l12.7-5.1c0,0,0,0,0.2,0c0.8,0.5,1.9,0.5,2.6,0C476,273.2,476,272.5,475.2,272.1z"/>
    <linearGradient id="SVGID_47_" gradientUnits="userSpaceOnUse" x1="395.1187" y1="168.0356" x2="390.4737"
                    y2="215.6806" gradientTransform="matrix(1 0 0 -1 0 478)">
	<stop offset="3.535350e-02" style="stop-color:#FFBA78"/>
        <stop offset="0.395" style="stop-color:#FFC987"/>
        <stop offset="1" style="stop-color:#FEECA8"/>
</linearGradient>
    <path class="st48" d="M426,294v-5.4l-9,2.3l-9.8-1.8c-1.1-0.2-2-0.7-2.3-1.5l-5.1-10c-0.9-1.6-4.5-2-6.2-0.7l-9.9,8.5
	c-0.6,0.5-1.7,0.8-2.9,0.8l-17.2-0.2c0,0,0,0-0.2,0l-3.4-3.6v5.6c0,0.5,0.2,1,0.6,1.5l10.2,8.4c0.6,0.5,0.9,1.3,0.5,2l-3.1,5.6
	l-2.5-0.5v5.2c0,0.2,0,0.3,0,0.5v0.2c0.3,1.1,2.3,2.1,4.5,1.6l16.3-3.3c1.1-0.2,2.3-0.2,3.3,0.3l13.8,6.2c2.3,1,5.6,0,5.6-1.6
	l-0.3-10.5c0-0.7,0.5-1.3,1.4-1.8l13.9-6.1C425.7,295.5,426.2,294.7,426,294z"/>
    <path class="st4" d="M404,314.8l-13.8-6.2c-0.9-0.5-2.2-0.5-3.3-0.3l-16.3,3.3c-2.2,0.5-4.2-0.5-4.5-1.6v0.5c0,0.2,0,0.3,0,0.5v0.2
	c0.3,1.1,2.3,2.1,4.5,1.6l16.3-3.3c1.1-0.2,2.3-0.2,3.3,0.3L404,316c2.3,1,5.6,0,5.6-1.6v-1C409.3,314.8,406.2,315.8,404,314.8z"/>
    <path class="st4" d="M372,298.8c0.3-0.7,0.2-1.3-0.6-1.8l-10.2-8.4c-0.5-0.5-0.8-1-0.6-1.5v1.1c0,0.5,0.2,1,0.6,1.5l10.2,8.4
	C371.6,298.3,371.8,298.6,372,298.8z"/>
    <path class="st4" d="M424.6,294.8l-13.9,6.1c-0.9,0.3-1.5,1-1.4,1.8v1c0-0.7,0.6-1.3,1.4-1.6l13.9-6.1c1.1-0.5,1.5-1.1,1.4-2v-1.1
	C426.2,293.7,425.7,294.3,424.6,294.8z"/>
    <linearGradient id="SVGID_48_" gradientUnits="userSpaceOnUse" x1="409.9417" y1="211.2075" x2="377.8647"
                    y2="173.7265" gradientTransform="matrix(1 0 0 -1 0 478)">
	<stop offset="3.535350e-02" style="stop-color:#FFBA78"/>
        <stop offset="0.395" style="stop-color:#FFC987"/>
        <stop offset="1" style="stop-color:#FEECA8"/>
</linearGradient>
    <path class="st49" d="M407.3,283.5l16.4,3.1c2.8,0.5,3.3,2.8,0.9,3.8l-13.9,6.1c-0.9,0.3-1.5,1-1.4,1.8l0.3,10.5
	c0,1.8-3.3,2.8-5.6,1.6l-13.8-6.2c-0.9-0.5-2.2-0.5-3.3-0.3l-16.3,3.3c-2.8,0.5-5.3-1-4.3-2.6l5.4-9.8c0.3-0.7,0.2-1.3-0.5-2
	l-10.2-8.4c-1.7-1.5,0-3.4,2.8-3.4l17.2,0.2c1.1,0,2.2-0.3,2.9-0.8l9.9-8.5c1.7-1.5,5.3-1.1,6.2,0.7l5.1,10
	C405.3,282.9,406.2,283.4,407.3,283.5z"/>
    <g class="st50">
	
		<linearGradient id="SVGID_49_" gradientUnits="userSpaceOnUse" x1="366.4525" y1="178.0896" x2="364.9675"
                        y2="193.3206" gradientTransform="matrix(1 0 0 -1 0 478)">
		<stop offset="3.535350e-02" style="stop-color:#FFA98C"/>
            <stop offset="0.3169" style="stop-color:#FFB892"/>
            <stop offset="0.8601" style="stop-color:#FEE1A3"/>
            <stop offset="1" style="stop-color:#FEECA8"/>
	</linearGradient>
        <path class="st51" d="M371.8,301.5c0.3-0.7,0.2-1.3-0.5-2l-10.2-8.4c-0.5-0.5-0.8-1-0.6-1.5l-0.2-0.2v3.1c0,0.5,0.2,1,0.6,1.5
		l9.3,7.5L371.8,301.5z"/>

        <linearGradient id="SVGID_50_" gradientUnits="userSpaceOnUse" x1="388.2594" y1="157.5469" x2="386.8394"
                        y2="172.1129" gradientTransform="matrix(1 0 0 -1 0 478)">
		<stop offset="3.535350e-02" style="stop-color:#FFA98C"/>
            <stop offset="0.3169" style="stop-color:#FFB892"/>
            <stop offset="0.8601" style="stop-color:#FEE1A3"/>
            <stop offset="1" style="stop-color:#FEECA8"/>
	</linearGradient>
        <path class="st52" d="M404,317.4l-13.8-6.2c-0.9-0.5-2.2-0.5-3.3-0.3l-16.3,3.3c-2.3,0.5-4.5-0.7-4.5-2v2.8c0,0.2,0,0.3,0,0.5v0.2
		c0.3,1.1,2.3,2.1,4.5,1.6L387,314c1.1-0.2,2.3-0.2,3.3,0.3l13.8,6.2c2.3,1,5.6,0,5.6-1.6l-0.2-2.5C408.8,317.8,406,318.4,404,317.4
		z"/>

        <linearGradient id="SVGID_51_" gradientUnits="userSpaceOnUse" x1="418.1089" y1="172.8977" x2="416.9688"
                        y2="184.5927" gradientTransform="matrix(1 0 0 -1 0 478)">
		<stop offset="3.535350e-02" style="stop-color:#FFA98C"/>
            <stop offset="0.3169" style="stop-color:#FFB892"/>
            <stop offset="0.8601" style="stop-color:#FEE1A3"/>
            <stop offset="1" style="stop-color:#FEECA8"/>
	</linearGradient>
        <path class="st53" d="M424.6,297.5l-13.9,6.1c-0.9,0.3-1.5,1-1.4,1.8l0.2,2.5c0.2-0.5,0.6-0.8,1.4-1.1l13.9-6.1
		c1.1-0.5,1.5-1.1,1.4-2V296C426,296.6,425.5,297.1,424.6,297.5z"/>
</g>
</svg>
