<?xml version="1.0" encoding="utf-8"?>
<!-- Generator: Adobe Illustrator 21.1.0, SVG Export Plug-In . SVG Version: 6.00 Build 0)  -->
<svg version="1.1" id="Layer_1" xmlns="http://www.w3.org/2000/svg" xmlns:xlink="http://www.w3.org/1999/xlink" x="0px" y="0px"
	 viewBox="0 0 574 584" style="enable-background:new 0 0 574 584;" xml:space="preserve">
<style type="text/css">
	.st0{display:none;fill:#7BE1DB;}
	.st1{display:none;fill:#2DD890;}
	.st2{display:none;fill:#86FFC5;}
	.st3{display:none;fill:#97CC66;}
	.st4{display:none;fill:#E1E9F4;}
	.st5{fill:url(#SVGID_1_);}
	.st6{fill:#6FC1B2;}
	.st7{fill:url(#SVGID_2_);}
	.st8{fill:url(#SVGID_3_);}
	.st9{fill:#C7C6C4;}
	.st10{fill:url(#SVGID_4_);}
	.st11{fill:url(#SVGID_5_);}
</style>
<path class="st0" d="M168.5,331.7l-1.7,1l-17-9.9l1.7-0.7L168.5,331.7z"/>
<path class="st1" d="M169.9,331l-1.4,0.7l-14.3-8.2l1.7-0.7L169.9,331z"/>
<path class="st0" d="M174.7,328.3l-1.7,1L146.7,314l1.7-0.7L174.7,328.3z"/>
<path class="st1" d="M176,327.2l-1.4,1L151.5,315l1.7-1L176,327.2z"/>
<path class="st2" d="M375.2,357.2c0,0,5.1,0.3,6.5,0.7l2.4-4.1c-2-0.3-8.2-1-9.2-1c-4.8,0-11.2,0.7-15.7,1.7l3.1,4.1
	C366,357.6,371.4,357.2,375.2,357.2z"/>
<path class="st3" d="M402.8,372.2l7.5-0.3c-1-4.8-4.8-9.2-10.6-12.6l-1.4-0.7c-3.7-2-8.2-3.4-13.3-4.4l-2.4,4.1
	c3.7,0.7,7.5,2,10.2,3.4l2,1.4C395.6,363,401.4,366.4,402.8,372.2z"/>
<path class="st3" d="M187.6,337.8l-4.8,2.7l-7.1-4.1l4.8-2.7L187.6,337.8z"/>
<path class="st0" d="M422.5,396l0.7,0.3l8.9-5.1l-0.7-0.3L422.5,396z"/>
<path class="st0" d="M414.3,403.5l0.7,0.3l5.8-3.1l-0.7-0.7L414.3,403.5z"/>
<path class="st0" d="M421.8,396.7l-10.6,6.1l0.3,0.3l10.6-6.1L421.8,396.7z"/>
<path class="st0" d="M430.3,394.7l-9.2,5.1l0.7,0.3l8.9-5.1L430.3,394.7z"/>
<path class="st0" d="M432,390.6l0.7,0.3l4.8-2.7l-0.7-0.3L432,390.6z"/>
<path class="st0" d="M437.8,387.5l0.7,0.3l3.7-2.4l-0.7-0.3L437.8,387.5z"/>
<path class="st4" d="M193,333l-4.1,2.4l-1-0.3l4.1-2.4L193,333z"/>
<linearGradient id="SVGID_1_" gradientUnits="userSpaceOnUse" x1="141.977" y1="336.9911" x2="388.463" y2="336.9911" gradientTransform="matrix(1 0 0 -1 0 586)">
	<stop  offset="0" style="stop-color:#E4E2E2"/>
	<stop  offset="1" style="stop-color:#D6D5D4"/>
</linearGradient>
<path class="st5" d="M388.5,275.1v19.4c0-18.4-11.9-36.8-36.4-50.7c-48.3-27.9-126.6-27.9-174.3,0c-23.8,14-35.7,32-35.7,50.1v-19.4
	c0-18,11.9-36.4,35.7-50.1c48-27.9,126.3-27.9,174.3,0C376.5,238.4,388.5,256.8,388.5,275.1z"/>
<path class="st6" d="M177.7,238c48-27.9,126.3-27.9,174.3,0c22.5,12.9,34.4,29.6,36.1,46.3c2-19.8-9.9-39.8-36.1-55.2
	c-48.3-27.9-126.6-27.9-174.3,0c-25.9,15-37.4,35.1-35.4,54.8C144,267.3,155.6,250.6,177.7,238z"/>
<linearGradient id="SVGID_2_" gradientUnits="userSpaceOnUse" x1="139.59" y1="265.3534" x2="390.843" y2="265.3534" gradientTransform="matrix(1 0 0 -1 0 586)">
	<stop  offset="0" style="stop-color:#D6D5D4"/>
	<stop  offset="1" style="stop-color:#E4E2E2"/>
</linearGradient>
<path class="st7" d="M390.8,275.1v19.4c0,18.4-12.3,37.1-36.4,51.1c-48.7,28.3-128.4,28.3-177.7,0c-24.9-14.3-37.1-33-37.1-51.8
	v-19.4c0,18.7,12.3,37.5,37.1,51.8c49,28.3,128.7,28.3,177.7,0C378.6,312.3,390.5,293.5,390.8,275.1z"/>
<linearGradient id="SVGID_3_" gradientUnits="userSpaceOnUse" x1="139.7146" y1="311.1965" x2="390.7144" y2="311.1965" gradientTransform="matrix(1 0 0 -1 0 586)">
	<stop  offset="0" style="stop-color:#F0EFEC"/>
	<stop  offset="1" style="stop-color:#FFFEFB"/>
</linearGradient>
<path class="st8" d="M353.7,223.4c49,28.3,49.4,74.6,0.7,102.8c-48.7,28.3-128.3,28.3-177.7,0c-49-28.3-49.4-74.6-0.7-102.8
	C225,195.1,304.7,195.1,353.7,223.4z M178.4,325.5c48.3,27.9,126.6,27.9,174.3,0c48-27.9,47.7-73.2-0.7-101.1s-126.6-27.9-174.3,0
	C129.7,252.3,130.1,297.6,178.4,325.5z"/>
<path class="st9" d="M387.1,351.1c0.3,0,0.7,0.3,1,0.3L354.4,332c-0.3-0.3-0.7-0.3-1-0.3c-3.7-0.7-9.5,2.7-13.3,7.8
	c-1.7,2.4-2.7,4.8-2.7,6.8c0,1.4,0.7,2.4,1.7,3.1l33.7,19.4c0.3,0.3,0.7,0.3,1,0.3c3.7,0.7,9.5-2.7,13.3-7.8
	c1.7-2.4,2.7-4.8,2.7-6.8S389.1,351.4,387.1,351.1z"/>
<linearGradient id="SVGID_4_" gradientUnits="userSpaceOnUse" x1="365.992" y1="192.5235" x2="508.982" y2="192.5235" gradientTransform="matrix(1 0 0 -1 0 586)">
	<stop  offset="0" style="stop-color:#312F2C"/>
	<stop  offset="1" style="stop-color:#252321"/>
</linearGradient>
<path class="st10" d="M393.9,347.3c-0.7-0.3-1-0.7-2-0.7c-5.8-1-15.7,4.4-21.4,12.3c-3.1,4.1-4.4,7.8-4.4,10.9
	c0,2.4,0.7,4.1,2.4,5.1l112.7,64.7c0.7,0.3,1,0.7,2,0.7c5.8,1,15.7-4.4,21.4-12.3c3.1-4.1,4.4-7.8,4.4-10.9c0-2-0.7-3.7-2-4.8
	C506.3,411.7,393.9,347.3,393.9,347.3z"/>
<linearGradient id="SVGID_5_" gradientUnits="userSpaceOnUse" x1="492.9629" y1="166.9366" x2="497.5199" y2="161.8747" gradientTransform="matrix(1 0 0 -1 0 586)">
	<stop  offset="0" style="stop-color:#312F2C"/>
	<stop  offset="1" style="stop-color:#252321"/>
</linearGradient>
<path class="st11" d="M503.9,415.1c-1.4-1.7-6.1,0.3-10.6,4.1c-4.4,3.7-7.1,8.2-6.1,9.5c1.4,1.7,6.1-0.3,10.6-4.1
	C502.5,420.9,505.2,416.5,503.9,415.1z"/>
</svg>
