<?xml version="1.0" encoding="utf-8"?>
<!-- Generator: Adobe Illustrator 21.1.0, SVG Export Plug-In . SVG Version: 6.00 Build 0)  -->
<svg version="1.1" id="Layer_1" xmlns="http://www.w3.org/2000/svg" xmlns:xlink="http://www.w3.org/1999/xlink" x="0px" y="0px"
	 viewBox="0 0 574 584" style="enable-background:new 0 0 574 584;" xml:space="preserve">
<style type="text/css">
	.st0{fill:url(#SVGID_1_);}
	.st1{opacity:0.2;fill:url(#SVGID_2_);enable-background:new    ;}
	.st2{fill:#FFDC4A;}
	.st3{opacity:0.4;fill:#FFB32C;enable-background:new    ;}
	.st4{fill:#F7A328;}
	.st5{fill:url(#SVGID_3_);}
	.st6{opacity:0.2;fill:url(#SVGID_4_);enable-background:new    ;}
	.st7{fill:url(#SVGID_5_);}
	.st8{opacity:0.2;fill:url(#SVGID_6_);enable-background:new    ;}
	.st9{fill:url(#SVGID_7_);}
	.st10{opacity:0.2;fill:url(#SVGID_8_);enable-background:new    ;}
	.st11{fill:url(#SVGID_9_);}
	.st12{opacity:0.2;fill:url(#SVGID_10_);enable-background:new    ;}
	.st13{fill:url(#SVGID_11_);}
	.st14{opacity:0.2;fill:url(#SVGID_12_);enable-background:new    ;}
	.st15{fill:url(#SVGID_13_);}
	.st16{opacity:0.2;fill:url(#SVGID_14_);enable-background:new    ;}
	.st17{fill:url(#SVGID_15_);}
	.st18{opacity:0.2;fill:url(#SVGID_16_);enable-background:new    ;}
	.st19{fill:url(#SVGID_17_);}
	.st20{opacity:0.2;fill:url(#SVGID_18_);enable-background:new    ;}
	.st21{fill:url(#SVGID_19_);}
	.st22{opacity:0.2;fill:url(#SVGID_20_);enable-background:new    ;}
</style>
<linearGradient id="SVGID_1_" gradientUnits="userSpaceOnUse" x1="70.0551" y1="285.2313" x2="121.4633" y2="285.2313" gradientTransform="matrix(1 0 0 -1 0 586)">
	<stop  offset="0" style="stop-color:#D88000"/>
	<stop  offset="1" style="stop-color:#FFAC33"/>
</linearGradient>
<path class="st0" d="M70.1,292.5c0,2,0,4.1,0,5.8c0,5.4,5.1,10.6,15,13.3c7.1,2,14.3,2,21.4,0c9.9-2.7,15-8.2,15-13.3
	c0-2,0-4.1,0-5.8C121.2,287.1,70.1,287.1,70.1,292.5z"/>
<linearGradient id="SVGID_2_" gradientUnits="userSpaceOnUse" x1="70.6888" y1="281.7405" x2="120.93" y2="281.7405" gradientTransform="matrix(1 0 0 -1 0 586)">
	<stop  offset="0" style="stop-color:#D88F25"/>
	<stop  offset="1" style="stop-color:#EBA136"/>
</linearGradient>
<path class="st1" d="M72.5,298.6v5.8c-0.7-1-1.4-2-1.7-3.1v-5.4C71.2,296.9,71.8,298,72.5,298.6z M85.8,306.1v5.8
	c0.7,0,1.4,0.3,1.7,0.3v-5.8C86.8,306.5,86.1,306.5,85.8,306.1z M92.9,307.2v5.8c0.7,0,1.4,0,1.7,0v-5.8
	C94.3,307.2,93.6,307.2,92.9,307.2z M89.2,306.8v5.8c0.7,0,1.4,0.3,1.7,0.3v-5.8C90.6,307.2,89.9,306.8,89.2,306.8z M74.6,301v5.4
	c0.7,0.3,1,1,1.7,1.4V302C75.6,301.7,74.9,301.4,74.6,301z M82,305.1v5.4c0.7,0.3,1.4,0.3,1.7,0.7v-5.8
	C83.1,305.5,82.4,305.1,82,305.1z M78.3,303.4v5.4c0.7,0.3,1,0.7,1.7,1v-5.4C79.3,303.7,78.6,303.7,78.3,303.4z M96.7,307.2v5.8
	c0.7,0,1.4,0,1.7,0v-5.8C98.1,307.2,97.4,307.2,96.7,307.2z M115.4,302v5.8c0.7-0.3,1.4-1,1.7-1.4V301
	C116.8,301,116.1,301.4,115.4,302z M100.4,307.2v5.8c0.7,0,1.4,0,1.7-0.3v-5.8C101.8,306.8,101.1,307.2,100.4,307.2z M119.2,298.6
	v5.8c0.7-1,1.4-2,1.7-3.4v-5.4C120.5,296.6,119.8,297.6,119.2,298.6z M111.7,304.1v5.4c0.7-0.3,1.4-0.7,1.7-1v-5.4
	C113,303.4,112.3,303.7,111.7,304.1z M107.9,305.5v5.8c0.7-0.3,1.4-0.3,1.7-0.7v-5.4C109.3,305.1,108.6,305.5,107.9,305.5z
	 M104.2,306.5v5.8c0.7,0,1.4-0.3,1.7-0.3v-5.8C105.5,306.1,104.9,306.5,104.2,306.5z"/>
<path class="st2" d="M113.7,282c10.2,5.8,10.2,15,0,21.1c-9.9,5.8-26.2,5.8-36.4,0c-10.2-5.8-10.2-15,0-21.1
	C87.5,276.2,103.8,276.2,113.7,282z"/>
<path class="st3" d="M112.3,283c9.2,5.1,9.2,13.6,0,19.1c-9.2,5.4-23.8,5.4-33,0c-9.2-5.1-9.2-13.6,0-19.1
	C88.2,277.9,103.2,277.5,112.3,283z"/>
<path class="st4" d="M79.7,284.3c8.9-5.1,23.2-5.1,32.3,0c6.5,3.7,8.2,9.2,5.4,13.6c3.7-5.1,2-10.9-4.8-15c-9.2-5.1-23.8-5.1-33,0
	c-7.1,4.1-8.5,10.2-4.8,15C71.5,293.5,73.2,288.1,79.7,284.3z"/>
<path class="st4" d="M108.3,298.3c1.4-1,2.4-2.4,2.4-3.7v-1c0-1-0.7-2.4-2.7-3.4c-3.7-2-7.5-1.7-12.3-0.7l-2,0.7l-5.1-3.1
	c1,0,2.4,0,4.4,0.7c0.7,0.3,1.4,0.3,2-0.3c0.3-0.3,1-1,1-1.4v-1c0-0.3-0.3-0.7-0.7-1c-1.4-0.7-5.4-1-9.9,1.7l-2.7-1.4l-1.7,1v1
	l1.7,1c-1.4,1-2.4,2.4-2.4,3.4v1c0,1,0.7,2.4,2.7,3.4c3.1,1.7,6.8,1.4,10.9,0.3l2.4-0.7l6.1,3.4c-1,0-2.7,0-5.4-0.7
	c-1-0.3-1.7-0.3-2.4,0.3c-0.3,0.3-1,1-0.7,1.4v1c0,0.3,0.3,1,1,1.4c1,0.7,5.1,1.4,10.9-1.7l3.4,2l1.7-1v-1L108.3,298.3z M85.5,290.5
	c-0.7-0.3-1-0.7-1-1c0-0.3,0.3-0.7,1-1l4.8,2.7C88.5,291.5,86.8,291.1,85.5,290.5z M94.3,300.3l0.3,0.3
	C94.6,300.3,94.6,300.3,94.3,300.3z M105.9,296.9l-5.4-3.1c2-0.3,3.7,0,5.4,1c0.7,0.3,1,0.7,1.4,1.4
	C106.9,296.3,106.6,296.6,105.9,296.9z"/>
<path class="st2" d="M107.6,298c3.1-1.7,5.4-5.1,0.7-7.8c-3.7-2-7.5-1.7-12.3-0.7l-2,0.7l-6.8-3.7c1-0.3,2.7-0.3,5.8,0.3
	c0.7,0.3,1.4,0.3,2-0.3c0.7-0.3,2-1.7,0.3-2.4c-1.4-0.7-5.4-1-9.9,1.7l-2.7-1.4l-1.7,1l2.7,1.4c-3.7,2.4-4.8,5.1-0.7,7.5
	c3.1,1.7,6.8,1.4,10.9,0.3l2.4-0.7l7.5,4.4c-0.7,0.3-2.7,0.7-6.8-0.3c-1-0.3-1.7-0.3-2.4,0.3c-0.7,0.3-1.4,2,0,2.7
	c1,0.7,5.1,1.4,10.9-1.7l3.4,2l1.7-1L107.6,298z M85.5,290.5c-1.7-1-1.7-2.4-0.3-3.4l6.1,3.4C89.5,291.5,87.2,291.5,85.5,290.5z
	 M105.9,296.9l-7.1-4.1c2.4-0.7,5.1-0.7,6.8,0.7C107.9,294.6,107.6,295.9,105.9,296.9z"/>
<linearGradient id="SVGID_3_" gradientUnits="userSpaceOnUse" x1="46.8194" y1="255.9463" x2="98.2274" y2="255.9463" gradientTransform="matrix(1 0 0 -1 0 586)">
	<stop  offset="0" style="stop-color:#D88000"/>
	<stop  offset="1" style="stop-color:#FFAC33"/>
</linearGradient>
<path class="st5" d="M47,321.8c0,2,0,4.1,0,5.8c0,5.4,5.1,10.6,15,13.3c7.1,2,14.3,2,21.4,0c9.9-2.7,15-8.2,15-13.3c0-2,0-4.1,0-5.8
	C98,316.3,47,316.3,47,321.8z"/>
<linearGradient id="SVGID_4_" gradientUnits="userSpaceOnUse" x1="47.4535" y1="252.4555" x2="97.6945" y2="252.4555" gradientTransform="matrix(1 0 0 -1 0 586)">
	<stop  offset="0" style="stop-color:#D88F25"/>
	<stop  offset="1" style="stop-color:#EBA136"/>
</linearGradient>
<path class="st6" d="M49.4,327.9v5.8c-0.7-1-1.4-2-1.7-3.1v-5.4C48,325.9,48.3,326.9,49.4,327.9z M62.3,335.4v5.8
	c0.7,0,1.4,0.3,1.7,0.3v-5.8C63.7,335.8,63,335.4,62.3,335.4z M69.8,336.4v5.8c0.7,0,1.4,0,1.7,0v-5.8
	C71.2,336.4,70.5,336.4,69.8,336.4z M66,336.1v5.8c0.7,0,1.4,0.3,1.7,0.3v-5.8C67.4,336.4,66.7,336.1,66,336.1z M51.1,330v5.4
	c0.7,0.3,1,1,1.7,1.4V331C52.4,331,51.7,330.6,51.1,330z M58.6,334.4v5.4c0.7,0.3,1.4,0.3,1.7,0.7v-5.8
	C59.9,334.7,59.2,334.4,58.6,334.4z M54.8,332.7v5.4c0.7,0.3,1,0.7,1.7,1v-5.4C56.2,333,55.5,333,54.8,332.7z M73.5,336.4v5.8
	c0.7,0,1.4,0,1.7,0v-5.8C74.9,336.4,74.2,336.4,73.5,336.4z M92.3,331.3v5.8c0.7-0.3,1.4-1,1.7-1.4v-5.4
	C93.6,330.3,92.9,330.6,92.3,331.3z M77.3,336.4v5.8c0.7,0,1.4,0,1.7-0.3v-5.8C78.6,336.1,78,336.4,77.3,336.4z M96,327.9v5.8
	c0.7-1,1.4-2,1.7-3.4v-5.4C97.4,325.9,96.7,326.9,96,327.9z M88.5,333.4v5.4c0.7-0.3,1.4-0.7,1.7-1v-5.4
	C89.5,332.7,89.2,333,88.5,333.4z M84.8,334.7v5.8c0.7-0.3,1.4-0.3,1.7-0.7v-5.4C86.1,334.4,85.5,334.4,84.8,334.7z M81,335.8v5.8
	c0.7,0,1.4-0.3,1.7-0.3v-5.8C82.4,335.4,81.7,335.4,81,335.8z"/>
<path class="st2" d="M90.6,311.2c10.2,5.8,10.2,15,0,21.1c-9.9,5.8-26.2,5.8-36.4,0s-10.2-15,0-21.1
	C64.3,305.5,80.7,305.5,90.6,311.2z"/>
<path class="st3" d="M88.9,312.3c9.2,5.1,9.2,13.6,0,19.1c-9.2,5.4-23.8,5.4-33,0c-9.2-5.1-9.2-13.6,0-19.1
	C65,307.2,80,306.8,88.9,312.3z"/>
<path class="st4" d="M56.5,313.6c8.9-5.1,23.2-5.1,32.3,0c6.5,3.7,8.2,9.2,5.4,13.6c3.7-5.1,2-10.9-4.8-15c-9.2-5.1-23.8-5.1-33,0
	c-7.1,4.1-8.5,10.2-4.8,15C48.3,322.8,50,317.4,56.5,313.6z"/>
<path class="st4" d="M85.1,327.6c1.4-1,2.4-2.4,2.4-3.7v-1c0-1-0.7-2.4-2.7-3.4c-3.7-2-7.5-1.7-12.3-0.7l-2,0.7l-5.1-3.1
	c1,0,2.4,0,4.4,0.7c0.7,0.3,1.4,0.3,2-0.3c0.3-0.3,1-1,1-1.4v-1c0-0.3-0.3-0.7-0.7-1c-1.4-0.7-5.4-1-9.9,1.7l-2.7-1.4l-1.7,1v1
	l1.7,1c-1.4,1-2.4,2.4-2.4,3.4v1c0,1,0.7,2.4,2.7,3.4c3.1,1.7,6.8,1.4,10.9,0.3l2.4-0.7l6.1,3.4c-1,0-2.7,0-5.4-0.7
	c-1-0.3-1.7-0.3-2.4,0.3c-0.3,0.3-1,1-0.7,1.4v1c0,0.3,0.3,1,1,1.4c1,0.7,5.1,1.4,10.9-1.7l3.4,2l1.7-1v-1L85.1,327.6z M62.3,319.8
	c-0.7-0.3-1-0.7-1-1c0-0.3,0.3-0.7,1-1l4.8,2.7C65.4,320.4,63.7,320.4,62.3,319.8z M71.2,329.6l0.3,0.3
	C71.5,329.6,71.5,329.6,71.2,329.6z M82.7,326.2l-5.4-3.1c2-0.3,3.7,0,5.4,1c0.7,0.3,1,0.7,1.4,1.4
	C83.7,325.5,83.4,325.9,82.7,326.2z"/>
<path class="st2" d="M84.1,327.2c3.1-1.7,5.4-5.1,0.7-7.8c-3.7-2-7.5-1.7-12.3-0.7l-2,0.7l-6.8-3.7c1-0.3,2.7-0.3,5.8,0.3
	c0.7,0.3,1.4,0.3,2-0.3c0.7-0.3,2-1.7,0.3-2.4c-1.4-0.7-5.4-1-9.9,1.7l-2.7-1.4l-1.7,1l2.7,1.4c-3.7,2.4-4.8,5.1-0.7,7.5
	c3.1,1.7,6.8,1.4,10.9,0.3l2.4-0.7l7.5,4.4c-0.7,0.3-2.7,0.7-6.8-0.3c-1-0.3-1.7-0.3-2.4,0.3c-0.7,0.3-1.4,2,0,2.7
	c1,0.7,5.1,1.4,10.9-1.7l3.4,2l1.7-1L84.1,327.2z M62.3,319.8c-1.7-1-1.7-2.4-0.3-3.4l6.1,3.4C66,320.4,64,320.8,62.3,319.8z
	 M82.7,326.2l-7.1-4.1c2.4-0.7,5.1-0.7,6.8,0.7C84.4,323.8,84.4,325.2,82.7,326.2z"/>
<linearGradient id="SVGID_5_" gradientUnits="userSpaceOnUse" x1="67.0037" y1="292.0419" x2="118.4115" y2="292.0419" gradientTransform="matrix(1 0 0 -1 0 586)">
	<stop  offset="0" style="stop-color:#D88000"/>
	<stop  offset="1" style="stop-color:#FFAC33"/>
</linearGradient>
<path class="st7" d="M67.1,285.7c0,2,0,4.1,0,5.8c0,5.4,5.1,10.6,15,13.3c7.1,2,14.3,2,21.4,0c9.9-2.7,15-8.2,15-13.3
	c0-2,0-4.1,0-5.8C118.1,280.3,67.1,280.3,67.1,285.7z"/>
<linearGradient id="SVGID_6_" gradientUnits="userSpaceOnUse" x1="67.6378" y1="288.5515" x2="117.879" y2="288.5515" gradientTransform="matrix(1 0 0 -1 0 586)">
	<stop  offset="0" style="stop-color:#D88F25"/>
	<stop  offset="1" style="stop-color:#EBA136"/>
</linearGradient>
<path class="st8" d="M69.5,291.8v5.8c-0.7-1-1.4-2-1.7-3.1v-5.4C68.1,290.1,68.8,291.1,69.5,291.8z M82.7,299.3v5.8
	c0.7,0,1.4,0.3,1.7,0.3v-5.8C83.8,299.7,83.1,299.7,82.7,299.3z M89.9,300.3v5.8c0.7,0,1.4,0,1.7,0v-5.8
	C91.2,300.3,90.6,300.3,89.9,300.3z M86.1,300v5.8c0.7,0,1.4,0.3,1.7,0.3v-5.8C87.5,300.3,86.8,300,86.1,300z M71.5,294.2v5.4
	c0.7,0.3,1,1,1.7,1.4v-5.8C72.5,294.9,71.8,294.6,71.5,294.2z M79,298.3v5.4c0.7,0.3,1.4,0.3,1.7,0.7v-5.8
	C80,298.6,79.3,298.3,79,298.3z M75.2,296.6v5.4c0.7,0.3,1,0.7,1.7,1v-5.4C76.3,297.3,75.6,296.9,75.2,296.6z M93.6,300.3v5.8
	c0.7,0,1.4,0,1.7,0v-5.8C95,300.3,94.3,300.3,93.6,300.3z M112.4,295.2v5.8c0.7-0.3,1.4-1,1.7-1.4v-5.4
	C113.7,294.2,113,294.6,112.4,295.2z M97.4,300.3v5.8c0.7,0,1.4,0,1.7-0.3V300C98.7,300,98.1,300.3,97.4,300.3z M116.1,291.8v5.8
	c0.7-1,1.4-2,1.7-3.4v-5.4C117.5,289.8,116.8,290.8,116.1,291.8z M108.6,297.3v5.4c0.7-0.3,1.4-0.7,1.7-1v-5.4
	C110,296.6,109.3,296.9,108.6,297.3z M104.9,298.6v5.8c0.7-0.3,1.4-0.3,1.7-0.7v-5.4C106.2,298.3,105.5,298.6,104.9,298.6z
	 M101.1,299.7v5.8c0.7,0,1.4-0.3,1.7-0.3v-5.8C102.5,299.3,101.8,299.7,101.1,299.7z"/>
<path class="st2" d="M110.7,275.1c10.2,5.8,10.2,15,0,21.1c-9.9,5.8-26.2,5.8-36.4,0c-10.2-5.8-10.2-15,0-21.1
	C84.4,269.4,100.8,269.4,110.7,275.1z"/>
<path class="st3" d="M109.3,276.2c9.2,5.1,9.2,13.6,0,19.1c-9.2,5.4-23.8,5.4-33,0c-9.2-5.1-9.2-13.6,0-19.1
	C85.1,271.1,100.1,270.7,109.3,276.2z"/>
<path class="st4" d="M76.6,277.5c8.9-5.1,23.2-5.1,32.3,0c6.5,3.7,8.2,9.2,5.4,13.6c3.7-5.1,2-10.9-4.8-15c-9.2-5.1-23.8-5.1-33,0
	c-7.1,4.1-8.5,10.2-4.8,15C68.4,286.7,70.1,281.3,76.6,277.5z"/>
<path class="st4" d="M105.2,291.5c1.4-1,2.4-2.4,2.4-3.7v-1c0-1-0.7-2.4-2.7-3.4c-3.7-2-7.5-1.7-12.3-0.7l-2,0.7l-5.1-3.1
	c1,0,2.4,0,4.4,0.7c0.7,0.3,1.4,0.3,2-0.3c0.3-0.3,1-1,1-1.4v-1c0-0.3-0.3-0.7-0.7-1c-1.4-0.7-5.4-1-9.9,1.7l-2.7-1.4l-1.7,1v1
	l1.7,1c-1.4,1-2.4,2.4-2.4,3.4v1c0,1,0.7,2.4,2.7,3.4c3.1,1.7,6.8,1.4,10.9,0.3l2.4-0.7l6.1,3.4c-1,0-2.7,0-5.4-0.7
	c-1-0.3-1.7-0.3-2.4,0.3c-0.3,0.3-1,1-0.7,1.4v1c0,0.3,0.3,1,1,1.4c1,0.7,5.1,1.4,10.9-1.7l3.4,2l1.7-1v-1L105.2,291.5z M82.4,283.7
	c-0.7-0.3-1-0.7-1-1c0-0.3,0.3-0.7,1-1l4.8,2.7C85.5,284.7,83.7,284.3,82.4,283.7z M91.2,293.5l0.3,0.3
	C91.6,293.5,91.6,293.5,91.2,293.5z M102.8,290.1l-5.4-3.1c2-0.3,3.7,0,5.4,1c0.7,0.3,1,0.7,1.4,1.4
	C103.8,289.4,103.5,289.8,102.8,290.1z"/>
<path class="st2" d="M104.5,291.1c3.1-1.7,5.4-5.1,0.7-7.8c-3.7-2-7.5-1.7-12.3-0.7l-2,0.7l-6.8-3.7c1-0.3,2.7-0.3,5.8,0.3
	c0.7,0.3,1.4,0.3,2-0.3c0.7-0.3,2-1.7,0.3-2.4c-1.4-0.7-5.4-1-9.9,1.7l-2.7-1.4l-1.7,1l2.7,1.4c-3.7,2.4-4.8,5.1-0.7,7.5
	c3.1,1.7,6.8,1.4,10.9,0.3l2.4-0.7l7.5,4.4c-0.7,0.3-2.7,0.7-6.8-0.3c-1-0.3-1.7-0.3-2.4,0.3c-0.7,0.3-1.4,2,0,2.7
	c1,0.7,5.1,1.4,10.9-1.7l3.4,2l1.7-1L104.5,291.1z M82.4,283.7c-1.7-1-1.7-2.4-0.3-3.4l6.1,3.4C86.5,284.7,84.1,284.7,82.4,283.7z
	 M102.8,290.1l-7.1-4.1c2.4-0.7,5.1-0.7,6.8,0.7C104.9,287.7,104.5,289.1,102.8,290.1z"/>
<linearGradient id="SVGID_7_" gradientUnits="userSpaceOnUse" x1="424.545" y1="229.0448" x2="475.953" y2="229.0448" gradientTransform="matrix(1 0 0 -1 0 586)">
	<stop  offset="0" style="stop-color:#D88000"/>
	<stop  offset="1" style="stop-color:#FFAC33"/>
</linearGradient>
<path class="st9" d="M424.5,348.7c0,2,0,4.1,0,5.8c0,5.4,5.1,10.6,15,13.3c7.1,2,14.3,2,21.4,0c9.9-2.7,15-8.2,15-13.3
	c0-2,0-4.1,0-5.8C475.6,343.2,424.5,343.2,424.5,348.7z"/>
<linearGradient id="SVGID_8_" gradientUnits="userSpaceOnUse" x1="425.14" y1="225.3845" x2="475.381" y2="225.3845" gradientTransform="matrix(1 0 0 -1 0 586)">
	<stop  offset="0" style="stop-color:#D88F25"/>
	<stop  offset="1" style="stop-color:#EBA136"/>
</linearGradient>
<path class="st10" d="M426.9,355.2v5.8c-0.7-1-1.4-2-1.7-3.1v-5.4C425.6,353.1,426.2,354.1,426.9,355.2z M440.2,362.3v5.8
	c0.7,0,1.4,0.3,1.7,0.3v-5.8C441.2,362.7,440.5,362.7,440.2,362.3z M447.7,363.3v5.8c0.7,0,1.4,0,1.7,0v-5.8
	C448.7,363.7,448,363.3,447.7,363.3z M443.9,363v5.8c0.7,0,1.4,0.3,1.7,0.3v-5.8C445,363.3,444.3,363,443.9,363z M429,357.2v5.4
	c0.7,0.3,1,1,1.7,1.4v-5.8C430,357.9,429.3,357.6,429,357.2z M436.5,361.3v5.4c0.7,0.3,1.4,0.3,1.7,0.7v-5.8
	C437.5,361.6,436.8,361.6,436.5,361.3z M432.7,359.6v5.4c0.7,0.3,1,0.7,1.7,1v-5.4C433.7,360.3,433.1,359.9,432.7,359.6z
	 M451.1,363.7v5.8c0.7,0,1.4,0,1.7,0v-5.8C452.5,363.3,451.8,363.3,451.1,363.7z M469.8,358.2v5.8c0.7-0.3,1.4-1,1.7-1.4v-5.4
	C471.2,357.2,470.5,357.6,469.8,358.2z M454.8,363.3v5.8c0.7,0,1.4,0,1.7-0.3V363C456.2,363,455.5,363.3,454.8,363.3z M473.6,354.8
	v5.8c0.7-1,1.4-2,1.7-3.4v-5.4C474.9,352.8,474.2,353.8,473.6,354.8z M466.1,360.3v5.4c0.7-0.3,1.4-0.7,1.7-1v-5.4
	C467.4,359.6,466.8,359.9,466.1,360.3z M462.3,361.6v5.8c0.7-0.3,1.4-0.3,1.7-0.7v-5.4C463.7,361.3,463,361.6,462.3,361.6z
	 M458.6,362.7v5.8c0.7,0,1.4-0.3,1.7-0.3v-5.8C459.9,362.3,459.3,362.7,458.6,362.7z"/>
<path class="st2" d="M468.5,338.1c10.2,5.8,10.2,15,0,21.1c-9.9,5.8-26.2,5.8-36.4,0c-10.2-5.8-10.2-15,0-21.1
	C441.9,332.4,458.2,332.4,468.5,338.1z"/>
<path class="st3" d="M466.8,339.2c9.2,5.1,9.2,13.6,0,19.1c-9.2,5.4-23.8,5.4-33,0c-9.2-5.4-9.2-13.6,0-19.1
	C442.6,334.1,457.6,334.1,466.8,339.2z"/>
<path class="st4" d="M434.1,340.5c8.9-5.1,23.1-5.1,32.3,0c6.5,3.7,8.2,9.2,5.4,13.6c3.7-5.1,2-10.9-4.8-15c-9.2-5.1-23.8-5.1-33,0
	c-7.2,4.1-8.5,10.2-4.8,15C425.9,349.7,427.6,344.3,434.1,340.5z"/>
<path class="st4" d="M462.7,354.5c1.4-1,2.4-2.4,2.4-3.7v-1c0-1-0.7-2.4-2.7-3.4c-3.7-2-7.5-1.7-12.3-0.7l-2,0.7l-5.1-3.1
	c1,0,2.4,0,4.4,0.7c0.7,0.3,1.4,0.3,2-0.3c0.3-0.3,1-1,1-1.4v-1c0-0.3-0.3-0.7-0.7-1c-1.4-0.7-5.4-1-9.9,1.7l-2.7-1.4l-1.7,1v1
	l1.7,1c-1.4,1-2.4,2.4-2.4,3.4v1c0,1,0.7,2.4,2.7,3.4c3.1,1.7,6.8,1.4,10.9,0.3l2.4-0.7l6.1,3.4c-1,0-2.7,0-5.4-0.7
	c-1-0.3-1.7-0.3-2.4,0.3c-0.3,0.3-1,1-0.7,1.4v1c0,0.3,0.3,1,1,1.4c1,0.7,5.1,1.4,10.9-1.7l3.4,2l1.7-1v-1L462.7,354.5z
	 M439.9,346.7c-0.7-0.3-1-0.7-1-1c0-0.3,0.3-0.7,1-1l4.8,2.7C442.9,347.7,441.2,347.3,439.9,346.7z M449.1,356.5l0.3,0.3
	C449.1,356.5,449.1,356.5,449.1,356.5z M460.3,353.1l-5.4-3.1c2-0.3,3.7,0,5.4,1c0.7,0.3,1,0.7,1.4,1.4
	C461.3,352.4,461,352.8,460.3,353.1z"/>
<path class="st2" d="M462,354.1c3.1-1.7,5.4-5.1,0.7-7.8c-3.7-2-7.5-1.7-12.3-0.7l-2,0.7l-6.8-3.7c1-0.3,2.7-0.3,5.8,0.3
	c0.7,0.3,1.4,0.3,2-0.3c0.7-0.3,2-1.7,0.3-2.4c-1.4-0.7-5.4-1-9.9,1.7l-2.7-1.4l-1.7,1l2.7,1.4c-3.7,2.4-4.8,5.1-0.7,7.5
	c3.1,1.7,6.8,1.4,10.9,0.3l2.4-0.7l7.5,4.4c-0.7,0.3-2.7,0.7-6.8-0.3c-1-0.3-1.7-0.3-2.4,0.3c-0.7,0.3-1.4,2,0,2.7
	c1,0.7,5.1,1.4,10.9-1.7l3.4,2l1.7-1L462,354.1z M439.9,346.7c-1.7-1-1.7-2.4-0.3-3.4l6.1,3.4C444,347.7,441.6,347.7,439.9,346.7z
	 M460.3,353.1l-7.1-4.1c2.4-0.7,5.1-0.7,6.8,0.7C462.3,350.7,462,352.1,460.3,353.1z"/>
<linearGradient id="SVGID_9_" gradientUnits="userSpaceOnUse" x1="421.22" y1="235.9193" x2="472.628" y2="235.9193" gradientTransform="matrix(1 0 0 -1 0 586)">
	<stop  offset="0" style="stop-color:#D88000"/>
	<stop  offset="1" style="stop-color:#FFAC33"/>
</linearGradient>
<path class="st11" d="M421.1,341.9c0,2,0,4.1,0,5.8c0,5.4,5.1,10.6,15,13.3c7.1,2,14.3,2,21.4,0c9.9-2.7,15-8.2,15-13.3
	c0-2,0-4.1,0-5.8C472.5,336.1,421.5,336.4,421.1,341.9z"/>
<linearGradient id="SVGID_10_" gradientUnits="userSpaceOnUse" x1="421.818" y1="232.535" x2="472.059" y2="232.535" gradientTransform="matrix(1 0 0 -1 0 586)">
	<stop  offset="0" style="stop-color:#D88F25"/>
	<stop  offset="1" style="stop-color:#EBA136"/>
</linearGradient>
<path class="st12" d="M423.5,348v5.8c-0.7-1-1.4-2-1.7-3.1v-5.4C422.2,346,422.8,347,423.5,348z M436.8,355.5v5.8
	c0.7,0,1.4,0.3,1.7,0.3v-5.8C438.2,355.8,437.5,355.5,436.8,355.5z M444.3,356.5v5.8c0.7,0,1.4,0,1.7,0v-5.8
	C445.3,356.5,445,356.5,444.3,356.5z M440.5,356.2v5.8c0.7,0,1.4,0.3,1.7,0.3v-5.8C441.6,356.5,441.2,356.2,440.5,356.2z
	 M425.6,350.1v5.4c0.7,0.3,1,1,1.7,1.4v-5.8C426.9,351.1,426.2,350.7,425.6,350.1z M433.1,354.5v5.4c0.7,0.3,1.4,0.3,1.7,0.7v-5.8
	C434.4,354.8,433.7,354.5,433.1,354.5z M429.3,352.8v5.4c0.7,0.3,1,0.7,1.7,1v-5.4C430.7,353.1,430,353.1,429.3,352.8z M448,356.5
	v5.8c0.7,0,1.4,0,1.7,0v-5.8C449.1,356.5,448.7,356.5,448,356.5z M466.4,351.1v5.8c0.7-0.3,1.4-1,1.7-1.4v-5.4
	C467.8,350.4,467.1,350.7,466.4,351.1z M451.8,356.5v5.8c0.7,0,1.4,0,1.7-0.3v-5.8C452.8,356.2,452.5,356.2,451.8,356.5z
	 M470.2,347.7v5.8c0.7-1,1.4-2,1.7-3.4v-5.4C471.9,345.6,471.2,347,470.2,347.7z M463,353.5v5.4c0.7-0.3,1.4-0.7,1.7-1v-5.4
	C464,352.8,463.4,353.1,463,353.5z M459.3,354.8v5.8c0.7-0.3,1.4-0.3,1.7-0.7v-5.4C460.3,354.5,459.6,354.5,459.3,354.8z
	 M455.5,355.8v5.8c0.7,0,1.4-0.3,1.7-0.3v-5.8C456.5,355.5,455.9,355.5,455.5,355.8z"/>
<path class="st2" d="M465.1,331.3c10.2,5.8,10.2,15,0,21.1c-9.9,5.8-26.2,5.8-36.4,0c-10.2-5.8-10.2-15,0-21.1
	C438.8,325.5,454.8,325.5,465.1,331.3z"/>
<path class="st3" d="M463.4,332.4c9.2,5.1,9.2,13.6,0,19.1c-9.2,5.4-23.8,5.4-33,0c-9.2-5.1-9.2-13.6,0-19.1
	C439.5,326.9,454.2,326.9,463.4,332.4z"/>
<path class="st4" d="M430.7,333.7c8.9-5.1,23.2-5.1,32.3,0c6.5,3.7,8.2,9.2,5.4,13.6c3.7-5.1,2-10.9-4.8-15c-9.2-5.1-23.8-5.1-33,0
	c-7.1,4.1-8.5,10.2-4.8,15C422.5,342.9,424.2,337.5,430.7,333.7z"/>
<path class="st4" d="M459.6,347.7c1.4-1,2.4-2.4,2.4-3.7v-1c0-1-0.7-2.4-2.7-3.4c-3.7-2-7.5-1.7-12.3-0.7l-2,0.7l-5.1-3.1
	c1,0,2.4,0,4.4,0.7c0.7,0.3,1.4,0.3,2-0.3c0.3-0.3,1-1,1-1.4v-1c0-0.3-0.3-0.7-0.7-1c-1.4-0.7-5.4-1-9.9,1.7l-2.7-1.4l-1.7,1v1
	l1.7,1c-1.4,1-2.4,2.4-2.4,3.4v1c0,1,0.7,2.4,2.7,3.4c3.1,1.7,6.8,1.4,10.9,0.3l2.4-0.7l6.1,3.4c-1,0-2.7,0-5.4-0.7
	c-1-0.3-1.7-0.3-2.4,0.3c-0.3,0.3-1,1-0.7,1.4v1c0,0.3,0.3,1,1,1.4c1,0.7,5.1,1.4,10.9-1.7l3.4,2l1.7-1v-1L459.6,347.7z
	 M436.8,339.8c-0.7-0.3-1-0.7-1-1c0-0.3,0.3-0.7,1-1l4.8,2.7C439.5,340.5,437.8,340.5,436.8,339.8z M445.6,349.4l0.3,0.3
	C446,349.7,445.6,349.7,445.6,349.4z M457.2,346.3l-5.4-3.1c2-0.3,3.7,0,5.4,1c0.7,0.3,1,0.7,1.4,1.4
	C457.9,345.6,457.6,346,457.2,346.3z"/>
<path class="st2" d="M458.6,347c3.1-1.7,5.4-5.1,0.7-7.8c-3.7-2-7.5-1.7-12.3-0.7l-2,0.7l-6.8-3.7c1-0.3,2.7-0.3,5.8,0.3
	c0.7,0.3,1.4,0.3,2-0.3c0.7-0.3,2-1.7,0.3-2.4c-1.4-0.7-5.4-1-9.9,1.7l-2.7-1.4l-1.7,1l2.7,1.4c-3.7,2.4-4.8,5.1-0.7,7.5
	c3.1,1.7,6.8,1.4,10.9,0.3l2.4-0.7l7.5,4.4c-0.7,0.3-2.7,0.7-6.8-0.3c-1-0.3-1.7-0.3-2.4,0.3c-0.7,0.3-1.4,2,0,2.7
	c1,0.7,5.1,1.4,10.9-1.7l3.4,2l1.7-1L458.6,347z M436.8,339.8c-1.7-1-1.7-2.4-0.3-3.4l6.1,3.4C440.5,340.5,438.2,340.9,436.8,339.8z
	 M457.2,346.3l-7.1-4.1c2.4-0.7,5.1-0.7,6.8,0.7C458.9,343.9,458.9,345.3,457.2,346.3z"/>
<linearGradient id="SVGID_11_" gradientUnits="userSpaceOnUse" x1="421.809" y1="243.0059" x2="473.217" y2="243.0059" gradientTransform="matrix(1 0 0 -1 0 586)">
	<stop  offset="0" style="stop-color:#D88000"/>
	<stop  offset="1" style="stop-color:#FFAC33"/>
</linearGradient>
<path class="st13" d="M421.8,334.7c0,2,0,4.1,0,5.8c0,5.4,5.1,10.6,15,13.3c7.1,2,14.3,2,21.4,0c9.9-2.7,15-8.2,15-13.3
	c0-2,0-4.1,0-5.8C472.9,329.3,421.8,329.3,421.8,334.7z"/>
<linearGradient id="SVGID_12_" gradientUnits="userSpaceOnUse" x1="422.411" y1="239.516" x2="472.652" y2="239.516" gradientTransform="matrix(1 0 0 -1 0 586)">
	<stop  offset="0" style="stop-color:#D88F25"/>
	<stop  offset="1" style="stop-color:#EBA136"/>
</linearGradient>
<path class="st14" d="M424.2,340.9v5.8c-0.7-1-1.4-2-1.7-3.1v-5.4C422.8,338.8,423.5,339.8,424.2,340.9z M437.5,348.4v5.8
	c0.7,0,1.4,0.3,1.7,0.3v-5.8C438.5,348.7,437.8,348.4,437.5,348.4z M445,349.4v5.8c0.7,0,1.4,0,1.7,0v-5.8
	C446,349.4,445.3,349.4,445,349.4z M441.2,349v5.8c0.7,0,1.4,0.3,1.7,0.3v-5.8C442.2,349.4,441.6,349,441.2,349z M426.2,342.9v5.4
	c0.7,0.3,1,1,1.7,1.4v-5.8C427.3,343.9,426.6,343.6,426.2,342.9z M433.7,347.3v5.4c0.7,0.3,1.4,0.3,1.7,0.7v-5.8
	C434.7,347.7,434.1,347.3,433.7,347.3z M430,345.6v5.4c0.7,0.3,1,0.7,1.7,1v-5.4C431,346,430.3,346,430,345.6z M448.4,349.4v5.8
	c0.7,0,1.4,0,1.7,0v-5.8C449.7,349.4,449,349.4,448.4,349.4z M467.1,344.3v5.8c0.7-0.3,1.4-1,1.7-1.4v-5.4
	C468.4,343.2,467.8,343.6,467.1,344.3z M452.1,349.4v5.8c0.7,0,1.4,0,1.7-0.3V349C453.5,349,452.8,349.4,452.1,349.4z M470.8,340.9
	v5.8c0.7-1,1.4-2,1.7-3.4v-5.4C472.2,338.8,471.5,339.8,470.8,340.9z M463.3,346.3v5.4c0.7-0.3,1.4-0.7,1.7-1v-5.4
	C464.7,345.6,464,346,463.3,346.3z M459.6,347.7v5.8c0.7-0.3,1.4-0.3,1.7-0.7v-5.4C461,347.3,460.3,347.3,459.6,347.7z M455.9,348.7
	v5.8c0.7,0,1.4-0.3,1.7-0.3v-5.8C457.2,348.4,456.5,348.4,455.9,348.7z"/>
<path class="st2" d="M465.7,324.2c10.2,5.8,10.2,15,0,21.1c-9.9,5.8-26.2,5.8-36.4,0c-10.2-5.8-10.2-15,0-21.1
	C439.5,318,455.5,318.4,465.7,324.2z"/>
<path class="st3" d="M464,325.2c9.2,5.1,9.2,13.6,0,19.1c-9.2,5.4-23.8,5.4-33,0c-9.2-5.4-9.2-13.6,0-19.1
	C439.8,320.1,454.8,319.8,464,325.2z"/>
<path class="st4" d="M431.3,326.6c8.9-5.1,23.2-5.1,32.3,0c6.5,3.7,8.2,9.2,5.4,13.6c3.7-5.1,2-10.9-4.8-15c-9.2-5.1-23.8-5.1-33,0
	c-7.1,4.1-8.5,10.2-4.8,15C423.2,335.8,424.9,330.3,431.3,326.6z"/>
<path class="st4" d="M459.9,340.5c1.4-1,2.4-2.4,2.4-3.7v-1c0-1-0.7-2.4-2.7-3.4c-3.7-2-7.5-1.7-12.3-0.7l-2,0.7l-5.1-3.1
	c1,0,2.4,0,4.4,0.7c0.7,0.3,1.4,0.3,2-0.3c0.3-0.3,1-1,1-1.4v-1c0-0.3-0.3-0.7-0.7-1c-1.4-0.7-5.4-1-9.9,1.7l-2.7-1.4l-1.7,1v1
	l1.7,1c-1.4,1-2.4,2.4-2.4,3.4v1c0,1,0.7,2.4,2.7,3.4c3.1,1.7,6.8,1.4,10.9,0.3l2.4-0.7l6.1,3.4c-1,0-2.7,0-5.4-0.7
	c-1-0.3-1.7-0.3-2.4,0.3c-0.3,0.3-1,1-0.7,1.4v1c0,0.3,0.3,1,1,1.4c1,0.7,5.1,1.4,10.9-1.7l3.4,2l1.7-1v-1L459.9,340.5z
	 M437.5,332.7c-0.7-0.3-1-0.7-1-1c0-0.3,0.3-0.7,1-1l4.8,2.7C440.2,333.4,438.5,333.4,437.5,332.7z M446.3,342.6l0.3,0.3
	C446.3,342.6,446.3,342.6,446.3,342.6z M457.6,339.2l-5.4-3.1c2-0.3,3.7,0,5.4,1c0.7,0.3,1,0.7,1.4,1.4
	C458.6,338.5,458.2,338.8,457.6,339.2z"/>
<path class="st2" d="M459.3,340.2c3.1-1.7,5.4-5.1,0.7-7.8c-3.7-2-7.5-1.7-12.3-0.7l-2,0.7l-6.8-3.7c1-0.3,2.7-0.3,5.8,0.3
	c0.7,0.3,1.4,0.3,2-0.3c0.7-0.3,2-1.7,0.3-2.4c-1.4-0.7-5.4-1-9.9,1.7l-2.7-1.4l-1.7,1l2.7,1.4c-3.7,2.4-4.8,5.1-0.7,7.5
	c3.1,1.7,6.8,1.4,10.9,0.3l2.4-0.7l7.5,4.4c-0.7,0.3-2.7,0.7-6.8-0.3c-1-0.3-1.7-0.3-2.4,0.3c-0.7,0.3-1.4,2,0,2.7
	c1,0.7,5.1,1.4,10.9-1.7l3.4,2l1.7-1L459.3,340.2z M437.5,332.7c-1.7-1-1.7-2.4-0.3-3.4l6.1,3.4
	C441.2,333.4,438.8,333.7,437.5,332.7z M457.6,339.2l-7.2-4.1c2.4-0.7,5.1-0.7,6.8,0.7C459.6,336.8,459.3,338.1,457.6,339.2z"/>
<linearGradient id="SVGID_13_" gradientUnits="userSpaceOnUse" x1="480.379" y1="274.9516" x2="531.787" y2="274.9516" gradientTransform="matrix(1 0 0 -1 0 586)">
	<stop  offset="0" style="stop-color:#D88000"/>
	<stop  offset="1" style="stop-color:#FFAC33"/>
</linearGradient>
<path class="st15" d="M480.4,302.7c0,2,0,4.1,0,5.8c0,5.4,5.1,10.6,15,13.3c7.1,2,14.3,2,21.4,0c9.9-2.7,15-8.2,15-13.3
	c0-2,0-4.1,0-5.8C531.4,297.3,480.4,297.6,480.4,302.7z"/>
<linearGradient id="SVGID_14_" gradientUnits="userSpaceOnUse" x1="481.055" y1="271.355" x2="531.296" y2="271.355" gradientTransform="matrix(1 0 0 -1 0 586)">
	<stop  offset="0" style="stop-color:#D88F25"/>
	<stop  offset="1" style="stop-color:#EBA136"/>
</linearGradient>
<path class="st16" d="M482.8,309.2v5.8c-0.7-1-1.4-2-1.7-3.1v-5.4C481.4,307.2,482.1,308.2,482.8,309.2z M496,316.3v5.8
	c0.7,0,1.4,0.3,1.7,0.3v-5.8C497.1,316.7,496.4,316.7,496,316.3z M503.5,317.4v5.8c0.7,0,1.4,0,1.7,0v-5.8
	C504.5,317.7,503.9,317.7,503.5,317.4z M499.8,317v5.8c0.7,0,1.4,0.3,1.7,0.3v-5.8C500.8,317.4,500.1,317.4,499.8,317z M484.8,311.2
	v5.4c0.7,0.3,1,1,1.7,1.4v-5.8C485.8,311.9,485.1,311.6,484.8,311.2z M492.3,315.3v5.4c0.7,0.3,1.4,0.3,1.7,0.7v-5.8
	C493.3,315.7,492.6,315.7,492.3,315.3z M488.5,313.6v5.4c0.7,0.3,1,0.7,1.7,1v-5.4C489.6,314.3,489.2,314,488.5,313.6z M507.3,317.7
	v5.8c0.7,0,1.4,0,1.7,0v-5.8C508.3,317.7,507.6,317.7,507.3,317.7z M525.7,312.3v5.8c0.7-0.3,1.4-1,1.7-1.4v-5.4
	C527,311.2,526.3,311.9,525.7,312.3z M511,317.4v5.8c0.7,0,1.4,0,1.7-0.3V317C512,317,511.4,317.4,511,317.4z M529.4,308.9v5.8
	c0.7-1,1.4-2,1.7-3.4v-5.4C530.8,306.8,530.1,307.8,529.4,308.9z M521.9,314.3v5.4c0.7-0.3,1.4-0.7,1.7-1v-5.4
	C523.3,313.6,522.6,314,521.9,314.3z M518.2,315.7v5.8c0.7-0.3,1.4-0.3,1.7-0.7v-5.4C519.5,315.3,518.8,315.7,518.2,315.7z
	 M514.4,316.7v5.8c0.7,0,1.4-0.3,1.7-0.3v-5.8C515.8,316.3,515.1,316.7,514.4,316.7z"/>
<path class="st2" d="M506,317.7c14.1-0.1,25.5-6.8,25.5-15.1c0-8.3-11.5-14.9-25.6-14.9c-14.1,0.1-25.5,6.8-25.5,15.1
	C480.4,311.1,491.9,317.8,506,317.7z"/>
<path class="st3" d="M522.6,293.2c9.2,5.1,9.2,13.6,0,19.1c-9.2,5.4-23.8,5.4-33,0c-9.2-5.1-9.2-13.6,0-19.1
	C498.8,288.1,513.4,288.1,522.6,293.2z"/>
<path class="st4" d="M489.9,294.6c8.9-5.1,23.2-5.1,32.3,0c6.5,3.7,8.2,9.2,5.4,13.6c3.7-5.1,2-10.9-4.8-15c-9.2-5.1-23.8-5.1-33,0
	c-7.1,4.1-8.5,10.2-4.8,15C481.7,303.7,483.4,298.3,489.9,294.6z"/>
<path class="st4" d="M518.5,308.5c1.4-1,2.4-2.4,2.4-3.7v-1c0-1-0.7-2.4-2.7-3.4c-3.7-2-7.5-1.7-12.3-0.7l-2,0.7l-5.1-3.1
	c1,0,2.4,0,4.4,0.7c0.7,0.3,1.4,0.3,2-0.3c0.3-0.3,1-1,1-1.4v-1c0-0.3-0.3-0.7-0.7-1c-1.4-0.7-5.4-1-9.9,1.7l-2.7-1.4l-1.7,1v1
	l1.7,1c-1.4,1-2.4,2.4-2.4,3.4v1c0,1,0.7,2.4,2.7,3.4c3.1,1.7,6.8,1.4,10.9,0.3l2.4-0.7l6.1,3.4c-1,0-2.7,0-5.4-0.7
	c-1-0.3-1.7-0.3-2.4,0.3c-0.3,0.3-1,1-0.7,1.4v1c0,0.3,0.3,1,1,1.4c1,0.7,5.1,1.4,10.9-1.7l3.4,2l1.7-1v-1L518.5,308.5z M496,301
	c-0.7-0.3-1-0.7-1-1c0-0.3,0.3-0.7,1-1l4.8,2.7C498.8,301.7,497.1,301.7,496,301z M504.9,310.6l0.3,0.3
	C504.9,310.9,504.9,310.6,504.9,310.6z M516.1,307.2l-5.4-3.1c2-0.3,3.7,0,5.4,1c0.7,0.3,1,0.7,1.4,1.4
	C517.1,306.5,516.8,306.8,516.1,307.2z"/>
<path class="st2" d="M517.8,308.2c3.1-1.7,5.4-5.1,0.7-7.8c-3.7-2-7.5-1.7-12.3-0.7l-2,0.7l-6.8-3.7c1-0.3,2.7-0.3,5.8,0.3
	c0.7,0.3,1.4,0.3,2-0.3c0.7-0.3,2-1.7,0.3-2.4c-1.4-0.7-5.4-1-9.9,1.7l-2.7-1.4l-1.7,1l2.7,1.4c-3.7,2.4-4.8,5.1-0.7,7.5
	c3.1,1.7,6.8,1.4,10.9,0.3l2.4-0.7l7.5,4.4c-0.7,0.3-2.7,0.7-6.8-0.3c-1-0.3-1.7-0.3-2.4,0.3c-0.7,0.3-1.4,2,0,2.7
	c1,0.7,5.1,1.4,10.9-1.7l3.4,2l1.7-1L517.8,308.2z M496,301c-1.7-1-1.7-2.4-0.3-3.4l6.1,3.4C499.8,301.7,497.4,301.7,496,301z
	 M516.1,307.2l-7.1-4.1c2.4-0.7,5.1-0.7,6.8,0.7C518.2,304.8,517.8,306.1,516.1,307.2z"/>
<linearGradient id="SVGID_15_" gradientUnits="userSpaceOnUse" x1="471.358" y1="215.7006" x2="522.767" y2="215.7006" gradientTransform="matrix(1 0 0 -1 0 586)">
	<stop  offset="0" style="stop-color:#D88000"/>
	<stop  offset="1" style="stop-color:#FFAC33"/>
</linearGradient>
<path class="st17" d="M471.5,362c0,2,0,4.1,0,5.8c0,5.4,5.1,10.6,15,13.3c7.1,2,14.3,2,21.4,0c9.9-2.7,15-8.2,15-13.3
	c0-2,0-4.1,0-5.8C522.6,356.5,471.5,356.9,471.5,362z"/>
<linearGradient id="SVGID_16_" gradientUnits="userSpaceOnUse" x1="471.992" y1="212.1035" x2="522.233" y2="212.1035" gradientTransform="matrix(1 0 0 -1 0 586)">
	<stop  offset="0" style="stop-color:#D88F25"/>
	<stop  offset="1" style="stop-color:#EBA136"/>
</linearGradient>
<path class="st18" d="M473.9,368.4v5.8c-0.7-1-1.4-2-1.7-3.1v-5.4C472.5,366.4,472.9,367.4,473.9,368.4z M486.8,375.9v5.8
	c0.7,0,1.4,0.3,1.7,0.3v-5.8C488.2,375.9,487.5,375.9,486.8,375.9z M494.3,377v5.8c0.7,0,1.4,0,1.7,0V377
	C495.7,377,495,377,494.3,377z M490.6,376.6v5.8c0.7,0,1.4,0.3,1.7,0.3V377C491.9,376.6,491.3,376.6,490.6,376.6z M475.6,370.5v5.4
	c0.7,0.3,1,1,1.7,1.4v-5.8C477,371.2,476.3,370.8,475.6,370.5z M483.1,374.6v5.4c0.7,0.3,1.4,0.3,1.7,0.7v-5.8
	C484.5,374.9,483.8,374.9,483.1,374.6z M479.4,372.9v5.4c0.7,0.3,1,0.7,1.7,1v-5.4C480.7,373.6,480,373.2,479.4,372.9z M498.1,377
	v5.8c0.7,0,1.4,0,1.7,0V377C499.4,377,498.8,377,498.1,377z M516.8,371.5v5.8c0.7-0.3,1.4-1,1.7-1.4v-5.4
	C518.2,370.8,517.5,371.2,516.8,371.5z M501.8,376.6v5.8c0.7,0,1.4,0,1.7-0.3v-5.8C503.2,376.6,502.5,376.6,501.8,376.6z
	 M520.5,368.1v5.8c0.7-1,1.4-2,1.7-3.4V365C521.9,366.1,521.2,367.1,520.5,368.1z M513.1,373.6v5.4c0.7-0.3,1.4-0.7,1.7-1v-5.4
	C514.1,373.2,513.7,373.2,513.1,373.6z M509.3,374.9v5.8c0.7-0.3,1.4-0.3,1.7-0.7v-5.4C510.3,374.6,510,374.9,509.3,374.9z
	 M505.6,375.9v5.8c0.7,0,1.4-0.3,1.7-0.3v-5.8C506.9,375.9,506.2,375.9,505.6,375.9z"/>
<path class="st2" d="M515.1,351.4c10.2,5.8,10.2,15,0,21.1c-9.9,5.8-26.2,5.8-36.4,0c-10.2-5.8-10.2-15,0-21.1
	C488.9,346,505.2,346,515.1,351.4z"/>
<path class="st3" d="M513.4,352.4c9.2,5.1,9.2,13.6,0,19.1c-9.2,5.4-23.8,5.4-33,0c-9.2-5.1-9.2-13.6,0-19.1
	C489.6,347.3,504.5,347.3,513.4,352.4z"/>
<path class="st4" d="M481.1,353.8c8.9-5.1,23.2-5.1,32.3,0c6.5,3.7,8.2,9.2,5.4,13.6c3.7-5.1,2-10.9-4.8-15c-9.2-5.1-23.8-5.1-33,0
	c-7.1,4.1-8.5,10.2-4.8,15C472.9,363,474.6,357.6,481.1,353.8z"/>
<path class="st4" d="M509.7,368.1c1.4-1,2.4-2.4,2.4-3.7v-1c0-1-0.7-2.4-2.7-3.4c-3.7-2-7.5-1.7-12.3-0.7l-2,0.7l-5.1-3.1
	c1,0,2.4,0,4.4,0.7c0.7,0.3,1.4,0.3,2-0.3c0.3-0.3,1-1,1-1.4v-1c0-0.3-0.3-0.7-0.7-1c-1.4-0.7-5.4-1-9.9,1.7l-2.7-1.4l-1.7,1v1
	l1.7,1c-1.4,1-2.4,2.4-2.4,3.4v1c0,1,0.7,2.4,2.7,3.4c3.1,1.7,6.8,1.4,10.9,0.3l2.4-0.7l6.1,3.4c-1,0-2.7,0-5.4-0.7
	c-1-0.3-1.7-0.3-2.4,0.3c-0.3,0.3-1,1-0.7,1.4v1c0,0.3,0.3,1,1,1.4c1,0.7,5.1,1.4,10.9-1.7l3.4,2l1.7-1v-1L509.7,368.1z
	 M486.8,360.3c-0.7-0.3-1-0.7-1-1c0-0.3,0.3-0.7,1-1l4.8,2.7C489.9,361,488.2,361,486.8,360.3z M495.7,369.8l0.3,0.3
	C496,370.2,496,369.8,495.7,369.8z M507.3,366.7l-5.4-3.1c2-0.3,3.7,0,5.4,1c0.7,0.3,1,0.7,1.4,1.4
	C508.3,365.7,508,366.4,507.3,366.7z"/>
<path class="st2" d="M508.6,367.4c3.1-1.7,5.4-5.1,0.7-7.8c-3.7-2-7.5-1.7-12.3-0.7l-2,0.7l-6.8-3.7c1-0.3,2.7-0.3,5.8,0.3
	c0.7,0.3,1.4,0.3,2-0.3c0.7-0.3,2-1.7,0.3-2.4c-1.4-0.7-5.4-1-9.9,1.7l-2.7-1.4l-1.7,1l2.7,1.4c-3.7,2.4-4.8,5.1-0.7,7.5
	c3.1,1.7,6.8,1.4,10.9,0.3l2.4-0.7l7.5,4.4c-0.7,0.3-2.7,0.7-6.8-0.3c-1-0.3-1.7-0.3-2.4,0.3c-0.7,0.3-1.4,2,0,2.7
	c1,0.7,5.1,1.4,10.9-1.7l3.4,2l1.7-1L508.6,367.4z M486.8,360.3c-1.7-1-1.7-2.4-0.3-3.4l6.1,3.4C490.6,361,488.5,361,486.8,360.3z
	 M507.3,366.7l-7.1-4.1c2.4-0.7,5.1-0.7,6.8,0.7C509,364.4,509,365.7,507.3,366.7z"/>
<linearGradient id="SVGID_17_" gradientUnits="userSpaceOnUse" x1="468.125" y1="222.5744" x2="519.533" y2="222.5744" gradientTransform="matrix(1 0 0 -1 0 586)">
	<stop  offset="0" style="stop-color:#D88000"/>
	<stop  offset="1" style="stop-color:#FFAC33"/>
</linearGradient>
<path class="st19" d="M468.1,355.2c0,2,0,4.1,0,5.8c0,5.4,5.1,10.6,15,13.3c7.1,2,14.3,2,21.4,0c9.9-2.7,15-8.2,15-13.3
	c0-2,0-4.1,0-5.8C519.2,349.7,468.1,349.7,468.1,355.2z"/>
<linearGradient id="SVGID_18_" gradientUnits="userSpaceOnUse" x1="468.709" y1="218.914" x2="518.95" y2="218.914" gradientTransform="matrix(1 0 0 -1 0 586)">
	<stop  offset="0" style="stop-color:#D88F25"/>
	<stop  offset="1" style="stop-color:#EBA136"/>
</linearGradient>
<path class="st20" d="M470.5,361.6v5.8c-0.7-1-1.4-2-1.7-3.1v-5.4C469.1,359.6,469.8,360.6,470.5,361.6z M483.8,368.8v5.8
	c0.7,0,1.4,0.3,1.7,0.3v-5.8C484.8,369.1,484.1,369.1,483.8,368.8z M490.9,369.8v5.8c0.7,0,1.4,0,1.7,0v-5.8
	C492.3,370.2,491.6,369.8,490.9,369.8z M487.5,369.5v5.8c0.7,0,1.4,0.3,1.7,0.3v-5.8C488.5,369.8,487.9,369.8,487.5,369.5z
	 M472.5,363.7v5.4c0.7,0.3,1,1,1.7,1.4v-5.8C473.6,364.4,472.9,364,472.5,363.7z M480,367.8v5.4c0.7,0.3,1.4,0.3,1.7,0.7v-5.8
	C481.1,368.1,480.4,368.1,480,367.8z M476.3,366.1v5.4c0.7,0.3,1,0.7,1.7,1v-5.4C477.3,366.7,476.6,366.4,476.3,366.1z M494.7,370.1
	v5.8c0.7,0,1.4,0,1.7,0v-5.8C496,369.8,495.4,370.1,494.7,370.1z M513.4,364.7v5.8c0.7-0.3,1.4-1,1.7-1.4v-5.4
	C514.8,363.7,514.1,364.4,513.4,364.7z M498.4,369.8v5.8c0.7,0,1.4,0,1.7-0.3v-5.8C499.8,369.5,499.1,369.8,498.4,369.8z
	 M517.1,361.3v5.8c0.7-1,1.4-2,1.7-3.4v-5.4C518.5,359.3,517.8,360.3,517.1,361.3z M509.7,366.7v5.4c0.7-0.3,1.4-0.7,1.7-1v-5.4
	C511,366.1,510.3,366.4,509.7,366.7z M505.9,368.1v5.8c0.7-0.3,1.4-0.3,1.7-0.7v-5.4C507.3,367.8,506.6,368.1,505.9,368.1z
	 M502.2,369.1v5.8c0.7,0,1.4-0.3,1.7-0.3v-5.8C503.5,368.8,502.8,369.1,502.2,369.1z"/>
<path class="st2" d="M512,344.6c10.2,5.8,10.2,15,0,21.1c-9.9,5.8-26.2,5.8-36.4,0c-10.2-5.8-10.2-15,0-21.1
	C485.5,339.2,501.8,338.8,512,344.6z"/>
<path class="st3" d="M493.7,368.8c13-0.1,23.5-6.2,23.4-13.7c0-7.5-10.6-13.6-23.5-13.5c-13,0.1-23.5,6.2-23.4,13.7
	C470.2,362.8,480.7,368.8,493.7,368.8z"/>
<path class="st4" d="M477.7,347c8.9-5.1,23.2-5.1,32.3,0c6.5,3.7,8.2,9.2,5.4,13.6c3.7-5.1,2-10.9-4.8-15c-9.2-5.1-23.8-5.1-33,0
	c-7.1,4.1-8.5,10.2-4.8,15C469.5,356.2,471.2,350.7,477.7,347z"/>
<path class="st4" d="M506.3,361c1.4-1,2.4-2.4,2.4-3.7v-1c0-1-0.7-2.4-2.7-3.4c-3.7-2-7.5-1.7-12.3-0.7l-2,0.7l-5.1-3.1
	c1,0,2.4,0,4.4,0.7c0.7,0.3,1.4,0.3,2-0.3c0.3-0.3,1-1,1-1.4v-1c0-0.3-0.3-0.7-0.7-1c-1.4-0.7-5.4-1-9.9,1.7l-2.7-1.4l-1.7,1v1
	l1.7,1c-1.4,1-2.4,2.4-2.4,3.4v1c0,1,0.7,2.4,2.7,3.4c3.1,1.7,6.8,1.4,10.9,0.3l2.4-0.7l6.1,3.4c-1,0-2.7,0-5.4-0.7
	c-1-0.3-1.7-0.3-2.4,0.3c-0.3,0.3-1,1-0.7,1.4v1c0,0.3,0.3,1,1,1.4c1,0.7,5.1,1.4,10.9-1.7l3.4,2l1.7-1v-1L506.3,361z M483.4,353.1
	c-0.7-0.3-1-0.7-1-1c0-0.3,0.3-0.7,1-1l4.8,2.7C486.5,354.1,484.8,354.1,483.4,353.1z M492.6,363l0.3,0.3
	C492.6,363,492.6,363,492.6,363z M503.9,359.6l-5.4-3.1c2-0.3,3.7,0,5.4,1c0.7,0.3,1,0.7,1.4,1.4
	C504.9,358.9,504.6,359.3,503.9,359.6z"/>
<path class="st2" d="M505.6,360.6c3.1-1.7,5.4-5.1,0.7-7.8c-3.7-2-7.5-1.7-12.3-0.7l-2,0.7l-6.8-3.7c1-0.3,2.7-0.3,5.8,0.3
	c0.7,0.3,1.4,0.3,2-0.3c0.7-0.3,2-1.7,0.3-2.4c-1.4-0.7-5.4-1-9.9,1.7l-2.7-1.4l-1.7,1l2.7,1.4c-3.7,2.4-4.8,5.1-0.7,7.5
	c3.1,1.7,6.8,1.4,10.9,0.3l2.4-0.7l7.5,4.4c-0.7,0.3-2.7,0.7-6.8-0.3c-1-0.3-1.7-0.3-2.4,0.3c-0.7,0.3-1.4,2,0,2.7
	c1,0.7,5.1,1.4,10.9-1.7l3.4,2l1.7-1L505.6,360.6z M483.4,353.1c-1.7-1-1.7-2.4-0.3-3.4l6.1,3.4
	C487.5,354.1,485.1,354.1,483.4,353.1z M503.9,359.6l-7.1-4.1c2.4-0.7,5.1-0.7,6.8,0.7C505.9,357.2,505.6,358.6,503.9,359.6z"/>
<linearGradient id="SVGID_19_" gradientUnits="userSpaceOnUse" x1="295.516" y1="68.5938" x2="346.924" y2="68.5938" gradientTransform="matrix(1 0 0 -1 0 586)">
	<stop  offset="0" style="stop-color:#D88000"/>
	<stop  offset="1" style="stop-color:#FFAC33"/>
</linearGradient>
<path class="st21" d="M295.5,509.1c0,2,0,4.1,0,5.8c0,5.4,5.1,10.6,15,13.3c7.1,2,14.3,2,21.4,0c9.9-2.7,15-8.2,15-13.3
	c0-2,0-4.1,0-5.8C346.6,503.6,295.5,504,295.5,509.1z"/>
<linearGradient id="SVGID_20_" gradientUnits="userSpaceOnUse" x1="296.193" y1="64.997" x2="346.434" y2="64.997" gradientTransform="matrix(1 0 0 -1 0 586)">
	<stop  offset="0" style="stop-color:#D88F25"/>
	<stop  offset="1" style="stop-color:#EBA136"/>
</linearGradient>
<path class="st22" d="M297.9,515.6v5.8c-0.7-1-1.4-2-1.7-3.1v-5.4C296.5,513.5,297.2,514.5,297.9,515.6z M311.2,522.7v5.8
	c0.7,0,1.4,0.3,1.7,0.3V523C312.2,523,311.5,523,311.2,522.7z M318.7,523.7v5.8c0.7,0,1.4,0,1.7,0v-5.8
	C319.7,524.1,319,524.1,318.7,523.7z M314.9,523.4v5.8c0.7,0,1.4,0.3,1.7,0.3v-5.8C315.9,523.7,315.3,523.7,314.9,523.4z
	 M299.9,517.6v5.4c0.7,0.3,1,1,1.7,1.4v-5.8C301,518.3,300.3,517.9,299.9,517.6z M307.4,521.7v5.4c0.7,0.3,1.4,0.3,1.7,0.7V522
	C308.5,522,307.8,522,307.4,521.7z M303.7,520v5.4c0.7,0.3,1,0.7,1.7,1V521C304.7,520.7,304.4,520.3,303.7,520z M322.4,524.1v5.8
	c0.7,0,1.4,0,1.7,0v-5.8C323.4,524.1,322.7,524.1,322.4,524.1z M340.8,518.6v5.8c0.7-0.3,1.4-1,1.7-1.4v-5.4
	C342.2,517.6,341.5,518.3,340.8,518.6z M326.2,523.7v5.8c0.7,0,1.4,0,1.7-0.3v-5.8C327.2,523.4,326.5,523.7,326.2,523.7z
	 M344.5,515.2v5.8c0.7-1,1.4-2,1.7-3.4v-5.4C345.9,513.2,345.2,514.2,344.5,515.2z M337,520.7v5.4c0.7-0.3,1.4-0.7,1.7-1v-5.4
	C338.4,520,337.7,520.3,337,520.7z M333.3,522v5.8c0.7-0.3,1.4-0.3,1.7-0.7v-5.4C334.7,521.7,334,522,333.3,522z M329.6,523v5.8
	c0.7,0,1.4-0.3,1.7-0.3v-5.8C330.9,522.7,330.2,523,329.6,523z"/>
<path class="st2" d="M339.4,498.5c10.2,5.8,10.2,15,0,21.1c-9.9,5.8-26.2,5.8-36.4,0c-10.2-5.8-10.2-15,0-21.1
	C312.9,493.1,329.2,492.7,339.4,498.5z"/>
<path class="st3" d="M337.7,499.5c9.2,5.1,9.2,13.6,0,19.1c-9.2,5.4-23.8,5.4-33,0c-9.2-5.1-9.2-13.6,0-19.1
	C313.9,494.4,328.5,494.4,337.7,499.5z"/>
<path class="st4" d="M305,500.9c8.9-5.1,23.2-5.1,32.3,0c6.5,3.7,8.2,9.2,5.4,13.6c3.7-5.1,2-10.9-4.8-15c-9.2-5.1-23.8-5.1-33,0
	c-7.1,4.1-8.5,10.2-4.8,15C296.9,510.1,298.6,504.7,305,500.9z"/>
<path class="st4" d="M333.6,514.9c1.4-1,2.4-2.4,2.4-3.7v-1c0-1-0.7-2.4-2.7-3.4c-3.7-2-7.5-1.7-12.3-0.7l-2,0.7l-5.1-3.1
	c1,0,2.4,0,4.4,0.7c0.7,0.3,1.4,0.3,2-0.3c0.3-0.3,1-1,1-1.4v-1c0-0.3-0.3-0.7-0.7-1c-1.4-0.7-5.4-1-9.9,1.7l-2.7-1.4l-1.7,1v1
	l1.7,1c-1.4,1-2.4,2.4-2.4,3.4v1c0,1,0.7,2.4,2.7,3.4c3.1,1.7,6.8,1.4,10.9,0.3l2.4-0.7l6.1,3.4c-1,0-2.7,0-5.4-0.7
	c-1-0.3-1.7-0.3-2.4,0.3c-0.3,0.3-1,1-0.7,1.4v1c0,0.3,0.3,1,1,1.4c1,0.7,5.1,1.4,10.9-1.7l3.4,2l1.7-1v-1L333.6,514.9z
	 M311.2,507.4c-0.7-0.3-1-0.7-1-1c0-0.3,0.3-0.7,1-1l4.8,2.7C313.9,508.1,312.2,508.1,311.2,507.4z M320,516.9l0.3,0.3
	C320,517.3,320,516.9,320,516.9z M331.3,513.5l-5.4-3.1c2-0.3,3.7,0,5.4,1c0.7,0.3,1,0.7,1.4,1.4
	C332.3,512.8,331.9,513.2,331.3,513.5z"/>
<path class="st2" d="M333,514.5c3.1-1.7,5.4-5.1,0.7-7.8c-3.7-2-7.5-1.7-12.3-0.7l-2,0.7l-6.8-3.7c1-0.3,2.7-0.3,5.8,0.3
	c0.7,0.3,1.4,0.3,2-0.3c0.7-0.3,2-1.7,0.3-2.4c-1.4-0.7-5.4-1-9.9,1.7l-2.7-1.4l-1.7,1l2.7,1.4c-3.7,2.4-4.8,5.1-0.7,7.5
	c3.1,1.7,6.8,1.4,10.9,0.3l2.4-0.7l7.5,4.4c-0.7,0.3-2.7,0.7-6.8-0.3c-1-0.3-1.7-0.3-2.4,0.3c-0.7,0.3-1.4,2,0,2.7
	c1,0.7,5.1,1.4,10.9-1.7l3.4,2l1.7-1L333,514.5z M311.2,507.4c-1.7-1-1.7-2.4-0.3-3.4l6.1,3.4C314.9,508.1,312.5,508.1,311.2,507.4z
	 M331.3,513.5l-7.1-4.1c2.4-0.7,5.1-0.7,6.8,0.7C333.3,511.1,333,512.5,331.3,513.5z"/>
</svg>
