<?xml version="1.0" encoding="utf-8"?>
<!-- Generator: Adobe Illustrator 21.1.0, SVG Export Plug-In . SVG Version: 6.00 Build 0)  -->
<svg version="1.1" id="Layer_1" xmlns="http://www.w3.org/2000/svg" xmlns:xlink="http://www.w3.org/1999/xlink" x="0px" y="0px"
	 viewBox="0 0 574 584" style="enable-background:new 0 0 574 584;" xml:space="preserve">
<style type="text/css">
	.st0{fill:#1E1B19;}
	.st1{fill:#F8F5F4;}
	.st2{fill:#2D2B29;}
	.st3{fill:#B7BBBC;}
	.st4{fill:#CFD2D3;}
	.st5{fill:#373431;}
	.st6{fill:#55E5B1;}
	.st7{fill:#78FFBE;}
	.st8{fill:#27B984;}
	.st9{fill:#D2CFCC;}
	.st10{fill:#E9E6E6;}
	.st11{fill:#86FFC5;}
	.st12{fill:#2DD890;}
	.st13{fill:#7BE1DB;}
	.st14{fill:#44BFE5;}
	.st15{fill:#97CC66;}
	.st16{fill:#FFB338;}
	.st17{fill:#E1E9F4;}
	.st18{fill:#5169CE;}
	.st19{fill:#788EFF;}
	.st20{fill:#252321;}
	.st21{fill:#3F474F;}
	.st22{fill:#F48914;}
</style>
<path class="st0" d="M461.7,73.2l-0.3,206L336,206.7L336.4,1L461.7,73.2z"/>
<path class="st1" d="M458.3,238.7V82.1L337.4,11.9l-0.3,196.1l90.6,52.4L458.3,238.7z"/>
<path class="st1" d="M456.2,240.4V83.1L335.4,12.9L335,209.1l90.9,52.4L456.2,240.4z"/>
<path class="st1" d="M454.2,241.8l0.3-157.7L333.3,14.3v196.1l90.9,52.4L454.2,241.8z"/>
<path class="st1" d="M452.5,243.1V85.5L331.3,15.3v196.1l90.9,52.4L452.5,243.1z"/>
<path class="st1" d="M450.4,244.5v-158L329.2,16.7v195.8l91.2,52.8L450.4,244.5z"/>
<path class="st1" d="M448.4,246.2V87.5L327.5,17.7l-0.3,196.1l91.2,52.4L448.4,246.2z"/>
<path class="st1" d="M417.1,267.3l29.3-19.8l0.3-158.7L325.5,18.7v196.1l91.2,52.8L417.1,267.3z"/>
<path class="st1" d="M417.1,267.3l27.6-18.4v-159L323.4,20.1v195.8l91.2,52.8L417.1,267.3z"/>
<path class="st1" d="M417.1,267.3l25.5-17V90.9L321.4,21.1v196.1L413,270L417.1,267.3z"/>
<path class="st1" d="M417.1,267.3l23.5-15.7V92.3L319.4,22.1v196.1l91.6,52.8L417.1,267.3z"/>
<path class="st1" d="M417.1,267.3l21.4-14.3V93.3L317.6,23.5l-0.3,195.8l91.6,53.1L417.1,267.3z"/>
<path class="st1" d="M417.1,267.3l19.4-12.9l0.3-160L315.6,24.5v196.1l91.6,52.8L417.1,267.3z"/>
<path class="st1" d="M417.1,267.3l17.7-11.6v-160L313.6,25.5v196.1l91.6,53.1L417.1,267.3z"/>
<path class="st1" d="M417.1,267.3l15.7-10.2V96.7L311.5,26.9v195.8l91.9,53.1L417.1,267.3z"/>
<path class="st0" d="M302,21.1v205.7L429,300l1-206L302,21.1z"/>
<path class="st2" d="M429,94.3V300l36.1-20.8V73.6L429,94.3z M449.1,245.9c-4.4,2.7-8.2,0.7-8.2-4.8c0-5.1,3.4-11.2,8.2-14
	c4.4-2.7,8.2-0.3,8.2,4.8C456.9,237.3,453.5,243.5,449.1,245.9z"/>
<path class="st1" d="M459.3,205l-23.8,13.6V107.9l23.8-13.6V205z"/>
<path class="st2" d="M450.1,246.2c-4.4,2.7-8.2,0.7-8.2-4.8c0-5.1,3.4-11.2,8.2-14c4.4-2.7,8.2-0.3,8.2,4.8
	C457.9,237.3,454.5,243.5,450.1,246.2z"/>
<path class="st3" d="M454.8,228.2l-1.4-0.7c1.4,0.7,2,2.4,2,4.4c0,4.4-3.1,9.9-7.1,12.3c-2,1-3.7,1.4-5.1,0.3l1.4,0.7
	c1.4,0.7,3.1,0.7,5.1-0.3c3.7-2.4,7.1-7.8,7.1-12.3C456.9,230.5,456.2,229.2,454.8,228.2z"/>
<path class="st3" d="M454.8,225.4c-1.7-1-3.7-0.7-6.1,0.7c-4.8,2.7-8.5,9.5-8.5,15c0,2.7,1,4.8,2.4,5.4l1.4,0.7
	c-1.7-1-2.4-2.7-2.4-5.4c0-5.4,3.7-12.3,8.5-15c2.4-1.4,4.4-1.4,6.1-0.7L454.8,225.4z"/>
<path class="st4" d="M450.1,226.8c-4.8,2.7-8.5,9.5-8.5,15c0,5.4,3.7,7.8,8.5,5.1c4.8-2.7,8.5-9.5,8.5-15
	C458.6,226.4,454.8,224.1,450.1,226.8z M450.1,244.8c-3.7,2.4-7.1,0.3-7.1-4.1c0-4.4,3.1-9.9,7.1-12.3c3.7-2.4,7.1-0.3,7.1,4.1
	C456.9,237.3,453.8,242.8,450.1,244.8z"/>
<path class="st5" d="M338.1,0l-1.7,1l125.3,72.2L429,92.3L303.7,20.1l-1.7,1l127,73.2l36.1-21.1L338.1,0z"/>
<path class="st6" d="M417.7,98.8l-0.3,205.7l-125.3-72.2l0.3-205.7L417.7,98.8z"/>
<path class="st1" d="M414.3,264.2v-157L293.1,37.5v195.8l90.6,52.4L414.3,264.2z"/>
<path class="st1" d="M412.3,265.6V108.3L291.4,38.5l-0.3,196.1l90.9,52.4L412.3,265.6z"/>
<path class="st1" d="M410.2,267.3l0.3-157.7L289.4,39.5v196.1l90.6,52.4L410.2,267.3z"/>
<path class="st1" d="M408.5,268.7v-158L287.3,40.9V237l90.9,52.4L408.5,268.7z"/>
<path class="st1" d="M406.5,270V111.7L285.3,41.9V238l91.2,52.4L406.5,270z"/>
<path class="st1" d="M404.5,271.4V113.1L283.3,42.9V239l91.2,52.8L404.5,271.4z"/>
<path class="st1" d="M372.8,292.9l29.6-20.1V114.1L281.6,44.3l-0.3,196.1L372.8,292.9z"/>
<path class="st1" d="M372.8,292.9l27.6-18.4l0.3-159.4L279.5,45.3v196.1l91.2,52.8L372.8,292.9z"/>
<path class="st1" d="M372.8,292.9l25.9-17V116.5L277.5,46.3v196.1l91.2,52.8L372.8,292.9z"/>
<path class="st1" d="M372.8,292.9l23.8-15.7V117.5L275.4,47.7v196.1l91.6,52.8L372.8,292.9z"/>
<path class="st1" d="M372.8,292.9l21.8-14.3v-160L273.7,48.7l-0.3,196.1l91.6,52.8L372.8,292.9z"/>
<path class="st1" d="M372.8,292.9l19.7-12.9v-160L271.7,49.7l-0.3,196.1l91.9,53.1L372.8,292.9z"/>
<path class="st1" d="M372.8,292.9l17.7-11.6l0.3-160.4L269.6,51.1v196.1l91.6,52.8L372.8,292.9z"/>
<path class="st1" d="M372.8,292.9l16-10.2V122.2L267.6,52.1v196.1l91.6,53.1L372.8,292.9z"/>
<path class="st6" d="M258.1,46.3V252l127,73.6l1-206.4L258.1,46.3z"/>
<path class="st7" d="M385.1,119.5v205.7l36.1-20.8V98.8L385.1,119.5z M405.1,271.4c-4.4,2.7-8.2,0.7-8.2-4.8s3.4-11.2,8.2-14
	c4.4-2.7,8.2-0.3,8.2,4.8C413,262.5,409.6,268.7,405.1,271.4z"/>
<path class="st1" d="M415.3,230.2l-23.8,14V133.5l23.8-14V230.2z"/>
<path class="st2" d="M406.2,271.4c-4.4,2.7-8.2,0.7-8.2-4.8c0-5.1,3.4-11.2,8.2-14c4.4-2.7,8.2-0.3,8.2,4.8
	C414,262.9,410.6,269,406.2,271.4z"/>
<path class="st3" d="M410.9,253.7l-1.4-0.7c1.4,0.7,2,2.4,2,4.4c0,4.4-3.1,9.9-7.1,12.3c-2,1-3.7,1.4-5.1,0.3l1.4,0.7
	c1.4,0.7,3.1,0.7,5.1-0.3c3.7-2.4,7.1-7.8,7.1-12.3C413,256.1,412.3,254.4,410.9,253.7z"/>
<path class="st3" d="M410.9,251c-1.7-1-3.7-0.7-6.1,0.7c-4.8,2.7-8.5,9.5-8.5,15c0,2.7,1,4.8,2.4,5.4l1.4,0.7
	c-1.7-1-2.4-2.7-2.4-5.4c0-5.4,3.7-12.3,8.5-15c2.4-1.4,4.4-1.4,6.1-0.7L410.9,251z"/>
<path class="st4" d="M406.2,252.3c-4.8,2.7-8.5,9.5-8.5,15c0,5.4,3.7,7.8,8.5,5.1c4.8-2.7,8.5-9.5,8.5-15
	C414.7,251.6,410.9,249.6,406.2,252.3z M406.2,270.4c-3.7,2.4-7.1,0.3-7.1-4.1c0-4.4,3.1-9.9,7.1-12.3c3.7-2.4,7.1-0.3,7.1,4.1
	C413,262.5,409.9,268,406.2,270.4z"/>
<path class="st8" d="M294.1,25.5l-1.7,1l125.3,72.2L385,117.8L259.8,45.3l-1.7,1l127,73.2l36.1-20.8L294.1,25.5z"/>
<path class="st9" d="M308.1,501.6L75.6,367.1V345l232.5,46V501.6z"/>
<path class="st10" d="M472.9,406.6l-164.8,95V390.9l164.8-6.5V406.6z"/>
<path class="st1" d="M472.9,384.5l-164.8,95L75.6,345l164.4-95L472.9,384.5z"/>
<path class="st11" d="M248.5,334.1l-3.1,0.3l1.7,1l-30.6,17.7l1.4,1l30.6-17.7l1.7,1l0.7-2l1-1.7L248.5,334.1z"/>
<path class="st12" d="M238.6,359.9l1-2l1.7,1l30.6-17.7l1.4,1l-30.3,17.7l1.4,1l-3.4,0.3l-3.1,0.3L238.6,359.9z"/>
<path class="st12" d="M197.5,373.6l1,2l1.4-1l24.5,14l1.7-0.7l-24.5-14.3l1.7-0.7l-3.4-0.7l-3.4-0.3L197.5,373.6z"/>
<path class="st11" d="M289.7,323.2l-3.1-0.3l1.7-1l-24.5-14.3l1.7-0.7l24.2,14l1.7-1l0.7,2l1,2L289.7,323.2z"/>
<path class="st11" d="M221.3,354.8l-52.8,30.6l-25.2-14.3l53.1-30.6L221.3,354.8z"/>
<path class="st11" d="M310.8,303.4l-53.1,30.6l-24.9-14.6l52.8-30.3L310.8,303.4z"/>
<path class="st12" d="M202.9,344.3l-6.5-3.7l-53.1,30.6l6.5,3.7L202.9,344.3z"/>
<path class="st12" d="M292.1,292.9l-6.5-3.7l-52.8,30.3l6.5,3.7L292.1,292.9z"/>
<path class="st11" d="M257.4,375.6l-53.1,30.6l-24.9-14.3l53.1-30.6L257.4,375.6z"/>
<path class="st11" d="M346.6,324.2l-52.8,30.6l-25.2-14.6l53.1-30.3L346.6,324.2z"/>
<path class="st12" d="M239,365l-6.5-3.7l-53.1,30.6l6.5,3.7L239,365z"/>
<path class="st12" d="M328.2,313.6l-6.5-3.7l-53.1,30.3l6.5,3.7L328.2,313.6z"/>
<path class="st13" d="M248.2,430.8l-0.7,0.3l-6.1-3.4l0.7-0.7L248.2,430.8z"/>
<path class="st13" d="M256.4,435.2l-1,0.3l-6.1-3.4l0.7-0.7L256.4,435.2z"/>
<path class="st13" d="M264.2,439.6l-1,0.7l-6.1-3.7l0.7-0.3L264.2,439.6z"/>
<path class="st13" d="M272,444.4l-1,0.3l-6.1-3.4l0.7-0.7L272,444.4z"/>
<path class="st13" d="M279.8,448.8l-1,0.3l-6.1-3.4l0.7-0.7L279.8,448.8z"/>
<path class="st13" d="M287.7,453.2l-1,0.7l-6.1-3.7l1-0.3L287.7,453.2z"/>
<path class="st14" d="M308.8,394.7l-59.2,34.4l-4.4-2.7l59.2-34.1L308.8,394.7z"/>
<path class="st11" d="M310.2,402.8l-52.8,30.6l-4.4-2.7l52.8-30.3L310.2,402.8z"/>
<path class="st11" d="M289.4,424l-24.2,14l-4.4-2.4l24.2-14L289.4,424z"/>
<path class="st15" d="M315.3,418.2L273,442.7l-4.4-2.7l42.2-24.5L315.3,418.2z"/>
<path class="st16" d="M320.4,424.3l-39.5,22.8l-4.4-2.7l39.5-22.8L320.4,424.3z"/>
<path class="st11" d="M320.4,433.5l-31.7,18l-4.4-2.4l31.7-18.4L320.4,433.5z"/>
<path class="st11" d="M291.4,421.2c1.1,0,2-0.5,2-1c0-0.6-0.9-1-2-1c-1.1,0-2,0.5-2,1C289.4,420.8,290.3,421.2,291.4,421.2z"/>
<path class="st15" d="M319,413.4c0.7,0.3,0.7,1,0,1.7c-0.7,0.3-2,0.3-2.7,0c-0.7-0.3-0.7-1,0-1.7C317,413.1,318,413.1,319,413.4z"/>
<path class="st16" d="M324.1,419.5c0.7,0.3,0.7,1,0,1.7c-0.7,0.3-2,0.3-2.7,0c-0.7-0.3-0.7-1,0-1.7
	C322.1,419.2,323.4,419.2,324.1,419.5z"/>
<path class="st14" d="M311.9,390.2c0.7,0.3,0.7,1,0,1.7c-0.7,0.3-2,0.3-2.7,0c-0.7-0.3-0.7-1,0-1.7
	C309.8,389.9,311.2,389.9,311.9,390.2z"/>
<path class="st11" d="M323.8,429.1c0.7,0.3,0.7,1,0,1.7c-0.7,0.3-2,0.3-2.7,0c-0.7-0.3-0.7-1,0-1.7S323.1,428.4,323.8,429.1z"/>
<path class="st11" d="M313.6,398.4c0.7,0.3,0.7,1,0,1.7c-0.7,0.3-2,0.3-2.7,0c-0.7-0.3-0.7-1,0-1.7
	C311.5,398.1,312.9,398.1,313.6,398.4z"/>
<path class="st13" d="M125.6,356.5l-1.4,1l-18.7-10.9l1.4-1L125.6,356.5z"/>
<path class="st12" d="M127.3,355.5l-1.7,1l-16.7-9.5l1.7-1L127.3,355.5z"/>
<path class="st13" d="M131.8,353.1l-1.7,0.7l-17.7-10.2l1.7-1L131.8,353.1z"/>
<path class="st12" d="M133.5,352.1l-1.7,1l-19.4-11.2l1.7-1L133.5,352.1z"/>
<path class="st13" d="M137.9,349.4l-1.7,1l-22.1-12.9l1.4-1L137.9,349.4z"/>
<path class="st12" d="M139.6,348.4l-1.7,1l-11.6-6.5l1.7-1L139.6,348.4z"/>
<path class="st13" d="M144,346l-1.7,0.7l-20.4-11.9l1.4-0.7L144,346z"/>
<path class="st12" d="M145.7,345l-1.7,1L125,335.1l1.7-1L145.7,345z"/>
<path class="st13" d="M162.4,335.4l-1.7,0.7l-21.1-11.9l1.7-1L162.4,335.4z"/>
<path class="st12" d="M163.8,334.4l-1.4,1l-13.3-7.8l1.7-0.7L163.8,334.4z"/>
<path class="st13" d="M168.5,331.7l-1.7,1l-17-9.9l1.7-0.7L168.5,331.7z"/>
<path class="st12" d="M169.9,331l-1.4,0.7l-14.3-8.2l1.7-0.7L169.9,331z"/>
<path class="st13" d="M174.7,328.3l-1.7,1L146.7,314l1.7-0.7L174.7,328.3z"/>
<path class="st12" d="M176,327.2l-1.4,1L151.5,315l1.7-1L176,327.2z"/>
<path class="st13" d="M180.8,324.9l-1.7,0.7l-23.8-13.6l1.7-1L180.8,324.9z"/>
<path class="st12" d="M182.1,323.8l-1.7,1L160,312.9l1.4-1L182.1,323.8z"/>
<path class="st13" d="M186.9,321.1l-1.7,1l-17-9.9l1.4-1L186.9,321.1z"/>
<path class="st12" d="M188.3,320.4l-1.7,0.7l-19.1-10.9l1.4-1L188.3,320.4z"/>
<path class="st13" d="M150.1,342.2l-1.7,1l-7.1-4.1l1.4-1L150.1,342.2z"/>
<path class="st12" d="M151.8,341.5l-1.7,1l-12.9-7.5l1.4-1L151.8,341.5z"/>
<path class="st13" d="M156.3,338.8l-1.7,1l-7.1-4.4l1.4-0.7L156.3,338.8z"/>
<path class="st12" d="M157.6,337.8l-1.4,1l-5.4-3.1l1.7-1L157.6,337.8z"/>
<path class="st13" d="M191.3,320.1l-68.1,39.2l-1.4-0.7l68.1-39.2L191.3,320.1z"/>
<path class="st13" d="M200.9,313.3l-1.7,0.7l-10.2-5.8l1.4-1L200.9,313.3z"/>
<path class="st12" d="M202.2,312.3l-1.4,1l-8.5-4.8l1.7-1L202.2,312.3z"/>
<path class="st13" d="M207,309.5l-1.7,1l-3.7-2.4l1.4-0.7L207,309.5z"/>
<path class="st12" d="M208.4,308.9l-1.7,0.7l-5.1-3.1l1.4-1L208.4,308.9z"/>
<path class="st13" d="M213.1,306.1l-1.7,0.7l-11.9-6.8l1.7-0.7L213.1,306.1z"/>
<path class="st12" d="M214.5,305.1l-1.7,1l-5.8-3.4l1.7-1L214.5,305.1z"/>
<path class="st13" d="M218.9,302.4l-1.4,1l-4.1-2.4l1.4-0.7L218.9,302.4z"/>
<path class="st12" d="M220.6,301.7l-1.7,1l-6.5-4.1l1.4-1L220.6,301.7z"/>
<path class="st13" d="M237.3,291.8l-1.4,1l-21.8-12.6l1.7-0.7L237.3,291.8z"/>
<path class="st12" d="M239,291.1l-1.7,0.7l-19.7-11.2l1.7-1L239,291.1z"/>
<path class="st13" d="M243.4,288.4l-1.4,1l-27.6-16l1.4-1L243.4,288.4z"/>
<path class="st12" d="M245.1,287.4l-1.7,1l-26.2-15l1.7-1L245.1,287.4z"/>
<path class="st13" d="M249.6,285l-1.4,0.7l-20.4-11.6l1.7-1L249.6,285z"/>
<path class="st12" d="M251.3,284l-1.7,1l-17.7-10.2l1.7-1L251.3,284z"/>
<path class="st13" d="M255.7,281.3l-1.4,1l-15.7-9.2l1.4-0.7L255.7,281.3z"/>
<path class="st12" d="M257.4,280.6l-1.7,0.7l-12.6-7.2l1.7-1L257.4,280.6z"/>
<path class="st13" d="M261.8,277.9l-1.4,1l-7.8-4.8l1.4-0.7L261.8,277.9z"/>
<path class="st12" d="M263.5,276.8l-1.7,1l-6.8-4.1l1.7-0.7L263.5,276.8z"/>
<path class="st13" d="M225,299l-1.4,1l-12.9-7.5l1.4-1L225,299z"/>
<path class="st12" d="M226.7,298l-1.7,1l-15-8.5l1.7-1L226.7,298z"/>
<path class="st13" d="M231.2,295.6l-1.4,0.7l-12.6-7.2l1.7-0.7L231.2,295.6z"/>
<path class="st12" d="M232.9,294.6l-1.7,1l-10.2-6.1l1.4-1L232.9,294.6z"/>
<path class="st13" d="M266.6,276.8L198.5,316l-1.4-0.7l67.8-39.5L266.6,276.8z"/>
<path class="st12" d="M377.9,351.4c-21.8-1.4-41.5,7.5-43.9,20.1s13.3,23.8,35.1,25.2s41.5-7.5,43.9-20.1S399.7,352.8,377.9,351.4z
	 M395.6,375.6c-1.4,7.2-12.3,12.3-24.5,11.2c-12.3-0.7-21.1-7.2-19.7-14.3c1.4-7.2,12.3-12.3,24.5-11.2
	C388.1,362.3,397,368.4,395.6,375.6z"/>
<path class="st12" d="M410.2,376.6c2.4-11.6-12.3-22.1-32.3-23.5c-20.1-1.4-38.5,7.2-40.9,18.7s12.3,22.1,32.3,23.5
	C389.5,396.7,407.9,388.2,410.2,376.6z M344.2,372.2c1.7-9.2,16.3-16,32.7-15c16,1,27.9,9.5,25.9,18.7c-1.7,9.2-16.3,16-32.7,15
	C354.1,389.9,342.5,381.4,344.2,372.2z"/>
<path class="st11" d="M375.2,357.2c0,0,5.1,0.3,6.5,0.7l2.4-4.1c-2-0.3-8.2-1-9.2-1c-4.8,0-11.2,0.7-15.7,1.7l3.1,4.1
	C366,357.6,371.4,357.2,375.2,357.2z"/>
<path class="st16" d="M345.6,369.1l0.3-0.3c2.7-4.4,8.5-8.2,15.7-10.2l-3.1-4.1c-9.2,2.4-16,6.1-20.1,12.3c0,0-2,3.7-1.4,4.4
	l7.5,0.3C344.5,370.8,345.2,370.2,345.6,369.1z"/>
<path class="st15" d="M402.8,372.2l7.5-0.3c-1-4.8-4.8-9.2-10.6-12.6l-1.4-0.7c-3.7-2-8.2-3.4-13.3-4.4l-2.4,4.1
	c3.7,0.7,7.5,2,10.2,3.4l2,1.4C395.6,363,401.4,366.4,402.8,372.2z"/>
<path class="st14" d="M380.3,395l-1.4-4.1c-2.7,0.3-5.8,0.3-8.5,0.3c-9.5-0.7-17.7-3.7-22.1-8.5l-1.4-1.7c-2-2.7-2.7-5.4-2.4-8.5
	l-7.5-0.3c-0.7,3.7,0.7,7.5,3.1,10.9l0.3,1l1.4,0.7c5.8,5.8,15.7,9.9,27.9,10.6C373.1,395.4,376.5,395.4,380.3,395z"/>
<path class="st12" d="M410.9,376.6c2.4-11.9-12.6-22.8-33.4-24.2c-20.8-1.4-39.5,7.2-41.9,19.1c-2.4,11.9,12.6,22.8,33.4,24.2
	C389.8,397.1,408.5,388.5,410.9,376.6z M337.1,371.9c2.4-11.6,20.4-20.1,40.9-18.7c20.1,1.4,34.7,11.9,32.3,23.5
	s-20.4,20.1-40.9,18.7S334.7,383.4,337.1,371.9z"/>
<path class="st12" d="M402.8,375.9c1.7-9.2-9.9-17.7-25.9-18.7c-16-1-30.6,5.8-32.7,15c-1.7,9.2,9.9,17.7,25.9,18.7
	C386.4,391.9,401.1,385.5,402.8,375.9z M345.2,372.2c1.7-9.2,16-15.7,31.7-14.6c15.7,1,26.9,9.2,25.2,18.4
	c-1.7,9.2-16,15.7-31.7,14.6C354.8,389.6,343.5,381.4,345.2,372.2z"/>
<path class="st11" d="M410.2,376.6c0.3-1.4,0.3-2.7,0-4.1l-7.1,0.3c0,1,0,2,0,3.1c-1.4,7.2-10.9,13.3-23.2,14.6l1.4,4.1
	C396.6,393,408.2,385.5,410.2,376.6z"/>
<path class="st12" d="M187.2,338.1l-50.4,28.9l-7.1-4.1l50.4-29.3L187.2,338.1z"/>
<path class="st16" d="M141.6,364.4l-4.8,2.7l-7.1-4.1l4.8-2.7L141.6,364.4z"/>
<path class="st12" d="M233.2,311.6l-50.4,28.9l-7.1-4.1l50.4-29.3L233.2,311.6z"/>
<path class="st15" d="M187.6,337.8l-4.8,2.7l-7.1-4.1l4.8-2.7L187.6,337.8z"/>
<path class="st12" d="M279.5,284.7L228.8,314l-7.1-4.1l50.4-29.3L279.5,284.7z"/>
<path class="st14" d="M233.5,311.2l-4.8,2.7l-7.1-4.1l4.8-2.7L233.5,311.2z"/>
<path class="st13" d="M300.6,459c1,0.7,1,1.4,0,2c-1,0.7-2.4,0.7-3.4,0c-1-0.7-1-1.4,0-2C298.2,458.7,299.6,458.7,300.6,459z"/>
<path class="st13" d="M308.5,463.8c1,0.7,1,1.4,0,2c-1,0.7-2.4,0.7-3.4,0c-1-0.7-1-1.4,0-2C306.1,463.1,307.8,463.1,308.5,463.8z"/>
<path class="st13" d="M378.9,414.1c1,0.7,1,1.4,0,2c-1,0.7-2.4,0.7-3.4,0s-1-1.4,0-2S377.9,413.4,378.9,414.1z"/>
<path class="st13" d="M386.8,418.5c1,0.7,1,1.4,0,2c-1,0.7-2.4,0.7-3.4,0s-1-1.4,0-2C384.4,418.2,386.1,418.2,386.8,418.5z"/>
<path class="st13" d="M342.8,436.9l4.8-2.7l-0.7-0.3l-4.8,2.7L342.8,436.9z M321.7,448.8l10.6-6.1l-0.7-0.3l-10.6,6.1L321.7,448.8z
	 M333.3,442.3l8.9-5.1l-0.7-0.3l-8.9,5.1L333.3,442.3z M321,449.5l-0.7-0.3l-15,8.5l0.7,0.3L321,449.5z M348.3,433.5l6.8-3.7
	l-0.7-0.3l-6.8,3.7L348.3,433.5z M303.7,456.6l5.1-2.7l-0.7-0.3l-5.1,2.7L303.7,456.6z M346.9,430.8l0.7,0.3l5.8-3.4l-0.7-0.3
	L346.9,430.8z M336,437.9l10.6-6.1l-0.7-0.3l-10.6,6.1L336,437.9z M330.6,441l4.8-2.7l-0.7-0.3l-4.8,2.7L330.6,441z M323.8,445.1
	l5.8-3.4l-0.7-0.3l-5.8,3.4L323.8,445.1z M309.5,453.2l13.6-7.8l-0.7-0.3l-13.6,7.8L309.5,453.2z"/>
<path class="st13" d="M337.7,444.7l0.7,0.3l8.9-5.1l-0.7-0.3L337.7,444.7z M337.4,445.7l-0.7-0.3l-10.6,6.1l0.7,0.3L337.4,445.7z
	 M339.4,446.8l0.7,0.3l5.8-3.4l-0.7-0.3L339.4,446.8z M345.9,442.7l0.7,0.3l4.8-2.7l-0.7-0.3L345.9,442.7z M362.2,433.5l-10.6,6.1
	l0.7,0.3l10.6-6.1L362.2,433.5z M324.8,455.6l-0.7-0.3l-11.2,6.5l0.7,0.3L324.8,455.6z M357.1,433.8l-9.5,5.4l0.7,0.3l9.5-5.4
	L357.1,433.8z M326.2,452.2l-0.7-0.3l-15,8.9l0.7,0.3L326.2,452.2z M357.8,433.1l0.7,0.3l5.8-3.4h-0.7L357.8,433.1z M339.1,447.5
	l-0.7-0.3l-13.6,7.8l0.7,0.3L339.1,447.5z"/>
<path class="st13" d="M400,403.5l10.6-6.1l-0.7-0.3l-10.6,6.1L400,403.5z M411.3,397.1l8.9-5.1l-0.7-0.3l-8.9,5.1L411.3,397.1z
	 M399,403.9l-0.7-0.3l-15,8.5l0.7,0.3L399,403.9z M382,411.4l4.8-2.7l-0.7-0.3l-4.8,2.7L382,411.4z M424.9,385.5l0.7,0.3l5.8-3.4
	l-0.7-0.3L424.9,385.5z M414.3,392.6l10.6-6.1l-0.7-0.3l-10.6,6.1L414.3,392.6z M408.5,395.7l4.8-2.7l-0.7-0.3l-4.8,2.7L408.5,395.7
	z M402.1,399.8l5.8-3.4l-0.7-0.3l-5.8,3.4L402.1,399.8z M387.8,407.9l13.6-7.8l-0.7-0.3l-13.6,7.8L387.8,407.9z"/>
<path class="st13" d="M422.5,396l0.7,0.3l8.9-5.1l-0.7-0.3L422.5,396z"/>
<path class="st13" d="M414.3,403.5l0.7,0.3l5.8-3.1l-0.7-0.7L414.3,403.5z"/>
<path class="st13" d="M421.8,396.7l-10.6,6.1l0.3,0.3l10.6-6.1L421.8,396.7z"/>
<path class="st13" d="M430.3,394.7l-9.2,5.1l0.7,0.3l8.9-5.1L430.3,394.7z"/>
<path class="st13" d="M410.9,403.5l-0.7-0.3l-21.1,12.3l0.7,0.3L410.9,403.5z"/>
<path class="st13" d="M432,390.6l0.7,0.3l4.8-2.7l-0.7-0.3L432,390.6z"/>
<path class="st13" d="M399.7,412.7l-0.3-0.3l-7.8,4.4l0.7,0.3L399.7,412.7z"/>
<path class="st13" d="M413.6,404.2L400,412l0.7,0.3l13.6-7.8L413.6,404.2z"/>
<path class="st13" d="M437.8,387.5l0.7,0.3l3.7-2.4l-0.7-0.3L437.8,387.5z"/>
<path class="st13" d="M279.5,399.4l-1-0.3l19.7-11.2l1,0.3L279.5,399.4z M274.1,402.2l-1-0.3l3.7-2l1,0.3L274.1,402.2z M251.3,415.4
	l-1-0.3l21.4-12.3l1,0.3L251.3,415.4z M235.9,424.3l-1-0.3l13.6-7.8l1,0.3L235.9,424.3z M282.9,390.6l19.7-11.2l1,0.3l-19.7,11.2
	L282.9,390.6z M304.4,378.3l8.5-4.8l1,0.3l-8.5,4.8L304.4,378.3z M278.5,394l-1-0.3l3.7-2l1,0.3L278.5,394z M255.7,407.3l-1-0.3
	l21.4-12.3l1,0.3L255.7,407.3z M230.8,421.6l-1-0.3l23.2-13.3l1,0.3L230.8,421.6z M356.8,343.2l-1-0.3l11.6-6.8l1,0.3L356.8,343.2z
	 M341.1,352.4l-1-0.3l14.3-8.2l1,0.3L341.1,352.4z M331.3,358.2l-1-0.3l8.2-4.8l1,0.3L331.3,358.2z M315.9,367.1l-1-0.3l14-8.2
	l1,0.3L315.9,367.1z M301.3,375.3l-1-0.3l12.6-7.5l1,0.3L301.3,375.3z M284.6,385.1l-1-0.3l15.3-8.9l1,0.3L284.6,385.1z
	 M267.9,394.7l-1-0.3l15-8.9l1,0.3L267.9,394.7z M246.8,406.9l-1-0.3l19.4-11.2l1,0.3L246.8,406.9z M226.1,418.8l-1-0.3l19.1-10.9
	l1,0.3L226.1,418.8z M331.9,352.4l-1-0.3l31.7-18.4l1,0.3L331.9,352.4z M315.9,361.3l-1-0.3l14.3-8.2l1,0.3L315.9,361.3z
	 M298.9,371.2l-1-0.3l15.3-8.9l1,0.3L298.9,371.2z M290.7,375.9l-1-0.3l6.8-3.7l1,0.3L290.7,375.9z M280.9,381.7l-1-0.3l8.5-4.8
	l1,0.3L280.9,381.7z M259.8,394l-1-0.3l19.7-11.2l1,0.3L259.8,394z M254.3,397.1l-1-0.3l3.7-2l1,0.3L254.3,397.1z M231.5,410.3
	l-1-0.3l21.4-12.3l1,0.3L231.5,410.3z M221.3,416.1l-1-0.3l8.5-4.8l1,0.3L221.3,416.1z M354.8,333.7l-1-0.3l4.1-2.4l1,0.3
	L354.8,333.7z M347.3,338.1l-1-0.3l6.1-3.4l1,0.3L347.3,338.1z M331.3,347l-1-0.3l14.3-8.2l1,0.3L331.3,347z M314.2,356.9l-1-0.3
	l15.3-8.9l1,0.3L314.2,356.9z M306.1,361.6l-1-0.3l6.8-3.7l1,0.3L306.1,361.6z M291.8,369.8l-1-0.3l12.6-7.5l1,0.3L291.8,369.8z
	 M275.1,379.7l-1-0.3l15.3-8.9l1,0.3L275.1,379.7z M258.1,389.2l-1-0.3l15-8.9l1,0.3L258.1,389.2z M237.3,401.5l-1-0.3l19.4-11.2
	l1,0.3L237.3,401.5z M216.5,413.4l-1-0.3l19.1-10.9l1,0.3L216.5,413.4z M327.5,343.6l-1-0.3l26.6-15.3l1,0.3L327.5,343.6z
	 M311.9,352.8l-1-0.3l14.3-8.2l1,0.3L311.9,352.8z M294.8,362.7l-1-0.3l15.3-8.9l1,0.3L294.8,362.7z M286.7,367.4l-1-0.3l6.8-3.7
	l1,0.3L286.7,367.4z M276.8,373.2l-1-0.3l8.5-4.8l1,0.3L276.8,373.2z M255.3,385.5l-1-0.3l19.7-11.2l1,0.3L255.3,385.5z
	 M250.2,388.5l-1-0.3l3.7-2l1,0.3L250.2,388.5z M227.1,401.8l-1-0.3l21.4-12.3l1,0.3L227.1,401.8z M211.8,410.7l-1-0.3l13.6-7.8
	l1,0.3L211.8,410.7z"/>
<path class="st17" d="M238.7,302.7l-7.8,4.4l-0.7-0.3l7.5-4.4L238.7,302.7z"/>
<path class="st17" d="M243.1,300.3l-3.4,1.7l-0.7-0.3l3.1-2L243.1,300.3z"/>
<path class="st17" d="M238.7,306.8l-4.1,2.4l-1-0.3l4.1-2.7L238.7,306.8z"/>
<path class="st17" d="M249.2,300.7l-9.5,5.4l-0.7-0.7l9.2-5.1L249.2,300.7z"/>
<path class="st17" d="M255.7,296.9l-5.4,3.1l-0.7-0.7l5.1-2.7L255.7,296.9z"/>
<path class="st17" d="M193,328.9l-7.8,4.4l-0.7-0.3l7.5-4.4L193,328.9z"/>
<path class="st17" d="M197.5,326.6l-3.4,1.7l-0.7-0.3l3.1-1.7L197.5,326.6z"/>
<path class="st17" d="M193,333l-4.1,2.4l-1-0.3l4.1-2.4L193,333z"/>
<path class="st17" d="M203.6,326.9l-9.5,5.4l-0.7-0.3l9.2-5.4L203.6,326.9z"/>
<path class="st17" d="M210.1,323.2l-5.1,3.1l-1-0.3l5.1-3.1L210.1,323.2z"/>
<path class="st17" d="M147.4,355.5l-7.5,4.4l-1-0.7l7.5-4.4L147.4,355.5z"/>
<path class="st17" d="M151.8,352.8l-3.1,2l-1-0.7l3.1-1.7L151.8,352.8z"/>
<path class="st17" d="M147.4,359.6l-4.1,2.4l-1-0.7l4.1-2.4L147.4,359.6z"/>
<path class="st17" d="M158,353.5l-9.2,5.1l-1-0.3l9.5-5.4L158,353.5z"/>
<path class="st17" d="M164.4,349.7l-5.1,2.7l-1-0.3l5.1-3.1L164.4,349.7z"/>
<path class="st17" d="M292.8,301l2.7-1.7l-0.7-0.3l-2.7,1.7L292.8,301z M269,315l11.9-6.8l-0.7-0.3l-11.9,6.8L269,315z M281.9,307.5
	l9.9-5.8l-0.7-0.3l-9.9,5.8L281.9,307.5z M267.9,315.3l-0.7-0.3l-17,9.9l0.7,0.3L267.9,315.3z M248.2,323.5l5.4-3.4l-0.7-0.3
	l-5.4,3.4L248.2,323.5z M285,302.4l7.8-4.4l-0.7-0.3l-7.8,4.4L285,302.4z M278.8,306.1l5.4-3.1l-0.7-0.3l-5.4,3.1L278.8,306.1z
	 M271,310.6l6.8-3.7l-0.7-0.3l-6.8,3.7L271,310.6z M255,319.8l15.3-8.9l-0.7-0.3l-15.3,8.9L255,319.8z"/>
<path class="st17" d="M297.5,300.7l0.7,0.3l-6.5,3.7l-0.7-0.3L297.5,300.7z M281.9,312.9l0.7,0.3l6.8-3.7l-0.7-0.3L281.9,312.9z
	 M290.1,305.1l-11.9,6.8l0.7,0.3l11.9-6.8L290.1,305.1z M295.5,305.1l-6.1,3.4l0.7,0.3l6.1-3.4L295.5,305.1z M277.8,312.9l-0.7-0.3
	l-24.2,14l0.7,0.3L277.8,312.9z M265.2,323.5l-0.7-0.3l-8.5,5.1l0.7,0.3L265.2,323.5z M280.9,313.6l-15.3,8.9l0.7,0.3l15.3-8.9
	L280.9,313.6z"/>
<path class="st17" d="M216.5,387.5l19.4-11.2l-0.7-0.3l-19.4,11.2L216.5,387.5z M215.8,387.9l-0.7-0.3l-17,9.9l0.7,0.3L215.8,387.9z
	 M196.1,396l5.4-3.4l-0.7-0.3l-5.4,3.4L196.1,396z M226.4,378.7l5.4-3.1l-0.7-0.3l-5.4,3.1L226.4,378.7z M218.9,383.1l6.8-3.7
	L225,379l-6.8,3.7L218.9,383.1z M202.6,392.3l15.3-8.9l-0.7-0.3l-15.3,8.9L202.6,392.3z"/>
<path class="st17" d="M224.7,388.5l0.7,0.3l8.2-4.8l-0.7-0.3L224.7,388.5z M233.5,380l-7.5,4.4l0.7,0.3l7.5-4.4L233.5,380z
	 M225.7,385.5l-0.7-0.3l-24.2,14l0.7,0.3L225.7,385.5z M213.1,395.7l-0.7-0.3l-8.5,5.1l0.7,0.3L213.1,395.7z M223.7,388.9l-10.2,5.8
	l0.7,0.3l10.2-5.8L223.7,388.9z"/>
<path class="st17" d="M315.6,326.2l0.7,0.3l9.5-5.4l-0.7-0.3L315.6,326.2z M315.6,327.2l-0.7-0.3l-12.6,7.2l0.7,0.3L315.6,327.2z
	 M308.8,333.4l0.7,0.3l6.8-3.7l-0.7-0.3L308.8,333.4z M316.6,328.9l0.7,0.3l13.3-7.8l-0.7-0.3L316.6,328.9z M300.3,339.2l-0.7-0.3
	l-12.9,7.5l0.7,0.3L300.3,339.2z M328.5,318.7l-2.7,1.4l0.7,0.3l2.7-1.4L328.5,318.7z M302,335.1l-0.7-0.3l-17,9.9l0.7,0.3
	L302,335.1z M308.8,334.4l-0.7-0.3l-7.5,4.1l0.7,0.3L308.8,334.4z"/>
<path class="st17" d="M310.8,339.2l11.9-6.8l-0.7-0.3l-11.9,6.8L310.8,339.2z M323.8,331.7l9.2-5.1l-0.7-0.3l-9.2,5.1L323.8,331.7z
	 M309.8,339.8l-0.7-0.3l-17,9.9l0.7,0.3L309.8,339.8z M290.4,348l5.4-3.4l-0.7-0.3l-5.4,3.4L290.4,348z M327.2,326.9l7.8-4.4
	l-0.7-0.3l-7.8,4.4L327.2,326.9z M320.7,330.3l5.4-3.1l-0.7-0.3L320,330L320.7,330.3z M313.2,334.7l6.8-3.7l-0.7-0.3l-6.8,3.7
	L313.2,334.7z M296.9,344.3l15.3-8.9l-0.7-0.3l-15.3,8.9L296.9,344.3z"/>
<path class="st17" d="M189.6,356.5l0.7,0.3l9.5-5.4l-0.7-0.3L189.6,356.5z M189.6,357.6l-0.7-0.3l-12.6,7.2l0.7,0.3L189.6,357.6z
	 M183.2,363.7l0.7,0.3l6.8-3.7l-0.7-0.3L183.2,363.7z M190.7,359.3l0.7,0.3l13.3-7.8l-0.7-0.3L190.7,359.3z M174.7,369.5l-0.7-0.3
	l-12.9,7.5l0.7,0.3L174.7,369.5z M202.6,349l-2.7,1.4l0.7,0.3l2.7-1.4L202.6,349z M176,365.4l-0.7-0.3l-17,9.9l0.7,0.3L176,365.4z
	 M182.8,364.7l-0.7-0.3l-7.5,4.1l0.7,0.3L182.8,364.7z"/>
<path class="st17" d="M184.9,369.8l11.9-6.8l-0.7-0.3l-11.9,6.8L184.9,369.8z M197.8,362.3l9.2-5.1l-0.7-0.3l-9.2,5.1L197.8,362.3z
	 M184.2,370.2l-0.7-0.3l-17,9.9l0.7,0.3L184.2,370.2z M164.4,378.3l5.4-3.4l-0.7-0.3l-5.4,3.4L164.4,378.3z M201.2,357.2l7.8-4.4
	l-0.7-0.3l-7.8,4.4L201.2,357.2z M194.7,361l5.4-3.1l-0.7-0.3l-5.4,3.1L194.7,361z M187.2,365l6.8-3.7l-0.7-0.3l-6.8,3.7L187.2,365z
	 M170.9,374.6l15.3-8.9l-0.7-0.3l-15.3,8.9L170.9,374.6z"/>
<path class="st11" d="M377.9,249.9l-5.8,0.7l3.1,1.7l-54.1,31.3l2.7,1.7l54.1-31.3l2.7,1.7l1.4-3.4l1.7-3.4L377.9,249.9z"/>
<path class="st12" d="M360.6,295.6l1.4-3.4l3.1,1.7l53.8-31.3l3.1,1.7l-54.1,31.3l2.7,1.4l-5.8,1l-5.8,1L360.6,295.6z"/>
<path class="st12" d="M287.4,319.8l1.7,3.4l2.7-1.7l43.2,24.9l2.7-1.7l-42.9-24.9l2.7-1.4l-5.8-1l-5.8-1L287.4,319.8z"/>
<path class="st11" d="M450.4,230.5l-5.8-0.7l3.1-1.7l-42.9-24.9l2.7-1.7l42.9,24.9l2.7-1.7l1.7,3.4l1.4,3.4L450.4,230.5z"/>
<path class="st11" d="M329.6,286.7l-93.6,54.1L192,315.3l93.6-54.1L329.6,286.7z"/>
<path class="st11" d="M487.2,195.8l-93.3,53.8l-44.3-25.2l93.6-54.1L487.2,195.8z"/>
<path class="st12" d="M296.9,268l-11.2-6.8L192,315.3l11.6,6.5L296.9,268z"/>
<path class="st12" d="M454.9,176.7l-11.6-6.5l-93.6,54.1l11.6,6.5L454.9,176.7z"/>
<path class="st11" d="M393.2,323.5l-93.6,54.1l-43.9-25.5L349,298L393.2,323.5z"/>
<path class="st11" d="M550.9,232.2l-93.6,54.1l-43.9-25.5l93.6-53.8L550.9,232.2z"/>
<path class="st12" d="M360.5,304.4L349,298l-93.3,54.1l11.2,6.5L360.5,304.4z"/>
<path class="st12" d="M518.2,213.5l-11.2-6.5l-93.6,53.8l11.2,6.8L518.2,213.5z"/>
<path class="st13" d="M160.7,289.4l-2.7,1.7l-33-19.1l2.7-1.7L160.7,289.4z"/>
<path class="st12" d="M163.4,287.7l-2.7,1.7l-29.6-17l2.7-1.7L163.4,287.7z"/>
<path class="st13" d="M171.3,283.3l-2.4,1.4l-31.7-18l2.7-1.4L171.3,283.3z"/>
<path class="st12" d="M174.3,281.6l-3.1,1.7l-34-19.8l3.1-1.7L174.3,281.6z"/>
<path class="st13" d="M182.2,277.2l-2.7,1.4l-39.5-22.8l2.7-1.7L182.2,277.2z"/>
<path class="st12" d="M185.2,275.5l-3.1,1.7l-20.1-11.9l2.7-1.7L185.2,275.5z"/>
<path class="st13" d="M193.1,270.7l-2.7,1.7l-36.4-21.1l2.7-1.7L193.1,270.7z"/>
<path class="st12" d="M195.8,269l-2.7,1.7l-33.4-19.1l2.7-1.7L195.8,269z"/>
<path class="st13" d="M225.4,252l-2.7,1.7l-37.1-21.5l2.7-1.7L225.4,252z"/>
<path class="st12" d="M228.1,250.6l-2.7,1.4l-23.5-13.3l3.1-1.7L228.1,250.6z"/>
<path class="st13" d="M236.3,245.9l-2.7,1.7l-30-17.4l2.7-1.7L236.3,245.9z"/>
<path class="st12" d="M239,244.2l-3.1,1.7l-24.9-14.3l3.1-1.7L239,244.2z"/>
<path class="st13" d="M246.8,239.7l-2.7,1.4l-46-26.6l2.7-1.7L246.8,239.7z"/>
<path class="st12" d="M249.9,238l-3.1,1.7l-40.5-23.5l3.1-1.7L249.9,238z"/>
<path class="st13" d="M257.7,233.3L255,235l-41.9-24.2l2.7-1.4L257.7,233.3z"/>
<path class="st12" d="M260.5,231.9l-2.7,1.7l-36.4-21.1l2.7-1.7L260.5,231.9z"/>
<path class="st13" d="M268.6,227.1l-2.7,1.7l-30.3-17.4l2.7-1.7L268.6,227.1z"/>
<path class="st12" d="M271.4,225.4l-2.7,1.7l-34.4-19.8l3.1-1.7L271.4,225.4z"/>
<path class="st13" d="M203.9,264.6l-2.7,1.7l-13.3-7.8l2.7-1.4L203.9,264.6z"/>
<path class="st12" d="M206.7,262.9l-3.1,1.7l-22.8-13.3l3.1-1.7L206.7,262.9z"/>
<path class="st13" d="M214.5,258.5l-2.7,1.4l-12.9-7.5l2.7-1.4L214.5,258.5z"/>
<path class="st12" d="M217.6,256.8l-3.1,1.7L205,253l3.1-1.7L217.6,256.8z"/>
<path class="st13" d="M276.5,225.1l-119.8,69.5l-2.4-1.4l119.8-69.5L276.5,225.1z"/>
<path class="st13" d="M293.1,212.8l-2.7,1.7l-18-10.6l2.7-1.7L293.1,212.8z"/>
<path class="st12" d="M296.2,211.1l-3.1,1.7l-14.6-8.5l2.7-1.4L296.2,211.1z"/>
<path class="st13" d="M304,206.7l-2.7,1.7l-6.8-4.1l2.7-1.7L304,206.7z"/>
<path class="st12" d="M306.8,205l-2.7,1.7l-9.5-5.4l2.7-1.7L306.8,205z"/>
<path class="st13" d="M314.9,200.6l-2.7,1.4L291.1,190l2.7-1.7L314.9,200.6z"/>
<path class="st12" d="M317.6,198.9l-3.1,1.7l-9.9-6.1l2.7-1.4L317.6,198.9z"/>
<path class="st13" d="M325.5,194.1l-2.7,1.7l-7.1-4.1l2.7-1.7L325.5,194.1z"/>
<path class="st12" d="M328.5,192.7l-3.1,1.7l-11.9-7.2l3.1-1.7L328.5,192.7z"/>
<path class="st13" d="M357.8,175.7l-2.4,1.4L317,154.9l2.7-1.4L357.8,175.7z"/>
<path class="st12" d="M360.9,174l-3.1,1.7l-34.7-20.1l3.1-1.7L360.9,174z"/>
<path class="st13" d="M368.7,169.2l-2.7,1.7l-48.7-28.3l2.7-1.4L368.7,169.2z"/>
<path class="st12" d="M371.4,167.5l-2.7,1.7l-46.3-26.6l2.7-1.7L371.4,167.5z"/>
<path class="st13" d="M379.6,163.1l-2.7,1.4L341.1,144l2.7-1.7L379.6,163.1z"/>
<path class="st12" d="M382.3,161.4l-2.7,1.7l-31.3-18l2.7-1.7L382.3,161.4z"/>
<path class="st13" d="M390.5,157l-2.7,1.4l-27.9-16l2.7-1.4L390.5,157z"/>
<path class="st12" d="M393.2,155.3l-3.1,1.7L368,144l2.7-1.7L393.2,155.3z"/>
<path class="st13" d="M401.1,150.5l-2.7,1.7l-13.6-7.8l2.7-1.7L401.1,150.5z"/>
<path class="st12" d="M404.1,149.1l-3.1,1.4l-12.3-6.8l3.1-1.7L404.1,149.1z"/>
<path class="st13" d="M336.4,188l-2.7,1.7l-22.8-13.3l2.7-1.7L336.4,188z"/>
<path class="st12" d="M339.1,186.3l-2.7,1.7l-26.6-15.3l2.7-1.7L339.1,186.3z"/>
<path class="st13" d="M347.3,181.8l-2.7,1.4l-22.1-12.6l2.7-1.7L347.3,181.8z"/>
<path class="st12" d="M350,180.1l-3.1,1.7l-18.4-10.6l3.1-1.7L350,180.1z"/>
<path class="st13" d="M409.2,148.5l-120.2,69.5l-2.4-1.4l120.2-69.5L409.2,148.5z"/>
<path class="st12" d="M269.6,256.8l-89.2,51.4l-12.6-7.2l88.9-51.4L269.6,256.8z"/>
<path class="st16" d="M188.6,303.4l-8.2,4.8l-12.6-7.2l8.2-4.8L188.6,303.4z"/>
<path class="st12" d="M350.7,209.8l-88.9,51.8l-12.9-7.5l89.2-51.4L350.7,209.8z"/>
<path class="st15" d="M270,256.8l-8.2,4.8l-12.9-7.5l8.5-4.8L270,256.8z"/>
<path class="st12" d="M432,163.1l-89.2,51.4l-12.6-7.5l89.2-51.4L432,163.1z"/>
<path class="st14" d="M351,209.8l-8.2,4.8l-12.6-7.5l8.2-4.8L351,209.8z"/>
<path class="st17" d="M359.9,194.8l-13.3,7.5l-1.4-0.7l13.3-7.8L359.9,194.8z"/>
<path class="st17" d="M367.7,190l-5.4,3.4l-1.4-1l5.4-3.1L367.7,190z"/>
<path class="st17" d="M359.9,201.6l-7.1,4.4l-1.4-1l7.1-4.1L359.9,201.6z"/>
<path class="st17" d="M378.6,191l-16.3,9.5l-1.4-1l16.3-9.5L378.6,191z"/>
<path class="st17" d="M390.2,184.2l-9.2,5.4l-1.4-1l8.9-5.1L390.2,184.2z"/>
<path class="st17" d="M279.5,241.1l-13.3,7.8l-1.7-1l13.6-7.5L279.5,241.1z"/>
<path class="st17" d="M287.3,236.7l-5.8,3.1l-1.4-0.7l5.8-3.4L287.3,236.7z"/>
<path class="st17" d="M279.5,248.2l-7.5,4.1l-1.4-0.7l7.5-4.4L279.5,248.2z"/>
<path class="st17" d="M298.2,237.3l-16.7,9.5l-1.4-0.7l16.7-9.5L298.2,237.3z"/>
<path class="st17" d="M309.5,230.9l-9.2,5.1l-1.4-0.7l9.2-5.4L309.5,230.9z"/>
<path class="st17" d="M198.8,287.7l-13.3,7.5l-1.4-0.7l13.3-7.8L198.8,287.7z"/>
<path class="st17" d="M206.7,283l-5.4,3.4l-1.4-1l5.4-3.1L206.7,283z"/>
<path class="st17" d="M198.8,294.6l-7.1,4.4l-1.4-1l7.1-4.1L198.8,294.6z"/>
<path class="st17" d="M217.6,284l-16.3,9.5l-1.4-1l16.3-9.5L217.6,284z"/>
<path class="st17" d="M229.1,277.2l-9.2,5.4l-1.4-1l8.9-5.1L229.1,277.2z"/>
<path class="st17" d="M455.9,191.7l4.8-2.7l-1.4-0.7l-4.8,2.7L455.9,191.7z M413.7,216.2l21.1-12.3l-1.4-0.7l-21.1,12.3L413.7,216.2
	z M436.5,203l17.7-10.2l-1.4-0.7l-17.7,10.2L436.5,203z M412,216.9l-1.4-0.7l-30,17.4l1.4,0.7L412,216.9z M377.2,231.6l9.9-5.8
	l-1.4-0.7l-9.9,5.8L377.2,231.6z M442.3,194.1l13.6-7.8l-1.4-0.7l-13.6,7.8L442.3,194.1z M431,200.6l9.5-5.4l-1.4-0.7l-9.5,5.4
	L431,200.6z M417.4,208.1l11.9-6.8l-1.4-0.7l-11.9,6.8L417.4,208.1z M388.8,224.7l27.2-15.7l-1.4-0.7l-27.2,15.7L388.8,224.7z"/>
<path class="st17" d="M464,191l1.4,0.7l-11.6,6.5l-1.4-0.7L464,191z M436.5,212.8l1.4,0.7l11.9-6.8l-1.4-0.7L436.5,212.8z
	 M451.1,198.5L430,210.8l1.4,0.7l21.1-12.3L451.1,198.5z M460.6,198.9l-10.9,6.1l1.4,0.7l10.9-6.1L460.6,198.9z M429.3,212.5
	l-1.4-0.7l-42.6,24.5l1.4,0.7L429.3,212.5z M407.2,230.9l-1.4-0.7l-15.3,8.9l1.4,0.7L407.2,230.9z M434.8,213.9l-27.2,15.7l1.4,0.7
	l27.2-15.7L434.8,213.9z"/>
<path class="st17" d="M321.4,343.9l34.4-19.8l-1.4-0.7L320,343.2L321.4,343.9z M319.7,345l-1.4-0.7l-30,17.4l1.4,0.7L319.7,345z
	 M285,359.3l9.9-5.8l-1.4-0.7l-9.9,5.8L285,359.3z M338.8,328.3l9.5-5.4l-1.4-0.7l-9.5,5.4L338.8,328.3z M325.5,336.1l11.9-6.8
	l-1.4-0.7l-11.9,6.8L325.5,336.1z M296.5,352.8l27.2-15.7l-1.4-0.7l-27.2,15.7L296.5,352.8z"/>
<path class="st17" d="M335.4,346l1.4,0.7l14.3-8.2l-1.4-0.7L335.4,346z M351,331l-13.3,7.8l1.4,0.7l13.3-7.8L351,331z M337.4,340.5
	l-1.4-0.7l-42.6,24.5l1.4,0.7L337.4,340.5z M314.9,358.9l-1.4-0.7l-15.3,8.9l1.4,0.7L314.9,358.9z M333.7,346.7l-18,10.6l1.4,0.7
	l18-10.6L333.7,346.7z"/>
<path class="st17" d="M496.1,236l1.4,0.7l16.7-9.5l-1.4-0.7L496.1,236z M495.7,237.7l-1.4-0.7l-22.5,12.9l1.4,0.7L495.7,237.7z
	 M484.1,248.6l1.4,0.7l11.9-6.8l-1.4-0.7L484.1,248.6z M497.8,240.8l1.4,0.7l23.5-13.6l-1.4-0.7L497.8,240.8z M469.2,258.8l-1.4-0.7
	L445,271.4l1.4,0.7L469.2,258.8z M518.9,223l-4.4,2.7l1.4,0.7l4.4-2.7L518.9,223z M471.9,251.6l-1.4-0.7l-30.3,17.4l1.4,0.7
	L471.9,251.6z M483.8,250.3l-1.4-0.7l-12.9,7.5l1.4,0.7L483.8,250.3z"/>
<path class="st17" d="M487.9,259.1l21.1-12.3l-1.4-0.7l-21.1,12.3L487.9,259.1z M510.7,245.9l16-9.2l-1.4-0.7l-16,9.2L510.7,245.9z
	 M486.2,260.2l-1.4-0.7l-30,17.4l1.4,0.7L486.2,260.2z M451.5,274.5l9.9-5.8L460,268l-9.9,5.8L451.5,274.5z M516.1,237l13.6-7.8
	l-1.4-0.7l-13.6,7.8L516.1,237z M505.2,243.5l9.5-5.4l-1.4-0.7l-9.5,5.4L505.2,243.5z M491.6,251.3l11.9-6.8l-1.4-0.7l-11.9,6.8
	L491.6,251.3z M463,267.7l27.2-15.7l-1.4-0.7L461.7,267L463,267.7z"/>
<path class="st17" d="M273.7,289.8l1.4,0.7l16.7-9.5l-1.4-0.7L273.7,289.8z M273.4,291.5l-1.4-0.7l-22.5,12.9l1.4,0.7L273.4,291.5z
	 M261.8,302.4l1.4,0.7l11.9-6.8l-1.4-0.7L261.8,302.4z M275.4,294.6l1.4,0.7l23.5-13.6l-1.4-0.7L275.4,294.6z M246.8,312.3l-1.4-0.7
	l-22.8,13.3l1.4,0.7L246.8,312.3z M296.6,276.5l-4.4,2.7l1.4,0.7l4.4-2.7L296.6,276.5z M249.6,305.1l-1.4-0.7l-30.3,17.4l1.4,0.7
	L249.6,305.1z M261.5,303.7l-1.4-0.7l-12.9,7.5l1.4,0.7L261.5,303.7z"/>
<path class="st17" d="M265.6,312.6l21.1-12.3l-1.4-0.7l-21.1,12.3L265.6,312.6z M288.4,299.7l16-9.2l-1.4-0.7l-16,9.2L288.4,299.7z
	 M263.9,313.6l-1.4-0.7l-30,17.4l1.4,0.7L263.9,313.6z M229.1,328.3l9.9-5.8l-1.4-0.7l-9.9,5.8L229.1,328.3z M293.8,290.8l13.6-7.8
	l-1.4-0.7l-13.6,7.8L293.8,290.8z M282.9,296.9l9.5-5.4l-1.4-0.7l-9.5,5.4L282.9,296.9z M269.3,304.8l11.9-6.8l-1.4-0.7l-11.9,6.8
	L269.3,304.8z M240.7,321.5l27.2-15.7l-1.4-0.7l-27.2,15.7L240.7,321.5z"/>
<path class="st18" d="M123.9,429.4v-5.1l-19.1-11.2v5.1c0,1,0.3,2,1,2.4l19.1,11.2C124.6,431.4,123.9,430.4,123.9,429.4z"/>
<path class="st19" d="M128.4,396.7c-0.7-0.3-1.7-0.3-2.4,0.3l-17.4,10.2l19.1,11.2l17.4-10.2c1-0.7,2-0.7,2.4-0.3L128.4,396.7z"/>
<path class="st19" d="M123.9,424.3l-19.1-11.2c0-2.4,1.7-5.1,3.4-6.1l19.1,11.2C125.6,419.5,123.9,422.3,123.9,424.3z"/>
<path class="st20" d="M145,408.3c2-1,3.4-0.3,3.4,2v5.1c0,2.4-1.7,5.1-3.4,6.1l-17.4,10.2c-2,1-3.4,0.3-3.4-2v-5.1
	c0-2.4,1.7-5.1,3.4-6.1L145,408.3z"/>
<path class="st5" d="M225.4,452.2l-90.6-52.4c1-0.7,2-0.7,3.1-0.3l90.6,52.4C227.4,451.5,226.4,451.5,225.4,452.2z"/>
<path class="st0" d="M201.2,476.7v-5.8l-90.6-52.4v5.8c0,1.4,0.3,2,1,2.7l90.6,52.4C201.5,478.8,201.2,477.8,201.2,476.7z"/>
<path class="st2" d="M205.3,463.8l-90.6-52.4l20.1-11.6l90.6,52.4L205.3,463.8z"/>
<path class="st5" d="M201.2,470.6l-90.6-52.4c0-2.7,1.7-5.8,4.1-7.2l90.6,52.4C202.9,465.2,201.2,468.2,201.2,470.6z"/>
<path class="st20" d="M225.4,452.2c2.4-1.4,4.1-0.3,4.1,2.4v5.8c0,2.7-1.7,5.8-4.1,7.2l-20.1,11.6c-2.4,1.4-4.1,0.3-4.1-2.4v-5.8
	c0-2.7,1.7-5.8,4.1-7.2L225.4,452.2z"/>
<path class="st0" d="M227.1,455.6c-0.7-0.3-1.4-0.3-2,0.3l-17,9.9c-1.7,1-3.1,3.1-3.1,5.1v4.1c0,1,0.3,1.7,1,2l23.8,4.8
	c0,0,1,0.3,2-0.3l4.1-2.4c1.7-1,2-7.8,2-7.8L227.1,455.6z"/>
<path class="st5" d="M246.1,476.7l-11.6-6.8c0.7-0.3,1-0.3,1.4,0l11.6,6.8C247.2,476.4,246.8,476.4,246.1,476.7z"/>
<path class="st0" d="M239.3,486.3v-3.1l-11.6-6.8v3.1c0,0.7,0.3,1,0.7,1.4l11.6,6.8C239.3,487.6,239.3,487,239.3,486.3z"/>
<path class="st2" d="M241.4,479.5l-11.6-6.8l4.8-2.7l11.6,6.8L241.4,479.5z"/>
<path class="st5" d="M239.3,483.2l-11.6-6.8c0-1.4,1-3.1,2-3.7l11.6,6.8C240,480.1,239.3,481.8,239.3,483.2z"/>
<path class="st20" d="M246.1,476.7c1-0.7,2,0,2,1.4v3.1c0,1.4-1,3.1-2,3.7l-4.8,2.7c-1,0.7-2,0-2-1.4v-3.1c0-1.4,1-3.1,2-3.7
	L246.1,476.7z"/>
<path class="st19" d="M246.8,478.4l-5.8,3.4v4.1l6.8,4.1c0.3,0.3,1,0,1-0.3l1.4-4.8c0,0,0-0.3,0-0.7v-3.1c0-0.3-0.3-1-0.7-1
	L246.8,478.4z"/>
<path class="st21" d="M151.8,424.3l-22.1-12.6l6.8-4.1l22.1,12.9L151.8,424.3z"/>
<path class="st21" d="M165.1,428l2.7,1.4l-0.7,0.3l-2.7-1.4L165.1,428z M162.7,429.7l0.7-0.3l-2-1.4l-1.4-0.7l-0.7,0.3l1.4,0.7
	L162.7,429.7z M159,426.7l-3.4-2l-0.7,0.3l3.4,2L159,426.7z M162.1,427l1.4,0.7l0.7-0.3l-2.4-1.4l-4.1-2.4L157,424L162.1,427z
	 M160.4,423.3l3.4,2l0.7-0.3l-3.4-2l-1-0.7l-0.7,0.3L160.4,423.3z M166.8,427.4l1,0.7l0.7-0.3l-1.4-0.7l-2-1l-0.7,0.3L166.8,427.4z
	 M176.4,432.1l-1.4-1l-0.7,0.3l1.4,1L176.4,432.1z M174,430.8l-1.4-0.7l-0.7,0.3l1.4,0.7L174,430.8z M174.3,433.1l-2.4-1.4l-0.7,0.3
	l2.4,1.4L174.3,433.1z M168.5,432.5l-1-0.7l-0.7,0.3l1,0.7L168.5,432.5z M169.5,432.8l-0.7,0.3l2.7,1.7l0.7-0.3L169.5,432.8z"/>
<path class="st22" d="M69.4,435.9v-5.1l-19.1-11.2v5.1c0,1,0.3,2,1,2.4l19.1,11.2C69.8,437.9,69.4,436.9,69.4,435.9z"/>
<path class="st16" d="M73.5,403.2c-0.7-0.3-1.7-0.3-2.4,0.3l-17.4,10.2L72.8,425l17.4-10.2c1-0.7,2-0.7,2.4-0.3L73.5,403.2z"/>
<path class="st16" d="M69.4,430.8l-19.1-11.2c0-2.4,1.7-5.1,3.4-6.1l19.1,11.2C70.8,426,69.4,428.7,69.4,430.8z"/>
<path class="st20" d="M90.2,414.8c2-1,3.4-0.3,3.4,2v5.1c0,2.4-1.7,5.1-3.4,6.1l-17.4,10.2c-2,1-3.4,0.3-3.4-2v-5.1
	c0-2.4,1.7-5.1,3.4-6.1L90.2,414.8z"/>
<path class="st5" d="M170.6,458.7l-90.2-52.4c1-0.7,2-0.7,3.1-0.3l90.6,52.4C172.9,458,171.9,458,170.6,458.7z"/>
<path class="st0" d="M146.4,483.2v-5.8L55.8,425v5.8c0,1.4,0.3,2,1,2.7l90.6,52.4C147.1,485.2,146.4,484.2,146.4,483.2z"/>
<path class="st2" d="M150.5,470.3l-90.6-52.4l20.4-11.6l90.2,52.4L150.5,470.3z"/>
<path class="st5" d="M146.4,477.1l-90.6-52.4c0-2.7,1.7-5.8,4.1-7.2l90.6,52.4C148.4,471.6,146.4,474.7,146.4,477.1z"/>
<path class="st20" d="M170.6,458.7c2.4-1.4,4.1-0.3,4.1,2.4v5.8c0,2.7-1.7,5.8-4.1,7.2l-20.1,11.6c-2.4,1.4-4.1,0.3-4.1-2.4v-5.8
	c0-2.7,1.7-5.8,4.1-7.2L170.6,458.7z"/>
<path class="st0" d="M172.3,462.1c-0.7-0.3-1.4-0.3-2,0.3l-17,9.9c-1.7,1-3.1,3.1-3.1,5.1v4.1c0,1,0.3,1.7,1,2l23.8,4.8
	c0,0,1,0.3,2-0.3l4.1-2.4c1.7-1,2-7.8,2-7.8L172.3,462.1z"/>
<path class="st5" d="M191.3,483.2l-11.6-6.8c0.7-0.3,1-0.3,1.4,0l11.6,6.8C192.4,482.9,192,482.9,191.3,483.2z"/>
<path class="st0" d="M184.5,492.7v-3.1l-11.6-6.8v3.1c0,0.7,0.3,1,0.7,1.4l11.6,6.8C184.9,494.1,184.5,493.4,184.5,492.7z"/>
<path class="st2" d="M186.6,485.9l-11.6-6.8l4.8-2.7l11.6,6.8L186.6,485.9z"/>
<path class="st5" d="M184.5,489.7l-11.6-6.8c0-1.4,1-3.1,2-3.7l11.6,6.8C185.5,486.6,184.5,488.3,184.5,489.7z"/>
<path class="st20" d="M191.3,483.2c1-0.7,2,0,2,1.4v3.1c0,1.4-1,3.1-2,3.7l-4.8,2.7c-1,0.7-2,0-2-1.4v-3.1c0-1.4,1-3.1,2-3.7
	L191.3,483.2z"/>
<path class="st16" d="M192,484.9l-5.8,3.4v4.1l6.8,4.1c0.3,0.3,1,0,1-0.3l1.4-4.8c0,0,0-0.3,0-0.7v-3.1c0-0.3-0.3-1-0.7-1L192,484.9
	z"/>
<path class="st21" d="M97,430.8l-22.1-12.6l6.8-4.1l22.1,12.9L97,430.8z"/>
<path class="st21" d="M110.3,434.5l2.7,1.4l-0.7,0.3l-2.7-1.4L110.3,434.5z M107.9,436.2l0.7-0.3l-2-1l-1.4-0.7l-0.7,0.3l1.4,0.7
	L107.9,436.2z M104.2,433.1l-3.4-2l-0.7,0.3l3.4,2L104.2,433.1z M107.6,433.5l1.4,0.7l0.7-0.3l-2.4-1.4l-4.1-2.4l-0.7,0.3
	L107.6,433.5z M105.5,429.7l3.4,2l0.7-0.3l-3.4-2l-1-0.7l-0.7,0.3L105.5,429.7z M112.3,433.8l1,0.7l0.7-0.3l-1.4-0.7l-2-1l-0.7,0.3
	L112.3,433.8z M121.5,438.6l-1.4-1l-0.7,0.3l1.4,1L121.5,438.6z M119.2,437.2l-1.4-0.7l-0.7,0.3l1.4,0.7L119.2,437.2z M119.5,439.6
	l-2.4-1.4l-0.7,0.3l2.4,1.4L119.5,439.6z M113.7,438.9l-1-0.7l-0.7,0.3l1,0.7L113.7,438.9z M114.7,439.3l-0.7,0.3l2.7,1.7l0.7-0.3
	L114.7,439.3z"/>
</svg>
