<?xml version="1.0" encoding="utf-8"?>
<!-- Generator: Adobe Illustrator 21.1.0, SVG Export Plug-In . SVG Version: 6.00 Build 0)  -->
<svg version="1.1" id="Layer_1" xmlns="http://www.w3.org/2000/svg" xmlns:xlink="http://www.w3.org/1999/xlink" x="0px" y="0px"
	 viewBox="0 0 574 584" style="enable-background:new 0 0 574 584;" xml:space="preserve">
<style type="text/css">
	.st0{opacity:0.6;fill:#3DB2AB;enable-background:new    ;}
	.st1{fill:#62DDD6;}
	.st2{display:none;opacity:0.5;}
	.st3{display:inline;fill:#198780;}
	.st4{display:none;fill:url(#SVGID_1_);}
	.st5{display:none;opacity:0.2;fill:url(#SVGID_2_);enable-background:new    ;}
	.st6{display:none;fill:#FFDC4A;}
	.st7{display:none;opacity:0.4;fill:#FFB32C;enable-background:new    ;}
	.st8{display:none;fill:#F7A328;}
	.st9{display:none;fill:url(#SVGID_3_);}
	.st10{display:none;opacity:0.2;fill:url(#SVGID_4_);enable-background:new    ;}
	.st11{display:none;fill:url(#SVGID_5_);}
	.st12{display:none;opacity:0.2;fill:url(#SVGID_6_);enable-background:new    ;}
	.st13{display:none;fill:#1E1B19;}
	.st14{display:none;fill:#F8F5F4;}
	.st15{display:none;fill:#2D2B29;}
	.st16{display:none;fill:#B7BBBC;}
	.st17{display:none;fill:#CFD2D3;}
	.st18{display:none;fill:#373431;}
	.st19{display:none;fill:#55E5B1;}
	.st20{display:none;fill:#78FFBE;}
	.st21{display:none;fill:#27B984;}
	.st22{display:none;fill:url(#SVGID_7_);}
	.st23{display:none;opacity:0.2;fill:url(#SVGID_8_);enable-background:new    ;}
	.st24{display:none;fill:url(#SVGID_9_);}
	.st25{display:none;opacity:0.2;fill:url(#SVGID_10_);enable-background:new    ;}
	.st26{display:none;fill:url(#SVGID_11_);}
	.st27{display:none;opacity:0.2;fill:url(#SVGID_12_);enable-background:new    ;}
	.st28{display:none;fill:url(#SVGID_13_);}
	.st29{display:none;opacity:0.2;fill:url(#SVGID_14_);enable-background:new    ;}
	.st30{display:none;fill:url(#SVGID_15_);}
	.st31{display:none;opacity:0.2;fill:url(#SVGID_16_);enable-background:new    ;}
	.st32{display:none;fill:url(#SVGID_17_);}
	.st33{display:none;opacity:0.2;fill:url(#SVGID_18_);enable-background:new    ;}
	.st34{display:none;fill:#D2CFCC;}
	.st35{display:none;fill:#E9E6E6;}
	.st36{display:none;fill:#86FFC5;}
	.st37{display:none;fill:#2DD890;}
	.st38{display:none;fill:#7BE1DB;}
	.st39{display:none;fill:#44BFE5;}
	.st40{display:none;fill:#97CC66;}
	.st41{display:none;fill:#FFB338;}
	.st42{display:none;fill:#E1E9F4;}
	.st43{display:none;opacity:0.4;fill:#ADA6A3;enable-background:new    ;}
	.st44{display:none;fill:url(#SVGID_19_);}
	.st45{display:none;fill:#6FC1B2;}
	.st46{display:none;fill:url(#SVGID_20_);}
	.st47{display:none;fill:url(#SVGID_21_);}
	.st48{display:none;fill:#C7C6C4;}
	.st49{display:none;fill:url(#SVGID_22_);}
	.st50{display:none;fill:url(#SVGID_23_);}
	.st51{display:none;fill:#5169CE;}
	.st52{display:none;fill:#788EFF;}
	.st53{display:none;fill:#252321;}
	.st54{display:none;fill:#3F474F;}
	.st55{display:none;fill:#F48914;}
	.st56{display:none;fill:url(#SVGID_24_);}
	.st57{display:none;opacity:0.2;fill:url(#SVGID_25_);enable-background:new    ;}
</style>
<path class="st0" d="M287,584c158.5,0,287-74.2,287-165.8c0-91.6-128.5-165.8-287-165.8S0,326.6,0,418.2C0,509.8,128.5,584,287,584z
	"/>
<path class="st1" d="M287,542.1c158.5,0,287-74.2,287-165.8c0-91.6-128.5-165.8-287-165.8S0,284.7,0,376.3
	C0,467.9,128.5,542.1,287,542.1z"/>
<g class="st2">
	<path class="st3" d="M412.6,204l-102.1-56.2l-124.6,71.9L325.5,300H429L412.6,204z"/>
	<path class="st3" d="M368.7,229.2l-136.2-75.6l-124.6,71.9l173.3,100.1h103.8L368.7,229.2z"/>
	<path class="st3" d="M434.4,498.5c0.7,0,1,0.3,1.7,0.3L334.3,440c-0.3-0.3-1-0.3-1.7-0.3c-2.4-0.3-5.8,0.3-9.9,1.4l-25.5-14.6
		c1-0.3,2-1,2.7-1.4c48-27.9,47.7-73.2-0.7-101.1c-25.2-14.6-58.6-21.5-91.2-20.8c-33-0.7-66,6.1-91.2,20.8
		c-48,27.9-47.7,73.2,0.7,101.1c25.2,14.6,58.6,21.5,91.2,20.8c21.4,0.3,42.9-2.4,62.3-8.5l28.6,16.7c-1,1-2,2-2.4,3.1
		c-1,1.7-0.7,3.1,0.3,3.7l101.8,58.9c0.3,0.3,1,0.3,1.7,0.7c5.4,0.7,17-3.4,26.2-9.2c4.4-3.1,7.5-5.8,8.9-8.2
		C437.8,500.6,437.1,498.9,434.4,498.5z M209,444c-29.6-0.7-59.2-7.5-82-20.4c-47.3-27.2-47.7-71.9-0.7-99.4
		c22.5-13.3,52.1-19.8,81.7-20.4c29.6,0.7,59.2,7.5,82,20.4c47.3,27.2,47.7,71.9,0.7,99.4C268.3,436.9,238.7,443.7,209,444z"/>
	<path class="st3" d="M99.1,345l-43.6,25.2l227.4,131.4h24.9L99.1,345z"/>
	<path class="st3" d="M73.9,423.6L63,417.5c-1.4-1-4.1-1-5.4,0l-19.4,11.2c-1.4,1-1.4,2.4,0,3.1l10.9,6.1l-2.4,1.4c-1,0.7-1,1.4,0,2
		l89.5,51.8c1.4,0.7,3.4,0.7,4.4,0l1.4-1c1-0.3,2-0.7,3.4-0.3l16.7,3.7l7.5,4.4l1.7-1l7.5,4.4l5.4-5.8l-5.1-3.1l1.4-1l-7.5-4.4
		l-6.5-9.5c-0.3-0.7,0-1.4,0.7-2l1.4-1c1.4-0.7,1.4-2,0-2.7L79,421.9c-1-0.7-2.4-0.7-3.4,0L73.9,423.6z"/>
	<path class="st3" d="M127,415.8l-10.9-6.1c-1.4-1-4.1-1-5.4,0l-19.4,11.2c-1.4,1-1.4,2.4,0,3.1l10.9,6.1l-2.4,1.4c-1,0.7-1,1.4,0,2
		l89.5,51.8c1.4,0.7,3.4,0.7,4.4,0l1.4-1c1-0.3,2-0.7,3.4-0.3l16.7,3.7l7.5,4.4l1.7-1l7.5,4.4l5.4-5.8l-5.1-3.1l1.4-1l-7.5-4.4
		l-6.5-9.5c-0.3-0.7,0-1.4,0.7-2l1.4-1c1.4-0.7,1.4-2,0-2.7l-89.5-51.8c-1-0.7-2.4-0.7-3.4,0L127,415.8z"/>
	<path class="st3" d="M84.4,317c10.2,5.8,10.2,15,0,21.1c-9.9,5.8-26.2,5.8-36.4,0s-10.2-15,0-21.1C58.2,311.6,74.2,311.2,84.4,317z
		"/>
	<path class="st3" d="M106.6,288.1c10.2,5.8,10.2,15,0,21.1c-9.9,5.8-26.2,5.8-36.4,0c-10.2-5.8-10.2-15,0-21.1
		C80.3,282.3,96.7,282.3,106.6,288.1z"/>
	<path class="st3" d="M459.3,344.6c10.2,5.8,10.2,15,0,21.1c-9.9,5.8-26.2,5.8-36.4,0c-10.2-5.8-10.2-15,0-21.1
		C433.1,339.2,449.4,338.8,459.3,344.6z"/>
	<path class="st3" d="M519.9,299c10.2,5.8,10.2,15,0,21.1c-9.9,5.8-26.2,5.8-36.4,0c-10.2-5.8-10.2-15,0-21.1
		C493.3,293.2,509.7,293.2,519.9,299z"/>
	<path class="st3" d="M507.6,357.9c10.2,5.8,10.2,15,0,21.1c-9.9,5.8-26.2,5.8-36.4,0c-10.2-5.8-10.2-15,0-21.1
		C481.1,352.1,497.4,352.1,507.6,357.9z"/>
	<path class="st3" d="M333,504.7c10.2,5.8,10.2,15,0,21.1c-9.9,5.8-26.2,5.8-36.4,0c-10.2-5.8-10.2-15,0-21.1
		C306.7,499.2,322.7,499.2,333,504.7z"/>
</g>
<linearGradient id="SVGID_1_" gradientUnits="userSpaceOnUse" x1="70.0551" y1="285.2313" x2="121.4633" y2="285.2313" gradientTransform="matrix(1 0 0 -1 0 586)">
	<stop  offset="0" style="stop-color:#D88000"/>
	<stop  offset="1" style="stop-color:#FFAC33"/>
</linearGradient>
<path class="st4" d="M70.1,292.5c0,2,0,4.1,0,5.8c0,5.4,5.1,10.6,15,13.3c7.1,2,14.3,2,21.4,0c9.9-2.7,15-8.2,15-13.3
	c0-2,0-4.1,0-5.8C121.2,287.1,70.1,287.1,70.1,292.5z"/>
<linearGradient id="SVGID_2_" gradientUnits="userSpaceOnUse" x1="70.6888" y1="281.7405" x2="120.93" y2="281.7405" gradientTransform="matrix(1 0 0 -1 0 586)">
	<stop  offset="0" style="stop-color:#D88F25"/>
	<stop  offset="1" style="stop-color:#EBA136"/>
</linearGradient>
<path class="st5" d="M72.5,298.6v5.8c-0.7-1-1.4-2-1.7-3.1v-5.4C71.2,296.9,71.8,298,72.5,298.6z M85.8,306.1v5.8
	c0.7,0,1.4,0.3,1.7,0.3v-5.8C86.8,306.5,86.1,306.5,85.8,306.1z M92.9,307.2v5.8c0.7,0,1.4,0,1.7,0v-5.8
	C94.3,307.2,93.6,307.2,92.9,307.2z M89.2,306.8v5.8c0.7,0,1.4,0.3,1.7,0.3v-5.8C90.6,307.2,89.9,306.8,89.2,306.8z M74.6,301v5.4
	c0.7,0.3,1,1,1.7,1.4V302C75.6,301.7,74.9,301.4,74.6,301z M82,305.1v5.4c0.7,0.3,1.4,0.3,1.7,0.7v-5.8
	C83.1,305.5,82.4,305.1,82,305.1z M78.3,303.4v5.4c0.7,0.3,1,0.7,1.7,1v-5.4C79.3,303.7,78.6,303.7,78.3,303.4z M96.7,307.2v5.8
	c0.7,0,1.4,0,1.7,0v-5.8C98.1,307.2,97.4,307.2,96.7,307.2z M115.4,302v5.8c0.7-0.3,1.4-1,1.7-1.4V301
	C116.8,301,116.1,301.4,115.4,302z M100.4,307.2v5.8c0.7,0,1.4,0,1.7-0.3v-5.8C101.8,306.8,101.1,307.2,100.4,307.2z M119.2,298.6
	v5.8c0.7-1,1.4-2,1.7-3.4v-5.4C120.5,296.6,119.8,297.6,119.2,298.6z M111.7,304.1v5.4c0.7-0.3,1.4-0.7,1.7-1v-5.4
	C113,303.4,112.3,303.7,111.7,304.1z M107.9,305.5v5.8c0.7-0.3,1.4-0.3,1.7-0.7v-5.4C109.3,305.1,108.6,305.5,107.9,305.5z
	 M104.2,306.5v5.8c0.7,0,1.4-0.3,1.7-0.3v-5.8C105.5,306.1,104.9,306.5,104.2,306.5z"/>
<path class="st6" d="M113.7,282c10.2,5.8,10.2,15,0,21.1c-9.9,5.8-26.2,5.8-36.4,0c-10.2-5.8-10.2-15,0-21.1
	C87.5,276.2,103.8,276.2,113.7,282z"/>
<path class="st7" d="M112.3,283c9.2,5.1,9.2,13.6,0,19.1c-9.2,5.4-23.8,5.4-33,0c-9.2-5.1-9.2-13.6,0-19.1
	C88.2,277.9,103.2,277.5,112.3,283z"/>
<path class="st8" d="M79.7,284.3c8.9-5.1,23.2-5.1,32.3,0c6.5,3.7,8.2,9.2,5.4,13.6c3.7-5.1,2-10.9-4.8-15c-9.2-5.1-23.8-5.1-33,0
	c-7.1,4.1-8.5,10.2-4.8,15C71.5,293.5,73.2,288.1,79.7,284.3z"/>
<path class="st8" d="M108.3,298.3c1.4-1,2.4-2.4,2.4-3.7v-1c0-1-0.7-2.4-2.7-3.4c-3.7-2-7.5-1.7-12.3-0.7l-2,0.7l-5.1-3.1
	c1,0,2.4,0,4.4,0.7c0.7,0.3,1.4,0.3,2-0.3c0.3-0.3,1-1,1-1.4v-1c0-0.3-0.3-0.7-0.7-1c-1.4-0.7-5.4-1-9.9,1.7l-2.7-1.4l-1.7,1v1
	l1.7,1c-1.4,1-2.4,2.4-2.4,3.4v1c0,1,0.7,2.4,2.7,3.4c3.1,1.7,6.8,1.4,10.9,0.3l2.4-0.7l6.1,3.4c-1,0-2.7,0-5.4-0.7
	c-1-0.3-1.7-0.3-2.4,0.3c-0.3,0.3-1,1-0.7,1.4v1c0,0.3,0.3,1,1,1.4c1,0.7,5.1,1.4,10.9-1.7l3.4,2l1.7-1v-1L108.3,298.3z M85.5,290.5
	c-0.7-0.3-1-0.7-1-1c0-0.3,0.3-0.7,1-1l4.8,2.7C88.5,291.5,86.8,291.1,85.5,290.5z M94.3,300.3l0.3,0.3
	C94.6,300.3,94.6,300.3,94.3,300.3z M105.9,296.9l-5.4-3.1c2-0.3,3.7,0,5.4,1c0.7,0.3,1,0.7,1.4,1.4
	C106.9,296.3,106.6,296.6,105.9,296.9z"/>
<path class="st6" d="M107.6,298c3.1-1.7,5.4-5.1,0.7-7.8c-3.7-2-7.5-1.7-12.3-0.7l-2,0.7l-6.8-3.7c1-0.3,2.7-0.3,5.8,0.3
	c0.7,0.3,1.4,0.3,2-0.3c0.7-0.3,2-1.7,0.3-2.4c-1.4-0.7-5.4-1-9.9,1.7l-2.7-1.4l-1.7,1l2.7,1.4c-3.7,2.4-4.8,5.1-0.7,7.5
	c3.1,1.7,6.8,1.4,10.9,0.3l2.4-0.7l7.5,4.4c-0.7,0.3-2.7,0.7-6.8-0.3c-1-0.3-1.7-0.3-2.4,0.3c-0.7,0.3-1.4,2,0,2.7
	c1,0.7,5.1,1.4,10.9-1.7l3.4,2l1.7-1L107.6,298z M85.5,290.5c-1.7-1-1.7-2.4-0.3-3.4l6.1,3.4C89.5,291.5,87.2,291.5,85.5,290.5z
	 M105.9,296.9l-7.1-4.1c2.4-0.7,5.1-0.7,6.8,0.7C107.9,294.6,107.6,295.9,105.9,296.9z"/>
<linearGradient id="SVGID_3_" gradientUnits="userSpaceOnUse" x1="46.8194" y1="255.9463" x2="98.2274" y2="255.9463" gradientTransform="matrix(1 0 0 -1 0 586)">
	<stop  offset="0" style="stop-color:#D88000"/>
	<stop  offset="1" style="stop-color:#FFAC33"/>
</linearGradient>
<path class="st9" d="M47,321.8c0,2,0,4.1,0,5.8c0,5.4,5.1,10.6,15,13.3c7.1,2,14.3,2,21.4,0c9.9-2.7,15-8.2,15-13.3c0-2,0-4.1,0-5.8
	C98,316.3,47,316.3,47,321.8z"/>
<linearGradient id="SVGID_4_" gradientUnits="userSpaceOnUse" x1="47.4535" y1="252.4555" x2="97.6945" y2="252.4555" gradientTransform="matrix(1 0 0 -1 0 586)">
	<stop  offset="0" style="stop-color:#D88F25"/>
	<stop  offset="1" style="stop-color:#EBA136"/>
</linearGradient>
<path class="st10" d="M49.4,327.9v5.8c-0.7-1-1.4-2-1.7-3.1v-5.4C48,325.9,48.3,326.9,49.4,327.9z M62.3,335.4v5.8
	c0.7,0,1.4,0.3,1.7,0.3v-5.8C63.7,335.8,63,335.4,62.3,335.4z M69.8,336.4v5.8c0.7,0,1.4,0,1.7,0v-5.8
	C71.2,336.4,70.5,336.4,69.8,336.4z M66,336.1v5.8c0.7,0,1.4,0.3,1.7,0.3v-5.8C67.4,336.4,66.7,336.1,66,336.1z M51.1,330v5.4
	c0.7,0.3,1,1,1.7,1.4V331C52.4,331,51.7,330.6,51.1,330z M58.6,334.4v5.4c0.7,0.3,1.4,0.3,1.7,0.7v-5.8
	C59.9,334.7,59.2,334.4,58.6,334.4z M54.8,332.7v5.4c0.7,0.3,1,0.7,1.7,1v-5.4C56.2,333,55.5,333,54.8,332.7z M73.5,336.4v5.8
	c0.7,0,1.4,0,1.7,0v-5.8C74.9,336.4,74.2,336.4,73.5,336.4z M92.3,331.3v5.8c0.7-0.3,1.4-1,1.7-1.4v-5.4
	C93.6,330.3,92.9,330.6,92.3,331.3z M77.3,336.4v5.8c0.7,0,1.4,0,1.7-0.3v-5.8C78.6,336.1,78,336.4,77.3,336.4z M96,327.9v5.8
	c0.7-1,1.4-2,1.7-3.4v-5.4C97.4,325.9,96.7,326.9,96,327.9z M88.5,333.4v5.4c0.7-0.3,1.4-0.7,1.7-1v-5.4
	C89.5,332.7,89.2,333,88.5,333.4z M84.8,334.7v5.8c0.7-0.3,1.4-0.3,1.7-0.7v-5.4C86.1,334.4,85.5,334.4,84.8,334.7z M81,335.8v5.8
	c0.7,0,1.4-0.3,1.7-0.3v-5.8C82.4,335.4,81.7,335.4,81,335.8z"/>
<path class="st6" d="M90.6,311.2c10.2,5.8,10.2,15,0,21.1c-9.9,5.8-26.2,5.8-36.4,0s-10.2-15,0-21.1
	C64.3,305.5,80.7,305.5,90.6,311.2z"/>
<path class="st7" d="M88.9,312.3c9.2,5.1,9.2,13.6,0,19.1c-9.2,5.4-23.8,5.4-33,0c-9.2-5.1-9.2-13.6,0-19.1
	C65,307.2,80,306.8,88.9,312.3z"/>
<path class="st8" d="M56.5,313.6c8.9-5.1,23.2-5.1,32.3,0c6.5,3.7,8.2,9.2,5.4,13.6c3.7-5.1,2-10.9-4.8-15c-9.2-5.1-23.8-5.1-33,0
	c-7.1,4.1-8.5,10.2-4.8,15C48.3,322.8,50,317.4,56.5,313.6z"/>
<path class="st8" d="M85.1,327.6c1.4-1,2.4-2.4,2.4-3.7v-1c0-1-0.7-2.4-2.7-3.4c-3.7-2-7.5-1.7-12.3-0.7l-2,0.7l-5.1-3.1
	c1,0,2.4,0,4.4,0.7c0.7,0.3,1.4,0.3,2-0.3c0.3-0.3,1-1,1-1.4v-1c0-0.3-0.3-0.7-0.7-1c-1.4-0.7-5.4-1-9.9,1.7l-2.7-1.4l-1.7,1v1
	l1.7,1c-1.4,1-2.4,2.4-2.4,3.4v1c0,1,0.7,2.4,2.7,3.4c3.1,1.7,6.8,1.4,10.9,0.3l2.4-0.7l6.1,3.4c-1,0-2.7,0-5.4-0.7
	c-1-0.3-1.7-0.3-2.4,0.3c-0.3,0.3-1,1-0.7,1.4v1c0,0.3,0.3,1,1,1.4c1,0.7,5.1,1.4,10.9-1.7l3.4,2l1.7-1v-1L85.1,327.6z M62.3,319.8
	c-0.7-0.3-1-0.7-1-1c0-0.3,0.3-0.7,1-1l4.8,2.7C65.4,320.4,63.7,320.4,62.3,319.8z M71.2,329.6l0.3,0.3
	C71.5,329.6,71.5,329.6,71.2,329.6z M82.7,326.2l-5.4-3.1c2-0.3,3.7,0,5.4,1c0.7,0.3,1,0.7,1.4,1.4
	C83.7,325.5,83.4,325.9,82.7,326.2z"/>
<path class="st6" d="M84.1,327.2c3.1-1.7,5.4-5.1,0.7-7.8c-3.7-2-7.5-1.7-12.3-0.7l-2,0.7l-6.8-3.7c1-0.3,2.7-0.3,5.8,0.3
	c0.7,0.3,1.4,0.3,2-0.3c0.7-0.3,2-1.7,0.3-2.4c-1.4-0.7-5.4-1-9.9,1.7l-2.7-1.4l-1.7,1l2.7,1.4c-3.7,2.4-4.8,5.1-0.7,7.5
	c3.1,1.7,6.8,1.4,10.9,0.3l2.4-0.7l7.5,4.4c-0.7,0.3-2.7,0.7-6.8-0.3c-1-0.3-1.7-0.3-2.4,0.3c-0.7,0.3-1.4,2,0,2.7
	c1,0.7,5.1,1.4,10.9-1.7l3.4,2l1.7-1L84.1,327.2z M62.3,319.8c-1.7-1-1.7-2.4-0.3-3.4l6.1,3.4C66,320.4,64,320.8,62.3,319.8z
	 M82.7,326.2l-7.1-4.1c2.4-0.7,5.1-0.7,6.8,0.7C84.4,323.8,84.4,325.2,82.7,326.2z"/>
<linearGradient id="SVGID_5_" gradientUnits="userSpaceOnUse" x1="67.0037" y1="292.0419" x2="118.4115" y2="292.0419" gradientTransform="matrix(1 0 0 -1 0 586)">
	<stop  offset="0" style="stop-color:#D88000"/>
	<stop  offset="1" style="stop-color:#FFAC33"/>
</linearGradient>
<path class="st11" d="M67.1,285.7c0,2,0,4.1,0,5.8c0,5.4,5.1,10.6,15,13.3c7.1,2,14.3,2,21.4,0c9.9-2.7,15-8.2,15-13.3
	c0-2,0-4.1,0-5.8C118.1,280.3,67.1,280.3,67.1,285.7z"/>
<linearGradient id="SVGID_6_" gradientUnits="userSpaceOnUse" x1="67.6378" y1="288.5515" x2="117.879" y2="288.5515" gradientTransform="matrix(1 0 0 -1 0 586)">
	<stop  offset="0" style="stop-color:#D88F25"/>
	<stop  offset="1" style="stop-color:#EBA136"/>
</linearGradient>
<path class="st12" d="M69.5,291.8v5.8c-0.7-1-1.4-2-1.7-3.1v-5.4C68.1,290.1,68.8,291.1,69.5,291.8z M82.7,299.3v5.8
	c0.7,0,1.4,0.3,1.7,0.3v-5.8C83.8,299.7,83.1,299.7,82.7,299.3z M89.9,300.3v5.8c0.7,0,1.4,0,1.7,0v-5.8
	C91.2,300.3,90.6,300.3,89.9,300.3z M86.1,300v5.8c0.7,0,1.4,0.3,1.7,0.3v-5.8C87.5,300.3,86.8,300,86.1,300z M71.5,294.2v5.4
	c0.7,0.3,1,1,1.7,1.4v-5.8C72.5,294.9,71.8,294.6,71.5,294.2z M79,298.3v5.4c0.7,0.3,1.4,0.3,1.7,0.7v-5.8
	C80,298.6,79.3,298.3,79,298.3z M75.2,296.6v5.4c0.7,0.3,1,0.7,1.7,1v-5.4C76.3,297.3,75.6,296.9,75.2,296.6z M93.6,300.3v5.8
	c0.7,0,1.4,0,1.7,0v-5.8C95,300.3,94.3,300.3,93.6,300.3z M112.4,295.2v5.8c0.7-0.3,1.4-1,1.7-1.4v-5.4
	C113.7,294.2,113,294.6,112.4,295.2z M97.4,300.3v5.8c0.7,0,1.4,0,1.7-0.3V300C98.7,300,98.1,300.3,97.4,300.3z M116.1,291.8v5.8
	c0.7-1,1.4-2,1.7-3.4v-5.4C117.5,289.8,116.8,290.8,116.1,291.8z M108.6,297.3v5.4c0.7-0.3,1.4-0.7,1.7-1v-5.4
	C110,296.6,109.3,296.9,108.6,297.3z M104.9,298.6v5.8c0.7-0.3,1.4-0.3,1.7-0.7v-5.4C106.2,298.3,105.5,298.6,104.9,298.6z
	 M101.1,299.7v5.8c0.7,0,1.4-0.3,1.7-0.3v-5.8C102.5,299.3,101.8,299.7,101.1,299.7z"/>
<path class="st6" d="M110.7,275.1c10.2,5.8,10.2,15,0,21.1c-9.9,5.8-26.2,5.8-36.4,0c-10.2-5.8-10.2-15,0-21.1
	C84.4,269.4,100.8,269.4,110.7,275.1z"/>
<path class="st7" d="M109.3,276.2c9.2,5.1,9.2,13.6,0,19.1c-9.2,5.4-23.8,5.4-33,0c-9.2-5.1-9.2-13.6,0-19.1
	C85.1,271.1,100.1,270.7,109.3,276.2z"/>
<path class="st8" d="M76.6,277.5c8.9-5.1,23.2-5.1,32.3,0c6.5,3.7,8.2,9.2,5.4,13.6c3.7-5.1,2-10.9-4.8-15c-9.2-5.1-23.8-5.1-33,0
	c-7.1,4.1-8.5,10.2-4.8,15C68.4,286.7,70.1,281.3,76.6,277.5z"/>
<path class="st8" d="M105.2,291.5c1.4-1,2.4-2.4,2.4-3.7v-1c0-1-0.7-2.4-2.7-3.4c-3.7-2-7.5-1.7-12.3-0.7l-2,0.7l-5.1-3.1
	c1,0,2.4,0,4.4,0.7c0.7,0.3,1.4,0.3,2-0.3c0.3-0.3,1-1,1-1.4v-1c0-0.3-0.3-0.7-0.7-1c-1.4-0.7-5.4-1-9.9,1.7l-2.7-1.4l-1.7,1v1
	l1.7,1c-1.4,1-2.4,2.4-2.4,3.4v1c0,1,0.7,2.4,2.7,3.4c3.1,1.7,6.8,1.4,10.9,0.3l2.4-0.7l6.1,3.4c-1,0-2.7,0-5.4-0.7
	c-1-0.3-1.7-0.3-2.4,0.3c-0.3,0.3-1,1-0.7,1.4v1c0,0.3,0.3,1,1,1.4c1,0.7,5.1,1.4,10.9-1.7l3.4,2l1.7-1v-1L105.2,291.5z M82.4,283.7
	c-0.7-0.3-1-0.7-1-1c0-0.3,0.3-0.7,1-1l4.8,2.7C85.5,284.7,83.7,284.3,82.4,283.7z M91.2,293.5l0.3,0.3
	C91.6,293.5,91.6,293.5,91.2,293.5z M102.8,290.1l-5.4-3.1c2-0.3,3.7,0,5.4,1c0.7,0.3,1,0.7,1.4,1.4
	C103.8,289.4,103.5,289.8,102.8,290.1z"/>
<path class="st6" d="M104.5,291.1c3.1-1.7,5.4-5.1,0.7-7.8c-3.7-2-7.5-1.7-12.3-0.7l-2,0.7l-6.8-3.7c1-0.3,2.7-0.3,5.8,0.3
	c0.7,0.3,1.4,0.3,2-0.3c0.7-0.3,2-1.7,0.3-2.4c-1.4-0.7-5.4-1-9.9,1.7l-2.7-1.4l-1.7,1l2.7,1.4c-3.7,2.4-4.8,5.1-0.7,7.5
	c3.1,1.7,6.8,1.4,10.9,0.3l2.4-0.7l7.5,4.4c-0.7,0.3-2.7,0.7-6.8-0.3c-1-0.3-1.7-0.3-2.4,0.3c-0.7,0.3-1.4,2,0,2.7
	c1,0.7,5.1,1.4,10.9-1.7l3.4,2l1.7-1L104.5,291.1z M82.4,283.7c-1.7-1-1.7-2.4-0.3-3.4l6.1,3.4C86.5,284.7,84.1,284.7,82.4,283.7z
	 M102.8,290.1l-7.1-4.1c2.4-0.7,5.1-0.7,6.8,0.7C104.9,287.7,104.5,289.1,102.8,290.1z"/>
<path class="st13" d="M461.7,73.2l-0.3,206L336,206.7L336.4,1L461.7,73.2z"/>
<path class="st14" d="M458.3,238.7V82.1L337.4,11.9l-0.3,196.1l90.6,52.4L458.3,238.7z"/>
<path class="st14" d="M456.2,240.4V83.1L335.4,12.9L335,209.1l90.9,52.4L456.2,240.4z"/>
<path class="st14" d="M454.2,241.8l0.3-157.7L333.3,14.3v196.1l90.9,52.4L454.2,241.8z"/>
<path class="st14" d="M452.5,243.1V85.5L331.3,15.3v196.1l90.9,52.4L452.5,243.1z"/>
<path class="st14" d="M450.4,244.5v-158L329.2,16.7v195.8l91.2,52.8L450.4,244.5z"/>
<path class="st14" d="M448.4,246.2V87.5L327.5,17.7l-0.3,196.1l91.2,52.4L448.4,246.2z"/>
<path class="st14" d="M417.1,267.3l29.3-19.8l0.3-158.7L325.5,18.7v196.1l91.2,52.8L417.1,267.3z"/>
<path class="st14" d="M417.1,267.3l27.6-18.4v-159L323.4,20.1v195.8l91.2,52.8L417.1,267.3z"/>
<path class="st14" d="M417.1,267.3l25.5-17V90.9L321.4,21.1v196.1L413,270L417.1,267.3z"/>
<path class="st14" d="M417.1,267.3l23.5-15.7V92.3L319.4,22.1v196.1l91.6,52.8L417.1,267.3z"/>
<path class="st14" d="M417.1,267.3l21.4-14.3V93.3L317.6,23.5l-0.3,195.8l91.6,53.1L417.1,267.3z"/>
<path class="st14" d="M417.1,267.3l19.4-12.9l0.3-160L315.6,24.5v196.1l91.6,52.8L417.1,267.3z"/>
<path class="st14" d="M417.1,267.3l17.7-11.6v-160L313.6,25.5v196.1l91.6,53.1L417.1,267.3z"/>
<path class="st14" d="M417.1,267.3l15.7-10.2V96.7L311.5,26.9v195.8l91.9,53.1L417.1,267.3z"/>
<path class="st13" d="M302,21.1v205.7L429,300l1-206L302,21.1z"/>
<path class="st15" d="M429,94.3V300l36.1-20.8V73.6L429,94.3z M449.1,245.9c-4.4,2.7-8.2,0.7-8.2-4.8c0-5.1,3.4-11.2,8.2-14
	c4.4-2.7,8.2-0.3,8.2,4.8C456.9,237.3,453.5,243.5,449.1,245.9z"/>
<path class="st14" d="M459.3,205l-23.8,13.6V107.9l23.8-13.6V205z"/>
<path class="st15" d="M450.1,246.2c-4.4,2.7-8.2,0.7-8.2-4.8c0-5.1,3.4-11.2,8.2-14c4.4-2.7,8.2-0.3,8.2,4.8
	C457.9,237.3,454.5,243.5,450.1,246.2z"/>
<path class="st16" d="M454.8,228.2l-1.4-0.7c1.4,0.7,2,2.4,2,4.4c0,4.4-3.1,9.9-7.1,12.3c-2,1-3.7,1.4-5.1,0.3l1.4,0.7
	c1.4,0.7,3.1,0.7,5.1-0.3c3.7-2.4,7.1-7.8,7.1-12.3C456.9,230.5,456.2,229.2,454.8,228.2z"/>
<path class="st16" d="M454.8,225.4c-1.7-1-3.7-0.7-6.1,0.7c-4.8,2.7-8.5,9.5-8.5,15c0,2.7,1,4.8,2.4,5.4l1.4,0.7
	c-1.7-1-2.4-2.7-2.4-5.4c0-5.4,3.7-12.3,8.5-15c2.4-1.4,4.4-1.4,6.1-0.7L454.8,225.4z"/>
<path class="st17" d="M450.1,226.8c-4.8,2.7-8.5,9.5-8.5,15c0,5.4,3.7,7.8,8.5,5.1c4.8-2.7,8.5-9.5,8.5-15
	C458.6,226.4,454.8,224.1,450.1,226.8z M450.1,244.8c-3.7,2.4-7.1,0.3-7.1-4.1c0-4.4,3.1-9.9,7.1-12.3c3.7-2.4,7.1-0.3,7.1,4.1
	C456.9,237.3,453.8,242.8,450.1,244.8z"/>
<path class="st18" d="M338.1,0l-1.7,1l125.3,72.2L429,92.3L303.7,20.1l-1.7,1l127,73.2l36.1-21.1L338.1,0z"/>
<path class="st19" d="M417.7,98.8l-0.3,205.7l-125.3-72.2l0.3-205.7L417.7,98.8z"/>
<path class="st14" d="M414.3,264.2v-157L293.1,37.5v195.8l90.6,52.4L414.3,264.2z"/>
<path class="st14" d="M412.3,265.6V108.3L291.4,38.5l-0.3,196.1l90.9,52.4L412.3,265.6z"/>
<path class="st14" d="M410.2,267.3l0.3-157.7L289.4,39.5v196.1l90.6,52.4L410.2,267.3z"/>
<path class="st14" d="M408.5,268.7v-158L287.3,40.9V237l90.9,52.4L408.5,268.7z"/>
<path class="st14" d="M406.5,270V111.7L285.3,41.9V238l91.2,52.4L406.5,270z"/>
<path class="st14" d="M404.5,271.4V113.1L283.3,42.9V239l91.2,52.8L404.5,271.4z"/>
<path class="st14" d="M372.8,292.9l29.6-20.1V114.1L281.6,44.3l-0.3,196.1L372.8,292.9z"/>
<path class="st14" d="M372.8,292.9l27.6-18.4l0.3-159.4L279.5,45.3v196.1l91.2,52.8L372.8,292.9z"/>
<path class="st14" d="M372.8,292.9l25.9-17V116.5L277.5,46.3v196.1l91.2,52.8L372.8,292.9z"/>
<path class="st14" d="M372.8,292.9l23.8-15.7V117.5L275.4,47.7v196.1l91.6,52.8L372.8,292.9z"/>
<path class="st14" d="M372.8,292.9l21.8-14.3v-160L273.7,48.7l-0.3,196.1l91.6,52.8L372.8,292.9z"/>
<path class="st14" d="M372.8,292.9l19.7-12.9v-160L271.7,49.7l-0.3,196.1l91.9,53.1L372.8,292.9z"/>
<path class="st14" d="M372.8,292.9l17.7-11.6l0.3-160.4L269.6,51.1v196.1l91.6,52.8L372.8,292.9z"/>
<path class="st14" d="M372.8,292.9l16-10.2V122.2L267.6,52.1v196.1l91.6,53.1L372.8,292.9z"/>
<path class="st19" d="M258.1,46.3V252l127,73.6l1-206.4L258.1,46.3z"/>
<path class="st20" d="M385.1,119.5v205.7l36.1-20.8V98.8L385.1,119.5z M405.1,271.4c-4.4,2.7-8.2,0.7-8.2-4.8s3.4-11.2,8.2-14
	c4.4-2.7,8.2-0.3,8.2,4.8C413,262.5,409.6,268.7,405.1,271.4z"/>
<path class="st14" d="M415.3,230.2l-23.8,14V133.5l23.8-14V230.2z"/>
<path class="st15" d="M406.2,271.4c-4.4,2.7-8.2,0.7-8.2-4.8c0-5.1,3.4-11.2,8.2-14c4.4-2.7,8.2-0.3,8.2,4.8
	C414,262.9,410.6,269,406.2,271.4z"/>
<path class="st16" d="M410.9,253.7l-1.4-0.7c1.4,0.7,2,2.4,2,4.4c0,4.4-3.1,9.9-7.1,12.3c-2,1-3.7,1.4-5.1,0.3l1.4,0.7
	c1.4,0.7,3.1,0.7,5.1-0.3c3.7-2.4,7.1-7.8,7.1-12.3C413,256.1,412.3,254.4,410.9,253.7z"/>
<path class="st16" d="M410.9,251c-1.7-1-3.7-0.7-6.1,0.7c-4.8,2.7-8.5,9.5-8.5,15c0,2.7,1,4.8,2.4,5.4l1.4,0.7
	c-1.7-1-2.4-2.7-2.4-5.4c0-5.4,3.7-12.3,8.5-15c2.4-1.4,4.4-1.4,6.1-0.7L410.9,251z"/>
<path class="st17" d="M406.2,252.3c-4.8,2.7-8.5,9.5-8.5,15c0,5.4,3.7,7.8,8.5,5.1c4.8-2.7,8.5-9.5,8.5-15
	C414.7,251.6,410.9,249.6,406.2,252.3z M406.2,270.4c-3.7,2.4-7.1,0.3-7.1-4.1c0-4.4,3.1-9.9,7.1-12.3c3.7-2.4,7.1-0.3,7.1,4.1
	C413,262.5,409.9,268,406.2,270.4z"/>
<path class="st21" d="M294.1,25.5l-1.7,1l125.3,72.2L385,117.8L259.8,45.3l-1.7,1l127,73.2l36.1-20.8L294.1,25.5z"/>
<linearGradient id="SVGID_7_" gradientUnits="userSpaceOnUse" x1="424.545" y1="229.0448" x2="475.953" y2="229.0448" gradientTransform="matrix(1 0 0 -1 0 586)">
	<stop  offset="0" style="stop-color:#D88000"/>
	<stop  offset="1" style="stop-color:#FFAC33"/>
</linearGradient>
<path class="st22" d="M424.5,348.7c0,2,0,4.1,0,5.8c0,5.4,5.1,10.6,15,13.3c7.1,2,14.3,2,21.4,0c9.9-2.7,15-8.2,15-13.3
	c0-2,0-4.1,0-5.8C475.6,343.2,424.5,343.2,424.5,348.7z"/>
<linearGradient id="SVGID_8_" gradientUnits="userSpaceOnUse" x1="425.14" y1="225.3845" x2="475.381" y2="225.3845" gradientTransform="matrix(1 0 0 -1 0 586)">
	<stop  offset="0" style="stop-color:#D88F25"/>
	<stop  offset="1" style="stop-color:#EBA136"/>
</linearGradient>
<path class="st23" d="M426.9,355.2v5.8c-0.7-1-1.4-2-1.7-3.1v-5.4C425.6,353.1,426.2,354.1,426.9,355.2z M440.2,362.3v5.8
	c0.7,0,1.4,0.3,1.7,0.3v-5.8C441.2,362.7,440.5,362.7,440.2,362.3z M447.7,363.3v5.8c0.7,0,1.4,0,1.7,0v-5.8
	C448.7,363.7,448,363.3,447.7,363.3z M443.9,363v5.8c0.7,0,1.4,0.3,1.7,0.3v-5.8C445,363.3,444.3,363,443.9,363z M429,357.2v5.4
	c0.7,0.3,1,1,1.7,1.4v-5.8C430,357.9,429.3,357.6,429,357.2z M436.5,361.3v5.4c0.7,0.3,1.4,0.3,1.7,0.7v-5.8
	C437.5,361.6,436.8,361.6,436.5,361.3z M432.7,359.6v5.4c0.7,0.3,1,0.7,1.7,1v-5.4C433.7,360.3,433.1,359.9,432.7,359.6z
	 M451.1,363.7v5.8c0.7,0,1.4,0,1.7,0v-5.8C452.5,363.3,451.8,363.3,451.1,363.7z M469.8,358.2v5.8c0.7-0.3,1.4-1,1.7-1.4v-5.4
	C471.2,357.2,470.5,357.6,469.8,358.2z M454.8,363.3v5.8c0.7,0,1.4,0,1.7-0.3V363C456.2,363,455.5,363.3,454.8,363.3z M473.6,354.8
	v5.8c0.7-1,1.4-2,1.7-3.4v-5.4C474.9,352.8,474.2,353.8,473.6,354.8z M466.1,360.3v5.4c0.7-0.3,1.4-0.7,1.7-1v-5.4
	C467.4,359.6,466.8,359.9,466.1,360.3z M462.3,361.6v5.8c0.7-0.3,1.4-0.3,1.7-0.7v-5.4C463.7,361.3,463,361.6,462.3,361.6z
	 M458.6,362.7v5.8c0.7,0,1.4-0.3,1.7-0.3v-5.8C459.9,362.3,459.3,362.7,458.6,362.7z"/>
<path class="st6" d="M468.5,338.1c10.2,5.8,10.2,15,0,21.1c-9.9,5.8-26.2,5.8-36.4,0c-10.2-5.8-10.2-15,0-21.1
	C441.9,332.4,458.2,332.4,468.5,338.1z"/>
<path class="st7" d="M466.8,339.2c9.2,5.1,9.2,13.6,0,19.1c-9.2,5.4-23.8,5.4-33,0c-9.2-5.4-9.2-13.6,0-19.1
	C442.6,334.1,457.6,334.1,466.8,339.2z"/>
<path class="st8" d="M434.1,340.5c8.9-5.1,23.1-5.1,32.3,0c6.5,3.7,8.2,9.2,5.4,13.6c3.7-5.1,2-10.9-4.8-15c-9.2-5.1-23.8-5.1-33,0
	c-7.2,4.1-8.5,10.2-4.8,15C425.9,349.7,427.6,344.3,434.1,340.5z"/>
<path class="st8" d="M462.7,354.5c1.4-1,2.4-2.4,2.4-3.7v-1c0-1-0.7-2.4-2.7-3.4c-3.7-2-7.5-1.7-12.3-0.7l-2,0.7l-5.1-3.1
	c1,0,2.4,0,4.4,0.7c0.7,0.3,1.4,0.3,2-0.3c0.3-0.3,1-1,1-1.4v-1c0-0.3-0.3-0.7-0.7-1c-1.4-0.7-5.4-1-9.9,1.7l-2.7-1.4l-1.7,1v1
	l1.7,1c-1.4,1-2.4,2.4-2.4,3.4v1c0,1,0.7,2.4,2.7,3.4c3.1,1.7,6.8,1.4,10.9,0.3l2.4-0.7l6.1,3.4c-1,0-2.7,0-5.4-0.7
	c-1-0.3-1.7-0.3-2.4,0.3c-0.3,0.3-1,1-0.7,1.4v1c0,0.3,0.3,1,1,1.4c1,0.7,5.1,1.4,10.9-1.7l3.4,2l1.7-1v-1L462.7,354.5z
	 M439.9,346.7c-0.7-0.3-1-0.7-1-1c0-0.3,0.3-0.7,1-1l4.8,2.7C442.9,347.7,441.2,347.3,439.9,346.7z M449.1,356.5l0.3,0.3
	C449.1,356.5,449.1,356.5,449.1,356.5z M460.3,353.1l-5.4-3.1c2-0.3,3.7,0,5.4,1c0.7,0.3,1,0.7,1.4,1.4
	C461.3,352.4,461,352.8,460.3,353.1z"/>
<path class="st6" d="M462,354.1c3.1-1.7,5.4-5.1,0.7-7.8c-3.7-2-7.5-1.7-12.3-0.7l-2,0.7l-6.8-3.7c1-0.3,2.7-0.3,5.8,0.3
	c0.7,0.3,1.4,0.3,2-0.3c0.7-0.3,2-1.7,0.3-2.4c-1.4-0.7-5.4-1-9.9,1.7l-2.7-1.4l-1.7,1l2.7,1.4c-3.7,2.4-4.8,5.1-0.7,7.5
	c3.1,1.7,6.8,1.4,10.9,0.3l2.4-0.7l7.5,4.4c-0.7,0.3-2.7,0.7-6.8-0.3c-1-0.3-1.7-0.3-2.4,0.3c-0.7,0.3-1.4,2,0,2.7
	c1,0.7,5.1,1.4,10.9-1.7l3.4,2l1.7-1L462,354.1z M439.9,346.7c-1.7-1-1.7-2.4-0.3-3.4l6.1,3.4C444,347.7,441.6,347.7,439.9,346.7z
	 M460.3,353.1l-7.1-4.1c2.4-0.7,5.1-0.7,6.8,0.7C462.3,350.7,462,352.1,460.3,353.1z"/>
<linearGradient id="SVGID_9_" gradientUnits="userSpaceOnUse" x1="421.22" y1="235.9193" x2="472.628" y2="235.9193" gradientTransform="matrix(1 0 0 -1 0 586)">
	<stop  offset="0" style="stop-color:#D88000"/>
	<stop  offset="1" style="stop-color:#FFAC33"/>
</linearGradient>
<path class="st24" d="M421.1,341.9c0,2,0,4.1,0,5.8c0,5.4,5.1,10.6,15,13.3c7.1,2,14.3,2,21.4,0c9.9-2.7,15-8.2,15-13.3
	c0-2,0-4.1,0-5.8C472.5,336.1,421.5,336.4,421.1,341.9z"/>
<linearGradient id="SVGID_10_" gradientUnits="userSpaceOnUse" x1="421.818" y1="232.535" x2="472.059" y2="232.535" gradientTransform="matrix(1 0 0 -1 0 586)">
	<stop  offset="0" style="stop-color:#D88F25"/>
	<stop  offset="1" style="stop-color:#EBA136"/>
</linearGradient>
<path class="st25" d="M423.5,348v5.8c-0.7-1-1.4-2-1.7-3.1v-5.4C422.2,346,422.8,347,423.5,348z M436.8,355.5v5.8
	c0.7,0,1.4,0.3,1.7,0.3v-5.8C438.2,355.8,437.5,355.5,436.8,355.5z M444.3,356.5v5.8c0.7,0,1.4,0,1.7,0v-5.8
	C445.3,356.5,445,356.5,444.3,356.5z M440.5,356.2v5.8c0.7,0,1.4,0.3,1.7,0.3v-5.8C441.6,356.5,441.2,356.2,440.5,356.2z
	 M425.6,350.1v5.4c0.7,0.3,1,1,1.7,1.4v-5.8C426.9,351.1,426.2,350.7,425.6,350.1z M433.1,354.5v5.4c0.7,0.3,1.4,0.3,1.7,0.7v-5.8
	C434.4,354.8,433.7,354.5,433.1,354.5z M429.3,352.8v5.4c0.7,0.3,1,0.7,1.7,1v-5.4C430.7,353.1,430,353.1,429.3,352.8z M448,356.5
	v5.8c0.7,0,1.4,0,1.7,0v-5.8C449.1,356.5,448.7,356.5,448,356.5z M466.4,351.1v5.8c0.7-0.3,1.4-1,1.7-1.4v-5.4
	C467.8,350.4,467.1,350.7,466.4,351.1z M451.8,356.5v5.8c0.7,0,1.4,0,1.7-0.3v-5.8C452.8,356.2,452.5,356.2,451.8,356.5z
	 M470.2,347.7v5.8c0.7-1,1.4-2,1.7-3.4v-5.4C471.9,345.6,471.2,347,470.2,347.7z M463,353.5v5.4c0.7-0.3,1.4-0.7,1.7-1v-5.4
	C464,352.8,463.4,353.1,463,353.5z M459.3,354.8v5.8c0.7-0.3,1.4-0.3,1.7-0.7v-5.4C460.3,354.5,459.6,354.5,459.3,354.8z
	 M455.5,355.8v5.8c0.7,0,1.4-0.3,1.7-0.3v-5.8C456.5,355.5,455.9,355.5,455.5,355.8z"/>
<path class="st6" d="M465.1,331.3c10.2,5.8,10.2,15,0,21.1c-9.9,5.8-26.2,5.8-36.4,0c-10.2-5.8-10.2-15,0-21.1
	C438.8,325.5,454.8,325.5,465.1,331.3z"/>
<path class="st7" d="M463.4,332.4c9.2,5.1,9.2,13.6,0,19.1c-9.2,5.4-23.8,5.4-33,0c-9.2-5.1-9.2-13.6,0-19.1
	C439.5,326.9,454.2,326.9,463.4,332.4z"/>
<path class="st8" d="M430.7,333.7c8.9-5.1,23.2-5.1,32.3,0c6.5,3.7,8.2,9.2,5.4,13.6c3.7-5.1,2-10.9-4.8-15c-9.2-5.1-23.8-5.1-33,0
	c-7.1,4.1-8.5,10.2-4.8,15C422.5,342.9,424.2,337.5,430.7,333.7z"/>
<path class="st8" d="M459.6,347.7c1.4-1,2.4-2.4,2.4-3.7v-1c0-1-0.7-2.4-2.7-3.4c-3.7-2-7.5-1.7-12.3-0.7l-2,0.7l-5.1-3.1
	c1,0,2.4,0,4.4,0.7c0.7,0.3,1.4,0.3,2-0.3c0.3-0.3,1-1,1-1.4v-1c0-0.3-0.3-0.7-0.7-1c-1.4-0.7-5.4-1-9.9,1.7l-2.7-1.4l-1.7,1v1
	l1.7,1c-1.4,1-2.4,2.4-2.4,3.4v1c0,1,0.7,2.4,2.7,3.4c3.1,1.7,6.8,1.4,10.9,0.3l2.4-0.7l6.1,3.4c-1,0-2.7,0-5.4-0.7
	c-1-0.3-1.7-0.3-2.4,0.3c-0.3,0.3-1,1-0.7,1.4v1c0,0.3,0.3,1,1,1.4c1,0.7,5.1,1.4,10.9-1.7l3.4,2l1.7-1v-1L459.6,347.7z
	 M436.8,339.8c-0.7-0.3-1-0.7-1-1c0-0.3,0.3-0.7,1-1l4.8,2.7C439.5,340.5,437.8,340.5,436.8,339.8z M445.6,349.4l0.3,0.3
	C446,349.7,445.6,349.7,445.6,349.4z M457.2,346.3l-5.4-3.1c2-0.3,3.7,0,5.4,1c0.7,0.3,1,0.7,1.4,1.4
	C457.9,345.6,457.6,346,457.2,346.3z"/>
<path class="st6" d="M458.6,347c3.1-1.7,5.4-5.1,0.7-7.8c-3.7-2-7.5-1.7-12.3-0.7l-2,0.7l-6.8-3.7c1-0.3,2.7-0.3,5.8,0.3
	c0.7,0.3,1.4,0.3,2-0.3c0.7-0.3,2-1.7,0.3-2.4c-1.4-0.7-5.4-1-9.9,1.7l-2.7-1.4l-1.7,1l2.7,1.4c-3.7,2.4-4.8,5.1-0.7,7.5
	c3.1,1.7,6.8,1.4,10.9,0.3l2.4-0.7l7.5,4.4c-0.7,0.3-2.7,0.7-6.8-0.3c-1-0.3-1.7-0.3-2.4,0.3c-0.7,0.3-1.4,2,0,2.7
	c1,0.7,5.1,1.4,10.9-1.7l3.4,2l1.7-1L458.6,347z M436.8,339.8c-1.7-1-1.7-2.4-0.3-3.4l6.1,3.4C440.5,340.5,438.2,340.9,436.8,339.8z
	 M457.2,346.3l-7.1-4.1c2.4-0.7,5.1-0.7,6.8,0.7C458.9,343.9,458.9,345.3,457.2,346.3z"/>
<linearGradient id="SVGID_11_" gradientUnits="userSpaceOnUse" x1="421.809" y1="243.0059" x2="473.217" y2="243.0059" gradientTransform="matrix(1 0 0 -1 0 586)">
	<stop  offset="0" style="stop-color:#D88000"/>
	<stop  offset="1" style="stop-color:#FFAC33"/>
</linearGradient>
<path class="st26" d="M421.8,334.7c0,2,0,4.1,0,5.8c0,5.4,5.1,10.6,15,13.3c7.1,2,14.3,2,21.4,0c9.9-2.7,15-8.2,15-13.3
	c0-2,0-4.1,0-5.8C472.9,329.3,421.8,329.3,421.8,334.7z"/>
<linearGradient id="SVGID_12_" gradientUnits="userSpaceOnUse" x1="422.411" y1="239.516" x2="472.652" y2="239.516" gradientTransform="matrix(1 0 0 -1 0 586)">
	<stop  offset="0" style="stop-color:#D88F25"/>
	<stop  offset="1" style="stop-color:#EBA136"/>
</linearGradient>
<path class="st27" d="M424.2,340.9v5.8c-0.7-1-1.4-2-1.7-3.1v-5.4C422.8,338.8,423.5,339.8,424.2,340.9z M437.5,348.4v5.8
	c0.7,0,1.4,0.3,1.7,0.3v-5.8C438.5,348.7,437.8,348.4,437.5,348.4z M445,349.4v5.8c0.7,0,1.4,0,1.7,0v-5.8
	C446,349.4,445.3,349.4,445,349.4z M441.2,349v5.8c0.7,0,1.4,0.3,1.7,0.3v-5.8C442.2,349.4,441.6,349,441.2,349z M426.2,342.9v5.4
	c0.7,0.3,1,1,1.7,1.4v-5.8C427.3,343.9,426.6,343.6,426.2,342.9z M433.7,347.3v5.4c0.7,0.3,1.4,0.3,1.7,0.7v-5.8
	C434.7,347.7,434.1,347.3,433.7,347.3z M430,345.6v5.4c0.7,0.3,1,0.7,1.7,1v-5.4C431,346,430.3,346,430,345.6z M448.4,349.4v5.8
	c0.7,0,1.4,0,1.7,0v-5.8C449.7,349.4,449,349.4,448.4,349.4z M467.1,344.3v5.8c0.7-0.3,1.4-1,1.7-1.4v-5.4
	C468.4,343.2,467.8,343.6,467.1,344.3z M452.1,349.4v5.8c0.7,0,1.4,0,1.7-0.3V349C453.5,349,452.8,349.4,452.1,349.4z M470.8,340.9
	v5.8c0.7-1,1.4-2,1.7-3.4v-5.4C472.2,338.8,471.5,339.8,470.8,340.9z M463.3,346.3v5.4c0.7-0.3,1.4-0.7,1.7-1v-5.4
	C464.7,345.6,464,346,463.3,346.3z M459.6,347.7v5.8c0.7-0.3,1.4-0.3,1.7-0.7v-5.4C461,347.3,460.3,347.3,459.6,347.7z M455.9,348.7
	v5.8c0.7,0,1.4-0.3,1.7-0.3v-5.8C457.2,348.4,456.5,348.4,455.9,348.7z"/>
<path class="st6" d="M465.7,324.2c10.2,5.8,10.2,15,0,21.1c-9.9,5.8-26.2,5.8-36.4,0c-10.2-5.8-10.2-15,0-21.1
	C439.5,318,455.5,318.4,465.7,324.2z"/>
<path class="st7" d="M464,325.2c9.2,5.1,9.2,13.6,0,19.1c-9.2,5.4-23.8,5.4-33,0c-9.2-5.4-9.2-13.6,0-19.1
	C439.8,320.1,454.8,319.8,464,325.2z"/>
<path class="st8" d="M431.3,326.6c8.9-5.1,23.2-5.1,32.3,0c6.5,3.7,8.2,9.2,5.4,13.6c3.7-5.1,2-10.9-4.8-15c-9.2-5.1-23.8-5.1-33,0
	c-7.1,4.1-8.5,10.2-4.8,15C423.2,335.8,424.9,330.3,431.3,326.6z"/>
<path class="st8" d="M459.9,340.5c1.4-1,2.4-2.4,2.4-3.7v-1c0-1-0.7-2.4-2.7-3.4c-3.7-2-7.5-1.7-12.3-0.7l-2,0.7l-5.1-3.1
	c1,0,2.4,0,4.4,0.7c0.7,0.3,1.4,0.3,2-0.3c0.3-0.3,1-1,1-1.4v-1c0-0.3-0.3-0.7-0.7-1c-1.4-0.7-5.4-1-9.9,1.7l-2.7-1.4l-1.7,1v1
	l1.7,1c-1.4,1-2.4,2.4-2.4,3.4v1c0,1,0.7,2.4,2.7,3.4c3.1,1.7,6.8,1.4,10.9,0.3l2.4-0.7l6.1,3.4c-1,0-2.7,0-5.4-0.7
	c-1-0.3-1.7-0.3-2.4,0.3c-0.3,0.3-1,1-0.7,1.4v1c0,0.3,0.3,1,1,1.4c1,0.7,5.1,1.4,10.9-1.7l3.4,2l1.7-1v-1L459.9,340.5z
	 M437.5,332.7c-0.7-0.3-1-0.7-1-1c0-0.3,0.3-0.7,1-1l4.8,2.7C440.2,333.4,438.5,333.4,437.5,332.7z M446.3,342.6l0.3,0.3
	C446.3,342.6,446.3,342.6,446.3,342.6z M457.6,339.2l-5.4-3.1c2-0.3,3.7,0,5.4,1c0.7,0.3,1,0.7,1.4,1.4
	C458.6,338.5,458.2,338.8,457.6,339.2z"/>
<path class="st6" d="M459.3,340.2c3.1-1.7,5.4-5.1,0.7-7.8c-3.7-2-7.5-1.7-12.3-0.7l-2,0.7l-6.8-3.7c1-0.3,2.7-0.3,5.8,0.3
	c0.7,0.3,1.4,0.3,2-0.3c0.7-0.3,2-1.7,0.3-2.4c-1.4-0.7-5.4-1-9.9,1.7l-2.7-1.4l-1.7,1l2.7,1.4c-3.7,2.4-4.8,5.1-0.7,7.5
	c3.1,1.7,6.8,1.4,10.9,0.3l2.4-0.7l7.5,4.4c-0.7,0.3-2.7,0.7-6.8-0.3c-1-0.3-1.7-0.3-2.4,0.3c-0.7,0.3-1.4,2,0,2.7
	c1,0.7,5.1,1.4,10.9-1.7l3.4,2l1.7-1L459.3,340.2z M437.5,332.7c-1.7-1-1.7-2.4-0.3-3.4l6.1,3.4
	C441.2,333.4,438.8,333.7,437.5,332.7z M457.6,339.2l-7.2-4.1c2.4-0.7,5.1-0.7,6.8,0.7C459.6,336.8,459.3,338.1,457.6,339.2z"/>
<linearGradient id="SVGID_13_" gradientUnits="userSpaceOnUse" x1="480.379" y1="274.9516" x2="531.787" y2="274.9516" gradientTransform="matrix(1 0 0 -1 0 586)">
	<stop  offset="0" style="stop-color:#D88000"/>
	<stop  offset="1" style="stop-color:#FFAC33"/>
</linearGradient>
<path class="st28" d="M480.4,302.7c0,2,0,4.1,0,5.8c0,5.4,5.1,10.6,15,13.3c7.1,2,14.3,2,21.4,0c9.9-2.7,15-8.2,15-13.3
	c0-2,0-4.1,0-5.8C531.4,297.3,480.4,297.6,480.4,302.7z"/>
<linearGradient id="SVGID_14_" gradientUnits="userSpaceOnUse" x1="481.055" y1="271.355" x2="531.296" y2="271.355" gradientTransform="matrix(1 0 0 -1 0 586)">
	<stop  offset="0" style="stop-color:#D88F25"/>
	<stop  offset="1" style="stop-color:#EBA136"/>
</linearGradient>
<path class="st29" d="M482.8,309.2v5.8c-0.7-1-1.4-2-1.7-3.1v-5.4C481.4,307.2,482.1,308.2,482.8,309.2z M496,316.3v5.8
	c0.7,0,1.4,0.3,1.7,0.3v-5.8C497.1,316.7,496.4,316.7,496,316.3z M503.5,317.4v5.8c0.7,0,1.4,0,1.7,0v-5.8
	C504.5,317.7,503.9,317.7,503.5,317.4z M499.8,317v5.8c0.7,0,1.4,0.3,1.7,0.3v-5.8C500.8,317.4,500.1,317.4,499.8,317z M484.8,311.2
	v5.4c0.7,0.3,1,1,1.7,1.4v-5.8C485.8,311.9,485.1,311.6,484.8,311.2z M492.3,315.3v5.4c0.7,0.3,1.4,0.3,1.7,0.7v-5.8
	C493.3,315.7,492.6,315.7,492.3,315.3z M488.5,313.6v5.4c0.7,0.3,1,0.7,1.7,1v-5.4C489.6,314.3,489.2,314,488.5,313.6z M507.3,317.7
	v5.8c0.7,0,1.4,0,1.7,0v-5.8C508.3,317.7,507.6,317.7,507.3,317.7z M525.7,312.3v5.8c0.7-0.3,1.4-1,1.7-1.4v-5.4
	C527,311.2,526.3,311.9,525.7,312.3z M511,317.4v5.8c0.7,0,1.4,0,1.7-0.3V317C512,317,511.4,317.4,511,317.4z M529.4,308.9v5.8
	c0.7-1,1.4-2,1.7-3.4v-5.4C530.8,306.8,530.1,307.8,529.4,308.9z M521.9,314.3v5.4c0.7-0.3,1.4-0.7,1.7-1v-5.4
	C523.3,313.6,522.6,314,521.9,314.3z M518.2,315.7v5.8c0.7-0.3,1.4-0.3,1.7-0.7v-5.4C519.5,315.3,518.8,315.7,518.2,315.7z
	 M514.4,316.7v5.8c0.7,0,1.4-0.3,1.7-0.3v-5.8C515.8,316.3,515.1,316.7,514.4,316.7z"/>
<path class="st6" d="M506,317.7c14.1-0.1,25.5-6.8,25.5-15.1c0-8.3-11.5-14.9-25.6-14.9c-14.1,0.1-25.5,6.8-25.5,15.1
	C480.4,311.1,491.9,317.8,506,317.7z"/>
<path class="st7" d="M522.6,293.2c9.2,5.1,9.2,13.6,0,19.1c-9.2,5.4-23.8,5.4-33,0c-9.2-5.1-9.2-13.6,0-19.1
	C498.8,288.1,513.4,288.1,522.6,293.2z"/>
<path class="st8" d="M489.9,294.6c8.9-5.1,23.2-5.1,32.3,0c6.5,3.7,8.2,9.2,5.4,13.6c3.7-5.1,2-10.9-4.8-15c-9.2-5.1-23.8-5.1-33,0
	c-7.1,4.1-8.5,10.2-4.8,15C481.7,303.7,483.4,298.3,489.9,294.6z"/>
<path class="st8" d="M518.5,308.5c1.4-1,2.4-2.4,2.4-3.7v-1c0-1-0.7-2.4-2.7-3.4c-3.7-2-7.5-1.7-12.3-0.7l-2,0.7l-5.1-3.1
	c1,0,2.4,0,4.4,0.7c0.7,0.3,1.4,0.3,2-0.3c0.3-0.3,1-1,1-1.4v-1c0-0.3-0.3-0.7-0.7-1c-1.4-0.7-5.4-1-9.9,1.7l-2.7-1.4l-1.7,1v1
	l1.7,1c-1.4,1-2.4,2.4-2.4,3.4v1c0,1,0.7,2.4,2.7,3.4c3.1,1.7,6.8,1.4,10.9,0.3l2.4-0.7l6.1,3.4c-1,0-2.7,0-5.4-0.7
	c-1-0.3-1.7-0.3-2.4,0.3c-0.3,0.3-1,1-0.7,1.4v1c0,0.3,0.3,1,1,1.4c1,0.7,5.1,1.4,10.9-1.7l3.4,2l1.7-1v-1L518.5,308.5z M496,301
	c-0.7-0.3-1-0.7-1-1c0-0.3,0.3-0.7,1-1l4.8,2.7C498.8,301.7,497.1,301.7,496,301z M504.9,310.6l0.3,0.3
	C504.9,310.9,504.9,310.6,504.9,310.6z M516.1,307.2l-5.4-3.1c2-0.3,3.7,0,5.4,1c0.7,0.3,1,0.7,1.4,1.4
	C517.1,306.5,516.8,306.8,516.1,307.2z"/>
<path class="st6" d="M517.8,308.2c3.1-1.7,5.4-5.1,0.7-7.8c-3.7-2-7.5-1.7-12.3-0.7l-2,0.7l-6.8-3.7c1-0.3,2.7-0.3,5.8,0.3
	c0.7,0.3,1.4,0.3,2-0.3c0.7-0.3,2-1.7,0.3-2.4c-1.4-0.7-5.4-1-9.9,1.7l-2.7-1.4l-1.7,1l2.7,1.4c-3.7,2.4-4.8,5.1-0.7,7.5
	c3.1,1.7,6.8,1.4,10.9,0.3l2.4-0.7l7.5,4.4c-0.7,0.3-2.7,0.7-6.8-0.3c-1-0.3-1.7-0.3-2.4,0.3c-0.7,0.3-1.4,2,0,2.7
	c1,0.7,5.1,1.4,10.9-1.7l3.4,2l1.7-1L517.8,308.2z M496,301c-1.7-1-1.7-2.4-0.3-3.4l6.1,3.4C499.8,301.7,497.4,301.7,496,301z
	 M516.1,307.2l-7.1-4.1c2.4-0.7,5.1-0.7,6.8,0.7C518.2,304.8,517.8,306.1,516.1,307.2z"/>
<linearGradient id="SVGID_15_" gradientUnits="userSpaceOnUse" x1="471.358" y1="215.7006" x2="522.767" y2="215.7006" gradientTransform="matrix(1 0 0 -1 0 586)">
	<stop  offset="0" style="stop-color:#D88000"/>
	<stop  offset="1" style="stop-color:#FFAC33"/>
</linearGradient>
<path class="st30" d="M471.5,362c0,2,0,4.1,0,5.8c0,5.4,5.1,10.6,15,13.3c7.1,2,14.3,2,21.4,0c9.9-2.7,15-8.2,15-13.3
	c0-2,0-4.1,0-5.8C522.6,356.5,471.5,356.9,471.5,362z"/>
<linearGradient id="SVGID_16_" gradientUnits="userSpaceOnUse" x1="471.992" y1="212.1035" x2="522.233" y2="212.1035" gradientTransform="matrix(1 0 0 -1 0 586)">
	<stop  offset="0" style="stop-color:#D88F25"/>
	<stop  offset="1" style="stop-color:#EBA136"/>
</linearGradient>
<path class="st31" d="M473.9,368.4v5.8c-0.7-1-1.4-2-1.7-3.1v-5.4C472.5,366.4,472.9,367.4,473.9,368.4z M486.8,375.9v5.8
	c0.7,0,1.4,0.3,1.7,0.3v-5.8C488.2,375.9,487.5,375.9,486.8,375.9z M494.3,377v5.8c0.7,0,1.4,0,1.7,0V377
	C495.7,377,495,377,494.3,377z M490.6,376.6v5.8c0.7,0,1.4,0.3,1.7,0.3V377C491.9,376.6,491.3,376.6,490.6,376.6z M475.6,370.5v5.4
	c0.7,0.3,1,1,1.7,1.4v-5.8C477,371.2,476.3,370.8,475.6,370.5z M483.1,374.6v5.4c0.7,0.3,1.4,0.3,1.7,0.7v-5.8
	C484.5,374.9,483.8,374.9,483.1,374.6z M479.4,372.9v5.4c0.7,0.3,1,0.7,1.7,1v-5.4C480.7,373.6,480,373.2,479.4,372.9z M498.1,377
	v5.8c0.7,0,1.4,0,1.7,0V377C499.4,377,498.8,377,498.1,377z M516.8,371.5v5.8c0.7-0.3,1.4-1,1.7-1.4v-5.4
	C518.2,370.8,517.5,371.2,516.8,371.5z M501.8,376.6v5.8c0.7,0,1.4,0,1.7-0.3v-5.8C503.2,376.6,502.5,376.6,501.8,376.6z
	 M520.5,368.1v5.8c0.7-1,1.4-2,1.7-3.4V365C521.9,366.1,521.2,367.1,520.5,368.1z M513.1,373.6v5.4c0.7-0.3,1.4-0.7,1.7-1v-5.4
	C514.1,373.2,513.7,373.2,513.1,373.6z M509.3,374.9v5.8c0.7-0.3,1.4-0.3,1.7-0.7v-5.4C510.3,374.6,510,374.9,509.3,374.9z
	 M505.6,375.9v5.8c0.7,0,1.4-0.3,1.7-0.3v-5.8C506.9,375.9,506.2,375.9,505.6,375.9z"/>
<path class="st6" d="M515.1,351.4c10.2,5.8,10.2,15,0,21.1c-9.9,5.8-26.2,5.8-36.4,0c-10.2-5.8-10.2-15,0-21.1
	C488.9,346,505.2,346,515.1,351.4z"/>
<path class="st7" d="M513.4,352.4c9.2,5.1,9.2,13.6,0,19.1c-9.2,5.4-23.8,5.4-33,0c-9.2-5.1-9.2-13.6,0-19.1
	C489.6,347.3,504.5,347.3,513.4,352.4z"/>
<path class="st8" d="M481.1,353.8c8.9-5.1,23.2-5.1,32.3,0c6.5,3.7,8.2,9.2,5.4,13.6c3.7-5.1,2-10.9-4.8-15c-9.2-5.1-23.8-5.1-33,0
	c-7.1,4.1-8.5,10.2-4.8,15C472.9,363,474.6,357.6,481.1,353.8z"/>
<path class="st8" d="M509.7,368.1c1.4-1,2.4-2.4,2.4-3.7v-1c0-1-0.7-2.4-2.7-3.4c-3.7-2-7.5-1.7-12.3-0.7l-2,0.7l-5.1-3.1
	c1,0,2.4,0,4.4,0.7c0.7,0.3,1.4,0.3,2-0.3c0.3-0.3,1-1,1-1.4v-1c0-0.3-0.3-0.7-0.7-1c-1.4-0.7-5.4-1-9.9,1.7l-2.7-1.4l-1.7,1v1
	l1.7,1c-1.4,1-2.4,2.4-2.4,3.4v1c0,1,0.7,2.4,2.7,3.4c3.1,1.7,6.8,1.4,10.9,0.3l2.4-0.7l6.1,3.4c-1,0-2.7,0-5.4-0.7
	c-1-0.3-1.7-0.3-2.4,0.3c-0.3,0.3-1,1-0.7,1.4v1c0,0.3,0.3,1,1,1.4c1,0.7,5.1,1.4,10.9-1.7l3.4,2l1.7-1v-1L509.7,368.1z
	 M486.8,360.3c-0.7-0.3-1-0.7-1-1c0-0.3,0.3-0.7,1-1l4.8,2.7C489.9,361,488.2,361,486.8,360.3z M495.7,369.8l0.3,0.3
	C496,370.2,496,369.8,495.7,369.8z M507.3,366.7l-5.4-3.1c2-0.3,3.7,0,5.4,1c0.7,0.3,1,0.7,1.4,1.4
	C508.3,365.7,508,366.4,507.3,366.7z"/>
<path class="st6" d="M508.6,367.4c3.1-1.7,5.4-5.1,0.7-7.8c-3.7-2-7.5-1.7-12.3-0.7l-2,0.7l-6.8-3.7c1-0.3,2.7-0.3,5.8,0.3
	c0.7,0.3,1.4,0.3,2-0.3c0.7-0.3,2-1.7,0.3-2.4c-1.4-0.7-5.4-1-9.9,1.7l-2.7-1.4l-1.7,1l2.7,1.4c-3.7,2.4-4.8,5.1-0.7,7.5
	c3.1,1.7,6.8,1.4,10.9,0.3l2.4-0.7l7.5,4.4c-0.7,0.3-2.7,0.7-6.8-0.3c-1-0.3-1.7-0.3-2.4,0.3c-0.7,0.3-1.4,2,0,2.7
	c1,0.7,5.1,1.4,10.9-1.7l3.4,2l1.7-1L508.6,367.4z M486.8,360.3c-1.7-1-1.7-2.4-0.3-3.4l6.1,3.4C490.6,361,488.5,361,486.8,360.3z
	 M507.3,366.7l-7.1-4.1c2.4-0.7,5.1-0.7,6.8,0.7C509,364.4,509,365.7,507.3,366.7z"/>
<linearGradient id="SVGID_17_" gradientUnits="userSpaceOnUse" x1="468.125" y1="222.5744" x2="519.533" y2="222.5744" gradientTransform="matrix(1 0 0 -1 0 586)">
	<stop  offset="0" style="stop-color:#D88000"/>
	<stop  offset="1" style="stop-color:#FFAC33"/>
</linearGradient>
<path class="st32" d="M468.1,355.2c0,2,0,4.1,0,5.8c0,5.4,5.1,10.6,15,13.3c7.1,2,14.3,2,21.4,0c9.9-2.7,15-8.2,15-13.3
	c0-2,0-4.1,0-5.8C519.2,349.7,468.1,349.7,468.1,355.2z"/>
<linearGradient id="SVGID_18_" gradientUnits="userSpaceOnUse" x1="468.709" y1="218.914" x2="518.95" y2="218.914" gradientTransform="matrix(1 0 0 -1 0 586)">
	<stop  offset="0" style="stop-color:#D88F25"/>
	<stop  offset="1" style="stop-color:#EBA136"/>
</linearGradient>
<path class="st33" d="M470.5,361.6v5.8c-0.7-1-1.4-2-1.7-3.1v-5.4C469.1,359.6,469.8,360.6,470.5,361.6z M483.8,368.8v5.8
	c0.7,0,1.4,0.3,1.7,0.3v-5.8C484.8,369.1,484.1,369.1,483.8,368.8z M490.9,369.8v5.8c0.7,0,1.4,0,1.7,0v-5.8
	C492.3,370.2,491.6,369.8,490.9,369.8z M487.5,369.5v5.8c0.7,0,1.4,0.3,1.7,0.3v-5.8C488.5,369.8,487.9,369.8,487.5,369.5z
	 M472.5,363.7v5.4c0.7,0.3,1,1,1.7,1.4v-5.8C473.6,364.4,472.9,364,472.5,363.7z M480,367.8v5.4c0.7,0.3,1.4,0.3,1.7,0.7v-5.8
	C481.1,368.1,480.4,368.1,480,367.8z M476.3,366.1v5.4c0.7,0.3,1,0.7,1.7,1v-5.4C477.3,366.7,476.6,366.4,476.3,366.1z M494.7,370.1
	v5.8c0.7,0,1.4,0,1.7,0v-5.8C496,369.8,495.4,370.1,494.7,370.1z M513.4,364.7v5.8c0.7-0.3,1.4-1,1.7-1.4v-5.4
	C514.8,363.7,514.1,364.4,513.4,364.7z M498.4,369.8v5.8c0.7,0,1.4,0,1.7-0.3v-5.8C499.8,369.5,499.1,369.8,498.4,369.8z
	 M517.1,361.3v5.8c0.7-1,1.4-2,1.7-3.4v-5.4C518.5,359.3,517.8,360.3,517.1,361.3z M509.7,366.7v5.4c0.7-0.3,1.4-0.7,1.7-1v-5.4
	C511,366.1,510.3,366.4,509.7,366.7z M505.9,368.1v5.8c0.7-0.3,1.4-0.3,1.7-0.7v-5.4C507.3,367.8,506.6,368.1,505.9,368.1z
	 M502.2,369.1v5.8c0.7,0,1.4-0.3,1.7-0.3v-5.8C503.5,368.8,502.8,369.1,502.2,369.1z"/>
<path class="st6" d="M512,344.6c10.2,5.8,10.2,15,0,21.1c-9.9,5.8-26.2,5.8-36.4,0c-10.2-5.8-10.2-15,0-21.1
	C485.5,339.2,501.8,338.8,512,344.6z"/>
<path class="st7" d="M493.7,368.8c13-0.1,23.5-6.2,23.4-13.7c0-7.5-10.6-13.6-23.5-13.5c-13,0.1-23.5,6.2-23.4,13.7
	C470.2,362.8,480.7,368.8,493.7,368.8z"/>
<path class="st8" d="M477.7,347c8.9-5.1,23.2-5.1,32.3,0c6.5,3.7,8.2,9.2,5.4,13.6c3.7-5.1,2-10.9-4.8-15c-9.2-5.1-23.8-5.1-33,0
	c-7.1,4.1-8.5,10.2-4.8,15C469.5,356.2,471.2,350.7,477.7,347z"/>
<path class="st8" d="M506.3,361c1.4-1,2.4-2.4,2.4-3.7v-1c0-1-0.7-2.4-2.7-3.4c-3.7-2-7.5-1.7-12.3-0.7l-2,0.7l-5.1-3.1
	c1,0,2.4,0,4.4,0.7c0.7,0.3,1.4,0.3,2-0.3c0.3-0.3,1-1,1-1.4v-1c0-0.3-0.3-0.7-0.7-1c-1.4-0.7-5.4-1-9.9,1.7l-2.7-1.4l-1.7,1v1
	l1.7,1c-1.4,1-2.4,2.4-2.4,3.4v1c0,1,0.7,2.4,2.7,3.4c3.1,1.7,6.8,1.4,10.9,0.3l2.4-0.7l6.1,3.4c-1,0-2.7,0-5.4-0.7
	c-1-0.3-1.7-0.3-2.4,0.3c-0.3,0.3-1,1-0.7,1.4v1c0,0.3,0.3,1,1,1.4c1,0.7,5.1,1.4,10.9-1.7l3.4,2l1.7-1v-1L506.3,361z M483.4,353.1
	c-0.7-0.3-1-0.7-1-1c0-0.3,0.3-0.7,1-1l4.8,2.7C486.5,354.1,484.8,354.1,483.4,353.1z M492.6,363l0.3,0.3
	C492.6,363,492.6,363,492.6,363z M503.9,359.6l-5.4-3.1c2-0.3,3.7,0,5.4,1c0.7,0.3,1,0.7,1.4,1.4
	C504.9,358.9,504.6,359.3,503.9,359.6z"/>
<path class="st6" d="M505.6,360.6c3.1-1.7,5.4-5.1,0.7-7.8c-3.7-2-7.5-1.7-12.3-0.7l-2,0.7l-6.8-3.7c1-0.3,2.7-0.3,5.8,0.3
	c0.7,0.3,1.4,0.3,2-0.3c0.7-0.3,2-1.7,0.3-2.4c-1.4-0.7-5.4-1-9.9,1.7l-2.7-1.4l-1.7,1l2.7,1.4c-3.7,2.4-4.8,5.1-0.7,7.5
	c3.1,1.7,6.8,1.4,10.9,0.3l2.4-0.7l7.5,4.4c-0.7,0.3-2.7,0.7-6.8-0.3c-1-0.3-1.7-0.3-2.4,0.3c-0.7,0.3-1.4,2,0,2.7
	c1,0.7,5.1,1.4,10.9-1.7l3.4,2l1.7-1L505.6,360.6z M483.4,353.1c-1.7-1-1.7-2.4-0.3-3.4l6.1,3.4
	C487.5,354.1,485.1,354.1,483.4,353.1z M503.9,359.6l-7.1-4.1c2.4-0.7,5.1-0.7,6.8,0.7C505.9,357.2,505.6,358.6,503.9,359.6z"/>
<path class="st34" d="M308.1,501.6L75.6,367.1V345l232.5,46V501.6z"/>
<path class="st35" d="M472.9,406.6l-164.8,95V390.9l164.8-6.5V406.6z"/>
<path class="st14" d="M472.9,384.5l-164.8,95L75.6,345l164.4-95L472.9,384.5z"/>
<path class="st36" d="M248.5,334.1l-3.1,0.3l1.7,1l-30.6,17.7l1.4,1l30.6-17.7l1.7,1l0.7-2l1-1.7L248.5,334.1z"/>
<path class="st37" d="M238.6,359.9l1-2l1.7,1l30.6-17.7l1.4,1l-30.3,17.7l1.4,1l-3.4,0.3l-3.1,0.3L238.6,359.9z"/>
<path class="st37" d="M197.5,373.6l1,2l1.4-1l24.5,14l1.7-0.7l-24.5-14.3l1.7-0.7l-3.4-0.7l-3.4-0.3L197.5,373.6z"/>
<path class="st36" d="M289.7,323.2l-3.1-0.3l1.7-1l-24.5-14.3l1.7-0.7l24.2,14l1.7-1l0.7,2l1,2L289.7,323.2z"/>
<path class="st36" d="M221.3,354.8l-52.8,30.6l-25.2-14.3l53.1-30.6L221.3,354.8z"/>
<path class="st36" d="M310.8,303.4l-53.1,30.6l-24.9-14.6l52.8-30.3L310.8,303.4z"/>
<path class="st37" d="M202.9,344.3l-6.5-3.7l-53.1,30.6l6.5,3.7L202.9,344.3z"/>
<path class="st37" d="M292.1,292.9l-6.5-3.7l-52.8,30.3l6.5,3.7L292.1,292.9z"/>
<path class="st36" d="M257.4,375.6l-53.1,30.6l-24.9-14.3l53.1-30.6L257.4,375.6z"/>
<path class="st36" d="M346.6,324.2l-52.8,30.6l-25.2-14.6l53.1-30.3L346.6,324.2z"/>
<path class="st37" d="M239,365l-6.5-3.7l-53.1,30.6l6.5,3.7L239,365z"/>
<path class="st37" d="M328.2,313.6l-6.5-3.7l-53.1,30.3l6.5,3.7L328.2,313.6z"/>
<path class="st38" d="M248.2,430.8l-0.7,0.3l-6.1-3.4l0.7-0.7L248.2,430.8z"/>
<path class="st38" d="M256.4,435.2l-1,0.3l-6.1-3.4l0.7-0.7L256.4,435.2z"/>
<path class="st38" d="M264.2,439.6l-1,0.7l-6.1-3.7l0.7-0.3L264.2,439.6z"/>
<path class="st38" d="M272,444.4l-1,0.3l-6.1-3.4l0.7-0.7L272,444.4z"/>
<path class="st38" d="M279.8,448.8l-1,0.3l-6.1-3.4l0.7-0.7L279.8,448.8z"/>
<path class="st38" d="M287.7,453.2l-1,0.7l-6.1-3.7l1-0.3L287.7,453.2z"/>
<path class="st39" d="M308.8,394.7l-59.2,34.4l-4.4-2.7l59.2-34.1L308.8,394.7z"/>
<path class="st36" d="M310.2,402.8l-52.8,30.6l-4.4-2.7l52.8-30.3L310.2,402.8z"/>
<path class="st36" d="M289.4,424l-24.2,14l-4.4-2.4l24.2-14L289.4,424z"/>
<path class="st40" d="M315.3,418.2L273,442.7l-4.4-2.7l42.2-24.5L315.3,418.2z"/>
<path class="st41" d="M320.4,424.3l-39.5,22.8l-4.4-2.7l39.5-22.8L320.4,424.3z"/>
<path class="st36" d="M320.4,433.5l-31.7,18l-4.4-2.4l31.7-18.4L320.4,433.5z"/>
<path class="st36" d="M291.4,421.2c1.1,0,2-0.5,2-1c0-0.6-0.9-1-2-1c-1.1,0-2,0.5-2,1C289.4,420.8,290.3,421.2,291.4,421.2z"/>
<path class="st40" d="M319,413.4c0.7,0.3,0.7,1,0,1.7c-0.7,0.3-2,0.3-2.7,0c-0.7-0.3-0.7-1,0-1.7C317,413.1,318,413.1,319,413.4z"/>
<path class="st41" d="M324.1,419.5c0.7,0.3,0.7,1,0,1.7c-0.7,0.3-2,0.3-2.7,0c-0.7-0.3-0.7-1,0-1.7
	C322.1,419.2,323.4,419.2,324.1,419.5z"/>
<path class="st39" d="M311.9,390.2c0.7,0.3,0.7,1,0,1.7c-0.7,0.3-2,0.3-2.7,0c-0.7-0.3-0.7-1,0-1.7
	C309.8,389.9,311.2,389.9,311.9,390.2z"/>
<path class="st36" d="M323.8,429.1c0.7,0.3,0.7,1,0,1.7c-0.7,0.3-2,0.3-2.7,0c-0.7-0.3-0.7-1,0-1.7S323.1,428.4,323.8,429.1z"/>
<path class="st36" d="M313.6,398.4c0.7,0.3,0.7,1,0,1.7c-0.7,0.3-2,0.3-2.7,0c-0.7-0.3-0.7-1,0-1.7
	C311.5,398.1,312.9,398.1,313.6,398.4z"/>
<path class="st38" d="M125.6,356.5l-1.4,1l-18.7-10.9l1.4-1L125.6,356.5z"/>
<path class="st37" d="M127.3,355.5l-1.7,1l-16.7-9.5l1.7-1L127.3,355.5z"/>
<path class="st38" d="M131.8,353.1l-1.7,0.7l-17.7-10.2l1.7-1L131.8,353.1z"/>
<path class="st37" d="M133.5,352.1l-1.7,1l-19.4-11.2l1.7-1L133.5,352.1z"/>
<path class="st38" d="M137.9,349.4l-1.7,1l-22.1-12.9l1.4-1L137.9,349.4z"/>
<path class="st37" d="M139.6,348.4l-1.7,1l-11.6-6.5l1.7-1L139.6,348.4z"/>
<path class="st38" d="M144,346l-1.7,0.7l-20.4-11.9l1.4-0.7L144,346z"/>
<path class="st37" d="M145.7,345l-1.7,1L125,335.1l1.7-1L145.7,345z"/>
<path class="st38" d="M162.4,335.4l-1.7,0.7l-21.1-11.9l1.7-1L162.4,335.4z"/>
<path class="st37" d="M163.8,334.4l-1.4,1l-13.3-7.8l1.7-0.7L163.8,334.4z"/>
<path class="st38" d="M168.5,331.7l-1.7,1l-17-9.9l1.7-0.7L168.5,331.7z"/>
<path class="st37" d="M169.9,331l-1.4,0.7l-14.3-8.2l1.7-0.7L169.9,331z"/>
<path class="st38" d="M174.7,328.3l-1.7,1L146.7,314l1.7-0.7L174.7,328.3z"/>
<path class="st37" d="M176,327.2l-1.4,1L151.5,315l1.7-1L176,327.2z"/>
<path class="st38" d="M180.8,324.9l-1.7,0.7l-23.8-13.6l1.7-1L180.8,324.9z"/>
<path class="st37" d="M182.1,323.8l-1.7,1L160,312.9l1.4-1L182.1,323.8z"/>
<path class="st38" d="M186.9,321.1l-1.7,1l-17-9.9l1.4-1L186.9,321.1z"/>
<path class="st37" d="M188.3,320.4l-1.7,0.7l-19.1-10.9l1.4-1L188.3,320.4z"/>
<path class="st38" d="M150.1,342.2l-1.7,1l-7.1-4.1l1.4-1L150.1,342.2z"/>
<path class="st37" d="M151.8,341.5l-1.7,1l-12.9-7.5l1.4-1L151.8,341.5z"/>
<path class="st38" d="M156.3,338.8l-1.7,1l-7.1-4.4l1.4-0.7L156.3,338.8z"/>
<path class="st37" d="M157.6,337.8l-1.4,1l-5.4-3.1l1.7-1L157.6,337.8z"/>
<path class="st38" d="M191.3,320.1l-68.1,39.2l-1.4-0.7l68.1-39.2L191.3,320.1z"/>
<path class="st38" d="M200.9,313.3l-1.7,0.7l-10.2-5.8l1.4-1L200.9,313.3z"/>
<path class="st37" d="M202.2,312.3l-1.4,1l-8.5-4.8l1.7-1L202.2,312.3z"/>
<path class="st38" d="M207,309.5l-1.7,1l-3.7-2.4l1.4-0.7L207,309.5z"/>
<path class="st37" d="M208.4,308.9l-1.7,0.7l-5.1-3.1l1.4-1L208.4,308.9z"/>
<path class="st38" d="M213.1,306.1l-1.7,0.7l-11.9-6.8l1.7-0.7L213.1,306.1z"/>
<path class="st37" d="M214.5,305.1l-1.7,1l-5.8-3.4l1.7-1L214.5,305.1z"/>
<path class="st38" d="M218.9,302.4l-1.4,1l-4.1-2.4l1.4-0.7L218.9,302.4z"/>
<path class="st37" d="M220.6,301.7l-1.7,1l-6.5-4.1l1.4-1L220.6,301.7z"/>
<path class="st38" d="M237.3,291.8l-1.4,1l-21.8-12.6l1.7-0.7L237.3,291.8z"/>
<path class="st37" d="M239,291.1l-1.7,0.7l-19.7-11.2l1.7-1L239,291.1z"/>
<path class="st38" d="M243.4,288.4l-1.4,1l-27.6-16l1.4-1L243.4,288.4z"/>
<path class="st37" d="M245.1,287.4l-1.7,1l-26.2-15l1.7-1L245.1,287.4z"/>
<path class="st38" d="M249.6,285l-1.4,0.7l-20.4-11.6l1.7-1L249.6,285z"/>
<path class="st37" d="M251.3,284l-1.7,1l-17.7-10.2l1.7-1L251.3,284z"/>
<path class="st38" d="M255.7,281.3l-1.4,1l-15.7-9.2l1.4-0.7L255.7,281.3z"/>
<path class="st37" d="M257.4,280.6l-1.7,0.7l-12.6-7.2l1.7-1L257.4,280.6z"/>
<path class="st38" d="M261.8,277.9l-1.4,1l-7.8-4.8l1.4-0.7L261.8,277.9z"/>
<path class="st37" d="M263.5,276.8l-1.7,1l-6.8-4.1l1.7-0.7L263.5,276.8z"/>
<path class="st38" d="M225,299l-1.4,1l-12.9-7.5l1.4-1L225,299z"/>
<path class="st37" d="M226.7,298l-1.7,1l-15-8.5l1.7-1L226.7,298z"/>
<path class="st38" d="M231.2,295.6l-1.4,0.7l-12.6-7.2l1.7-0.7L231.2,295.6z"/>
<path class="st37" d="M232.9,294.6l-1.7,1l-10.2-6.1l1.4-1L232.9,294.6z"/>
<path class="st38" d="M266.6,276.8L198.5,316l-1.4-0.7l67.8-39.5L266.6,276.8z"/>
<path class="st37" d="M377.9,351.4c-21.8-1.4-41.5,7.5-43.9,20.1s13.3,23.8,35.1,25.2s41.5-7.5,43.9-20.1S399.7,352.8,377.9,351.4z
	 M395.6,375.6c-1.4,7.2-12.3,12.3-24.5,11.2c-12.3-0.7-21.1-7.2-19.7-14.3c1.4-7.2,12.3-12.3,24.5-11.2
	C388.1,362.3,397,368.4,395.6,375.6z"/>
<path class="st37" d="M410.2,376.6c2.4-11.6-12.3-22.1-32.3-23.5c-20.1-1.4-38.5,7.2-40.9,18.7s12.3,22.1,32.3,23.5
	C389.5,396.7,407.9,388.2,410.2,376.6z M344.2,372.2c1.7-9.2,16.3-16,32.7-15c16,1,27.9,9.5,25.9,18.7c-1.7,9.2-16.3,16-32.7,15
	C354.1,389.9,342.5,381.4,344.2,372.2z"/>
<path class="st36" d="M375.2,357.2c0,0,5.1,0.3,6.5,0.7l2.4-4.1c-2-0.3-8.2-1-9.2-1c-4.8,0-11.2,0.7-15.7,1.7l3.1,4.1
	C366,357.6,371.4,357.2,375.2,357.2z"/>
<path class="st41" d="M345.6,369.1l0.3-0.3c2.7-4.4,8.5-8.2,15.7-10.2l-3.1-4.1c-9.2,2.4-16,6.1-20.1,12.3c0,0-2,3.7-1.4,4.4
	l7.5,0.3C344.5,370.8,345.2,370.2,345.6,369.1z"/>
<path class="st40" d="M402.8,372.2l7.5-0.3c-1-4.8-4.8-9.2-10.6-12.6l-1.4-0.7c-3.7-2-8.2-3.4-13.3-4.4l-2.4,4.1
	c3.7,0.7,7.5,2,10.2,3.4l2,1.4C395.6,363,401.4,366.4,402.8,372.2z"/>
<path class="st39" d="M380.3,395l-1.4-4.1c-2.7,0.3-5.8,0.3-8.5,0.3c-9.5-0.7-17.7-3.7-22.1-8.5l-1.4-1.7c-2-2.7-2.7-5.4-2.4-8.5
	l-7.5-0.3c-0.7,3.7,0.7,7.5,3.1,10.9l0.3,1l1.4,0.7c5.8,5.8,15.7,9.9,27.9,10.6C373.1,395.4,376.5,395.4,380.3,395z"/>
<path class="st37" d="M410.9,376.6c2.4-11.9-12.6-22.8-33.4-24.2c-20.8-1.4-39.5,7.2-41.9,19.1c-2.4,11.9,12.6,22.8,33.4,24.2
	C389.8,397.1,408.5,388.5,410.9,376.6z M337.1,371.9c2.4-11.6,20.4-20.1,40.9-18.7c20.1,1.4,34.7,11.9,32.3,23.5
	s-20.4,20.1-40.9,18.7S334.7,383.4,337.1,371.9z"/>
<path class="st37" d="M402.8,375.9c1.7-9.2-9.9-17.7-25.9-18.7c-16-1-30.6,5.8-32.7,15c-1.7,9.2,9.9,17.7,25.9,18.7
	C386.4,391.9,401.1,385.5,402.8,375.9z M345.2,372.2c1.7-9.2,16-15.7,31.7-14.6c15.7,1,26.9,9.2,25.2,18.4
	c-1.7,9.2-16,15.7-31.7,14.6C354.8,389.6,343.5,381.4,345.2,372.2z"/>
<path class="st36" d="M410.2,376.6c0.3-1.4,0.3-2.7,0-4.1l-7.1,0.3c0,1,0,2,0,3.1c-1.4,7.2-10.9,13.3-23.2,14.6l1.4,4.1
	C396.6,393,408.2,385.5,410.2,376.6z"/>
<path class="st37" d="M187.2,338.1l-50.4,28.9l-7.1-4.1l50.4-29.3L187.2,338.1z"/>
<path class="st41" d="M141.6,364.4l-4.8,2.7l-7.1-4.1l4.8-2.7L141.6,364.4z"/>
<path class="st37" d="M233.2,311.6l-50.4,28.9l-7.1-4.1l50.4-29.3L233.2,311.6z"/>
<path class="st40" d="M187.6,337.8l-4.8,2.7l-7.1-4.1l4.8-2.7L187.6,337.8z"/>
<path class="st37" d="M279.5,284.7L228.8,314l-7.1-4.1l50.4-29.3L279.5,284.7z"/>
<path class="st39" d="M233.5,311.2l-4.8,2.7l-7.1-4.1l4.8-2.7L233.5,311.2z"/>
<path class="st38" d="M300.6,459c1,0.7,1,1.4,0,2c-1,0.7-2.4,0.7-3.4,0c-1-0.7-1-1.4,0-2C298.2,458.7,299.6,458.7,300.6,459z"/>
<path class="st38" d="M308.5,463.8c1,0.7,1,1.4,0,2c-1,0.7-2.4,0.7-3.4,0c-1-0.7-1-1.4,0-2C306.1,463.1,307.8,463.1,308.5,463.8z"/>
<path class="st38" d="M378.9,414.1c1,0.7,1,1.4,0,2c-1,0.7-2.4,0.7-3.4,0s-1-1.4,0-2S377.9,413.4,378.9,414.1z"/>
<path class="st38" d="M386.8,418.5c1,0.7,1,1.4,0,2c-1,0.7-2.4,0.7-3.4,0s-1-1.4,0-2C384.4,418.2,386.1,418.2,386.8,418.5z"/>
<path class="st38" d="M342.8,436.9l4.8-2.7l-0.7-0.3l-4.8,2.7L342.8,436.9z M321.7,448.8l10.6-6.1l-0.7-0.3l-10.6,6.1L321.7,448.8z
	 M333.3,442.3l8.9-5.1l-0.7-0.3l-8.9,5.1L333.3,442.3z M321,449.5l-0.7-0.3l-15,8.5l0.7,0.3L321,449.5z M348.3,433.5l6.8-3.7
	l-0.7-0.3l-6.8,3.7L348.3,433.5z M303.7,456.6l5.1-2.7l-0.7-0.3l-5.1,2.7L303.7,456.6z M346.9,430.8l0.7,0.3l5.8-3.4l-0.7-0.3
	L346.9,430.8z M336,437.9l10.6-6.1l-0.7-0.3l-10.6,6.1L336,437.9z M330.6,441l4.8-2.7l-0.7-0.3l-4.8,2.7L330.6,441z M323.8,445.1
	l5.8-3.4l-0.7-0.3l-5.8,3.4L323.8,445.1z M309.5,453.2l13.6-7.8l-0.7-0.3l-13.6,7.8L309.5,453.2z"/>
<path class="st38" d="M337.7,444.7l0.7,0.3l8.9-5.1l-0.7-0.3L337.7,444.7z M337.4,445.7l-0.7-0.3l-10.6,6.1l0.7,0.3L337.4,445.7z
	 M339.4,446.8l0.7,0.3l5.8-3.4l-0.7-0.3L339.4,446.8z M345.9,442.7l0.7,0.3l4.8-2.7l-0.7-0.3L345.9,442.7z M362.2,433.5l-10.6,6.1
	l0.7,0.3l10.6-6.1L362.2,433.5z M324.8,455.6l-0.7-0.3l-11.2,6.5l0.7,0.3L324.8,455.6z M357.1,433.8l-9.5,5.4l0.7,0.3l9.5-5.4
	L357.1,433.8z M326.2,452.2l-0.7-0.3l-15,8.9l0.7,0.3L326.2,452.2z M357.8,433.1l0.7,0.3l5.8-3.4h-0.7L357.8,433.1z M339.1,447.5
	l-0.7-0.3l-13.6,7.8l0.7,0.3L339.1,447.5z"/>
<path class="st38" d="M400,403.5l10.6-6.1l-0.7-0.3l-10.6,6.1L400,403.5z M411.3,397.1l8.9-5.1l-0.7-0.3l-8.9,5.1L411.3,397.1z
	 M399,403.9l-0.7-0.3l-15,8.5l0.7,0.3L399,403.9z M382,411.4l4.8-2.7l-0.7-0.3l-4.8,2.7L382,411.4z M424.9,385.5l0.7,0.3l5.8-3.4
	l-0.7-0.3L424.9,385.5z M414.3,392.6l10.6-6.1l-0.7-0.3l-10.6,6.1L414.3,392.6z M408.5,395.7l4.8-2.7l-0.7-0.3l-4.8,2.7L408.5,395.7
	z M402.1,399.8l5.8-3.4l-0.7-0.3l-5.8,3.4L402.1,399.8z M387.8,407.9l13.6-7.8l-0.7-0.3l-13.6,7.8L387.8,407.9z"/>
<path class="st38" d="M422.5,396l0.7,0.3l8.9-5.1l-0.7-0.3L422.5,396z"/>
<path class="st38" d="M414.3,403.5l0.7,0.3l5.8-3.1l-0.7-0.7L414.3,403.5z"/>
<path class="st38" d="M421.8,396.7l-10.6,6.1l0.3,0.3l10.6-6.1L421.8,396.7z"/>
<path class="st38" d="M430.3,394.7l-9.2,5.1l0.7,0.3l8.9-5.1L430.3,394.7z"/>
<path class="st38" d="M410.9,403.5l-0.7-0.3l-21.1,12.3l0.7,0.3L410.9,403.5z"/>
<path class="st38" d="M432,390.6l0.7,0.3l4.8-2.7l-0.7-0.3L432,390.6z"/>
<path class="st38" d="M399.7,412.7l-0.3-0.3l-7.8,4.4l0.7,0.3L399.7,412.7z"/>
<path class="st38" d="M413.6,404.2L400,412l0.7,0.3l13.6-7.8L413.6,404.2z"/>
<path class="st38" d="M437.8,387.5l0.7,0.3l3.7-2.4l-0.7-0.3L437.8,387.5z"/>
<path class="st38" d="M279.5,399.4l-1-0.3l19.7-11.2l1,0.3L279.5,399.4z M274.1,402.2l-1-0.3l3.7-2l1,0.3L274.1,402.2z M251.3,415.4
	l-1-0.3l21.4-12.3l1,0.3L251.3,415.4z M235.9,424.3l-1-0.3l13.6-7.8l1,0.3L235.9,424.3z M282.9,390.6l19.7-11.2l1,0.3l-19.7,11.2
	L282.9,390.6z M304.4,378.3l8.5-4.8l1,0.3l-8.5,4.8L304.4,378.3z M278.5,394l-1-0.3l3.7-2l1,0.3L278.5,394z M255.7,407.3l-1-0.3
	l21.4-12.3l1,0.3L255.7,407.3z M230.8,421.6l-1-0.3l23.2-13.3l1,0.3L230.8,421.6z M356.8,343.2l-1-0.3l11.6-6.8l1,0.3L356.8,343.2z
	 M341.1,352.4l-1-0.3l14.3-8.2l1,0.3L341.1,352.4z M331.3,358.2l-1-0.3l8.2-4.8l1,0.3L331.3,358.2z M315.9,367.1l-1-0.3l14-8.2
	l1,0.3L315.9,367.1z M301.3,375.3l-1-0.3l12.6-7.5l1,0.3L301.3,375.3z M284.6,385.1l-1-0.3l15.3-8.9l1,0.3L284.6,385.1z
	 M267.9,394.7l-1-0.3l15-8.9l1,0.3L267.9,394.7z M246.8,406.9l-1-0.3l19.4-11.2l1,0.3L246.8,406.9z M226.1,418.8l-1-0.3l19.1-10.9
	l1,0.3L226.1,418.8z M331.9,352.4l-1-0.3l31.7-18.4l1,0.3L331.9,352.4z M315.9,361.3l-1-0.3l14.3-8.2l1,0.3L315.9,361.3z
	 M298.9,371.2l-1-0.3l15.3-8.9l1,0.3L298.9,371.2z M290.7,375.9l-1-0.3l6.8-3.7l1,0.3L290.7,375.9z M280.9,381.7l-1-0.3l8.5-4.8
	l1,0.3L280.9,381.7z M259.8,394l-1-0.3l19.7-11.2l1,0.3L259.8,394z M254.3,397.1l-1-0.3l3.7-2l1,0.3L254.3,397.1z M231.5,410.3
	l-1-0.3l21.4-12.3l1,0.3L231.5,410.3z M221.3,416.1l-1-0.3l8.5-4.8l1,0.3L221.3,416.1z M354.8,333.7l-1-0.3l4.1-2.4l1,0.3
	L354.8,333.7z M347.3,338.1l-1-0.3l6.1-3.4l1,0.3L347.3,338.1z M331.3,347l-1-0.3l14.3-8.2l1,0.3L331.3,347z M314.2,356.9l-1-0.3
	l15.3-8.9l1,0.3L314.2,356.9z M306.1,361.6l-1-0.3l6.8-3.7l1,0.3L306.1,361.6z M291.8,369.8l-1-0.3l12.6-7.5l1,0.3L291.8,369.8z
	 M275.1,379.7l-1-0.3l15.3-8.9l1,0.3L275.1,379.7z M258.1,389.2l-1-0.3l15-8.9l1,0.3L258.1,389.2z M237.3,401.5l-1-0.3l19.4-11.2
	l1,0.3L237.3,401.5z M216.5,413.4l-1-0.3l19.1-10.9l1,0.3L216.5,413.4z M327.5,343.6l-1-0.3l26.6-15.3l1,0.3L327.5,343.6z
	 M311.9,352.8l-1-0.3l14.3-8.2l1,0.3L311.9,352.8z M294.8,362.7l-1-0.3l15.3-8.9l1,0.3L294.8,362.7z M286.7,367.4l-1-0.3l6.8-3.7
	l1,0.3L286.7,367.4z M276.8,373.2l-1-0.3l8.5-4.8l1,0.3L276.8,373.2z M255.3,385.5l-1-0.3l19.7-11.2l1,0.3L255.3,385.5z
	 M250.2,388.5l-1-0.3l3.7-2l1,0.3L250.2,388.5z M227.1,401.8l-1-0.3l21.4-12.3l1,0.3L227.1,401.8z M211.8,410.7l-1-0.3l13.6-7.8
	l1,0.3L211.8,410.7z"/>
<path class="st42" d="M238.7,302.7l-7.8,4.4l-0.7-0.3l7.5-4.4L238.7,302.7z"/>
<path class="st42" d="M243.1,300.3l-3.4,1.7l-0.7-0.3l3.1-2L243.1,300.3z"/>
<path class="st42" d="M238.7,306.8l-4.1,2.4l-1-0.3l4.1-2.7L238.7,306.8z"/>
<path class="st42" d="M249.2,300.7l-9.5,5.4l-0.7-0.7l9.2-5.1L249.2,300.7z"/>
<path class="st42" d="M255.7,296.9l-5.4,3.1l-0.7-0.7l5.1-2.7L255.7,296.9z"/>
<path class="st42" d="M193,328.9l-7.8,4.4l-0.7-0.3l7.5-4.4L193,328.9z"/>
<path class="st42" d="M197.5,326.6l-3.4,1.7l-0.7-0.3l3.1-1.7L197.5,326.6z"/>
<path class="st42" d="M193,333l-4.1,2.4l-1-0.3l4.1-2.4L193,333z"/>
<path class="st42" d="M203.6,326.9l-9.5,5.4l-0.7-0.3l9.2-5.4L203.6,326.9z"/>
<path class="st42" d="M210.1,323.2l-5.1,3.1l-1-0.3l5.1-3.1L210.1,323.2z"/>
<path class="st42" d="M147.4,355.5l-7.5,4.4l-1-0.7l7.5-4.4L147.4,355.5z"/>
<path class="st42" d="M151.8,352.8l-3.1,2l-1-0.7l3.1-1.7L151.8,352.8z"/>
<path class="st42" d="M147.4,359.6l-4.1,2.4l-1-0.7l4.1-2.4L147.4,359.6z"/>
<path class="st42" d="M158,353.5l-9.2,5.1l-1-0.3l9.5-5.4L158,353.5z"/>
<path class="st42" d="M164.4,349.7l-5.1,2.7l-1-0.3l5.1-3.1L164.4,349.7z"/>
<path class="st42" d="M292.8,301l2.7-1.7l-0.7-0.3l-2.7,1.7L292.8,301z M269,315l11.9-6.8l-0.7-0.3l-11.9,6.8L269,315z M281.9,307.5
	l9.9-5.8l-0.7-0.3l-9.9,5.8L281.9,307.5z M267.9,315.3l-0.7-0.3l-17,9.9l0.7,0.3L267.9,315.3z M248.2,323.5l5.4-3.4l-0.7-0.3
	l-5.4,3.4L248.2,323.5z M285,302.4l7.8-4.4l-0.7-0.3l-7.8,4.4L285,302.4z M278.8,306.1l5.4-3.1l-0.7-0.3l-5.4,3.1L278.8,306.1z
	 M271,310.6l6.8-3.7l-0.7-0.3l-6.8,3.7L271,310.6z M255,319.8l15.3-8.9l-0.7-0.3l-15.3,8.9L255,319.8z"/>
<path class="st42" d="M297.5,300.7l0.7,0.3l-6.5,3.7l-0.7-0.3L297.5,300.7z M281.9,312.9l0.7,0.3l6.8-3.7l-0.7-0.3L281.9,312.9z
	 M290.1,305.1l-11.9,6.8l0.7,0.3l11.9-6.8L290.1,305.1z M295.5,305.1l-6.1,3.4l0.7,0.3l6.1-3.4L295.5,305.1z M277.8,312.9l-0.7-0.3
	l-24.2,14l0.7,0.3L277.8,312.9z M265.2,323.5l-0.7-0.3l-8.5,5.1l0.7,0.3L265.2,323.5z M280.9,313.6l-15.3,8.9l0.7,0.3l15.3-8.9
	L280.9,313.6z"/>
<path class="st42" d="M216.5,387.5l19.4-11.2l-0.7-0.3l-19.4,11.2L216.5,387.5z M215.8,387.9l-0.7-0.3l-17,9.9l0.7,0.3L215.8,387.9z
	 M196.1,396l5.4-3.4l-0.7-0.3l-5.4,3.4L196.1,396z M226.4,378.7l5.4-3.1l-0.7-0.3l-5.4,3.1L226.4,378.7z M218.9,383.1l6.8-3.7
	L225,379l-6.8,3.7L218.9,383.1z M202.6,392.3l15.3-8.9l-0.7-0.3l-15.3,8.9L202.6,392.3z"/>
<path class="st42" d="M224.7,388.5l0.7,0.3l8.2-4.8l-0.7-0.3L224.7,388.5z M233.5,380l-7.5,4.4l0.7,0.3l7.5-4.4L233.5,380z
	 M225.7,385.5l-0.7-0.3l-24.2,14l0.7,0.3L225.7,385.5z M213.1,395.7l-0.7-0.3l-8.5,5.1l0.7,0.3L213.1,395.7z M223.7,388.9l-10.2,5.8
	l0.7,0.3l10.2-5.8L223.7,388.9z"/>
<path class="st42" d="M315.6,326.2l0.7,0.3l9.5-5.4l-0.7-0.3L315.6,326.2z M315.6,327.2l-0.7-0.3l-12.6,7.2l0.7,0.3L315.6,327.2z
	 M308.8,333.4l0.7,0.3l6.8-3.7l-0.7-0.3L308.8,333.4z M316.6,328.9l0.7,0.3l13.3-7.8l-0.7-0.3L316.6,328.9z M300.3,339.2l-0.7-0.3
	l-12.9,7.5l0.7,0.3L300.3,339.2z M328.5,318.7l-2.7,1.4l0.7,0.3l2.7-1.4L328.5,318.7z M302,335.1l-0.7-0.3l-17,9.9l0.7,0.3
	L302,335.1z M308.8,334.4l-0.7-0.3l-7.5,4.1l0.7,0.3L308.8,334.4z"/>
<path class="st42" d="M310.8,339.2l11.9-6.8l-0.7-0.3l-11.9,6.8L310.8,339.2z M323.8,331.7l9.2-5.1l-0.7-0.3l-9.2,5.1L323.8,331.7z
	 M309.8,339.8l-0.7-0.3l-17,9.9l0.7,0.3L309.8,339.8z M290.4,348l5.4-3.4l-0.7-0.3l-5.4,3.4L290.4,348z M327.2,326.9l7.8-4.4
	l-0.7-0.3l-7.8,4.4L327.2,326.9z M320.7,330.3l5.4-3.1l-0.7-0.3L320,330L320.7,330.3z M313.2,334.7l6.8-3.7l-0.7-0.3l-6.8,3.7
	L313.2,334.7z M296.9,344.3l15.3-8.9l-0.7-0.3l-15.3,8.9L296.9,344.3z"/>
<path class="st42" d="M189.6,356.5l0.7,0.3l9.5-5.4l-0.7-0.3L189.6,356.5z M189.6,357.6l-0.7-0.3l-12.6,7.2l0.7,0.3L189.6,357.6z
	 M183.2,363.7l0.7,0.3l6.8-3.7l-0.7-0.3L183.2,363.7z M190.7,359.3l0.7,0.3l13.3-7.8l-0.7-0.3L190.7,359.3z M174.7,369.5l-0.7-0.3
	l-12.9,7.5l0.7,0.3L174.7,369.5z M202.6,349l-2.7,1.4l0.7,0.3l2.7-1.4L202.6,349z M176,365.4l-0.7-0.3l-17,9.9l0.7,0.3L176,365.4z
	 M182.8,364.7l-0.7-0.3l-7.5,4.1l0.7,0.3L182.8,364.7z"/>
<path class="st42" d="M184.9,369.8l11.9-6.8l-0.7-0.3l-11.9,6.8L184.9,369.8z M197.8,362.3l9.2-5.1l-0.7-0.3l-9.2,5.1L197.8,362.3z
	 M184.2,370.2l-0.7-0.3l-17,9.9l0.7,0.3L184.2,370.2z M164.4,378.3l5.4-3.4l-0.7-0.3l-5.4,3.4L164.4,378.3z M201.2,357.2l7.8-4.4
	l-0.7-0.3l-7.8,4.4L201.2,357.2z M194.7,361l5.4-3.1l-0.7-0.3l-5.4,3.1L194.7,361z M187.2,365l6.8-3.7l-0.7-0.3l-6.8,3.7L187.2,365z
	 M170.9,374.6l15.3-8.9l-0.7-0.3l-15.3,8.9L170.9,374.6z"/>
<path class="st43" d="M343.5,422.3l31.7,18.4v22.1l-35.7,20.8v-22.1l-32-18.7c-1.4-0.7-1.4-2-0.3-3.7c0.7-1,1.4-2,2.4-3.1
	l-28.6-16.7c-19.4,6.1-40.5,8.9-62,8.5l-2.4-1.4c0.7,0,1.4,0,2,0c29.6-0.7,59.2-7.5,81.7-20.4c47-27.2,47-71.9-0.7-99.4
	c-22.8-12.9-52.1-19.8-82-20.4c-19.7,0.3-39.2,3.4-56.5,9.2l11.2-6.5c14.6-3.1,30-4.4,45.3-4.1c33-0.7,66.4,6.1,91.2,20.8
	c48.3,27.9,48.7,73.2,0.7,101.1c-1,0.7-2,1-2.7,1.4l25.5,14.6c4.1-1.4,7.5-1.7,9.9-1.4C342.8,421.9,343.2,422.3,343.5,422.3z
	 M97.7,332.4c-4.4,7.2-6.5,14.3-7.1,21.8l10.2,5.8c-1-13.3,4.1-26.9,16-38.5L97.7,332.4z"/>
<linearGradient id="SVGID_19_" gradientUnits="userSpaceOnUse" x1="141.977" y1="336.9911" x2="388.463" y2="336.9911" gradientTransform="matrix(1 0 0 -1 0 586)">
	<stop  offset="0" style="stop-color:#E4E2E2"/>
	<stop  offset="1" style="stop-color:#D6D5D4"/>
</linearGradient>
<path class="st44" d="M388.5,275.1v19.4c0-18.4-11.9-36.8-36.4-50.7c-48.3-27.9-126.6-27.9-174.3,0c-23.8,14-35.7,32-35.7,50.1
	v-19.4c0-18,11.9-36.4,35.7-50.1c48-27.9,126.3-27.9,174.3,0C376.5,238.4,388.5,256.8,388.5,275.1z"/>
<path class="st14" d="M480,284.7L276.1,402.5L70.8,284.3l204.3-117.8L480,284.7z"/>
<path class="st36" d="M377.9,249.9l-5.8,0.7l3.1,1.7l-54.1,31.3l2.7,1.7l54.1-31.3l2.7,1.7l1.4-3.4l1.7-3.4L377.9,249.9z"/>
<path class="st37" d="M360.6,295.6l1.4-3.4l3.1,1.7l53.8-31.3l3.1,1.7l-54.1,31.3l2.7,1.4l-5.8,1l-5.8,1L360.6,295.6z"/>
<path class="st37" d="M287.4,319.8l1.7,3.4l2.7-1.7l43.2,24.9l2.7-1.7l-42.9-24.9l2.7-1.4l-5.8-1l-5.8-1L287.4,319.8z"/>
<path class="st36" d="M450.4,230.5l-5.8-0.7l3.1-1.7l-42.9-24.9l2.7-1.7l42.9,24.9l2.7-1.7l1.7,3.4l1.4,3.4L450.4,230.5z"/>
<path class="st36" d="M329.6,286.7l-93.6,54.1L192,315.3l93.6-54.1L329.6,286.7z"/>
<path class="st36" d="M487.2,195.8l-93.3,53.8l-44.3-25.2l93.6-54.1L487.2,195.8z"/>
<path class="st37" d="M296.9,268l-11.2-6.8L192,315.3l11.6,6.5L296.9,268z"/>
<path class="st37" d="M454.9,176.7l-11.6-6.5l-93.6,54.1l11.6,6.5L454.9,176.7z"/>
<path class="st36" d="M393.2,323.5l-93.6,54.1l-43.9-25.5L349,298L393.2,323.5z"/>
<path class="st36" d="M550.9,232.2l-93.6,54.1l-43.9-25.5l93.6-53.8L550.9,232.2z"/>
<path class="st37" d="M360.5,304.4L349,298l-93.3,54.1l11.2,6.5L360.5,304.4z"/>
<path class="st37" d="M518.2,213.5l-11.2-6.5l-93.6,53.8l11.2,6.8L518.2,213.5z"/>
<path class="st38" d="M160.7,289.4l-2.7,1.7l-33-19.1l2.7-1.7L160.7,289.4z"/>
<path class="st37" d="M163.4,287.7l-2.7,1.7l-29.6-17l2.7-1.7L163.4,287.7z"/>
<path class="st38" d="M171.3,283.3l-2.4,1.4l-31.7-18l2.7-1.4L171.3,283.3z"/>
<path class="st37" d="M174.3,281.6l-3.1,1.7l-34-19.8l3.1-1.7L174.3,281.6z"/>
<path class="st38" d="M182.2,277.2l-2.7,1.4l-39.5-22.8l2.7-1.7L182.2,277.2z"/>
<path class="st37" d="M185.2,275.5l-3.1,1.7l-20.1-11.9l2.7-1.7L185.2,275.5z"/>
<path class="st38" d="M193.1,270.7l-2.7,1.7l-36.4-21.1l2.7-1.7L193.1,270.7z"/>
<path class="st37" d="M195.8,269l-2.7,1.7l-33.4-19.1l2.7-1.7L195.8,269z"/>
<path class="st38" d="M225.4,252l-2.7,1.7l-37.1-21.5l2.7-1.7L225.4,252z"/>
<path class="st37" d="M228.1,250.6l-2.7,1.4l-23.5-13.3l3.1-1.7L228.1,250.6z"/>
<path class="st38" d="M236.3,245.9l-2.7,1.7l-30-17.4l2.7-1.7L236.3,245.9z"/>
<path class="st37" d="M239,244.2l-3.1,1.7l-24.9-14.3l3.1-1.7L239,244.2z"/>
<path class="st38" d="M246.8,239.7l-2.7,1.4l-46-26.6l2.7-1.7L246.8,239.7z"/>
<path class="st37" d="M249.9,238l-3.1,1.7l-40.5-23.5l3.1-1.7L249.9,238z"/>
<path class="st38" d="M257.7,233.3L255,235l-41.9-24.2l2.7-1.4L257.7,233.3z"/>
<path class="st37" d="M260.5,231.9l-2.7,1.7l-36.4-21.1l2.7-1.7L260.5,231.9z"/>
<path class="st38" d="M268.6,227.1l-2.7,1.7l-30.3-17.4l2.7-1.7L268.6,227.1z"/>
<path class="st37" d="M271.4,225.4l-2.7,1.7l-34.4-19.8l3.1-1.7L271.4,225.4z"/>
<path class="st38" d="M203.9,264.6l-2.7,1.7l-13.3-7.8l2.7-1.4L203.9,264.6z"/>
<path class="st37" d="M206.7,262.9l-3.1,1.7l-22.8-13.3l3.1-1.7L206.7,262.9z"/>
<path class="st38" d="M214.5,258.5l-2.7,1.4l-12.9-7.5l2.7-1.4L214.5,258.5z"/>
<path class="st37" d="M217.6,256.8l-3.1,1.7L205,253l3.1-1.7L217.6,256.8z"/>
<path class="st38" d="M276.5,225.1l-119.8,69.5l-2.4-1.4l119.8-69.5L276.5,225.1z"/>
<path class="st38" d="M293.1,212.8l-2.7,1.7l-18-10.6l2.7-1.7L293.1,212.8z"/>
<path class="st37" d="M296.2,211.1l-3.1,1.7l-14.6-8.5l2.7-1.4L296.2,211.1z"/>
<path class="st38" d="M304,206.7l-2.7,1.7l-6.8-4.1l2.7-1.7L304,206.7z"/>
<path class="st37" d="M306.8,205l-2.7,1.7l-9.5-5.4l2.7-1.7L306.8,205z"/>
<path class="st38" d="M314.9,200.6l-2.7,1.4L291.1,190l2.7-1.7L314.9,200.6z"/>
<path class="st37" d="M317.6,198.9l-3.1,1.7l-9.9-6.1l2.7-1.4L317.6,198.9z"/>
<path class="st38" d="M325.5,194.1l-2.7,1.7l-7.1-4.1l2.7-1.7L325.5,194.1z"/>
<path class="st37" d="M328.5,192.7l-3.1,1.7l-11.9-7.2l3.1-1.7L328.5,192.7z"/>
<path class="st38" d="M357.8,175.7l-2.4,1.4L317,154.9l2.7-1.4L357.8,175.7z"/>
<path class="st37" d="M360.9,174l-3.1,1.7l-34.7-20.1l3.1-1.7L360.9,174z"/>
<path class="st38" d="M368.7,169.2l-2.7,1.7l-48.7-28.3l2.7-1.4L368.7,169.2z"/>
<path class="st37" d="M371.4,167.5l-2.7,1.7l-46.3-26.6l2.7-1.7L371.4,167.5z"/>
<path class="st38" d="M379.6,163.1l-2.7,1.4L341.1,144l2.7-1.7L379.6,163.1z"/>
<path class="st37" d="M382.3,161.4l-2.7,1.7l-31.3-18l2.7-1.7L382.3,161.4z"/>
<path class="st38" d="M390.5,157l-2.7,1.4l-27.9-16l2.7-1.4L390.5,157z"/>
<path class="st37" d="M393.2,155.3l-3.1,1.7L368,144l2.7-1.7L393.2,155.3z"/>
<path class="st38" d="M401.1,150.5l-2.7,1.7l-13.6-7.8l2.7-1.7L401.1,150.5z"/>
<path class="st37" d="M404.1,149.1l-3.1,1.4l-12.3-6.8l3.1-1.7L404.1,149.1z"/>
<path class="st38" d="M336.4,188l-2.7,1.7l-22.8-13.3l2.7-1.7L336.4,188z"/>
<path class="st37" d="M339.1,186.3l-2.7,1.7l-26.6-15.3l2.7-1.7L339.1,186.3z"/>
<path class="st38" d="M347.3,181.8l-2.7,1.4l-22.1-12.6l2.7-1.7L347.3,181.8z"/>
<path class="st37" d="M350,180.1l-3.1,1.7l-18.4-10.6l3.1-1.7L350,180.1z"/>
<path class="st38" d="M409.2,148.5l-120.2,69.5l-2.4-1.4l120.2-69.5L409.2,148.5z"/>
<path class="st37" d="M269.6,256.8l-89.2,51.4l-12.6-7.2l88.9-51.4L269.6,256.8z"/>
<path class="st41" d="M188.6,303.4l-8.2,4.8l-12.6-7.2l8.2-4.8L188.6,303.4z"/>
<path class="st37" d="M350.7,209.8l-88.9,51.8l-12.9-7.5l89.2-51.4L350.7,209.8z"/>
<path class="st40" d="M270,256.8l-8.2,4.8l-12.9-7.5l8.5-4.8L270,256.8z"/>
<path class="st37" d="M432,163.1l-89.2,51.4l-12.6-7.5l89.2-51.4L432,163.1z"/>
<path class="st39" d="M351,209.8l-8.2,4.8l-12.6-7.5l8.2-4.8L351,209.8z"/>
<path class="st42" d="M359.9,194.8l-13.3,7.5l-1.4-0.7l13.3-7.8L359.9,194.8z"/>
<path class="st42" d="M367.7,190l-5.4,3.4l-1.4-1l5.4-3.1L367.7,190z"/>
<path class="st42" d="M359.9,201.6l-7.1,4.4l-1.4-1l7.1-4.1L359.9,201.6z"/>
<path class="st42" d="M378.6,191l-16.3,9.5l-1.4-1l16.3-9.5L378.6,191z"/>
<path class="st42" d="M390.2,184.2l-9.2,5.4l-1.4-1l8.9-5.1L390.2,184.2z"/>
<path class="st42" d="M279.5,241.1l-13.3,7.8l-1.7-1l13.6-7.5L279.5,241.1z"/>
<path class="st42" d="M287.3,236.7l-5.8,3.1l-1.4-0.7l5.8-3.4L287.3,236.7z"/>
<path class="st42" d="M279.5,248.2l-7.5,4.1l-1.4-0.7l7.5-4.4L279.5,248.2z"/>
<path class="st42" d="M298.2,237.3l-16.7,9.5l-1.4-0.7l16.7-9.5L298.2,237.3z"/>
<path class="st42" d="M309.5,230.9l-9.2,5.1l-1.4-0.7l9.2-5.4L309.5,230.9z"/>
<path class="st42" d="M198.8,287.7l-13.3,7.5l-1.4-0.7l13.3-7.8L198.8,287.7z"/>
<path class="st42" d="M206.7,283l-5.4,3.4l-1.4-1l5.4-3.1L206.7,283z"/>
<path class="st42" d="M198.8,294.6l-7.1,4.4l-1.4-1l7.1-4.1L198.8,294.6z"/>
<path class="st42" d="M217.6,284l-16.3,9.5l-1.4-1l16.3-9.5L217.6,284z"/>
<path class="st42" d="M229.1,277.2l-9.2,5.4l-1.4-1l8.9-5.1L229.1,277.2z"/>
<path class="st42" d="M455.9,191.7l4.8-2.7l-1.4-0.7l-4.8,2.7L455.9,191.7z M413.7,216.2l21.1-12.3l-1.4-0.7l-21.1,12.3L413.7,216.2
	z M436.5,203l17.7-10.2l-1.4-0.7l-17.7,10.2L436.5,203z M412,216.9l-1.4-0.7l-30,17.4l1.4,0.7L412,216.9z M377.2,231.6l9.9-5.8
	l-1.4-0.7l-9.9,5.8L377.2,231.6z M442.3,194.1l13.6-7.8l-1.4-0.7l-13.6,7.8L442.3,194.1z M431,200.6l9.5-5.4l-1.4-0.7l-9.5,5.4
	L431,200.6z M417.4,208.1l11.9-6.8l-1.4-0.7l-11.9,6.8L417.4,208.1z M388.8,224.7l27.2-15.7l-1.4-0.7l-27.2,15.7L388.8,224.7z"/>
<path class="st42" d="M464,191l1.4,0.7l-11.6,6.5l-1.4-0.7L464,191z M436.5,212.8l1.4,0.7l11.9-6.8l-1.4-0.7L436.5,212.8z
	 M451.1,198.5L430,210.8l1.4,0.7l21.1-12.3L451.1,198.5z M460.6,198.9l-10.9,6.1l1.4,0.7l10.9-6.1L460.6,198.9z M429.3,212.5
	l-1.4-0.7l-42.6,24.5l1.4,0.7L429.3,212.5z M407.2,230.9l-1.4-0.7l-15.3,8.9l1.4,0.7L407.2,230.9z M434.8,213.9l-27.2,15.7l1.4,0.7
	l27.2-15.7L434.8,213.9z"/>
<path class="st42" d="M321.4,343.9l34.4-19.8l-1.4-0.7L320,343.2L321.4,343.9z M319.7,345l-1.4-0.7l-30,17.4l1.4,0.7L319.7,345z
	 M285,359.3l9.9-5.8l-1.4-0.7l-9.9,5.8L285,359.3z M338.8,328.3l9.5-5.4l-1.4-0.7l-9.5,5.4L338.8,328.3z M325.5,336.1l11.9-6.8
	l-1.4-0.7l-11.9,6.8L325.5,336.1z M296.5,352.8l27.2-15.7l-1.4-0.7l-27.2,15.7L296.5,352.8z"/>
<path class="st42" d="M335.4,346l1.4,0.7l14.3-8.2l-1.4-0.7L335.4,346z M351,331l-13.3,7.8l1.4,0.7l13.3-7.8L351,331z M337.4,340.5
	l-1.4-0.7l-42.6,24.5l1.4,0.7L337.4,340.5z M314.9,358.9l-1.4-0.7l-15.3,8.9l1.4,0.7L314.9,358.9z M333.7,346.7l-18,10.6l1.4,0.7
	l18-10.6L333.7,346.7z"/>
<path class="st42" d="M496.1,236l1.4,0.7l16.7-9.5l-1.4-0.7L496.1,236z M495.7,237.7l-1.4-0.7l-22.5,12.9l1.4,0.7L495.7,237.7z
	 M484.1,248.6l1.4,0.7l11.9-6.8l-1.4-0.7L484.1,248.6z M497.8,240.8l1.4,0.7l23.5-13.6l-1.4-0.7L497.8,240.8z M469.2,258.8l-1.4-0.7
	L445,271.4l1.4,0.7L469.2,258.8z M518.9,223l-4.4,2.7l1.4,0.7l4.4-2.7L518.9,223z M471.9,251.6l-1.4-0.7l-30.3,17.4l1.4,0.7
	L471.9,251.6z M483.8,250.3l-1.4-0.7l-12.9,7.5l1.4,0.7L483.8,250.3z"/>
<path class="st42" d="M487.9,259.1l21.1-12.3l-1.4-0.7l-21.1,12.3L487.9,259.1z M510.7,245.9l16-9.2l-1.4-0.7l-16,9.2L510.7,245.9z
	 M486.2,260.2l-1.4-0.7l-30,17.4l1.4,0.7L486.2,260.2z M451.5,274.5l9.9-5.8L460,268l-9.9,5.8L451.5,274.5z M516.1,237l13.6-7.8
	l-1.4-0.7l-13.6,7.8L516.1,237z M505.2,243.5l9.5-5.4l-1.4-0.7l-9.5,5.4L505.2,243.5z M491.6,251.3l11.9-6.8l-1.4-0.7l-11.9,6.8
	L491.6,251.3z M463,267.7l27.2-15.7l-1.4-0.7L461.7,267L463,267.7z"/>
<path class="st42" d="M273.7,289.8l1.4,0.7l16.7-9.5l-1.4-0.7L273.7,289.8z M273.4,291.5l-1.4-0.7l-22.5,12.9l1.4,0.7L273.4,291.5z
	 M261.8,302.4l1.4,0.7l11.9-6.8l-1.4-0.7L261.8,302.4z M275.4,294.6l1.4,0.7l23.5-13.6l-1.4-0.7L275.4,294.6z M246.8,312.3l-1.4-0.7
	l-22.8,13.3l1.4,0.7L246.8,312.3z M296.6,276.5l-4.4,2.7l1.4,0.7l4.4-2.7L296.6,276.5z M249.6,305.1l-1.4-0.7l-30.3,17.4l1.4,0.7
	L249.6,305.1z M261.5,303.7l-1.4-0.7l-12.9,7.5l1.4,0.7L261.5,303.7z"/>
<path class="st42" d="M265.6,312.6l21.1-12.3l-1.4-0.7l-21.1,12.3L265.6,312.6z M288.4,299.7l16-9.2l-1.4-0.7l-16,9.2L288.4,299.7z
	 M263.9,313.6l-1.4-0.7l-30,17.4l1.4,0.7L263.9,313.6z M229.1,328.3l9.9-5.8l-1.4-0.7l-9.9,5.8L229.1,328.3z M293.8,290.8l13.6-7.8
	l-1.4-0.7l-13.6,7.8L293.8,290.8z M282.9,296.9l9.5-5.4l-1.4-0.7l-9.5,5.4L282.9,296.9z M269.3,304.8l11.9-6.8l-1.4-0.7l-11.9,6.8
	L269.3,304.8z M240.7,321.5l27.2-15.7l-1.4-0.7l-27.2,15.7L240.7,321.5z"/>
<path class="st45" d="M177.7,238c48-27.9,126.3-27.9,174.3,0c22.5,12.9,34.4,29.6,36.1,46.3c2-19.8-9.9-39.8-36.1-55.2
	c-48.3-27.9-126.6-27.9-174.3,0c-25.9,15-37.4,35.1-35.4,54.8C144,267.3,155.6,250.6,177.7,238z"/>
<linearGradient id="SVGID_20_" gradientUnits="userSpaceOnUse" x1="139.59" y1="265.3534" x2="390.843" y2="265.3534" gradientTransform="matrix(1 0 0 -1 0 586)">
	<stop  offset="0" style="stop-color:#D6D5D4"/>
	<stop  offset="1" style="stop-color:#E4E2E2"/>
</linearGradient>
<path class="st46" d="M390.8,275.1v19.4c0,18.4-12.3,37.1-36.4,51.1c-48.7,28.3-128.4,28.3-177.7,0c-24.9-14.3-37.1-33-37.1-51.8
	v-19.4c0,18.7,12.3,37.5,37.1,51.8c49,28.3,128.7,28.3,177.7,0C378.6,312.3,390.5,293.5,390.8,275.1z"/>
<linearGradient id="SVGID_21_" gradientUnits="userSpaceOnUse" x1="139.7146" y1="311.1965" x2="390.7144" y2="311.1965" gradientTransform="matrix(1 0 0 -1 0 586)">
	<stop  offset="0" style="stop-color:#F0EFEC"/>
	<stop  offset="1" style="stop-color:#FFFEFB"/>
</linearGradient>
<path class="st47" d="M353.7,223.4c49,28.3,49.4,74.6,0.7,102.8c-48.7,28.3-128.3,28.3-177.7,0c-49-28.3-49.4-74.6-0.7-102.8
	C225,195.1,304.7,195.1,353.7,223.4z M178.4,325.5c48.3,27.9,126.6,27.9,174.3,0c48-27.9,47.7-73.2-0.7-101.1s-126.6-27.9-174.3,0
	C129.7,252.3,130.1,297.6,178.4,325.5z"/>
<path class="st48" d="M387.1,351.1c0.3,0,0.7,0.3,1,0.3L354.4,332c-0.3-0.3-0.7-0.3-1-0.3c-3.7-0.7-9.5,2.7-13.3,7.8
	c-1.7,2.4-2.7,4.8-2.7,6.8c0,1.4,0.7,2.4,1.7,3.1l33.7,19.4c0.3,0.3,0.7,0.3,1,0.3c3.7,0.7,9.5-2.7,13.3-7.8
	c1.7-2.4,2.7-4.8,2.7-6.8S389.1,351.4,387.1,351.1z"/>
<linearGradient id="SVGID_22_" gradientUnits="userSpaceOnUse" x1="365.992" y1="192.5235" x2="508.982" y2="192.5235" gradientTransform="matrix(1 0 0 -1 0 586)">
	<stop  offset="0" style="stop-color:#312F2C"/>
	<stop  offset="1" style="stop-color:#252321"/>
</linearGradient>
<path class="st49" d="M393.9,347.3c-0.7-0.3-1-0.7-2-0.7c-5.8-1-15.7,4.4-21.4,12.3c-3.1,4.1-4.4,7.8-4.4,10.9
	c0,2.4,0.7,4.1,2.4,5.1l112.7,64.7c0.7,0.3,1,0.7,2,0.7c5.8,1,15.7-4.4,21.4-12.3c3.1-4.1,4.4-7.8,4.4-10.9c0-2-0.7-3.7-2-4.8
	C506.3,411.7,393.9,347.3,393.9,347.3z"/>
<linearGradient id="SVGID_23_" gradientUnits="userSpaceOnUse" x1="492.9629" y1="166.9366" x2="497.5199" y2="161.8747" gradientTransform="matrix(1 0 0 -1 0 586)">
	<stop  offset="0" style="stop-color:#312F2C"/>
	<stop  offset="1" style="stop-color:#252321"/>
</linearGradient>
<path class="st50" d="M503.9,415.1c-1.4-1.7-6.1,0.3-10.6,4.1c-4.4,3.7-7.1,8.2-6.1,9.5c1.4,1.7,6.1-0.3,10.6-4.1
	C502.5,420.9,505.2,416.5,503.9,415.1z"/>
<path class="st51" d="M123.9,429.4v-5.1l-19.1-11.2v5.1c0,1,0.3,2,1,2.4l19.1,11.2C124.6,431.4,123.9,430.4,123.9,429.4z"/>
<path class="st52" d="M128.4,396.7c-0.7-0.3-1.7-0.3-2.4,0.3l-17.4,10.2l19.1,11.2l17.4-10.2c1-0.7,2-0.7,2.4-0.3L128.4,396.7z"/>
<path class="st52" d="M123.9,424.3l-19.1-11.2c0-2.4,1.7-5.1,3.4-6.1l19.1,11.2C125.6,419.5,123.9,422.3,123.9,424.3z"/>
<path class="st53" d="M145,408.3c2-1,3.4-0.3,3.4,2v5.1c0,2.4-1.7,5.1-3.4,6.1l-17.4,10.2c-2,1-3.4,0.3-3.4-2v-5.1
	c0-2.4,1.7-5.1,3.4-6.1L145,408.3z"/>
<path class="st18" d="M225.4,452.2l-90.6-52.4c1-0.7,2-0.7,3.1-0.3l90.6,52.4C227.4,451.5,226.4,451.5,225.4,452.2z"/>
<path class="st13" d="M201.2,476.7v-5.8l-90.6-52.4v5.8c0,1.4,0.3,2,1,2.7l90.6,52.4C201.5,478.8,201.2,477.8,201.2,476.7z"/>
<path class="st15" d="M205.3,463.8l-90.6-52.4l20.1-11.6l90.6,52.4L205.3,463.8z"/>
<path class="st18" d="M201.2,470.6l-90.6-52.4c0-2.7,1.7-5.8,4.1-7.2l90.6,52.4C202.9,465.2,201.2,468.2,201.2,470.6z"/>
<path class="st53" d="M225.4,452.2c2.4-1.4,4.1-0.3,4.1,2.4v5.8c0,2.7-1.7,5.8-4.1,7.2l-20.1,11.6c-2.4,1.4-4.1,0.3-4.1-2.4v-5.8
	c0-2.7,1.7-5.8,4.1-7.2L225.4,452.2z"/>
<path class="st13" d="M227.1,455.6c-0.7-0.3-1.4-0.3-2,0.3l-17,9.9c-1.7,1-3.1,3.1-3.1,5.1v4.1c0,1,0.3,1.7,1,2l23.8,4.8
	c0,0,1,0.3,2-0.3l4.1-2.4c1.7-1,2-7.8,2-7.8L227.1,455.6z"/>
<path class="st18" d="M246.1,476.7l-11.6-6.8c0.7-0.3,1-0.3,1.4,0l11.6,6.8C247.2,476.4,246.8,476.4,246.1,476.7z"/>
<path class="st13" d="M239.3,486.3v-3.1l-11.6-6.8v3.1c0,0.7,0.3,1,0.7,1.4l11.6,6.8C239.3,487.6,239.3,487,239.3,486.3z"/>
<path class="st15" d="M241.4,479.5l-11.6-6.8l4.8-2.7l11.6,6.8L241.4,479.5z"/>
<path class="st18" d="M239.3,483.2l-11.6-6.8c0-1.4,1-3.1,2-3.7l11.6,6.8C240,480.1,239.3,481.8,239.3,483.2z"/>
<path class="st53" d="M246.1,476.7c1-0.7,2,0,2,1.4v3.1c0,1.4-1,3.1-2,3.7l-4.8,2.7c-1,0.7-2,0-2-1.4v-3.1c0-1.4,1-3.1,2-3.7
	L246.1,476.7z"/>
<path class="st52" d="M246.8,478.4l-5.8,3.4v4.1l6.8,4.1c0.3,0.3,1,0,1-0.3l1.4-4.8c0,0,0-0.3,0-0.7v-3.1c0-0.3-0.3-1-0.7-1
	L246.8,478.4z"/>
<path class="st54" d="M151.8,424.3l-22.1-12.6l6.8-4.1l22.1,12.9L151.8,424.3z"/>
<path class="st54" d="M165.1,428l2.7,1.4l-0.7,0.3l-2.7-1.4L165.1,428z M162.7,429.7l0.7-0.3l-2-1.4l-1.4-0.7l-0.7,0.3l1.4,0.7
	L162.7,429.7z M159,426.7l-3.4-2l-0.7,0.3l3.4,2L159,426.7z M162.1,427l1.4,0.7l0.7-0.3l-2.4-1.4l-4.1-2.4L157,424L162.1,427z
	 M160.4,423.3l3.4,2l0.7-0.3l-3.4-2l-1-0.7l-0.7,0.3L160.4,423.3z M166.8,427.4l1,0.7l0.7-0.3l-1.4-0.7l-2-1l-0.7,0.3L166.8,427.4z
	 M176.4,432.1l-1.4-1l-0.7,0.3l1.4,1L176.4,432.1z M174,430.8l-1.4-0.7l-0.7,0.3l1.4,0.7L174,430.8z M174.3,433.1l-2.4-1.4l-0.7,0.3
	l2.4,1.4L174.3,433.1z M168.5,432.5l-1-0.7l-0.7,0.3l1,0.7L168.5,432.5z M169.5,432.8l-0.7,0.3l2.7,1.7l0.7-0.3L169.5,432.8z"/>
<path class="st55" d="M69.4,435.9v-5.1l-19.1-11.2v5.1c0,1,0.3,2,1,2.4l19.1,11.2C69.8,437.9,69.4,436.9,69.4,435.9z"/>
<path class="st41" d="M73.5,403.2c-0.7-0.3-1.7-0.3-2.4,0.3l-17.4,10.2L72.8,425l17.4-10.2c1-0.7,2-0.7,2.4-0.3L73.5,403.2z"/>
<path class="st41" d="M69.4,430.8l-19.1-11.2c0-2.4,1.7-5.1,3.4-6.1l19.1,11.2C70.8,426,69.4,428.7,69.4,430.8z"/>
<path class="st53" d="M90.2,414.8c2-1,3.4-0.3,3.4,2v5.1c0,2.4-1.7,5.1-3.4,6.1l-17.4,10.2c-2,1-3.4,0.3-3.4-2v-5.1
	c0-2.4,1.7-5.1,3.4-6.1L90.2,414.8z"/>
<path class="st18" d="M170.6,458.7l-90.2-52.4c1-0.7,2-0.7,3.1-0.3l90.6,52.4C172.9,458,171.9,458,170.6,458.7z"/>
<path class="st13" d="M146.4,483.2v-5.8L55.8,425v5.8c0,1.4,0.3,2,1,2.7l90.6,52.4C147.1,485.2,146.4,484.2,146.4,483.2z"/>
<path class="st15" d="M150.5,470.3l-90.6-52.4l20.4-11.6l90.2,52.4L150.5,470.3z"/>
<path class="st18" d="M146.4,477.1l-90.6-52.4c0-2.7,1.7-5.8,4.1-7.2l90.6,52.4C148.4,471.6,146.4,474.7,146.4,477.1z"/>
<path class="st53" d="M170.6,458.7c2.4-1.4,4.1-0.3,4.1,2.4v5.8c0,2.7-1.7,5.8-4.1,7.2l-20.1,11.6c-2.4,1.4-4.1,0.3-4.1-2.4v-5.8
	c0-2.7,1.7-5.8,4.1-7.2L170.6,458.7z"/>
<path class="st13" d="M172.3,462.1c-0.7-0.3-1.4-0.3-2,0.3l-17,9.9c-1.7,1-3.1,3.1-3.1,5.1v4.1c0,1,0.3,1.7,1,2l23.8,4.8
	c0,0,1,0.3,2-0.3l4.1-2.4c1.7-1,2-7.8,2-7.8L172.3,462.1z"/>
<path class="st18" d="M191.3,483.2l-11.6-6.8c0.7-0.3,1-0.3,1.4,0l11.6,6.8C192.4,482.9,192,482.9,191.3,483.2z"/>
<path class="st13" d="M184.5,492.7v-3.1l-11.6-6.8v3.1c0,0.7,0.3,1,0.7,1.4l11.6,6.8C184.9,494.1,184.5,493.4,184.5,492.7z"/>
<path class="st15" d="M186.6,485.9l-11.6-6.8l4.8-2.7l11.6,6.8L186.6,485.9z"/>
<path class="st18" d="M184.5,489.7l-11.6-6.8c0-1.4,1-3.1,2-3.7l11.6,6.8C185.5,486.6,184.5,488.3,184.5,489.7z"/>
<path class="st53" d="M191.3,483.2c1-0.7,2,0,2,1.4v3.1c0,1.4-1,3.1-2,3.7l-4.8,2.7c-1,0.7-2,0-2-1.4v-3.1c0-1.4,1-3.1,2-3.7
	L191.3,483.2z"/>
<path class="st41" d="M192,484.9l-5.8,3.4v4.1l6.8,4.1c0.3,0.3,1,0,1-0.3l1.4-4.8c0,0,0-0.3,0-0.7v-3.1c0-0.3-0.3-1-0.7-1L192,484.9
	z"/>
<path class="st54" d="M97,430.8l-22.1-12.6l6.8-4.1l22.1,12.9L97,430.8z"/>
<path class="st54" d="M110.3,434.5l2.7,1.4l-0.7,0.3l-2.7-1.4L110.3,434.5z M107.9,436.2l0.7-0.3l-2-1l-1.4-0.7l-0.7,0.3l1.4,0.7
	L107.9,436.2z M104.2,433.1l-3.4-2l-0.7,0.3l3.4,2L104.2,433.1z M107.6,433.5l1.4,0.7l0.7-0.3l-2.4-1.4l-4.1-2.4l-0.7,0.3
	L107.6,433.5z M105.5,429.7l3.4,2l0.7-0.3l-3.4-2l-1-0.7l-0.7,0.3L105.5,429.7z M112.3,433.8l1,0.7l0.7-0.3l-1.4-0.7l-2-1l-0.7,0.3
	L112.3,433.8z M121.5,438.6l-1.4-1l-0.7,0.3l1.4,1L121.5,438.6z M119.2,437.2l-1.4-0.7l-0.7,0.3l1.4,0.7L119.2,437.2z M119.5,439.6
	l-2.4-1.4l-0.7,0.3l2.4,1.4L119.5,439.6z M113.7,438.9l-1-0.7l-0.7,0.3l1,0.7L113.7,438.9z M114.7,439.3l-0.7,0.3l2.7,1.7l0.7-0.3
	L114.7,439.3z"/>
<linearGradient id="SVGID_24_" gradientUnits="userSpaceOnUse" x1="295.516" y1="68.5938" x2="346.924" y2="68.5938" gradientTransform="matrix(1 0 0 -1 0 586)">
	<stop  offset="0" style="stop-color:#D88000"/>
	<stop  offset="1" style="stop-color:#FFAC33"/>
</linearGradient>
<path class="st56" d="M295.5,509.1c0,2,0,4.1,0,5.8c0,5.4,5.1,10.6,15,13.3c7.1,2,14.3,2,21.4,0c9.9-2.7,15-8.2,15-13.3
	c0-2,0-4.1,0-5.8C346.6,503.6,295.5,504,295.5,509.1z"/>
<linearGradient id="SVGID_25_" gradientUnits="userSpaceOnUse" x1="296.193" y1="64.997" x2="346.434" y2="64.997" gradientTransform="matrix(1 0 0 -1 0 586)">
	<stop  offset="0" style="stop-color:#D88F25"/>
	<stop  offset="1" style="stop-color:#EBA136"/>
</linearGradient>
<path class="st57" d="M297.9,515.6v5.8c-0.7-1-1.4-2-1.7-3.1v-5.4C296.5,513.5,297.2,514.5,297.9,515.6z M311.2,522.7v5.8
	c0.7,0,1.4,0.3,1.7,0.3V523C312.2,523,311.5,523,311.2,522.7z M318.7,523.7v5.8c0.7,0,1.4,0,1.7,0v-5.8
	C319.7,524.1,319,524.1,318.7,523.7z M314.9,523.4v5.8c0.7,0,1.4,0.3,1.7,0.3v-5.8C315.9,523.7,315.3,523.7,314.9,523.4z
	 M299.9,517.6v5.4c0.7,0.3,1,1,1.7,1.4v-5.8C301,518.3,300.3,517.9,299.9,517.6z M307.4,521.7v5.4c0.7,0.3,1.4,0.3,1.7,0.7V522
	C308.5,522,307.8,522,307.4,521.7z M303.7,520v5.4c0.7,0.3,1,0.7,1.7,1V521C304.7,520.7,304.4,520.3,303.7,520z M322.4,524.1v5.8
	c0.7,0,1.4,0,1.7,0v-5.8C323.4,524.1,322.7,524.1,322.4,524.1z M340.8,518.6v5.8c0.7-0.3,1.4-1,1.7-1.4v-5.4
	C342.2,517.6,341.5,518.3,340.8,518.6z M326.2,523.7v5.8c0.7,0,1.4,0,1.7-0.3v-5.8C327.2,523.4,326.5,523.7,326.2,523.7z
	 M344.5,515.2v5.8c0.7-1,1.4-2,1.7-3.4v-5.4C345.9,513.2,345.2,514.2,344.5,515.2z M337,520.7v5.4c0.7-0.3,1.4-0.7,1.7-1v-5.4
	C338.4,520,337.7,520.3,337,520.7z M333.3,522v5.8c0.7-0.3,1.4-0.3,1.7-0.7v-5.4C334.7,521.7,334,522,333.3,522z M329.6,523v5.8
	c0.7,0,1.4-0.3,1.7-0.3v-5.8C330.9,522.7,330.2,523,329.6,523z"/>
<path class="st6" d="M339.4,498.5c10.2,5.8,10.2,15,0,21.1c-9.9,5.8-26.2,5.8-36.4,0c-10.2-5.8-10.2-15,0-21.1
	C312.9,493.1,329.2,492.7,339.4,498.5z"/>
<path class="st7" d="M337.7,499.5c9.2,5.1,9.2,13.6,0,19.1c-9.2,5.4-23.8,5.4-33,0c-9.2-5.1-9.2-13.6,0-19.1
	C313.9,494.4,328.5,494.4,337.7,499.5z"/>
<path class="st8" d="M305,500.9c8.9-5.1,23.2-5.1,32.3,0c6.5,3.7,8.2,9.2,5.4,13.6c3.7-5.1,2-10.9-4.8-15c-9.2-5.1-23.8-5.1-33,0
	c-7.1,4.1-8.5,10.2-4.8,15C296.9,510.1,298.6,504.7,305,500.9z"/>
<path class="st8" d="M333.6,514.9c1.4-1,2.4-2.4,2.4-3.7v-1c0-1-0.7-2.4-2.7-3.4c-3.7-2-7.5-1.7-12.3-0.7l-2,0.7l-5.1-3.1
	c1,0,2.4,0,4.4,0.7c0.7,0.3,1.4,0.3,2-0.3c0.3-0.3,1-1,1-1.4v-1c0-0.3-0.3-0.7-0.7-1c-1.4-0.7-5.4-1-9.9,1.7l-2.7-1.4l-1.7,1v1
	l1.7,1c-1.4,1-2.4,2.4-2.4,3.4v1c0,1,0.7,2.4,2.7,3.4c3.1,1.7,6.8,1.4,10.9,0.3l2.4-0.7l6.1,3.4c-1,0-2.7,0-5.4-0.7
	c-1-0.3-1.7-0.3-2.4,0.3c-0.3,0.3-1,1-0.7,1.4v1c0,0.3,0.3,1,1,1.4c1,0.7,5.1,1.4,10.9-1.7l3.4,2l1.7-1v-1L333.6,514.9z
	 M311.2,507.4c-0.7-0.3-1-0.7-1-1c0-0.3,0.3-0.7,1-1l4.8,2.7C313.9,508.1,312.2,508.1,311.2,507.4z M320,516.9l0.3,0.3
	C320,517.3,320,516.9,320,516.9z M331.3,513.5l-5.4-3.1c2-0.3,3.7,0,5.4,1c0.7,0.3,1,0.7,1.4,1.4
	C332.3,512.8,331.9,513.2,331.3,513.5z"/>
<path class="st6" d="M333,514.5c3.1-1.7,5.4-5.1,0.7-7.8c-3.7-2-7.5-1.7-12.3-0.7l-2,0.7l-6.8-3.7c1-0.3,2.7-0.3,5.8,0.3
	c0.7,0.3,1.4,0.3,2-0.3c0.7-0.3,2-1.7,0.3-2.4c-1.4-0.7-5.4-1-9.9,1.7l-2.7-1.4l-1.7,1l2.7,1.4c-3.7,2.4-4.8,5.1-0.7,7.5
	c3.1,1.7,6.8,1.4,10.9,0.3l2.4-0.7l7.5,4.4c-0.7,0.3-2.7,0.7-6.8-0.3c-1-0.3-1.7-0.3-2.4,0.3c-0.7,0.3-1.4,2,0,2.7
	c1,0.7,5.1,1.4,10.9-1.7l3.4,2l1.7-1L333,514.5z M311.2,507.4c-1.7-1-1.7-2.4-0.3-3.4l6.1,3.4C314.9,508.1,312.5,508.1,311.2,507.4z
	 M331.3,513.5l-7.1-4.1c2.4-0.7,5.1-0.7,6.8,0.7C333.3,511.1,333,512.5,331.3,513.5z"/>
</svg>
