<?xml version="1.0" encoding="utf-8"?>
<!-- Generator: Adobe Illustrator 21.1.0, SVG Export Plug-In . SVG Version: 6.00 Build 0)  -->
<svg version="1.1" id="Layer_1" xmlns="http://www.w3.org/2000/svg" xmlns:xlink="http://www.w3.org/1999/xlink" x="0px" y="0px"
	 viewBox="0 0 53.7 53.5" style="enable-background:new 0 0 53.7 53.5;" xml:space="preserve">
<style type="text/css">
	.st0{fill:#263238;}
</style>
<path class="st0" d="M30.2,53.5h-6.9l-0.8-5.8c-2.7-0.5-5.3-1.6-7.5-3.2L10.3,48l-4.9-4.8l3.5-4.7c-1.5-2.3-2.6-4.9-3.1-7.5L0,30.2
	v-6.9l5.9-0.9c0.5-2.7,1.6-5.3,3.1-7.5l-3.5-4.7l4.9-4.8l4.7,3.5c2.3-1.5,4.9-2.6,7.6-3.1L23.5,0h6.9l0.8,5.8
	c2.7,0.5,5.3,1.6,7.5,3.2l4.7-3.6l4.9,4.8l-3.5,4.7c1.5,2.3,2.6,4.9,3.1,7.6l5.8,0.8v6.8l-5.8,0.8c-0.5,2.7-1.6,5.2-3.1,7.5l3.5,4.7
	l-4.9,4.8l-4.7-3.5c-2.3,1.5-4.9,2.6-7.6,3.1L30.2,53.5z M24.2,52.5h5.1l0.8-5.7l0.4-0.1c2.8-0.5,5.5-1.6,7.8-3.2l0.3-0.2l4.6,3.4
	l3.7-3.6l-3.4-4.6l0.2-0.3c1.6-2.3,2.7-5,3.3-7.8l0.1-0.3l5.7-0.8v-5.1l-5.7-0.8L47,23.1c-0.5-2.8-1.6-5.5-3.2-7.8L43.6,15l3.3-4.6
	l-3.6-3.6l-4.6,3.4L38.4,10c-2.3-1.6-5-2.7-7.8-3.3l-0.4-0.1l-0.8-5.7h-5.1l-0.8,5.7l-0.4,0.1c-2.8,0.5-5.5,1.6-7.8,3.2L15,10.1
	l-4.6-3.4l-3.5,3.6l3.4,4.6l-0.2,0.3c-1.6,2.3-2.7,5-3.3,7.8l-0.1,0.3L1,24.1v5.1L6.6,30l0.1,0.3c0.5,2.8,1.6,5.5,3.2,7.8l0.2,0.3
	L6.7,43l3.6,3.6l4.6-3.4l0.3,0.2c2.3,1.6,5,2.7,7.8,3.3l0.4,0.1L24.2,52.5z M26.9,41.7c-8.3,0-15-6.7-15-15s6.7-15,15-15
	s15,6.7,15,15l0,0C41.9,35,35.2,41.7,26.9,41.7z M26.9,12.7c-7.7,0-14,6.3-14,14s6.3,14,14,14s14-6.3,14-14S34.6,12.7,26.9,12.7
	L26.9,12.7L26.9,12.7z"/>
</svg>
