<?xml version="1.0" encoding="utf-8"?>
<!-- Generator: Adobe Illustrator 21.1.0, SVG Export Plug-In . SVG Version: 6.00 Build 0)  -->
<svg version="1.1" id="Layer_1" xmlns="http://www.w3.org/2000/svg" xmlns:xlink="http://www.w3.org/1999/xlink" x="0px" y="0px"
	 viewBox="0 0 432 576" style="enable-background:new 0 0 432 576;" xml:space="preserve">
<style type="text/css">
	.st0{display:none;fill:url(#SVGID_1_);}
	.st1{display:none;fill:url(#SVGID_2_);}
	.st2{display:none;fill:url(#SVGID_3_);}
	.st3{display:none;fill:url(#SVGID_4_);}
	.st4{display:none;fill:url(#SVGID_5_);}
	.st5{display:none;fill:url(#SVGID_6_);}
	.st6{display:none;fill:url(#SVGID_7_);}
	.st7{display:none;fill:url(#SVGID_8_);}
	.st8{display:none;fill:url(#SVGID_9_);}
	.st9{display:none;fill:url(#SVGID_10_);}
	.st10{display:none;fill:url(#SVGID_11_);}
	.st11{display:none;fill:url(#SVGID_12_);}
	.st12{display:none;fill:url(#SVGID_13_);}
	.st13{display:none;fill:url(#SVGID_14_);}
	.st14{display:none;fill:url(#SVGID_15_);}
	.st15{display:none;fill:url(#SVGID_16_);}
	.st16{display:none;fill:url(#SVGID_17_);}
	.st17{display:none;fill:url(#SVGID_18_);}
	.st18{display:none;fill:url(#SVGID_19_);}
	.st19{display:none;fill:url(#SVGID_20_);}
	.st20{display:none;fill:url(#SVGID_21_);}
	.st21{display:none;fill:url(#SVGID_22_);}
	.st22{display:none;fill:url(#SVGID_23_);}
	.st23{display:none;fill:url(#SVGID_24_);}
	.st24{display:none;fill:url(#SVGID_25_);}
	.st25{display:none;fill:url(#SVGID_26_);}
	.st26{display:none;fill:url(#SVGID_27_);}
	.st27{display:none;fill:url(#SVGID_28_);}
	.st28{display:none;fill:url(#SVGID_29_);}
	.st29{display:none;fill:url(#SVGID_30_);}
	.st30{display:none;fill:url(#SVGID_31_);}
	.st31{display:none;fill:url(#SVGID_32_);}
	.st32{display:none;fill:url(#SVGID_33_);}
	.st33{display:none;fill:url(#SVGID_34_);}
	.st34{display:none;fill:url(#SVGID_35_);}
	.st35{display:none;fill:url(#SVGID_36_);}
	.st36{display:none;fill:#3FB88C;}
	.st37{display:none;fill:url(#SVGID_37_);}
	.st38{display:none;fill:#55E5B1;}
	.st39{display:none;fill:#78FFBE;}
	.st40{display:none;fill:url(#SVGID_38_);}
	.st41{display:none;fill:url(#SVGID_39_);}
	.st42{display:none;fill:url(#SVGID_40_);}
	.st43{display:none;fill:#FFFFFF;}
	.st44{display:none;fill:#BCBEC0;}
	.st45{display:none;fill:#E0DCFF;}
	.st46{display:none;fill:url(#SVGID_41_);}
	.st47{display:none;fill:#98BFB3;}
	.st48{display:none;fill:#84C8BC;}
	.st49{display:none;fill:#B1DCD4;}
	.st50{display:none;opacity:0.2;}
	.st51{display:inline;opacity:0.7273;enable-background:new    ;}
	.st52{display:inline;opacity:0.8182;enable-background:new    ;}
	.st53{display:inline;opacity:0.9091;enable-background:new    ;}
	.st54{display:inline;}
	.st55{display:none;fill:url(#SVGID_42_);}
	.st56{display:none;fill:url(#SVGID_43_);}
	.st57{display:none;fill:url(#SVGID_44_);}
	.st58{display:none;fill:url(#SVGID_45_);}
	.st59{display:none;opacity:0.3;fill:url(#SVGID_46_);enable-background:new    ;}
	.st60{display:none;fill:url(#SVGID_47_);}
	.st61{display:none;fill:url(#SVGID_48_);}
	.st62{display:none;fill:url(#SVGID_49_);}
	.st63{display:none;fill:url(#SVGID_50_);}
	.st64{display:none;fill:url(#SVGID_51_);}
	.st65{fill:url(#SVGID_52_);}
	.st66{fill:url(#SVGID_53_);}
	.st67{display:none;fill:url(#SVGID_54_);}
	.st68{display:none;fill:url(#SVGID_55_);}
	.st69{display:none;fill:url(#SVGID_56_);}
	.st70{display:none;fill:url(#SVGID_57_);}
	.st71{display:none;fill:url(#SVGID_58_);}
	.st72{display:none;fill:url(#SVGID_59_);}
	.st73{display:none;fill:url(#SVGID_60_);}
	.st74{display:none;fill:url(#SVGID_61_);}
	.st75{display:none;fill:url(#SVGID_62_);}
</style>
<linearGradient id="SVGID_1_" gradientUnits="userSpaceOnUse" x1="324.7009" y1="413.1702" x2="351.3869" y2="421.9162" gradientTransform="matrix(1 0 0 -1 0 578)">
	<stop  offset="0" style="stop-color:#311B61"/>
	<stop  offset="0.2031" style="stop-color:#290F52"/>
	<stop  offset="0.4949" style="stop-color:#200041"/>
	<stop  offset="1" style="stop-color:#0F001F"/>
</linearGradient>
<path class="st0" d="M327.8,168.6V165c0-4.1,0.9-6.8,2.7-8.2l-2.7,1.8c-0.5,0-0.5,0.5-0.9,0.5c-2.3,1.4-3.2,3.6-3.2,8.2v4.1
	L327.8,168.6z"/>
<linearGradient id="SVGID_2_" gradientUnits="userSpaceOnUse" x1="299.2476" y1="125.3432" x2="293.6516" y2="132.8562" gradientTransform="matrix(1 0 0 -1 0 578)">
	<stop  offset="0" style="stop-color:#25054D"/>
	<stop  offset="0.5" style="stop-color:#45108A"/>
	<stop  offset="1" style="stop-color:#25054D"/>
</linearGradient>
<path class="st1" d="M300.4,450.5c0,0.9-0.5,1.8-0.9,1.8l-2.7,1.8c-0.5,0.5,0-0.5-0.9-0.9c-1.8-0.9-3.2-3.2-3.2-5.5
	c0-0.9-0.9-0.9-0.5-1.4l3.2-1.8c0.5-0.5,1.4-0.5,2.3,0.5C299.1,446,300.4,448.2,300.4,450.5z"/>
<linearGradient id="SVGID_3_" gradientUnits="userSpaceOnUse" x1="291.214" y1="127.9507" x2="297.476" y2="127.9507" gradientTransform="matrix(1 0 0 -1 0 578)">
	<stop  offset="0" style="stop-color:#25054D"/>
	<stop  offset="0.5833" style="stop-color:#2F085F"/>
	<stop  offset="1" style="stop-color:#370B6F"/>
</linearGradient>
<path class="st2" d="M297.3,451.9c0,1.8-1.4,2.7-3.2,1.8c-1.8-0.9-3.2-3.2-3.2-5.5c0-1.8,1.4-2.7,3.2-1.8
	C295.9,447.8,297.3,450,297.3,451.9z"/>
<linearGradient id="SVGID_4_" gradientUnits="userSpaceOnUse" x1="299.9637" y1="126.4799" x2="294.2087" y2="134.2059" gradientTransform="matrix(1 0 0 -1 0 578)">
	<stop  offset="0" style="stop-color:#25054D"/>
	<stop  offset="0.5" style="stop-color:#45108A"/>
	<stop  offset="1" style="stop-color:#25054D"/>
</linearGradient>
<path class="st3" d="M301.4,450.5c0-2.3-1.8-5-3.6-6.4c-0.9-0.5-1.8-0.5-2.7-0.5l-3.2,1.8c0.5-0.5,1.8-0.5,2.7,0
	c1.8,1.4,3.6,4.1,3.6,6.4L301.4,450.5z"/>
<radialGradient id="SVGID_5_" cx="-62.6873" cy="653.3067" r="1" gradientTransform="matrix(3.3824 0 0 -3.3761 507.0236 2655.7444)" gradientUnits="userSpaceOnUse">
	<stop  offset="0" style="stop-color:#FFFFFF"/>
	<stop  offset="1" style="stop-color:#000000"/>
</radialGradient>
<path class="st4" d="M294.5,446.4c-0.9-0.5-1.4-0.5-2.3-0.5C292.7,446,293.6,446.4,294.5,446.4c1.4,0.9,2.7,3.6,2.7,5.5
	c0,0.9-0.5,1.8-0.9,1.8c0.9,0,1.4-0.9,1.4-2.3C297.7,450,296.3,447.8,294.5,446.4z"/>
<linearGradient id="SVGID_6_" gradientUnits="userSpaceOnUse" x1="366.3105" y1="118.2572" x2="360.7145" y2="125.7702" gradientTransform="matrix(1 0 0 -1 0 578)">
	<stop  offset="0" style="stop-color:#25054D"/>
	<stop  offset="0.5" style="stop-color:#45108A"/>
	<stop  offset="1" style="stop-color:#25054D"/>
</linearGradient>
<path class="st5" d="M367.4,457.3c0,0.9-0.5,1.8-0.9,1.8l-2.7,1.8c-0.5,0.5,0-0.5-0.9-0.9c-1.8-0.9-3.2-3.2-3.2-5.5
	c0-0.9-0.9-0.9-0.5-1.4l3.2-1.8c0.5-0.5,1.4-0.5,2.3,0.5C366,453.2,367.4,455.5,367.4,457.3z"/>
<linearGradient id="SVGID_7_" gradientUnits="userSpaceOnUse" x1="358.239" y1="120.6755" x2="364.5" y2="120.6755" gradientTransform="matrix(1 0 0 -1 0 578)">
	<stop  offset="0" style="stop-color:#25054D"/>
	<stop  offset="0.5833" style="stop-color:#2F085F"/>
	<stop  offset="1" style="stop-color:#370B6F"/>
</linearGradient>
<path class="st6" d="M364.7,459.1c0,1.8-1.4,2.7-3.2,1.8c-1.8-0.9-3.2-3.2-3.2-5.5c0-1.8,1.4-2.7,3.2-1.8
	C363.3,454.6,364.7,457.3,364.7,459.1z"/>
<linearGradient id="SVGID_8_" gradientUnits="userSpaceOnUse" x1="366.8753" y1="119.2813" x2="361.1193" y2="127.0083" gradientTransform="matrix(1 0 0 -1 0 578)">
	<stop  offset="0" style="stop-color:#25054D"/>
	<stop  offset="0.5" style="stop-color:#45108A"/>
	<stop  offset="1" style="stop-color:#25054D"/>
</linearGradient>
<path class="st7" d="M368.3,457.8c0-2.3-1.8-5-3.6-6.4c-0.9-0.5-1.8-0.5-2.7-0.5l-3.2,1.8c0.5-0.5,1.8-0.5,2.7,0
	c1.8,1.4,3.6,4.1,3.6,6.4L368.3,457.8z"/>
<linearGradient id="SVGID_9_" gradientUnits="userSpaceOnUse" x1="396.2674" y1="155.3693" x2="390.6704" y2="162.8823" gradientTransform="matrix(1 0 0 -1 0 578)">
	<stop  offset="0" style="stop-color:#25054D"/>
	<stop  offset="0.5" style="stop-color:#45108A"/>
	<stop  offset="1" style="stop-color:#25054D"/>
</linearGradient>
<path class="st8" d="M397.5,420.5c0,0.9-0.5,1.8-0.9,1.8l-2.7,1.8c-0.5,0.5,0-0.5-0.9-0.9c-1.8-0.9-3.2-3.2-3.2-5.5
	c0-0.9-0.9-0.9-0.5-1.4l3.2-1.8c0.5-0.5,1.4-0.5,2.3,0.5C396.1,415.9,397.5,418.2,397.5,420.5z"/>
<linearGradient id="SVGID_10_" gradientUnits="userSpaceOnUse" x1="388.314" y1="157.9607" x2="394.576" y2="157.9607" gradientTransform="matrix(1 0 0 -1 0 578)">
	<stop  offset="0" style="stop-color:#25054D"/>
	<stop  offset="0.5833" style="stop-color:#2F085F"/>
	<stop  offset="1" style="stop-color:#370B6F"/>
</linearGradient>
<path class="st9" d="M394.7,421.9c0,1.8-1.4,2.7-3.2,1.8c-1.8-0.9-3.2-3.2-3.2-5.5c0-1.8,1.4-2.7,3.2-1.8
	C393.4,417.3,394.7,420,394.7,421.9z"/>
<linearGradient id="SVGID_11_" gradientUnits="userSpaceOnUse" x1="396.9811" y1="156.5085" x2="391.2261" y2="164.2345" gradientTransform="matrix(1 0 0 -1 0 578)">
	<stop  offset="0" style="stop-color:#25054D"/>
	<stop  offset="0.5" style="stop-color:#45108A"/>
	<stop  offset="1" style="stop-color:#25054D"/>
</linearGradient>
<path class="st10" d="M398.4,420.5c0-2.3-1.8-5-3.6-6.4c-0.9-0.5-1.8-0.5-2.7-0.5l-3.2,1.8c0.5-0.5,1.8-0.5,2.7,0
	c1.8,1.4,3.6,4.1,3.6,6.4L398.4,420.5z"/>
<linearGradient id="SVGID_12_" gradientUnits="userSpaceOnUse" x1="348.9163" y1="188.0753" x2="343.3193" y2="195.5883" gradientTransform="matrix(1 0 0 -1 0 578)">
	<stop  offset="0" style="stop-color:#25054D"/>
	<stop  offset="0.5" style="stop-color:#45108A"/>
	<stop  offset="1" style="stop-color:#25054D"/>
</linearGradient>
<path class="st11" d="M350.1,387.8c0,0.9-0.5,1.8-0.9,1.8l-2.7,1.8c-0.5,0.5,0-0.5-0.9-0.9c-1.8-0.9-3.2-3.2-3.2-5.5
	c0-0.9-0.9-0.9-0.5-1.4l3.2-1.8c0.5-0.5,1.4-0.5,2.3,0.5C348.7,383.2,350.1,385.5,350.1,387.8z"/>
<linearGradient id="SVGID_13_" gradientUnits="userSpaceOnUse" x1="340.849" y1="190.6987" x2="347.11" y2="190.6987" gradientTransform="matrix(1 0 0 -1 0 578)">
	<stop  offset="0" style="stop-color:#25054D"/>
	<stop  offset="0.5833" style="stop-color:#2F085F"/>
	<stop  offset="1" style="stop-color:#370B6F"/>
</linearGradient>
<path class="st12" d="M346.9,389.1c0,1.8-1.4,2.7-3.2,1.8c-1.8-0.9-3.2-3.2-3.2-5.5c0-1.8,1.4-2.7,3.2-1.8
	C345.5,385,346.9,387.3,346.9,389.1z"/>
<linearGradient id="SVGID_14_" gradientUnits="userSpaceOnUse" x1="349.6281" y1="189.2162" x2="343.8731" y2="196.9432" gradientTransform="matrix(1 0 0 -1 0 578)">
	<stop  offset="0" style="stop-color:#25054D"/>
	<stop  offset="0.5" style="stop-color:#45108A"/>
	<stop  offset="1" style="stop-color:#25054D"/>
</linearGradient>
<path class="st13" d="M351,387.8c0-2.3-1.8-5-3.6-6.4c-0.9-0.5-1.8-0.5-2.7-0.5l-3.2,1.8c0.5-0.5,1.8-0.5,2.7,0
	c1.8,1.4,3.6,4.1,3.6,6.4L351,387.8z"/>
<radialGradient id="SVGID_15_" cx="-62.6874" cy="653.3068" r="1" gradientTransform="matrix(3.3824 0 0 -3.3761 556.6595 2593.0452)" gradientUnits="userSpaceOnUse">
	<stop  offset="0" style="stop-color:#FFFFFF"/>
	<stop  offset="1" style="stop-color:#000000"/>
</radialGradient>
<path class="st14" d="M344.2,383.7c-0.9-0.5-1.4-0.5-2.3-0.5C342.4,383.7,343.3,383.7,344.2,383.7c1.4,0.9,2.7,3.6,2.7,5.5
	c0,0.9-0.5,1.8-0.9,1.8c0.9,0,1.4-0.9,1.4-2.3C347.4,387.3,346,385,344.2,383.7z"/>
<linearGradient id="SVGID_16_" gradientUnits="userSpaceOnUse" x1="289.2524" y1="165.7786" x2="283.6554" y2="173.2926" gradientTransform="matrix(1 0 0 -1 0 578)">
	<stop  offset="0" style="stop-color:#25054D"/>
	<stop  offset="0.5" style="stop-color:#45108A"/>
	<stop  offset="1" style="stop-color:#25054D"/>
</linearGradient>
<path class="st15" d="M290.4,410c0,0.9-0.5,1.8-0.9,1.8l-2.7,1.8c-0.5,0.5,0-0.5-0.9-0.9c-1.8-0.9-3.2-3.2-3.2-5.5
	c0-0.9-0.9-0.9-0.5-1.4l3.2-1.8c0.5-0.5,1.4-0.5,2.3,0.5C289.1,405.5,290.4,407.8,290.4,410z"/>
<linearGradient id="SVGID_17_" gradientUnits="userSpaceOnUse" x1="281.389" y1="168.4185" x2="287.651" y2="168.4185" gradientTransform="matrix(1 0 0 -1 0 578)">
	<stop  offset="0" style="stop-color:#25054D"/>
	<stop  offset="0.5833" style="stop-color:#2F085F"/>
	<stop  offset="1" style="stop-color:#370B6F"/>
</linearGradient>
<path class="st16" d="M287.7,411.4c0,1.8-1.4,2.7-3.2,1.8c-1.8-0.9-3.2-3.2-3.2-5.5c0-1.8,1.4-2.7,3.2-1.8
	C286.3,406.9,287.7,409.6,287.7,411.4z"/>
<linearGradient id="SVGID_18_" gradientUnits="userSpaceOnUse" x1="289.9676" y1="166.9156" x2="284.2126" y2="174.6426" gradientTransform="matrix(1 0 0 -1 0 578)">
	<stop  offset="0" style="stop-color:#25054D"/>
	<stop  offset="0.5" style="stop-color:#45108A"/>
	<stop  offset="1" style="stop-color:#25054D"/>
</linearGradient>
<path class="st17" d="M291.3,410c0-2.3-1.8-5-3.6-6.4c-0.9-0.5-1.8-0.5-2.7-0.5l-3.2,1.8c0.5-0.5,1.8-0.5,2.7,0
	c1.8,1.4,3.6,4.1,3.6,6.4L291.3,410z"/>
<radialGradient id="SVGID_19_" cx="-62.6873" cy="653.3068" r="1.0001" gradientTransform="matrix(3.3824 0 0 -3.3761 497.1976 2615.1882)" gradientUnits="userSpaceOnUse">
	<stop  offset="0" style="stop-color:#FFFFFF"/>
	<stop  offset="1" style="stop-color:#000000"/>
</radialGradient>
<path class="st18" d="M284.5,405.9c-0.9-0.5-1.4-0.5-2.3-0.5C283.1,405.5,283.6,405.5,284.5,405.9c1.4,0.9,2.7,3.6,2.7,5.5
	c0,0.9-0.5,1.8-0.9,1.8c0.9,0,1.4-0.9,1.4-2.3C287.7,409.6,286.3,406.9,284.5,405.9z"/>
<linearGradient id="SVGID_20_" gradientUnits="userSpaceOnUse" x1="293.293" y1="133.634" x2="297.919" y2="133.634" gradientTransform="matrix(1 0 0 -1 0 578)">
	<stop  offset="0" style="stop-color:#25054D"/>
	<stop  offset="0.5" style="stop-color:#45108A"/>
	<stop  offset="1" style="stop-color:#25054D"/>
</linearGradient>
<path class="st19" d="M298.2,442.3h-4.6v2.7c0,0.9,0.9,1.4,2.3,1.4s2.3-0.5,2.3-1.4V442.3z"/>
<linearGradient id="SVGID_21_" gradientUnits="userSpaceOnUse" x1="293.8077" y1="136.7505" x2="297.5247" y2="134.6005" gradientTransform="matrix(1 0 0 -1 0 578)">
	<stop  offset="0" style="stop-color:#25054D"/>
	<stop  offset="0.5833" style="stop-color:#2F085F"/>
	<stop  offset="1" style="stop-color:#370B6F"/>
</linearGradient>
<path class="st20" d="M298.2,442.3c0,0.9-0.9,1.4-2.3,1.4s-2.3-0.5-2.3-1.4c0-0.9,0.9-1.4,2.3-1.4
	C296.8,441,298.2,441.9,298.2,442.3z"/>
<linearGradient id="SVGID_22_" gradientUnits="userSpaceOnUse" x1="284.166" y1="173.193" x2="288.792" y2="173.193" gradientTransform="matrix(1 0 0 -1 0 578)">
	<stop  offset="0" style="stop-color:#25054D"/>
	<stop  offset="0.5" style="stop-color:#45108A"/>
	<stop  offset="1" style="stop-color:#25054D"/>
</linearGradient>
<path class="st21" d="M289.1,402.8h-4.6v2.7c0,0.9,0.9,1.4,2.3,1.4c1.4,0,2.3-0.5,2.3-1.4V402.8z"/>
<linearGradient id="SVGID_23_" gradientUnits="userSpaceOnUse" x1="284.6039" y1="176.4496" x2="288.3209" y2="174.2996" gradientTransform="matrix(1 0 0 -1 0 578)">
	<stop  offset="0" style="stop-color:#25054D"/>
	<stop  offset="0.5833" style="stop-color:#2F085F"/>
	<stop  offset="1" style="stop-color:#370B6F"/>
</linearGradient>
<path class="st22" d="M289.1,402.8c0,0.9-0.9,1.4-2.3,1.4c-1.4,0-2.3-0.5-2.3-1.4c0-0.9,0.9-1.4,2.3-1.4
	C287.7,401.4,289.1,401.9,289.1,402.8z"/>
<linearGradient id="SVGID_24_" gradientUnits="userSpaceOnUse" x1="343.257" y1="195.018" x2="347.883" y2="195.018" gradientTransform="matrix(1 0 0 -1 0 578)">
	<stop  offset="0" style="stop-color:#25054D"/>
	<stop  offset="0.5" style="stop-color:#45108A"/>
	<stop  offset="1" style="stop-color:#25054D"/>
</linearGradient>
<path class="st23" d="M347.8,380.9h-4.6v2.7c0,0.9,0.9,1.4,2.3,1.4c1.4,0,2.3-0.5,2.3-1.4V380.9z"/>
<linearGradient id="SVGID_25_" gradientUnits="userSpaceOnUse" x1="391.29" y1="163.1895" x2="395.916" y2="163.1895" gradientTransform="matrix(1 0 0 -1 0 578)">
	<stop  offset="0" style="stop-color:#25054D"/>
	<stop  offset="0.5" style="stop-color:#45108A"/>
	<stop  offset="1" style="stop-color:#25054D"/>
</linearGradient>
<path class="st24" d="M396.1,412.8h-4.6v2.7c0,0.9,0.9,1.4,2.3,1.4c1.4,0,2.3-0.5,2.3-1.4V412.8z"/>
<linearGradient id="SVGID_26_" gradientUnits="userSpaceOnUse" x1="391.8334" y1="166.2564" x2="395.5504" y2="164.1064" gradientTransform="matrix(1 0 0 -1 0 578)">
	<stop  offset="0" style="stop-color:#25054D"/>
	<stop  offset="0.5833" style="stop-color:#2F085F"/>
	<stop  offset="1" style="stop-color:#370B6F"/>
</linearGradient>
<path class="st25" d="M396.1,412.8c0,0.9-0.9,1.4-2.3,1.4c-1.4,0-2.3-0.5-2.3-1.4c0-0.9,0.9-1.4,2.3-1.4
	C394.7,411.4,396.1,412.3,396.1,412.8z"/>
<linearGradient id="SVGID_27_" gradientUnits="userSpaceOnUse" x1="361.111" y1="126.359" x2="365.737" y2="126.359" gradientTransform="matrix(1 0 0 -1 0 578)">
	<stop  offset="0" style="stop-color:#25054D"/>
	<stop  offset="0.5" style="stop-color:#45108A"/>
	<stop  offset="1" style="stop-color:#25054D"/>
</linearGradient>
<path class="st26" d="M365.6,449.6H361v2.7c0,0.9,0.9,1.4,2.3,1.4s2.3-0.5,2.3-1.4V449.6z"/>
<linearGradient id="SVGID_28_" gradientUnits="userSpaceOnUse" x1="361.5952" y1="129.3166" x2="365.3122" y2="127.1666" gradientTransform="matrix(1 0 0 -1 0 578)">
	<stop  offset="0" style="stop-color:#25054D"/>
	<stop  offset="0.5833" style="stop-color:#2F085F"/>
	<stop  offset="1" style="stop-color:#370B6F"/>
</linearGradient>
<path class="st27" d="M365.6,449.6c0,0.9-0.9,1.4-2.3,1.4s-2.3-0.5-2.3-1.4c0-0.9,0.9-1.4,2.3-1.4S365.6,449.1,365.6,449.6z"/>
<linearGradient id="SVGID_29_" gradientUnits="userSpaceOnUse" x1="335.2766" y1="162.8536" x2="380.4175" y2="223.7006" gradientTransform="matrix(1 0 0 -1 0 578)">
	<stop  offset="3.030300e-02" style="stop-color:#8688B3"/>
	<stop  offset="0.4899" style="stop-color:#AAABCB"/>
	<stop  offset="1" style="stop-color:#C7BAD8"/>
</linearGradient>
<path class="st28" d="M342.8,410.9l42.8-2.3c3.6,0,6.8,1.4,9.6,4.1c0.9,0.5,1.4,1.8,0.5,2.3c-2.7-2.3-5.9-3.6-9.6-3.2l-42.8,5.9
	l16.4,19.6c2.3,3.2,3.6,6.4,5,9.5l0.9,2.7c0,2.3-2.7,2.7-3.2,0.9c-1.4-4.5-4.1-7.7-6.8-11.4L336.4,420l-29.6,14.6
	c-4.6,2.7-8.2,5.5-10.9,10c-0.9,1.8-3.2,0.5-2.7-1.4l0.5-0.9c2.3-4.1,5.5-7.7,9.6-10.5l26.9-15.5l-38.7-13.6
	c-1.8-0.5-4.1-0.5-5.9,0.5c-0.9,0.5-1.8,0.5-1.4-0.5c2.3-2.3,5.5-3.2,8.7-2.3l41,10l10-28.6c0.5-1.4,4.1-0.9,3.6,0.5L342.8,410.9z"
	/>
<linearGradient id="SVGID_30_" gradientUnits="userSpaceOnUse" x1="318.3072" y1="195.5465" x2="358.7242" y2="125.4184" gradientTransform="matrix(1 0 0 -1 0 578)">
	<stop  offset="3.030300e-02" style="stop-color:#8688B3"/>
	<stop  offset="0.4899" style="stop-color:#AAABCB"/>
	<stop  offset="1" style="stop-color:#C7BAD8"/>
</linearGradient>
<path class="st29" d="M341.9,407.8h43.7c3.6,0,6.8,1.4,9.6,4.1c0.9,0.5,1.4,1.8,0.5,2.3c-2.7-2.3-5.9-3.6-9.6-3.2l-42.8,1.8
	l16.4,23.6c2.3,3.2,3.6,6.4,5,9.5l0.9,2.7c0,2.3-2.7,2.7-3.2,0.9c-1.4-4.5-4.1-8.6-6.8-12.3L336.4,415l-29.6,17.7
	c-4.6,2.7-8.2,6.4-10.9,10.9c-0.9,1.8-3.2,0.5-2.7-1.4l0.5-0.9c2.3-4.1,5.5-7.7,9.6-10.5l26.9-19.1l-38.7-9.5
	c-1.8-0.5-4.1-0.5-5.9,0.5c-0.9,0.5-1.8,0.5-0.9-0.5c2.3-2.3,5.5-3.2,8.7-2.3l41,7.7l9.1-24.1l0.9-2.7c0.5-1.4,4.1-0.9,3.6,0.5
	l-0.5,3.2L341.9,407.8z"/>
<linearGradient id="SVGID_31_" gradientUnits="userSpaceOnUse" x1="328.832" y1="169.328" x2="342.928" y2="169.328" gradientTransform="matrix(1 0 0 -1 0 578)">
	<stop  offset="0" style="stop-color:#8A92B3"/>
	<stop  offset="6.186410e-02" style="stop-color:#8E95B6"/>
	<stop  offset="0.1294" style="stop-color:#9C9EBE"/>
	<stop  offset="0.1993" style="stop-color:#B1ACCB"/>
	<stop  offset="0.2525" style="stop-color:#C7BAD8"/>
	<stop  offset="0.3333" style="stop-color:#B2AACC"/>
	<stop  offset="0.4494" style="stop-color:#9A97BE"/>
	<stop  offset="0.5569" style="stop-color:#8B8CB6"/>
	<stop  offset="0.6465" style="stop-color:#8688B3"/>
	<stop  offset="0.8485" style="stop-color:#AAABCB"/>
	<stop  offset="1" style="stop-color:#9396B3"/>
</linearGradient>
<path class="st30" d="M343.3,402.3h-14.1v8.6c0,2.3,3.2,4.1,7.3,4.1s7.3-1.8,7.3-4.1v-8.6H343.3z"/>
<linearGradient id="SVGID_32_" gradientUnits="userSpaceOnUse" x1="330.3542" y1="178.9448" x2="341.6792" y2="172.3938" gradientTransform="matrix(1 0 0 -1 0 578)">
	<stop  offset="5.555560e-02" style="stop-color:#838FC7"/>
	<stop  offset="0.2603" style="stop-color:#8590C8"/>
	<stop  offset="0.3611" style="stop-color:#8D94CB"/>
	<stop  offset="0.439" style="stop-color:#9A9ACF"/>
	<stop  offset="0.4949" style="stop-color:#A9A1D5"/>
	<stop  offset="0.5931" style="stop-color:#ADA5D7"/>
	<stop  offset="0.7001" style="stop-color:#B9B3DD"/>
	<stop  offset="0.8115" style="stop-color:#CDC8E7"/>
	<stop  offset="0.925" style="stop-color:#E9E7F4"/>
	<stop  offset="1" style="stop-color:#FFFFFF"/>
</linearGradient>
<path class="st31" d="M336,406.4c4,0,7.3-1.8,7.3-4.1s-3.3-4.1-7.3-4.1c-4,0-7.3,1.8-7.3,4.1S331.9,406.4,336,406.4z"/>
<linearGradient id="SVGID_33_" gradientUnits="userSpaceOnUse" x1="329.874" y1="189.789" x2="341.899" y2="189.789" gradientTransform="matrix(1 0 0 -1 0 578)">
	<stop  offset="0" style="stop-color:#8A92B3"/>
	<stop  offset="6.186410e-02" style="stop-color:#8E95B6"/>
	<stop  offset="0.1294" style="stop-color:#9C9EBE"/>
	<stop  offset="0.1993" style="stop-color:#B1ACCB"/>
	<stop  offset="0.2525" style="stop-color:#C7BAD8"/>
	<stop  offset="0.3333" style="stop-color:#B2AACC"/>
	<stop  offset="0.4494" style="stop-color:#9A97BE"/>
	<stop  offset="0.5569" style="stop-color:#8B8CB6"/>
	<stop  offset="0.6465" style="stop-color:#8688B3"/>
	<stop  offset="0.8485" style="stop-color:#AAABCB"/>
	<stop  offset="1" style="stop-color:#9396B3"/>
</linearGradient>
<path class="st32" d="M341.9,371.8h-12.3v29.1c0,1.8,2.7,3.6,5.9,3.6c3.2,0,5.9-1.4,5.9-3.6v-29.1H341.9z"/>
<linearGradient id="SVGID_34_" gradientUnits="userSpaceOnUse" x1="335.7475" y1="203.672" x2="335.7475" y2="189.016" gradientTransform="matrix(1 0 0 -1 0 578)">
	<stop  offset="0" style="stop-color:#4C4C4C"/>
	<stop  offset="1" style="stop-color:#FFFFFF"/>
</linearGradient>
<path class="st33" d="M341.9,358.2h-12.3v29.1c0,1.8,2.7,3.6,5.9,3.6c3.2,0,5.9-1.4,5.9-3.6v-29.1H341.9z"/>
<linearGradient id="SVGID_35_" gradientUnits="userSpaceOnUse" x1="347.5546" y1="202.1099" x2="500.4325" y2="247.9719" gradientTransform="matrix(1 0 0 -1 0 578)">
	<stop  offset="3.030300e-02" style="stop-color:#8688B3"/>
	<stop  offset="0.4899" style="stop-color:#AAABCB"/>
	<stop  offset="1" style="stop-color:#C7BAD8"/>
</linearGradient>
<path class="st34" d="M334.2,386.8v6.4l72-41.4V345L334.2,386.8z"/>
<linearGradient id="SVGID_36_" gradientUnits="userSpaceOnUse" x1="202.3518" y1="187.0386" x2="399.0518" y2="231.2146" gradientTransform="matrix(1 0 0 -1 0 578)">
	<stop  offset="3.030300e-02" style="stop-color:#8688B3"/>
	<stop  offset="0.4899" style="stop-color:#AAABCB"/>
	<stop  offset="1" style="stop-color:#C7BAD8"/>
</linearGradient>
<path class="st35" d="M334.2,386.8v6.4l-71.1-40.9v-6.8L334.2,386.8z"/>
<path class="st36" d="M334.2,382.8v6.8l72-41.8v-6.8L334.2,382.8z"/>
<linearGradient id="SVGID_37_" gradientUnits="userSpaceOnUse" x1="202.4238" y1="190.6922" x2="399.1237" y2="234.8672" gradientTransform="matrix(1 0 0 -1 0 578)">
	<stop  offset="3.535350e-02" style="stop-color:#9F19AB"/>
	<stop  offset="0.2438" style="stop-color:#AE25B1"/>
	<stop  offset="0.6455" style="stop-color:#D744BF"/>
	<stop  offset="1" style="stop-color:#FF63CE"/>
</linearGradient>
<path class="st37" d="M334.2,382.8v6.8l-71.1-41.4v-6.4L334.2,382.8z"/>
<path class="st38" d="M263.1,341.8l71.1,40.9l72-41.8L335.5,300L263.1,341.8z"/>
<path class="st38" d="M406.6,340.9c0-30.5,4.6-60.9,14.1-90l1.8-5.5l-5.5,3.2l-15.9,49.1v45.9L406.6,340.9z"/>
<path class="st39" d="M417.1,249.1L346,207.7l-1.8,5.9c-9.1,28.6-14.1,58.7-14.1,88.7v0.5l71.1,41.4c0-30.5,4.6-60.5,14.1-89.6
	L417.1,249.1z"/>
<path class="st38" d="M346,207.2l71.1,41.8l5-3.2l-70.6-41.4L346,207.2z"/>
<linearGradient id="SVGID_38_" gradientUnits="userSpaceOnUse" x1="314.232" y1="217.8161" x2="253.7985" y2="217.8161" gradientTransform="matrix(1 0 0 -1 0 578)">
	<stop  offset="0" style="stop-color:#311B61"/>
	<stop  offset="0.2031" style="stop-color:#290F52"/>
	<stop  offset="0.4949" style="stop-color:#200041"/>
	<stop  offset="1" style="stop-color:#0F001F"/>
</linearGradient>
<path class="st40" d="M258.1,342.3c-7.3,3.2-4.1,16.4,2.7,19.1c6.8,2.7,40.1,20.9,49.7,15.9c9.6-5-0.5-14.1-9.1-17.3
	C292.7,356.8,261.3,340.9,258.1,342.3z"/>
<radialGradient id="SVGID_39_" cx="-89.4949" cy="685.5961" r="1" gradientTransform="matrix(-179.845 0 0 179.511 -15886.1123 -122692.7813)" gradientUnits="userSpaceOnUse">
	<stop  offset="3.030300e-02" style="stop-color:#FEDFCB"/>
	<stop  offset="1" style="stop-color:#F9B69E"/>
</radialGradient>
<path class="st41" d="M316.4,304.1c0,0-21.4,14.5-38.3,26.4c-12.3,8.6-25.5,16.4-26.9,26.8c-1.4,10.5,1.4,18.6,5,30.5
	c3.2,11.8,9.1,28.2,7.7,39.6c-1.4,12.7-20.5,21.8-19.1,31.8c0.5,2.3,16.4,4.1,24.6-3.6c2.3-2.3,8.7-10.5,9.6-13.2
	c5-10.9,0-16.8-0.9-20.9c-0.9-4.5,0.9-27.3,0.9-37.7s-2.7-22.3-2.7-22.3s24.1-7.7,41-15c16.4-6.8,32.3-36.4,32.3-36.4L316.4,304.1z"
	/>
<radialGradient id="SVGID_40_" cx="-89.4949" cy="685.5961" r="1" gradientTransform="matrix(-179.845 0 0 179.511 -15886.1123 -122692.7813)" gradientUnits="userSpaceOnUse">
	<stop  offset="3.030300e-02" style="stop-color:#FEDFCB"/>
	<stop  offset="1" style="stop-color:#F9B69E"/>
</radialGradient>
<path class="st42" d="M341,315.5c0,0-13.2,10.5-27.3,23.2c-14.1,12.7-33.3,25.9-33.3,35.9c0,8.2,3.6,16.8,7.7,30
	c4.1,13.2,6.4,32.7,5.5,40c-1.8,16.4-23.2,27.7-17.3,28.2c3.6,0.5,25.1,5.5,31.4-5.9c4.6-7.7,5.9-19.6,1.8-27.3
	c-2.7-5.5,0.5-28.6,1.4-39.6c0.9-10.9-3.2-23.6-3.2-23.6s46.9-15,61-29.6c14.6-14.1,6.4-32.7,6.4-32.7L341,315.5z"/>
<path class="st43" d="M324.1,287.7c0,0-5.5,10.9-9.1,15c-3.6,4.1-13.2,7.3-29.6,18.6c-15,10.5-27.3,21.4-27.3,21.4
	s39.2,18.2,44.2,20.9c7.3,3.6,8.7,14.1,8.7,14.1s42.4-18.2,53.8-25c14.1-8.2,16.4-17.3,15-30.5c-1.4-12.7-9.6-32.7-9.6-32.7
	L324.1,287.7z"/>
<path class="st44" d="M379.2,322.3c-1.4-12.7-9.6-32.7-9.6-32.7l-5.9-0.5c0,1.4,0,2.7,0,3.6c0.9,8.2,4.6,35,0,46.8
	c-4.1,11.4-40.5,24.6-56.5,30c2.3,4.1,2.7,8.2,2.7,8.2s42.4-18.2,53.8-25C378.3,344.1,380.6,335,379.2,322.3z"/>
<path class="st45" d="M318.7,265l-15-6.8c0,0,6.4-22.7,7.3-28.6c0.9-5.9,5.5-21.8,16.4-23.2c12.3-1.8,8.2,17.7,5.5,25.5
	C330.5,240,318.7,265,318.7,265z"/>
<path class="st43" d="M332.3,205.9c-10.5-0.5-10,0.9-12.3,2.7c-2.3,1.8-4.1,14.6-4.6,20.5c-0.9,6.4-10.5,21.8-1.4,30.5
	c9.1,9.1,9.6,16.8,9.6,20c0,3.2-0.9,10-0.9,10s19.6,8.2,32.3,8.6c11.4,0,15.9-4.5,15.9-4.5s-0.9-17.7,0.5-23.6
	c0.9-5.9,11.4-41.4,8.7-46.4c-2.7-5-12.3-7.3-19.6-10.5C353.3,210.9,332.3,205.9,332.3,205.9z"/>
<radialGradient id="SVGID_41_" cx="-90.9622" cy="687.3635" r="1" gradientTransform="matrix(-45.3565 0 0 45.2722 -3803.9243 -30930.3438)" gradientUnits="userSpaceOnUse">
	<stop  offset="3.030300e-02" style="stop-color:#FEDFCB"/>
	<stop  offset="1" style="stop-color:#F9B69E"/>
</radialGradient>
<path class="st46" d="M335.5,207.2c-0.9,5.9,1.8,8.6-2.3,14.6c-4.1,6.4,4.1,9.1,8.7,9.5c6.8,0.5,13.7-6.8,15.5-9.5
	c2.3-3.2,3.2-7.3,0.9-10.5c-2.7-3.6-1.8-9.5-1.8-14.1C356.5,180,335.5,206.8,335.5,207.2z"/>
<path class="st43" d="M279.9,467.3c-1.8,0.9-5.9,4.1-7.3,7.7c-1.4,4.1,1.8,5.9,6.8,7.3c5.5,1.4,11.4,1.4,15,0
	c3.6-1.4,7.7-9.5,8.7-9.5c0.9,0,4.6,1.4,4.6,1.4c0.5,0,2.7-2.7,2.7-2.7c0-0.5,0.9-10,2.3-12.7c1.4-2.7,3.2-5,2.3-9.5
	c-0.9-4.5-4.1-6.8-4.1-6.8s1.4,3.6-0.5,9.1c-1.8,5.5-9.1,16.4-9.6,17.7c-0.5,1.4-4.1,5-4.1,5s-2.3-3.6-7.3-5.5
	C285.4,466.9,279.9,467.3,279.9,467.3z"/>
<path class="st43" d="M247.6,450c-1.8,0.9-5.9,4.1-7.3,7.7c-1.4,4.1,1.8,5.9,6.8,7.3c5.5,1.4,11.4,1.4,15,0c3.6-1.4,7.7-9.5,8.7-9.5
	c0.9,0,4.6,1.4,4.6,1.4c0.5,0,2.7-2.7,2.7-2.7c0-0.5,0.9-10,2.3-12.7c1.4-2.7,3.2-5,2.3-9.5c-0.9-4.5-4.1-6.8-4.1-6.8
	s1.4,3.6-0.5,9.1c-1.8,5.5-9.1,16.4-9.6,17.7c-0.5,1.4-4.1,5-4.1,5s-2.3-3.6-7.3-5.5C252.6,449.6,247.6,450,247.6,450z"/>
<path class="st45" d="M371.1,293.6c0,0-0.9-17.7,0.5-23.6c0.5-2.7,3.2-11.8,5.5-21.4c-1.8,2.3-3.6,5-5,7.3
	c-4.6,8.2-8.2,30.5-7.3,38.7c0,0.9,0,1.8,0.5,2.7C369.2,295.9,371.1,293.6,371.1,293.6z"/>
<path class="st47" d="M427.5,382.3h-15.9v131.4c0,2.7,3.6,4.5,7.7,4.5c4.6,0,7.7-2.3,7.7-4.5V382.3H427.5z"/>
<path class="st47" d="M326.9,440h-15.9v131.4c0,2.7,3.6,4.5,7.7,4.5c4.6,0,7.7-2.3,7.7-4.5V440H326.9z"/>
<path class="st47" d="M102.3,310.9H86.3v131.4c0,2.7,3.6,4.5,7.7,4.5c4.6,0,7.7-2.3,7.7-4.5V310.9H102.3z"/>
<path class="st48" d="M431.6,386.8v-8.6l-6.8-1.4L206.6,251.3c-6.4-3.6-15.9-4.1-21.4-0.9l-98.9,57.7l-4.1-0.9v10c0,2.3,1.8,5,5,6.8
	l219.6,126c6.4,3.6,15.9,4.1,21.4,0.9l98.9-57.7C430.7,391.4,431.6,389.1,431.6,386.8z"/>
<path class="st49" d="M328.7,441l98.9-57.7c5.5-3.2,5-8.6-1.4-12.3L206.6,244.5c-6.4-3.6-15.9-4.1-21.4-0.9l-99.3,57.7
	c-5.5,3.2-5,8.6,1.4,12.3l219.6,126C313.7,443.7,323.2,444.1,328.7,441z"/>
<g class="st50">
	<path class="st51" d="M261.3,290.5c2.3-1.4,5.5-1.8,8.2-1.8c1.4,0,2.3,0.5,3.2,0.9c0.5,0,2.7,1.4,3.2,1.4l71.1,40.9
		c2.3,1.4,2.7,3.6,1.4,5.5c-0.5,0.5-0.5,0.9-1.4,1.4c0,0.5-4.1,3.2-5,3.6L305,363.7l-1.4,0.9c-1.8,0.9-3.6,1.4-5.9,1.4
		c-2.3,0-4.6-0.5-5.9-1.4l-72.9-42.3c-2.3-1.4-2.7-3.6-1.4-5.9c0.5-0.5,0.5-0.9,0.9-1.4c0-0.5,4.6-3.2,5-3.6L261.3,290.5z"/>
	<path class="st52" d="M261.7,290.9c2.3-1.4,5.5-1.8,8.2-1.4c1.4,0,2.3,0.5,3.2,0.9l2.7,1.4l70.6,40.9c2.3,1.4,2.7,3.6,1.4,5.5
		c-0.5,0.5-0.9,0.9-1.4,1.4c0,0.5-4.6,3.2-5,3.2L305,363.7l-1.4,0.9c-1.8,0.9-3.6,1.4-5.9,1.4c-2.3,0-4.1-0.5-5.9-1.4l-72.9-42.3
		c-2.3-1.4-2.7-3.6-1.4-5.5c0.5-0.5,0.5-0.9,0.9-0.9c0-0.5,5-3.2,5-3.6L261.7,290.9z"/>
	<path class="st53" d="M261.7,290.9c2.3-1.4,5.5-1.8,8.2-1.4c1.4,0,2.3,0.5,3.2,0.9c0,0,2.7,1.4,2.7,1.8l70.6,40.5
		c2.3,1.4,2.7,3.6,0.9,5.5c-0.5,0.5-0.9,0.9-1.4,1.4c0,0-4.6,2.7-5,3.2l-35.5,20.5l-1.4,0.9c-1.8,0.9-3.6,1.4-5.9,1.4
		c-2.3,0-4.1-0.5-5.9-1.4l-72.9-42.3c-2.3-1.4-2.7-3.6-0.9-5.5c0.5-0.5,0.9-0.9,1.4-0.9c0,0,5-3.2,5.5-3.2L261.7,290.9z"/>
	<path class="st54" d="M292.7,363.7l-72.9-42.3c-2.7-1.8-2.7-4.5,0.9-6.4l41.5-24.1c3.2-1.8,8.2-2.3,11.4-0.5l72.9,42.3
		c2.7,1.8,2.7,4.5-0.9,6.4l-41.5,24.1C300.4,365,295.4,365.5,292.7,363.7z"/>
</g>
<linearGradient id="SVGID_42_" gradientUnits="userSpaceOnUse" x1="220.586" y1="250.946" x2="363.483" y2="250.946" gradientTransform="matrix(1 0 0 -1 0 578)">
	<stop  offset="5.555560e-02" style="stop-color:#200041"/>
	<stop  offset="0.2576" style="stop-color:#210243"/>
	<stop  offset="0.3572" style="stop-color:#25084B"/>
	<stop  offset="0.4341" style="stop-color:#2C1358"/>
	<stop  offset="0.4697" style="stop-color:#311B61"/>
	<stop  offset="0.482" style="stop-color:#351F65"/>
	<stop  offset="0.4954" style="stop-color:#422C73"/>
	<stop  offset="0.5093" style="stop-color:#584188"/>
	<stop  offset="0.5235" style="stop-color:#765FA7"/>
	<stop  offset="0.5303" style="stop-color:#8770B8"/>
	<stop  offset="0.5366" style="stop-color:#7E67AE"/>
	<stop  offset="0.5617" style="stop-color:#5C468D"/>
	<stop  offset="0.5857" style="stop-color:#442E75"/>
	<stop  offset="0.6078" style="stop-color:#362066"/>
	<stop  offset="0.6263" style="stop-color:#311B61"/>
	<stop  offset="0.6724" style="stop-color:#2A1155"/>
	<stop  offset="0.7491" style="stop-color:#230446"/>
	<stop  offset="0.8131" style="stop-color:#200041"/>
	<stop  offset="1" style="stop-color:#200041"/>
</linearGradient>
<path class="st55" d="M292.7,363.7l-72.9-42.3c-1.4-0.9-1.8-1.8-1.8-2.7V315c0-1.4,0.9,0.9,2.7,0l41.5-24.1
	c3.2-1.8,8.2-2.3,11.4-0.5l72.9,42.3c0.9,0.5,1.8-1.8,1.8-0.9c0,0.5,0,3.6,0,3.6c0,1.4-0.9,2.7-2.7,3.6l-41.5,24.1
	C300.4,365,295.4,365.5,292.7,363.7z"/>
<linearGradient id="SVGID_43_" gradientUnits="userSpaceOnUse" x1="217.7" y1="254.5833" x2="348.089" y2="254.5833" gradientTransform="matrix(1 0 0 -1 0 578)">
	<stop  offset="0" style="stop-color:#311B61"/>
	<stop  offset="0.2031" style="stop-color:#290F52"/>
	<stop  offset="0.4949" style="stop-color:#200041"/>
	<stop  offset="1" style="stop-color:#0F001F"/>
</linearGradient>
<path class="st56" d="M292.7,360l-72.9-42.3c-2.7-1.8-2.7-4.5,0.9-6.4l41.5-24.1c3.2-1.8,8.2-2.3,11.4-0.5l72.9,42.3
	c2.7,1.8,2.7,4.5-0.9,6.4l-41.5,24.1C300.4,361.4,295.4,361.8,292.7,360z"/>
<linearGradient id="SVGID_44_" gradientUnits="userSpaceOnUse" x1="344.6134" y1="242.1931" x2="234.5424" y2="263.4821" gradientTransform="matrix(1 0 0 -1 0 578)">
	<stop  offset="0" style="stop-color:#3D065F"/>
	<stop  offset="1" style="stop-color:#5F27BD"/>
</linearGradient>
<path class="st57" d="M297.7,360c-1.8,0-3.2-0.5-4.1-0.9l-72.9-42.3c-0.5-0.5-1.4-0.9-1.4-1.4c0-0.9,0.9-1.8,1.8-2.3l41.5-24.1
	c1.4-0.9,3.6-1.4,5.5-1.4c1.8,0,3.2,0.5,4.1,0.9l72.9,42.3c0.5,0.5,1.4,0.9,1.4,1.4c0,0.9-0.9,1.8-1.8,2.3l-41.5,24.1
	C301.8,359.1,299.5,360,297.7,360z"/>
<linearGradient id="SVGID_45_" gradientUnits="userSpaceOnUse" x1="279.5923" y1="233.2689" x2="281.3783" y2="276.4599" gradientTransform="matrix(1 0 0 -1 0 578)">
	<stop  offset="0" style="stop-color:#3D065F"/>
	<stop  offset="1" style="stop-color:#10054D"/>
</linearGradient>
<path class="st58" d="M296.3,350l-59.2-34.1c-1.4-0.9-0.9-1.8,0.5-2.7l22.3-12.7c1.4-0.9,3.6-0.9,4.6,0l59.2,34.1
	c1.4,0.9,0.9,1.8-0.5,2.7L300.9,350C299.5,350.9,297.3,350.9,296.3,350z"/>
<linearGradient id="SVGID_46_" gradientUnits="userSpaceOnUse" x1="263.6469" y1="278.6491" x2="296.8529" y2="226.4411" gradientTransform="matrix(1 0 0 -1 0 578)">
	<stop  offset="5.555560e-02" style="stop-color:#9F79B8"/>
	<stop  offset="0.2502" style="stop-color:#A17BBA"/>
	<stop  offset="0.3461" style="stop-color:#A883C0"/>
	<stop  offset="0.4204" style="stop-color:#B490CC"/>
	<stop  offset="0.4836" style="stop-color:#C5A3DC"/>
	<stop  offset="0.5392" style="stop-color:#DBBBF0"/>
	<stop  offset="0.5606" style="stop-color:#E6C6FA"/>
	<stop  offset="0.5967" style="stop-color:#D6B6F1"/>
	<stop  offset="0.6872" style="stop-color:#B595DD"/>
	<stop  offset="0.7735" style="stop-color:#9D7DCF"/>
	<stop  offset="0.8529" style="stop-color:#8E6EC6"/>
	<stop  offset="0.9192" style="stop-color:#8969C3"/>
</linearGradient>
<path class="st59" d="M260.8,303.2l3.6,2.3c0.5,0.5,1.4,0.5,1.8,0c0.5-0.5,0.5-0.9,0-0.9l-3.6-2.3c-0.5-0.5-1.4-0.5-1.8,0
	C260.4,302.3,260.4,302.7,260.8,303.2z M267.2,306.8l1.8,0.9c0.5,0.5,1.4,0.5,1.8,0c0.5-0.5,0.5-0.9,0-0.9l-1.8-0.9
	c-0.5-0.5-1.4-0.5-1.8,0C266.7,305.9,266.7,306.4,267.2,306.8z M271.7,309.5l1.8,0.9c0.5,0.5,1.4,0.5,1.8,0c0.5-0.5,0.5-0.9,0-0.9
	l-1.8-0.9c-0.5-0.5-1.4-0.5-1.8,0C271.3,308.6,271.3,309.1,271.7,309.5z M276.3,311.8l1.8,0.9c0.5,0.5,1.4,0.5,1.8,0
	c0.5-0.5,0.5-0.9,0-0.9l-1.8-0.9c-0.5-0.5-1.4-0.5-1.8,0C275.8,311.4,275.8,311.8,276.3,311.8z M280.9,314.5l1.8,0.9
	c0.5,0.5,1.4,0.5,1.8,0c0.5-0.5,0.5-0.9,0-0.9l-1.8-0.9c-0.5-0.5-1.4-0.5-1.8,0C280.4,313.6,280.4,314.1,280.9,314.5z M285.4,317.3
	l1.8,0.9c0.5,0.5,1.4,0.5,1.8,0c0.5-0.5,0.5-0.9,0-0.9l-1.8-0.9c-0.5-0.5-1.4-0.5-1.8,0C285,316.4,285,316.8,285.4,317.3z
	 M290,319.6l1.8,0.9c0.5,0.5,1.4,0.5,1.8,0c0.5-0.5,0.5-0.9,0-0.9l-1.8-0.9c-0.5-0.5-1.4-0.5-1.8,0
	C289.5,319.1,289.5,319.6,290,319.6z M294.5,322.3l1.8,0.9c0.5,0.5,1.4,0.5,1.8,0c0.5-0.5,0.5-0.9,0-0.9l-1.8-0.9
	c-0.5-0.5-1.4-0.5-1.8,0C294.1,321.4,294.1,321.8,294.5,322.3z M299.1,325l1.8,0.9c0.5,0.5,1.4,0.5,1.8,0c0.5-0.5,0.5-0.9,0-0.9
	l-1.8-0.9c-0.5-0.5-1.4-0.5-1.8,0C298.6,324.1,298.6,324.6,299.1,325z M303.6,327.7l1.8,0.9c0.5,0.5,1.4,0.5,1.8,0
	c0.5-0.5,0.5-0.9,0-0.9l-1.8-0.9c-0.5-0.5-1.4-0.5-1.8,0C302.7,326.8,302.7,327.3,303.6,327.7z M307.7,330l1.8,0.9
	c0.5,0.5,1.4,0.5,1.8,0c0.5-0.5,0.5-0.9,0-0.9l-1.8-0.9c-0.5-0.5-1.4-0.5-1.8,0C307.3,329.6,307.3,330,307.7,330z M312.3,332.7
	l1.8,0.9c0.5,0.5,1.4,0.5,1.8,0c0.5-0.5,0.5-0.9,0-0.9l-1.8-0.9c-0.5-0.5-1.4-0.5-1.8,0C311.8,331.8,311.8,332.3,312.3,332.7z
	 M316.8,335.5l1.8,0.9c0.5,0.5,1.4,0.5,1.8,0c0.5-0.5,0.5-0.9,0-0.9l-1.8-0.9c-0.5-0.5-1.4-0.5-1.8,0
	C316.4,334.6,316.4,335,316.8,335.5z M256.7,305.5l1.4,0.9c0.5,0.5,1.4,0.5,1.8,0l1.4-0.9c0.5-0.5,0.5-0.9,0-1.4l-1.4-0.9
	c-0.5-0.5-1.4-0.5-1.8,0l-1.4,1.4C256.3,304.5,256.3,305,256.7,305.5z M264.9,309.1l1.4-0.9c0.5-0.5,0.5-0.9,0-1.4l-1.4-0.9
	c-0.5-0.5-1.4-0.5-1.8,0l-1.8,0.9c-0.5,0.5-0.5,0.9,0,1.4l1.4,0.9C263.5,309.1,264.5,309.1,264.9,309.1z M265.8,310.5l1.4,0.9
	c0.5,0.5,1.4,0.5,1.8,0l1.4-0.9c0.5-0.5,0.5-0.9,0-1.4l-1.4-0.9c-0.5-0.5-1.4-0.5-1.8,0l-1.4,1.4C265.4,310,265.4,310.5,265.8,310.5
	z M270.4,313.2l1.4,0.9c0.5,0.5,1.4,0.5,1.8,0l1.4-0.9c0.5-0.5,0.5-0.9,0-1.4l-1.4-0.9c-0.5-0.5-1.4-0.5-1.8,0l-1.4,1.4
	C269.9,312.3,269.9,312.7,270.4,313.2z M279.9,314.5l-1.4-0.9c-0.5-0.5-1.4-0.5-1.8,0l-1.8,0.9c-0.5,0.5-0.5,0.9,0,1.4l1.4,0.9
	c0.5,0.5,1.4,0.5,1.8,0l1.4-0.9C280.4,315.5,280.4,315,279.9,314.5z M284.5,317.3l-1.4-0.9c-0.5-0.5-1.4-0.5-1.8,0l-1.8,0.9
	c-0.5,0.5-0.5,0.9,0,1.4l1.4,0.9c0.5,0.5,1.4,0.5,1.8,0l1.4-0.9C285,318.2,285,317.7,284.5,317.3z M289.1,320l-1.4-0.9
	c-0.5-0.5-1.4-0.5-1.8,0L284,320c-0.5,0.5-0.5,0.9,0,1.4l1.4,0.9c0.5,0.5,1.4,0.5,1.8,0l1.4-0.9C289.5,320.9,289.5,320,289.1,320z
	 M293.6,322.3l-1.4-0.9c-0.5-0.5-1.4-0.5-1.8,0l-1.4,0.9c-0.5,0.5-0.5,0.9,0,1.4l1.4,0.9c0.5,0.5,1.4,0.5,1.8,0l1.4-0.9
	C294.1,323.2,294.1,322.7,293.6,322.3z M298.2,325l-1.4-0.9c-0.5-0.5-1.4-0.5-1.8,0l-1.4,0.9c-0.5,0.5-0.5,0.9,0,1.4l1.4,0.9
	c0.5,0.5,1.4,0.5,1.8,0l1.4-0.9C298.6,325.9,298.6,325.5,298.2,325z M302.3,327.7l-1.4-0.9c-0.5-0.5-1.4-0.5-1.8,0l-1.8,0.9
	c-0.5,0.5-0.5,0.9,0,1.4l1.4,0.9c0.5,0.5,1.4,0.5,1.8,0l1.4-0.9C303.2,328.6,303.2,328.2,302.3,327.7z M301.8,331.4l1.4,0.9
	c0.5,0.5,1.4,0.5,1.8,0l1.4-0.9c0.5-0.5,0.5-0.9,0-1.4l-1.4-0.9c-0.5-0.5-1.4-0.5-1.8,0l-1.4,0.9
	C301.4,330.5,301.4,330.9,301.8,331.4z M311.4,332.7l-1.4-0.9c-0.5-0.5-1.4-0.5-1.8,0l-1.4,0.9c-0.5,0.5-0.5,0.9,0,1.4l1.4,0.9
	c0.5,0.5,1.4,0.5,1.8,0l1.4-0.9C311.8,333.6,311.8,333.2,311.4,332.7z M318.2,336.8l-3.6-2.3c-0.5-0.5-1.4-0.5-1.8,0l-1.4,0.9
	c-0.5,0.5-0.5,0.9,0,1.4l3.6,2.3c0.5,0.5,1.4,0.5,1.8,0l1.4-0.9C318.7,337.7,318.7,336.8,318.2,336.8z M252.6,307.7l3.6,2.3
	c0.5,0.5,1.4,0.5,1.8,0l1.4-0.9c0.5-0.5,0.5-0.9,0-1.4l-3.6-2.3c-0.5-0.5-1.4-0.5-1.8,0l-1.4,0.9
	C252.2,306.8,252.2,307.7,252.6,307.7z M259,311.8l1.4,0.9c0.5,0.5,1.4,0.5,1.8,0l1.4-0.9c0.5-0.5,0.5-0.9,0-1.4l-0.9-0.9
	c-0.5-0.5-1.4-0.5-1.8,0l-1.4,0.9C258.5,310.9,258.5,311.4,259,311.8z M265.4,315c0.5,0.5,1.4,0.5,1.8,0l1.4-0.9
	c0.5-0.5,0.5-0.9,0-1.4l-1.4-0.9c-0.5-0.5-1.4-0.5-1.8,0l-1.4,0.9c-0.5,0.5-0.5,0.9,0,1.4L265.4,315z M269.9,317.7
	c0.5,0.5,1.4,0.5,1.8,0l1.4-0.9c0.5-0.5,0.5-0.9,0-1.4l-1.4-0.9c-0.5-0.5-1.4-0.5-1.8,0l-1.4,0.9c-0.5,0.5-0.5,0.9,0,1.4
	L269.9,317.7z M274,317.3l-1.4,0.9c-0.5,0.5-0.5,0.9,0,1.4l1.4,0.9c0.5,0.5,1.4,0.5,1.8,0l1.4-0.9c0.5-0.5,0.5-0.9,0-1.4l-1.4-0.9
	C275.8,317.3,274.9,317.3,274,317.3z M279,320l-1.8,0.9c-0.5,0.5-0.5,0.9,0,0.9l1.8,0.9c0.5,0.5,1.4,0.5,1.8,0l1.8-0.9
	c0.5-0.5,0.5-0.9,0-0.9l-1.8-0.9C279.9,319.6,279.5,319.6,279,320z M283.1,322.7l-1.8,0.9c-0.5,0.5-0.5,0.9,0,0.9l1.8,0.9
	c0.5,0.5,1.4,0.5,1.8,0l1.8-0.9c0.5-0.5,0.5-0.9,0-0.9l-1.8-0.9C284.5,322.3,284,322.3,283.1,322.7z M287.7,325l-1.8,0.9
	c-0.5,0.5-0.5,0.9,0,0.9l1.8,0.9c0.5,0.5,1.4,0.5,1.8,0l1.8-0.9c0.5-0.5,0.5-0.9,0-0.9l-1.8-0.9C289.1,325,288.1,325,287.7,325z
	 M292.2,327.7l-1.8,0.9c-0.5,0.5-0.5,0.9,0,0.9l1.8,0.9c0.5,0.5,1.4,0.5,1.8,0l1.8-0.9c0.5-0.5,0.5-0.9,0-0.9l-1.8-0.9
	C293.6,327.3,292.7,327.3,292.2,327.7z M296.8,330.5l-1.8,0.9c-0.5,0.5-0.5,0.9,0,0.9l1.8,0.9c0.5,0.5,1.4,0.5,1.8,0l1.8-0.9
	c0.5-0.5,0.5-0.9,0-0.9l-1.8-0.9C298.2,330,297.3,330,296.8,330.5z M303.2,335.9l1.8-0.9c0.5-0.5,0.5-0.9,0-0.9l-1.8-0.9
	c-0.5-0.5-1.4-0.5-1.8,0l-1.8,0.9c-0.5,0.5-0.5,0.9,0,0.9l1.8,0.9C301.8,336.4,302.7,336.4,303.2,335.9z M307.7,338.6l1.8-0.9
	c0.5-0.5,0.5-0.9,0-0.9l-1.8-0.9c-0.5-0.5-1.4-0.5-1.8,0l-1.8,0.9c-0.5,0.5-0.5,0.9,0,0.9l1.8,0.9
	C306.4,338.6,307.3,338.6,307.7,338.6z M314.1,339.1l-1.8-0.9c-0.5-0.5-1.4-0.5-1.8,0l-1.8,0.9c-0.5,0.5-0.5,0.9,0,0.9l1.8,0.9
	c0.5,0.5,1.4,0.5,1.8,0l1.8-0.9C314.6,340,314.6,339.6,314.1,339.1z M248.5,310l5.5,3.2c0.5,0.5,1.4,0.5,1.8,0l1.8-0.9
	c0.5-0.5,0.5-0.9,0-0.9l-5.5-3.2c-0.5-0.5-1.4-0.5-1.8,0l-1.8,0.9C248.1,309.5,248.1,310,248.5,310z M256.7,315l1.8,0.9
	c0.5,0.5,1.4,0.5,1.8,0l1.8-0.9c0.5-0.5,0.5-0.9,0-0.9l-1.8-0.9c-0.5-0.5-1.4-0.5-1.8,0l-1.8,0.9C256.3,314.1,256.3,314.5,256.7,315
	z M261.3,317.7l1.8,0.9c0.5,0.5,1.4,0.5,1.8,0l1.8-0.9c0.5-0.5,0.5-0.9,0-0.9l-1.8-0.9c-0.5-0.5-1.4-0.5-1.8,0l-1.8,0.9
	C260.8,316.8,260.8,317.3,261.3,317.7z M265.8,320.5l1.8,0.9c0.5,0.5,1.4,0.5,1.8,0l1.8-0.9c0.5-0.5,0.5-0.9,0-0.9l-1.8-0.9
	c-0.5-0.5-1.4-0.5-1.8,0l-1.8,0.5C265.4,319.6,265.4,320,265.8,320.5z M274,323.6l1.8-0.9c0.5-0.5,0.5-0.9,0-0.9l-1.8-0.9
	c-0.5-0.5-1.4-0.5-1.8,0l-1.8,0.9c-0.5,0.5-0.5,0.9,0,0.9l1.8,0.9C272.7,324.1,273.6,324.1,274,323.6z M278.6,326.4l1.8-0.9
	c0.5-0.5,0.5-0.9,0-0.9l-2.3-1.4c-0.5-0.5-1.4-0.5-1.8,0l-1.4,1.4c-0.5,0.5-0.5,0.9,0,0.9l1.8,0.9
	C277.2,326.8,277.7,326.8,278.6,326.4z M282.7,329.1l1.8-0.9c0.5-0.5,0.5-0.9,0-0.9l-1.8-0.9c-0.5-0.5-1.4-0.5-1.8,0l-1.4,0.5
	c-0.5,0.5-0.5,0.9,0,0.9l1.8,0.9C281.8,329.6,282.2,329.6,282.7,329.1z M287.2,331.8l1.8-0.9c0.5-0.5,0.5-0.9,0-0.9l-1.8-0.9
	c-0.5-0.5-1.4-0.5-1.8,0l-1.4,0.5c-0.5,0.5-0.5,0.9,0,0.9l1.8,0.9C285.9,331.8,286.8,331.8,287.2,331.8z M291.8,334.1l1.8-0.9
	c0.5-0.5,0.5-0.9,0-0.9l-1.8-0.9c-0.5-0.5-1.4-0.5-1.8,0l-1.8,0.9c-0.5,0.5-0.5,0.9,0,0.9l1.8,0.9
	C290.4,334.6,291.3,334.6,291.8,334.1z M296.3,336.8l1.8-0.9c0.5-0.5,0.5-0.9,0-0.9l-1.8-0.9c-0.5-0.5-1.4-0.5-1.8,0l-1.8,0.9
	c-0.5,0.5-0.5,0.9,0,0.9l1.8,0.9C295,337.3,295.9,337.3,296.3,336.8z M297.3,338.6l1.8,0.9c0.5,0.5,1.4,0.5,1.8,0l1.8-0.9
	c0.5-0.5,0.5-0.9,0-0.9l-1.8-0.9c-0.5-0.5-1.4-0.5-1.8,0l-1.8,0.9C296.8,337.7,296.8,338.2,297.3,338.6z M310,341.4l-4.6-2.7
	c-0.5-0.5-1.4-0.5-1.8,0l-1.8,0.9c-0.5,0.5-0.5,0.9,0,0.9l4.6,2.7c0.5,0.5,1.4,0.5,1.8,0l1.8-0.9C310.5,342.3,310.5,341.8,310,341.4
	z M244.4,312.7l8.2,4.5c0.5,0.5,1.4,0.5,1.8,0l1.4-0.9c0.5-0.5,0.5-0.9,0-1.4l-8.2-4.5c-0.5-0.5-1.4-0.5-1.8,0l-1.4,0.9
	C243.5,311.8,243.5,312.3,244.4,312.7z M255.3,319.1l1.4,0.9c0.5,0.5,1.4,0.5,1.8,0l1.4-0.9c0.5-0.5,0.5-0.9,0-1.4l-1.4-0.9
	c-0.5-0.5-1.4-0.5-1.8,0l-1.4,0.9C254.9,318.2,254.9,318.6,255.3,319.1z M259.9,321.8l1.4,0.9c0.5,0.5,1.4,0.5,1.8,0l1.4-0.9
	c0.5-0.5,0.5-0.9,0-1.4l-1.4-0.9c-0.5-0.5-1.4-0.5-1.8,0l-1.4,0.9C259,320.9,259,321.4,259.9,321.8z M264.5,324.1l1.4,0.9
	c0.5,0.5,1.4,0.5,1.8,0l1.4-0.9c0.5-0.5,0.5-0.9,0-1.4l-1.4-0.9c-0.5-0.5-1.4-0.5-1.8,0l-1.4,1.4
	C263.5,323.6,263.5,324.1,264.5,324.1z M268.6,326.8l1.8,0.9c0.5,0.5,1.4,0.5,1.8,0l1.4-0.9c0.5-0.5,0.5-0.9,0-1.4l-1.4-0.9
	c-0.5-0.5-1.4-0.5-1.8,0l-1.4,0.9C268.1,325.9,268.1,326.4,268.6,326.8z M273.1,329.6l1.4,0.9c0.5,0.5,1.4,0.5,1.8,0l1.4-0.9
	c0.5-0.5,0.5-0.9,0-1.4l-1.4-0.9c-0.5-0.5-1.4-0.5-1.8,0l-1.4,0.9C272.7,328.6,272.7,329.1,273.1,329.6z M277.7,332.3l1.4,0.9
	c0.5,0.5,1.4,0.5,1.8,0l1.4-0.9c0.5-0.5,0.5-0.9,0-1.4l-1.4-0.9c-0.5-0.5-1.4-0.5-1.8,0l-1.4,0.9
	C277.2,331.4,277.2,331.8,277.7,332.3z M282.2,334.6l1.4,0.9c0.5,0.5,1.4,0.5,1.8,0l1.4-0.9c0.5-0.5,0.5-0.9,0-1.4l-1.4-0.9
	c-0.5-0.5-1.4-0.5-1.8,0l-1.4,0.9C281.8,333.6,281.8,334.6,282.2,334.6z M286.8,337.3l1.4,0.9c0.5,0.5,1.4,0.5,1.8,0l1.4-0.9
	c0.5-0.5,0.5-0.9,0-1.4L290,335c-0.5-0.5-1.4-0.5-1.8,0l-1.4,0.9C286.3,336.4,286.3,336.8,286.8,337.3z M291.3,340l1.4,0.9
	c0.5,0.5,1.4,0.5,1.8,0l1.4-0.9c0.5-0.5,0.5-0.9,0-1.4l-1.4-0.9c-0.5-0.5-1.4-0.5-1.8,0l-1.4,0.9C290.9,339.1,290.9,339.6,291.3,340
	z M295.9,342.3l1.4,0.9c0.5,0.5,1.4,0.5,1.8,0l1.4-0.9c0.5-0.5,0.5-0.9,0-1.4l-1.4-0.9c-0.5-0.5-1.4-0.5-1.8,0l-1.4,1.4
	C295.4,341.8,295.4,342.3,295.9,342.3z M305.5,344.1l-1.4-0.9c-0.5-0.5-1.4-0.5-1.8,0l-1.4,0.9c-0.5,0.5-0.5,0.9,0,1.4l1.4,0.9
	c0.5,0.5,1.4,0.5,1.8,0l1.4-0.9C305.9,345,305.9,344.1,305.5,344.1z M247.1,315l-3.6-1.8c-0.5-0.5-1.4-0.5-1.8,0l-1.8,0.9
	c-0.5,0.5-0.5,0.9,0,1.4l3.6,1.8c0.5,0.5,1.4,0.5,1.8,0l1.4-0.9C247.6,315.9,247.6,315.5,247.1,315z M251.7,317.7l-1.4-0.9
	c-0.5-0.5-1.4-0.5-1.8,0l-1.4,0.9c-0.5,0.5-0.5,0.9,0,1.4l1.4,0.9c0.5,0.5,1.4,0.5,1.8,0l1.4-0.9
	C252.2,318.6,252.2,318.2,251.7,317.7z M256.3,320.5l-1.4-0.9c-0.5-0.5-1.4-0.5-1.8,0l-1.4,0.9c-0.5,0.5-0.5,0.9,0,1.4l1.4,0.9
	c0.5,0.5,1.4,0.5,1.8,0l1.4-0.9C256.7,321.4,256.7,320.5,256.3,320.5z M287.7,338.6L259,322.3c-0.5-0.5-1.4-0.5-1.8,0l-1.4,0.9
	c-0.5,0.5-0.5,0.9,0,1.4l28.7,16.4c0.5,0.5,1.4,0.5,1.8,0l1.4-0.9C288.1,339.6,288.1,338.6,287.7,338.6z M292.2,340.9l-1.4-0.9
	c-0.5-0.5-1.4-0.5-1.8,0l-1.4,0.9c-0.5,0.5-0.5,0.9,0,1.4l1.4,0.9c0.5,0.5,1.4,0.5,1.8,0l1.4-0.9
	C292.7,341.8,292.7,341.4,292.2,340.9z M296.8,343.7l-1.4-0.9c-0.5-0.5-1.4-0.5-1.8,0l-1.4,0.9c-0.5,0.5-0.5,0.9,0,1.4l0.9,0.9
	c0.5,0.5,1.4,0.5,1.8,0l1.4-0.9C297.3,344.6,297.3,344.1,296.8,343.7z M301.4,346.4l-1.4-0.9c-0.5-0.5-1.4-0.5-1.8,0l-1.4,0.9
	c-0.5,0.5-0.5,0.9,0,1.4l1.4,0.9c0.5,0.5,1.4,0.5,1.8,0l1.4-0.9C301.8,347.3,301.8,346.8,301.4,346.4z"/>
<radialGradient id="SVGID_47_" cx="-90.863" cy="687.2439" r="1" gradientTransform="matrix(-47.7736 0 0 47.6848 -4059.9956 -32469.6914)" gradientUnits="userSpaceOnUse">
	<stop  offset="3.030300e-02" style="stop-color:#FEDFCB"/>
	<stop  offset="1" style="stop-color:#F9B69E"/>
</radialGradient>
<path class="st60" d="M304.5,258.2c0,0-4.1,5.9-5.5,10.9c-1.4,5-4.6,24.1-5,27.3c0,3.2-2.3,6.8-2.3,6.8s-1.4,0.5-2.3,0.9
	c-0.5,0.5-0.9,1.4-0.9,1.4s-2.3-0.5-2.7,0.5c-0.9,0.9-1.4,2.3-1.4,2.3s-1.8-0.5-2.7,0.9c-0.9,1.4-0.9,4.5-0.5,6.4
	c0.5,1.8,1.8,4.5,2.7,5.5c0.5,0.9,2.3,0,2.3,0s1.4,1.4,2.3,0.5c0.9-0.5,1.4-1.8,1.4-1.8s0.9,2.3,2.7,1.8c1.8,0,1.4-1.4,0.9-2.7
	c-0.5-1.4-0.5-2.7-0.5-2.7h1.8c0,0,0.5,2.7,2.3,2.7c1.8,0,1.4-4.1,1.4-4.1s4.6-1.8,5.9-3.6c1.4-1.8,1.8-3.6,0.9-5.5
	s-2.3-2.3-2.3-2.3s4.6-9.1,7.3-15.9c2.7-6.4,3.2-13.6,3.2-13.6l4.6-9.1L304.5,258.2z"/>
<radialGradient id="SVGID_48_" cx="-90.097" cy="686.3213" r="1" gradientTransform="matrix(-81.1334 0 0 80.9827 -6982.6084 -55262.0117)" gradientUnits="userSpaceOnUse">
	<stop  offset="3.030300e-02" style="stop-color:#FEDFCB"/>
	<stop  offset="1" style="stop-color:#F9B69E"/>
</radialGradient>
<path class="st61" d="M375.6,277.3c0,0,2.7,11.4,2.3,12.3c-0.5,0.9-9.1,5.9-14.1,11.4c-5,5.5-25.1,26.8-27.3,26.8
	c-2.7-0.5-7.7-4.5-13.7-3.2c-5.9,1.4-17.8,12.7-17.8,13.6c0.5,0.9,1.4,1.4,3.2,0c1.8-0.9,4.6-2.7,4.6-2.7s-4.6,4.5-5.5,5.9
	c-1.4,1.4-1.4,2.7,1.4,1.8c2.7-0.9,7.3-4.5,7.3-4.5s-5.5,4.1-5,5c0.5,0.9,2.7,0.9,5.5-1.4c3.2-2.3,9.6-5.9,10-5.5
	c0.5,0.5-1.8,2.3-3.2,3.2c-1.4,0.9-4.6,4.1-4.1,5c0.9,0.9,3.2,0,4.6-0.9c1.4-1.4,5-3.6,5.5-3.6c0.9-0.5,4.1,0,6.4-0.5
	c2.3,0,5.9-0.9,7.3-2.3c1.4-1.8,5.9-5,9.1-7.7c2.7-2.3,26-19.6,31.9-25.5s8.7-6.8,8.7-13.2c0-6.4-1.8-19.1-1.8-19.1L375.6,277.3z"/>
<path class="st43" d="M362.4,220.4c-3.6,4.1,4.1,25.9,5.9,33.6c1.8,7.7,7.7,23.2,7.7,23.2l16.4-4.5c0,0-2.3-20.5-2.3-31.8
	c0-11.4-5.9-18.6-12.8-21.4C369.2,216.3,367.9,214.5,362.4,220.4z"/>
<linearGradient id="SVGID_49_" gradientUnits="userSpaceOnUse" x1="381.901" y1="352.2655" x2="342.409" y2="352.2655" gradientTransform="matrix(1 0 0 -1 0 578)">
	<stop  offset="3.535350e-02" style="stop-color:#602213"/>
	<stop  offset="0.571" style="stop-color:#6D310E"/>
	<stop  offset="1" style="stop-color:#7A4108"/>
</linearGradient>
<path class="st62" d="M365.6,181.3c9.6,4.1,21.9,25.5,14.1,41.4c-5.9,12.3-12.8,9.1-16.9,21.8c-2.7,8.6,1.4,23.6-5.9,25.5
	c-7.7,2.3-21.4-20.9-10-38.6c11.4-17.7,10.9-41.8,10.9-41.8L365.6,181.3z"/>
<radialGradient id="SVGID_50_" cx="-91.6801" cy="688.2281" r="1" gradientTransform="matrix(-33.2076 0 0 33.1459 -2715.6504 -22616.043)" gradientUnits="userSpaceOnUse">
	<stop  offset="3.030300e-02" style="stop-color:#FEDFCB"/>
	<stop  offset="1" style="stop-color:#F9B69E"/>
</radialGradient>
<path class="st63" d="M327.8,165.4c-5.9,4.5-7.7,18.2-5.5,29.6c2.3,11.4,4.1,18.2,10,19.6c8.2,1.8,21.4-4.1,24.1-8.6
	c5-8.2,8.2-17.3,7.3-27.7C362.9,167.7,348.3,149,327.8,165.4z"/>
<linearGradient id="SVGID_51_" gradientUnits="userSpaceOnUse" x1="368.8363" y1="401.4304" x2="317.0633" y2="401.4304" gradientTransform="matrix(1 0 0 -1 0 578)">
	<stop  offset="3.535350e-02" style="stop-color:#602213"/>
	<stop  offset="0.571" style="stop-color:#6D310E"/>
	<stop  offset="1" style="stop-color:#7A4108"/>
</linearGradient>
<path class="st64" d="M365.6,197.2c0,0,1.4-8.6-4.1-6.8c-0.5,0-0.5,0.5-0.9,0.5c-2.7,1.4-4.6-0.9-6.8-2.7c-6.4-5-15.5,0.9-30.1,0.5
	c-16.9-0.5-0.5-42.7,31-30.5C377.9,167.2,365.6,197.2,365.6,197.2z"/>
<linearGradient id="SVGID_52_" gradientUnits="userSpaceOnUse" x1="291.3935" y1="268.7631" x2="38.0746" y2="290.9061" gradientTransform="matrix(1 0 0 -1 0 578)">
	<stop  offset="0" style="stop-color:#311B61"/>
	<stop  offset="0.2031" style="stop-color:#290F52"/>
	<stop  offset="0.4949" style="stop-color:#200041"/>
	<stop  offset="1" style="stop-color:#0F001F"/>
</linearGradient>
<path class="st65" d="M290,360.5L219.8,320c-2.7-1.4-5-5.9-5-9.5v-55c0-3.6,2.3-5.5,5-3.6l70.2,40.5c2.7,1.4,5,5.9,5,9.5v55
	C295,360.5,292.7,361.8,290,360.5z"/>
<linearGradient id="SVGID_53_" gradientUnits="userSpaceOnUse" x1="311.2802" y1="214.5129" x2="244.7781" y2="320.9709" gradientTransform="matrix(1 0 0 -1 0 578)">
	<stop  offset="5.555560e-02" style="stop-color:#200041"/>
	<stop  offset="0.2576" style="stop-color:#210243"/>
	<stop  offset="0.3572" style="stop-color:#25084B"/>
	<stop  offset="0.4341" style="stop-color:#2C1358"/>
	<stop  offset="0.4697" style="stop-color:#311B61"/>
	<stop  offset="0.482" style="stop-color:#351F65"/>
	<stop  offset="0.4954" style="stop-color:#422C73"/>
	<stop  offset="0.5093" style="stop-color:#584188"/>
	<stop  offset="0.5235" style="stop-color:#765FA7"/>
	<stop  offset="0.5303" style="stop-color:#8770B8"/>
	<stop  offset="0.5366" style="stop-color:#7E67AE"/>
	<stop  offset="0.5617" style="stop-color:#5C468D"/>
	<stop  offset="0.5857" style="stop-color:#442E75"/>
	<stop  offset="0.6078" style="stop-color:#362066"/>
	<stop  offset="0.6263" style="stop-color:#311B61"/>
	<stop  offset="0.6724" style="stop-color:#2A1155"/>
	<stop  offset="0.7491" style="stop-color:#230446"/>
	<stop  offset="0.8131" style="stop-color:#200041"/>
	<stop  offset="1" style="stop-color:#200041"/>
</linearGradient>
<path class="st66" d="M290.3,291.4l-70.2-40.5c-0.9-0.5-1.8-0.9-2.7-0.5l-1.4,0.9c0.9-0.5,1.8-0.5,3.2,0.5l70.2,40.5
	c2.7,1.4,5,5.9,5,9.5v55c0,2.3-0.9,3.6-2.3,4.1h0.5c0,0,1.4-0.9,1.8-0.9c0.9-0.5,1.4-1.8,1.4-3.6v-55.5
	C295.3,297.3,293.1,293.2,290.3,291.4z"/>
<linearGradient id="SVGID_54_" gradientUnits="userSpaceOnUse" x1="337.1256" y1="364.0979" x2="359.7056" y2="378.0529" gradientTransform="matrix(1 0 0 -1 0 578)">
	<stop  offset="0" style="stop-color:#311B61"/>
	<stop  offset="0.2031" style="stop-color:#290F52"/>
	<stop  offset="0.4949" style="stop-color:#200041"/>
	<stop  offset="1" style="stop-color:#0F001F"/>
</linearGradient>
<path class="st67" d="M336,212.2v-1.8l7.7-0.5c3.2,0,5.9-1.4,7.7-3.6l6.8-7.7l1.4,1.4l-6.8,7.7c-2.3,2.7-5.5,4.1-9.1,4.1L336,212.2z
	"/>
<linearGradient id="SVGID_55_" gradientUnits="userSpaceOnUse" x1="334.0183" y1="365.8255" x2="337.8073" y2="368.1675" gradientTransform="matrix(1 0 0 -1 0 578)">
	<stop  offset="0" style="stop-color:#311B61"/>
	<stop  offset="0.2031" style="stop-color:#290F52"/>
	<stop  offset="0.4949" style="stop-color:#200041"/>
	<stop  offset="1" style="stop-color:#0F001F"/>
</linearGradient>
<path class="st68" d="M338.3,211.3c0,0.9-1.4,1.4-2.7,1.4s-2.3-0.9-2.3-1.8c0-0.9,1.4-1.4,2.7-1.4
	C337.3,209.5,338.7,210.4,338.3,211.3z"/>
<linearGradient id="SVGID_56_" gradientUnits="userSpaceOnUse" x1="353.114" y1="377.0114" x2="361.64" y2="392.5034" gradientTransform="matrix(1 0 0 -1 0 578)">
	<stop  offset="5.555560e-02" style="stop-color:#200041"/>
	<stop  offset="0.1029" style="stop-color:#220345"/>
	<stop  offset="0.5152" style="stop-color:#311B61"/>
	<stop  offset="0.5886" style="stop-color:#2A1155"/>
	<stop  offset="0.711" style="stop-color:#230446"/>
	<stop  offset="0.8131" style="stop-color:#200041"/>
	<stop  offset="1" style="stop-color:#200041"/>
</linearGradient>
<path class="st69" d="M351,196.8c0,1.8,0.5,3.2,1.8,4.1l2.3,1.4c0.9,0.5,0.5-0.9,2.3-1.8c3.6-1.8,6.4-6.8,6.4-10.9
	c0-1.8,1.8-1.8,0.9-2.7l-2.7-1.4c-0.9-0.5-2.7-0.5-4.6,0.5C353.7,188.1,351,192.7,351,196.8z"/>
<linearGradient id="SVGID_57_" gradientUnits="userSpaceOnUse" x1="355.0052" y1="384.8067" x2="375.7542" y2="378.9387" gradientTransform="matrix(1 0 0 -1 0 578)">
	<stop  offset="0" style="stop-color:#311B61"/>
	<stop  offset="0.2031" style="stop-color:#290F52"/>
	<stop  offset="0.4949" style="stop-color:#200041"/>
	<stop  offset="1" style="stop-color:#0F001F"/>
</linearGradient>
<path class="st70" d="M353.3,198.1c0,4.1,2.7,5.5,6.4,3.6c3.6-1.8,6.4-6.8,6.4-10.9s-2.7-5.5-6.4-3.6
	C356.5,189.1,353.3,194.1,353.3,198.1z"/>
<linearGradient id="SVGID_58_" gradientUnits="userSpaceOnUse" x1="357.6226" y1="378.7519" x2="365.8606" y2="392.7249" gradientTransform="matrix(1 0 0 -1 0 578)">
	<stop  offset="5.555560e-02" style="stop-color:#200041"/>
	<stop  offset="0.1029" style="stop-color:#220345"/>
	<stop  offset="0.5152" style="stop-color:#311B61"/>
	<stop  offset="0.5886" style="stop-color:#2A1155"/>
	<stop  offset="0.711" style="stop-color:#230446"/>
	<stop  offset="0.8131" style="stop-color:#200041"/>
	<stop  offset="1" style="stop-color:#200041"/>
</linearGradient>
<path class="st71" d="M356.5,197.7c0,1.4,0.5,2.3,1.4,2.7l0.5,0.5c0.9,0.5,0.5-0.5,1.4-1.4c2.3-1.4,4.1-4.5,4.1-7.3
	c0-1.4,1.4-1.4,0.5-1.8l-0.5-0.5c-0.9-0.5-1.8-0.5-2.7,0.5C358.3,191.8,356.5,195,356.5,197.7z"/>
<linearGradient id="SVGID_59_" gradientUnits="userSpaceOnUse" x1="356.905" y1="382.8074" x2="365.361" y2="382.8074" gradientTransform="matrix(1 0 0 -1 0 578)">
	<stop  offset="0" style="stop-color:#311B61"/>
	<stop  offset="0.2031" style="stop-color:#290F52"/>
	<stop  offset="0.4949" style="stop-color:#200041"/>
	<stop  offset="1" style="stop-color:#0F001F"/>
</linearGradient>
<path class="st72" d="M356.9,197.7c0,2.7,1.8,3.6,4.1,2.3c2.3-1.4,4.1-4.5,4.1-7.3s-1.8-3.6-4.1-2.3
	C358.8,191.8,356.9,195,356.9,197.7z"/>
<linearGradient id="SVGID_60_" gradientUnits="userSpaceOnUse" x1="355.3824" y1="375.4133" x2="371.8704" y2="394.1533" gradientTransform="matrix(1 0 0 -1 0 578)">
	<stop  offset="0" style="stop-color:#311B61"/>
	<stop  offset="0.2031" style="stop-color:#290F52"/>
	<stop  offset="0.4949" style="stop-color:#200041"/>
	<stop  offset="1" style="stop-color:#0F001F"/>
</linearGradient>
<path class="st73" d="M358.3,197.2c0,1.8,1.4,2.7,3.2,1.8c1.8-0.9,3.2-3.2,3.2-5s-1.4-2.7-3.2-1.8
	C359.7,193.1,358.3,195.4,358.3,197.2z"/>
<linearGradient id="SVGID_61_" gradientUnits="userSpaceOnUse" x1="333.8605" y1="426.5385" x2="360.7935" y2="388.8315" gradientTransform="matrix(1 0 0 -1 0 578)">
	<stop  offset="5.555560e-02" style="stop-color:#200041"/>
	<stop  offset="0.1029" style="stop-color:#220345"/>
	<stop  offset="0.5152" style="stop-color:#311B61"/>
	<stop  offset="0.5886" style="stop-color:#2A1155"/>
	<stop  offset="0.711" style="stop-color:#230446"/>
	<stop  offset="0.8131" style="stop-color:#200041"/>
	<stop  offset="1" style="stop-color:#200041"/>
</linearGradient>
<path class="st74" d="M345.5,159c-5.9-3.2-10.9-4.5-14.1-3.2l-4.1,2.3c3.2-1.8,8.7-0.5,14.6,3.2c10,5.9,18.7,15.9,18.7,27.3v3.6
	l4.1-2.3v-3.6C364.2,175,356,165,345.5,159z"/>
<linearGradient id="SVGID_62_" gradientUnits="userSpaceOnUse" x1="327.478" y1="402.8498" x2="360.158" y2="402.8498" gradientTransform="matrix(1 0 0 -1 0 578)">
	<stop  offset="0" style="stop-color:#311B61"/>
	<stop  offset="0.2031" style="stop-color:#290F52"/>
	<stop  offset="0.4949" style="stop-color:#200041"/>
	<stop  offset="1" style="stop-color:#0F001F"/>
</linearGradient>
<path class="st75" d="M341.4,161.3c-5.5-3.2-10.9-4.5-14.1-3.2C331,156.8,336,158.1,341.4,161.3c10,5.9,18.2,15.9,18.2,27.7v3.6h0.5
	v-3.6C360.1,177.2,351.9,167.2,341.4,161.3z"/>
<path class="st39" d="M162.2,89.5L28.7,12.2C12.8,3.1,0,12.6,0,34v20.9c0,20.9,12.8,45.5,28.7,54.6l56.5,34.1l21.9,64.6l21.9-39.1
	l32.8,17.7c15.9,9.1,28.7-0.5,28.7-21.8V144C190.9,123.1,178.1,99,162.2,89.5z"/>
<path class="st38" d="M138,174l-9.1-5l-21.9,39.1l17.8-10L138,174z"/>
<path class="st38" d="M176.8,80.8L43.3,3.5C36.4-0.6,30.1-1,25.5,1.7L10,10.8c5-3.2,11.8-2.7,19.1,1.4l133.5,77.3
	c15.9,9.1,28.7,33.6,28.7,54.6V165c0,10.5-3.2,17.7-8.2,21.8l8.7-5.9c7.3-4.1,14.1-10.9,14.1-24.6v-20.9
	C205.5,114.5,192.7,90.4,176.8,80.8z"/>
<path class="st43" d="M129.8,89.9l-10.5-5.5v5.9l10.5,5.9V89.9z"/>
<path class="st43" d="M117.1,121.3l-41-22.7v6.4l41,22.3V121.3z"/>
<path class="st43" d="M133.5,117.7l-20-11.4v6.4l20,11.4V117.7z"/>
<path class="st43" d="M149.4,114l-25.1-13.6v5.9l25.1,14.1V114z"/>
<path class="st43" d="M155.3,104.5l-19.1-10.9v6.4l19.1,10.9V104.5z"/>
<path class="st43" d="M107.5,103.1L76.1,85.8v6.4l31.4,16.8V103.1z"/>
<path class="st43" d="M76.1,79l24.1,13.6v-6.4L76.1,73.1V79z"/>
<path class="st43" d="M98.4,130.9l30.5,16.8v-5.9l-30.5-16.8V130.9z"/>
<path class="st43" d="M123,130.9l34.6,20v-6.4L123,124.9V130.9z"/>
<path class="st43" d="M135.3,151.3l9.6,5.9v-6.4l-9.6-5.9V151.3z"/>
<path class="st43" d="M139.9,121.3v6.4l31.4,17.7v-5.9L139.9,121.3z"/>
<path class="st43" d="M76.1,118.6l15.9,9.1v-6.4l-15.9-9.1V118.6z"/>
<path class="st43" d="M106.1,95.8l11.8,6.8v-5.9l-11.8-6.8V95.8z"/>
<path class="st43" d="M76.1,66.3l37.4,20.5v-5.9L76.1,59.9V66.3z"/>
<path class="st43" d="M37.4,81.3c-0.5-0.5-0.5-0.9-0.5-1.4c0-1.4,0-2.3,0-2.7c0.5-2.7,0.9-4.5,2.3-5.9c1.4-1.4,3.2-2.7,5.5-4.1
	c1.8-0.9,3.2-1.8,4.1-2.7c0.9-0.9,1.4-1.8,1.4-3.2c0-2.3-0.5-4.5-2.3-6.8c-1.4-2.3-3.6-4.1-5.9-5.5c-5-2.7-8.2-1.8-9.1,3.6
	c-0.5,1.4-0.9,1.4-2.3,0.9l-6.8-4.1c-0.5-0.5-0.9-0.9-1.4-1.4c-0.5-0.5-0.5-1.4-0.5-1.8c0-3.2,0.9-5.9,2.7-7.7
	c1.8-1.8,4.1-2.7,7.3-2.7s6.8,1.4,10.9,3.6c4.6,2.3,7.7,5.5,10.5,8.6c2.7,3.2,5,6.4,5.9,9.5c1.4,3.2,1.8,5.9,1.8,8.6
	c0,3.2-0.5,5.5-1.8,6.8c-1.4,1.4-2.7,3.2-5,4.5c-1.8,0.9-3.2,2.3-4.1,3.2c-0.9,0.9-1.4,2.3-1.8,3.6c0,1.4-0.5,2.3-0.5,2.7
	c0.5-0.5,0-0.5-0.5,0c-0.5,0-0.9,0-1.4-0.5l-7.7-4.5C37.8,82.2,37.4,81.7,37.4,81.3z M36.9,97.7c-0.5-0.5-0.5-1.4-0.5-1.8v-8.2
	c0-0.5,0-0.9,0.5-1.4c0.5,0,0.9,0,1.4,0l7.7,4.5c0.5,0.5,0.9,0.9,1.4,1.4c0.5,0.5,0.5,1.4,0.5,1.8v8.2c0,0.5,0,0.9-0.5,1.4
	c-0.5,0-0.9,0-1.4,0L38.3,99C37.8,99,37.4,98.6,36.9,97.7z"/>
</svg>
