<?xml version="1.0" encoding="utf-8"?>
<!-- Generator: Adobe Illustrator 21.1.0, SVG Export Plug-In . SVG Version: 6.00 Build 0)  -->
<svg version="1.1" id="Layer_1" xmlns="http://www.w3.org/2000/svg" xmlns:xlink="http://www.w3.org/1999/xlink" x="0px" y="0px"
	 viewBox="0 0 432 576" style="enable-background:new 0 0 432 576;" xml:space="preserve">
<style type="text/css">
	.st0{fill:#78FFBE;}
	.st1{fill:#55E5B1;}
	.st2{fill:#FFFFFF;}
</style>
<path class="st0" d="M162.2,89.5L28.7,12.2C12.8,3.1,0,12.6,0,34v20.9c0,20.9,12.8,45.5,28.7,54.6l56.5,34.1l21.9,64.6l21.9-39.1
	l32.8,17.7c15.9,9.1,28.7-0.5,28.7-21.8V144C190.9,123.1,178.1,99,162.2,89.5z"/>
<path class="st1" d="M138,174l-9.1-5l-21.9,39.1l17.8-10L138,174z"/>
<path class="st1" d="M176.8,80.8L43.3,3.5C36.4-0.6,30.1-1,25.5,1.7L10,10.8c5-3.2,11.8-2.7,19.1,1.4l133.5,77.3
	c15.9,9.1,28.7,33.6,28.7,54.6V165c0,10.5-3.2,17.7-8.2,21.8l8.7-5.9c7.3-4.1,14.1-10.9,14.1-24.6v-20.9
	C205.5,114.5,192.7,90.4,176.8,80.8z"/>
<path class="st2" d="M129.8,89.9l-10.5-5.5v5.9l10.5,5.9V89.9z"/>
<path class="st2" d="M117.1,121.3l-41-22.7v6.4l41,22.3V121.3z"/>
<path class="st2" d="M133.5,117.7l-20-11.4v6.4l20,11.4V117.7z"/>
<path class="st2" d="M149.4,114l-25.1-13.6v5.9l25.1,14.1V114z"/>
<path class="st2" d="M155.3,104.5l-19.1-10.9v6.4l19.1,10.9V104.5z"/>
<path class="st2" d="M107.5,103.1L76.1,85.8v6.4l31.4,16.8V103.1z"/>
<path class="st2" d="M76.1,79l24.1,13.6v-6.4L76.1,73.1V79z"/>
<path class="st2" d="M98.4,130.9l30.5,16.8v-5.9l-30.5-16.8V130.9z"/>
<path class="st2" d="M123,130.9l34.6,20v-6.4L123,124.9V130.9z"/>
<path class="st2" d="M135.3,151.3l9.6,5.9v-6.4l-9.6-5.9V151.3z"/>
<path class="st2" d="M139.9,121.3v6.4l31.4,17.7v-5.9L139.9,121.3z"/>
<path class="st2" d="M76.1,118.6l15.9,9.1v-6.4l-15.9-9.1V118.6z"/>
<path class="st2" d="M106.1,95.8l11.8,6.8v-5.9l-11.8-6.8V95.8z"/>
<path class="st2" d="M76.1,66.3l37.4,20.5v-5.9L76.1,59.9V66.3z"/>
<path class="st2" d="M37.4,81.3c-0.5-0.5-0.5-0.9-0.5-1.4c0-1.4,0-2.3,0-2.7c0.5-2.7,0.9-4.5,2.3-5.9c1.4-1.4,3.2-2.7,5.5-4.1
	c1.8-0.9,3.2-1.8,4.1-2.7c0.9-0.9,1.4-1.8,1.4-3.2c0-2.3-0.5-4.5-2.3-6.8c-1.4-2.3-3.6-4.1-5.9-5.5c-5-2.7-8.2-1.8-9.1,3.6
	c-0.5,1.4-0.9,1.4-2.3,0.9l-6.8-4.1c-0.5-0.5-0.9-0.9-1.4-1.4c-0.5-0.5-0.5-1.4-0.5-1.8c0-3.2,0.9-5.9,2.7-7.7
	c1.8-1.8,4.1-2.7,7.3-2.7s6.8,1.4,10.9,3.6c4.6,2.3,7.7,5.5,10.5,8.6c2.7,3.2,5,6.4,5.9,9.5c1.4,3.2,1.8,5.9,1.8,8.6
	c0,3.2-0.5,5.5-1.8,6.8c-1.4,1.4-2.7,3.2-5,4.5c-1.8,0.9-3.2,2.3-4.1,3.2c-0.9,0.9-1.4,2.3-1.8,3.6c0,1.4-0.5,2.3-0.5,2.7
	c0.5-0.5,0-0.5-0.5,0c-0.5,0-0.9,0-1.4-0.5l-7.7-4.5C37.8,82.2,37.4,81.7,37.4,81.3z M36.9,97.7c-0.5-0.5-0.5-1.4-0.5-1.8v-8.2
	c0-0.5,0-0.9,0.5-1.4c0.5,0,0.9,0,1.4,0l7.7,4.5c0.5,0.5,0.9,0.9,1.4,1.4c0.5,0.5,0.5,1.4,0.5,1.8v8.2c0,0.5,0,0.9-0.5,1.4
	c-0.5,0-0.9,0-1.4,0L38.3,99C37.8,99,37.4,98.6,36.9,97.7z"/>
</svg>
